<?xml version="1.0" encoding="us-ascii" standalone="no"?><svg xmlns="http://www.w3.org/2000/svg" xmlns:xlink="http://www.w3.org/1999/xlink" contentStyleType="text/css" height="589px" preserveAspectRatio="none" style="width:1331px;height:589px;background:#FFFFFF;" version="1.1" viewBox="0 0 1331 589" width="1331px" zoomAndPan="magnify"><defs/><g><text fill="#000000" font-family="sans-serif" font-size="14" font-weight="bold" lengthAdjust="spacing" textLength="135" x="591.1041" y="22.9951">&#20027;&#30028;&#38754;&#25193;&#23637;&#29366;&#24577;&#31649;&#29702;</text><ellipse cx="452.2081" cy="53.2969" fill="#222222" rx="10" ry="10" style="stroke:#222222;stroke-width:1.0;"/><g id="&#24453;&#36873;&#25321;&#21151;&#33021;"><rect fill="#F1F1F1" height="78.2031" rx="12.5" ry="12.5" style="stroke:#181818;stroke-width:0.5;" width="167" x="368.7081" y="124.2969"/><line style="stroke:#181818;stroke-width:0.5;" x1="368.7081" x2="535.7081" y1="150.5938" y2="150.5938"/><text fill="#000000" font-family="sans-serif" font-size="14" lengthAdjust="spacing" textLength="70" x="417.2081" y="142.292">&#24453;&#36873;&#25321;&#21151;&#33021;</text><text fill="#000000" font-family="sans-serif" font-size="12" lengthAdjust="spacing" textLength="137" x="373.7081" y="166.7324">SelectUploadFeature()</text><text fill="#000000" font-family="sans-serif" font-size="12" lengthAdjust="spacing" textLength="137" x="373.7081" y="180.7012">SelectHistoryFeature()</text><text fill="#000000" font-family="sans-serif" font-size="12" lengthAdjust="spacing" textLength="147" x="373.7081" y="194.6699">NavigateToMainScreen()</text></g><g id="&#26174;&#31034;&#19978;&#20256;&#30028;&#38754;"><rect fill="#F1F1F1" height="50" rx="12.5" ry="12.5" style="stroke:#181818;stroke-width:0.5;" width="104" x="400.2081" y="279.2969"/><line style="stroke:#181818;stroke-width:0.5;" x1="400.2081" x2="504.2081" y1="305.5938" y2="305.5938"/><text fill="#000000" font-family="sans-serif" font-size="14" lengthAdjust="spacing" textLength="84" x="410.2081" y="297.292">&#26174;&#31034;&#19978;&#20256;&#30028;&#38754;</text></g><g id="&#19978;&#20256;&#29031;&#29255;&#22788;&#29702;"><rect fill="#F1F1F1" height="50" rx="12.5" ry="12.5" style="stroke:#181818;stroke-width:0.5;" width="104" x="354.2081" y="406.2969"/><line style="stroke:#181818;stroke-width:0.5;" x1="354.2081" x2="458.2081" y1="432.5938" y2="432.5938"/><text fill="#000000" font-family="sans-serif" font-size="14" lengthAdjust="spacing" textLength="84" x="364.2081" y="424.292">&#19978;&#20256;&#29031;&#29255;&#22788;&#29702;</text></g><g id="&#26174;&#31034;&#32467;&#26524;"><rect fill="#F1F1F1" height="50" rx="12.5" ry="12.5" style="stroke:#181818;stroke-width:0.5;" width="76" x="245.2081" y="533.2969"/><line style="stroke:#181818;stroke-width:0.5;" x1="245.2081" x2="321.2081" y1="559.5938" y2="559.5938"/><text fill="#000000" font-family="sans-serif" font-size="14" lengthAdjust="spacing" textLength="56" x="255.2081" y="551.292">&#26174;&#31034;&#32467;&#26524;</text></g><g id="&#26174;&#31034;&#21382;&#21490;&#35760;&#24405;&#30028;&#38754;"><rect fill="#F1F1F1" height="50" rx="12.5" ry="12.5" style="stroke:#181818;stroke-width:0.5;" width="132" x="731.2081" y="279.2969"/><line style="stroke:#181818;stroke-width:0.5;" x1="731.2081" x2="863.2081" y1="305.5938" y2="305.5938"/><text fill="#000000" font-family="sans-serif" font-size="14" lengthAdjust="spacing" textLength="112" x="741.2081" y="297.292">&#26174;&#31034;&#21382;&#21490;&#35760;&#24405;&#30028;&#38754;</text></g><g id="&#26597;&#30475;&#35760;&#24405;&#35814;&#24773;"><rect fill="#F1F1F1" height="50" rx="12.5" ry="12.5" style="stroke:#181818;stroke-width:0.5;" width="104" x="1189.2081" y="406.2969"/><line style="stroke:#181818;stroke-width:0.5;" x1="1189.2081" x2="1293.2081" y1="432.5938" y2="432.5938"/><text fill="#000000" font-family="sans-serif" font-size="14" lengthAdjust="spacing" textLength="84" x="1199.2081" y="424.292">&#26597;&#30475;&#35760;&#24405;&#35814;&#24773;</text></g><g id="&#25191;&#34892;&#20877;&#27425;&#20998;&#26512;&#25110;&#21024;&#38500;&#35760;&#24405;"><rect fill="#F1F1F1" height="50" rx="12.5" ry="12.5" style="stroke:#181818;stroke-width:0.5;" width="174" x="565.2081" y="406.2969"/><line style="stroke:#181818;stroke-width:0.5;" x1="565.2081" x2="739.2081" y1="432.5938" y2="432.5938"/><text fill="#000000" font-family="sans-serif" font-size="14" lengthAdjust="spacing" textLength="154" x="575.2081" y="424.292">&#25191;&#34892;&#20877;&#27425;&#20998;&#26512;&#25110;&#21024;&#38500;&#35760;&#24405;</text></g><g id="&#21024;&#38500;&#24182;&#26356;&#26032;&#21382;&#21490;&#35760;&#24405;"><rect fill="#F1F1F1" height="50" rx="12.5" ry="12.5" style="stroke:#181818;stroke-width:0.5;" width="146" x="746.2081" y="533.2969"/><line style="stroke:#181818;stroke-width:0.5;" x1="746.2081" x2="892.2081" y1="559.5938" y2="559.5938"/><text fill="#000000" font-family="sans-serif" font-size="14" lengthAdjust="spacing" textLength="126" x="756.2081" y="551.292">&#21024;&#38500;&#24182;&#26356;&#26032;&#21382;&#21490;&#35760;&#24405;</text></g><!--link *start* to ?????--><g id="link_*start*_&#24453;&#36873;&#25321;&#21151;&#33021;"><path d="M452.2081,63.5049 C452.2081,76.8699 452.2081,96.4259 452.2081,118.1969 " fill="none" id="*start*-to-&#24453;&#36873;&#25321;&#21151;&#33021;" style="stroke:#181818;stroke-width:1.0;"/><polygon fill="#181818" points="452.2081,124.1969,456.2081,115.1969,452.2081,119.1969,448.2081,115.1969,452.2081,124.1969" style="stroke:#181818;stroke-width:1.0;"/></g><!--link ????? to ??????--><g id="link_&#24453;&#36873;&#25321;&#21151;&#33021;_&#26174;&#31034;&#19978;&#20256;&#30028;&#38754;"><path d="M452.2081,202.6469 C452.2081,227.0759 452.2081,251.9789 452.2081,273.0549 " fill="none" id="&#24453;&#36873;&#25321;&#21151;&#33021;-to-&#26174;&#31034;&#19978;&#20256;&#30028;&#38754;" style="stroke:#181818;stroke-width:1.0;"/><polygon fill="#181818" points="452.2081,279.0549,456.2081,270.0549,452.2081,274.0549,448.2081,270.0549,452.2081,279.0549" style="stroke:#181818;stroke-width:1.0;"/><text fill="#000000" font-family="sans-serif" font-size="13" lengthAdjust="spacing" textLength="122" x="453.2081" y="245.3638">ShowUploadForm()</text></g><!--link ?????? to ??????--><g id="link_&#26174;&#31034;&#19978;&#20256;&#30028;&#38754;_&#19978;&#20256;&#29031;&#29255;&#22788;&#29702;"><path d="M443.3381,329.3979 C435.1931,351.5329 425.258,378.5269 417.122,400.6389 " fill="none" id="&#26174;&#31034;&#19978;&#20256;&#30028;&#38754;-to-&#19978;&#20256;&#29031;&#29255;&#22788;&#29702;" style="stroke:#181818;stroke-width:1.0;"/><polygon fill="#181818" points="415.0501,406.2699,421.9119,399.2047,416.7767,401.5774,414.404,396.4422,415.0501,406.2699" style="stroke:#181818;stroke-width:1.0;"/><text fill="#000000" font-family="sans-serif" font-size="13" lengthAdjust="spacing" textLength="129" x="433.2081" y="372.3638">SubmitPhoto(photo)</text></g><!--link ?????? to ????--><g id="link_&#19978;&#20256;&#29031;&#29255;&#22788;&#29702;_&#26174;&#31034;&#32467;&#26524;"><path d="M353.9821,452.7239 C337.8701,461.1169 321.2251,472.2279 309.2081,486.2969 C297.8681,499.5719 292.7435,512.395 289.0435,527.2474 " fill="none" id="&#19978;&#20256;&#29031;&#29255;&#22788;&#29702;-to-&#26174;&#31034;&#32467;&#26524;" style="stroke:#181818;stroke-width:1.0;"/><polygon fill="#181818" points="287.5931,533.0695,293.65,525.3033,288.8018,528.2178,285.8873,523.3695,287.5931,533.0695" style="stroke:#181818;stroke-width:1.0;"/><text fill="#000000" font-family="sans-serif" font-size="13" lengthAdjust="spacing" textLength="135" x="310.2081" y="499.3638">ShowResults(results)</text></g><!--link ???? to ?????--><g id="link_&#26174;&#31034;&#32467;&#26524;_&#24453;&#36873;&#25321;&#21151;&#33021;"><path d="M273.2591,533.1026 C259.0451,494.7267 237.1591,418.2169 261.2081,359.2969 C288.2481,293.0459 345.0541,240.7241 391.0311,205.9821 " fill="none" id="&#26174;&#31034;&#32467;&#26524;-to-&#24453;&#36873;&#25321;&#21151;&#33021;" style="stroke:#181818;stroke-width:1.0;"/><polygon fill="#181818" points="395.8181,202.3649,386.2261,204.5994,391.8289,205.3793,391.0491,210.9821,395.8181,202.3649" style="stroke:#181818;stroke-width:1.0;"/><text fill="#000000" font-family="sans-serif" font-size="13" lengthAdjust="spacing" textLength="156" x="262.2081" y="372.3638">NavigateToMainScreen()</text></g><!--reverse link ????? to ????--><g id="link_&#24453;&#36873;&#25321;&#21151;&#33021;_&#26174;&#31034;&#32467;&#26524;"><path d="M362.5042,176.9553 C264.1862,195.6953 112.9196,242.1839 53.2076,359.2969 C6,451.8849 168.0871,519.3424 244.9691,545.4281 " fill="none" id="&#24453;&#36873;&#25321;&#21151;&#33021;-backto-&#26174;&#31034;&#32467;&#26524;" style="stroke:#181818;stroke-width:1.0;"/><polygon fill="#181818" points="368.3981,175.8319,358.8083,173.5877,363.4865,176.7681,360.3062,181.4463,368.3981,175.8319" style="stroke:#181818;stroke-width:1.0;"/><text fill="#000000" font-family="sans-serif" font-size="13" lengthAdjust="spacing" textLength="156" x="54.2076" y="372.3638">NavigateToMainScreen()</text></g><!--link ????? to ????????--><g id="link_&#24453;&#36873;&#25321;&#21151;&#33021;_&#26174;&#31034;&#21382;&#21490;&#35760;&#24405;&#30028;&#38754;"><path d="M535.7221,197.9449 C598.0421,223.0529 676.1328,254.5167 731.8648,276.9707 " fill="none" id="&#24453;&#36873;&#25321;&#21151;&#33021;-to-&#26174;&#31034;&#21382;&#21490;&#35760;&#24405;&#30028;&#38754;" style="stroke:#181818;stroke-width:1.0;"/><polygon fill="#181818" points="737.4301,279.2129,730.577,272.1394,732.7924,277.3444,727.5874,279.5597,737.4301,279.2129" style="stroke:#181818;stroke-width:1.0;"/><text fill="#000000" font-family="sans-serif" font-size="13" lengthAdjust="spacing" textLength="156" x="656.2081" y="245.3638">ShowHistory(historyList)</text></g><!--link ???????? to ??????--><g id="link_&#26174;&#31034;&#21382;&#21490;&#35760;&#24405;&#30028;&#38754;_&#26597;&#30475;&#35760;&#24405;&#35814;&#24773;"><path d="M863.4391,326.0409 C895.1611,336.0209 933.6771,348.2009 968.2081,359.2969 C991.3561,366.7359 996.7231,369.9969 1020.2081,376.2969 C1082.5081,393.0099 1099.7381,390.2399 1162.2081,406.2969 C1170.9581,408.5449 1174.4229,409.4436 1183.3629,412.0786 " fill="none" id="&#26174;&#31034;&#21382;&#21490;&#35760;&#24405;&#30028;&#38754;-to-&#26597;&#30475;&#35760;&#24405;&#35814;&#24773;" style="stroke:#181818;stroke-width:1.0;"/><polygon fill="#181818" points="1189.1181,413.7749,1181.6161,407.3936,1184.3221,412.3613,1179.3544,415.0672,1189.1181,413.7749" style="stroke:#181818;stroke-width:1.0;"/><text fill="#000000" font-family="sans-serif" font-size="13" lengthAdjust="spacing" textLength="186" x="1021.2081" y="372.3638">ShowRecordDetails(recordId)</text></g><!--link ?????? to ?????--><g id="link_&#26597;&#30475;&#35760;&#24405;&#35814;&#24773;_&#24453;&#36873;&#25321;&#21151;&#33021;"><path d="M1236.8081,406.2449 C1232.8281,390.8889 1225.4781,371.6209 1212.2081,359.2969 C1113.3381,267.4599 718.2329,201.8305 541.9539,176.4635 " fill="none" id="&#26597;&#30475;&#35760;&#24405;&#35814;&#24773;-to-&#24453;&#36873;&#25321;&#21151;&#33021;" style="stroke:#181818;stroke-width:1.0;"/><polygon fill="#181818" points="536.0151,175.6089,544.3536,180.85,540.9641,176.3211,545.4931,172.9316,536.0151,175.6089" style="stroke:#181818;stroke-width:1.0;"/><text fill="#000000" font-family="sans-serif" font-size="13" lengthAdjust="spacing" textLength="156" x="1167.2081" y="308.8638">NavigateToMainScreen()</text></g><!--link ???????? to ???????????--><g id="link_&#26174;&#31034;&#21382;&#21490;&#35760;&#24405;&#30028;&#38754;_&#25191;&#34892;&#20877;&#27425;&#20998;&#26512;&#25110;&#21024;&#38500;&#35760;&#24405;"><path d="M731.0641,312.3129 C700.8781,319.1979 667.7871,332.7399 649.2081,359.2969 C639.8011,372.7419 639.6717,385.5248 642.9747,400.3308 " fill="none" id="&#26174;&#31034;&#21382;&#21490;&#35760;&#24405;&#30028;&#38754;-to-&#25191;&#34892;&#20877;&#27425;&#20998;&#26512;&#25110;&#21024;&#38500;&#35760;&#24405;" style="stroke:#181818;stroke-width:1.0;"/><polygon fill="#181818" points="644.2811,406.1869,646.2255,396.5319,643.1924,401.3068,638.4175,398.2737,644.2811,406.1869" style="stroke:#181818;stroke-width:1.0;"/><text fill="#000000" font-family="sans-serif" font-size="13" lengthAdjust="spacing" textLength="265" x="650.2081" y="372.3638">ChooseAction(reanalyze/delete, recordId)</text></g><!--link ??????????? to ????--><g id="link_&#25191;&#34892;&#20877;&#27425;&#20998;&#26512;&#25110;&#21024;&#38500;&#35760;&#24405;_&#26174;&#31034;&#32467;&#26524;"><path d="M585.0211,456.3899 C545.7921,470.3369 495.2921,488.0872 450.2081,503.2969 C406.1771,518.1509 361.0617,532.6544 327.1547,543.4221 " fill="none" id="&#25191;&#34892;&#20877;&#27425;&#20998;&#26512;&#25110;&#21024;&#38500;&#35760;&#24405;-to-&#26174;&#31034;&#32467;&#26524;" style="stroke:#181818;stroke-width:1.0;"/><polygon fill="#181818" points="321.4361,545.2381,331.2246,546.3264,326.2016,543.7247,328.8033,538.7017,321.4361,545.2381" style="stroke:#181818;stroke-width:1.0;"/><text fill="#000000" font-family="sans-serif" font-size="13" lengthAdjust="spacing" textLength="166" x="495.2081" y="499.3638">ShowResults(newResults)</text></g><!--link ??????????? to ?????????--><g id="link_&#25191;&#34892;&#20877;&#27425;&#20998;&#26512;&#25110;&#21024;&#38500;&#35760;&#24405;_&#21024;&#38500;&#24182;&#26356;&#26032;&#21382;&#21490;&#35760;&#24405;"><path d="M661.7631,456.3219 C668.8141,471.4709 679.7001,490.5163 694.2081,503.2969 C709.1081,516.4234 722.1878,524.3523 740.4288,532.3026 " fill="none" id="&#25191;&#34892;&#20877;&#27425;&#20998;&#26512;&#25110;&#21024;&#38500;&#35760;&#24405;-to-&#21024;&#38500;&#24182;&#26356;&#26032;&#21382;&#21490;&#35760;&#24405;" style="stroke:#181818;stroke-width:1.0;"/><polygon fill="#181818" points="745.9291,534.6999,739.2769,527.4371,741.3455,532.7021,736.0805,534.7708,745.9291,534.6999" style="stroke:#181818;stroke-width:1.0;"/><text fill="#000000" font-family="sans-serif" font-size="13" lengthAdjust="spacing" textLength="220" x="695.2081" y="499.3638">DeleteAndUpdateHistory(recordId)</text></g><!--link ????????? to ????????--><g id="link_&#21024;&#38500;&#24182;&#26356;&#26032;&#21382;&#21490;&#35760;&#24405;_&#26174;&#31034;&#21382;&#21490;&#35760;&#24405;&#30028;&#38754;"><path d="M888.5571,533.2071 C901.1711,525.6213 912.6951,515.8325 920.2081,503.2969 C953.1071,448.4009 955.2041,412.8809 920.2081,359.2969 C907.2641,339.4779 890.8842,328.9435 869.0262,320.9635 " fill="none" id="&#21024;&#38500;&#24182;&#26356;&#26032;&#21382;&#21490;&#35760;&#24405;-to-&#26174;&#31034;&#21382;&#21490;&#35760;&#24405;&#30028;&#38754;" style="stroke:#181818;stroke-width:1.0;"/><polygon fill="#181818" points="863.3901,318.9059,870.4725,325.7498,868.0869,320.6206,873.2161,318.2349,863.3901,318.9059" style="stroke:#181818;stroke-width:1.0;"/><text fill="#000000" font-family="sans-serif" font-size="13" lengthAdjust="spacing" textLength="210" x="946.2081" y="435.8638">ShowHistory(updatedHistoryList)</text></g><!--SRC=[bL9DIm9H5DtFhvZb64dx5e4aKL0HcQjgCJcl71ZdoVXCR6MOvbSbX59aVeGbGfX5Y6NwQtnlz5_qnXdJL1GtS-TTxZddddil4f44s7QzeQOItSSd4YtZzvGQgv70kLefgCamm-ml7B9cymgBMw5k84hYPHpBTO9DXXb9iCki3KZ0WUnk2VB26k2HLm6SwK3Mq-kY1q75FvJVva_54nw1FRZ5YxBDeG0WSwPnOasTtBNKudUx7cl_vFLUDJqdz1bgK75Hw8Gg3MmaGYKrUecB5zIM1lOUkKIquuG8ScxjQs8cr0sqrSOjoMOCrLtWyKh8mobwx2iRDHF6HN7psyNNONppqQbKSJFrpxGnIywfnqqQ-YrCmFG8Syzg9gwdEsyl91ZwS-A0Yc05Y1SbpO_ssX0espXWFblJsucMEeK43b-HrmAEX4asII9f7CbtxujwBILUTKBe0HO74g5C6-DbNlAVWIM1NXC2Y-nGgpF9p0BqoTCtAOF-x-Wo9N2CvdC-kn-DhvV0NpNoy4dIrU51KMvhpwL55knkWKhq5pumFGq-nmLvU_J2-j0X_G80]--></g></svg>