<?xml version="1.0" encoding="us-ascii" standalone="no"?><svg xmlns="http://www.w3.org/2000/svg" xmlns:xlink="http://www.w3.org/1999/xlink" contentStyleType="text/css" height="1206px" preserveAspectRatio="none" style="width:1982px;height:1206px;background:#FFFFFF;" version="1.1" viewBox="0 0 1982 1206" width="1982px" zoomAndPan="magnify"><defs/><g><text fill="#000000" font-family="sans-serif" font-size="14" font-weight="bold" lengthAdjust="spacing" textLength="569" x="699.5" y="22.9951">Application Class Diagram with Detailed UI Components and Interactions</text><!--cluster Client Side--><g id="cluster_Client Side"><path d="M33,346.2969 L118,346.2969 A3.75,3.75 0 0 1 120.5,348.7969 L127.5,368.5938 L1972.5,368.5938 A2.5,2.5 0 0 1 1975,371.0938 L1975,1196.7969 A2.5,2.5 0 0 1 1972.5,1199.2969 L33,1199.2969 A2.5,2.5 0 0 1 30.5,1196.7969 L30.5,348.7969 A2.5,2.5 0 0 1 33,346.2969 " fill="none" style="stroke:#000000;stroke-width:1.5;"/><line style="stroke:#000000;stroke-width:1.5;" x1="30.5" x2="127.5" y1="368.5938" y2="368.5938"/><text fill="#000000" font-family="sans-serif" font-size="14" font-weight="bold" lengthAdjust="spacing" textLength="84" x="34.5" y="361.292">Client Side</text></g><!--cluster Server Side--><g id="cluster_Server Side"><path d="M8.5,43.2969 L101.5,43.2969 A3.75,3.75 0 0 1 104,45.7969 L111,65.5938 L1042,65.5938 A2.5,2.5 0 0 1 1044.5,68.0938 L1044.5,319.7969 A2.5,2.5 0 0 1 1042,322.2969 L8.5,322.2969 A2.5,2.5 0 0 1 6,319.7969 L6,45.7969 A2.5,2.5 0 0 1 8.5,43.2969 " fill="none" style="stroke:#000000;stroke-width:1.5;"/><line style="stroke:#000000;stroke-width:1.5;" x1="6" x2="111" y1="65.5938" y2="65.5938"/><text fill="#000000" font-family="sans-serif" font-size="14" font-weight="bold" lengthAdjust="spacing" textLength="92" x="10" y="58.292">Server Side</text></g><!--class MainScreen--><g id="elem_MainScreen"><rect codeLine="7" fill="#F1F1F1" height="145.7813" id="MainScreen" rx="2.5" ry="2.5" style="stroke:#181818;stroke-width:0.5;" width="428" x="46.5" y="734.4069"/><ellipse cx="215.75" cy="750.4069" fill="#ADD1B2" rx="11" ry="11" style="stroke:#181818;stroke-width:1.0;"/><path d="M218.7188,756.0475 Q218.1406,756.3444 217.5,756.485 Q216.8594,756.6413 216.1563,756.6413 Q213.6563,756.6413 212.3281,755.0006 Q211.0156,753.3444 211.0156,750.2194 Q211.0156,747.0944 212.3281,745.4381 Q213.6563,743.7819 216.1563,743.7819 Q216.8594,743.7819 217.5,743.9381 Q218.1563,744.0944 218.7188,744.3913 L218.7188,747.11 Q218.0938,746.5319 217.5,746.2663 Q216.9063,745.985 216.2813,745.985 Q214.9375,745.985 214.25,747.0631 Q213.5625,748.1256 213.5625,750.2194 Q213.5625,752.3131 214.25,753.3913 Q214.9375,754.4538 216.2813,754.4538 Q216.9063,754.4538 217.5,754.1881 Q218.0938,753.9069 218.7188,753.3288 L218.7188,756.0475 Z " fill="#000000"/><text fill="#000000" font-family="sans-serif" font-size="14" lengthAdjust="spacing" textLength="81" x="236.25" y="755.2536">MainScreen</text><line style="stroke:#181818;stroke-width:0.5;" x1="47.5" x2="473.5" y1="766.4069" y2="766.4069"/><ellipse cx="57.5" cy="788.2038" fill="none" rx="3" ry="3" style="stroke:#038048;stroke-width:1.0;"/><text fill="#000000" font-family="sans-serif" font-size="14" lengthAdjust="spacing" textLength="398" x="66.5" y="783.402">Navigation Buttons | HistoryRecordScreen, UploadScreen,</text><text fill="#000000" font-family="sans-serif" font-size="14" lengthAdjust="spacing" textLength="323" x="70.5" y="799.6989">LoginScreen, RegistrationScreen : &#25805;&#20316;&#23548;&#33322;&#25353;&#38062;</text><ellipse cx="57.5" cy="812.6491" fill="none" rx="3" ry="3" style="stroke:#038048;stroke-width:1.0;"/><text fill="#000000" font-family="sans-serif" font-size="14" lengthAdjust="spacing" textLength="219" x="66.5" y="815.9957">Feature Icons | &#22270;&#26631;&#30452;&#35266;&#34920;&#31034;&#21151;&#33021;</text><line style="stroke:#181818;stroke-width:0.5;" x1="47.5" x2="473.5" y1="823.2975" y2="823.2975"/><ellipse cx="57.5" cy="836.9459" fill="#84BE84" rx="3" ry="3" style="stroke:#038048;stroke-width:1.0;"/><text fill="#000000" font-family="sans-serif" font-size="14" lengthAdjust="spacing" textLength="153" x="66.5" y="840.2926">selectUploadFeature()</text><ellipse cx="57.5" cy="853.2428" fill="#84BE84" rx="3" ry="3" style="stroke:#038048;stroke-width:1.0;"/><text fill="#000000" font-family="sans-serif" font-size="14" lengthAdjust="spacing" textLength="152" x="66.5" y="856.5895">selectHistoryFeature()</text><ellipse cx="57.5" cy="869.5397" fill="#84BE84" rx="3" ry="3" style="stroke:#038048;stroke-width:1.0;"/><text fill="#000000" font-family="sans-serif" font-size="14" lengthAdjust="spacing" textLength="167" x="66.5" y="872.8864">navigateToMainScreen()</text></g><!--class RegistrationScreen--><g id="elem_RegistrationScreen"><rect codeLine="14" fill="#F1F1F1" height="162.0781" id="RegistrationScreen" rx="2.5" ry="2.5" style="stroke:#181818;stroke-width:0.5;" width="472" x="623" y="1021.2569"/><ellipse cx="788.75" cy="1037.2569" fill="#ADD1B2" rx="11" ry="11" style="stroke:#181818;stroke-width:1.0;"/><path d="M791.7188,1042.8975 Q791.1406,1043.1944 790.5,1043.335 Q789.8594,1043.4913 789.1563,1043.4913 Q786.6563,1043.4913 785.3281,1041.8506 Q784.0156,1040.1944 784.0156,1037.0694 Q784.0156,1033.9444 785.3281,1032.2881 Q786.6563,1030.6319 789.1563,1030.6319 Q789.8594,1030.6319 790.5,1030.7881 Q791.1563,1030.9444 791.7188,1031.2413 L791.7188,1033.96 Q791.0938,1033.3819 790.5,1033.1163 Q789.9063,1032.835 789.2813,1032.835 Q787.9375,1032.835 787.25,1033.9131 Q786.5625,1034.9756 786.5625,1037.0694 Q786.5625,1039.1631 787.25,1040.2413 Q787.9375,1041.3038 789.2813,1041.3038 Q789.9063,1041.3038 790.5,1041.0381 Q791.0938,1040.7569 791.7188,1040.1788 L791.7188,1042.8975 Z " fill="#000000"/><text fill="#000000" font-family="sans-serif" font-size="14" lengthAdjust="spacing" textLength="132" x="809.25" y="1042.1036">RegistrationScreen</text><line style="stroke:#181818;stroke-width:0.5;" x1="624" x2="1094" y1="1053.2569" y2="1053.2569"/><ellipse cx="634" cy="1066.9053" fill="none" rx="3" ry="3" style="stroke:#038048;stroke-width:1.0;"/><text fill="#000000" font-family="sans-serif" font-size="14" lengthAdjust="spacing" textLength="303" x="643" y="1070.252">Input Fields | &#29992;&#25143;&#21517;, &#23494;&#30721;, &#37038;&#31665; : &#36755;&#20837;&#27880;&#20876;&#20449;&#24687;</text><ellipse cx="634" cy="1083.2022" fill="none" rx="3" ry="3" style="stroke:#038048;stroke-width:1.0;"/><text fill="#000000" font-family="sans-serif" font-size="14" lengthAdjust="spacing" textLength="196" x="643" y="1086.5489">Submit Button | &#25552;&#20132;&#27880;&#20876;&#20449;&#24687;</text><line style="stroke:#181818;stroke-width:0.5;" x1="624" x2="1094" y1="1093.8506" y2="1093.8506"/><ellipse cx="634" cy="1107.4991" fill="#84BE84" rx="3" ry="3" style="stroke:#038048;stroke-width:1.0;"/><text fill="#000000" font-family="sans-serif" font-size="14" lengthAdjust="spacing" textLength="110" x="643" y="1110.8457">showRegForm()</text><ellipse cx="634" cy="1123.7959" fill="#84BE84" rx="3" ry="3" style="stroke:#038048;stroke-width:1.0;"/><text fill="#000000" font-family="sans-serif" font-size="14" lengthAdjust="spacing" textLength="434" x="643" y="1127.1426">inputRegInfo(username: String, password: String, email: String)</text><ellipse cx="634" cy="1140.0928" fill="#84BE84" rx="3" ry="3" style="stroke:#038048;stroke-width:1.0;"/><text fill="#000000" font-family="sans-serif" font-size="14" lengthAdjust="spacing" textLength="446" x="643" y="1143.4395">submitRegInfo(username: String, password: String, email: String)</text><ellipse cx="634" cy="1156.3897" fill="#84BE84" rx="3" ry="3" style="stroke:#038048;stroke-width:1.0;"/><text fill="#000000" font-family="sans-serif" font-size="14" lengthAdjust="spacing" textLength="144" x="643" y="1159.7364">displayConfirmation()</text><ellipse cx="634" cy="1172.6866" fill="#84BE84" rx="3" ry="3" style="stroke:#038048;stroke-width:1.0;"/><text fill="#000000" font-family="sans-serif" font-size="14" lengthAdjust="spacing" textLength="201" x="643" y="1176.0332">displayError(errorMsg: String)</text></g><!--class LoginScreen--><g id="elem_LoginScreen"><rect codeLine="23" fill="#F1F1F1" height="162.0781" id="LoginScreen" rx="2.5" ry="2.5" style="stroke:#181818;stroke-width:0.5;" width="404" x="657" y="824.2569"/><ellipse cx="811.75" cy="840.2569" fill="#ADD1B2" rx="11" ry="11" style="stroke:#181818;stroke-width:1.0;"/><path d="M814.7188,845.8975 Q814.1406,846.1944 813.5,846.335 Q812.8594,846.4913 812.1563,846.4913 Q809.6563,846.4913 808.3281,844.8506 Q807.0156,843.1944 807.0156,840.0694 Q807.0156,836.9444 808.3281,835.2881 Q809.6563,833.6319 812.1563,833.6319 Q812.8594,833.6319 813.5,833.7881 Q814.1563,833.9444 814.7188,834.2413 L814.7188,836.96 Q814.0938,836.3819 813.5,836.1163 Q812.9063,835.835 812.2813,835.835 Q810.9375,835.835 810.25,836.9131 Q809.5625,837.9756 809.5625,840.0694 Q809.5625,842.1631 810.25,843.2413 Q810.9375,844.3038 812.2813,844.3038 Q812.9063,844.3038 813.5,844.0381 Q814.0938,843.7569 814.7188,843.1788 L814.7188,845.8975 Z " fill="#000000"/><text fill="#000000" font-family="sans-serif" font-size="14" lengthAdjust="spacing" textLength="86" x="832.25" y="845.1036">LoginScreen</text><line style="stroke:#181818;stroke-width:0.5;" x1="658" x2="1060" y1="856.2569" y2="856.2569"/><ellipse cx="668" cy="869.9053" fill="none" rx="3" ry="3" style="stroke:#038048;stroke-width:1.0;"/><text fill="#000000" font-family="sans-serif" font-size="14" lengthAdjust="spacing" textLength="267" x="677" y="873.252">Input Fields | &#29992;&#25143;&#21517;, &#23494;&#30721; : &#36755;&#20837;&#30331;&#24405;&#20973;&#35777;</text><ellipse cx="668" cy="886.2022" fill="none" rx="3" ry="3" style="stroke:#038048;stroke-width:1.0;"/><text fill="#000000" font-family="sans-serif" font-size="14" lengthAdjust="spacing" textLength="157" x="677" y="889.5489">Login Button | &#30331;&#24405;&#31995;&#32479;</text><line style="stroke:#181818;stroke-width:0.5;" x1="658" x2="1060" y1="896.8506" y2="896.8506"/><ellipse cx="668" cy="910.4991" fill="#84BE84" rx="3" ry="3" style="stroke:#038048;stroke-width:1.0;"/><text fill="#000000" font-family="sans-serif" font-size="14" lengthAdjust="spacing" textLength="119" x="677" y="913.8457">showLoginForm()</text><ellipse cx="668" cy="926.7959" fill="#84BE84" rx="3" ry="3" style="stroke:#038048;stroke-width:1.0;"/><text fill="#000000" font-family="sans-serif" font-size="14" lengthAdjust="spacing" textLength="366" x="677" y="930.1426">inputCredentials(username: String, password: String)</text><ellipse cx="668" cy="943.0928" fill="#84BE84" rx="3" ry="3" style="stroke:#038048;stroke-width:1.0;"/><text fill="#000000" font-family="sans-serif" font-size="14" lengthAdjust="spacing" textLength="378" x="677" y="946.4395">submitCredentials(username: String, password: String)</text><ellipse cx="668" cy="959.3897" fill="#84BE84" rx="3" ry="3" style="stroke:#038048;stroke-width:1.0;"/><text fill="#000000" font-family="sans-serif" font-size="14" lengthAdjust="spacing" textLength="138" x="677" y="962.7364">displayMainScreen()</text><ellipse cx="668" cy="975.6866" fill="#84BE84" rx="3" ry="3" style="stroke:#038048;stroke-width:1.0;"/><text fill="#000000" font-family="sans-serif" font-size="14" lengthAdjust="spacing" textLength="201" x="677" y="979.0332">displayError(errorMsg: String)</text></g><!--class UploadScreen--><g id="elem_UploadScreen"><rect codeLine="32" fill="#F1F1F1" height="162.0781" id="UploadScreen" rx="2.5" ry="2.5" style="stroke:#181818;stroke-width:0.5;" width="323" x="697.5" y="627.2569"/><ellipse cx="806.25" cy="643.2569" fill="#ADD1B2" rx="11" ry="11" style="stroke:#181818;stroke-width:1.0;"/><path d="M809.2188,648.8975 Q808.6406,649.1944 808,649.335 Q807.3594,649.4913 806.6563,649.4913 Q804.1563,649.4913 802.8281,647.8506 Q801.5156,646.1944 801.5156,643.0694 Q801.5156,639.9444 802.8281,638.2881 Q804.1563,636.6319 806.6563,636.6319 Q807.3594,636.6319 808,636.7881 Q808.6563,636.9444 809.2188,637.2413 L809.2188,639.96 Q808.5938,639.3819 808,639.1163 Q807.4063,638.835 806.7813,638.835 Q805.4375,638.835 804.75,639.9131 Q804.0625,640.9756 804.0625,643.0694 Q804.0625,645.1631 804.75,646.2413 Q805.4375,647.3038 806.7813,647.3038 Q807.4063,647.3038 808,647.0381 Q808.5938,646.7569 809.2188,646.1788 L809.2188,648.8975 Z " fill="#000000"/><text fill="#000000" font-family="sans-serif" font-size="14" lengthAdjust="spacing" textLength="97" x="826.75" y="648.1036">UploadScreen</text><line style="stroke:#181818;stroke-width:0.5;" x1="698.5" x2="1019.5" y1="659.2569" y2="659.2569"/><ellipse cx="708.5" cy="672.9053" fill="none" rx="3" ry="3" style="stroke:#038048;stroke-width:1.0;"/><text fill="#000000" font-family="sans-serif" font-size="14" lengthAdjust="spacing" textLength="199" x="717.5" y="676.252">Photo Selector | &#36873;&#25321;&#29031;&#29255;&#19978;&#20256;</text><ellipse cx="708.5" cy="689.2022" fill="none" rx="3" ry="3" style="stroke:#038048;stroke-width:1.0;"/><text fill="#000000" font-family="sans-serif" font-size="14" lengthAdjust="spacing" textLength="224" x="717.5" y="692.5489">Upload Button | &#25552;&#20132;&#29031;&#29255;&#36827;&#34892;&#20998;&#26512;</text><ellipse cx="708.5" cy="705.4991" fill="none" rx="3" ry="3" style="stroke:#038048;stroke-width:1.0;"/><text fill="#000000" font-family="sans-serif" font-size="14" lengthAdjust="spacing" textLength="297" x="717.5" y="708.8457">Supplementary Info Input | &#34917;&#20805;&#20449;&#24687;&#25991;&#26412;&#36755;&#20837;</text><line style="stroke:#181818;stroke-width:0.5;" x1="698.5" x2="1019.5" y1="716.1475" y2="716.1475"/><ellipse cx="708.5" cy="729.7959" fill="#84BE84" rx="3" ry="3" style="stroke:#038048;stroke-width:1.0;"/><text fill="#000000" font-family="sans-serif" font-size="14" lengthAdjust="spacing" textLength="130" x="717.5" y="733.1426">showUploadForm()</text><ellipse cx="708.5" cy="746.0928" fill="#84BE84" rx="3" ry="3" style="stroke:#038048;stroke-width:1.0;"/><text fill="#000000" font-family="sans-serif" font-size="14" lengthAdjust="spacing" textLength="86" x="717.5" y="749.4395">inputPhoto()</text><ellipse cx="708.5" cy="762.3897" fill="#84BE84" rx="3" ry="3" style="stroke:#038048;stroke-width:1.0;"/><text fill="#000000" font-family="sans-serif" font-size="14" lengthAdjust="spacing" textLength="171" x="717.5" y="765.7364">submitPhoto(photo: File)</text><ellipse cx="708.5" cy="778.6866" fill="#84BE84" rx="3" ry="3" style="stroke:#038048;stroke-width:1.0;"/><text fill="#000000" font-family="sans-serif" font-size="14" lengthAdjust="spacing" textLength="201" x="717.5" y="782.0332">displayError(errorMsg: String)</text></g><!--class ResultDisplayScreen--><g id="elem_ResultDisplayScreen"><rect codeLine="41" fill="#F1F1F1" height="145.7813" id="ResultDisplayScreen" rx="2.5" ry="2.5" style="stroke:#181818;stroke-width:0.5;" width="261" x="1255" y="566.4069"/><ellipse cx="1310.25" cy="582.4069" fill="#ADD1B2" rx="11" ry="11" style="stroke:#181818;stroke-width:1.0;"/><path d="M1313.2188,588.0475 Q1312.6406,588.3444 1312,588.485 Q1311.3594,588.6413 1310.6563,588.6413 Q1308.1563,588.6413 1306.8281,587.0006 Q1305.5156,585.3444 1305.5156,582.2194 Q1305.5156,579.0944 1306.8281,577.4381 Q1308.1563,575.7819 1310.6563,575.7819 Q1311.3594,575.7819 1312,575.9381 Q1312.6563,576.0944 1313.2188,576.3913 L1313.2188,579.11 Q1312.5938,578.5319 1312,578.2663 Q1311.4063,577.985 1310.7813,577.985 Q1309.4375,577.985 1308.75,579.0631 Q1308.0625,580.1256 1308.0625,582.2194 Q1308.0625,584.3131 1308.75,585.3913 Q1309.4375,586.4538 1310.7813,586.4538 Q1311.4063,586.4538 1312,586.1881 Q1312.5938,585.9069 1313.2188,585.3288 L1313.2188,588.0475 Z " fill="#000000"/><text fill="#000000" font-family="sans-serif" font-size="14" lengthAdjust="spacing" textLength="142" x="1330.75" y="587.2536">ResultDisplayScreen</text><line style="stroke:#181818;stroke-width:0.5;" x1="1256" x2="1515" y1="598.4069" y2="598.4069"/><ellipse cx="1266" cy="612.0553" fill="none" rx="3" ry="3" style="stroke:#038048;stroke-width:1.0;"/><text fill="#000000" font-family="sans-serif" font-size="14" lengthAdjust="spacing" textLength="203" x="1275" y="615.402">Result Text | &#26174;&#31034;&#20998;&#26512;&#32467;&#26524;&#25991;&#26412;</text><ellipse cx="1266" cy="628.3522" fill="none" rx="3" ry="3" style="stroke:#038048;stroke-width:1.0;"/><text fill="#000000" font-family="sans-serif" font-size="14" lengthAdjust="spacing" textLength="147" x="1275" y="631.6989">Graphs | &#32467;&#26524;&#22270;&#34920;&#23637;&#31034;</text><ellipse cx="1266" cy="644.6491" fill="none" rx="3" ry="3" style="stroke:#038048;stroke-width:1.0;"/><text fill="#000000" font-family="sans-serif" font-size="14" lengthAdjust="spacing" textLength="219" x="1275" y="647.9957">Reanalyze Button | &#37325;&#26032;&#20998;&#26512;&#25353;&#38062;</text><ellipse cx="1266" cy="660.9459" fill="none" rx="3" ry="3" style="stroke:#038048;stroke-width:1.0;"/><text fill="#000000" font-family="sans-serif" font-size="14" lengthAdjust="spacing" textLength="235" x="1275" y="664.2926">Show Advice Button | &#26174;&#31034;&#24314;&#35758;&#25353;&#38062;</text><line style="stroke:#181818;stroke-width:0.5;" x1="1256" x2="1515" y1="671.5944" y2="671.5944"/><ellipse cx="1266" cy="685.2428" fill="#84BE84" rx="3" ry="3" style="stroke:#038048;stroke-width:1.0;"/><text fill="#000000" font-family="sans-serif" font-size="14" lengthAdjust="spacing" textLength="178" x="1275" y="688.5895">showResults(results: List)</text><ellipse cx="1266" cy="701.5397" fill="#84BE84" rx="3" ry="3" style="stroke:#038048;stroke-width:1.0;"/><text fill="#000000" font-family="sans-serif" font-size="14" lengthAdjust="spacing" textLength="188" x="1275" y="704.8864">displayResults(results: List)</text></g><!--class AdviceDisplayScreen--><g id="elem_AdviceDisplayScreen"><rect codeLine="49" fill="#F1F1F1" height="96.8906" id="AdviceDisplayScreen" rx="2.5" ry="2.5" style="stroke:#181818;stroke-width:0.5;" width="253" x="1694" y="625.8469"/><ellipse cx="1744.75" cy="641.8469" fill="#ADD1B2" rx="11" ry="11" style="stroke:#181818;stroke-width:1.0;"/><path d="M1747.7188,647.4875 Q1747.1406,647.7844 1746.5,647.925 Q1745.8594,648.0813 1745.1563,648.0813 Q1742.6563,648.0813 1741.3281,646.4406 Q1740.0156,644.7844 1740.0156,641.6594 Q1740.0156,638.5344 1741.3281,636.8781 Q1742.6563,635.2219 1745.1563,635.2219 Q1745.8594,635.2219 1746.5,635.3781 Q1747.1563,635.5344 1747.7188,635.8313 L1747.7188,638.55 Q1747.0938,637.9719 1746.5,637.7063 Q1745.9063,637.425 1745.2813,637.425 Q1743.9375,637.425 1743.25,638.5031 Q1742.5625,639.5656 1742.5625,641.6594 Q1742.5625,643.7531 1743.25,644.8313 Q1743.9375,645.8938 1745.2813,645.8938 Q1745.9063,645.8938 1746.5,645.6281 Q1747.0938,645.3469 1747.7188,644.7688 L1747.7188,647.4875 Z " fill="#000000"/><text fill="#000000" font-family="sans-serif" font-size="14" lengthAdjust="spacing" textLength="143" x="1765.25" y="646.6936">AdviceDisplayScreen</text><line style="stroke:#181818;stroke-width:0.5;" x1="1695" x2="1946" y1="657.8469" y2="657.8469"/><ellipse cx="1705" cy="671.4953" fill="none" rx="3" ry="3" style="stroke:#038048;stroke-width:1.0;"/><text fill="#000000" font-family="sans-serif" font-size="14" lengthAdjust="spacing" textLength="176" x="1714" y="674.842">Advice Text | &#23637;&#31034;&#20859;&#25252;&#24314;&#35758;</text><line style="stroke:#181818;stroke-width:0.5;" x1="1695" x2="1946" y1="682.1438" y2="682.1438"/><ellipse cx="1705" cy="695.7922" fill="#84BE84" rx="3" ry="3" style="stroke:#038048;stroke-width:1.0;"/><text fill="#000000" font-family="sans-serif" font-size="14" lengthAdjust="spacing" textLength="217" x="1714" y="699.1389">showCareAdvice(advice: String)</text><ellipse cx="1705" cy="712.0891" fill="#84BE84" rx="3" ry="3" style="stroke:#038048;stroke-width:1.0;"/><text fill="#000000" font-family="sans-serif" font-size="14" lengthAdjust="spacing" textLength="227" x="1714" y="715.4357">displayCareAdvice(advice: String)</text></g><!--class HistoryRecordScreen--><g id="elem_HistoryRecordScreen"><rect codeLine="54" fill="#F1F1F1" height="210.9688" id="HistoryRecordScreen" rx="2.5" ry="2.5" style="stroke:#181818;stroke-width:0.5;" width="313" x="702.5" y="380.8169"/><ellipse cx="781.75" cy="396.8169" fill="#ADD1B2" rx="11" ry="11" style="stroke:#181818;stroke-width:1.0;"/><path d="M784.7188,402.4575 Q784.1406,402.7544 783.5,402.895 Q782.8594,403.0513 782.1563,403.0513 Q779.6563,403.0513 778.3281,401.4106 Q777.0156,399.7544 777.0156,396.6294 Q777.0156,393.5044 778.3281,391.8481 Q779.6563,390.1919 782.1563,390.1919 Q782.8594,390.1919 783.5,390.3481 Q784.1563,390.5044 784.7188,390.8013 L784.7188,393.52 Q784.0938,392.9419 783.5,392.6763 Q782.9063,392.395 782.2813,392.395 Q780.9375,392.395 780.25,393.4731 Q779.5625,394.5356 779.5625,396.6294 Q779.5625,398.7231 780.25,399.8013 Q780.9375,400.8638 782.2813,400.8638 Q782.9063,400.8638 783.5,400.5981 Q784.0938,400.3169 784.7188,399.7388 L784.7188,402.4575 Z " fill="#000000"/><text fill="#000000" font-family="sans-serif" font-size="14" lengthAdjust="spacing" textLength="146" x="802.25" y="401.6636">HistoryRecordScreen</text><line style="stroke:#181818;stroke-width:0.5;" x1="703.5" x2="1014.5" y1="412.8169" y2="412.8169"/><ellipse cx="713.5" cy="426.4653" fill="none" rx="3" ry="3" style="stroke:#038048;stroke-width:1.0;"/><text fill="#000000" font-family="sans-serif" font-size="14" lengthAdjust="spacing" textLength="174" x="722.5" y="429.812">Record List | &#21382;&#21490;&#35760;&#24405;&#21015;&#34920;</text><ellipse cx="713.5" cy="442.7622" fill="none" rx="3" ry="3" style="stroke:#038048;stroke-width:1.0;"/><text fill="#000000" font-family="sans-serif" font-size="14" lengthAdjust="spacing" textLength="172" x="722.5" y="446.1089">Detail View | &#26597;&#30475;&#35760;&#24405;&#35814;&#24773;</text><ellipse cx="713.5" cy="459.0591" fill="none" rx="3" ry="3" style="stroke:#038048;stroke-width:1.0;"/><text fill="#000000" font-family="sans-serif" font-size="14" lengthAdjust="spacing" textLength="247" x="722.5" y="462.4057">Reanalyze Button | &#37325;&#26032;&#20998;&#26512;&#35760;&#24405;&#25353;&#38062;</text><ellipse cx="713.5" cy="475.3559" fill="none" rx="3" ry="3" style="stroke:#038048;stroke-width:1.0;"/><text fill="#000000" font-family="sans-serif" font-size="14" lengthAdjust="spacing" textLength="194" x="722.5" y="478.7026">Delete Button | &#21024;&#38500;&#35760;&#24405;&#25353;&#38062;</text><line style="stroke:#181818;stroke-width:0.5;" x1="703.5" x2="1014.5" y1="486.0044" y2="486.0044"/><ellipse cx="713.5" cy="499.6528" fill="#84BE84" rx="3" ry="3" style="stroke:#038048;stroke-width:1.0;"/><text fill="#000000" font-family="sans-serif" font-size="14" lengthAdjust="spacing" textLength="152" x="722.5" y="502.9995">selectHistoryFeature()</text><ellipse cx="713.5" cy="515.9497" fill="#84BE84" rx="3" ry="3" style="stroke:#038048;stroke-width:1.0;"/><text fill="#000000" font-family="sans-serif" font-size="14" lengthAdjust="spacing" textLength="205" x="722.5" y="519.2964">displayHistory(historyList: List)</text><ellipse cx="713.5" cy="532.2466" fill="#84BE84" rx="3" ry="3" style="stroke:#038048;stroke-width:1.0;"/><text fill="#000000" font-family="sans-serif" font-size="14" lengthAdjust="spacing" textLength="185" x="722.5" y="535.5932">selectRecord(recordId: Int)</text><ellipse cx="713.5" cy="548.5434" fill="#84BE84" rx="3" ry="3" style="stroke:#038048;stroke-width:1.0;"/><text fill="#000000" font-family="sans-serif" font-size="14" lengthAdjust="spacing" textLength="227" x="722.5" y="551.8901">showRecordDetails(recordId: Int)</text><ellipse cx="713.5" cy="564.8403" fill="#84BE84" rx="3" ry="3" style="stroke:#038048;stroke-width:1.0;"/><text fill="#000000" font-family="sans-serif" font-size="14" lengthAdjust="spacing" textLength="287" x="722.5" y="568.187">chooseAction(action: String, recordId: Int)</text><ellipse cx="713.5" cy="581.1372" fill="#84BE84" rx="3" ry="3" style="stroke:#038048;stroke-width:1.0;"/><text fill="#000000" font-family="sans-serif" font-size="14" lengthAdjust="spacing" textLength="163" x="722.5" y="584.4839">displayUpdatedHistory()</text></g><!--class ShareScreen--><g id="elem_ShareScreen"><rect codeLine="66" fill="#F1F1F1" height="113.1875" id="ShareScreen" rx="2.5" ry="2.5" style="stroke:#181818;stroke-width:0.5;" width="277" x="1682" y="477.7069"/><ellipse cx="1771.75" cy="493.7069" fill="#ADD1B2" rx="11" ry="11" style="stroke:#181818;stroke-width:1.0;"/><path d="M1774.7188,499.3475 Q1774.1406,499.6444 1773.5,499.785 Q1772.8594,499.9412 1772.1563,499.9412 Q1769.6563,499.9412 1768.3281,498.3006 Q1767.0156,496.6444 1767.0156,493.5194 Q1767.0156,490.3944 1768.3281,488.7381 Q1769.6563,487.0819 1772.1563,487.0819 Q1772.8594,487.0819 1773.5,487.2381 Q1774.1563,487.3944 1774.7188,487.6912 L1774.7188,490.41 Q1774.0938,489.8319 1773.5,489.5662 Q1772.9063,489.285 1772.2813,489.285 Q1770.9375,489.285 1770.25,490.3631 Q1769.5625,491.4256 1769.5625,493.5194 Q1769.5625,495.6131 1770.25,496.6912 Q1770.9375,497.7537 1772.2813,497.7537 Q1772.9063,497.7537 1773.5,497.4881 Q1774.0938,497.2069 1774.7188,496.6287 L1774.7188,499.3475 Z " fill="#000000"/><text fill="#000000" font-family="sans-serif" font-size="14" lengthAdjust="spacing" textLength="89" x="1792.25" y="498.5536">ShareScreen</text><line style="stroke:#181818;stroke-width:0.5;" x1="1683" x2="1958" y1="509.7069" y2="509.7069"/><ellipse cx="1693" cy="523.3553" fill="none" rx="3" ry="3" style="stroke:#038048;stroke-width:1.0;"/><text fill="#000000" font-family="sans-serif" font-size="14" lengthAdjust="spacing" textLength="251" x="1702" y="526.702">Share Options | &#20998;&#20139;&#21040;&#19981;&#21516;&#24179;&#21488;&#30340;&#36873;&#39033;</text><ellipse cx="1693" cy="539.6522" fill="none" rx="3" ry="3" style="stroke:#038048;stroke-width:1.0;"/><text fill="#000000" font-family="sans-serif" font-size="14" lengthAdjust="spacing" textLength="201" x="1702" y="542.9989">Confirm Button | &#30830;&#35748;&#20998;&#20139;&#25805;&#20316;</text><line style="stroke:#181818;stroke-width:0.5;" x1="1683" x2="1958" y1="550.3006" y2="550.3006"/><ellipse cx="1693" cy="563.9491" fill="#84BE84" rx="3" ry="3" style="stroke:#038048;stroke-width:1.0;"/><text fill="#000000" font-family="sans-serif" font-size="14" lengthAdjust="spacing" textLength="141" x="1702" y="567.2957">showShareOptions()</text><ellipse cx="1693" cy="580.2459" fill="#84BE84" rx="3" ry="3" style="stroke:#038048;stroke-width:1.0;"/><text fill="#000000" font-family="sans-serif" font-size="14" lengthAdjust="spacing" textLength="223" x="1702" y="583.5926">choosePlatform(platform: String)</text></g><!--class Controller--><g id="elem_Controller"><rect codeLine="75" fill="#F1F1F1" height="227.2656" id="Controller" rx="2.5" ry="2.5" style="stroke:#181818;stroke-width:0.5;" width="477" x="22" y="78.6669"/><ellipse cx="222.75" cy="94.6669" fill="#ADD1B2" rx="11" ry="11" style="stroke:#181818;stroke-width:1.0;"/><path d="M225.7188,100.3075 Q225.1406,100.6044 224.5,100.745 Q223.8594,100.9012 223.1563,100.9012 Q220.6563,100.9012 219.3281,99.2606 Q218.0156,97.6044 218.0156,94.4794 Q218.0156,91.3544 219.3281,89.6981 Q220.6563,88.0419 223.1563,88.0419 Q223.8594,88.0419 224.5,88.1981 Q225.1563,88.3544 225.7188,88.6512 L225.7188,91.37 Q225.0938,90.7919 224.5,90.5262 Q223.9063,90.245 223.2813,90.245 Q221.9375,90.245 221.25,91.3231 Q220.5625,92.3856 220.5625,94.4794 Q220.5625,96.5731 221.25,97.6512 Q221.9375,98.7137 223.2813,98.7137 Q223.9063,98.7137 224.5,98.4481 Q225.0938,98.1669 225.7188,97.5887 L225.7188,100.3075 Z " fill="#000000"/><text fill="#000000" font-family="sans-serif" font-size="14" lengthAdjust="spacing" textLength="67" x="243.25" y="99.5136">Controller</text><line style="stroke:#181818;stroke-width:0.5;" x1="23" x2="498" y1="110.6669" y2="110.6669"/><line style="stroke:#181818;stroke-width:0.5;" x1="23" x2="498" y1="118.6669" y2="118.6669"/><ellipse cx="33" cy="132.3153" fill="#84BE84" rx="3" ry="3" style="stroke:#038048;stroke-width:1.0;"/><text fill="#000000" font-family="sans-serif" font-size="14" lengthAdjust="spacing" textLength="451" x="42" y="135.662">validateRegInfo(username: String, password: String, email: String)</text><ellipse cx="33" cy="148.6122" fill="#84BE84" rx="3" ry="3" style="stroke:#038048;stroke-width:1.0;"/><text fill="#000000" font-family="sans-serif" font-size="14" lengthAdjust="spacing" textLength="447" x="42" y="151.9589">createAccount(username: String, password: String, email: String)</text><ellipse cx="33" cy="164.9091" fill="#84BE84" rx="3" ry="3" style="stroke:#038048;stroke-width:1.0;"/><text fill="#000000" font-family="sans-serif" font-size="14" lengthAdjust="spacing" textLength="383" x="42" y="168.2557">validateCredentials(username: String, password: String)</text><ellipse cx="33" cy="181.2059" fill="#84BE84" rx="3" ry="3" style="stroke:#038048;stroke-width:1.0;"/><text fill="#000000" font-family="sans-serif" font-size="14" lengthAdjust="spacing" textLength="215" x="42" y="184.5526">grantAccess(username: String)</text><ellipse cx="33" cy="197.5028" fill="#84BE84" rx="3" ry="3" style="stroke:#038048;stroke-width:1.0;"/><text fill="#000000" font-family="sans-serif" font-size="14" lengthAdjust="spacing" textLength="248" x="42" y="200.8495">checkPhotoRestrictions(photo: File)</text><ellipse cx="33" cy="213.7997" fill="#84BE84" rx="3" ry="3" style="stroke:#038048;stroke-width:1.0;"/><text fill="#000000" font-family="sans-serif" font-size="14" lengthAdjust="spacing" textLength="210" x="42" y="217.1464">analyzeAndPredict(photo: File)</text><ellipse cx="33" cy="230.0966" fill="#84BE84" rx="3" ry="3" style="stroke:#038048;stroke-width:1.0;"/><text fill="#000000" font-family="sans-serif" font-size="14" lengthAdjust="spacing" textLength="301" x="42" y="233.4432">requestCareAdvice(results: List, photo: File)</text><ellipse cx="33" cy="246.3934" fill="#84BE84" rx="3" ry="3" style="stroke:#038048;stroke-width:1.0;"/><text fill="#000000" font-family="sans-serif" font-size="14" lengthAdjust="spacing" textLength="310" x="42" y="249.7401">generateCareAdvice(results: List, photo: File)</text><ellipse cx="33" cy="262.6903" fill="#84BE84" rx="3" ry="3" style="stroke:#038048;stroke-width:1.0;"/><text fill="#000000" font-family="sans-serif" font-size="14" lengthAdjust="spacing" textLength="111" x="42" y="266.037">requestHistory()</text><ellipse cx="33" cy="278.9872" fill="#84BE84" rx="3" ry="3" style="stroke:#038048;stroke-width:1.0;"/><text fill="#000000" font-family="sans-serif" font-size="14" lengthAdjust="spacing" textLength="209" x="42" y="282.3339">reanalyzeRecord(recordId: Int)</text><ellipse cx="33" cy="295.2841" fill="#84BE84" rx="3" ry="3" style="stroke:#038048;stroke-width:1.0;"/><text fill="#000000" font-family="sans-serif" font-size="14" lengthAdjust="spacing" textLength="187" x="42" y="298.6307">deleteRecord(recordId: Int)</text></g><!--class KaggleModel--><g id="elem_KaggleModel"><rect codeLine="88" fill="#F1F1F1" height="64.2969" id="KaggleModel" rx="2.5" ry="2.5" style="stroke:#181818;stroke-width:0.5;" width="236" x="741" y="235.1469"/><ellipse cx="810.25" cy="251.1469" fill="#ADD1B2" rx="11" ry="11" style="stroke:#181818;stroke-width:1.0;"/><path d="M813.2188,256.7875 Q812.6406,257.0844 812,257.225 Q811.3594,257.3813 810.6563,257.3813 Q808.1563,257.3813 806.8281,255.7406 Q805.5156,254.0844 805.5156,250.9594 Q805.5156,247.8344 806.8281,246.1781 Q808.1563,244.5219 810.6563,244.5219 Q811.3594,244.5219 812,244.6781 Q812.6563,244.8344 813.2188,245.1313 L813.2188,247.85 Q812.5938,247.2719 812,247.0063 Q811.4063,246.725 810.7813,246.725 Q809.4375,246.725 808.75,247.8031 Q808.0625,248.8656 808.0625,250.9594 Q808.0625,253.0531 808.75,254.1313 Q809.4375,255.1938 810.7813,255.1938 Q811.4063,255.1938 812,254.9281 Q812.5938,254.6469 813.2188,254.0688 L813.2188,256.7875 Z " fill="#000000"/><text fill="#000000" font-family="sans-serif" font-size="14" lengthAdjust="spacing" textLength="89" x="830.75" y="255.9936">KaggleModel</text><line style="stroke:#181818;stroke-width:0.5;" x1="742" x2="976" y1="267.1469" y2="267.1469"/><line style="stroke:#181818;stroke-width:0.5;" x1="742" x2="976" y1="275.1469" y2="275.1469"/><ellipse cx="752" cy="288.7953" fill="#84BE84" rx="3" ry="3" style="stroke:#038048;stroke-width:1.0;"/><text fill="#000000" font-family="sans-serif" font-size="14" lengthAdjust="spacing" textLength="210" x="761" y="292.142">analyzeAndPredict(photo: File)</text></g><!--class Database--><g id="elem_Database"><rect codeLine="91" fill="#F1F1F1" height="96.8906" id="Database" rx="2.5" ry="2.5" style="stroke:#181818;stroke-width:0.5;" width="339" x="689.5" y="102.8469"/><ellipse cx="821.75" cy="118.8469" fill="#ADD1B2" rx="11" ry="11" style="stroke:#181818;stroke-width:1.0;"/><path d="M824.7188,124.4875 Q824.1406,124.7844 823.5,124.925 Q822.8594,125.0812 822.1563,125.0812 Q819.6563,125.0812 818.3281,123.4406 Q817.0156,121.7844 817.0156,118.6594 Q817.0156,115.5344 818.3281,113.8781 Q819.6563,112.2219 822.1563,112.2219 Q822.8594,112.2219 823.5,112.3781 Q824.1563,112.5344 824.7188,112.8312 L824.7188,115.55 Q824.0938,114.9719 823.5,114.7062 Q822.9063,114.425 822.2813,114.425 Q820.9375,114.425 820.25,115.5031 Q819.5625,116.5656 819.5625,118.6594 Q819.5625,120.7531 820.25,121.8312 Q820.9375,122.8937 822.2813,122.8937 Q822.9063,122.8937 823.5,122.6281 Q824.0938,122.3469 824.7188,121.7687 L824.7188,124.4875 Z " fill="#000000"/><text fill="#000000" font-family="sans-serif" font-size="14" lengthAdjust="spacing" textLength="66" x="842.25" y="123.6936">Database</text><line style="stroke:#181818;stroke-width:0.5;" x1="690.5" x2="1027.5" y1="134.8469" y2="134.8469"/><line style="stroke:#181818;stroke-width:0.5;" x1="690.5" x2="1027.5" y1="142.8469" y2="142.8469"/><ellipse cx="700.5" cy="156.4953" fill="#84BE84" rx="3" ry="3" style="stroke:#038048;stroke-width:1.0;"/><text fill="#000000" font-family="sans-serif" font-size="14" lengthAdjust="spacing" textLength="92" x="709.5" y="159.842">fetchHistory()</text><ellipse cx="700.5" cy="172.7922" fill="#84BE84" rx="3" ry="3" style="stroke:#038048;stroke-width:1.0;"/><text fill="#000000" font-family="sans-serif" font-size="14" lengthAdjust="spacing" textLength="313" x="709.5" y="176.1389">updateRecord(recordId: Int, newResults: List)</text><ellipse cx="700.5" cy="189.0891" fill="#84BE84" rx="3" ry="3" style="stroke:#038048;stroke-width:1.0;"/><text fill="#000000" font-family="sans-serif" font-size="14" lengthAdjust="spacing" textLength="195" x="709.5" y="192.4357">removeRecord(recordId: Int)</text></g><!--link Controller to KaggleModel--><g id="link_Controller_KaggleModel"><path codeLine="99" d="M499.4,222.2069 C582.36,232.6369 665.8668,243.1386 734.6868,251.7886 " fill="none" id="Controller-to-KaggleModel" style="stroke:#181818;stroke-width:1.0;stroke-dasharray:7.0,7.0;"/><polygon fill="#181818" points="740.64,252.5369,732.2091,247.4457,735.679,251.9133,731.2114,255.3833,740.64,252.5369" style="stroke:#181818;stroke-width:1.0;"/><text fill="#000000" font-family="sans-serif" font-size="13" lengthAdjust="spacing" textLength="39" x="541.5" y="224.3638">&#171;use&#187;</text></g><!--link Controller to Database--><g id="link_Controller_Database"><path codeLine="100" d="M499.4,175.9469 C562.87,171.5869 624.1741,167.3683 683.1041,163.3183 " fill="none" id="Controller-to-Database" style="stroke:#181818;stroke-width:1.0;stroke-dasharray:7.0,7.0;"/><polygon fill="#181818" points="689.09,162.9069,679.8369,159.5334,684.1018,163.2497,680.3854,167.5145,689.09,162.9069" style="stroke:#181818;stroke-width:1.0;"/><text fill="#000000" font-family="sans-serif" font-size="13" lengthAdjust="spacing" textLength="39" x="541.5" y="167.3638">&#171;use&#187;</text></g><!--link MainScreen to RegistrationScreen--><g id="link_MainScreen_RegistrationScreen"><path codeLine="104" d="M388.23,880.5569 C456.82,919.1369 543.56,966.2169 623,1004.2969 C634.56,1009.8369 641.0519,1012.917 653.1619,1018.387 " fill="none" id="MainScreen-to-RegistrationScreen" style="stroke:#181818;stroke-width:1.0;"/><polygon fill="#181818" points="658.63,1020.8569,652.0745,1013.5067,654.0733,1018.7986,648.7813,1020.7974,658.63,1020.8569" style="stroke:#181818;stroke-width:1.0;"/><text fill="#000000" font-family="sans-serif" font-size="13" lengthAdjust="spacing" textLength="62" x="530" y="955.3638">navigates</text></g><!--link MainScreen to LoginScreen--><g id="link_MainScreen_LoginScreen"><path codeLine="105" d="M474.74,842.3269 C533.94,852.0569 592.0894,861.6143 650.5894,871.2243 " fill="none" id="MainScreen-to-LoginScreen" style="stroke:#181818;stroke-width:1.0;"/><polygon fill="#181818" points="656.51,872.1969,648.2774,866.7909,651.5761,871.3864,646.9806,874.6851,656.51,872.1969" style="stroke:#181818;stroke-width:1.0;"/><text fill="#000000" font-family="sans-serif" font-size="13" lengthAdjust="spacing" textLength="62" x="530" y="850.3638">navigates</text></g><!--link MainScreen to UploadScreen--><g id="link_MainScreen_UploadScreen"><path codeLine="106" d="M474.74,771.9069 C547.99,759.7469 622.771,747.3392 691.161,735.9892 " fill="none" id="MainScreen-to-UploadScreen" style="stroke:#181818;stroke-width:1.0;"/><polygon fill="#181818" points="697.08,735.0069,687.5466,732.5343,692.1475,735.8255,688.8563,740.4264,697.08,735.0069" style="stroke:#181818;stroke-width:1.0;"/><text fill="#000000" font-family="sans-serif" font-size="13" lengthAdjust="spacing" textLength="62" x="530" y="751.3638">navigates</text></g><!--link UploadScreen to ResultDisplayScreen--><g id="link_UploadScreen_ResultDisplayScreen"><path codeLine="107" d="M1020.93,687.1269 C1095.91,677.2569 1178.0012,666.4589 1248.6712,657.1689 " fill="none" id="UploadScreen-to-ResultDisplayScreen" style="stroke:#181818;stroke-width:1.0;"/><polygon fill="#181818" points="1254.62,656.3869,1245.1754,653.594,1249.6626,657.0385,1246.2181,661.5258,1254.62,656.3869" style="stroke:#181818;stroke-width:1.0;"/><text fill="#000000" font-family="sans-serif" font-size="13" lengthAdjust="spacing" textLength="98" x="1126" y="658.3638">uploads lead to</text></g><!--link ResultDisplayScreen to AdviceDisplayScreen--><g id="link_ResultDisplayScreen_AdviceDisplayScreen"><path codeLine="108" d="M1516.41,649.7969 C1572.59,654.3369 1632.0896,659.1426 1687.7896,663.6526 " fill="none" id="ResultDisplayScreen-to-AdviceDisplayScreen" style="stroke:#181818;stroke-width:1.0;"/><polygon fill="#181818" points="1693.77,664.1369,1685.1222,659.4236,1688.7863,663.7333,1684.4765,667.3975,1693.77,664.1369" style="stroke:#181818;stroke-width:1.0;"/><text fill="#000000" font-family="sans-serif" font-size="13" lengthAdjust="spacing" textLength="91" x="1553.5" y="649.3638">results lead to</text></g><!--link MainScreen to HistoryRecordScreen--><g id="link_MainScreen_HistoryRecordScreen"><path codeLine="109" d="M393.81,734.0469 C462.09,696.4469 546.83,650.0869 623,609.2969 C648.57,595.5969 670.4786,583.9878 696.9886,570.0578 " fill="none" id="MainScreen-to-HistoryRecordScreen" style="stroke:#181818;stroke-width:1.0;"/><polygon fill="#181818" points="702.3,567.2669,692.4723,567.9123,697.8739,569.5926,696.1936,574.9942,702.3,567.2669" style="stroke:#181818;stroke-width:1.0;"/><text fill="#000000" font-family="sans-serif" font-size="13" lengthAdjust="spacing" textLength="62" x="530" y="627.3638">navigates</text></g><!--link HistoryRecordScreen to ResultDisplayScreen--><g id="link_HistoryRecordScreen_ResultDisplayScreen"><path codeLine="110" d="M1015.95,531.7869 C1092.04,553.9869 1176.7501,578.6966 1249.0101,599.7766 " fill="none" id="HistoryRecordScreen-to-ResultDisplayScreen" style="stroke:#181818;stroke-width:1.0;"/><polygon fill="#181818" points="1254.77,601.4569,1247.2503,595.0965,1249.9701,600.0566,1245.0099,602.7764,1254.77,601.4569" style="stroke:#181818;stroke-width:1.0;"/><text fill="#000000" font-family="sans-serif" font-size="13" lengthAdjust="spacing" textLength="96" x="1127" y="564.3638">views details of</text></g><!--link ResultDisplayScreen to ShareScreen--><g id="link_ResultDisplayScreen_ShareScreen"><path codeLine="111" d="M1516.41,607.7969 C1568.6,595.1369 1622.9991,581.9511 1675.9391,569.1111 " fill="none" id="ResultDisplayScreen-to-ShareScreen" style="stroke:#181818;stroke-width:1.0;"/><polygon fill="#181818" points="1681.77,567.6969,1672.0808,565.9309,1676.9109,568.8754,1673.9664,573.7055,1681.77,567.6969" style="stroke:#181818;stroke-width:1.0;"/><text fill="#000000" font-family="sans-serif" font-size="13" lengthAdjust="spacing" textLength="104" x="1547" y="574.3638">options to share</text></g><!--SRC=[hLTRRnD757xthnZnWb43Fy12aTAaj56XHPZmr9TXTsoFijxPpeoJfWMfN781aX8rXPOc8ecKbFJcX5Afa73vCzvB_aNFpAop4-ywf1G_UEqzb_dEDsVEEIEfz0WQ2WAFEbXIvgDX3mk1HYYkSzn4arGsq0YHc7h4HMEZQ9Wr0-OJNmg4VHUD-f9mx2XBKIfvf2QHP8ZJUaCYbtAY9QMJOfpw0LOE0-oCupgfoYbOLybBfVGLEZ7iKN2CgjGb9z0t9GGVHwEvWAbVTJWXVlfQVJuGn0FxiS1Zs3r7i6nnKZxLA_w42iduL87SnnEqZYMvp3Btjlmp8rUSVDYI4W94rr3gxX9n67UDpG0o4Bh_ll3HULRlUXn0bqWTZBZsb0PHGT7IGkVLIhZzCfdxBPg_i_zzEriunOf67RDckFmwMfkDb_zEdjnCrhVYZTtmxcfowvMsk6xHLB2IJLU3JOB6ESQRTfYmCIq9xqVz6Ykt1E4-Rf8AgafE_Ve0x9SGan1hzeOq8HcwVss-MrURzBruSga8F3mrpFmQvKqTJZal_eXpnij4VLyGzG8teoeoT8uIprKqnZziHNF_X8iB0oZSdedNRWoW_PljkFqKjYDvlHHERqRFjiAP-SwRzUZ6TkQcgkDASm3yHFSNExiRELrx8wpzxzq1BIhSWs5EN4X_YZrn3FPonB-pUKfdyI5uNrmVS1m_sWjVFGXd_qosRsJccfMCOgCKFzkBzrPpvDgdhPVTj1WKqNknmIGhvsWphmFrNG7y7dc7uBKFLDNrXd70l__jdUZUh_7qa_ZEREVvtSxBjKpPGEnD9wERl5bErkV3kPdeyQATW52UIHCs5_Cff4uNCdHVGydwPZWzRR8mUZWRhVnXM2ue3QBboH4JKB_Qe5H4cPjd1Ps7Of9dusrgHeukawyKmEYdrwfUwOZYlQNeyOg1cUb_p77Gq3cZnL3ieCQ5Jn-0cUqK-zYR-ffalEtFBaGFTupdtWfQXN3Ga3j17SiWXRAtcxJRbe7DaZ4vagLXp8bHAsFzEA9-7KCr1PcoPS8Ef_UYkni6Q0vYGGFAzyJ-JI-5bYgK6-QfjZ2taSQLMGXsMpr6eNv0np_LcpXAPeO4qLVJQJ0co90U2CfcOiZAKp-Z5EvOu4AZThke3sMRCjJG5N_VpOJt_qhQEwh4pFq8YPHf6dpe2YMJAXbMD-ELUqOpsVubkZLzx6GpHhqfDm9iISiYd5lRVxIHqxMtijg012dECYtwFD1ZLJb7uaKFovggSK7weo2nj0UKkj1uPZgxluTpEvtd2-7YVFZYMNX_9_xvDfIg_VKNcLtQTArQlDvEsXl6t4mjQI3NhScjIlW4uGMJ6xYJd7aU2AqG9x17rOw-Zs41-0DFGux3MhxyNvwwgDwvayB4x4j0GaJUyD0c4cTSzmoebI0qqtEV7fIcuf3lNWHOeDj7ZvClM-3DgZc72ZJWBZIh4n_cTuZvFzgbonMSIDuzFM-f7Au-CFsLx9FoAQxNFNA1WOsTHiVWnlOoWYM-YWMnNTI8T1e5KRG2avzvT0F89zrUcQkPd3JPn951mQav2LO-N8Zgo3es-ZPbNO2GSt3HAbc7wCoPmKDiLD3Piv1gWuEzIWV1PXgmy1KgMjY3SklfgLeqQ23GLI8dLGqIkXIPUnqS4H_LMdvwipk9nY2VqUdJW_PThABUYfBrHYaKtdUwbwsSjZqg7w5sQEYpzGu9pFBvIQU2MbfD88_0x2LPgKXBMHTD01MK7ea3wnvmHJtPnbWaxmzr0ZgKGAvffuZL-cAr-qS5iRJKmoGgbE1V]--></g></svg>