<?xml version="1.0" encoding="us-ascii" standalone="no"?><svg xmlns="http://www.w3.org/2000/svg" xmlns:xlink="http://www.w3.org/1999/xlink" contentStyleType="text/css" height="1099px" preserveAspectRatio="none" style="width:1840px;height:1099px;background:#FFFFFF;" version="1.1" viewBox="0 0 1840 1099" width="1840px" zoomAndPan="magnify"><defs/><g><text fill="#000000" font-family="sans-serif" font-size="14" font-weight="bold" lengthAdjust="spacing" textLength="90" x="868.25" y="22.9951">&#24212;&#29992;&#24635;&#20307;&#31867;&#22270;</text><!--class ??--><g id="elem_&#29992;&#25143;"><rect codeLine="3" fill="#F1F1F1" height="48" id="&#29992;&#25143;" rx="2.5" ry="2.5" style="stroke:#181818;stroke-width:0.5;" width="60" x="1080" y="44.2969"/><ellipse cx="1095" cy="60.2969" fill="#ADD1B2" rx="11" ry="11" style="stroke:#181818;stroke-width:1.0;"/><path d="M1097.3438,55.9688 C1096.4063,55.5313 1095.8125,55.3906 1094.9375,55.3906 C1092.3125,55.3906 1090.3125,57.4688 1090.3125,60.1875 L1090.3125,61.3125 C1090.3125,63.8906 1092.4219,65.7813 1095.3125,65.7813 C1096.5313,65.7813 1097.6875,65.4844 1098.4375,64.9375 C1099.0156,64.5313 1099.3438,64.0781 1099.3438,63.6875 C1099.3438,63.2344 1098.9531,62.8438 1098.4844,62.8438 C1098.2656,62.8438 1098.0625,62.9219 1097.875,63.1094 C1097.4219,63.5938 1097.4219,63.5938 1097.2344,63.6875 C1096.8125,63.9531 1096.125,64.0781 1095.3594,64.0781 C1093.3125,64.0781 1092.0156,62.9844 1092.0156,61.2813 L1092.0156,60.1875 C1092.0156,58.4063 1093.2656,57.0938 1095,57.0938 C1095.5781,57.0938 1096.1875,57.25 1096.6563,57.5 C1097.1406,57.7813 1097.3125,58 1097.4063,58.4063 C1097.4688,58.8125 1097.5,58.9375 1097.6406,59.0625 C1097.7813,59.2031 1098.0156,59.3125 1098.2344,59.3125 C1098.5,59.3125 1098.7656,59.1719 1098.9375,58.9531 C1099.0469,58.7969 1099.0781,58.6094 1099.0781,58.1875 L1099.0781,56.7656 C1099.0781,56.3281 1099.0625,56.2031 1098.9688,56.0469 C1098.8125,55.7813 1098.5313,55.6406 1098.2344,55.6406 C1097.9375,55.6406 1097.7344,55.7344 1097.5156,56.0469 L1097.3438,55.9688 Z " fill="#000000"/><text fill="#000000" font-family="sans-serif" font-size="14" lengthAdjust="spacing" textLength="28" x="1109" y="65.1436">&#29992;&#25143;</text><line style="stroke:#181818;stroke-width:0.5;" x1="1081" x2="1139" y1="76.2969" y2="76.2969"/><line style="stroke:#181818;stroke-width:0.5;" x1="1081" x2="1139" y1="84.2969" y2="84.2969"/></g><!--class ????--><g id="elem_&#27426;&#36814;&#30028;&#38754;"><rect codeLine="6" fill="#F1F1F1" height="80.5938" id="&#27426;&#36814;&#30028;&#38754;" rx="2.5" ry="2.5" style="stroke:#181818;stroke-width:0.5;" width="110" x="677" y="161.2969"/><ellipse cx="701.9" cy="177.2969" fill="#ADD1B2" rx="11" ry="11" style="stroke:#181818;stroke-width:1.0;"/><path d="M704.2438,172.9688 C703.3063,172.5313 702.7125,172.3906 701.8375,172.3906 C699.2125,172.3906 697.2125,174.4688 697.2125,177.1875 L697.2125,178.3125 C697.2125,180.8906 699.3219,182.7813 702.2125,182.7813 C703.4313,182.7813 704.5875,182.4844 705.3375,181.9375 C705.9156,181.5313 706.2438,181.0781 706.2438,180.6875 C706.2438,180.2344 705.8531,179.8438 705.3844,179.8438 C705.1656,179.8438 704.9625,179.9219 704.775,180.1094 C704.3219,180.5938 704.3219,180.5938 704.1344,180.6875 C703.7125,180.9531 703.025,181.0781 702.2594,181.0781 C700.2125,181.0781 698.9156,179.9844 698.9156,178.2813 L698.9156,177.1875 C698.9156,175.4063 700.1656,174.0938 701.9,174.0938 C702.4781,174.0938 703.0875,174.25 703.5563,174.5 C704.0406,174.7813 704.2125,175 704.3063,175.4063 C704.3688,175.8125 704.4,175.9375 704.5406,176.0625 C704.6813,176.2031 704.9156,176.3125 705.1344,176.3125 C705.4,176.3125 705.6656,176.1719 705.8375,175.9531 C705.9469,175.7969 705.9781,175.6094 705.9781,175.1875 L705.9781,173.7656 C705.9781,173.3281 705.9625,173.2031 705.8688,173.0469 C705.7125,172.7813 705.4313,172.6406 705.1344,172.6406 C704.8375,172.6406 704.6344,172.7344 704.4156,173.0469 L704.2438,172.9688 Z " fill="#000000"/><text fill="#000000" font-family="sans-serif" font-size="14" lengthAdjust="spacing" textLength="56" x="718.1" y="182.1436">&#27426;&#36814;&#30028;&#38754;</text><line style="stroke:#181818;stroke-width:0.5;" x1="678" x2="786" y1="193.2969" y2="193.2969"/><line style="stroke:#181818;stroke-width:0.5;" x1="678" x2="786" y1="201.2969" y2="201.2969"/><ellipse cx="688" cy="214.9453" fill="#84BE84" rx="3" ry="3" style="stroke:#038048;stroke-width:1.0;"/><text fill="#000000" font-family="sans-serif" font-size="14" lengthAdjust="spacing" textLength="73" x="697" y="218.292">ClickReg()</text><ellipse cx="688" cy="231.2422" fill="#84BE84" rx="3" ry="3" style="stroke:#038048;stroke-width:1.0;"/><text fill="#000000" font-family="sans-serif" font-size="14" lengthAdjust="spacing" textLength="84" x="697" y="234.5889">ClickLogin()</text></g><!--class ????--><g id="elem_&#27880;&#20876;&#30028;&#38754;"><rect codeLine="11" fill="#F1F1F1" height="129.4844" id="&#27880;&#20876;&#30028;&#38754;" rx="2.5" ry="2.5" style="stroke:#181818;stroke-width:0.5;" width="336" x="7" y="335.7969"/><ellipse cx="142.75" cy="351.7969" fill="#ADD1B2" rx="11" ry="11" style="stroke:#181818;stroke-width:1.0;"/><path d="M145.0938,347.4688 C144.1563,347.0313 143.5625,346.8906 142.6875,346.8906 C140.0625,346.8906 138.0625,348.9688 138.0625,351.6875 L138.0625,352.8125 C138.0625,355.3906 140.1719,357.2813 143.0625,357.2813 C144.2813,357.2813 145.4375,356.9844 146.1875,356.4375 C146.7656,356.0313 147.0938,355.5781 147.0938,355.1875 C147.0938,354.7344 146.7031,354.3438 146.2344,354.3438 C146.0156,354.3438 145.8125,354.4219 145.625,354.6094 C145.1719,355.0938 145.1719,355.0938 144.9844,355.1875 C144.5625,355.4531 143.875,355.5781 143.1094,355.5781 C141.0625,355.5781 139.7656,354.4844 139.7656,352.7813 L139.7656,351.6875 C139.7656,349.9063 141.0156,348.5938 142.75,348.5938 C143.3281,348.5938 143.9375,348.75 144.4063,349 C144.8906,349.2813 145.0625,349.5 145.1563,349.9063 C145.2188,350.3125 145.25,350.4375 145.3906,350.5625 C145.5313,350.7031 145.7656,350.8125 145.9844,350.8125 C146.25,350.8125 146.5156,350.6719 146.6875,350.4531 C146.7969,350.2969 146.8281,350.1094 146.8281,349.6875 L146.8281,348.2656 C146.8281,347.8281 146.8125,347.7031 146.7188,347.5469 C146.5625,347.2813 146.2813,347.1406 145.9844,347.1406 C145.6875,347.1406 145.4844,347.2344 145.2656,347.5469 L145.0938,347.4688 Z " fill="#000000"/><text fill="#000000" font-family="sans-serif" font-size="14" lengthAdjust="spacing" textLength="56" x="163.25" y="356.6436">&#27880;&#20876;&#30028;&#38754;</text><line style="stroke:#181818;stroke-width:0.5;" x1="8" x2="342" y1="367.7969" y2="367.7969"/><line style="stroke:#181818;stroke-width:0.5;" x1="8" x2="342" y1="375.7969" y2="375.7969"/><ellipse cx="18" cy="389.4453" fill="#84BE84" rx="3" ry="3" style="stroke:#038048;stroke-width:1.0;"/><text fill="#000000" font-family="sans-serif" font-size="14" lengthAdjust="spacing" textLength="113" x="27" y="392.792">ShowRegForm()</text><ellipse cx="18" cy="405.7422" fill="#84BE84" rx="3" ry="3" style="stroke:#038048;stroke-width:1.0;"/><text fill="#000000" font-family="sans-serif" font-size="14" lengthAdjust="spacing" textLength="296" x="27" y="409.0889">InputRegInfo(username, password, email)</text><ellipse cx="18" cy="422.0391" fill="#84BE84" rx="3" ry="3" style="stroke:#038048;stroke-width:1.0;"/><text fill="#000000" font-family="sans-serif" font-size="14" lengthAdjust="spacing" textLength="310" x="27" y="425.3857">SubmitRegInfo(username, password, email)</text><ellipse cx="18" cy="438.3359" fill="#84BE84" rx="3" ry="3" style="stroke:#038048;stroke-width:1.0;"/><text fill="#000000" font-family="sans-serif" font-size="14" lengthAdjust="spacing" textLength="157" x="27" y="441.6826">DisplayConfirmation()</text><ellipse cx="18" cy="454.6328" fill="#84BE84" rx="3" ry="3" style="stroke:#038048;stroke-width:1.0;"/><text fill="#000000" font-family="sans-serif" font-size="14" lengthAdjust="spacing" textLength="215" x="27" y="457.9795">DisplayError(errorMsg: String)</text></g><!--class ????--><g id="elem_&#30331;&#24405;&#30028;&#38754;"><rect codeLine="19" fill="#F1F1F1" height="129.4844" id="&#30331;&#24405;&#30028;&#38754;" rx="2.5" ry="2.5" style="stroke:#181818;stroke-width:0.5;" width="315" x="654.5" y="335.7969"/><ellipse cx="779.75" cy="351.7969" fill="#ADD1B2" rx="11" ry="11" style="stroke:#181818;stroke-width:1.0;"/><path d="M782.0938,347.4688 C781.1563,347.0313 780.5625,346.8906 779.6875,346.8906 C777.0625,346.8906 775.0625,348.9688 775.0625,351.6875 L775.0625,352.8125 C775.0625,355.3906 777.1719,357.2813 780.0625,357.2813 C781.2813,357.2813 782.4375,356.9844 783.1875,356.4375 C783.7656,356.0313 784.0938,355.5781 784.0938,355.1875 C784.0938,354.7344 783.7031,354.3438 783.2344,354.3438 C783.0156,354.3438 782.8125,354.4219 782.625,354.6094 C782.1719,355.0938 782.1719,355.0938 781.9844,355.1875 C781.5625,355.4531 780.875,355.5781 780.1094,355.5781 C778.0625,355.5781 776.7656,354.4844 776.7656,352.7813 L776.7656,351.6875 C776.7656,349.9063 778.0156,348.5938 779.75,348.5938 C780.3281,348.5938 780.9375,348.75 781.4063,349 C781.8906,349.2813 782.0625,349.5 782.1563,349.9063 C782.2188,350.3125 782.25,350.4375 782.3906,350.5625 C782.5313,350.7031 782.7656,350.8125 782.9844,350.8125 C783.25,350.8125 783.5156,350.6719 783.6875,350.4531 C783.7969,350.2969 783.8281,350.1094 783.8281,349.6875 L783.8281,348.2656 C783.8281,347.8281 783.8125,347.7031 783.7188,347.5469 C783.5625,347.2813 783.2813,347.1406 782.9844,347.1406 C782.6875,347.1406 782.4844,347.2344 782.2656,347.5469 L782.0938,347.4688 Z " fill="#000000"/><text fill="#000000" font-family="sans-serif" font-size="14" lengthAdjust="spacing" textLength="56" x="800.25" y="356.6436">&#30331;&#24405;&#30028;&#38754;</text><line style="stroke:#181818;stroke-width:0.5;" x1="655.5" x2="968.5" y1="367.7969" y2="367.7969"/><line style="stroke:#181818;stroke-width:0.5;" x1="655.5" x2="968.5" y1="375.7969" y2="375.7969"/><ellipse cx="665.5" cy="389.4453" fill="#84BE84" rx="3" ry="3" style="stroke:#038048;stroke-width:1.0;"/><text fill="#000000" font-family="sans-serif" font-size="14" lengthAdjust="spacing" textLength="124" x="674.5" y="392.792">ShowLoginForm()</text><ellipse cx="665.5" cy="405.7422" fill="#84BE84" rx="3" ry="3" style="stroke:#038048;stroke-width:1.0;"/><text fill="#000000" font-family="sans-serif" font-size="14" lengthAdjust="spacing" textLength="275" x="674.5" y="409.0889">InputCredentials(username, password)</text><ellipse cx="665.5" cy="422.0391" fill="#84BE84" rx="3" ry="3" style="stroke:#038048;stroke-width:1.0;"/><text fill="#000000" font-family="sans-serif" font-size="14" lengthAdjust="spacing" textLength="289" x="674.5" y="425.3857">SubmitCredentials(username, password)</text><ellipse cx="665.5" cy="438.3359" fill="#84BE84" rx="3" ry="3" style="stroke:#038048;stroke-width:1.0;"/><text fill="#000000" font-family="sans-serif" font-size="14" lengthAdjust="spacing" textLength="145" x="674.5" y="441.6826">DisplayMainScreen()</text><ellipse cx="665.5" cy="454.6328" fill="#84BE84" rx="3" ry="3" style="stroke:#038048;stroke-width:1.0;"/><text fill="#000000" font-family="sans-serif" font-size="14" lengthAdjust="spacing" textLength="215" x="674.5" y="457.9795">DisplayError(errorMsg: String)</text></g><!--class ???--><g id="elem_&#20027;&#30028;&#38754;"><rect codeLine="27" fill="#F1F1F1" height="96.8906" id="&#20027;&#30028;&#38754;" rx="2.5" ry="2.5" style="stroke:#181818;stroke-width:0.5;" width="200" x="822" y="153.2969"/><ellipse cx="896.75" cy="169.2969" fill="#ADD1B2" rx="11" ry="11" style="stroke:#181818;stroke-width:1.0;"/><path d="M899.0938,164.9688 C898.1563,164.5313 897.5625,164.3906 896.6875,164.3906 C894.0625,164.3906 892.0625,166.4688 892.0625,169.1875 L892.0625,170.3125 C892.0625,172.8906 894.1719,174.7813 897.0625,174.7813 C898.2813,174.7813 899.4375,174.4844 900.1875,173.9375 C900.7656,173.5313 901.0938,173.0781 901.0938,172.6875 C901.0938,172.2344 900.7031,171.8438 900.2344,171.8438 C900.0156,171.8438 899.8125,171.9219 899.625,172.1094 C899.1719,172.5938 899.1719,172.5938 898.9844,172.6875 C898.5625,172.9531 897.875,173.0781 897.1094,173.0781 C895.0625,173.0781 893.7656,171.9844 893.7656,170.2813 L893.7656,169.1875 C893.7656,167.4063 895.0156,166.0938 896.75,166.0938 C897.3281,166.0938 897.9375,166.25 898.4063,166.5 C898.8906,166.7813 899.0625,167 899.1563,167.4063 C899.2188,167.8125 899.25,167.9375 899.3906,168.0625 C899.5313,168.2031 899.7656,168.3125 899.9844,168.3125 C900.25,168.3125 900.5156,168.1719 900.6875,167.9531 C900.7969,167.7969 900.8281,167.6094 900.8281,167.1875 L900.8281,165.7656 C900.8281,165.3281 900.8125,165.2031 900.7188,165.0469 C900.5625,164.7813 900.2813,164.6406 899.9844,164.6406 C899.6875,164.6406 899.4844,164.7344 899.2656,165.0469 L899.0938,164.9688 Z " fill="#000000"/><text fill="#000000" font-family="sans-serif" font-size="14" lengthAdjust="spacing" textLength="42" x="917.25" y="174.1436">&#20027;&#30028;&#38754;</text><line style="stroke:#181818;stroke-width:0.5;" x1="823" x2="1021" y1="185.2969" y2="185.2969"/><line style="stroke:#181818;stroke-width:0.5;" x1="823" x2="1021" y1="193.2969" y2="193.2969"/><ellipse cx="833" cy="206.9453" fill="#84BE84" rx="3" ry="3" style="stroke:#038048;stroke-width:1.0;"/><text fill="#000000" font-family="sans-serif" font-size="14" lengthAdjust="spacing" textLength="160" x="842" y="210.292">SelectUploadFeature()</text><ellipse cx="833" cy="223.2422" fill="#84BE84" rx="3" ry="3" style="stroke:#038048;stroke-width:1.0;"/><text fill="#000000" font-family="sans-serif" font-size="14" lengthAdjust="spacing" textLength="162" x="842" y="226.5889">SelectHistoryFeature()</text><ellipse cx="833" cy="239.5391" fill="#84BE84" rx="3" ry="3" style="stroke:#038048;stroke-width:1.0;"/><text fill="#000000" font-family="sans-serif" font-size="14" lengthAdjust="spacing" textLength="174" x="842" y="242.8857">NavigateToMainScreen()</text></g><!--class ????--><g id="elem_&#19978;&#20256;&#30028;&#38754;"><rect codeLine="33" fill="#F1F1F1" height="113.1875" id="&#19978;&#20256;&#30028;&#38754;" rx="2.5" ry="2.5" style="stroke:#181818;stroke-width:0.5;" width="241" x="378.5" y="343.7969"/><ellipse cx="466.75" cy="359.7969" fill="#ADD1B2" rx="11" ry="11" style="stroke:#181818;stroke-width:1.0;"/><path d="M469.0938,355.4688 C468.1563,355.0313 467.5625,354.8906 466.6875,354.8906 C464.0625,354.8906 462.0625,356.9688 462.0625,359.6875 L462.0625,360.8125 C462.0625,363.3906 464.1719,365.2813 467.0625,365.2813 C468.2813,365.2813 469.4375,364.9844 470.1875,364.4375 C470.7656,364.0313 471.0938,363.5781 471.0938,363.1875 C471.0938,362.7344 470.7031,362.3438 470.2344,362.3438 C470.0156,362.3438 469.8125,362.4219 469.625,362.6094 C469.1719,363.0938 469.1719,363.0938 468.9844,363.1875 C468.5625,363.4531 467.875,363.5781 467.1094,363.5781 C465.0625,363.5781 463.7656,362.4844 463.7656,360.7813 L463.7656,359.6875 C463.7656,357.9063 465.0156,356.5938 466.75,356.5938 C467.3281,356.5938 467.9375,356.75 468.4063,357 C468.8906,357.2813 469.0625,357.5 469.1563,357.9063 C469.2188,358.3125 469.25,358.4375 469.3906,358.5625 C469.5313,358.7031 469.7656,358.8125 469.9844,358.8125 C470.25,358.8125 470.5156,358.6719 470.6875,358.4531 C470.7969,358.2969 470.8281,358.1094 470.8281,357.6875 L470.8281,356.2656 C470.8281,355.8281 470.8125,355.7031 470.7188,355.5469 C470.5625,355.2813 470.2813,355.1406 469.9844,355.1406 C469.6875,355.1406 469.4844,355.2344 469.2656,355.5469 L469.0938,355.4688 Z " fill="#000000"/><text fill="#000000" font-family="sans-serif" font-size="14" lengthAdjust="spacing" textLength="56" x="487.25" y="364.6436">&#19978;&#20256;&#30028;&#38754;</text><line style="stroke:#181818;stroke-width:0.5;" x1="379.5" x2="618.5" y1="375.7969" y2="375.7969"/><line style="stroke:#181818;stroke-width:0.5;" x1="379.5" x2="618.5" y1="383.7969" y2="383.7969"/><ellipse cx="389.5" cy="397.4453" fill="#84BE84" rx="3" ry="3" style="stroke:#038048;stroke-width:1.0;"/><text fill="#000000" font-family="sans-serif" font-size="14" lengthAdjust="spacing" textLength="134" x="398.5" y="400.792">ShowUploadForm()</text><ellipse cx="389.5" cy="413.7422" fill="#84BE84" rx="3" ry="3" style="stroke:#038048;stroke-width:1.0;"/><text fill="#000000" font-family="sans-serif" font-size="14" lengthAdjust="spacing" textLength="91" x="398.5" y="417.0889">InputPhoto()</text><ellipse cx="389.5" cy="430.0391" fill="#84BE84" rx="3" ry="3" style="stroke:#038048;stroke-width:1.0;"/><text fill="#000000" font-family="sans-serif" font-size="14" lengthAdjust="spacing" textLength="149" x="398.5" y="433.3857">SubmitPhoto(photo)</text><ellipse cx="389.5" cy="446.3359" fill="#84BE84" rx="3" ry="3" style="stroke:#038048;stroke-width:1.0;"/><text fill="#000000" font-family="sans-serif" font-size="14" lengthAdjust="spacing" textLength="215" x="398.5" y="449.6826">DisplayError(errorMsg: String)</text></g><!--class ??????--><g id="elem_&#32467;&#26524;&#23637;&#31034;&#30028;&#38754;"><rect codeLine="40" fill="#F1F1F1" height="80.5938" id="&#32467;&#26524;&#23637;&#31034;&#30028;&#38754;" rx="2.5" ry="2.5" style="stroke:#181818;stroke-width:0.5;" width="188" x="1514" y="623.2969"/><ellipse cx="1561.75" cy="639.2969" fill="#ADD1B2" rx="11" ry="11" style="stroke:#181818;stroke-width:1.0;"/><path d="M1564.0938,634.9688 C1563.1563,634.5313 1562.5625,634.3906 1561.6875,634.3906 C1559.0625,634.3906 1557.0625,636.4688 1557.0625,639.1875 L1557.0625,640.3125 C1557.0625,642.8906 1559.1719,644.7813 1562.0625,644.7813 C1563.2813,644.7813 1564.4375,644.4844 1565.1875,643.9375 C1565.7656,643.5313 1566.0938,643.0781 1566.0938,642.6875 C1566.0938,642.2344 1565.7031,641.8438 1565.2344,641.8438 C1565.0156,641.8438 1564.8125,641.9219 1564.625,642.1094 C1564.1719,642.5938 1564.1719,642.5938 1563.9844,642.6875 C1563.5625,642.9531 1562.875,643.0781 1562.1094,643.0781 C1560.0625,643.0781 1558.7656,641.9844 1558.7656,640.2813 L1558.7656,639.1875 C1558.7656,637.4063 1560.0156,636.0938 1561.75,636.0938 C1562.3281,636.0938 1562.9375,636.25 1563.4063,636.5 C1563.8906,636.7813 1564.0625,637 1564.1563,637.4063 C1564.2188,637.8125 1564.25,637.9375 1564.3906,638.0625 C1564.5313,638.2031 1564.7656,638.3125 1564.9844,638.3125 C1565.25,638.3125 1565.5156,638.1719 1565.6875,637.9531 C1565.7969,637.7969 1565.8281,637.6094 1565.8281,637.1875 L1565.8281,635.7656 C1565.8281,635.3281 1565.8125,635.2031 1565.7188,635.0469 C1565.5625,634.7813 1565.2813,634.6406 1564.9844,634.6406 C1564.6875,634.6406 1564.4844,634.7344 1564.2656,635.0469 L1564.0938,634.9688 Z " fill="#000000"/><text fill="#000000" font-family="sans-serif" font-size="14" lengthAdjust="spacing" textLength="84" x="1582.25" y="644.1436">&#32467;&#26524;&#23637;&#31034;&#30028;&#38754;</text><line style="stroke:#181818;stroke-width:0.5;" x1="1515" x2="1701" y1="655.2969" y2="655.2969"/><line style="stroke:#181818;stroke-width:0.5;" x1="1515" x2="1701" y1="663.2969" y2="663.2969"/><ellipse cx="1525" cy="676.9453" fill="#84BE84" rx="3" ry="3" style="stroke:#038048;stroke-width:1.0;"/><text fill="#000000" font-family="sans-serif" font-size="14" lengthAdjust="spacing" textLength="148" x="1534" y="680.292">ShowResults(results)</text><ellipse cx="1525" cy="693.2422" fill="#84BE84" rx="3" ry="3" style="stroke:#038048;stroke-width:1.0;"/><text fill="#000000" font-family="sans-serif" font-size="14" lengthAdjust="spacing" textLength="162" x="1534" y="696.5889">DisplayResults(results)</text></g><!--class ??????--><g id="elem_&#24314;&#35758;&#23637;&#31034;&#30028;&#38754;"><rect codeLine="45" fill="#F1F1F1" height="80.5938" id="&#24314;&#35758;&#23637;&#31034;&#30028;&#38754;" rx="2.5" ry="2.5" style="stroke:#181818;stroke-width:0.5;" width="215" x="1618.5" y="862.2969"/><ellipse cx="1679.75" cy="878.2969" fill="#ADD1B2" rx="11" ry="11" style="stroke:#181818;stroke-width:1.0;"/><path d="M1682.0938,873.9688 C1681.1563,873.5313 1680.5625,873.3906 1679.6875,873.3906 C1677.0625,873.3906 1675.0625,875.4688 1675.0625,878.1875 L1675.0625,879.3125 C1675.0625,881.8906 1677.1719,883.7813 1680.0625,883.7813 C1681.2813,883.7813 1682.4375,883.4844 1683.1875,882.9375 C1683.7656,882.5313 1684.0938,882.0781 1684.0938,881.6875 C1684.0938,881.2344 1683.7031,880.8438 1683.2344,880.8438 C1683.0156,880.8438 1682.8125,880.9219 1682.625,881.1094 C1682.1719,881.5938 1682.1719,881.5938 1681.9844,881.6875 C1681.5625,881.9531 1680.875,882.0781 1680.1094,882.0781 C1678.0625,882.0781 1676.7656,880.9844 1676.7656,879.2813 L1676.7656,878.1875 C1676.7656,876.4063 1678.0156,875.0938 1679.75,875.0938 C1680.3281,875.0938 1680.9375,875.25 1681.4063,875.5 C1681.8906,875.7813 1682.0625,876 1682.1563,876.4063 C1682.2188,876.8125 1682.25,876.9375 1682.3906,877.0625 C1682.5313,877.2031 1682.7656,877.3125 1682.9844,877.3125 C1683.25,877.3125 1683.5156,877.1719 1683.6875,876.9531 C1683.7969,876.7969 1683.8281,876.6094 1683.8281,876.1875 L1683.8281,874.7656 C1683.8281,874.3281 1683.8125,874.2031 1683.7188,874.0469 C1683.5625,873.7813 1683.2813,873.6406 1682.9844,873.6406 C1682.6875,873.6406 1682.4844,873.7344 1682.2656,874.0469 L1682.0938,873.9688 Z " fill="#000000"/><text fill="#000000" font-family="sans-serif" font-size="14" lengthAdjust="spacing" textLength="84" x="1700.25" y="883.1436">&#24314;&#35758;&#23637;&#31034;&#30028;&#38754;</text><line style="stroke:#181818;stroke-width:0.5;" x1="1619.5" x2="1832.5" y1="894.2969" y2="894.2969"/><line style="stroke:#181818;stroke-width:0.5;" x1="1619.5" x2="1832.5" y1="902.2969" y2="902.2969"/><ellipse cx="1629.5" cy="915.9453" fill="#84BE84" rx="3" ry="3" style="stroke:#038048;stroke-width:1.0;"/><text fill="#000000" font-family="sans-serif" font-size="14" lengthAdjust="spacing" textLength="175" x="1638.5" y="919.292">ShowCareAdvice(advice)</text><ellipse cx="1629.5" cy="932.2422" fill="#84BE84" rx="3" ry="3" style="stroke:#038048;stroke-width:1.0;"/><text fill="#000000" font-family="sans-serif" font-size="14" lengthAdjust="spacing" textLength="189" x="1638.5" y="935.5889">DisplayCareAdvice(advice)</text></g><!--class ??????--><g id="elem_&#21382;&#21490;&#35760;&#24405;&#30028;&#38754;"><rect codeLine="50" fill="#F1F1F1" height="145.7813" id="&#21382;&#21490;&#35760;&#24405;&#30028;&#38754;" rx="2.5" ry="2.5" style="stroke:#181818;stroke-width:0.5;" width="249" x="1004.5" y="327.2969"/><ellipse cx="1082.75" cy="343.2969" fill="#ADD1B2" rx="11" ry="11" style="stroke:#181818;stroke-width:1.0;"/><path d="M1085.0938,338.9688 C1084.1563,338.5313 1083.5625,338.3906 1082.6875,338.3906 C1080.0625,338.3906 1078.0625,340.4688 1078.0625,343.1875 L1078.0625,344.3125 C1078.0625,346.8906 1080.1719,348.7813 1083.0625,348.7813 C1084.2813,348.7813 1085.4375,348.4844 1086.1875,347.9375 C1086.7656,347.5313 1087.0938,347.0781 1087.0938,346.6875 C1087.0938,346.2344 1086.7031,345.8438 1086.2344,345.8438 C1086.0156,345.8438 1085.8125,345.9219 1085.625,346.1094 C1085.1719,346.5938 1085.1719,346.5938 1084.9844,346.6875 C1084.5625,346.9531 1083.875,347.0781 1083.1094,347.0781 C1081.0625,347.0781 1079.7656,345.9844 1079.7656,344.2813 L1079.7656,343.1875 C1079.7656,341.4063 1081.0156,340.0938 1082.75,340.0938 C1083.3281,340.0938 1083.9375,340.25 1084.4063,340.5 C1084.8906,340.7813 1085.0625,341 1085.1563,341.4063 C1085.2188,341.8125 1085.25,341.9375 1085.3906,342.0625 C1085.5313,342.2031 1085.7656,342.3125 1085.9844,342.3125 C1086.25,342.3125 1086.5156,342.1719 1086.6875,341.9531 C1086.7969,341.7969 1086.8281,341.6094 1086.8281,341.1875 L1086.8281,339.7656 C1086.8281,339.3281 1086.8125,339.2031 1086.7188,339.0469 C1086.5625,338.7813 1086.2813,338.6406 1085.9844,338.6406 C1085.6875,338.6406 1085.4844,338.7344 1085.2656,339.0469 L1085.0938,338.9688 Z " fill="#000000"/><text fill="#000000" font-family="sans-serif" font-size="14" lengthAdjust="spacing" textLength="84" x="1103.25" y="348.1436">&#21382;&#21490;&#35760;&#24405;&#30028;&#38754;</text><line style="stroke:#181818;stroke-width:0.5;" x1="1005.5" x2="1252.5" y1="359.2969" y2="359.2969"/><line style="stroke:#181818;stroke-width:0.5;" x1="1005.5" x2="1252.5" y1="367.2969" y2="367.2969"/><ellipse cx="1015.5" cy="380.9453" fill="#84BE84" rx="3" ry="3" style="stroke:#038048;stroke-width:1.0;"/><text fill="#000000" font-family="sans-serif" font-size="14" lengthAdjust="spacing" textLength="162" x="1024.5" y="384.292">SelectHistoryFeature()</text><ellipse cx="1015.5" cy="397.2422" fill="#84BE84" rx="3" ry="3" style="stroke:#038048;stroke-width:1.0;"/><text fill="#000000" font-family="sans-serif" font-size="14" lengthAdjust="spacing" textLength="189" x="1024.5" y="400.5889">DisplayHistory(historyList)</text><ellipse cx="1015.5" cy="413.5391" fill="#84BE84" rx="3" ry="3" style="stroke:#038048;stroke-width:1.0;"/><text fill="#000000" font-family="sans-serif" font-size="14" lengthAdjust="spacing" textLength="167" x="1024.5" y="416.8857">SelectRecord(recordId)</text><ellipse cx="1015.5" cy="429.8359" fill="#84BE84" rx="3" ry="3" style="stroke:#038048;stroke-width:1.0;"/><text fill="#000000" font-family="sans-serif" font-size="14" lengthAdjust="spacing" textLength="209" x="1024.5" y="433.1826">ShowRecordDetails(recordId)</text><ellipse cx="1015.5" cy="446.1328" fill="#84BE84" rx="3" ry="3" style="stroke:#038048;stroke-width:1.0;"/><text fill="#000000" font-family="sans-serif" font-size="14" lengthAdjust="spacing" textLength="223" x="1024.5" y="449.4795">ChooseAction(action, recordId)</text><ellipse cx="1015.5" cy="462.4297" fill="#84BE84" rx="3" ry="3" style="stroke:#038048;stroke-width:1.0;"/><text fill="#000000" font-family="sans-serif" font-size="14" lengthAdjust="spacing" textLength="174" x="1024.5" y="465.7764">DisplayUpdatedHistory()</text></g><!--class ????--><g id="elem_&#20998;&#20139;&#30028;&#38754;"><rect codeLine="59" fill="#F1F1F1" height="80.5938" id="&#20998;&#20139;&#30028;&#38754;" rx="2.5" ry="2.5" style="stroke:#181818;stroke-width:0.5;" width="216" x="1216" y="161.2969"/><ellipse cx="1291.75" cy="177.2969" fill="#ADD1B2" rx="11" ry="11" style="stroke:#181818;stroke-width:1.0;"/><path d="M1294.0938,172.9688 C1293.1563,172.5313 1292.5625,172.3906 1291.6875,172.3906 C1289.0625,172.3906 1287.0625,174.4688 1287.0625,177.1875 L1287.0625,178.3125 C1287.0625,180.8906 1289.1719,182.7813 1292.0625,182.7813 C1293.2813,182.7813 1294.4375,182.4844 1295.1875,181.9375 C1295.7656,181.5313 1296.0938,181.0781 1296.0938,180.6875 C1296.0938,180.2344 1295.7031,179.8438 1295.2344,179.8438 C1295.0156,179.8438 1294.8125,179.9219 1294.625,180.1094 C1294.1719,180.5938 1294.1719,180.5938 1293.9844,180.6875 C1293.5625,180.9531 1292.875,181.0781 1292.1094,181.0781 C1290.0625,181.0781 1288.7656,179.9844 1288.7656,178.2813 L1288.7656,177.1875 C1288.7656,175.4063 1290.0156,174.0938 1291.75,174.0938 C1292.3281,174.0938 1292.9375,174.25 1293.4063,174.5 C1293.8906,174.7813 1294.0625,175 1294.1563,175.4063 C1294.2188,175.8125 1294.25,175.9375 1294.3906,176.0625 C1294.5313,176.2031 1294.7656,176.3125 1294.9844,176.3125 C1295.25,176.3125 1295.5156,176.1719 1295.6875,175.9531 C1295.7969,175.7969 1295.8281,175.6094 1295.8281,175.1875 L1295.8281,173.7656 C1295.8281,173.3281 1295.8125,173.2031 1295.7188,173.0469 C1295.5625,172.7813 1295.2813,172.6406 1294.9844,172.6406 C1294.6875,172.6406 1294.4844,172.7344 1294.2656,173.0469 L1294.0938,172.9688 Z " fill="#000000"/><text fill="#000000" font-family="sans-serif" font-size="14" lengthAdjust="spacing" textLength="56" x="1312.25" y="182.1436">&#20998;&#20139;&#30028;&#38754;</text><line style="stroke:#181818;stroke-width:0.5;" x1="1217" x2="1431" y1="193.2969" y2="193.2969"/><line style="stroke:#181818;stroke-width:0.5;" x1="1217" x2="1431" y1="201.2969" y2="201.2969"/><ellipse cx="1227" cy="214.9453" fill="#84BE84" rx="3" ry="3" style="stroke:#038048;stroke-width:1.0;"/><text fill="#000000" font-family="sans-serif" font-size="14" lengthAdjust="spacing" textLength="146" x="1236" y="218.292">ShowShareOptions()</text><ellipse cx="1227" cy="231.2422" fill="#84BE84" rx="3" ry="3" style="stroke:#038048;stroke-width:1.0;"/><text fill="#000000" font-family="sans-serif" font-size="14" lengthAdjust="spacing" textLength="190" x="1236" y="234.5889">ChoosePlatform(platform)</text></g><!--class ???--><g id="elem_&#25511;&#21046;&#22120;"><rect codeLine="64" fill="#F1F1F1" height="227.2656" id="&#25511;&#21046;&#22120;" rx="2.5" ry="2.5" style="stroke:#181818;stroke-width:0.5;" width="343" x="640.5" y="550.2969"/><ellipse cx="786.75" cy="566.2969" fill="#ADD1B2" rx="11" ry="11" style="stroke:#181818;stroke-width:1.0;"/><path d="M789.0938,561.9688 C788.1563,561.5313 787.5625,561.3906 786.6875,561.3906 C784.0625,561.3906 782.0625,563.4688 782.0625,566.1875 L782.0625,567.3125 C782.0625,569.8906 784.1719,571.7813 787.0625,571.7813 C788.2813,571.7813 789.4375,571.4844 790.1875,570.9375 C790.7656,570.5313 791.0938,570.0781 791.0938,569.6875 C791.0938,569.2344 790.7031,568.8438 790.2344,568.8438 C790.0156,568.8438 789.8125,568.9219 789.625,569.1094 C789.1719,569.5938 789.1719,569.5938 788.9844,569.6875 C788.5625,569.9531 787.875,570.0781 787.1094,570.0781 C785.0625,570.0781 783.7656,568.9844 783.7656,567.2813 L783.7656,566.1875 C783.7656,564.4063 785.0156,563.0938 786.75,563.0938 C787.3281,563.0938 787.9375,563.25 788.4063,563.5 C788.8906,563.7813 789.0625,564 789.1563,564.4063 C789.2188,564.8125 789.25,564.9375 789.3906,565.0625 C789.5313,565.2031 789.7656,565.3125 789.9844,565.3125 C790.25,565.3125 790.5156,565.1719 790.6875,564.9531 C790.7969,564.7969 790.8281,564.6094 790.8281,564.1875 L790.8281,562.7656 C790.8281,562.3281 790.8125,562.2031 790.7188,562.0469 C790.5625,561.7813 790.2813,561.6406 789.9844,561.6406 C789.6875,561.6406 789.4844,561.7344 789.2656,562.0469 L789.0938,561.9688 Z " fill="#000000"/><text fill="#000000" font-family="sans-serif" font-size="14" lengthAdjust="spacing" textLength="42" x="807.25" y="571.1436">&#25511;&#21046;&#22120;</text><line style="stroke:#181818;stroke-width:0.5;" x1="641.5" x2="982.5" y1="582.2969" y2="582.2969"/><line style="stroke:#181818;stroke-width:0.5;" x1="641.5" x2="982.5" y1="590.2969" y2="590.2969"/><ellipse cx="651.5" cy="603.9453" fill="#84BE84" rx="3" ry="3" style="stroke:#038048;stroke-width:1.0;"/><text fill="#000000" font-family="sans-serif" font-size="14" lengthAdjust="spacing" textLength="317" x="660.5" y="607.292">ValidateRegInfo(username, password, email)</text><ellipse cx="651.5" cy="620.2422" fill="#84BE84" rx="3" ry="3" style="stroke:#038048;stroke-width:1.0;"/><text fill="#000000" font-family="sans-serif" font-size="14" lengthAdjust="spacing" textLength="310" x="660.5" y="623.5889">CreateAccount(username, password, email)</text><ellipse cx="651.5" cy="636.5391" fill="#84BE84" rx="3" ry="3" style="stroke:#038048;stroke-width:1.0;"/><text fill="#000000" font-family="sans-serif" font-size="14" lengthAdjust="spacing" textLength="296" x="660.5" y="639.8857">ValidateCredentials(username, password)</text><ellipse cx="651.5" cy="652.8359" fill="#84BE84" rx="3" ry="3" style="stroke:#038048;stroke-width:1.0;"/><text fill="#000000" font-family="sans-serif" font-size="14" lengthAdjust="spacing" textLength="170" x="660.5" y="656.1826">GrantAccess(username)</text><ellipse cx="651.5" cy="669.1328" fill="#84BE84" rx="3" ry="3" style="stroke:#038048;stroke-width:1.0;"/><text fill="#000000" font-family="sans-serif" font-size="14" lengthAdjust="spacing" textLength="229" x="660.5" y="672.4795">CheckPhotoRestrictions(photo)</text><ellipse cx="651.5" cy="685.4297" fill="#84BE84" rx="3" ry="3" style="stroke:#038048;stroke-width:1.0;"/><text fill="#000000" font-family="sans-serif" font-size="14" lengthAdjust="spacing" textLength="190" x="660.5" y="688.7764">AnalyzeAndPredict(photo)</text><ellipse cx="651.5" cy="701.7266" fill="#84BE84" rx="3" ry="3" style="stroke:#038048;stroke-width:1.0;"/><text fill="#000000" font-family="sans-serif" font-size="14" lengthAdjust="spacing" textLength="250" x="660.5" y="705.0732">RequestCareAdvice(results, photo)</text><ellipse cx="651.5" cy="718.0234" fill="#84BE84" rx="3" ry="3" style="stroke:#038048;stroke-width:1.0;"/><text fill="#000000" font-family="sans-serif" font-size="14" lengthAdjust="spacing" textLength="259" x="660.5" y="721.3701">GenerateCareAdvice(results, photo)</text><ellipse cx="651.5" cy="734.3203" fill="#84BE84" rx="3" ry="3" style="stroke:#038048;stroke-width:1.0;"/><text fill="#000000" font-family="sans-serif" font-size="14" lengthAdjust="spacing" textLength="120" x="660.5" y="737.667">RequestHistory()</text><ellipse cx="651.5" cy="750.6172" fill="#84BE84" rx="3" ry="3" style="stroke:#038048;stroke-width:1.0;"/><text fill="#000000" font-family="sans-serif" font-size="14" lengthAdjust="spacing" textLength="194" x="660.5" y="753.9639">ReanalyzeRecord(recordId)</text><ellipse cx="651.5" cy="766.9141" fill="#84BE84" rx="3" ry="3" style="stroke:#038048;stroke-width:1.0;"/><text fill="#000000" font-family="sans-serif" font-size="14" lengthAdjust="spacing" textLength="170" x="660.5" y="770.2607">DeleteRecord(recordId)</text></g><!--class ???--><g id="elem_&#26381;&#21153;&#31471;"><rect codeLine="78" fill="#F1F1F1" height="80.5938" id="&#26381;&#21153;&#31471;" rx="2.5" ry="2.5" style="stroke:#181818;stroke-width:0.5;" width="336" x="1218" y="862.2969"/><ellipse cx="1360.75" cy="878.2969" fill="#ADD1B2" rx="11" ry="11" style="stroke:#181818;stroke-width:1.0;"/><path d="M1363.0938,873.9688 C1362.1563,873.5313 1361.5625,873.3906 1360.6875,873.3906 C1358.0625,873.3906 1356.0625,875.4688 1356.0625,878.1875 L1356.0625,879.3125 C1356.0625,881.8906 1358.1719,883.7813 1361.0625,883.7813 C1362.2813,883.7813 1363.4375,883.4844 1364.1875,882.9375 C1364.7656,882.5313 1365.0938,882.0781 1365.0938,881.6875 C1365.0938,881.2344 1364.7031,880.8438 1364.2344,880.8438 C1364.0156,880.8438 1363.8125,880.9219 1363.625,881.1094 C1363.1719,881.5938 1363.1719,881.5938 1362.9844,881.6875 C1362.5625,881.9531 1361.875,882.0781 1361.1094,882.0781 C1359.0625,882.0781 1357.7656,880.9844 1357.7656,879.2813 L1357.7656,878.1875 C1357.7656,876.4063 1359.0156,875.0938 1360.75,875.0938 C1361.3281,875.0938 1361.9375,875.25 1362.4063,875.5 C1362.8906,875.7813 1363.0625,876 1363.1563,876.4063 C1363.2188,876.8125 1363.25,876.9375 1363.3906,877.0625 C1363.5313,877.2031 1363.7656,877.3125 1363.9844,877.3125 C1364.25,877.3125 1364.5156,877.1719 1364.6875,876.9531 C1364.7969,876.7969 1364.8281,876.6094 1364.8281,876.1875 L1364.8281,874.7656 C1364.8281,874.3281 1364.8125,874.2031 1364.7188,874.0469 C1364.5625,873.7813 1364.2813,873.6406 1363.9844,873.6406 C1363.6875,873.6406 1363.4844,873.7344 1363.2656,874.0469 L1363.0938,873.9688 Z " fill="#000000"/><text fill="#000000" font-family="sans-serif" font-size="14" lengthAdjust="spacing" textLength="42" x="1381.25" y="883.1436">&#26381;&#21153;&#31471;</text><line style="stroke:#181818;stroke-width:0.5;" x1="1219" x2="1553" y1="894.2969" y2="894.2969"/><line style="stroke:#181818;stroke-width:0.5;" x1="1219" x2="1553" y1="902.2969" y2="902.2969"/><ellipse cx="1229" cy="915.9453" fill="#84BE84" rx="3" ry="3" style="stroke:#038048;stroke-width:1.0;"/><text fill="#000000" font-family="sans-serif" font-size="14" lengthAdjust="spacing" textLength="310" x="1238" y="919.292">CreateAccount(username, password, email)</text><ellipse cx="1229" cy="932.2422" fill="#84BE84" rx="3" ry="3" style="stroke:#038048;stroke-width:1.0;"/><text fill="#000000" font-family="sans-serif" font-size="14" lengthAdjust="spacing" textLength="170" x="1238" y="935.5889">GrantAccess(username)</text></g><!--class ????--><g id="elem_&#29992;&#25143;&#20449;&#24687;"><rect codeLine="83" fill="#F1F1F1" height="64.2969" id="&#29992;&#25143;&#20449;&#24687;" rx="2.5" ry="2.5" style="stroke:#181818;stroke-width:0.5;" width="327" x="1222.5" y="1028.2969"/><ellipse cx="1353.75" cy="1044.2969" fill="#ADD1B2" rx="11" ry="11" style="stroke:#181818;stroke-width:1.0;"/><path d="M1356.0938,1039.9688 C1355.1563,1039.5313 1354.5625,1039.3906 1353.6875,1039.3906 C1351.0625,1039.3906 1349.0625,1041.4688 1349.0625,1044.1875 L1349.0625,1045.3125 C1349.0625,1047.8906 1351.1719,1049.7813 1354.0625,1049.7813 C1355.2813,1049.7813 1356.4375,1049.4844 1357.1875,1048.9375 C1357.7656,1048.5313 1358.0938,1048.0781 1358.0938,1047.6875 C1358.0938,1047.2344 1357.7031,1046.8438 1357.2344,1046.8438 C1357.0156,1046.8438 1356.8125,1046.9219 1356.625,1047.1094 C1356.1719,1047.5938 1356.1719,1047.5938 1355.9844,1047.6875 C1355.5625,1047.9531 1354.875,1048.0781 1354.1094,1048.0781 C1352.0625,1048.0781 1350.7656,1046.9844 1350.7656,1045.2813 L1350.7656,1044.1875 C1350.7656,1042.4063 1352.0156,1041.0938 1353.75,1041.0938 C1354.3281,1041.0938 1354.9375,1041.25 1355.4063,1041.5 C1355.8906,1041.7813 1356.0625,1042 1356.1563,1042.4063 C1356.2188,1042.8125 1356.25,1042.9375 1356.3906,1043.0625 C1356.5313,1043.2031 1356.7656,1043.3125 1356.9844,1043.3125 C1357.25,1043.3125 1357.5156,1043.1719 1357.6875,1042.9531 C1357.7969,1042.7969 1357.8281,1042.6094 1357.8281,1042.1875 L1357.8281,1040.7656 C1357.8281,1040.3281 1357.8125,1040.2031 1357.7188,1040.0469 C1357.5625,1039.7813 1357.2813,1039.6406 1356.9844,1039.6406 C1356.6875,1039.6406 1356.4844,1039.7344 1356.2656,1040.0469 L1356.0938,1039.9688 Z " fill="#000000"/><text fill="#000000" font-family="sans-serif" font-size="14" lengthAdjust="spacing" textLength="56" x="1374.25" y="1049.1436">&#29992;&#25143;&#20449;&#24687;</text><line style="stroke:#181818;stroke-width:0.5;" x1="1223.5" x2="1548.5" y1="1060.2969" y2="1060.2969"/><line style="stroke:#181818;stroke-width:0.5;" x1="1223.5" x2="1548.5" y1="1068.2969" y2="1068.2969"/><ellipse cx="1233.5" cy="1081.9453" fill="#84BE84" rx="3" ry="3" style="stroke:#038048;stroke-width:1.0;"/><text fill="#000000" font-family="sans-serif" font-size="14" lengthAdjust="spacing" textLength="301" x="1242.5" y="1085.292">StoreUserInfo(username, password, email)</text></g><!--class Kaggle??--><g id="elem_Kaggle&#27169;&#22411;"><rect codeLine="87" fill="#F1F1F1" height="64.2969" id="Kaggle&#27169;&#22411;" rx="2.5" ry="2.5" style="stroke:#181818;stroke-width:0.5;" width="216" x="96" y="870.7969"/><ellipse cx="161.25" cy="886.7969" fill="#ADD1B2" rx="11" ry="11" style="stroke:#181818;stroke-width:1.0;"/><path d="M163.5938,882.4688 C162.6563,882.0313 162.0625,881.8906 161.1875,881.8906 C158.5625,881.8906 156.5625,883.9688 156.5625,886.6875 L156.5625,887.8125 C156.5625,890.3906 158.6719,892.2813 161.5625,892.2813 C162.7813,892.2813 163.9375,891.9844 164.6875,891.4375 C165.2656,891.0313 165.5938,890.5781 165.5938,890.1875 C165.5938,889.7344 165.2031,889.3438 164.7344,889.3438 C164.5156,889.3438 164.3125,889.4219 164.125,889.6094 C163.6719,890.0938 163.6719,890.0938 163.4844,890.1875 C163.0625,890.4531 162.375,890.5781 161.6094,890.5781 C159.5625,890.5781 158.2656,889.4844 158.2656,887.7813 L158.2656,886.6875 C158.2656,884.9063 159.5156,883.5938 161.25,883.5938 C161.8281,883.5938 162.4375,883.75 162.9063,884 C163.3906,884.2813 163.5625,884.5 163.6563,884.9063 C163.7188,885.3125 163.75,885.4375 163.8906,885.5625 C164.0313,885.7031 164.2656,885.8125 164.4844,885.8125 C164.75,885.8125 165.0156,885.6719 165.1875,885.4531 C165.2969,885.2969 165.3281,885.1094 165.3281,884.6875 L165.3281,883.2656 C165.3281,882.8281 165.3125,882.7031 165.2188,882.5469 C165.0625,882.2813 164.7813,882.1406 164.4844,882.1406 C164.1875,882.1406 163.9844,882.2344 163.7656,882.5469 L163.5938,882.4688 Z " fill="#000000"/><text fill="#000000" font-family="sans-serif" font-size="14" lengthAdjust="spacing" textLength="77" x="181.75" y="891.6436">Kaggle&#27169;&#22411;</text><line style="stroke:#181818;stroke-width:0.5;" x1="97" x2="311" y1="902.7969" y2="902.7969"/><line style="stroke:#181818;stroke-width:0.5;" x1="97" x2="311" y1="910.7969" y2="910.7969"/><ellipse cx="107" cy="924.4453" fill="#84BE84" rx="3" ry="3" style="stroke:#038048;stroke-width:1.0;"/><text fill="#000000" font-family="sans-serif" font-size="14" lengthAdjust="spacing" textLength="190" x="116" y="927.792">AnalyzeAndPredict(photo)</text></g><!--class GPT4Vision--><g id="elem_GPT4Vision"><rect codeLine="91" fill="#F1F1F1" height="64.2969" id="GPT4Vision" rx="2.5" ry="2.5" style="stroke:#181818;stroke-width:0.5;" width="285" x="347.5" y="870.7969"/><ellipse cx="445.75" cy="886.7969" fill="#ADD1B2" rx="11" ry="11" style="stroke:#181818;stroke-width:1.0;"/><path d="M448.0938,882.4688 C447.1563,882.0313 446.5625,881.8906 445.6875,881.8906 C443.0625,881.8906 441.0625,883.9688 441.0625,886.6875 L441.0625,887.8125 C441.0625,890.3906 443.1719,892.2813 446.0625,892.2813 C447.2813,892.2813 448.4375,891.9844 449.1875,891.4375 C449.7656,891.0313 450.0938,890.5781 450.0938,890.1875 C450.0938,889.7344 449.7031,889.3438 449.2344,889.3438 C449.0156,889.3438 448.8125,889.4219 448.625,889.6094 C448.1719,890.0938 448.1719,890.0938 447.9844,890.1875 C447.5625,890.4531 446.875,890.5781 446.1094,890.5781 C444.0625,890.5781 442.7656,889.4844 442.7656,887.7813 L442.7656,886.6875 C442.7656,884.9063 444.0156,883.5938 445.75,883.5938 C446.3281,883.5938 446.9375,883.75 447.4063,884 C447.8906,884.2813 448.0625,884.5 448.1563,884.9063 C448.2188,885.3125 448.25,885.4375 448.3906,885.5625 C448.5313,885.7031 448.7656,885.8125 448.9844,885.8125 C449.25,885.8125 449.5156,885.6719 449.6875,885.4531 C449.7969,885.2969 449.8281,885.1094 449.8281,884.6875 L449.8281,883.2656 C449.8281,882.8281 449.8125,882.7031 449.7188,882.5469 C449.5625,882.2813 449.2813,882.1406 448.9844,882.1406 C448.6875,882.1406 448.4844,882.2344 448.2656,882.5469 L448.0938,882.4688 Z " fill="#000000"/><text fill="#000000" font-family="sans-serif" font-size="14" lengthAdjust="spacing" textLength="80" x="466.25" y="891.6436">GPT4Vision</text><line style="stroke:#181818;stroke-width:0.5;" x1="348.5" x2="631.5" y1="902.7969" y2="902.7969"/><line style="stroke:#181818;stroke-width:0.5;" x1="348.5" x2="631.5" y1="910.7969" y2="910.7969"/><ellipse cx="358.5" cy="924.4453" fill="#84BE84" rx="3" ry="3" style="stroke:#038048;stroke-width:1.0;"/><text fill="#000000" font-family="sans-serif" font-size="14" lengthAdjust="spacing" textLength="259" x="367.5" y="927.792">GenerateCareAdvice(results, photo)</text></g><!--class ???--><g id="elem_&#25968;&#25454;&#24211;"><rect codeLine="95" fill="#F1F1F1" height="96.8906" id="&#25968;&#25454;&#24211;" rx="2.5" ry="2.5" style="stroke:#181818;stroke-width:0.5;" width="288" x="668" y="854.2969"/><ellipse cx="786.75" cy="870.2969" fill="#ADD1B2" rx="11" ry="11" style="stroke:#181818;stroke-width:1.0;"/><path d="M789.0938,865.9688 C788.1563,865.5313 787.5625,865.3906 786.6875,865.3906 C784.0625,865.3906 782.0625,867.4688 782.0625,870.1875 L782.0625,871.3125 C782.0625,873.8906 784.1719,875.7813 787.0625,875.7813 C788.2813,875.7813 789.4375,875.4844 790.1875,874.9375 C790.7656,874.5313 791.0938,874.0781 791.0938,873.6875 C791.0938,873.2344 790.7031,872.8438 790.2344,872.8438 C790.0156,872.8438 789.8125,872.9219 789.625,873.1094 C789.1719,873.5938 789.1719,873.5938 788.9844,873.6875 C788.5625,873.9531 787.875,874.0781 787.1094,874.0781 C785.0625,874.0781 783.7656,872.9844 783.7656,871.2813 L783.7656,870.1875 C783.7656,868.4063 785.0156,867.0938 786.75,867.0938 C787.3281,867.0938 787.9375,867.25 788.4063,867.5 C788.8906,867.7813 789.0625,868 789.1563,868.4063 C789.2188,868.8125 789.25,868.9375 789.3906,869.0625 C789.5313,869.2031 789.7656,869.3125 789.9844,869.3125 C790.25,869.3125 790.5156,869.1719 790.6875,868.9531 C790.7969,868.7969 790.8281,868.6094 790.8281,868.1875 L790.8281,866.7656 C790.8281,866.3281 790.8125,866.2031 790.7188,866.0469 C790.5625,865.7813 790.2813,865.6406 789.9844,865.6406 C789.6875,865.6406 789.4844,865.7344 789.2656,866.0469 L789.0938,865.9688 Z " fill="#000000"/><text fill="#000000" font-family="sans-serif" font-size="14" lengthAdjust="spacing" textLength="42" x="807.25" y="875.1436">&#25968;&#25454;&#24211;</text><line style="stroke:#181818;stroke-width:0.5;" x1="669" x2="955" y1="886.2969" y2="886.2969"/><line style="stroke:#181818;stroke-width:0.5;" x1="669" x2="955" y1="894.2969" y2="894.2969"/><ellipse cx="679" cy="907.9453" fill="#84BE84" rx="3" ry="3" style="stroke:#038048;stroke-width:1.0;"/><text fill="#000000" font-family="sans-serif" font-size="14" lengthAdjust="spacing" textLength="102" x="688" y="911.292">FetchHistory()</text><ellipse cx="679" cy="924.2422" fill="#84BE84" rx="3" ry="3" style="stroke:#038048;stroke-width:1.0;"/><text fill="#000000" font-family="sans-serif" font-size="14" lengthAdjust="spacing" textLength="262" x="688" y="927.5889">UpdateRecord(recordId, newResults)</text><ellipse cx="679" cy="940.5391" fill="#84BE84" rx="3" ry="3" style="stroke:#038048;stroke-width:1.0;"/><text fill="#000000" font-family="sans-serif" font-size="14" lengthAdjust="spacing" textLength="180" x="688" y="943.8857">RemoveRecord(recordId)</text></g><!--class ????--><g id="elem_&#20998;&#26512;&#26381;&#21153;"><rect codeLine="101" fill="#F1F1F1" height="64.2969" id="&#20998;&#26512;&#26381;&#21153;" rx="2.5" ry="2.5" style="stroke:#181818;stroke-width:0.5;" width="192" x="991" y="870.7969"/><ellipse cx="1054.75" cy="886.7969" fill="#ADD1B2" rx="11" ry="11" style="stroke:#181818;stroke-width:1.0;"/><path d="M1057.0938,882.4688 C1056.1563,882.0313 1055.5625,881.8906 1054.6875,881.8906 C1052.0625,881.8906 1050.0625,883.9688 1050.0625,886.6875 L1050.0625,887.8125 C1050.0625,890.3906 1052.1719,892.2813 1055.0625,892.2813 C1056.2813,892.2813 1057.4375,891.9844 1058.1875,891.4375 C1058.7656,891.0313 1059.0938,890.5781 1059.0938,890.1875 C1059.0938,889.7344 1058.7031,889.3438 1058.2344,889.3438 C1058.0156,889.3438 1057.8125,889.4219 1057.625,889.6094 C1057.1719,890.0938 1057.1719,890.0938 1056.9844,890.1875 C1056.5625,890.4531 1055.875,890.5781 1055.1094,890.5781 C1053.0625,890.5781 1051.7656,889.4844 1051.7656,887.7813 L1051.7656,886.6875 C1051.7656,884.9063 1053.0156,883.5938 1054.75,883.5938 C1055.3281,883.5938 1055.9375,883.75 1056.4063,884 C1056.8906,884.2813 1057.0625,884.5 1057.1563,884.9063 C1057.2188,885.3125 1057.25,885.4375 1057.3906,885.5625 C1057.5313,885.7031 1057.7656,885.8125 1057.9844,885.8125 C1058.25,885.8125 1058.5156,885.6719 1058.6875,885.4531 C1058.7969,885.2969 1058.8281,885.1094 1058.8281,884.6875 L1058.8281,883.2656 C1058.8281,882.8281 1058.8125,882.7031 1058.7188,882.5469 C1058.5625,882.2813 1058.2813,882.1406 1057.9844,882.1406 C1057.6875,882.1406 1057.4844,882.2344 1057.2656,882.5469 L1057.0938,882.4688 Z " fill="#000000"/><text fill="#000000" font-family="sans-serif" font-size="14" lengthAdjust="spacing" textLength="56" x="1075.25" y="891.6436">&#20998;&#26512;&#26381;&#21153;</text><line style="stroke:#181818;stroke-width:0.5;" x1="992" x2="1182" y1="902.7969" y2="902.7969"/><line style="stroke:#181818;stroke-width:0.5;" x1="992" x2="1182" y1="910.7969" y2="910.7969"/><ellipse cx="1002" cy="924.4453" fill="#84BE84" rx="3" ry="3" style="stroke:#038048;stroke-width:1.0;"/><text fill="#000000" font-family="sans-serif" font-size="14" lengthAdjust="spacing" textLength="166" x="1011" y="927.792">AnalyzeAgain(recordId)</text></g><!--class ????--><g id="elem_&#20998;&#20139;&#24179;&#21488;"><rect codeLine="105" fill="#F1F1F1" height="64.2969" id="&#20998;&#20139;&#24179;&#21488;" rx="2.5" ry="2.5" style="stroke:#181818;stroke-width:0.5;" width="191" x="1439.5" y="368.2969"/><ellipse cx="1502.75" cy="384.2969" fill="#ADD1B2" rx="11" ry="11" style="stroke:#181818;stroke-width:1.0;"/><path d="M1505.0938,379.9688 C1504.1563,379.5313 1503.5625,379.3906 1502.6875,379.3906 C1500.0625,379.3906 1498.0625,381.4688 1498.0625,384.1875 L1498.0625,385.3125 C1498.0625,387.8906 1500.1719,389.7813 1503.0625,389.7813 C1504.2813,389.7813 1505.4375,389.4844 1506.1875,388.9375 C1506.7656,388.5313 1507.0938,388.0781 1507.0938,387.6875 C1507.0938,387.2344 1506.7031,386.8438 1506.2344,386.8438 C1506.0156,386.8438 1505.8125,386.9219 1505.625,387.1094 C1505.1719,387.5938 1505.1719,387.5938 1504.9844,387.6875 C1504.5625,387.9531 1503.875,388.0781 1503.1094,388.0781 C1501.0625,388.0781 1499.7656,386.9844 1499.7656,385.2813 L1499.7656,384.1875 C1499.7656,382.4063 1501.0156,381.0938 1502.75,381.0938 C1503.3281,381.0938 1503.9375,381.25 1504.4063,381.5 C1504.8906,381.7813 1505.0625,382 1505.1563,382.4063 C1505.2188,382.8125 1505.25,382.9375 1505.3906,383.0625 C1505.5313,383.2031 1505.7656,383.3125 1505.9844,383.3125 C1506.25,383.3125 1506.5156,383.1719 1506.6875,382.9531 C1506.7969,382.7969 1506.8281,382.6094 1506.8281,382.1875 L1506.8281,380.7656 C1506.8281,380.3281 1506.8125,380.2031 1506.7188,380.0469 C1506.5625,379.7813 1506.2813,379.6406 1505.9844,379.6406 C1505.6875,379.6406 1505.4844,379.7344 1505.2656,380.0469 L1505.0938,379.9688 Z " fill="#000000"/><text fill="#000000" font-family="sans-serif" font-size="14" lengthAdjust="spacing" textLength="56" x="1523.25" y="389.1436">&#20998;&#20139;&#24179;&#21488;</text><line style="stroke:#181818;stroke-width:0.5;" x1="1440.5" x2="1629.5" y1="400.2969" y2="400.2969"/><line style="stroke:#181818;stroke-width:0.5;" x1="1440.5" x2="1629.5" y1="408.2969" y2="408.2969"/><ellipse cx="1450.5" cy="421.9453" fill="#84BE84" rx="3" ry="3" style="stroke:#038048;stroke-width:1.0;"/><text fill="#000000" font-family="sans-serif" font-size="14" lengthAdjust="spacing" textLength="165" x="1459.5" y="425.292">ProcessShareRequest()</text></g><!--link ?? to ????--><g id="link_&#29992;&#25143;_&#27426;&#36814;&#30028;&#38754;"><path codeLine="109" d="M1079.81,74.3169 C1023.65,84.3469 900.089,109.7459 804,153.2969 C798.408,155.8319 797.9755,155.8066 792.4335,158.9586 " fill="none" id="&#29992;&#25143;-to-&#27426;&#36814;&#30028;&#38754;" style="stroke:#181818;stroke-width:1.0;"/><polygon fill="#181818" points="787.218,161.9249,797.0187,160.9524,791.5642,159.453,793.0637,153.9985,787.218,161.9249" style="stroke:#181818;stroke-width:1.0;"/></g><!--link ?? to ????--><g id="link_&#29992;&#25143;_&#27880;&#20876;&#30028;&#38754;"><path codeLine="110" d="M1080,68.9869 C993.675,69.0669 738.571,76.2869 546,153.2969 C434.596,197.8469 326.5639,275.1011 255.0899,331.9471 " fill="none" id="&#29992;&#25143;-to-&#27880;&#20876;&#30028;&#38754;" style="stroke:#181818;stroke-width:1.0;"/><polygon fill="#181818" points="250.394,335.6819,259.9277,333.2102,254.3072,332.5695,254.9479,326.9491,250.394,335.6819" style="stroke:#181818;stroke-width:1.0;"/></g><!--link ?? to ????--><g id="link_&#29992;&#25143;_&#30331;&#24405;&#30028;&#38754;"><path codeLine="111" d="M1106.87,92.4169 C1099.49,143.9639 1079.59,266.2159 1053,297.2969 C1051.1,299.5139 1017.443,314.0621 971.187,333.4641 " fill="none" id="&#29992;&#25143;-to-&#30331;&#24405;&#30028;&#38754;" style="stroke:#181818;stroke-width:1.0;"/><polygon fill="#181818" points="965.654,335.7849,975.5007,335.9923,970.2648,333.8509,972.4063,328.615,965.654,335.7849" style="stroke:#181818;stroke-width:1.0;"/></g><!--link ?? to ???--><g id="link_&#29992;&#25143;_&#20027;&#30028;&#38754;"><path codeLine="112" d="M1079.79,90.4269 C1055.61,107.3409 1025.6767,128.2789 994.8737,149.8239 " fill="none" id="&#29992;&#25143;-to-&#20027;&#30028;&#38754;" style="stroke:#181818;stroke-width:1.0;"/><polygon fill="#181818" points="989.957,153.2629,999.6246,151.3822,994.0542,150.3971,995.0394,144.8267,989.957,153.2629" style="stroke:#181818;stroke-width:1.0;"/></g><!--link ?? to ????--><g id="link_&#29992;&#25143;_&#19978;&#20256;&#30028;&#38754;"><path codeLine="113" d="M1079.75,68.8069 C1004.099,68.8269 802.476,76.6269 659,153.2969 C589.423,190.4749 575.125,212.3769 535,280.2969 C523.582,299.6239 517.0521,317.0921 511.4791,337.9031 " fill="none" id="&#29992;&#25143;-to-&#19978;&#20256;&#30028;&#38754;" style="stroke:#181818;stroke-width:1.0;"/><polygon fill="#181818" points="509.927,343.6989,516.1189,336.0399,511.2204,338.8691,508.3912,333.9705,509.927,343.6989" style="stroke:#181818;stroke-width:1.0;"/></g><!--link ?? to ??????--><g id="link_&#29992;&#25143;_&#32467;&#26524;&#23637;&#31034;&#30028;&#38754;"><path codeLine="114" d="M1140.05,72.6769 C1221.47,82.3169 1444.2,111.8909 1504,153.2969 C1586.53,210.4389 1613.99,232.8529 1648,327.2969 C1684.77,429.3969 1649.5749,553.5064 1626.0749,617.6194 " fill="none" id="&#29992;&#25143;-to-&#32467;&#26524;&#23637;&#31034;&#30028;&#38754;" style="stroke:#181818;stroke-width:1.0;"/><polygon fill="#181818" points="1624.01,623.2529,1630.863,616.1792,1625.7308,618.5583,1623.3517,613.426,1624.01,623.2529" style="stroke:#181818;stroke-width:1.0;"/></g><!--link ?? to ??????--><g id="link_&#29992;&#25143;_&#24314;&#35758;&#23637;&#31034;&#30028;&#38754;"><path codeLine="115" d="M1140.24,68.9269 C1267.76,68.1869 1755,73.6569 1755,200.7969 C1755,200.7969 1755,200.7969 1755,664.7969 C1755,734.6449 1743.5205,809.318 1734.9305,856.239 " fill="none" id="&#29992;&#25143;-to-&#24314;&#35758;&#23637;&#31034;&#30028;&#38754;" style="stroke:#181818;stroke-width:1.0;"/><polygon fill="#181818" points="1733.85,862.1409,1739.4053,854.0083,1734.7504,857.2226,1731.5361,852.5677,1733.85,862.1409" style="stroke:#181818;stroke-width:1.0;"/></g><!--link ?? to ??????--><g id="link_&#29992;&#25143;_&#21382;&#21490;&#35760;&#24405;&#30028;&#38754;"><path codeLine="116" d="M1111.34,92.5019 C1114.1,140.5489 1120.2153,246.6648 1124.5053,321.2208 " fill="none" id="&#29992;&#25143;-to-&#21382;&#21490;&#35760;&#24405;&#30028;&#38754;" style="stroke:#181818;stroke-width:1.0;"/><polygon fill="#181818" points="1124.85,327.2109,1128.3264,317.996,1124.5628,322.2191,1120.3396,318.4555,1124.85,327.2109" style="stroke:#181818;stroke-width:1.0;"/></g><!--link ?? to ????--><g id="link_&#29992;&#25143;_&#20998;&#20139;&#30028;&#38754;"><path codeLine="117" d="M1140.21,87.8569 C1171.08,106.8319 1214.8778,133.746 1254.4878,158.082 " fill="none" id="&#29992;&#25143;-to-&#20998;&#20139;&#30028;&#38754;" style="stroke:#181818;stroke-width:1.0;"/><polygon fill="#181818" points="1259.6,161.2229,1254.0256,153.1034,1255.3398,158.6055,1249.8377,159.9197,1259.6,161.2229" style="stroke:#181818;stroke-width:1.0;"/></g><!--link ?? to ????--><g id="link_&#29992;&#25143;_&#20998;&#20139;&#24179;&#21488;"><path codeLine="118" d="M1140.07,73.0569 C1214.23,82.8969 1403.16,111.5519 1449,153.2969 C1511.72,210.4149 1528.1757,309.8518 1532.7657,362.1748 " fill="none" id="&#29992;&#25143;-to-&#20998;&#20139;&#24179;&#21488;" style="stroke:#181818;stroke-width:1.0;"/><polygon fill="#181818" points="1533.29,368.1519,1536.4882,358.8368,1532.8531,363.171,1528.5188,359.5359,1533.29,368.1519" style="stroke:#181818;stroke-width:1.0;"/></g><!--link ???? to ????--><g id="link_&#27426;&#36814;&#30028;&#38754;_&#27880;&#20876;&#30028;&#38754;"><path codeLine="120" d="M676.728,220.4749 C604,243.9349 472.347,287.0869 361,327.2969 C353.428,330.0309 351.3233,330.7784 343.5253,333.6674 " fill="none" id="&#27426;&#36814;&#30028;&#38754;-to-&#27880;&#20876;&#30028;&#38754;" style="stroke:#181818;stroke-width:1.0;"/><polygon fill="#181818" points="337.899,335.7519,347.7281,336.3761,342.5876,334.0149,344.9488,328.8744,337.899,335.7519" style="stroke:#181818;stroke-width:1.0;"/><text fill="#000000" font-family="sans-serif" font-size="13" lengthAdjust="spacing" textLength="78" x="495" y="293.3638">&#26174;&#31034;&#27880;&#20876;&#34920;&#21333;</text></g><!--link ???? to ????--><g id="link_&#27426;&#36814;&#30028;&#38754;_&#30331;&#24405;&#30028;&#38754;"><path codeLine="121" d="M724.376,242.4169 C722.647,259.7209 722.843,279.9749 729,297.2969 C733.779,310.7419 737.7015,318.8074 746.1465,330.7174 " fill="none" id="&#27426;&#36814;&#30028;&#38754;-to-&#30331;&#24405;&#30028;&#38754;" style="stroke:#181818;stroke-width:1.0;"/><polygon fill="#181818" points="749.617,335.6119,747.6742,325.9565,746.7249,331.5332,741.1483,330.5839,749.617,335.6119" style="stroke:#181818;stroke-width:1.0;"/><text fill="#000000" font-family="sans-serif" font-size="13" lengthAdjust="spacing" textLength="78" x="730" y="293.3638">&#26174;&#31034;&#30331;&#24405;&#34920;&#21333;</text></g><!--link ??? to ????--><g id="link_&#20027;&#30028;&#38754;_&#19978;&#20256;&#30028;&#38754;"><path codeLine="122" d="M878.309,250.4239 C859.815,267.7999 837.002,285.9519 813,297.2969 C741.26,331.2069 712.2,301.9699 637,327.2969 C623.555,331.8249 615.2622,334.9954 601.9222,341.1944 " fill="none" id="&#20027;&#30028;&#38754;-to-&#19978;&#20256;&#30028;&#38754;" style="stroke:#181818;stroke-width:1.0;"/><polygon fill="#181818" points="596.481,343.7229,606.3285,343.5576,601.0153,341.6158,602.9572,336.3027,596.481,343.7229" style="stroke:#181818;stroke-width:1.0;"/><text fill="#000000" font-family="sans-serif" font-size="13" lengthAdjust="spacing" textLength="78" x="842" y="293.3638">&#26174;&#31034;&#19978;&#20256;&#34920;&#21333;</text></g><!--link ??? to ??????--><g id="link_&#20027;&#30028;&#38754;_&#21382;&#21490;&#35760;&#24405;&#30028;&#38754;"><path codeLine="123" d="M972.109,250.3639 C996.398,273.4219 1021.7386,297.4759 1048.7286,323.0989 " fill="none" id="&#20027;&#30028;&#38754;-to-&#21382;&#21490;&#35760;&#24405;&#30028;&#38754;" style="stroke:#181818;stroke-width:1.0;"/><polygon fill="#181818" points="1053.08,327.2299,1049.3069,318.1324,1049.4538,323.7874,1043.7989,323.9343,1053.08,327.2299" style="stroke:#181818;stroke-width:1.0;"/><text fill="#000000" font-family="sans-serif" font-size="13" lengthAdjust="spacing" textLength="78" x="1021" y="293.3638">&#26174;&#31034;&#21382;&#21490;&#35760;&#24405;</text></g><!--link ?????? to ??????--><g id="link_&#32467;&#26524;&#23637;&#31034;&#30028;&#38754;_&#24314;&#35758;&#23637;&#31034;&#30028;&#38754;"><path codeLine="124" d="M1612.27,704.3409 C1617.23,738.0159 1627.67,786.7639 1649,824.2969 C1656.78,837.9829 1663.4024,846.6634 1674.4824,857.9274 " fill="none" id="&#32467;&#26524;&#23637;&#31034;&#30028;&#38754;-to-&#24314;&#35758;&#23637;&#31034;&#30028;&#38754;" style="stroke:#181818;stroke-width:1.0;"/><polygon fill="#181818" points="1678.69,862.2049,1675.2303,852.9837,1675.1837,858.6403,1669.527,858.5938,1678.69,862.2049" style="stroke:#181818;stroke-width:1.0;"/><text fill="#000000" font-family="sans-serif" font-size="13" lengthAdjust="spacing" textLength="78" x="1650" y="820.3638">&#26174;&#31034;&#20859;&#25252;&#24314;&#35758;</text></g><!--link ?????? to ??????--><g id="link_&#21382;&#21490;&#35760;&#24405;&#30028;&#38754;_&#32467;&#26524;&#23637;&#31034;&#30028;&#38754;"><path codeLine="125" d="M1253.6,469.3199 C1343.14,518.1999 1455.4837,579.5328 1530.1137,620.2758 " fill="none" id="&#21382;&#21490;&#35760;&#24405;&#30028;&#38754;-to-&#32467;&#26524;&#23637;&#31034;&#30028;&#38754;" style="stroke:#181818;stroke-width:1.0;"/><polygon fill="#181818" points="1535.38,623.1509,1529.3972,615.3274,1530.9914,620.755,1525.5638,622.3492,1535.38,623.1509" style="stroke:#181818;stroke-width:1.0;"/><text fill="#000000" font-family="sans-serif" font-size="13" lengthAdjust="spacing" textLength="78" x="1341" y="516.3638">&#26174;&#31034;&#35760;&#24405;&#35814;&#24773;</text></g><!--link ???? to ????--><g id="link_&#20998;&#20139;&#30028;&#38754;_&#20998;&#20139;&#24179;&#21488;"><path codeLine="126" d="M1366.45,242.3249 C1406.28,279.4209 1460.6591,330.0689 1497.2391,364.1339 " fill="none" id="&#20998;&#20139;&#30028;&#38754;-to-&#20998;&#20139;&#24179;&#21488;" style="stroke:#181818;stroke-width:1.0;"/><polygon fill="#181818" points="1501.63,368.2229,1497.7697,359.1621,1497.9709,364.8154,1492.3176,365.0166,1501.63,368.2229" style="stroke:#181818;stroke-width:1.0;"/><text fill="#000000" font-family="sans-serif" font-size="13" lengthAdjust="spacing" textLength="52" x="1425" y="293.3638">&#23436;&#25104;&#20998;&#20139;</text></g><!--link ???? to ???--><g id="link_&#27880;&#20876;&#30028;&#38754;_&#25511;&#21046;&#22120;"><path codeLine="128" d="M330.013,464.9329 C423.83,503.4459 538.0605,550.3393 634.7425,590.0293 " fill="none" id="&#27880;&#20876;&#30028;&#38754;-to-&#25511;&#21046;&#22120;" style="stroke:#181818;stroke-width:1.0;"/><polygon fill="#181818" points="640.293,592.3079,633.4863,585.1897,635.6676,590.409,630.4482,592.5903,640.293,592.3079" style="stroke:#181818;stroke-width:1.0;"/><text fill="#000000" font-family="sans-serif" font-size="13" lengthAdjust="spacing" textLength="78" x="457" y="516.3638">&#39564;&#35777;&#27880;&#20876;&#20449;&#24687;</text></g><!--link ???? to ???--><g id="link_&#30331;&#24405;&#30028;&#38754;_&#25511;&#21046;&#22120;"><path codeLine="129" d="M812,464.9329 C812,490.6329 812,515.0809 812,544.2889 " fill="none" id="&#30331;&#24405;&#30028;&#38754;-to-&#25511;&#21046;&#22120;" style="stroke:#181818;stroke-width:1.0;"/><polygon fill="#181818" points="812,550.2889,816,541.2889,812,545.2889,808,541.2889,812,550.2889" style="stroke:#181818;stroke-width:1.0;"/><text fill="#000000" font-family="sans-serif" font-size="13" lengthAdjust="spacing" textLength="78" x="813" y="516.3638">&#39564;&#35777;&#30331;&#24405;&#20973;&#35777;</text></g><!--link ???? to ???--><g id="link_&#19978;&#20256;&#30028;&#38754;_&#25511;&#21046;&#22120;"><path codeLine="130" d="M565.762,457.0749 C598.259,484.2239 633.9485,514.041 672.4655,546.221 " fill="none" id="&#19978;&#20256;&#30028;&#38754;-to-&#25511;&#21046;&#22120;" style="stroke:#181818;stroke-width:1.0;"/><polygon fill="#181818" points="677.07,550.0679,672.7279,541.2278,673.2329,546.8621,667.5987,547.3671,677.07,550.0679" style="stroke:#181818;stroke-width:1.0;"/><text fill="#000000" font-family="sans-serif" font-size="13" lengthAdjust="spacing" textLength="78" x="638" y="516.3638">&#26816;&#26597;&#29031;&#29255;&#38480;&#21046;</text></g><!--link ??? to Kaggle??--><g id="link_&#25511;&#21046;&#22120;_Kaggle&#27169;&#22411;"><path codeLine="131" d="M640.21,731.7609 C523.274,777.3429 379.5163,833.3797 289.3823,868.5147 " fill="none" id="&#25511;&#21046;&#22120;-to-Kaggle&#27169;&#22411;" style="stroke:#181818;stroke-width:1.0;"/><polygon fill="#181818" points="283.792,870.6939,293.6302,871.152,288.4506,868.8779,290.7247,863.6983,283.792,870.6939" style="stroke:#181818;stroke-width:1.0;"/><text fill="#000000" font-family="sans-serif" font-size="13" lengthAdjust="spacing" textLength="52" x="437" y="820.3638">&#20998;&#26512;&#39044;&#27979;</text></g><!--link ??? to GPT4Vision--><g id="link_&#25511;&#21046;&#22120;_GPT4Vision"><path codeLine="132" d="M659.016,777.3969 C612.445,811.6749 569.8092,843.0552 537.0842,867.1422 " fill="none" id="&#25511;&#21046;&#22120;-to-GPT4Vision" style="stroke:#181818;stroke-width:1.0;"/><polygon fill="#181818" points="532.252,870.6989,541.8714,868.5853,536.2788,867.735,537.1291,862.1424,532.252,870.6989" style="stroke:#181818;stroke-width:1.0;"/><text fill="#000000" font-family="sans-serif" font-size="13" lengthAdjust="spacing" textLength="78" x="614" y="820.3638">&#29983;&#25104;&#20859;&#25252;&#24314;&#35758;</text></g><!--link ?????? to ???--><g id="link_&#21382;&#21490;&#35760;&#24405;&#30028;&#38754;_&#25511;&#21046;&#22120;"><path codeLine="133" d="M1011.76,473.5829 C998.054,483.1619 984.511,493.1799 972,503.2969 C954.158,517.7249 940.4669,529.7553 923.2469,546.1073 " fill="none" id="&#21382;&#21490;&#35760;&#24405;&#30028;&#38754;-to-&#25511;&#21046;&#22120;" style="stroke:#181818;stroke-width:1.0;"/><polygon fill="#181818" points="918.896,550.2389,928.1767,546.9421,922.5217,546.7959,922.6679,541.1409,918.896,550.2389" style="stroke:#181818;stroke-width:1.0;"/><text fill="#000000" font-family="sans-serif" font-size="13" lengthAdjust="spacing" textLength="190" x="973" y="516.3638">&#35831;&#27714;&#21382;&#21490;&#35760;&#24405;/&#20877;&#27425;&#20998;&#26512;/&#21024;&#38500;&#35760;&#24405;</text></g><!--link ??? to ???--><g id="link_&#25511;&#21046;&#22120;_&#25968;&#25454;&#24211;"><path codeLine="134" d="M812,777.3969 C812,804.5089 812,826.0329 812,848.2739 " fill="none" id="&#25511;&#21046;&#22120;-to-&#25968;&#25454;&#24211;" style="stroke:#181818;stroke-width:1.0;"/><polygon fill="#181818" points="812,854.2739,816,845.2739,812,849.2739,808,845.2739,812,854.2739" style="stroke:#181818;stroke-width:1.0;"/><text fill="#000000" font-family="sans-serif" font-size="13" lengthAdjust="spacing" textLength="138" x="813" y="820.3638">&#33719;&#21462;/&#26356;&#26032;/&#21024;&#38500;&#21382;&#21490;&#35760;&#24405;</text></g><!--link ??? to ????--><g id="link_&#25511;&#21046;&#22120;_&#20998;&#26512;&#26381;&#21153;"><path codeLine="135" d="M942.654,777.3969 C982.428,811.6749 1018.4249,842.695 1046.3749,866.782 " fill="none" id="&#25511;&#21046;&#22120;-to-&#20998;&#26512;&#26381;&#21153;" style="stroke:#181818;stroke-width:1.0;"/><polygon fill="#181818" points="1050.92,870.6989,1046.7136,861.7935,1047.1324,867.4348,1041.4911,867.8536,1050.92,870.6989" style="stroke:#181818;stroke-width:1.0;"/><text fill="#000000" font-family="sans-serif" font-size="13" lengthAdjust="spacing" textLength="78" x="992" y="820.3638">&#20877;&#27425;&#20998;&#26512;&#35760;&#24405;</text></g><!--link ???? to ???--><g id="link_&#20998;&#20139;&#30028;&#38754;_&#25511;&#21046;&#22120;"><path codeLine="136" d="M1326.67,242.3029 C1330.93,317.7519 1335.64,478.5709 1302,520.2969 C1261.48,570.5609 1114.1574,608.6238 989.7064,633.0828 " fill="none" id="&#20998;&#20139;&#30028;&#38754;-to-&#25511;&#21046;&#22120;" style="stroke:#181818;stroke-width:1.0;"/><polygon fill="#181818" points="983.819,634.2399,993.4214,636.4292,988.7251,633.2756,991.8787,628.5793,983.819,634.2399" style="stroke:#181818;stroke-width:1.0;"/><text fill="#000000" font-family="sans-serif" font-size="13" lengthAdjust="spacing" textLength="78" x="1331" y="404.8638">&#22788;&#29702;&#20998;&#20139;&#35831;&#27714;</text></g><!--link ??? to ???--><g id="link_&#25511;&#21046;&#22120;_&#26381;&#21153;&#31471;"><path codeLine="138" d="M983.83,735.7439 C1084.07,777.1329 1201.2442,825.5109 1284.5642,859.9149 " fill="none" id="&#25511;&#21046;&#22120;-to-&#26381;&#21153;&#31471;" style="stroke:#181818;stroke-width:1.0;"/><polygon fill="#181818" points="1290.11,862.2049,1283.3179,855.0727,1285.4885,860.2966,1280.2646,862.4672,1290.11,862.2049" style="stroke:#181818;stroke-width:1.0;"/><text fill="#000000" font-family="sans-serif" font-size="13" lengthAdjust="spacing" textLength="108" x="1185" y="820.3638">&#21019;&#24314;&#36134;&#25143;/&#25480;&#26435;&#35775;&#38382;</text></g><!--link ??? to ????--><g id="link_&#26381;&#21153;&#31471;_&#29992;&#25143;&#20449;&#24687;"><path codeLine="139" d="M1386,943.4389 C1386,969.7129 1386,997.702 1386,1022.06 " fill="none" id="&#26381;&#21153;&#31471;-to-&#29992;&#25143;&#20449;&#24687;" style="stroke:#181818;stroke-width:1.0;"/><polygon fill="#181818" points="1386,1028.06,1390,1019.06,1386,1023.06,1382,1019.06,1386,1028.06" style="stroke:#181818;stroke-width:1.0;"/><text fill="#000000" font-family="sans-serif" font-size="13" lengthAdjust="spacing" textLength="78" x="1387" y="994.3638">&#23384;&#20648;&#29992;&#25143;&#20449;&#24687;</text></g><!--SRC=[bLPVSzD647_Nfz2ZcOR92qz-w8p7QT9CeVN4XFUhVB4ro98hoM7I3ZFyYt53ucGcc98919ocu2dW98MIrYxao_XEzhVeIgS_Tv9273zOzkvlztP_kxShMxKrB9F-O-TnbzuP33zjEyS3iljPaXGDMPRiYfidyY_IxK12t-wFJbjEUttyV1_aCdo-ockgSdC1bpENkFzNZRAgWoIoVDybZNNHibWnRe7Xh65M0-DvlLQtGJQlBncPkeLD7LNnb5m35xSCipGbuofIDHzShFzOLIT6pwXMJKChUKDVKiqgibL3puYgRqpJC3FO_RvcbRDoqJPLlSmbuUmCoATsCWalsqGQUHENi6whIBDIWXDoc0ZgHtaDgNfHCJ6-SFZ3VmQnsB665NknfXceD8kHNJTnu9EflbKjsp1NOhhlqR9QHZQ-RWYnSEUi3VzxcQJ9FoZEKw5Ys4P6u8E9QkxtHKiqsAPxpyXnspdeftMRLTTiAsEof-WxeGoTaa5_rEkTvJIFJ9mhBQiApY3l4Mkuf3fot6gGpRz6lQDaMts1Vz-nhynKsFCgF8JYBM05cWVISH_pOSDvDBYY6Mp3xR3YW7p5C2oSKxmBWhp7b1p3-14irahG1gKW43wnPcFOVvFagbW1DdwekKwjZ71WGKFsajiQDVy7FpnQhqdp8zdf1gvk84rrZvxqxiFz0dHEKOowRf-B3hnFT2ldJAJRu1bR4IXC32itlLQ6re96LLZQV5ldTAIj_8npUga0Xm52q2xWd-fWoNMGtviG1GURmpestNZFmVdkedBvKiI2IE-N6UWbEwcBQlDiWwnrd3U7uJwu4DVfzDqMLz3mj4FlXWSK8Ngy2DZpIXzw-GwLongctGxPUnHuEPFvq6gkSFtA3TM2cWKs4n0TyT8-eXizqjyEZ6UnhLHYtBCB52DtIjPnCAd26bMDvIyK0QuRtTjYfOWdM8OPVOODN57oxtkoUHJO54p3hOHtI_rkORVQVnMuVFbhuHr0a7CRdfVpIvENXzj854QhGt2I6EkyDZcV1MrYo0fQRb8bvOmUIH9UVEBPobcPFlqCPpFXgDCb6-saYV3s49WmeMyIBUWu5o6U2LFnASiaiE9LKigAJ2SnCbyTqBK31f1IZaclK6ZEiAF3L_J-gYHiXZZHO49wwxIvnOJ0Eq-pntku2hBo-C_rqU5T1c4ZGX8uJiSp27du3dvB0iTnFFtz3dtnXxFwsldruNW7OleeHMeNBCoLh7yBn_iFwD-FOaXkbcHXgBrmKvo0L3wQqU49FRx70wT9OuE-xR1ZfqdpvNZdmA-nU7eqYy1DwuHiFfcckn_eaoFVI6WFqLIOB90YTwAFJnIK3veSF72s6Wp24f3YiONxmoLmr-NZmokuXDEqrQJFxuzwf-FVUbA4ydgDtmfWzkufkTVbXVy3]--></g></svg>