<?xml version="1.0" encoding="us-ascii" standalone="no"?><svg xmlns="http://www.w3.org/2000/svg" xmlns:xlink="http://www.w3.org/1999/xlink" contentStyleType="text/css" height="809px" preserveAspectRatio="none" style="width:1059px;height:809px;background:#F9F9F9;" version="1.1" viewBox="0 0 1059 809" width="1059px" zoomAndPan="magnify"><defs/><g><rect fill="#F9F9F9" height="809" style="stroke:none;stroke-width:1.0;" width="1059" x="0" y="0"/><rect fill="#FFFFFF" height="145.6641" style="stroke:#393939;stroke-width:1.0;" width="10" x="340" y="67.4297"/><rect fill="#FFFFFF" height="523.0625" style="stroke:#393939;stroke-width:1.0;" width="10" x="340" y="242.2266"/><rect fill="#FFFFFF" height="410.5313" style="stroke:#393939;stroke-width:1.0;" width="10" x="345" y="353.7578"/><rect fill="#FFFFFF" height="87.3984" style="stroke:#393939;stroke-width:1.0;" width="10" x="548" y="96.5625"/><rect fill="#FFFFFF" height="358.2656" style="stroke:#393939;stroke-width:1.0;" width="10" x="548" y="407.0234"/><rect fill="#FFFFFF" height="131.5313" style="stroke:#393939;stroke-width:1.0;" width="10" x="553" y="625.7578"/><rect fill="#FFFFFF" height="29.1328" style="stroke:#393939;stroke-width:1.0;" width="10" x="812" y="125.6953"/><rect fill="#FFFFFF" height="29.1328" style="stroke:#393939;stroke-width:1.0;" width="10" x="812" y="494.4219"/><rect fill="#FFFFFF" height="29.1328" style="stroke:#393939;stroke-width:1.0;" width="10" x="812" y="654.8906"/><rect fill="#FFFFFF" height="29.1328" style="stroke:#393939;stroke-width:1.0;" width="10" x="885" y="436.1563"/><rect fill="#FFFFFF" height="29.1328" style="stroke:#393939;stroke-width:1.0;" width="10" x="979" y="271.3594"/><rect fill="#FFFFFF" height="29.1328" style="stroke:#393939;stroke-width:1.0;" width="10" x="979" y="552.6875"/><rect fill="none" height="441.7969" rx="3.5" ry="3.5" style="stroke:#393939;stroke-width:1.0;" width="1043" x="10" y="315.4922"/><rect fill="none" height="381.5313" rx="3.5" ry="3.5" style="stroke:#393939;stroke-width:1.0;" width="1023" x="20" y="368.7578"/><line style="stroke:#393939;stroke-width:0.5;stroke-dasharray:5.0,5.0;" x1="51" x2="51" y1="36.2969" y2="774.2891"/><line style="stroke:#393939;stroke-width:0.5;stroke-dasharray:5.0,5.0;" x1="345" x2="345" y1="36.2969" y2="774.2891"/><line style="stroke:#393939;stroke-width:0.5;stroke-dasharray:5.0,5.0;" x1="553" x2="553" y1="36.2969" y2="774.2891"/><line style="stroke:#393939;stroke-width:0.5;stroke-dasharray:5.0,5.0;" x1="817" x2="817" y1="36.2969" y2="774.2891"/><line style="stroke:#393939;stroke-width:0.5;stroke-dasharray:5.0,5.0;" x1="890" x2="890" y1="36.2969" y2="774.2891"/><line style="stroke:#393939;stroke-width:0.5;stroke-dasharray:5.0,5.0;" x1="984" x2="984" y1="36.2969" y2="774.2891"/><rect fill="#E55756" height="30.2969" rx="3.5" ry="3.5" style="stroke:#191919;stroke-width:1.5;" width="42" x="30" y="5"/><text fill="#F9F9F9" font-family="sans-serif" font-size="14" lengthAdjust="spacing" textLength="28" x="37" y="24.9951">&#29992;&#25143;</text><rect fill="#E55756" height="30.2969" rx="3.5" ry="3.5" style="stroke:#191919;stroke-width:1.5;" width="42" x="30" y="773.2891"/><text fill="#F9F9F9" font-family="sans-serif" font-size="14" lengthAdjust="spacing" textLength="28" x="37" y="793.2842">&#29992;&#25143;</text><rect fill="#E55756" height="30.2969" rx="3.5" ry="3.5" style="stroke:#191919;stroke-width:1.5;" width="98" x="296" y="5"/><text fill="#F9F9F9" font-family="sans-serif" font-size="14" lengthAdjust="spacing" textLength="84" x="303" y="24.9951">&#21382;&#21490;&#35760;&#24405;&#30028;&#38754;</text><rect fill="#E55756" height="30.2969" rx="3.5" ry="3.5" style="stroke:#191919;stroke-width:1.5;" width="98" x="296" y="773.2891"/><text fill="#F9F9F9" font-family="sans-serif" font-size="14" lengthAdjust="spacing" textLength="84" x="303" y="793.2842">&#21382;&#21490;&#35760;&#24405;&#30028;&#38754;</text><rect fill="#E55756" height="30.2969" rx="3.5" ry="3.5" style="stroke:#191919;stroke-width:1.5;" width="56" x="525" y="5"/><text fill="#F9F9F9" font-family="sans-serif" font-size="14" lengthAdjust="spacing" textLength="42" x="532" y="24.9951">&#25511;&#21046;&#22120;</text><rect fill="#E55756" height="30.2969" rx="3.5" ry="3.5" style="stroke:#191919;stroke-width:1.5;" width="56" x="525" y="773.2891"/><text fill="#F9F9F9" font-family="sans-serif" font-size="14" lengthAdjust="spacing" textLength="42" x="532" y="793.2842">&#25511;&#21046;&#22120;</text><rect fill="#E55756" height="30.2969" rx="3.5" ry="3.5" style="stroke:#191919;stroke-width:1.5;" width="56" x="789" y="5"/><text fill="#F9F9F9" font-family="sans-serif" font-size="14" lengthAdjust="spacing" textLength="42" x="796" y="24.9951">&#25968;&#25454;&#24211;</text><rect fill="#E55756" height="30.2969" rx="3.5" ry="3.5" style="stroke:#191919;stroke-width:1.5;" width="56" x="789" y="773.2891"/><text fill="#F9F9F9" font-family="sans-serif" font-size="14" lengthAdjust="spacing" textLength="42" x="796" y="793.2842">&#25968;&#25454;&#24211;</text><rect fill="#E55756" height="30.2969" rx="3.5" ry="3.5" style="stroke:#191919;stroke-width:1.5;" width="70" x="855" y="5"/><text fill="#F9F9F9" font-family="sans-serif" font-size="14" lengthAdjust="spacing" textLength="56" x="862" y="24.9951">&#20998;&#26512;&#26381;&#21153;</text><rect fill="#E55756" height="30.2969" rx="3.5" ry="3.5" style="stroke:#191919;stroke-width:1.5;" width="70" x="855" y="773.2891"/><text fill="#F9F9F9" font-family="sans-serif" font-size="14" lengthAdjust="spacing" textLength="56" x="862" y="793.2842">&#20998;&#26512;&#26381;&#21153;</text><rect fill="#E55756" height="30.2969" rx="3.5" ry="3.5" style="stroke:#191919;stroke-width:1.5;" width="98" x="935" y="5"/><text fill="#F9F9F9" font-family="sans-serif" font-size="14" lengthAdjust="spacing" textLength="84" x="942" y="24.9951">&#32467;&#26524;&#23637;&#31034;&#30028;&#38754;</text><rect fill="#E55756" height="30.2969" rx="3.5" ry="3.5" style="stroke:#191919;stroke-width:1.5;" width="98" x="935" y="773.2891"/><text fill="#F9F9F9" font-family="sans-serif" font-size="14" lengthAdjust="spacing" textLength="84" x="942" y="793.2842">&#32467;&#26524;&#23637;&#31034;&#30028;&#38754;</text><rect fill="#FFFFFF" height="145.6641" style="stroke:#393939;stroke-width:1.0;" width="10" x="340" y="67.4297"/><rect fill="#FFFFFF" height="523.0625" style="stroke:#393939;stroke-width:1.0;" width="10" x="340" y="242.2266"/><rect fill="#FFFFFF" height="410.5313" style="stroke:#393939;stroke-width:1.0;" width="10" x="345" y="353.7578"/><rect fill="#FFFFFF" height="87.3984" style="stroke:#393939;stroke-width:1.0;" width="10" x="548" y="96.5625"/><rect fill="#FFFFFF" height="358.2656" style="stroke:#393939;stroke-width:1.0;" width="10" x="548" y="407.0234"/><rect fill="#FFFFFF" height="131.5313" style="stroke:#393939;stroke-width:1.0;" width="10" x="553" y="625.7578"/><rect fill="#FFFFFF" height="29.1328" style="stroke:#393939;stroke-width:1.0;" width="10" x="812" y="125.6953"/><rect fill="#FFFFFF" height="29.1328" style="stroke:#393939;stroke-width:1.0;" width="10" x="812" y="494.4219"/><rect fill="#FFFFFF" height="29.1328" style="stroke:#393939;stroke-width:1.0;" width="10" x="812" y="654.8906"/><rect fill="#FFFFFF" height="29.1328" style="stroke:#393939;stroke-width:1.0;" width="10" x="885" y="436.1563"/><rect fill="#FFFFFF" height="29.1328" style="stroke:#393939;stroke-width:1.0;" width="10" x="979" y="271.3594"/><rect fill="#FFFFFF" height="29.1328" style="stroke:#393939;stroke-width:1.0;" width="10" x="979" y="552.6875"/><polygon fill="#191919" points="328,63.4297,338,67.4297,328,71.4297,332,67.4297" style="stroke:#191919;stroke-width:1.0;"/><line style="stroke:#191919;stroke-width:1.0;" x1="51" x2="334" y1="67.4297" y2="67.4297"/><text fill="#000000" font-family="sans-serif" font-size="13" lengthAdjust="spacing" textLength="143" x="58" y="62.3638">SelectHistoryFeature()</text><polygon fill="#191919" points="536,92.5625,546,96.5625,536,100.5625,540,96.5625" style="stroke:#191919;stroke-width:1.0;"/><line style="stroke:#191919;stroke-width:1.0;" x1="350" x2="542" y1="96.5625" y2="96.5625"/><text fill="#000000" font-family="sans-serif" font-size="13" lengthAdjust="spacing" textLength="108" x="357" y="91.4966">RequestHistory()</text><polygon fill="#191919" points="800,121.6953,810,125.6953,800,129.6953,804,125.6953" style="stroke:#191919;stroke-width:1.0;"/><line style="stroke:#191919;stroke-width:1.0;" x1="558" x2="806" y1="125.6953" y2="125.6953"/><text fill="#000000" font-family="sans-serif" font-size="13" lengthAdjust="spacing" textLength="90" x="565" y="120.6294">FetchHistory()</text><polygon fill="#191919" points="569,150.8281,559,154.8281,569,158.8281,565,154.8281" style="stroke:#191919;stroke-width:1.0;"/><line style="stroke:#191919;stroke-width:1.0;" x1="563" x2="816" y1="154.8281" y2="154.8281"/><text fill="#000000" font-family="sans-serif" font-size="13" lengthAdjust="spacing" textLength="152" x="575" y="149.7622">HistoryData(historyList)</text><polygon fill="#191919" points="361,179.9609,351,183.9609,361,187.9609,357,183.9609" style="stroke:#191919;stroke-width:1.0;"/><line style="stroke:#191919;stroke-width:1.0;" x1="355" x2="552" y1="183.9609" y2="183.9609"/><text fill="#000000" font-family="sans-serif" font-size="13" lengthAdjust="spacing" textLength="156" x="367" y="178.895">ShowHistory(historyList)</text><polygon fill="#191919" points="62,209.0938,52,213.0938,62,217.0938,58,213.0938" style="stroke:#191919;stroke-width:1.0;"/><line style="stroke:#191919;stroke-width:1.0;" x1="56" x2="344" y1="213.0938" y2="213.0938"/><text fill="#000000" font-family="sans-serif" font-size="13" lengthAdjust="spacing" textLength="168" x="68" y="208.0278">DisplayHistory(historyList)</text><polygon fill="#191919" points="328,238.2266,338,242.2266,328,246.2266,332,242.2266" style="stroke:#191919;stroke-width:1.0;"/><line style="stroke:#191919;stroke-width:1.0;" x1="51" x2="334" y1="242.2266" y2="242.2266"/><text fill="#000000" font-family="sans-serif" font-size="13" lengthAdjust="spacing" textLength="146" x="58" y="237.1606">SelectRecord(recordId)</text><polygon fill="#191919" points="967,267.3594,977,271.3594,967,275.3594,971,271.3594" style="stroke:#191919;stroke-width:1.0;"/><line style="stroke:#191919;stroke-width:1.0;" x1="350" x2="973" y1="271.3594" y2="271.3594"/><text fill="#000000" font-family="sans-serif" font-size="13" lengthAdjust="spacing" textLength="186" x="357" y="266.2935">ShowRecordDetails(recordId)</text><polygon fill="#191919" points="62,296.4922,52,300.4922,62,304.4922,58,300.4922" style="stroke:#191919;stroke-width:1.0;"/><line style="stroke:#191919;stroke-width:1.0;" x1="56" x2="983" y1="300.4922" y2="300.4922"/><text fill="#000000" font-family="sans-serif" font-size="13" lengthAdjust="spacing" textLength="143" x="68" y="295.4263">DisplayDetails(details)</text><path d="M13.5,315.4922 L88,315.4922 L88,322.625 L78,332.625 L10,332.625 L10,318.9922 A3.5,3.5 0 0 1 13.5,315.4922 " fill="#EEEEEE" style="stroke:#393939;stroke-width:1.5;"/><rect fill="none" height="441.7969" rx="3.5" ry="3.5" style="stroke:#393939;stroke-width:1.0;" width="1043" x="10" y="315.4922"/><text fill="#191919" font-family="sans-serif" font-size="13" font-weight="bold" lengthAdjust="spacing" textLength="33" x="25" y="328.5591">loop</text><text fill="#393939" font-family="sans-serif" font-size="11" font-weight="bold" lengthAdjust="spacing" textLength="109" x="103" y="327.7026">[&#20877;&#27425;&#20998;&#26512;&#25110;&#21024;&#38500;&#35760;&#24405;]</text><polygon fill="#191919" points="333,349.7578,343,353.7578,333,357.7578,337,353.7578" style="stroke:#191919;stroke-width:1.0;"/><line style="stroke:#191919;stroke-width:1.0;" x1="51" x2="339" y1="353.7578" y2="353.7578"/><text fill="#000000" font-family="sans-serif" font-size="13" lengthAdjust="spacing" textLength="265" x="58" y="348.6919">ChooseAction(reanalyze/delete, recordId)</text><path d="M23.5,368.7578 L86,368.7578 L86,375.8906 L76,385.8906 L20,385.8906 L20,372.2578 A3.5,3.5 0 0 1 23.5,368.7578 " fill="#EEEEEE" style="stroke:#393939;stroke-width:1.5;"/><rect fill="none" height="381.5313" rx="3.5" ry="3.5" style="stroke:#393939;stroke-width:1.0;" width="1023" x="20" y="368.7578"/><text fill="#191919" font-family="sans-serif" font-size="13" font-weight="bold" lengthAdjust="spacing" textLength="21" x="35" y="381.8247">alt</text><text fill="#393939" font-family="sans-serif" font-size="11" font-weight="bold" lengthAdjust="spacing" textLength="54" x="101" y="380.9683">[&#20877;&#27425;&#20998;&#26512;]</text><polygon fill="#191919" points="536,403.0234,546,407.0234,536,411.0234,540,407.0234" style="stroke:#191919;stroke-width:1.0;"/><line style="stroke:#191919;stroke-width:1.0;" x1="355" x2="542" y1="407.0234" y2="407.0234"/><text fill="#000000" font-family="sans-serif" font-size="13" lengthAdjust="spacing" textLength="174" x="362" y="401.9575">ReanalyzeRecord(recordId)</text><polygon fill="#191919" points="873,432.1563,883,436.1563,873,440.1563,877,436.1563" style="stroke:#191919;stroke-width:1.0;"/><line style="stroke:#191919;stroke-width:1.0;" x1="558" x2="879" y1="436.1563" y2="436.1563"/><text fill="#000000" font-family="sans-serif" font-size="13" lengthAdjust="spacing" textLength="149" x="565" y="431.0903">AnalyzeAgain(recordId)</text><polygon fill="#191919" points="569,461.2891,559,465.2891,569,469.2891,565,465.2891" style="stroke:#191919;stroke-width:1.0;"/><line style="stroke:#191919;stroke-width:1.0;" x1="563" x2="889" y1="465.2891" y2="465.2891"/><text fill="#000000" font-family="sans-serif" font-size="13" lengthAdjust="spacing" textLength="184" x="575" y="460.2231">AnalysisResults(newResults)</text><polygon fill="#191919" points="800,490.4219,810,494.4219,800,498.4219,804,494.4219" style="stroke:#191919;stroke-width:1.0;"/><line style="stroke:#191919;stroke-width:1.0;" x1="558" x2="806" y1="494.4219" y2="494.4219"/><text fill="#000000" font-family="sans-serif" font-size="13" lengthAdjust="spacing" textLength="235" x="565" y="489.356">UpdateRecord(recordId, newResults)</text><polygon fill="#191919" points="569,519.5547,559,523.5547,569,527.5547,565,523.5547" style="stroke:#191919;stroke-width:1.0;"/><line style="stroke:#191919;stroke-width:1.0;" x1="563" x2="816" y1="523.5547" y2="523.5547"/><text fill="#000000" font-family="sans-serif" font-size="13" lengthAdjust="spacing" textLength="108" x="575" y="518.4888">UpdateSuccess()</text><polygon fill="#191919" points="967,548.6875,977,552.6875,967,556.6875,971,552.6875" style="stroke:#191919;stroke-width:1.0;"/><line style="stroke:#191919;stroke-width:1.0;" x1="558" x2="973" y1="552.6875" y2="552.6875"/><text fill="#000000" font-family="sans-serif" font-size="13" lengthAdjust="spacing" textLength="194" x="565" y="547.6216">ShowNewResults(newResults)</text><polygon fill="#191919" points="62,577.8203,52,581.8203,62,585.8203,58,581.8203" style="stroke:#191919;stroke-width:1.0;"/><line style="stroke:#191919;stroke-width:1.0;" x1="56" x2="983" y1="581.8203" y2="581.8203"/><text fill="#000000" font-family="sans-serif" font-size="13" lengthAdjust="spacing" textLength="206" x="68" y="576.7544">DisplayNewResults(newResults)</text><line style="stroke:#393939;stroke-width:1.0;stroke-dasharray:2.0,2.0;" x1="20" x2="1043" y1="590.8203" y2="590.8203"/><text fill="#393939" font-family="sans-serif" font-size="11" font-weight="bold" lengthAdjust="spacing" textLength="54" x="25" y="601.0308">[&#21024;&#38500;&#35760;&#24405;]</text><polygon fill="#191919" points="541,621.7578,551,625.7578,541,629.7578,545,625.7578" style="stroke:#191919;stroke-width:1.0;"/><line style="stroke:#191919;stroke-width:1.0;" x1="355" x2="547" y1="625.7578" y2="625.7578"/><text fill="#000000" font-family="sans-serif" font-size="13" lengthAdjust="spacing" textLength="149" x="362" y="620.6919">DeleteRecord(recordId)</text><polygon fill="#191919" points="800,650.8906,810,654.8906,800,658.8906,804,654.8906" style="stroke:#191919;stroke-width:1.0;"/><line style="stroke:#191919;stroke-width:1.0;" x1="563" x2="806" y1="654.8906" y2="654.8906"/><text fill="#000000" font-family="sans-serif" font-size="13" lengthAdjust="spacing" textLength="161" x="570" y="649.8247">RemoveRecord(recordId)</text><polygon fill="#191919" points="574,680.0234,564,684.0234,574,688.0234,570,684.0234" style="stroke:#191919;stroke-width:1.0;"/><line style="stroke:#191919;stroke-width:1.0;" x1="568" x2="816" y1="684.0234" y2="684.0234"/><text fill="#000000" font-family="sans-serif" font-size="13" lengthAdjust="spacing" textLength="115" x="580" y="678.9575">DeletionSuccess()</text><polygon fill="#191919" points="366,709.1563,356,713.1563,366,717.1563,362,713.1563" style="stroke:#191919;stroke-width:1.0;"/><line style="stroke:#191919;stroke-width:1.0;" x1="360" x2="552" y1="713.1563" y2="713.1563"/><text fill="#000000" font-family="sans-serif" font-size="13" lengthAdjust="spacing" textLength="132" x="372" y="708.0903">UpdateHistoryView()</text><polygon fill="#191919" points="62,738.2891,52,742.2891,62,746.2891,58,742.2891" style="stroke:#191919;stroke-width:1.0;"/><line style="stroke:#191919;stroke-width:1.0;" x1="56" x2="344" y1="742.2891" y2="742.2891"/><text fill="#000000" font-family="sans-serif" font-size="13" lengthAdjust="spacing" textLength="156" x="68" y="737.2231">DisplayUpdatedHistory()</text><!--SRC=[hLLFQzH05B_dKumzfT3YlGTXSIaMnCCkUXyd3nF8PkBCP9Vr0on1t2hK5Ggrs5Am1odLWqB5ZvEi_HREJf9DPf9iB9hBxEQzztk_z-StkITS604QOSQj43FX4I_4WK3BzvTf_0DXZY8EJ3Dj9OUpvEsttrVNoQ_5Sl7czkFvrihHzRYWR3ea323G8zB3pqdyFJc-L8w41e9HtpTnqyLrEhzARewKbuC5Veuv6BdZMNhwBZsP9w_Fb1iEi3_b7Xy26tl4y5x-F4fFJvAlY-N5JOKf0nxv8YTghGf4kmzq_cWF3S478XvbR_S1YuY1lMrX8hmn5c3KQ-dX4gyiKu8Du6K4l42hmbIwOLL2943H0Hc-3uAu3S7h9bbhPpDp7jMNTZld-5WUsvO33J0wWrfBN3efMBHXLUkfzKJrUW_rFHxwUDe5PNHuyw06G2XpRAQE0-SEWwgkGrva1jO7WJsVDs7gAwGXrCeiO9pir4hKSNnAGvJCvkcNitpHumz9_Eds-29JcuNaqzQ6Xowb77eIcGQIiXB6AxZloEu8s45b4IkGjkOecoyq4khbwkbQyJnbRH95VEEE54PzymnPI_XU1jvxWRrW4xPv8PGU1gJ9lvVR1seat0vWalyiirGcrvgdLSHFG_d7xCuEQihJeCmrXJQXP_33Y13Wt6xaN4VJoJOeuScQdRsHgBx8XNcpC3gmssIoie4lEr2JHlUIzfKQ_iU6LWOxW14T_mNe7OQfU4eX_zCupHiYsv3yrdtcmQG2st5LPw5E-GbIGmYSB7NpzQ_CRTVv7m00]--></g></svg>