<?xml version="1.0" encoding="us-ascii" standalone="no"?><svg xmlns="http://www.w3.org/2000/svg" xmlns:xlink="http://www.w3.org/1999/xlink" contentStyleType="text/css" height="526px" preserveAspectRatio="none" style="width:3780px;height:526px;background:#FFFFFF;" version="1.1" viewBox="0 0 3780 526" width="3780px" zoomAndPan="magnify"><defs/><g><text fill="#000000" font-family="sans-serif" font-size="14" font-weight="bold" lengthAdjust="spacing" textLength="476" x="1645" y="22.9951">Simplified Class Diagram with UI Components for Application</text><!--cluster Client Side--><g id="cluster_Client Side"><path d="M1131.5,84.0469 L1216.5,84.0469 A3.75,3.75 0 0 1 1219,86.5469 L1226,106.3438 L3729.5,106.3438 A2.5,2.5 0 0 1 3732,108.8438 L3732,278.3269 A2.5,2.5 0 0 1 3729.5,280.8269 L1131.5,280.8269 A2.5,2.5 0 0 1 1129,278.3269 L1129,86.5469 A2.5,2.5 0 0 1 1131.5,84.0469 " fill="none" style="stroke:#000000;stroke-width:1.5;"/><line style="stroke:#000000;stroke-width:1.5;" x1="1129" x2="1226" y1="106.3438" y2="106.3438"/><text fill="#000000" font-family="sans-serif" font-size="14" font-weight="bold" lengthAdjust="spacing" textLength="84" x="1133" y="99.042">Client Side</text></g><!--cluster Server Side--><g id="cluster_Server Side"><path d="M8.5,43.2969 L101.5,43.2969 A3.75,3.75 0 0 1 104,45.7969 L111,65.5938 L784.5,65.5938 A2.5,2.5 0 0 1 787,68.0938 L787,501.5169 A2.5,2.5 0 0 1 784.5,504.0169 L8.5,504.0169 A2.5,2.5 0 0 1 6,501.5169 L6,45.7969 A2.5,2.5 0 0 1 8.5,43.2969 " fill="none" style="stroke:#000000;stroke-width:1.5;"/><line style="stroke:#000000;stroke-width:1.5;" x1="6" x2="111" y1="65.5938" y2="65.5938"/><text fill="#000000" font-family="sans-serif" font-size="14" font-weight="bold" lengthAdjust="spacing" textLength="92" x="10" y="58.292">Server Side</text></g><!--cluster UI Components--><g id="cluster_UI Components"><path d="M813.5,321.5669 L934.5,321.5669 A3.75,3.75 0 0 1 937,324.0669 L944,343.8638 L3770.5,343.8638 A2.5,2.5 0 0 1 3773,346.3638 L3773,517.0669 A2.5,2.5 0 0 1 3770.5,519.5669 L813.5,519.5669 A2.5,2.5 0 0 1 811,517.0669 L811,324.0669 A2.5,2.5 0 0 1 813.5,321.5669 " fill="none" style="stroke:#000000;stroke-width:1.5;"/><line style="stroke:#000000;stroke-width:1.5;" x1="811" x2="944" y1="343.8638" y2="343.8638"/><text fill="#000000" font-family="sans-serif" font-size="14" font-weight="bold" lengthAdjust="spacing" textLength="120" x="815" y="336.562">UI Components</text></g><!--cluster MainScreen UI--><g id="cluster_MainScreen UI"><path d="M845.5,372.5669 L958.5,372.5669 A3.75,3.75 0 0 1 961,375.0669 L968,394.8638 L1230.5,394.8638 A2.5,2.5 0 0 1 1233,397.3638 L1233,485.0669 A2.5,2.5 0 0 1 1230.5,487.5669 L845.5,487.5669 A2.5,2.5 0 0 1 843,485.0669 L843,375.0669 A2.5,2.5 0 0 1 845.5,372.5669 " fill="none" style="stroke:#000000;stroke-width:1.5;"/><line style="stroke:#000000;stroke-width:1.5;" x1="843" x2="968" y1="394.8638" y2="394.8638"/><text fill="#000000" font-family="sans-serif" font-size="14" font-weight="bold" lengthAdjust="spacing" textLength="112" x="847" y="387.562">MainScreen UI</text></g><!--cluster RegistrationScreen UI--><g id="cluster_RegistrationScreen UI"><path d="M1275.5,372.5669 L1447.5,372.5669 A3.75,3.75 0 0 1 1450,375.0669 L1457,394.8638 L1615.5,394.8638 A2.5,2.5 0 0 1 1618,397.3638 L1618,485.0669 A2.5,2.5 0 0 1 1615.5,487.5669 L1275.5,487.5669 A2.5,2.5 0 0 1 1273,485.0669 L1273,375.0669 A2.5,2.5 0 0 1 1275.5,372.5669 " fill="none" style="stroke:#000000;stroke-width:1.5;"/><line style="stroke:#000000;stroke-width:1.5;" x1="1273" x2="1457" y1="394.8638" y2="394.8638"/><text fill="#000000" font-family="sans-serif" font-size="14" font-weight="bold" lengthAdjust="spacing" textLength="171" x="1277" y="387.562">RegistrationScreen UI</text></g><!--cluster LoginScreen UI--><g id="cluster_LoginScreen UI"><path d="M1660.5,372.5669 L1780.5,372.5669 A3.75,3.75 0 0 1 1783,375.0669 L1790,394.8638 L1989.5,394.8638 A2.5,2.5 0 0 1 1992,397.3638 L1992,485.0669 A2.5,2.5 0 0 1 1989.5,487.5669 L1660.5,487.5669 A2.5,2.5 0 0 1 1658,485.0669 L1658,375.0669 A2.5,2.5 0 0 1 1660.5,372.5669 " fill="none" style="stroke:#000000;stroke-width:1.5;"/><line style="stroke:#000000;stroke-width:1.5;" x1="1658" x2="1790" y1="394.8638" y2="394.8638"/><text fill="#000000" font-family="sans-serif" font-size="14" font-weight="bold" lengthAdjust="spacing" textLength="119" x="1662" y="387.562">LoginScreen UI</text></g><!--cluster UploadScreen UI--><g id="cluster_UploadScreen UI"><path d="M2034.5,372.5669 L2165.5,372.5669 A3.75,3.75 0 0 1 2168,375.0669 L2175,394.8638 L2396.5,394.8638 A2.5,2.5 0 0 1 2399,397.3638 L2399,485.0669 A2.5,2.5 0 0 1 2396.5,487.5669 L2034.5,487.5669 A2.5,2.5 0 0 1 2032,485.0669 L2032,375.0669 A2.5,2.5 0 0 1 2034.5,372.5669 " fill="none" style="stroke:#000000;stroke-width:1.5;"/><line style="stroke:#000000;stroke-width:1.5;" x1="2032" x2="2175" y1="394.8638" y2="394.8638"/><text fill="#000000" font-family="sans-serif" font-size="14" font-weight="bold" lengthAdjust="spacing" textLength="130" x="2036" y="387.562">UploadScreen UI</text></g><!--cluster ResultDisplayScreen UI--><g id="cluster_ResultDisplayScreen UI"><path d="M2441.5,372.5669 L2623.5,372.5669 A3.75,3.75 0 0 1 2626,375.0669 L2633,394.8638 L2730.5,394.8638 A2.5,2.5 0 0 1 2733,397.3638 L2733,485.0669 A2.5,2.5 0 0 1 2730.5,487.5669 L2441.5,487.5669 A2.5,2.5 0 0 1 2439,485.0669 L2439,375.0669 A2.5,2.5 0 0 1 2441.5,372.5669 " fill="none" style="stroke:#000000;stroke-width:1.5;"/><line style="stroke:#000000;stroke-width:1.5;" x1="2439" x2="2633" y1="394.8638" y2="394.8638"/><text fill="#000000" font-family="sans-serif" font-size="14" font-weight="bold" lengthAdjust="spacing" textLength="181" x="2443" y="387.562">ResultDisplayScreen UI</text></g><!--cluster AdviceDisplayScreen UI--><g id="cluster_AdviceDisplayScreen UI"><path d="M2775.5,372.5669 L2961.5,372.5669 A3.75,3.75 0 0 1 2964,375.0669 L2971,394.8638 L2971.5,394.8638 A2.5,2.5 0 0 1 2974,397.3638 L2974,485.0669 A2.5,2.5 0 0 1 2971.5,487.5669 L2775.5,487.5669 A2.5,2.5 0 0 1 2773,485.0669 L2773,375.0669 A2.5,2.5 0 0 1 2775.5,372.5669 " fill="none" style="stroke:#000000;stroke-width:1.5;"/><line style="stroke:#000000;stroke-width:1.5;" x1="2773" x2="2971" y1="394.8638" y2="394.8638"/><text fill="#000000" font-family="sans-serif" font-size="14" font-weight="bold" lengthAdjust="spacing" textLength="185" x="2777" y="387.562">AdviceDisplayScreen UI</text></g><!--cluster HistoryRecordScreen UI--><g id="cluster_HistoryRecordScreen UI"><path d="M3016.5,372.5669 L3205.5,372.5669 A3.75,3.75 0 0 1 3208,375.0669 L3215,394.8638 L3330.5,394.8638 A2.5,2.5 0 0 1 3333,397.3638 L3333,485.0669 A2.5,2.5 0 0 1 3330.5,487.5669 L3016.5,487.5669 A2.5,2.5 0 0 1 3014,485.0669 L3014,375.0669 A2.5,2.5 0 0 1 3016.5,372.5669 " fill="none" style="stroke:#000000;stroke-width:1.5;"/><line style="stroke:#000000;stroke-width:1.5;" x1="3014" x2="3215" y1="394.8638" y2="394.8638"/><text fill="#000000" font-family="sans-serif" font-size="14" font-weight="bold" lengthAdjust="spacing" textLength="188" x="3018" y="387.562">HistoryRecordScreen UI</text></g><!--cluster ShareScreen UI--><g id="cluster_ShareScreen UI"><path d="M3375.5,372.5669 L3498.5,372.5669 A3.75,3.75 0 0 1 3501,375.0669 L3508,394.8638 L3738.5,394.8638 A2.5,2.5 0 0 1 3741,397.3638 L3741,485.0669 A2.5,2.5 0 0 1 3738.5,487.5669 L3375.5,487.5669 A2.5,2.5 0 0 1 3373,485.0669 L3373,375.0669 A2.5,2.5 0 0 1 3375.5,372.5669 " fill="none" style="stroke:#000000;stroke-width:1.5;"/><line style="stroke:#000000;stroke-width:1.5;" x1="3373" x2="3508" y1="394.8638" y2="394.8638"/><text fill="#000000" font-family="sans-serif" font-size="14" font-weight="bold" lengthAdjust="spacing" textLength="122" x="3377" y="387.562">ShareScreen UI</text></g><!--class MainScreen--><g id="elem_MainScreen"><rect codeLine="6" fill="#F1F1F1" height="96.8906" id="MainScreen" rx="2.5" ry="2.5" style="stroke:#181818;stroke-width:0.5;" width="193" x="1145.5" y="143.4869"/><ellipse cx="1197.25" cy="159.4869" fill="#ADD1B2" rx="11" ry="11" style="stroke:#181818;stroke-width:1.0;"/><path d="M1200.2188,165.1275 Q1199.6406,165.4244 1199,165.565 Q1198.3594,165.7213 1197.6563,165.7213 Q1195.1563,165.7213 1193.8281,164.0806 Q1192.5156,162.4244 1192.5156,159.2994 Q1192.5156,156.1744 1193.8281,154.5181 Q1195.1563,152.8619 1197.6563,152.8619 Q1198.3594,152.8619 1199,153.0181 Q1199.6563,153.1744 1200.2188,153.4713 L1200.2188,156.19 Q1199.5938,155.6119 1199,155.3463 Q1198.4063,155.065 1197.7813,155.065 Q1196.4375,155.065 1195.75,156.1431 Q1195.0625,157.2056 1195.0625,159.2994 Q1195.0625,161.3931 1195.75,162.4713 Q1196.4375,163.5338 1197.7813,163.5338 Q1198.4063,163.5338 1199,163.2681 Q1199.5938,162.9869 1200.2188,162.4088 L1200.2188,165.1275 Z " fill="#000000"/><text fill="#000000" font-family="sans-serif" font-size="14" lengthAdjust="spacing" textLength="81" x="1217.75" y="164.3336">MainScreen</text><line style="stroke:#181818;stroke-width:0.5;" x1="1146.5" x2="1337.5" y1="175.4869" y2="175.4869"/><line style="stroke:#181818;stroke-width:0.5;" x1="1146.5" x2="1337.5" y1="183.4869" y2="183.4869"/><ellipse cx="1156.5" cy="197.1353" fill="#84BE84" rx="3" ry="3" style="stroke:#038048;stroke-width:1.0;"/><text fill="#000000" font-family="sans-serif" font-size="14" lengthAdjust="spacing" textLength="153" x="1165.5" y="200.482">selectUploadFeature()</text><ellipse cx="1156.5" cy="213.4322" fill="#84BE84" rx="3" ry="3" style="stroke:#038048;stroke-width:1.0;"/><text fill="#000000" font-family="sans-serif" font-size="14" lengthAdjust="spacing" textLength="152" x="1165.5" y="216.7789">selectHistoryFeature()</text><ellipse cx="1156.5" cy="229.7291" fill="#84BE84" rx="3" ry="3" style="stroke:#038048;stroke-width:1.0;"/><text fill="#000000" font-family="sans-serif" font-size="14" lengthAdjust="spacing" textLength="167" x="1165.5" y="233.0757">navigateToMainScreen()</text></g><!--class RegistrationScreen--><g id="elem_RegistrationScreen"><rect codeLine="11" fill="#F1F1F1" height="129.4844" id="RegistrationScreen" rx="2.5" ry="2.5" style="stroke:#181818;stroke-width:0.5;" width="472" x="1374" y="127.1869"/><ellipse cx="1539.75" cy="143.1869" fill="#ADD1B2" rx="11" ry="11" style="stroke:#181818;stroke-width:1.0;"/><path d="M1542.7188,148.8275 Q1542.1406,149.1244 1541.5,149.265 Q1540.8594,149.4213 1540.1563,149.4213 Q1537.6563,149.4213 1536.3281,147.7806 Q1535.0156,146.1244 1535.0156,142.9994 Q1535.0156,139.8744 1536.3281,138.2181 Q1537.6563,136.5619 1540.1563,136.5619 Q1540.8594,136.5619 1541.5,136.7181 Q1542.1563,136.8744 1542.7188,137.1713 L1542.7188,139.89 Q1542.0938,139.3119 1541.5,139.0463 Q1540.9063,138.765 1540.2813,138.765 Q1538.9375,138.765 1538.25,139.8431 Q1537.5625,140.9056 1537.5625,142.9994 Q1537.5625,145.0931 1538.25,146.1713 Q1538.9375,147.2338 1540.2813,147.2338 Q1540.9063,147.2338 1541.5,146.9681 Q1542.0938,146.6869 1542.7188,146.1088 L1542.7188,148.8275 Z " fill="#000000"/><text fill="#000000" font-family="sans-serif" font-size="14" lengthAdjust="spacing" textLength="132" x="1560.25" y="148.0336">RegistrationScreen</text><line style="stroke:#181818;stroke-width:0.5;" x1="1375" x2="1845" y1="159.1869" y2="159.1869"/><line style="stroke:#181818;stroke-width:0.5;" x1="1375" x2="1845" y1="167.1869" y2="167.1869"/><ellipse cx="1385" cy="180.8353" fill="#84BE84" rx="3" ry="3" style="stroke:#038048;stroke-width:1.0;"/><text fill="#000000" font-family="sans-serif" font-size="14" lengthAdjust="spacing" textLength="110" x="1394" y="184.182">showRegForm()</text><ellipse cx="1385" cy="197.1322" fill="#84BE84" rx="3" ry="3" style="stroke:#038048;stroke-width:1.0;"/><text fill="#000000" font-family="sans-serif" font-size="14" lengthAdjust="spacing" textLength="434" x="1394" y="200.4789">inputRegInfo(username: String, password: String, email: String)</text><ellipse cx="1385" cy="213.4291" fill="#84BE84" rx="3" ry="3" style="stroke:#038048;stroke-width:1.0;"/><text fill="#000000" font-family="sans-serif" font-size="14" lengthAdjust="spacing" textLength="446" x="1394" y="216.7757">submitRegInfo(username: String, password: String, email: String)</text><ellipse cx="1385" cy="229.7259" fill="#84BE84" rx="3" ry="3" style="stroke:#038048;stroke-width:1.0;"/><text fill="#000000" font-family="sans-serif" font-size="14" lengthAdjust="spacing" textLength="144" x="1394" y="233.0726">displayConfirmation()</text><ellipse cx="1385" cy="246.0228" fill="#84BE84" rx="3" ry="3" style="stroke:#038048;stroke-width:1.0;"/><text fill="#000000" font-family="sans-serif" font-size="14" lengthAdjust="spacing" textLength="201" x="1394" y="249.3695">displayError(errorMsg: String)</text></g><!--class LoginScreen--><g id="elem_LoginScreen"><rect codeLine="18" fill="#F1F1F1" height="129.4844" id="LoginScreen" rx="2.5" ry="2.5" style="stroke:#181818;stroke-width:0.5;" width="404" x="1881" y="127.1869"/><ellipse cx="2035.75" cy="143.1869" fill="#ADD1B2" rx="11" ry="11" style="stroke:#181818;stroke-width:1.0;"/><path d="M2038.7188,148.8275 Q2038.1406,149.1244 2037.5,149.265 Q2036.8594,149.4213 2036.1563,149.4213 Q2033.6563,149.4213 2032.3281,147.7806 Q2031.0156,146.1244 2031.0156,142.9994 Q2031.0156,139.8744 2032.3281,138.2181 Q2033.6563,136.5619 2036.1563,136.5619 Q2036.8594,136.5619 2037.5,136.7181 Q2038.1563,136.8744 2038.7188,137.1713 L2038.7188,139.89 Q2038.0938,139.3119 2037.5,139.0463 Q2036.9063,138.765 2036.2813,138.765 Q2034.9375,138.765 2034.25,139.8431 Q2033.5625,140.9056 2033.5625,142.9994 Q2033.5625,145.0931 2034.25,146.1713 Q2034.9375,147.2338 2036.2813,147.2338 Q2036.9063,147.2338 2037.5,146.9681 Q2038.0938,146.6869 2038.7188,146.1088 L2038.7188,148.8275 Z " fill="#000000"/><text fill="#000000" font-family="sans-serif" font-size="14" lengthAdjust="spacing" textLength="86" x="2056.25" y="148.0336">LoginScreen</text><line style="stroke:#181818;stroke-width:0.5;" x1="1882" x2="2284" y1="159.1869" y2="159.1869"/><line style="stroke:#181818;stroke-width:0.5;" x1="1882" x2="2284" y1="167.1869" y2="167.1869"/><ellipse cx="1892" cy="180.8353" fill="#84BE84" rx="3" ry="3" style="stroke:#038048;stroke-width:1.0;"/><text fill="#000000" font-family="sans-serif" font-size="14" lengthAdjust="spacing" textLength="119" x="1901" y="184.182">showLoginForm()</text><ellipse cx="1892" cy="197.1322" fill="#84BE84" rx="3" ry="3" style="stroke:#038048;stroke-width:1.0;"/><text fill="#000000" font-family="sans-serif" font-size="14" lengthAdjust="spacing" textLength="366" x="1901" y="200.4789">inputCredentials(username: String, password: String)</text><ellipse cx="1892" cy="213.4291" fill="#84BE84" rx="3" ry="3" style="stroke:#038048;stroke-width:1.0;"/><text fill="#000000" font-family="sans-serif" font-size="14" lengthAdjust="spacing" textLength="378" x="1901" y="216.7757">submitCredentials(username: String, password: String)</text><ellipse cx="1892" cy="229.7259" fill="#84BE84" rx="3" ry="3" style="stroke:#038048;stroke-width:1.0;"/><text fill="#000000" font-family="sans-serif" font-size="14" lengthAdjust="spacing" textLength="138" x="1901" y="233.0726">displayMainScreen()</text><ellipse cx="1892" cy="246.0228" fill="#84BE84" rx="3" ry="3" style="stroke:#038048;stroke-width:1.0;"/><text fill="#000000" font-family="sans-serif" font-size="14" lengthAdjust="spacing" textLength="201" x="1901" y="249.3695">displayError(errorMsg: String)</text></g><!--class UploadScreen--><g id="elem_UploadScreen"><rect codeLine="25" fill="#F1F1F1" height="113.1875" id="UploadScreen" rx="2.5" ry="2.5" style="stroke:#181818;stroke-width:0.5;" width="227" x="2320.5" y="135.3369"/><ellipse cx="2381.25" cy="151.3369" fill="#ADD1B2" rx="11" ry="11" style="stroke:#181818;stroke-width:1.0;"/><path d="M2384.2188,156.9775 Q2383.6406,157.2744 2383,157.415 Q2382.3594,157.5712 2381.6563,157.5712 Q2379.1563,157.5712 2377.8281,155.9306 Q2376.5156,154.2744 2376.5156,151.1494 Q2376.5156,148.0244 2377.8281,146.3681 Q2379.1563,144.7119 2381.6563,144.7119 Q2382.3594,144.7119 2383,144.8681 Q2383.6563,145.0244 2384.2188,145.3212 L2384.2188,148.04 Q2383.5938,147.4619 2383,147.1962 Q2382.4063,146.915 2381.7813,146.915 Q2380.4375,146.915 2379.75,147.9931 Q2379.0625,149.0556 2379.0625,151.1494 Q2379.0625,153.2431 2379.75,154.3212 Q2380.4375,155.3837 2381.7813,155.3837 Q2382.4063,155.3837 2383,155.1181 Q2383.5938,154.8369 2384.2188,154.2587 L2384.2188,156.9775 Z " fill="#000000"/><text fill="#000000" font-family="sans-serif" font-size="14" lengthAdjust="spacing" textLength="97" x="2401.75" y="156.1836">UploadScreen</text><line style="stroke:#181818;stroke-width:0.5;" x1="2321.5" x2="2546.5" y1="167.3369" y2="167.3369"/><line style="stroke:#181818;stroke-width:0.5;" x1="2321.5" x2="2546.5" y1="175.3369" y2="175.3369"/><ellipse cx="2331.5" cy="188.9853" fill="#84BE84" rx="3" ry="3" style="stroke:#038048;stroke-width:1.0;"/><text fill="#000000" font-family="sans-serif" font-size="14" lengthAdjust="spacing" textLength="130" x="2340.5" y="192.332">showUploadForm()</text><ellipse cx="2331.5" cy="205.2822" fill="#84BE84" rx="3" ry="3" style="stroke:#038048;stroke-width:1.0;"/><text fill="#000000" font-family="sans-serif" font-size="14" lengthAdjust="spacing" textLength="86" x="2340.5" y="208.6289">inputPhoto()</text><ellipse cx="2331.5" cy="221.5791" fill="#84BE84" rx="3" ry="3" style="stroke:#038048;stroke-width:1.0;"/><text fill="#000000" font-family="sans-serif" font-size="14" lengthAdjust="spacing" textLength="171" x="2340.5" y="224.9257">submitPhoto(photo: File)</text><ellipse cx="2331.5" cy="237.8759" fill="#84BE84" rx="3" ry="3" style="stroke:#038048;stroke-width:1.0;"/><text fill="#000000" font-family="sans-serif" font-size="14" lengthAdjust="spacing" textLength="201" x="2340.5" y="241.2226">displayError(errorMsg: String)</text></g><!--class ResultDisplayScreen--><g id="elem_ResultDisplayScreen"><rect codeLine="31" fill="#F1F1F1" height="80.5938" id="ResultDisplayScreen" rx="2.5" ry="2.5" style="stroke:#181818;stroke-width:0.5;" width="214" x="2583" y="151.6369"/><ellipse cx="2616" cy="167.6369" fill="#ADD1B2" rx="11" ry="11" style="stroke:#181818;stroke-width:1.0;"/><path d="M2618.9688,173.2775 Q2618.3906,173.5744 2617.75,173.715 Q2617.1094,173.8712 2616.4063,173.8712 Q2613.9063,173.8712 2612.5781,172.2306 Q2611.2656,170.5744 2611.2656,167.4494 Q2611.2656,164.3244 2612.5781,162.6681 Q2613.9063,161.0119 2616.4063,161.0119 Q2617.1094,161.0119 2617.75,161.1681 Q2618.4063,161.3244 2618.9688,161.6212 L2618.9688,164.34 Q2618.3438,163.7619 2617.75,163.4962 Q2617.1563,163.215 2616.5313,163.215 Q2615.1875,163.215 2614.5,164.2931 Q2613.8125,165.3556 2613.8125,167.4494 Q2613.8125,169.5431 2614.5,170.6212 Q2615.1875,171.6837 2616.5313,171.6837 Q2617.1563,171.6837 2617.75,171.4181 Q2618.3438,171.1369 2618.9688,170.5587 L2618.9688,173.2775 Z " fill="#000000"/><text fill="#000000" font-family="sans-serif" font-size="14" lengthAdjust="spacing" textLength="142" x="2634" y="172.4836">ResultDisplayScreen</text><line style="stroke:#181818;stroke-width:0.5;" x1="2584" x2="2796" y1="183.6369" y2="183.6369"/><line style="stroke:#181818;stroke-width:0.5;" x1="2584" x2="2796" y1="191.6369" y2="191.6369"/><ellipse cx="2594" cy="205.2853" fill="#84BE84" rx="3" ry="3" style="stroke:#038048;stroke-width:1.0;"/><text fill="#000000" font-family="sans-serif" font-size="14" lengthAdjust="spacing" textLength="178" x="2603" y="208.632">showResults(results: List)</text><ellipse cx="2594" cy="221.5822" fill="#84BE84" rx="3" ry="3" style="stroke:#038048;stroke-width:1.0;"/><text fill="#000000" font-family="sans-serif" font-size="14" lengthAdjust="spacing" textLength="188" x="2603" y="224.9289">displayResults(results: List)</text></g><!--class AdviceDisplayScreen--><g id="elem_AdviceDisplayScreen"><rect codeLine="35" fill="#F1F1F1" height="80.5938" id="AdviceDisplayScreen" rx="2.5" ry="2.5" style="stroke:#181818;stroke-width:0.5;" width="253" x="2831.5" y="151.6369"/><ellipse cx="2882.25" cy="167.6369" fill="#ADD1B2" rx="11" ry="11" style="stroke:#181818;stroke-width:1.0;"/><path d="M2885.2188,173.2775 Q2884.6406,173.5744 2884,173.715 Q2883.3594,173.8712 2882.6563,173.8712 Q2880.1563,173.8712 2878.8281,172.2306 Q2877.5156,170.5744 2877.5156,167.4494 Q2877.5156,164.3244 2878.8281,162.6681 Q2880.1563,161.0119 2882.6563,161.0119 Q2883.3594,161.0119 2884,161.1681 Q2884.6563,161.3244 2885.2188,161.6212 L2885.2188,164.34 Q2884.5938,163.7619 2884,163.4962 Q2883.4063,163.215 2882.7813,163.215 Q2881.4375,163.215 2880.75,164.2931 Q2880.0625,165.3556 2880.0625,167.4494 Q2880.0625,169.5431 2880.75,170.6212 Q2881.4375,171.6837 2882.7813,171.6837 Q2883.4063,171.6837 2884,171.4181 Q2884.5938,171.1369 2885.2188,170.5587 L2885.2188,173.2775 Z " fill="#000000"/><text fill="#000000" font-family="sans-serif" font-size="14" lengthAdjust="spacing" textLength="143" x="2902.75" y="172.4836">AdviceDisplayScreen</text><line style="stroke:#181818;stroke-width:0.5;" x1="2832.5" x2="3083.5" y1="183.6369" y2="183.6369"/><line style="stroke:#181818;stroke-width:0.5;" x1="2832.5" x2="3083.5" y1="191.6369" y2="191.6369"/><ellipse cx="2842.5" cy="205.2853" fill="#84BE84" rx="3" ry="3" style="stroke:#038048;stroke-width:1.0;"/><text fill="#000000" font-family="sans-serif" font-size="14" lengthAdjust="spacing" textLength="217" x="2851.5" y="208.632">showCareAdvice(advice: String)</text><ellipse cx="2842.5" cy="221.5822" fill="#84BE84" rx="3" ry="3" style="stroke:#038048;stroke-width:1.0;"/><text fill="#000000" font-family="sans-serif" font-size="14" lengthAdjust="spacing" textLength="227" x="2851.5" y="224.9289">displayCareAdvice(advice: String)</text></g><!--class HistoryRecordScreen--><g id="elem_HistoryRecordScreen"><rect codeLine="39" fill="#F1F1F1" height="145.7813" id="HistoryRecordScreen" rx="2.5" ry="2.5" style="stroke:#181818;stroke-width:0.5;" width="313" x="3119.5" y="119.0469"/><ellipse cx="3198.75" cy="135.0469" fill="#ADD1B2" rx="11" ry="11" style="stroke:#181818;stroke-width:1.0;"/><path d="M3201.7188,140.6875 Q3201.1406,140.9844 3200.5,141.125 Q3199.8594,141.2813 3199.1563,141.2813 Q3196.6563,141.2813 3195.3281,139.6406 Q3194.0156,137.9844 3194.0156,134.8594 Q3194.0156,131.7344 3195.3281,130.0781 Q3196.6563,128.4219 3199.1563,128.4219 Q3199.8594,128.4219 3200.5,128.5781 Q3201.1563,128.7344 3201.7188,129.0313 L3201.7188,131.75 Q3201.0938,131.1719 3200.5,130.9063 Q3199.9063,130.625 3199.2813,130.625 Q3197.9375,130.625 3197.25,131.7031 Q3196.5625,132.7656 3196.5625,134.8594 Q3196.5625,136.9531 3197.25,138.0313 Q3197.9375,139.0938 3199.2813,139.0938 Q3199.9063,139.0938 3200.5,138.8281 Q3201.0938,138.5469 3201.7188,137.9688 L3201.7188,140.6875 Z " fill="#000000"/><text fill="#000000" font-family="sans-serif" font-size="14" lengthAdjust="spacing" textLength="146" x="3219.25" y="139.8936">HistoryRecordScreen</text><line style="stroke:#181818;stroke-width:0.5;" x1="3120.5" x2="3431.5" y1="151.0469" y2="151.0469"/><line style="stroke:#181818;stroke-width:0.5;" x1="3120.5" x2="3431.5" y1="159.0469" y2="159.0469"/><ellipse cx="3130.5" cy="172.6953" fill="#84BE84" rx="3" ry="3" style="stroke:#038048;stroke-width:1.0;"/><text fill="#000000" font-family="sans-serif" font-size="14" lengthAdjust="spacing" textLength="152" x="3139.5" y="176.042">selectHistoryFeature()</text><ellipse cx="3130.5" cy="188.9922" fill="#84BE84" rx="3" ry="3" style="stroke:#038048;stroke-width:1.0;"/><text fill="#000000" font-family="sans-serif" font-size="14" lengthAdjust="spacing" textLength="205" x="3139.5" y="192.3389">displayHistory(historyList: List)</text><ellipse cx="3130.5" cy="205.2891" fill="#84BE84" rx="3" ry="3" style="stroke:#038048;stroke-width:1.0;"/><text fill="#000000" font-family="sans-serif" font-size="14" lengthAdjust="spacing" textLength="185" x="3139.5" y="208.6357">selectRecord(recordId: Int)</text><ellipse cx="3130.5" cy="221.5859" fill="#84BE84" rx="3" ry="3" style="stroke:#038048;stroke-width:1.0;"/><text fill="#000000" font-family="sans-serif" font-size="14" lengthAdjust="spacing" textLength="227" x="3139.5" y="224.9326">showRecordDetails(recordId: Int)</text><ellipse cx="3130.5" cy="237.8828" fill="#84BE84" rx="3" ry="3" style="stroke:#038048;stroke-width:1.0;"/><text fill="#000000" font-family="sans-serif" font-size="14" lengthAdjust="spacing" textLength="287" x="3139.5" y="241.2295">chooseAction(action: String, recordId: Int)</text><ellipse cx="3130.5" cy="254.1797" fill="#84BE84" rx="3" ry="3" style="stroke:#038048;stroke-width:1.0;"/><text fill="#000000" font-family="sans-serif" font-size="14" lengthAdjust="spacing" textLength="163" x="3139.5" y="257.5264">displayUpdatedHistory()</text></g><!--class ShareScreen--><g id="elem_ShareScreen"><rect codeLine="47" fill="#F1F1F1" height="80.5938" id="ShareScreen" rx="2.5" ry="2.5" style="stroke:#181818;stroke-width:0.5;" width="249" x="3467.5" y="151.6369"/><ellipse cx="3543.25" cy="167.6369" fill="#ADD1B2" rx="11" ry="11" style="stroke:#181818;stroke-width:1.0;"/><path d="M3546.2188,173.2775 Q3545.6406,173.5744 3545,173.715 Q3544.3594,173.8712 3543.6563,173.8712 Q3541.1563,173.8712 3539.8281,172.2306 Q3538.5156,170.5744 3538.5156,167.4494 Q3538.5156,164.3244 3539.8281,162.6681 Q3541.1563,161.0119 3543.6563,161.0119 Q3544.3594,161.0119 3545,161.1681 Q3545.6563,161.3244 3546.2188,161.6212 L3546.2188,164.34 Q3545.5938,163.7619 3545,163.4962 Q3544.4063,163.215 3543.7813,163.215 Q3542.4375,163.215 3541.75,164.2931 Q3541.0625,165.3556 3541.0625,167.4494 Q3541.0625,169.5431 3541.75,170.6212 Q3542.4375,171.6837 3543.7813,171.6837 Q3544.4063,171.6837 3545,171.4181 Q3545.5938,171.1369 3546.2188,170.5587 L3546.2188,173.2775 Z " fill="#000000"/><text fill="#000000" font-family="sans-serif" font-size="14" lengthAdjust="spacing" textLength="89" x="3563.75" y="172.4836">ShareScreen</text><line style="stroke:#181818;stroke-width:0.5;" x1="3468.5" x2="3715.5" y1="183.6369" y2="183.6369"/><line style="stroke:#181818;stroke-width:0.5;" x1="3468.5" x2="3715.5" y1="191.6369" y2="191.6369"/><ellipse cx="3478.5" cy="205.2853" fill="#84BE84" rx="3" ry="3" style="stroke:#038048;stroke-width:1.0;"/><text fill="#000000" font-family="sans-serif" font-size="14" lengthAdjust="spacing" textLength="141" x="3487.5" y="208.632">showShareOptions()</text><ellipse cx="3478.5" cy="221.5822" fill="#84BE84" rx="3" ry="3" style="stroke:#038048;stroke-width:1.0;"/><text fill="#000000" font-family="sans-serif" font-size="14" lengthAdjust="spacing" textLength="223" x="3487.5" y="224.9289">choosePlatform(platform: String)</text></g><!--class Controller--><g id="elem_Controller"><rect codeLine="54" fill="#F1F1F1" height="227.2656" id="Controller" rx="2.5" ry="2.5" style="stroke:#181818;stroke-width:0.5;" width="477" x="22.5" y="78.2969"/><ellipse cx="223.25" cy="94.2969" fill="#ADD1B2" rx="11" ry="11" style="stroke:#181818;stroke-width:1.0;"/><path d="M226.2188,99.9375 Q225.6406,100.2344 225,100.375 Q224.3594,100.5313 223.6563,100.5313 Q221.1563,100.5313 219.8281,98.8906 Q218.5156,97.2344 218.5156,94.1094 Q218.5156,90.9844 219.8281,89.3281 Q221.1563,87.6719 223.6563,87.6719 Q224.3594,87.6719 225,87.8281 Q225.6563,87.9844 226.2188,88.2813 L226.2188,91 Q225.5938,90.4219 225,90.1563 Q224.4063,89.875 223.7813,89.875 Q222.4375,89.875 221.75,90.9531 Q221.0625,92.0156 221.0625,94.1094 Q221.0625,96.2031 221.75,97.2813 Q222.4375,98.3438 223.7813,98.3438 Q224.4063,98.3438 225,98.0781 Q225.5938,97.7969 226.2188,97.2188 L226.2188,99.9375 Z " fill="#000000"/><text fill="#000000" font-family="sans-serif" font-size="14" lengthAdjust="spacing" textLength="67" x="243.75" y="99.1436">Controller</text><line style="stroke:#181818;stroke-width:0.5;" x1="23.5" x2="498.5" y1="110.2969" y2="110.2969"/><line style="stroke:#181818;stroke-width:0.5;" x1="23.5" x2="498.5" y1="118.2969" y2="118.2969"/><ellipse cx="33.5" cy="131.9453" fill="#84BE84" rx="3" ry="3" style="stroke:#038048;stroke-width:1.0;"/><text fill="#000000" font-family="sans-serif" font-size="14" lengthAdjust="spacing" textLength="451" x="42.5" y="135.292">validateRegInfo(username: String, password: String, email: String)</text><ellipse cx="33.5" cy="148.2422" fill="#84BE84" rx="3" ry="3" style="stroke:#038048;stroke-width:1.0;"/><text fill="#000000" font-family="sans-serif" font-size="14" lengthAdjust="spacing" textLength="447" x="42.5" y="151.5889">createAccount(username: String, password: String, email: String)</text><ellipse cx="33.5" cy="164.5391" fill="#84BE84" rx="3" ry="3" style="stroke:#038048;stroke-width:1.0;"/><text fill="#000000" font-family="sans-serif" font-size="14" lengthAdjust="spacing" textLength="383" x="42.5" y="167.8857">validateCredentials(username: String, password: String)</text><ellipse cx="33.5" cy="180.8359" fill="#84BE84" rx="3" ry="3" style="stroke:#038048;stroke-width:1.0;"/><text fill="#000000" font-family="sans-serif" font-size="14" lengthAdjust="spacing" textLength="215" x="42.5" y="184.1826">grantAccess(username: String)</text><ellipse cx="33.5" cy="197.1328" fill="#84BE84" rx="3" ry="3" style="stroke:#038048;stroke-width:1.0;"/><text fill="#000000" font-family="sans-serif" font-size="14" lengthAdjust="spacing" textLength="248" x="42.5" y="200.4795">checkPhotoRestrictions(photo: File)</text><ellipse cx="33.5" cy="213.4297" fill="#84BE84" rx="3" ry="3" style="stroke:#038048;stroke-width:1.0;"/><text fill="#000000" font-family="sans-serif" font-size="14" lengthAdjust="spacing" textLength="210" x="42.5" y="216.7764">analyzeAndPredict(photo: File)</text><ellipse cx="33.5" cy="229.7266" fill="#84BE84" rx="3" ry="3" style="stroke:#038048;stroke-width:1.0;"/><text fill="#000000" font-family="sans-serif" font-size="14" lengthAdjust="spacing" textLength="301" x="42.5" y="233.0732">requestCareAdvice(results: List, photo: File)</text><ellipse cx="33.5" cy="246.0234" fill="#84BE84" rx="3" ry="3" style="stroke:#038048;stroke-width:1.0;"/><text fill="#000000" font-family="sans-serif" font-size="14" lengthAdjust="spacing" textLength="310" x="42.5" y="249.3701">generateCareAdvice(results: List, photo: File)</text><ellipse cx="33.5" cy="262.3203" fill="#84BE84" rx="3" ry="3" style="stroke:#038048;stroke-width:1.0;"/><text fill="#000000" font-family="sans-serif" font-size="14" lengthAdjust="spacing" textLength="111" x="42.5" y="265.667">requestHistory()</text><ellipse cx="33.5" cy="278.6172" fill="#84BE84" rx="3" ry="3" style="stroke:#038048;stroke-width:1.0;"/><text fill="#000000" font-family="sans-serif" font-size="14" lengthAdjust="spacing" textLength="209" x="42.5" y="281.9639">reanalyzeRecord(recordId: Int)</text><ellipse cx="33.5" cy="294.9141" fill="#84BE84" rx="3" ry="3" style="stroke:#038048;stroke-width:1.0;"/><text fill="#000000" font-family="sans-serif" font-size="14" lengthAdjust="spacing" textLength="187" x="42.5" y="298.2607">deleteRecord(recordId: Int)</text></g><!--class KaggleModel--><g id="elem_KaggleModel"><rect codeLine="67" fill="#F1F1F1" height="64.2969" id="KaggleModel" rx="2.5" ry="2.5" style="stroke:#181818;stroke-width:0.5;" width="236" x="535" y="159.7869"/><ellipse cx="604.25" cy="175.7869" fill="#ADD1B2" rx="11" ry="11" style="stroke:#181818;stroke-width:1.0;"/><path d="M607.2188,181.4275 Q606.6406,181.7244 606,181.865 Q605.3594,182.0213 604.6563,182.0213 Q602.1563,182.0213 600.8281,180.3806 Q599.5156,178.7244 599.5156,175.5994 Q599.5156,172.4744 600.8281,170.8181 Q602.1563,169.1619 604.6563,169.1619 Q605.3594,169.1619 606,169.3181 Q606.6563,169.4744 607.2188,169.7713 L607.2188,172.49 Q606.5938,171.9119 606,171.6463 Q605.4063,171.365 604.7813,171.365 Q603.4375,171.365 602.75,172.4431 Q602.0625,173.5056 602.0625,175.5994 Q602.0625,177.6931 602.75,178.7713 Q603.4375,179.8338 604.7813,179.8338 Q605.4063,179.8338 606,179.5681 Q606.5938,179.2869 607.2188,178.7088 L607.2188,181.4275 Z " fill="#000000"/><text fill="#000000" font-family="sans-serif" font-size="14" lengthAdjust="spacing" textLength="89" x="624.75" y="180.6336">KaggleModel</text><line style="stroke:#181818;stroke-width:0.5;" x1="536" x2="770" y1="191.7869" y2="191.7869"/><line style="stroke:#181818;stroke-width:0.5;" x1="536" x2="770" y1="199.7869" y2="199.7869"/><ellipse cx="546" cy="213.4353" fill="#84BE84" rx="3" ry="3" style="stroke:#038048;stroke-width:1.0;"/><text fill="#000000" font-family="sans-serif" font-size="14" lengthAdjust="spacing" textLength="210" x="555" y="216.782">analyzeAndPredict(photo: File)</text></g><!--class Database--><g id="elem_Database"><rect codeLine="70" fill="#F1F1F1" height="96.8906" id="Database" rx="2.5" ry="2.5" style="stroke:#181818;stroke-width:0.5;" width="339" x="91.5" y="391.1169"/><ellipse cx="223.75" cy="407.1169" fill="#ADD1B2" rx="11" ry="11" style="stroke:#181818;stroke-width:1.0;"/><path d="M226.7188,412.7575 Q226.1406,413.0544 225.5,413.195 Q224.8594,413.3513 224.1563,413.3513 Q221.6563,413.3513 220.3281,411.7106 Q219.0156,410.0544 219.0156,406.9294 Q219.0156,403.8044 220.3281,402.1481 Q221.6563,400.4919 224.1563,400.4919 Q224.8594,400.4919 225.5,400.6481 Q226.1563,400.8044 226.7188,401.1013 L226.7188,403.82 Q226.0938,403.2419 225.5,402.9763 Q224.9063,402.695 224.2813,402.695 Q222.9375,402.695 222.25,403.7731 Q221.5625,404.8356 221.5625,406.9294 Q221.5625,409.0231 222.25,410.1013 Q222.9375,411.1638 224.2813,411.1638 Q224.9063,411.1638 225.5,410.8981 Q226.0938,410.6169 226.7188,410.0388 L226.7188,412.7575 Z " fill="#000000"/><text fill="#000000" font-family="sans-serif" font-size="14" lengthAdjust="spacing" textLength="66" x="244.25" y="411.9636">Database</text><line style="stroke:#181818;stroke-width:0.5;" x1="92.5" x2="429.5" y1="423.1169" y2="423.1169"/><line style="stroke:#181818;stroke-width:0.5;" x1="92.5" x2="429.5" y1="431.1169" y2="431.1169"/><ellipse cx="102.5" cy="444.7653" fill="#84BE84" rx="3" ry="3" style="stroke:#038048;stroke-width:1.0;"/><text fill="#000000" font-family="sans-serif" font-size="14" lengthAdjust="spacing" textLength="92" x="111.5" y="448.112">fetchHistory()</text><ellipse cx="102.5" cy="461.0622" fill="#84BE84" rx="3" ry="3" style="stroke:#038048;stroke-width:1.0;"/><text fill="#000000" font-family="sans-serif" font-size="14" lengthAdjust="spacing" textLength="313" x="111.5" y="464.4089">updateRecord(recordId: Int, newResults: List)</text><ellipse cx="102.5" cy="477.3591" fill="#84BE84" rx="3" ry="3" style="stroke:#038048;stroke-width:1.0;"/><text fill="#000000" font-family="sans-serif" font-size="14" lengthAdjust="spacing" textLength="195" x="111.5" y="480.7057">removeRecord(recordId: Int)</text></g><!--class Navigation Buttons--><g id="elem_Navigation Buttons"><rect codeLine="80" fill="#F1F1F1" height="48" id="Navigation Buttons" rx="2.5" ry="2.5" style="stroke:#181818;stroke-width:0.5;" width="162" x="867" y="415.5669"/><ellipse cx="882" cy="431.5669" fill="#ADD1B2" rx="11" ry="11" style="stroke:#181818;stroke-width:1.0;"/><path d="M884.9688,437.2075 Q884.3906,437.5044 883.75,437.645 Q883.1094,437.8013 882.4063,437.8013 Q879.9063,437.8013 878.5781,436.1606 Q877.2656,434.5044 877.2656,431.3794 Q877.2656,428.2544 878.5781,426.5981 Q879.9063,424.9419 882.4063,424.9419 Q883.1094,424.9419 883.75,425.0981 Q884.4063,425.2544 884.9688,425.5513 L884.9688,428.27 Q884.3438,427.6919 883.75,427.4263 Q883.1563,427.145 882.5313,427.145 Q881.1875,427.145 880.5,428.2231 Q879.8125,429.2856 879.8125,431.3794 Q879.8125,433.4731 880.5,434.5513 Q881.1875,435.6138 882.5313,435.6138 Q883.1563,435.6138 883.75,435.3481 Q884.3438,435.0669 884.9688,434.4888 L884.9688,437.2075 Z " fill="#000000"/><text fill="#000000" font-family="sans-serif" font-size="14" lengthAdjust="spacing" textLength="130" x="896" y="436.4136">Navigation Buttons</text><line style="stroke:#181818;stroke-width:0.5;" x1="868" x2="1028" y1="447.5669" y2="447.5669"/><line style="stroke:#181818;stroke-width:0.5;" x1="868" x2="1028" y1="455.5669" y2="455.5669"/></g><!--class Feature Icons--><g id="elem_Feature Icons"><rect codeLine="82" fill="#F1F1F1" height="48" id="Feature Icons" rx="2.5" ry="2.5" style="stroke:#181818;stroke-width:0.5;" width="126" x="1064" y="415.5669"/><ellipse cx="1079" cy="431.5669" fill="#ADD1B2" rx="11" ry="11" style="stroke:#181818;stroke-width:1.0;"/><path d="M1081.9688,437.2075 Q1081.3906,437.5044 1080.75,437.645 Q1080.1094,437.8013 1079.4063,437.8013 Q1076.9063,437.8013 1075.5781,436.1606 Q1074.2656,434.5044 1074.2656,431.3794 Q1074.2656,428.2544 1075.5781,426.5981 Q1076.9063,424.9419 1079.4063,424.9419 Q1080.1094,424.9419 1080.75,425.0981 Q1081.4063,425.2544 1081.9688,425.5513 L1081.9688,428.27 Q1081.3438,427.6919 1080.75,427.4263 Q1080.1563,427.145 1079.5313,427.145 Q1078.1875,427.145 1077.5,428.2231 Q1076.8125,429.2856 1076.8125,431.3794 Q1076.8125,433.4731 1077.5,434.5513 Q1078.1875,435.6138 1079.5313,435.6138 Q1080.1563,435.6138 1080.75,435.3481 Q1081.3438,435.0669 1081.9688,434.4888 L1081.9688,437.2075 Z " fill="#000000"/><text fill="#000000" font-family="sans-serif" font-size="14" lengthAdjust="spacing" textLength="94" x="1093" y="436.4136">Feature Icons</text><line style="stroke:#181818;stroke-width:0.5;" x1="1065" x2="1189" y1="447.5669" y2="447.5669"/><line style="stroke:#181818;stroke-width:0.5;" x1="1065" x2="1189" y1="455.5669" y2="455.5669"/></g><!--class Input Fields--><g id="elem_Input Fields"><rect codeLine="87" fill="#F1F1F1" height="48" id="Input Fields" rx="2.5" ry="2.5" style="stroke:#181818;stroke-width:0.5;" width="111" x="1297.5" y="415.5669"/><ellipse cx="1312.5" cy="431.5669" fill="#ADD1B2" rx="11" ry="11" style="stroke:#181818;stroke-width:1.0;"/><path d="M1315.4688,437.2075 Q1314.8906,437.5044 1314.25,437.645 Q1313.6094,437.8013 1312.9063,437.8013 Q1310.4063,437.8013 1309.0781,436.1606 Q1307.7656,434.5044 1307.7656,431.3794 Q1307.7656,428.2544 1309.0781,426.5981 Q1310.4063,424.9419 1312.9063,424.9419 Q1313.6094,424.9419 1314.25,425.0981 Q1314.9063,425.2544 1315.4688,425.5513 L1315.4688,428.27 Q1314.8438,427.6919 1314.25,427.4263 Q1313.6563,427.145 1313.0313,427.145 Q1311.6875,427.145 1311,428.2231 Q1310.3125,429.2856 1310.3125,431.3794 Q1310.3125,433.4731 1311,434.5513 Q1311.6875,435.6138 1313.0313,435.6138 Q1313.6563,435.6138 1314.25,435.3481 Q1314.8438,435.0669 1315.4688,434.4888 L1315.4688,437.2075 Z " fill="#000000"/><text fill="#000000" font-family="sans-serif" font-size="14" lengthAdjust="spacing" textLength="79" x="1326.5" y="436.4136">Input Fields</text><line style="stroke:#181818;stroke-width:0.5;" x1="1298.5" x2="1407.5" y1="447.5669" y2="447.5669"/><line style="stroke:#181818;stroke-width:0.5;" x1="1298.5" x2="1407.5" y1="455.5669" y2="455.5669"/></g><!--class Submit Button--><g id="elem_Submit Button"><rect codeLine="89" fill="#F1F1F1" height="48" id="Submit Button" rx="2.5" ry="2.5" style="stroke:#181818;stroke-width:0.5;" width="131" x="1443.5" y="415.5669"/><ellipse cx="1458.5" cy="431.5669" fill="#ADD1B2" rx="11" ry="11" style="stroke:#181818;stroke-width:1.0;"/><path d="M1461.4688,437.2075 Q1460.8906,437.5044 1460.25,437.645 Q1459.6094,437.8013 1458.9063,437.8013 Q1456.4063,437.8013 1455.0781,436.1606 Q1453.7656,434.5044 1453.7656,431.3794 Q1453.7656,428.2544 1455.0781,426.5981 Q1456.4063,424.9419 1458.9063,424.9419 Q1459.6094,424.9419 1460.25,425.0981 Q1460.9063,425.2544 1461.4688,425.5513 L1461.4688,428.27 Q1460.8438,427.6919 1460.25,427.4263 Q1459.6563,427.145 1459.0313,427.145 Q1457.6875,427.145 1457,428.2231 Q1456.3125,429.2856 1456.3125,431.3794 Q1456.3125,433.4731 1457,434.5513 Q1457.6875,435.6138 1459.0313,435.6138 Q1459.6563,435.6138 1460.25,435.3481 Q1460.8438,435.0669 1461.4688,434.4888 L1461.4688,437.2075 Z " fill="#000000"/><text fill="#000000" font-family="sans-serif" font-size="14" lengthAdjust="spacing" textLength="99" x="1472.5" y="436.4136">Submit Button</text><line style="stroke:#181818;stroke-width:0.5;" x1="1444.5" x2="1573.5" y1="447.5669" y2="447.5669"/><line style="stroke:#181818;stroke-width:0.5;" x1="1444.5" x2="1573.5" y1="455.5669" y2="455.5669"/></g><!--class Input Fields--><g id="elem_Input Fields"><rect codeLine="94" fill="#F1F1F1" height="48" id="Input Fields" rx="2.5" ry="2.5" style="stroke:#181818;stroke-width:0.5;" width="111" x="1682.5" y="415.5669"/><ellipse cx="1697.5" cy="431.5669" fill="#ADD1B2" rx="11" ry="11" style="stroke:#181818;stroke-width:1.0;"/><path d="M1700.4688,437.2075 Q1699.8906,437.5044 1699.25,437.645 Q1698.6094,437.8013 1697.9063,437.8013 Q1695.4063,437.8013 1694.0781,436.1606 Q1692.7656,434.5044 1692.7656,431.3794 Q1692.7656,428.2544 1694.0781,426.5981 Q1695.4063,424.9419 1697.9063,424.9419 Q1698.6094,424.9419 1699.25,425.0981 Q1699.9063,425.2544 1700.4688,425.5513 L1700.4688,428.27 Q1699.8438,427.6919 1699.25,427.4263 Q1698.6563,427.145 1698.0313,427.145 Q1696.6875,427.145 1696,428.2231 Q1695.3125,429.2856 1695.3125,431.3794 Q1695.3125,433.4731 1696,434.5513 Q1696.6875,435.6138 1698.0313,435.6138 Q1698.6563,435.6138 1699.25,435.3481 Q1699.8438,435.0669 1700.4688,434.4888 L1700.4688,437.2075 Z " fill="#000000"/><text fill="#000000" font-family="sans-serif" font-size="14" lengthAdjust="spacing" textLength="79" x="1711.5" y="436.4136">Input Fields</text><line style="stroke:#181818;stroke-width:0.5;" x1="1683.5" x2="1792.5" y1="447.5669" y2="447.5669"/><line style="stroke:#181818;stroke-width:0.5;" x1="1683.5" x2="1792.5" y1="455.5669" y2="455.5669"/></g><!--class Login Button--><g id="elem_Login Button"><rect codeLine="96" fill="#F1F1F1" height="48" id="Login Button" rx="2.5" ry="2.5" style="stroke:#181818;stroke-width:0.5;" width="120" x="1829" y="415.5669"/><ellipse cx="1844" cy="431.5669" fill="#ADD1B2" rx="11" ry="11" style="stroke:#181818;stroke-width:1.0;"/><path d="M1846.9688,437.2075 Q1846.3906,437.5044 1845.75,437.645 Q1845.1094,437.8013 1844.4063,437.8013 Q1841.9063,437.8013 1840.5781,436.1606 Q1839.2656,434.5044 1839.2656,431.3794 Q1839.2656,428.2544 1840.5781,426.5981 Q1841.9063,424.9419 1844.4063,424.9419 Q1845.1094,424.9419 1845.75,425.0981 Q1846.4063,425.2544 1846.9688,425.5513 L1846.9688,428.27 Q1846.3438,427.6919 1845.75,427.4263 Q1845.1563,427.145 1844.5313,427.145 Q1843.1875,427.145 1842.5,428.2231 Q1841.8125,429.2856 1841.8125,431.3794 Q1841.8125,433.4731 1842.5,434.5513 Q1843.1875,435.6138 1844.5313,435.6138 Q1845.1563,435.6138 1845.75,435.3481 Q1846.3438,435.0669 1846.9688,434.4888 L1846.9688,437.2075 Z " fill="#000000"/><text fill="#000000" font-family="sans-serif" font-size="14" lengthAdjust="spacing" textLength="88" x="1858" y="436.4136">Login Button</text><line style="stroke:#181818;stroke-width:0.5;" x1="1830" x2="1948" y1="447.5669" y2="447.5669"/><line style="stroke:#181818;stroke-width:0.5;" x1="1830" x2="1948" y1="455.5669" y2="455.5669"/></g><!--class Photo Selector--><g id="elem_Photo Selector"><rect codeLine="101" fill="#F1F1F1" height="48" id="Photo Selector" rx="2.5" ry="2.5" style="stroke:#181818;stroke-width:0.5;" width="134" x="2056" y="415.5669"/><ellipse cx="2071" cy="431.5669" fill="#ADD1B2" rx="11" ry="11" style="stroke:#181818;stroke-width:1.0;"/><path d="M2073.9688,437.2075 Q2073.3906,437.5044 2072.75,437.645 Q2072.1094,437.8013 2071.4063,437.8013 Q2068.9063,437.8013 2067.5781,436.1606 Q2066.2656,434.5044 2066.2656,431.3794 Q2066.2656,428.2544 2067.5781,426.5981 Q2068.9063,424.9419 2071.4063,424.9419 Q2072.1094,424.9419 2072.75,425.0981 Q2073.4063,425.2544 2073.9688,425.5513 L2073.9688,428.27 Q2073.3438,427.6919 2072.75,427.4263 Q2072.1563,427.145 2071.5313,427.145 Q2070.1875,427.145 2069.5,428.2231 Q2068.8125,429.2856 2068.8125,431.3794 Q2068.8125,433.4731 2069.5,434.5513 Q2070.1875,435.6138 2071.5313,435.6138 Q2072.1563,435.6138 2072.75,435.3481 Q2073.3438,435.0669 2073.9688,434.4888 L2073.9688,437.2075 Z " fill="#000000"/><text fill="#000000" font-family="sans-serif" font-size="14" lengthAdjust="spacing" textLength="102" x="2085" y="436.4136">Photo Selector</text><line style="stroke:#181818;stroke-width:0.5;" x1="2057" x2="2189" y1="447.5669" y2="447.5669"/><line style="stroke:#181818;stroke-width:0.5;" x1="2057" x2="2189" y1="455.5669" y2="455.5669"/></g><!--class Upload Button--><g id="elem_Upload Button"><rect codeLine="103" fill="#F1F1F1" height="48" id="Upload Button" rx="2.5" ry="2.5" style="stroke:#181818;stroke-width:0.5;" width="131" x="2224.5" y="415.5669"/><ellipse cx="2239.5" cy="431.5669" fill="#ADD1B2" rx="11" ry="11" style="stroke:#181818;stroke-width:1.0;"/><path d="M2242.4688,437.2075 Q2241.8906,437.5044 2241.25,437.645 Q2240.6094,437.8013 2239.9063,437.8013 Q2237.4063,437.8013 2236.0781,436.1606 Q2234.7656,434.5044 2234.7656,431.3794 Q2234.7656,428.2544 2236.0781,426.5981 Q2237.4063,424.9419 2239.9063,424.9419 Q2240.6094,424.9419 2241.25,425.0981 Q2241.9063,425.2544 2242.4688,425.5513 L2242.4688,428.27 Q2241.8438,427.6919 2241.25,427.4263 Q2240.6563,427.145 2240.0313,427.145 Q2238.6875,427.145 2238,428.2231 Q2237.3125,429.2856 2237.3125,431.3794 Q2237.3125,433.4731 2238,434.5513 Q2238.6875,435.6138 2240.0313,435.6138 Q2240.6563,435.6138 2241.25,435.3481 Q2241.8438,435.0669 2242.4688,434.4888 L2242.4688,437.2075 Z " fill="#000000"/><text fill="#000000" font-family="sans-serif" font-size="14" lengthAdjust="spacing" textLength="99" x="2253.5" y="436.4136">Upload Button</text><line style="stroke:#181818;stroke-width:0.5;" x1="2225.5" x2="2354.5" y1="447.5669" y2="447.5669"/><line style="stroke:#181818;stroke-width:0.5;" x1="2225.5" x2="2354.5" y1="455.5669" y2="455.5669"/></g><!--class Result Text--><g id="elem_Result Text"><rect codeLine="108" fill="#F1F1F1" height="48" id="Result Text" rx="2.5" ry="2.5" style="stroke:#181818;stroke-width:0.5;" width="110" x="2463" y="415.5669"/><ellipse cx="2478" cy="431.5669" fill="#ADD1B2" rx="11" ry="11" style="stroke:#181818;stroke-width:1.0;"/><path d="M2480.9688,437.2075 Q2480.3906,437.5044 2479.75,437.645 Q2479.1094,437.8013 2478.4063,437.8013 Q2475.9063,437.8013 2474.5781,436.1606 Q2473.2656,434.5044 2473.2656,431.3794 Q2473.2656,428.2544 2474.5781,426.5981 Q2475.9063,424.9419 2478.4063,424.9419 Q2479.1094,424.9419 2479.75,425.0981 Q2480.4063,425.2544 2480.9688,425.5513 L2480.9688,428.27 Q2480.3438,427.6919 2479.75,427.4263 Q2479.1563,427.145 2478.5313,427.145 Q2477.1875,427.145 2476.5,428.2231 Q2475.8125,429.2856 2475.8125,431.3794 Q2475.8125,433.4731 2476.5,434.5513 Q2477.1875,435.6138 2478.5313,435.6138 Q2479.1563,435.6138 2479.75,435.3481 Q2480.3438,435.0669 2480.9688,434.4888 L2480.9688,437.2075 Z " fill="#000000"/><text fill="#000000" font-family="sans-serif" font-size="14" lengthAdjust="spacing" textLength="78" x="2492" y="436.4136">Result Text</text><line style="stroke:#181818;stroke-width:0.5;" x1="2464" x2="2572" y1="447.5669" y2="447.5669"/><line style="stroke:#181818;stroke-width:0.5;" x1="2464" x2="2572" y1="455.5669" y2="455.5669"/></g><!--class Graphs--><g id="elem_Graphs"><rect codeLine="110" fill="#F1F1F1" height="48" id="Graphs" rx="2.5" ry="2.5" style="stroke:#181818;stroke-width:0.5;" width="82" x="2608" y="415.5669"/><ellipse cx="2623" cy="431.5669" fill="#ADD1B2" rx="11" ry="11" style="stroke:#181818;stroke-width:1.0;"/><path d="M2625.9688,437.2075 Q2625.3906,437.5044 2624.75,437.645 Q2624.1094,437.8013 2623.4063,437.8013 Q2620.9063,437.8013 2619.5781,436.1606 Q2618.2656,434.5044 2618.2656,431.3794 Q2618.2656,428.2544 2619.5781,426.5981 Q2620.9063,424.9419 2623.4063,424.9419 Q2624.1094,424.9419 2624.75,425.0981 Q2625.4063,425.2544 2625.9688,425.5513 L2625.9688,428.27 Q2625.3438,427.6919 2624.75,427.4263 Q2624.1563,427.145 2623.5313,427.145 Q2622.1875,427.145 2621.5,428.2231 Q2620.8125,429.2856 2620.8125,431.3794 Q2620.8125,433.4731 2621.5,434.5513 Q2622.1875,435.6138 2623.5313,435.6138 Q2624.1563,435.6138 2624.75,435.3481 Q2625.3438,435.0669 2625.9688,434.4888 L2625.9688,437.2075 Z " fill="#000000"/><text fill="#000000" font-family="sans-serif" font-size="14" lengthAdjust="spacing" textLength="50" x="2637" y="436.4136">Graphs</text><line style="stroke:#181818;stroke-width:0.5;" x1="2609" x2="2689" y1="447.5669" y2="447.5669"/><line style="stroke:#181818;stroke-width:0.5;" x1="2609" x2="2689" y1="455.5669" y2="455.5669"/></g><!--class Advice Text--><g id="elem_Advice Text"><rect codeLine="115" fill="#F1F1F1" height="48" id="Advice Text" rx="2.5" ry="2.5" style="stroke:#181818;stroke-width:0.5;" width="111" x="2804.5" y="415.5669"/><ellipse cx="2819.5" cy="431.5669" fill="#ADD1B2" rx="11" ry="11" style="stroke:#181818;stroke-width:1.0;"/><path d="M2822.4688,437.2075 Q2821.8906,437.5044 2821.25,437.645 Q2820.6094,437.8013 2819.9063,437.8013 Q2817.4063,437.8013 2816.0781,436.1606 Q2814.7656,434.5044 2814.7656,431.3794 Q2814.7656,428.2544 2816.0781,426.5981 Q2817.4063,424.9419 2819.9063,424.9419 Q2820.6094,424.9419 2821.25,425.0981 Q2821.9063,425.2544 2822.4688,425.5513 L2822.4688,428.27 Q2821.8438,427.6919 2821.25,427.4263 Q2820.6563,427.145 2820.0313,427.145 Q2818.6875,427.145 2818,428.2231 Q2817.3125,429.2856 2817.3125,431.3794 Q2817.3125,433.4731 2818,434.5513 Q2818.6875,435.6138 2820.0313,435.6138 Q2820.6563,435.6138 2821.25,435.3481 Q2821.8438,435.0669 2822.4688,434.4888 L2822.4688,437.2075 Z " fill="#000000"/><text fill="#000000" font-family="sans-serif" font-size="14" lengthAdjust="spacing" textLength="79" x="2833.5" y="436.4136">Advice Text</text><line style="stroke:#181818;stroke-width:0.5;" x1="2805.5" x2="2914.5" y1="447.5669" y2="447.5669"/><line style="stroke:#181818;stroke-width:0.5;" x1="2805.5" x2="2914.5" y1="455.5669" y2="455.5669"/></g><!--class Record List--><g id="elem_Record List"><rect codeLine="120" fill="#F1F1F1" height="48" id="Record List" rx="2.5" ry="2.5" style="stroke:#181818;stroke-width:0.5;" width="109" x="3038.5" y="415.5669"/><ellipse cx="3053.5" cy="431.5669" fill="#ADD1B2" rx="11" ry="11" style="stroke:#181818;stroke-width:1.0;"/><path d="M3056.4688,437.2075 Q3055.8906,437.5044 3055.25,437.645 Q3054.6094,437.8013 3053.9063,437.8013 Q3051.4063,437.8013 3050.0781,436.1606 Q3048.7656,434.5044 3048.7656,431.3794 Q3048.7656,428.2544 3050.0781,426.5981 Q3051.4063,424.9419 3053.9063,424.9419 Q3054.6094,424.9419 3055.25,425.0981 Q3055.9063,425.2544 3056.4688,425.5513 L3056.4688,428.27 Q3055.8438,427.6919 3055.25,427.4263 Q3054.6563,427.145 3054.0313,427.145 Q3052.6875,427.145 3052,428.2231 Q3051.3125,429.2856 3051.3125,431.3794 Q3051.3125,433.4731 3052,434.5513 Q3052.6875,435.6138 3054.0313,435.6138 Q3054.6563,435.6138 3055.25,435.3481 Q3055.8438,435.0669 3056.4688,434.4888 L3056.4688,437.2075 Z " fill="#000000"/><text fill="#000000" font-family="sans-serif" font-size="14" lengthAdjust="spacing" textLength="77" x="3067.5" y="436.4136">Record List</text><line style="stroke:#181818;stroke-width:0.5;" x1="3039.5" x2="3146.5" y1="447.5669" y2="447.5669"/><line style="stroke:#181818;stroke-width:0.5;" x1="3039.5" x2="3146.5" y1="455.5669" y2="455.5669"/></g><!--class Detail View--><g id="elem_Detail View"><rect codeLine="122" fill="#F1F1F1" height="48" id="Detail View" rx="2.5" ry="2.5" style="stroke:#181818;stroke-width:0.5;" width="107" x="3182.5" y="415.5669"/><ellipse cx="3197.5" cy="431.5669" fill="#ADD1B2" rx="11" ry="11" style="stroke:#181818;stroke-width:1.0;"/><path d="M3200.4688,437.2075 Q3199.8906,437.5044 3199.25,437.645 Q3198.6094,437.8013 3197.9063,437.8013 Q3195.4063,437.8013 3194.0781,436.1606 Q3192.7656,434.5044 3192.7656,431.3794 Q3192.7656,428.2544 3194.0781,426.5981 Q3195.4063,424.9419 3197.9063,424.9419 Q3198.6094,424.9419 3199.25,425.0981 Q3199.9063,425.2544 3200.4688,425.5513 L3200.4688,428.27 Q3199.8438,427.6919 3199.25,427.4263 Q3198.6563,427.145 3198.0313,427.145 Q3196.6875,427.145 3196,428.2231 Q3195.3125,429.2856 3195.3125,431.3794 Q3195.3125,433.4731 3196,434.5513 Q3196.6875,435.6138 3198.0313,435.6138 Q3198.6563,435.6138 3199.25,435.3481 Q3199.8438,435.0669 3200.4688,434.4888 L3200.4688,437.2075 Z " fill="#000000"/><text fill="#000000" font-family="sans-serif" font-size="14" lengthAdjust="spacing" textLength="75" x="3211.5" y="436.4136">Detail View</text><line style="stroke:#181818;stroke-width:0.5;" x1="3183.5" x2="3288.5" y1="447.5669" y2="447.5669"/><line style="stroke:#181818;stroke-width:0.5;" x1="3183.5" x2="3288.5" y1="455.5669" y2="455.5669"/></g><!--class Share Options--><g id="elem_Share Options"><rect codeLine="127" fill="#F1F1F1" height="48" id="Share Options" rx="2.5" ry="2.5" style="stroke:#181818;stroke-width:0.5;" width="130" x="3397" y="415.5669"/><ellipse cx="3412" cy="431.5669" fill="#ADD1B2" rx="11" ry="11" style="stroke:#181818;stroke-width:1.0;"/><path d="M3414.9688,437.2075 Q3414.3906,437.5044 3413.75,437.645 Q3413.1094,437.8013 3412.4063,437.8013 Q3409.9063,437.8013 3408.5781,436.1606 Q3407.2656,434.5044 3407.2656,431.3794 Q3407.2656,428.2544 3408.5781,426.5981 Q3409.9063,424.9419 3412.4063,424.9419 Q3413.1094,424.9419 3413.75,425.0981 Q3414.4063,425.2544 3414.9688,425.5513 L3414.9688,428.27 Q3414.3438,427.6919 3413.75,427.4263 Q3413.1563,427.145 3412.5313,427.145 Q3411.1875,427.145 3410.5,428.2231 Q3409.8125,429.2856 3409.8125,431.3794 Q3409.8125,433.4731 3410.5,434.5513 Q3411.1875,435.6138 3412.5313,435.6138 Q3413.1563,435.6138 3413.75,435.3481 Q3414.3438,435.0669 3414.9688,434.4888 L3414.9688,437.2075 Z " fill="#000000"/><text fill="#000000" font-family="sans-serif" font-size="14" lengthAdjust="spacing" textLength="98" x="3426" y="436.4136">Share Options</text><line style="stroke:#181818;stroke-width:0.5;" x1="3398" x2="3526" y1="447.5669" y2="447.5669"/><line style="stroke:#181818;stroke-width:0.5;" x1="3398" x2="3526" y1="455.5669" y2="455.5669"/></g><!--class Confirm Button--><g id="elem_Confirm Button"><rect codeLine="129" fill="#F1F1F1" height="48" id="Confirm Button" rx="2.5" ry="2.5" style="stroke:#181818;stroke-width:0.5;" width="136" x="3562" y="415.5669"/><ellipse cx="3577" cy="431.5669" fill="#ADD1B2" rx="11" ry="11" style="stroke:#181818;stroke-width:1.0;"/><path d="M3579.9688,437.2075 Q3579.3906,437.5044 3578.75,437.645 Q3578.1094,437.8013 3577.4063,437.8013 Q3574.9063,437.8013 3573.5781,436.1606 Q3572.2656,434.5044 3572.2656,431.3794 Q3572.2656,428.2544 3573.5781,426.5981 Q3574.9063,424.9419 3577.4063,424.9419 Q3578.1094,424.9419 3578.75,425.0981 Q3579.4063,425.2544 3579.9688,425.5513 L3579.9688,428.27 Q3579.3438,427.6919 3578.75,427.4263 Q3578.1563,427.145 3577.5313,427.145 Q3576.1875,427.145 3575.5,428.2231 Q3574.8125,429.2856 3574.8125,431.3794 Q3574.8125,433.4731 3575.5,434.5513 Q3576.1875,435.6138 3577.5313,435.6138 Q3578.1563,435.6138 3578.75,435.3481 Q3579.3438,435.0669 3579.9688,434.4888 L3579.9688,437.2075 Z " fill="#000000"/><text fill="#000000" font-family="sans-serif" font-size="14" lengthAdjust="spacing" textLength="104" x="3591" y="436.4136">Confirm Button</text><line style="stroke:#181818;stroke-width:0.5;" x1="3563" x2="3697" y1="447.5669" y2="447.5669"/><line style="stroke:#181818;stroke-width:0.5;" x1="3563" x2="3697" y1="455.5669" y2="455.5669"/></g><!--link MainScreen to MainScreen UI--><g id="link_MainScreen_MainScreen UI"><path codeLine="135" d="M1238.68,240.8769 C1236.245,276.0619 1232.8925,324.5019 1230.1163,364.6256 C1229.9427,367.1334 1230.1856,363.6229 1230.017,366.0604 " fill="none" id="MainScreen-to-MainScreen UI" style="stroke:#181818;stroke-width:1.0;"/><polygon fill="#181818" points="1229.6028,372.0461,1234.2145,363.3437,1229.9479,367.058,1226.2336,362.7915,1229.6028,372.0461" style="stroke:#181818;stroke-width:1.0;"/></g><!--link RegistrationScreen to RegistrationScreen UI--><g id="link_RegistrationScreen_RegistrationScreen UI"><path codeLine="136" d="M1610,257.1469 C1610,275.0594 1610,295.1425 1610,315.2431 C1610,325.2934 1610,335.3481 1610,345.138 C1610,350.033 1610,354.8618 1610,359.5907 C1610,361.9552 1610,364.2947 1610,366.605 C1610,367.7602 1610,368.9081 1610,370.0482 C1610,370.6182 1610,365.1863 1610,365.7523 " fill="none" id="RegistrationScreen-to-RegistrationScreen UI" style="stroke:#181818;stroke-width:1.0;"/><polygon fill="#181818" points="1610,371.7523,1614,362.7523,1610,366.7523,1606,362.7523,1610,371.7523" style="stroke:#181818;stroke-width:1.0;"/></g><!--link LoginScreen to LoginScreen UI--><g id="link_LoginScreen_LoginScreen UI"><path codeLine="137" d="M2057.12,257.1469 C2042.68,292.9719 2024.74,337.4794 2010.2437,373.4444 C2006.6197,382.4356 2003.2109,390.893 2000.1258,398.5473 C1998.5832,402.3744 1997.1216,406.0008 1995.7545,409.3928 C1995.0709,411.0888 1994.411,412.7262 1993.7764,414.3007 C1993.459,415.088 1993.1481,415.8596 1992.8436,416.615 C1992.6914,416.9927 1992.5408,417.3663 1992.3919,417.7358 C1992.3174,417.9206 1994.4863,412.5393 1994.4127,412.7219 " fill="none" id="LoginScreen-to-LoginScreen UI" style="stroke:#181818;stroke-width:1.0;"/><polygon fill="#181818" points="1992.1698,418.287,1999.2441,411.4347,1994.0388,413.6494,1991.8241,408.4442,1992.1698,418.287" style="stroke:#181818;stroke-width:1.0;"/></g><!--link UploadScreen to UploadScreen UI--><g id="link_UploadScreen_UploadScreen UI"><path codeLine="138" d="M2424.19,248.9769 C2417.945,284.6619 2409.8075,331.1469 2403.1525,369.1556 C2402.3206,373.9067 2401.5119,378.5254 2400.733,382.9739 C2400.3435,385.1982 2399.9614,387.38 2399.5877,389.5145 C2399.4008,390.5818 2400.2509,385.7272 2400.0682,386.7702 " fill="none" id="UploadScreen-to-UploadScreen UI" style="stroke:#181818;stroke-width:1.0;"/><polygon fill="#181818" points="2399.0333,392.6803,2404.5257,384.5051,2399.8957,387.7552,2396.6456,383.1252,2399.0333,392.6803" style="stroke:#181818;stroke-width:1.0;"/></g><!--link ResultDisplayScreen to ResultDisplayScreen UI--><g id="link_ResultDisplayScreen_ResultDisplayScreen UI"><path codeLine="139" d="M2695.66,232.6769 C2700.535,266.8919 2707.72,317.3019 2713.76,359.6769 C2714.1375,362.3253 2714.5105,364.9424 2714.8782,367.5221 C2715.0621,368.812 2715.2446,370.0925 2715.4257,371.363 C2715.471,371.6806 2714.6695,366.0577 2714.7146,366.374 " fill="none" id="ResultDisplayScreen-to-ResultDisplayScreen UI" style="stroke:#181818;stroke-width:1.0;"/><polygon fill="#181818" points="2715.5613,372.314,2718.2512,362.8396,2714.8557,367.364,2710.3313,363.9685,2715.5613,372.314" style="stroke:#181818;stroke-width:1.0;"/></g><!--link AdviceDisplayScreen to AdviceDisplayScreen UI--><g id="link_AdviceDisplayScreen_AdviceDisplayScreen UI"><path codeLine="140" d="M2958,232.6769 C2958,266.8919 2958,317.3019 2958,359.6769 C2958,362.3253 2958,364.9424 2958,367.5221 C2958,368.812 2958,370.0925 2958,371.363 C2958,371.6806 2958,365.9976 2958,366.314 " fill="none" id="AdviceDisplayScreen-to-AdviceDisplayScreen UI" style="stroke:#181818;stroke-width:1.0;"/><polygon fill="#181818" points="2958,372.314,2962,363.314,2958,367.314,2954,363.314,2958,372.314" style="stroke:#181818;stroke-width:1.0;"/></g><!--link HistoryRecordScreen to HistoryRecordScreen UI--><g id="link_HistoryRecordScreen_HistoryRecordScreen UI"><path codeLine="141" d="M3294.32,265.1369 C3298.08,281.0369 3301.85,297.8269 3305,313.5669 C3307.715,327.1444 3310.305,341.6094 3312.667,355.7028 C3313.2575,359.2262 3313.8338,362.7263 3314.3942,366.1835 C3314.6744,367.9122 3314.9506,369.6301 3315.2227,371.3348 C3315.2567,371.5479 3314.3468,365.8355 3314.3807,366.0481 " fill="none" id="HistoryRecordScreen-to-HistoryRecordScreen UI" style="stroke:#181818;stroke-width:1.0;"/><polygon fill="#181818" points="3315.3245,371.9734,3317.8589,362.4562,3314.538,367.0357,3309.9585,363.7147,3315.3245,371.9734" style="stroke:#181818;stroke-width:1.0;"/></g><!--link ShareScreen to ShareScreen UI--><g id="link_ShareScreen_ShareScreen UI"><path codeLine="142" d="M3645.92,232.7269 C3670.66,253.9269 3697.98,282.1169 3714,313.5669 C3720.275,325.8894 3724.6125,339.7169 3727.5859,353.5625 C3728.3293,357.0239 3728.9874,360.4864 3729.5692,363.9269 C3729.8601,365.6471 3730.132,367.3618 3730.3858,369.0681 C3730.5128,369.9212 3730.6352,370.7722 3730.7533,371.6208 C3730.7828,371.8329 3729.9987,366.1003 3730.0277,366.3121 " fill="none" id="ShareScreen-to-ShareScreen UI" style="stroke:#181818;stroke-width:1.0;"/><polygon fill="#181818" points="3730.8411,372.2567,3733.584,362.7975,3730.1632,367.3029,3725.6579,363.8821,3730.8411,372.2567" style="stroke:#181818;stroke-width:1.0;"/></g><!--SRC=[hLTHSzem37xFh_3rfTcj_GDzs1s3TUFMRhqozkuc8l7LiJFRWNMx_lV9ZW67E2cZvJWCaQnFalL9nZ33WInOLNEsOf2JAQTQancZXQ8LsJ1JakMSJ6LLIm72QBAIYangLC-eOL8avsHQKb40CIKGJfzaOqZE56HMIep4TssN1scCh9BEhxrYajGqUwHevcpA6GAXJpcSaRy9mLVcdBgbJ2mo1I3yO_jwhu6ZYMND9SslWPf6GVhkKFo5QIFLKqGkw9eLrC0FkJVlvSy1zZqKQ4Ava2C-b7A36jTILQ5j9kh6uFEvMCcqqQ04hU2AB8nYehWWDHhUI9Nldq156T_-38De7Yhs9fPofciyfAaKAwOg5qxQ5tzIIgeKxEUjBhfcmgpSo88DfCE9eWcPAiZnW1db-eXGUbauURkFhNVCfmJUbbiySb-AiT3lIcbasWkfVLpRpojopJYSxjWzw8QRMRjfg52jYavLkrwH6wpiFkA8MWWuoTSiWr70ALNGggNKBIDrEQuQ0djAtqE6nptK5ePvxm6zGbgsgusnbv3ML0k4wR3B70jiBZfABhDMDWE3tDE3cbaffOQ9QtifTSk-VeSsUNUNTOwzAjzwtS_AeiGCne_1YRxN5a-dFN_kE3KhMxEr_tAO-UUWHIz0hK55MZJs5QCavoWCqDUKC-ltMpGm30qjJR9CDiAyojBMgvCR2av8OT0JqFsDdVn2zkWeZfH2OTQUG9pkL53-z0Sc8hz3jr1tG4_1hmQj1Npfy1JzZcuhG82oCV_dFW_NhJilyIw_m8ySIMH6bC8Y_agBWiEjn3rX6HsHcz3AZ1hwG3M49bPWiZ8IHLEtzTdtxe88sBRCNcTGKCdrQ538cdFiaRczH6NxInJUW81c9T6EgNjYTQvQMshjfC45Q3a_2-9g0pxxrjvbxBthOuFtAw53fUT3TTyLoJoBQgBh7VJ85IZgnTnEEZmJuFau_i8DF-_go_ZXPUDrmCxIqRYTMHy5TkGc2pScf1g5ReqTZHqRvr4NMaNo0twRKVpFYjRb4OST6-jHu5Pn0FZGQcnc3uHZDHpTHiDfPotvoM3pCdeu6wEeJe7u4JcAw-_F8-VeY7_3n6EV-VX7YIcSzBgs_ttMuBk0JW9-N-Po8ou_778-YP1mfnedQ1BoPgTxGAQaK-GxhSFIJsBr6E17YpM9rT9kqq2X9R5IsMqQgACaFE6Tyi6n_mC0]--></g></svg>