<?xml version="1.0" encoding="us-ascii" standalone="no"?><svg xmlns="http://www.w3.org/2000/svg" xmlns:xlink="http://www.w3.org/1999/xlink" contentStyleType="text/css" height="2066px" preserveAspectRatio="none" style="width:2647px;height:2066px;background:#FFFFFF;" version="1.1" viewBox="0 0 2647 2066" width="2647px" zoomAndPan="magnify"><defs/><g><text fill="#000000" font-family="sans-serif" font-size="14" font-weight="bold" lengthAdjust="spacing" textLength="476" x="1078.5" y="22.9951">Simplified Class Diagram with UI Components for Application</text><!--cluster Client Side--><g id="cluster_Client Side"><path d="M659.5,471.2969 L744.5,471.2969 A3.75,3.75 0 0 1 747,473.7969 L754,493.5938 L2330.5,493.5938 A2.5,2.5 0 0 1 2333,496.0938 L2333,1142.7969 A2.5,2.5 0 0 1 2330.5,1145.2969 L659.5,1145.2969 A2.5,2.5 0 0 1 657,1142.7969 L657,473.7969 A2.5,2.5 0 0 1 659.5,471.2969 " fill="none" style="stroke:#000000;stroke-width:1.5;"/><line style="stroke:#000000;stroke-width:1.5;" x1="657" x2="754" y1="493.5938" y2="493.5938"/><text fill="#000000" font-family="sans-serif" font-size="14" font-weight="bold" lengthAdjust="spacing" textLength="84" x="661" y="486.292">Client Side</text></g><!--cluster Server Side--><g id="cluster_Server Side"><path d="M8.5,57.2969 L101.5,57.2969 A3.75,3.75 0 0 1 104,59.7969 L111,79.5938 L952.5,79.5938 A2.5,2.5 0 0 1 955,82.0938 L955,333.7969 A2.5,2.5 0 0 1 952.5,336.2969 L8.5,336.2969 A2.5,2.5 0 0 1 6,333.7969 L6,59.7969 A2.5,2.5 0 0 1 8.5,57.2969 " fill="none" style="stroke:#000000;stroke-width:1.5;"/><line style="stroke:#000000;stroke-width:1.5;" x1="6" x2="111" y1="79.5938" y2="79.5938"/><text fill="#000000" font-family="sans-serif" font-size="14" font-weight="bold" lengthAdjust="spacing" textLength="92" x="10" y="72.292">Server Side</text></g><!--cluster UI Components--><g id="cluster_UI Components"><path d="M2368.5,43.2969 L2489.5,43.2969 A3.75,3.75 0 0 1 2492,45.7969 L2499,65.5938 L2637.5,65.5938 A2.5,2.5 0 0 1 2640,68.0938 L2640,2056.7969 A2.5,2.5 0 0 1 2637.5,2059.2969 L2368.5,2059.2969 A2.5,2.5 0 0 1 2366,2056.7969 L2366,45.7969 A2.5,2.5 0 0 1 2368.5,43.2969 " fill="none" style="stroke:#000000;stroke-width:1.5;"/><line style="stroke:#000000;stroke-width:1.5;" x1="2366" x2="2499" y1="65.5938" y2="65.5938"/><text fill="#000000" font-family="sans-serif" font-size="14" font-weight="bold" lengthAdjust="spacing" textLength="120" x="2370" y="58.292">UI Components</text></g><!--cluster MainScreen UI--><g id="cluster_MainScreen UI"><path d="M2400.5,1810.2969 L2513.5,1810.2969 A3.75,3.75 0 0 1 2516,1812.7969 L2523,1832.5938 L2605.5,1832.5938 A2.5,2.5 0 0 1 2608,1835.0938 L2608,2024.7969 A2.5,2.5 0 0 1 2605.5,2027.2969 L2400.5,2027.2969 A2.5,2.5 0 0 1 2398,2024.7969 L2398,1812.7969 A2.5,2.5 0 0 1 2400.5,1810.2969 " fill="none" style="stroke:#000000;stroke-width:1.5;"/><line style="stroke:#000000;stroke-width:1.5;" x1="2398" x2="2523" y1="1832.5938" y2="1832.5938"/><text fill="#000000" font-family="sans-serif" font-size="14" font-weight="bold" lengthAdjust="spacing" textLength="112" x="2402" y="1825.292">MainScreen UI</text></g><!--cluster RegistrationScreen UI--><g id="cluster_RegistrationScreen UI"><path d="M2412,782.2969 L2584,782.2969 A3.75,3.75 0 0 1 2586.5,784.7969 L2593.5,804.5938 L2594,804.5938 A2.5,2.5 0 0 1 2596.5,807.0938 L2596.5,996.7969 A2.5,2.5 0 0 1 2594,999.2969 L2412,999.2969 A2.5,2.5 0 0 1 2409.5,996.7969 L2409.5,784.7969 A2.5,2.5 0 0 1 2412,782.2969 " fill="none" style="stroke:#000000;stroke-width:1.5;"/><line style="stroke:#000000;stroke-width:1.5;" x1="2409.5" x2="2593.5" y1="804.5938" y2="804.5938"/><text fill="#000000" font-family="sans-serif" font-size="14" font-weight="bold" lengthAdjust="spacing" textLength="171" x="2413.5" y="797.292">RegistrationScreen UI</text></g><!--cluster LoginScreen UI--><g id="cluster_LoginScreen UI"><path d="M2421.5,1039.2969 L2541.5,1039.2969 A3.75,3.75 0 0 1 2544,1041.7969 L2551,1061.5938 L2584.5,1061.5938 A2.5,2.5 0 0 1 2587,1064.0938 L2587,1253.7969 A2.5,2.5 0 0 1 2584.5,1256.2969 L2421.5,1256.2969 A2.5,2.5 0 0 1 2419,1253.7969 L2419,1041.7969 A2.5,2.5 0 0 1 2421.5,1039.2969 " fill="none" style="stroke:#000000;stroke-width:1.5;"/><line style="stroke:#000000;stroke-width:1.5;" x1="2419" x2="2551" y1="1061.5938" y2="1061.5938"/><text fill="#000000" font-family="sans-serif" font-size="14" font-weight="bold" lengthAdjust="spacing" textLength="119" x="2423" y="1054.292">LoginScreen UI</text></g><!--cluster UploadScreen UI--><g id="cluster_UploadScreen UI"><path d="M2414.5,1296.2969 L2545.5,1296.2969 A3.75,3.75 0 0 1 2548,1298.7969 L2555,1318.5938 L2591.5,1318.5938 A2.5,2.5 0 0 1 2594,1321.0938 L2594,1510.7969 A2.5,2.5 0 0 1 2591.5,1513.2969 L2414.5,1513.2969 A2.5,2.5 0 0 1 2412,1510.7969 L2412,1298.7969 A2.5,2.5 0 0 1 2414.5,1296.2969 " fill="none" style="stroke:#000000;stroke-width:1.5;"/><line style="stroke:#000000;stroke-width:1.5;" x1="2412" x2="2555" y1="1318.5938" y2="1318.5938"/><text fill="#000000" font-family="sans-serif" font-size="14" font-weight="bold" lengthAdjust="spacing" textLength="130" x="2416" y="1311.292">UploadScreen UI</text></g><!--cluster ResultDisplayScreen UI--><g id="cluster_ResultDisplayScreen UI"><path d="M2407.5,525.2969 L2589.5,525.2969 A3.75,3.75 0 0 1 2592,527.7969 L2599,547.5938 L2598.5,547.5938 A2.5,2.5 0 0 1 2601,550.0938 L2601,739.7969 A2.5,2.5 0 0 1 2598.5,742.2969 L2407.5,742.2969 A2.5,2.5 0 0 1 2405,739.7969 L2405,527.7969 A2.5,2.5 0 0 1 2407.5,525.2969 " fill="none" style="stroke:#000000;stroke-width:1.5;"/><line style="stroke:#000000;stroke-width:1.5;" x1="2405" x2="2599" y1="547.5938" y2="547.5938"/><text fill="#000000" font-family="sans-serif" font-size="14" font-weight="bold" lengthAdjust="spacing" textLength="181" x="2409" y="540.292">ResultDisplayScreen UI</text></g><!--cluster AdviceDisplayScreen UI--><g id="cluster_AdviceDisplayScreen UI"><path d="M2406,94.2969 L2592,94.2969 A3.75,3.75 0 0 1 2594.5,96.7969 L2601.5,116.5938 L2601,116.5938 A2.5,2.5 0 0 1 2603.5,119.0938 L2603.5,225.7969 A2.5,2.5 0 0 1 2601,228.2969 L2406,228.2969 A2.5,2.5 0 0 1 2403.5,225.7969 L2403.5,96.7969 A2.5,2.5 0 0 1 2406,94.2969 " fill="none" style="stroke:#000000;stroke-width:1.5;"/><line style="stroke:#000000;stroke-width:1.5;" x1="2403.5" x2="2601.5" y1="116.5938" y2="116.5938"/><text fill="#000000" font-family="sans-serif" font-size="14" font-weight="bold" lengthAdjust="spacing" textLength="185" x="2407.5" y="109.292">AdviceDisplayScreen UI</text></g><!--cluster HistoryRecordScreen UI--><g id="cluster_HistoryRecordScreen UI"><path d="M2404,1553.2969 L2593,1553.2969 A3.75,3.75 0 0 1 2595.5,1555.7969 L2602.5,1575.5938 L2602,1575.5938 A2.5,2.5 0 0 1 2604.5,1578.0938 L2604.5,1767.7969 A2.5,2.5 0 0 1 2602,1770.2969 L2404,1770.2969 A2.5,2.5 0 0 1 2401.5,1767.7969 L2401.5,1555.7969 A2.5,2.5 0 0 1 2404,1553.2969 " fill="none" style="stroke:#000000;stroke-width:1.5;"/><line style="stroke:#000000;stroke-width:1.5;" x1="2401.5" x2="2602.5" y1="1575.5938" y2="1575.5938"/><text fill="#000000" font-family="sans-serif" font-size="14" font-weight="bold" lengthAdjust="spacing" textLength="188" x="2405.5" y="1568.292">HistoryRecordScreen UI</text></g><!--cluster ShareScreen UI--><g id="cluster_ShareScreen UI"><path d="M2413.5,268.2969 L2536.5,268.2969 A3.75,3.75 0 0 1 2539,270.7969 L2546,290.5938 L2592.5,290.5938 A2.5,2.5 0 0 1 2595,293.0938 L2595,482.7969 A2.5,2.5 0 0 1 2592.5,485.2969 L2413.5,485.2969 A2.5,2.5 0 0 1 2411,482.7969 L2411,270.7969 A2.5,2.5 0 0 1 2413.5,268.2969 " fill="none" style="stroke:#000000;stroke-width:1.5;"/><line style="stroke:#000000;stroke-width:1.5;" x1="2411" x2="2546" y1="290.5938" y2="290.5938"/><text fill="#000000" font-family="sans-serif" font-size="14" font-weight="bold" lengthAdjust="spacing" textLength="122" x="2415" y="283.292">ShareScreen UI</text></g><!--class MainScreen--><g id="elem_MainScreen"><rect codeLine="6" fill="#F1F1F1" height="96.8906" id="MainScreen" rx="2.5" ry="2.5" style="stroke:#181818;stroke-width:0.5;" width="193" x="673" y="834.8469"/><ellipse cx="724.75" cy="850.8469" fill="#ADD1B2" rx="11" ry="11" style="stroke:#181818;stroke-width:1.0;"/><path d="M727.7188,856.4875 Q727.1406,856.7844 726.5,856.925 Q725.8594,857.0813 725.1563,857.0813 Q722.6563,857.0813 721.3281,855.4406 Q720.0156,853.7844 720.0156,850.6594 Q720.0156,847.5344 721.3281,845.8781 Q722.6563,844.2219 725.1563,844.2219 Q725.8594,844.2219 726.5,844.3781 Q727.1563,844.5344 727.7188,844.8313 L727.7188,847.55 Q727.0938,846.9719 726.5,846.7063 Q725.9063,846.425 725.2813,846.425 Q723.9375,846.425 723.25,847.5031 Q722.5625,848.5656 722.5625,850.6594 Q722.5625,852.7531 723.25,853.8313 Q723.9375,854.8938 725.2813,854.8938 Q725.9063,854.8938 726.5,854.6281 Q727.0938,854.3469 727.7188,853.7688 L727.7188,856.4875 Z " fill="#000000"/><text fill="#000000" font-family="sans-serif" font-size="14" lengthAdjust="spacing" textLength="81" x="745.25" y="855.6936">MainScreen</text><line style="stroke:#181818;stroke-width:0.5;" x1="674" x2="865" y1="866.8469" y2="866.8469"/><line style="stroke:#181818;stroke-width:0.5;" x1="674" x2="865" y1="874.8469" y2="874.8469"/><ellipse cx="684" cy="888.4953" fill="#84BE84" rx="3" ry="3" style="stroke:#038048;stroke-width:1.0;"/><text fill="#000000" font-family="sans-serif" font-size="14" lengthAdjust="spacing" textLength="153" x="693" y="891.842">selectUploadFeature()</text><ellipse cx="684" cy="904.7922" fill="#84BE84" rx="3" ry="3" style="stroke:#038048;stroke-width:1.0;"/><text fill="#000000" font-family="sans-serif" font-size="14" lengthAdjust="spacing" textLength="152" x="693" y="908.1389">selectHistoryFeature()</text><ellipse cx="684" cy="921.0891" fill="#84BE84" rx="3" ry="3" style="stroke:#038048;stroke-width:1.0;"/><text fill="#000000" font-family="sans-serif" font-size="14" lengthAdjust="spacing" textLength="167" x="693" y="924.4357">navigateToMainScreen()</text></g><!--class RegistrationScreen--><g id="elem_RegistrationScreen"><rect codeLine="11" fill="#F1F1F1" height="129.4844" id="RegistrationScreen" rx="2.5" ry="2.5" style="stroke:#181818;stroke-width:0.5;" width="472" x="1065" y="506.5569"/><ellipse cx="1230.75" cy="522.5569" fill="#ADD1B2" rx="11" ry="11" style="stroke:#181818;stroke-width:1.0;"/><path d="M1233.7188,528.1975 Q1233.1406,528.4944 1232.5,528.635 Q1231.8594,528.7913 1231.1563,528.7913 Q1228.6563,528.7913 1227.3281,527.1506 Q1226.0156,525.4944 1226.0156,522.3694 Q1226.0156,519.2444 1227.3281,517.5881 Q1228.6563,515.9319 1231.1563,515.9319 Q1231.8594,515.9319 1232.5,516.0881 Q1233.1563,516.2444 1233.7188,516.5413 L1233.7188,519.26 Q1233.0938,518.6819 1232.5,518.4163 Q1231.9063,518.135 1231.2813,518.135 Q1229.9375,518.135 1229.25,519.2131 Q1228.5625,520.2756 1228.5625,522.3694 Q1228.5625,524.4631 1229.25,525.5413 Q1229.9375,526.6038 1231.2813,526.6038 Q1231.9063,526.6038 1232.5,526.3381 Q1233.0938,526.0569 1233.7188,525.4788 L1233.7188,528.1975 Z " fill="#000000"/><text fill="#000000" font-family="sans-serif" font-size="14" lengthAdjust="spacing" textLength="132" x="1251.25" y="527.4036">RegistrationScreen</text><line style="stroke:#181818;stroke-width:0.5;" x1="1066" x2="1536" y1="538.5569" y2="538.5569"/><line style="stroke:#181818;stroke-width:0.5;" x1="1066" x2="1536" y1="546.5569" y2="546.5569"/><ellipse cx="1076" cy="560.2053" fill="#84BE84" rx="3" ry="3" style="stroke:#038048;stroke-width:1.0;"/><text fill="#000000" font-family="sans-serif" font-size="14" lengthAdjust="spacing" textLength="110" x="1085" y="563.552">showRegForm()</text><ellipse cx="1076" cy="576.5022" fill="#84BE84" rx="3" ry="3" style="stroke:#038048;stroke-width:1.0;"/><text fill="#000000" font-family="sans-serif" font-size="14" lengthAdjust="spacing" textLength="434" x="1085" y="579.8489">inputRegInfo(username: String, password: String, email: String)</text><ellipse cx="1076" cy="592.7991" fill="#84BE84" rx="3" ry="3" style="stroke:#038048;stroke-width:1.0;"/><text fill="#000000" font-family="sans-serif" font-size="14" lengthAdjust="spacing" textLength="446" x="1085" y="596.1457">submitRegInfo(username: String, password: String, email: String)</text><ellipse cx="1076" cy="609.0959" fill="#84BE84" rx="3" ry="3" style="stroke:#038048;stroke-width:1.0;"/><text fill="#000000" font-family="sans-serif" font-size="14" lengthAdjust="spacing" textLength="144" x="1085" y="612.4426">displayConfirmation()</text><ellipse cx="1076" cy="625.3928" fill="#84BE84" rx="3" ry="3" style="stroke:#038048;stroke-width:1.0;"/><text fill="#000000" font-family="sans-serif" font-size="14" lengthAdjust="spacing" textLength="201" x="1085" y="628.7395">displayError(errorMsg: String)</text></g><!--class LoginScreen--><g id="elem_LoginScreen"><rect codeLine="18" fill="#F1F1F1" height="129.4844" id="LoginScreen" rx="2.5" ry="2.5" style="stroke:#181818;stroke-width:0.5;" width="404" x="1099" y="818.5569"/><ellipse cx="1253.75" cy="834.5569" fill="#ADD1B2" rx="11" ry="11" style="stroke:#181818;stroke-width:1.0;"/><path d="M1256.7188,840.1975 Q1256.1406,840.4944 1255.5,840.635 Q1254.8594,840.7913 1254.1563,840.7913 Q1251.6563,840.7913 1250.3281,839.1506 Q1249.0156,837.4944 1249.0156,834.3694 Q1249.0156,831.2444 1250.3281,829.5881 Q1251.6563,827.9319 1254.1563,827.9319 Q1254.8594,827.9319 1255.5,828.0881 Q1256.1563,828.2444 1256.7188,828.5413 L1256.7188,831.26 Q1256.0938,830.6819 1255.5,830.4163 Q1254.9063,830.135 1254.2813,830.135 Q1252.9375,830.135 1252.25,831.2131 Q1251.5625,832.2756 1251.5625,834.3694 Q1251.5625,836.4631 1252.25,837.5413 Q1252.9375,838.6038 1254.2813,838.6038 Q1254.9063,838.6038 1255.5,838.3381 Q1256.0938,838.0569 1256.7188,837.4788 L1256.7188,840.1975 Z " fill="#000000"/><text fill="#000000" font-family="sans-serif" font-size="14" lengthAdjust="spacing" textLength="86" x="1274.25" y="839.4036">LoginScreen</text><line style="stroke:#181818;stroke-width:0.5;" x1="1100" x2="1502" y1="850.5569" y2="850.5569"/><line style="stroke:#181818;stroke-width:0.5;" x1="1100" x2="1502" y1="858.5569" y2="858.5569"/><ellipse cx="1110" cy="872.2053" fill="#84BE84" rx="3" ry="3" style="stroke:#038048;stroke-width:1.0;"/><text fill="#000000" font-family="sans-serif" font-size="14" lengthAdjust="spacing" textLength="119" x="1119" y="875.552">showLoginForm()</text><ellipse cx="1110" cy="888.5022" fill="#84BE84" rx="3" ry="3" style="stroke:#038048;stroke-width:1.0;"/><text fill="#000000" font-family="sans-serif" font-size="14" lengthAdjust="spacing" textLength="366" x="1119" y="891.8489">inputCredentials(username: String, password: String)</text><ellipse cx="1110" cy="904.7991" fill="#84BE84" rx="3" ry="3" style="stroke:#038048;stroke-width:1.0;"/><text fill="#000000" font-family="sans-serif" font-size="14" lengthAdjust="spacing" textLength="378" x="1119" y="908.1457">submitCredentials(username: String, password: String)</text><ellipse cx="1110" cy="921.0959" fill="#84BE84" rx="3" ry="3" style="stroke:#038048;stroke-width:1.0;"/><text fill="#000000" font-family="sans-serif" font-size="14" lengthAdjust="spacing" textLength="138" x="1119" y="924.4426">displayMainScreen()</text><ellipse cx="1110" cy="937.3928" fill="#84BE84" rx="3" ry="3" style="stroke:#038048;stroke-width:1.0;"/><text fill="#000000" font-family="sans-serif" font-size="14" lengthAdjust="spacing" textLength="201" x="1119" y="940.7395">displayError(errorMsg: String)</text></g><!--class UploadScreen--><g id="elem_UploadScreen"><rect codeLine="25" fill="#F1F1F1" height="113.1875" id="UploadScreen" rx="2.5" ry="2.5" style="stroke:#181818;stroke-width:0.5;" width="227" x="1187.5" y="670.7069"/><ellipse cx="1248.25" cy="686.7069" fill="#ADD1B2" rx="11" ry="11" style="stroke:#181818;stroke-width:1.0;"/><path d="M1251.2188,692.3475 Q1250.6406,692.6444 1250,692.785 Q1249.3594,692.9413 1248.6563,692.9413 Q1246.1563,692.9413 1244.8281,691.3006 Q1243.5156,689.6444 1243.5156,686.5194 Q1243.5156,683.3944 1244.8281,681.7381 Q1246.1563,680.0819 1248.6563,680.0819 Q1249.3594,680.0819 1250,680.2381 Q1250.6563,680.3944 1251.2188,680.6913 L1251.2188,683.41 Q1250.5938,682.8319 1250,682.5663 Q1249.4063,682.285 1248.7813,682.285 Q1247.4375,682.285 1246.75,683.3631 Q1246.0625,684.4256 1246.0625,686.5194 Q1246.0625,688.6131 1246.75,689.6913 Q1247.4375,690.7538 1248.7813,690.7538 Q1249.4063,690.7538 1250,690.4881 Q1250.5938,690.2069 1251.2188,689.6288 L1251.2188,692.3475 Z " fill="#000000"/><text fill="#000000" font-family="sans-serif" font-size="14" lengthAdjust="spacing" textLength="97" x="1268.75" y="691.5536">UploadScreen</text><line style="stroke:#181818;stroke-width:0.5;" x1="1188.5" x2="1413.5" y1="702.7069" y2="702.7069"/><line style="stroke:#181818;stroke-width:0.5;" x1="1188.5" x2="1413.5" y1="710.7069" y2="710.7069"/><ellipse cx="1198.5" cy="724.3553" fill="#84BE84" rx="3" ry="3" style="stroke:#038048;stroke-width:1.0;"/><text fill="#000000" font-family="sans-serif" font-size="14" lengthAdjust="spacing" textLength="130" x="1207.5" y="727.702">showUploadForm()</text><ellipse cx="1198.5" cy="740.6522" fill="#84BE84" rx="3" ry="3" style="stroke:#038048;stroke-width:1.0;"/><text fill="#000000" font-family="sans-serif" font-size="14" lengthAdjust="spacing" textLength="86" x="1207.5" y="743.9989">inputPhoto()</text><ellipse cx="1198.5" cy="756.9491" fill="#84BE84" rx="3" ry="3" style="stroke:#038048;stroke-width:1.0;"/><text fill="#000000" font-family="sans-serif" font-size="14" lengthAdjust="spacing" textLength="171" x="1207.5" y="760.2957">submitPhoto(photo: File)</text><ellipse cx="1198.5" cy="773.2459" fill="#84BE84" rx="3" ry="3" style="stroke:#038048;stroke-width:1.0;"/><text fill="#000000" font-family="sans-serif" font-size="14" lengthAdjust="spacing" textLength="201" x="1207.5" y="776.5926">displayError(errorMsg: String)</text></g><!--class ResultDisplayScreen--><g id="elem_ResultDisplayScreen"><rect codeLine="31" fill="#F1F1F1" height="80.5938" id="ResultDisplayScreen" rx="2.5" ry="2.5" style="stroke:#181818;stroke-width:0.5;" width="214" x="1697" y="662.9969"/><ellipse cx="1730" cy="678.9969" fill="#ADD1B2" rx="11" ry="11" style="stroke:#181818;stroke-width:1.0;"/><path d="M1732.9688,684.6375 Q1732.3906,684.9344 1731.75,685.075 Q1731.1094,685.2313 1730.4063,685.2313 Q1727.9063,685.2313 1726.5781,683.5906 Q1725.2656,681.9344 1725.2656,678.8094 Q1725.2656,675.6844 1726.5781,674.0281 Q1727.9063,672.3719 1730.4063,672.3719 Q1731.1094,672.3719 1731.75,672.5281 Q1732.4063,672.6844 1732.9688,672.9813 L1732.9688,675.7 Q1732.3438,675.1219 1731.75,674.8563 Q1731.1563,674.575 1730.5313,674.575 Q1729.1875,674.575 1728.5,675.6531 Q1727.8125,676.7156 1727.8125,678.8094 Q1727.8125,680.9031 1728.5,681.9813 Q1729.1875,683.0438 1730.5313,683.0438 Q1731.1563,683.0438 1731.75,682.7781 Q1732.3438,682.4969 1732.9688,681.9188 L1732.9688,684.6375 Z " fill="#000000"/><text fill="#000000" font-family="sans-serif" font-size="14" lengthAdjust="spacing" textLength="142" x="1748" y="683.8436">ResultDisplayScreen</text><line style="stroke:#181818;stroke-width:0.5;" x1="1698" x2="1910" y1="694.9969" y2="694.9969"/><line style="stroke:#181818;stroke-width:0.5;" x1="1698" x2="1910" y1="702.9969" y2="702.9969"/><ellipse cx="1708" cy="716.6453" fill="#84BE84" rx="3" ry="3" style="stroke:#038048;stroke-width:1.0;"/><text fill="#000000" font-family="sans-serif" font-size="14" lengthAdjust="spacing" textLength="178" x="1717" y="719.992">showResults(results: List)</text><ellipse cx="1708" cy="732.9422" fill="#84BE84" rx="3" ry="3" style="stroke:#038048;stroke-width:1.0;"/><text fill="#000000" font-family="sans-serif" font-size="14" lengthAdjust="spacing" textLength="188" x="1717" y="736.2889">displayResults(results: List)</text></g><!--class AdviceDisplayScreen--><g id="elem_AdviceDisplayScreen"><rect codeLine="35" fill="#F1F1F1" height="80.5938" id="AdviceDisplayScreen" rx="2.5" ry="2.5" style="stroke:#181818;stroke-width:0.5;" width="253" x="2064" y="505.9969"/><ellipse cx="2114.75" cy="521.9969" fill="#ADD1B2" rx="11" ry="11" style="stroke:#181818;stroke-width:1.0;"/><path d="M2117.7188,527.6375 Q2117.1406,527.9344 2116.5,528.075 Q2115.8594,528.2313 2115.1563,528.2313 Q2112.6563,528.2313 2111.3281,526.5906 Q2110.0156,524.9344 2110.0156,521.8094 Q2110.0156,518.6844 2111.3281,517.0281 Q2112.6563,515.3719 2115.1563,515.3719 Q2115.8594,515.3719 2116.5,515.5281 Q2117.1563,515.6844 2117.7188,515.9813 L2117.7188,518.7 Q2117.0938,518.1219 2116.5,517.8563 Q2115.9063,517.575 2115.2813,517.575 Q2113.9375,517.575 2113.25,518.6531 Q2112.5625,519.7156 2112.5625,521.8094 Q2112.5625,523.9031 2113.25,524.9813 Q2113.9375,526.0438 2115.2813,526.0438 Q2115.9063,526.0438 2116.5,525.7781 Q2117.0938,525.4969 2117.7188,524.9188 L2117.7188,527.6375 Z " fill="#000000"/><text fill="#000000" font-family="sans-serif" font-size="14" lengthAdjust="spacing" textLength="143" x="2135.25" y="526.8436">AdviceDisplayScreen</text><line style="stroke:#181818;stroke-width:0.5;" x1="2065" x2="2316" y1="537.9969" y2="537.9969"/><line style="stroke:#181818;stroke-width:0.5;" x1="2065" x2="2316" y1="545.9969" y2="545.9969"/><ellipse cx="2075" cy="559.6453" fill="#84BE84" rx="3" ry="3" style="stroke:#038048;stroke-width:1.0;"/><text fill="#000000" font-family="sans-serif" font-size="14" lengthAdjust="spacing" textLength="217" x="2084" y="562.992">showCareAdvice(advice: String)</text><ellipse cx="2075" cy="575.9422" fill="#84BE84" rx="3" ry="3" style="stroke:#038048;stroke-width:1.0;"/><text fill="#000000" font-family="sans-serif" font-size="14" lengthAdjust="spacing" textLength="227" x="2084" y="579.2889">displayCareAdvice(advice: String)</text></g><!--class HistoryRecordScreen--><g id="elem_HistoryRecordScreen"><rect codeLine="39" fill="#F1F1F1" height="145.7813" id="HistoryRecordScreen" rx="2.5" ry="2.5" style="stroke:#181818;stroke-width:0.5;" width="313" x="1144.5" y="983.4069"/><ellipse cx="1223.75" cy="999.4069" fill="#ADD1B2" rx="11" ry="11" style="stroke:#181818;stroke-width:1.0;"/><path d="M1226.7188,1005.0475 Q1226.1406,1005.3444 1225.5,1005.485 Q1224.8594,1005.6412 1224.1563,1005.6412 Q1221.6563,1005.6412 1220.3281,1004.0006 Q1219.0156,1002.3444 1219.0156,999.2194 Q1219.0156,996.0944 1220.3281,994.4381 Q1221.6563,992.7819 1224.1563,992.7819 Q1224.8594,992.7819 1225.5,992.9381 Q1226.1563,993.0944 1226.7188,993.3912 L1226.7188,996.11 Q1226.0938,995.5319 1225.5,995.2662 Q1224.9063,994.985 1224.2813,994.985 Q1222.9375,994.985 1222.25,996.0631 Q1221.5625,997.1256 1221.5625,999.2194 Q1221.5625,1001.3131 1222.25,1002.3912 Q1222.9375,1003.4537 1224.2813,1003.4537 Q1224.9063,1003.4537 1225.5,1003.1881 Q1226.0938,1002.9069 1226.7188,1002.3287 L1226.7188,1005.0475 Z " fill="#000000"/><text fill="#000000" font-family="sans-serif" font-size="14" lengthAdjust="spacing" textLength="146" x="1244.25" y="1004.2536">HistoryRecordScreen</text><line style="stroke:#181818;stroke-width:0.5;" x1="1145.5" x2="1456.5" y1="1015.4069" y2="1015.4069"/><line style="stroke:#181818;stroke-width:0.5;" x1="1145.5" x2="1456.5" y1="1023.4069" y2="1023.4069"/><ellipse cx="1155.5" cy="1037.0553" fill="#84BE84" rx="3" ry="3" style="stroke:#038048;stroke-width:1.0;"/><text fill="#000000" font-family="sans-serif" font-size="14" lengthAdjust="spacing" textLength="152" x="1164.5" y="1040.402">selectHistoryFeature()</text><ellipse cx="1155.5" cy="1053.3522" fill="#84BE84" rx="3" ry="3" style="stroke:#038048;stroke-width:1.0;"/><text fill="#000000" font-family="sans-serif" font-size="14" lengthAdjust="spacing" textLength="205" x="1164.5" y="1056.6989">displayHistory(historyList: List)</text><ellipse cx="1155.5" cy="1069.6491" fill="#84BE84" rx="3" ry="3" style="stroke:#038048;stroke-width:1.0;"/><text fill="#000000" font-family="sans-serif" font-size="14" lengthAdjust="spacing" textLength="185" x="1164.5" y="1072.9957">selectRecord(recordId: Int)</text><ellipse cx="1155.5" cy="1085.9459" fill="#84BE84" rx="3" ry="3" style="stroke:#038048;stroke-width:1.0;"/><text fill="#000000" font-family="sans-serif" font-size="14" lengthAdjust="spacing" textLength="227" x="1164.5" y="1089.2926">showRecordDetails(recordId: Int)</text><ellipse cx="1155.5" cy="1102.2428" fill="#84BE84" rx="3" ry="3" style="stroke:#038048;stroke-width:1.0;"/><text fill="#000000" font-family="sans-serif" font-size="14" lengthAdjust="spacing" textLength="287" x="1164.5" y="1105.5895">chooseAction(action: String, recordId: Int)</text><ellipse cx="1155.5" cy="1118.5397" fill="#84BE84" rx="3" ry="3" style="stroke:#038048;stroke-width:1.0;"/><text fill="#000000" font-family="sans-serif" font-size="14" lengthAdjust="spacing" textLength="163" x="1164.5" y="1121.8864">displayUpdatedHistory()</text></g><!--class ShareScreen--><g id="elem_ShareScreen"><rect codeLine="47" fill="#F1F1F1" height="80.5938" id="ShareScreen" rx="2.5" ry="2.5" style="stroke:#181818;stroke-width:0.5;" width="249" x="2066" y="621.9969"/><ellipse cx="2141.75" cy="637.9969" fill="#ADD1B2" rx="11" ry="11" style="stroke:#181818;stroke-width:1.0;"/><path d="M2144.7188,643.6375 Q2144.1406,643.9344 2143.5,644.075 Q2142.8594,644.2313 2142.1563,644.2313 Q2139.6563,644.2313 2138.3281,642.5906 Q2137.0156,640.9344 2137.0156,637.8094 Q2137.0156,634.6844 2138.3281,633.0281 Q2139.6563,631.3719 2142.1563,631.3719 Q2142.8594,631.3719 2143.5,631.5281 Q2144.1563,631.6844 2144.7188,631.9813 L2144.7188,634.7 Q2144.0938,634.1219 2143.5,633.8563 Q2142.9063,633.575 2142.2813,633.575 Q2140.9375,633.575 2140.25,634.6531 Q2139.5625,635.7156 2139.5625,637.8094 Q2139.5625,639.9031 2140.25,640.9813 Q2140.9375,642.0438 2142.2813,642.0438 Q2142.9063,642.0438 2143.5,641.7781 Q2144.0938,641.4969 2144.7188,640.9188 L2144.7188,643.6375 Z " fill="#000000"/><text fill="#000000" font-family="sans-serif" font-size="14" lengthAdjust="spacing" textLength="89" x="2162.25" y="642.8436">ShareScreen</text><line style="stroke:#181818;stroke-width:0.5;" x1="2067" x2="2314" y1="653.9969" y2="653.9969"/><line style="stroke:#181818;stroke-width:0.5;" x1="2067" x2="2314" y1="661.9969" y2="661.9969"/><ellipse cx="2077" cy="675.6453" fill="#84BE84" rx="3" ry="3" style="stroke:#038048;stroke-width:1.0;"/><text fill="#000000" font-family="sans-serif" font-size="14" lengthAdjust="spacing" textLength="141" x="2086" y="678.992">showShareOptions()</text><ellipse cx="2077" cy="691.9422" fill="#84BE84" rx="3" ry="3" style="stroke:#038048;stroke-width:1.0;"/><text fill="#000000" font-family="sans-serif" font-size="14" lengthAdjust="spacing" textLength="223" x="2086" y="695.2889">choosePlatform(platform: String)</text></g><!--class Controller--><g id="elem_Controller"><rect codeLine="54" fill="#F1F1F1" height="227.2656" id="Controller" rx="2.5" ry="2.5" style="stroke:#181818;stroke-width:0.5;" width="477" x="22" y="92.6669"/><ellipse cx="222.75" cy="108.6669" fill="#ADD1B2" rx="11" ry="11" style="stroke:#181818;stroke-width:1.0;"/><path d="M225.7188,114.3075 Q225.1406,114.6044 224.5,114.745 Q223.8594,114.9012 223.1563,114.9012 Q220.6563,114.9012 219.3281,113.2606 Q218.0156,111.6044 218.0156,108.4794 Q218.0156,105.3544 219.3281,103.6981 Q220.6563,102.0419 223.1563,102.0419 Q223.8594,102.0419 224.5,102.1981 Q225.1563,102.3544 225.7188,102.6512 L225.7188,105.37 Q225.0938,104.7919 224.5,104.5262 Q223.9063,104.245 223.2813,104.245 Q221.9375,104.245 221.25,105.3231 Q220.5625,106.3856 220.5625,108.4794 Q220.5625,110.5731 221.25,111.6512 Q221.9375,112.7137 223.2813,112.7137 Q223.9063,112.7137 224.5,112.4481 Q225.0938,112.1669 225.7188,111.5887 L225.7188,114.3075 Z " fill="#000000"/><text fill="#000000" font-family="sans-serif" font-size="14" lengthAdjust="spacing" textLength="67" x="243.25" y="113.5136">Controller</text><line style="stroke:#181818;stroke-width:0.5;" x1="23" x2="498" y1="124.6669" y2="124.6669"/><line style="stroke:#181818;stroke-width:0.5;" x1="23" x2="498" y1="132.6669" y2="132.6669"/><ellipse cx="33" cy="146.3153" fill="#84BE84" rx="3" ry="3" style="stroke:#038048;stroke-width:1.0;"/><text fill="#000000" font-family="sans-serif" font-size="14" lengthAdjust="spacing" textLength="451" x="42" y="149.662">validateRegInfo(username: String, password: String, email: String)</text><ellipse cx="33" cy="162.6122" fill="#84BE84" rx="3" ry="3" style="stroke:#038048;stroke-width:1.0;"/><text fill="#000000" font-family="sans-serif" font-size="14" lengthAdjust="spacing" textLength="447" x="42" y="165.9589">createAccount(username: String, password: String, email: String)</text><ellipse cx="33" cy="178.9091" fill="#84BE84" rx="3" ry="3" style="stroke:#038048;stroke-width:1.0;"/><text fill="#000000" font-family="sans-serif" font-size="14" lengthAdjust="spacing" textLength="383" x="42" y="182.2557">validateCredentials(username: String, password: String)</text><ellipse cx="33" cy="195.2059" fill="#84BE84" rx="3" ry="3" style="stroke:#038048;stroke-width:1.0;"/><text fill="#000000" font-family="sans-serif" font-size="14" lengthAdjust="spacing" textLength="215" x="42" y="198.5526">grantAccess(username: String)</text><ellipse cx="33" cy="211.5028" fill="#84BE84" rx="3" ry="3" style="stroke:#038048;stroke-width:1.0;"/><text fill="#000000" font-family="sans-serif" font-size="14" lengthAdjust="spacing" textLength="248" x="42" y="214.8495">checkPhotoRestrictions(photo: File)</text><ellipse cx="33" cy="227.7997" fill="#84BE84" rx="3" ry="3" style="stroke:#038048;stroke-width:1.0;"/><text fill="#000000" font-family="sans-serif" font-size="14" lengthAdjust="spacing" textLength="210" x="42" y="231.1464">analyzeAndPredict(photo: File)</text><ellipse cx="33" cy="244.0966" fill="#84BE84" rx="3" ry="3" style="stroke:#038048;stroke-width:1.0;"/><text fill="#000000" font-family="sans-serif" font-size="14" lengthAdjust="spacing" textLength="301" x="42" y="247.4432">requestCareAdvice(results: List, photo: File)</text><ellipse cx="33" cy="260.3934" fill="#84BE84" rx="3" ry="3" style="stroke:#038048;stroke-width:1.0;"/><text fill="#000000" font-family="sans-serif" font-size="14" lengthAdjust="spacing" textLength="310" x="42" y="263.7401">generateCareAdvice(results: List, photo: File)</text><ellipse cx="33" cy="276.6903" fill="#84BE84" rx="3" ry="3" style="stroke:#038048;stroke-width:1.0;"/><text fill="#000000" font-family="sans-serif" font-size="14" lengthAdjust="spacing" textLength="111" x="42" y="280.037">requestHistory()</text><ellipse cx="33" cy="292.9872" fill="#84BE84" rx="3" ry="3" style="stroke:#038048;stroke-width:1.0;"/><text fill="#000000" font-family="sans-serif" font-size="14" lengthAdjust="spacing" textLength="209" x="42" y="296.3339">reanalyzeRecord(recordId: Int)</text><ellipse cx="33" cy="309.2841" fill="#84BE84" rx="3" ry="3" style="stroke:#038048;stroke-width:1.0;"/><text fill="#000000" font-family="sans-serif" font-size="14" lengthAdjust="spacing" textLength="187" x="42" y="312.6307">deleteRecord(recordId: Int)</text></g><!--class KaggleModel--><g id="elem_KaggleModel"><rect codeLine="67" fill="#F1F1F1" height="64.2969" id="KaggleModel" rx="2.5" ry="2.5" style="stroke:#181818;stroke-width:0.5;" width="236" x="651.5" y="249.1469"/><ellipse cx="720.75" cy="265.1469" fill="#ADD1B2" rx="11" ry="11" style="stroke:#181818;stroke-width:1.0;"/><path d="M723.7188,270.7875 Q723.1406,271.0844 722.5,271.225 Q721.8594,271.3812 721.1563,271.3812 Q718.6563,271.3812 717.3281,269.7406 Q716.0156,268.0844 716.0156,264.9594 Q716.0156,261.8344 717.3281,260.1781 Q718.6563,258.5219 721.1563,258.5219 Q721.8594,258.5219 722.5,258.6781 Q723.1563,258.8344 723.7188,259.1312 L723.7188,261.85 Q723.0938,261.2719 722.5,261.0062 Q721.9063,260.725 721.2813,260.725 Q719.9375,260.725 719.25,261.8031 Q718.5625,262.8656 718.5625,264.9594 Q718.5625,267.0531 719.25,268.1312 Q719.9375,269.1937 721.2813,269.1937 Q721.9063,269.1937 722.5,268.9281 Q723.0938,268.6469 723.7188,268.0687 L723.7188,270.7875 Z " fill="#000000"/><text fill="#000000" font-family="sans-serif" font-size="14" lengthAdjust="spacing" textLength="89" x="741.25" y="269.9936">KaggleModel</text><line style="stroke:#181818;stroke-width:0.5;" x1="652.5" x2="886.5" y1="281.1469" y2="281.1469"/><line style="stroke:#181818;stroke-width:0.5;" x1="652.5" x2="886.5" y1="289.1469" y2="289.1469"/><ellipse cx="662.5" cy="302.7953" fill="#84BE84" rx="3" ry="3" style="stroke:#038048;stroke-width:1.0;"/><text fill="#000000" font-family="sans-serif" font-size="14" lengthAdjust="spacing" textLength="210" x="671.5" y="306.142">analyzeAndPredict(photo: File)</text></g><!--class Database--><g id="elem_Database"><rect codeLine="70" fill="#F1F1F1" height="96.8906" id="Database" rx="2.5" ry="2.5" style="stroke:#181818;stroke-width:0.5;" width="339" x="600" y="116.8469"/><ellipse cx="732.25" cy="132.8469" fill="#ADD1B2" rx="11" ry="11" style="stroke:#181818;stroke-width:1.0;"/><path d="M735.2188,138.4875 Q734.6406,138.7844 734,138.925 Q733.3594,139.0812 732.6563,139.0812 Q730.1563,139.0812 728.8281,137.4406 Q727.5156,135.7844 727.5156,132.6594 Q727.5156,129.5344 728.8281,127.8781 Q730.1563,126.2219 732.6563,126.2219 Q733.3594,126.2219 734,126.3781 Q734.6563,126.5344 735.2188,126.8312 L735.2188,129.55 Q734.5938,128.9719 734,128.7062 Q733.4063,128.425 732.7813,128.425 Q731.4375,128.425 730.75,129.5031 Q730.0625,130.5656 730.0625,132.6594 Q730.0625,134.7531 730.75,135.8312 Q731.4375,136.8937 732.7813,136.8937 Q733.4063,136.8937 734,136.6281 Q734.5938,136.3469 735.2188,135.7687 L735.2188,138.4875 Z " fill="#000000"/><text fill="#000000" font-family="sans-serif" font-size="14" lengthAdjust="spacing" textLength="66" x="752.75" y="137.6936">Database</text><line style="stroke:#181818;stroke-width:0.5;" x1="601" x2="938" y1="148.8469" y2="148.8469"/><line style="stroke:#181818;stroke-width:0.5;" x1="601" x2="938" y1="156.8469" y2="156.8469"/><ellipse cx="611" cy="170.4953" fill="#84BE84" rx="3" ry="3" style="stroke:#038048;stroke-width:1.0;"/><text fill="#000000" font-family="sans-serif" font-size="14" lengthAdjust="spacing" textLength="92" x="620" y="173.842">fetchHistory()</text><ellipse cx="611" cy="186.7922" fill="#84BE84" rx="3" ry="3" style="stroke:#038048;stroke-width:1.0;"/><text fill="#000000" font-family="sans-serif" font-size="14" lengthAdjust="spacing" textLength="313" x="620" y="190.1389">updateRecord(recordId: Int, newResults: List)</text><ellipse cx="611" cy="203.0891" fill="#84BE84" rx="3" ry="3" style="stroke:#038048;stroke-width:1.0;"/><text fill="#000000" font-family="sans-serif" font-size="14" lengthAdjust="spacing" textLength="195" x="620" y="206.4357">removeRecord(recordId: Int)</text></g><!--class Navigation Buttons--><g id="elem_Navigation Buttons"><rect codeLine="80" fill="#F1F1F1" height="48" id="Navigation Buttons" rx="2.5" ry="2.5" style="stroke:#181818;stroke-width:0.5;" width="162" x="2422" y="1955.2969"/><ellipse cx="2437" cy="1971.2969" fill="#ADD1B2" rx="11" ry="11" style="stroke:#181818;stroke-width:1.0;"/><path d="M2439.9688,1976.9375 Q2439.3906,1977.2344 2438.75,1977.375 Q2438.1094,1977.5313 2437.4063,1977.5313 Q2434.9063,1977.5313 2433.5781,1975.8906 Q2432.2656,1974.2344 2432.2656,1971.1094 Q2432.2656,1967.9844 2433.5781,1966.3281 Q2434.9063,1964.6719 2437.4063,1964.6719 Q2438.1094,1964.6719 2438.75,1964.8281 Q2439.4063,1964.9844 2439.9688,1965.2813 L2439.9688,1968 Q2439.3438,1967.4219 2438.75,1967.1563 Q2438.1563,1966.875 2437.5313,1966.875 Q2436.1875,1966.875 2435.5,1967.9531 Q2434.8125,1969.0156 2434.8125,1971.1094 Q2434.8125,1973.2031 2435.5,1974.2813 Q2436.1875,1975.3438 2437.5313,1975.3438 Q2438.1563,1975.3438 2438.75,1975.0781 Q2439.3438,1974.7969 2439.9688,1974.2188 L2439.9688,1976.9375 Z " fill="#000000"/><text fill="#000000" font-family="sans-serif" font-size="14" lengthAdjust="spacing" textLength="130" x="2451" y="1976.1436">Navigation Buttons</text><line style="stroke:#181818;stroke-width:0.5;" x1="2423" x2="2583" y1="1987.2969" y2="1987.2969"/><line style="stroke:#181818;stroke-width:0.5;" x1="2423" x2="2583" y1="1995.2969" y2="1995.2969"/></g><!--class Feature Icons--><g id="elem_Feature Icons"><rect codeLine="82" fill="#F1F1F1" height="48" id="Feature Icons" rx="2.5" ry="2.5" style="stroke:#181818;stroke-width:0.5;" width="126" x="2440" y="1872.2969"/><ellipse cx="2455" cy="1888.2969" fill="#ADD1B2" rx="11" ry="11" style="stroke:#181818;stroke-width:1.0;"/><path d="M2457.9688,1893.9375 Q2457.3906,1894.2344 2456.75,1894.375 Q2456.1094,1894.5313 2455.4063,1894.5313 Q2452.9063,1894.5313 2451.5781,1892.8906 Q2450.2656,1891.2344 2450.2656,1888.1094 Q2450.2656,1884.9844 2451.5781,1883.3281 Q2452.9063,1881.6719 2455.4063,1881.6719 Q2456.1094,1881.6719 2456.75,1881.8281 Q2457.4063,1881.9844 2457.9688,1882.2813 L2457.9688,1885 Q2457.3438,1884.4219 2456.75,1884.1563 Q2456.1563,1883.875 2455.5313,1883.875 Q2454.1875,1883.875 2453.5,1884.9531 Q2452.8125,1886.0156 2452.8125,1888.1094 Q2452.8125,1890.2031 2453.5,1891.2813 Q2454.1875,1892.3438 2455.5313,1892.3438 Q2456.1563,1892.3438 2456.75,1892.0781 Q2457.3438,1891.7969 2457.9688,1891.2188 L2457.9688,1893.9375 Z " fill="#000000"/><text fill="#000000" font-family="sans-serif" font-size="14" lengthAdjust="spacing" textLength="94" x="2469" y="1893.1436">Feature Icons</text><line style="stroke:#181818;stroke-width:0.5;" x1="2441" x2="2565" y1="1904.2969" y2="1904.2969"/><line style="stroke:#181818;stroke-width:0.5;" x1="2441" x2="2565" y1="1912.2969" y2="1912.2969"/></g><!--class Input Fields--><g id="elem_Input Fields"><rect codeLine="87" fill="#F1F1F1" height="48" id="Input Fields" rx="2.5" ry="2.5" style="stroke:#181818;stroke-width:0.5;" width="111" x="2447.5" y="927.2969"/><ellipse cx="2462.5" cy="943.2969" fill="#ADD1B2" rx="11" ry="11" style="stroke:#181818;stroke-width:1.0;"/><path d="M2465.4688,948.9375 Q2464.8906,949.2344 2464.25,949.375 Q2463.6094,949.5313 2462.9063,949.5313 Q2460.4063,949.5313 2459.0781,947.8906 Q2457.7656,946.2344 2457.7656,943.1094 Q2457.7656,939.9844 2459.0781,938.3281 Q2460.4063,936.6719 2462.9063,936.6719 Q2463.6094,936.6719 2464.25,936.8281 Q2464.9063,936.9844 2465.4688,937.2813 L2465.4688,940 Q2464.8438,939.4219 2464.25,939.1563 Q2463.6563,938.875 2463.0313,938.875 Q2461.6875,938.875 2461,939.9531 Q2460.3125,941.0156 2460.3125,943.1094 Q2460.3125,945.2031 2461,946.2813 Q2461.6875,947.3438 2463.0313,947.3438 Q2463.6563,947.3438 2464.25,947.0781 Q2464.8438,946.7969 2465.4688,946.2188 L2465.4688,948.9375 Z " fill="#000000"/><text fill="#000000" font-family="sans-serif" font-size="14" lengthAdjust="spacing" textLength="79" x="2476.5" y="948.1436">Input Fields</text><line style="stroke:#181818;stroke-width:0.5;" x1="2448.5" x2="2557.5" y1="959.2969" y2="959.2969"/><line style="stroke:#181818;stroke-width:0.5;" x1="2448.5" x2="2557.5" y1="967.2969" y2="967.2969"/></g><!--class Submit Button--><g id="elem_Submit Button"><rect codeLine="89" fill="#F1F1F1" height="48" id="Submit Button" rx="2.5" ry="2.5" style="stroke:#181818;stroke-width:0.5;" width="131" x="2437.5" y="844.2969"/><ellipse cx="2452.5" cy="860.2969" fill="#ADD1B2" rx="11" ry="11" style="stroke:#181818;stroke-width:1.0;"/><path d="M2455.4688,865.9375 Q2454.8906,866.2344 2454.25,866.375 Q2453.6094,866.5313 2452.9063,866.5313 Q2450.4063,866.5313 2449.0781,864.8906 Q2447.7656,863.2344 2447.7656,860.1094 Q2447.7656,856.9844 2449.0781,855.3281 Q2450.4063,853.6719 2452.9063,853.6719 Q2453.6094,853.6719 2454.25,853.8281 Q2454.9063,853.9844 2455.4688,854.2813 L2455.4688,857 Q2454.8438,856.4219 2454.25,856.1563 Q2453.6563,855.875 2453.0313,855.875 Q2451.6875,855.875 2451,856.9531 Q2450.3125,858.0156 2450.3125,860.1094 Q2450.3125,862.2031 2451,863.2813 Q2451.6875,864.3438 2453.0313,864.3438 Q2453.6563,864.3438 2454.25,864.0781 Q2454.8438,863.7969 2455.4688,863.2188 L2455.4688,865.9375 Z " fill="#000000"/><text fill="#000000" font-family="sans-serif" font-size="14" lengthAdjust="spacing" textLength="99" x="2466.5" y="865.1436">Submit Button</text><line style="stroke:#181818;stroke-width:0.5;" x1="2438.5" x2="2567.5" y1="876.2969" y2="876.2969"/><line style="stroke:#181818;stroke-width:0.5;" x1="2438.5" x2="2567.5" y1="884.2969" y2="884.2969"/></g><!--class Input Fields--><g id="elem_Input Fields"><rect codeLine="94" fill="#F1F1F1" height="48" id="Input Fields" rx="2.5" ry="2.5" style="stroke:#181818;stroke-width:0.5;" width="111" x="2447.5" y="1184.2969"/><ellipse cx="2462.5" cy="1200.2969" fill="#ADD1B2" rx="11" ry="11" style="stroke:#181818;stroke-width:1.0;"/><path d="M2465.4688,1205.9375 Q2464.8906,1206.2344 2464.25,1206.375 Q2463.6094,1206.5313 2462.9063,1206.5313 Q2460.4063,1206.5313 2459.0781,1204.8906 Q2457.7656,1203.2344 2457.7656,1200.1094 Q2457.7656,1196.9844 2459.0781,1195.3281 Q2460.4063,1193.6719 2462.9063,1193.6719 Q2463.6094,1193.6719 2464.25,1193.8281 Q2464.9063,1193.9844 2465.4688,1194.2813 L2465.4688,1197 Q2464.8438,1196.4219 2464.25,1196.1563 Q2463.6563,1195.875 2463.0313,1195.875 Q2461.6875,1195.875 2461,1196.9531 Q2460.3125,1198.0156 2460.3125,1200.1094 Q2460.3125,1202.2031 2461,1203.2813 Q2461.6875,1204.3438 2463.0313,1204.3438 Q2463.6563,1204.3438 2464.25,1204.0781 Q2464.8438,1203.7969 2465.4688,1203.2188 L2465.4688,1205.9375 Z " fill="#000000"/><text fill="#000000" font-family="sans-serif" font-size="14" lengthAdjust="spacing" textLength="79" x="2476.5" y="1205.1436">Input Fields</text><line style="stroke:#181818;stroke-width:0.5;" x1="2448.5" x2="2557.5" y1="1216.2969" y2="1216.2969"/><line style="stroke:#181818;stroke-width:0.5;" x1="2448.5" x2="2557.5" y1="1224.2969" y2="1224.2969"/></g><!--class Login Button--><g id="elem_Login Button"><rect codeLine="96" fill="#F1F1F1" height="48" id="Login Button" rx="2.5" ry="2.5" style="stroke:#181818;stroke-width:0.5;" width="120" x="2443" y="1101.2969"/><ellipse cx="2458" cy="1117.2969" fill="#ADD1B2" rx="11" ry="11" style="stroke:#181818;stroke-width:1.0;"/><path d="M2460.9688,1122.9375 Q2460.3906,1123.2344 2459.75,1123.375 Q2459.1094,1123.5313 2458.4063,1123.5313 Q2455.9063,1123.5313 2454.5781,1121.8906 Q2453.2656,1120.2344 2453.2656,1117.1094 Q2453.2656,1113.9844 2454.5781,1112.3281 Q2455.9063,1110.6719 2458.4063,1110.6719 Q2459.1094,1110.6719 2459.75,1110.8281 Q2460.4063,1110.9844 2460.9688,1111.2813 L2460.9688,1114 Q2460.3438,1113.4219 2459.75,1113.1563 Q2459.1563,1112.875 2458.5313,1112.875 Q2457.1875,1112.875 2456.5,1113.9531 Q2455.8125,1115.0156 2455.8125,1117.1094 Q2455.8125,1119.2031 2456.5,1120.2813 Q2457.1875,1121.3438 2458.5313,1121.3438 Q2459.1563,1121.3438 2459.75,1121.0781 Q2460.3438,1120.7969 2460.9688,1120.2188 L2460.9688,1122.9375 Z " fill="#000000"/><text fill="#000000" font-family="sans-serif" font-size="14" lengthAdjust="spacing" textLength="88" x="2472" y="1122.1436">Login Button</text><line style="stroke:#181818;stroke-width:0.5;" x1="2444" x2="2562" y1="1133.2969" y2="1133.2969"/><line style="stroke:#181818;stroke-width:0.5;" x1="2444" x2="2562" y1="1141.2969" y2="1141.2969"/></g><!--class Photo Selector--><g id="elem_Photo Selector"><rect codeLine="101" fill="#F1F1F1" height="48" id="Photo Selector" rx="2.5" ry="2.5" style="stroke:#181818;stroke-width:0.5;" width="134" x="2436" y="1441.2969"/><ellipse cx="2451" cy="1457.2969" fill="#ADD1B2" rx="11" ry="11" style="stroke:#181818;stroke-width:1.0;"/><path d="M2453.9688,1462.9375 Q2453.3906,1463.2344 2452.75,1463.375 Q2452.1094,1463.5313 2451.4063,1463.5313 Q2448.9063,1463.5313 2447.5781,1461.8906 Q2446.2656,1460.2344 2446.2656,1457.1094 Q2446.2656,1453.9844 2447.5781,1452.3281 Q2448.9063,1450.6719 2451.4063,1450.6719 Q2452.1094,1450.6719 2452.75,1450.8281 Q2453.4063,1450.9844 2453.9688,1451.2813 L2453.9688,1454 Q2453.3438,1453.4219 2452.75,1453.1563 Q2452.1563,1452.875 2451.5313,1452.875 Q2450.1875,1452.875 2449.5,1453.9531 Q2448.8125,1455.0156 2448.8125,1457.1094 Q2448.8125,1459.2031 2449.5,1460.2813 Q2450.1875,1461.3438 2451.5313,1461.3438 Q2452.1563,1461.3438 2452.75,1461.0781 Q2453.3438,1460.7969 2453.9688,1460.2188 L2453.9688,1462.9375 Z " fill="#000000"/><text fill="#000000" font-family="sans-serif" font-size="14" lengthAdjust="spacing" textLength="102" x="2465" y="1462.1436">Photo Selector</text><line style="stroke:#181818;stroke-width:0.5;" x1="2437" x2="2569" y1="1473.2969" y2="1473.2969"/><line style="stroke:#181818;stroke-width:0.5;" x1="2437" x2="2569" y1="1481.2969" y2="1481.2969"/></g><!--class Upload Button--><g id="elem_Upload Button"><rect codeLine="103" fill="#F1F1F1" height="48" id="Upload Button" rx="2.5" ry="2.5" style="stroke:#181818;stroke-width:0.5;" width="131" x="2437.5" y="1358.2969"/><ellipse cx="2452.5" cy="1374.2969" fill="#ADD1B2" rx="11" ry="11" style="stroke:#181818;stroke-width:1.0;"/><path d="M2455.4688,1379.9375 Q2454.8906,1380.2344 2454.25,1380.375 Q2453.6094,1380.5313 2452.9063,1380.5313 Q2450.4063,1380.5313 2449.0781,1378.8906 Q2447.7656,1377.2344 2447.7656,1374.1094 Q2447.7656,1370.9844 2449.0781,1369.3281 Q2450.4063,1367.6719 2452.9063,1367.6719 Q2453.6094,1367.6719 2454.25,1367.8281 Q2454.9063,1367.9844 2455.4688,1368.2813 L2455.4688,1371 Q2454.8438,1370.4219 2454.25,1370.1563 Q2453.6563,1369.875 2453.0313,1369.875 Q2451.6875,1369.875 2451,1370.9531 Q2450.3125,1372.0156 2450.3125,1374.1094 Q2450.3125,1376.2031 2451,1377.2813 Q2451.6875,1378.3438 2453.0313,1378.3438 Q2453.6563,1378.3438 2454.25,1378.0781 Q2454.8438,1377.7969 2455.4688,1377.2188 L2455.4688,1379.9375 Z " fill="#000000"/><text fill="#000000" font-family="sans-serif" font-size="14" lengthAdjust="spacing" textLength="99" x="2466.5" y="1379.1436">Upload Button</text><line style="stroke:#181818;stroke-width:0.5;" x1="2438.5" x2="2567.5" y1="1390.2969" y2="1390.2969"/><line style="stroke:#181818;stroke-width:0.5;" x1="2438.5" x2="2567.5" y1="1398.2969" y2="1398.2969"/></g><!--class Result Text--><g id="elem_Result Text"><rect codeLine="108" fill="#F1F1F1" height="48" id="Result Text" rx="2.5" ry="2.5" style="stroke:#181818;stroke-width:0.5;" width="110" x="2448" y="670.2969"/><ellipse cx="2463" cy="686.2969" fill="#ADD1B2" rx="11" ry="11" style="stroke:#181818;stroke-width:1.0;"/><path d="M2465.9688,691.9375 Q2465.3906,692.2344 2464.75,692.375 Q2464.1094,692.5313 2463.4063,692.5313 Q2460.9063,692.5313 2459.5781,690.8906 Q2458.2656,689.2344 2458.2656,686.1094 Q2458.2656,682.9844 2459.5781,681.3281 Q2460.9063,679.6719 2463.4063,679.6719 Q2464.1094,679.6719 2464.75,679.8281 Q2465.4063,679.9844 2465.9688,680.2813 L2465.9688,683 Q2465.3438,682.4219 2464.75,682.1563 Q2464.1563,681.875 2463.5313,681.875 Q2462.1875,681.875 2461.5,682.9531 Q2460.8125,684.0156 2460.8125,686.1094 Q2460.8125,688.2031 2461.5,689.2813 Q2462.1875,690.3438 2463.5313,690.3438 Q2464.1563,690.3438 2464.75,690.0781 Q2465.3438,689.7969 2465.9688,689.2188 L2465.9688,691.9375 Z " fill="#000000"/><text fill="#000000" font-family="sans-serif" font-size="14" lengthAdjust="spacing" textLength="78" x="2477" y="691.1436">Result Text</text><line style="stroke:#181818;stroke-width:0.5;" x1="2449" x2="2557" y1="702.2969" y2="702.2969"/><line style="stroke:#181818;stroke-width:0.5;" x1="2449" x2="2557" y1="710.2969" y2="710.2969"/></g><!--class Graphs--><g id="elem_Graphs"><rect codeLine="110" fill="#F1F1F1" height="48" id="Graphs" rx="2.5" ry="2.5" style="stroke:#181818;stroke-width:0.5;" width="82" x="2462" y="587.2969"/><ellipse cx="2477" cy="603.2969" fill="#ADD1B2" rx="11" ry="11" style="stroke:#181818;stroke-width:1.0;"/><path d="M2479.9688,608.9375 Q2479.3906,609.2344 2478.75,609.375 Q2478.1094,609.5313 2477.4063,609.5313 Q2474.9063,609.5313 2473.5781,607.8906 Q2472.2656,606.2344 2472.2656,603.1094 Q2472.2656,599.9844 2473.5781,598.3281 Q2474.9063,596.6719 2477.4063,596.6719 Q2478.1094,596.6719 2478.75,596.8281 Q2479.4063,596.9844 2479.9688,597.2813 L2479.9688,600 Q2479.3438,599.4219 2478.75,599.1563 Q2478.1563,598.875 2477.5313,598.875 Q2476.1875,598.875 2475.5,599.9531 Q2474.8125,601.0156 2474.8125,603.1094 Q2474.8125,605.2031 2475.5,606.2813 Q2476.1875,607.3438 2477.5313,607.3438 Q2478.1563,607.3438 2478.75,607.0781 Q2479.3438,606.7969 2479.9688,606.2188 L2479.9688,608.9375 Z " fill="#000000"/><text fill="#000000" font-family="sans-serif" font-size="14" lengthAdjust="spacing" textLength="50" x="2491" y="608.1436">Graphs</text><line style="stroke:#181818;stroke-width:0.5;" x1="2463" x2="2543" y1="619.2969" y2="619.2969"/><line style="stroke:#181818;stroke-width:0.5;" x1="2463" x2="2543" y1="627.2969" y2="627.2969"/></g><!--class Advice Text--><g id="elem_Advice Text"><rect codeLine="115" fill="#F1F1F1" height="48" id="Advice Text" rx="2.5" ry="2.5" style="stroke:#181818;stroke-width:0.5;" width="111" x="2447.5" y="156.2969"/><ellipse cx="2462.5" cy="172.2969" fill="#ADD1B2" rx="11" ry="11" style="stroke:#181818;stroke-width:1.0;"/><path d="M2465.4688,177.9375 Q2464.8906,178.2344 2464.25,178.375 Q2463.6094,178.5313 2462.9063,178.5313 Q2460.4063,178.5313 2459.0781,176.8906 Q2457.7656,175.2344 2457.7656,172.1094 Q2457.7656,168.9844 2459.0781,167.3281 Q2460.4063,165.6719 2462.9063,165.6719 Q2463.6094,165.6719 2464.25,165.8281 Q2464.9063,165.9844 2465.4688,166.2813 L2465.4688,169 Q2464.8438,168.4219 2464.25,168.1563 Q2463.6563,167.875 2463.0313,167.875 Q2461.6875,167.875 2461,168.9531 Q2460.3125,170.0156 2460.3125,172.1094 Q2460.3125,174.2031 2461,175.2813 Q2461.6875,176.3438 2463.0313,176.3438 Q2463.6563,176.3438 2464.25,176.0781 Q2464.8438,175.7969 2465.4688,175.2188 L2465.4688,177.9375 Z " fill="#000000"/><text fill="#000000" font-family="sans-serif" font-size="14" lengthAdjust="spacing" textLength="79" x="2476.5" y="177.1436">Advice Text</text><line style="stroke:#181818;stroke-width:0.5;" x1="2448.5" x2="2557.5" y1="188.2969" y2="188.2969"/><line style="stroke:#181818;stroke-width:0.5;" x1="2448.5" x2="2557.5" y1="196.2969" y2="196.2969"/></g><!--class Record List--><g id="elem_Record List"><rect codeLine="120" fill="#F1F1F1" height="48" id="Record List" rx="2.5" ry="2.5" style="stroke:#181818;stroke-width:0.5;" width="109" x="2448.5" y="1698.2969"/><ellipse cx="2463.5" cy="1714.2969" fill="#ADD1B2" rx="11" ry="11" style="stroke:#181818;stroke-width:1.0;"/><path d="M2466.4688,1719.9375 Q2465.8906,1720.2344 2465.25,1720.375 Q2464.6094,1720.5313 2463.9063,1720.5313 Q2461.4063,1720.5313 2460.0781,1718.8906 Q2458.7656,1717.2344 2458.7656,1714.1094 Q2458.7656,1710.9844 2460.0781,1709.3281 Q2461.4063,1707.6719 2463.9063,1707.6719 Q2464.6094,1707.6719 2465.25,1707.8281 Q2465.9063,1707.9844 2466.4688,1708.2813 L2466.4688,1711 Q2465.8438,1710.4219 2465.25,1710.1563 Q2464.6563,1709.875 2464.0313,1709.875 Q2462.6875,1709.875 2462,1710.9531 Q2461.3125,1712.0156 2461.3125,1714.1094 Q2461.3125,1716.2031 2462,1717.2813 Q2462.6875,1718.3438 2464.0313,1718.3438 Q2464.6563,1718.3438 2465.25,1718.0781 Q2465.8438,1717.7969 2466.4688,1717.2188 L2466.4688,1719.9375 Z " fill="#000000"/><text fill="#000000" font-family="sans-serif" font-size="14" lengthAdjust="spacing" textLength="77" x="2477.5" y="1719.1436">Record List</text><line style="stroke:#181818;stroke-width:0.5;" x1="2449.5" x2="2556.5" y1="1730.2969" y2="1730.2969"/><line style="stroke:#181818;stroke-width:0.5;" x1="2449.5" x2="2556.5" y1="1738.2969" y2="1738.2969"/></g><!--class Detail View--><g id="elem_Detail View"><rect codeLine="122" fill="#F1F1F1" height="48" id="Detail View" rx="2.5" ry="2.5" style="stroke:#181818;stroke-width:0.5;" width="107" x="2449.5" y="1615.2969"/><ellipse cx="2464.5" cy="1631.2969" fill="#ADD1B2" rx="11" ry="11" style="stroke:#181818;stroke-width:1.0;"/><path d="M2467.4688,1636.9375 Q2466.8906,1637.2344 2466.25,1637.375 Q2465.6094,1637.5313 2464.9063,1637.5313 Q2462.4063,1637.5313 2461.0781,1635.8906 Q2459.7656,1634.2344 2459.7656,1631.1094 Q2459.7656,1627.9844 2461.0781,1626.3281 Q2462.4063,1624.6719 2464.9063,1624.6719 Q2465.6094,1624.6719 2466.25,1624.8281 Q2466.9063,1624.9844 2467.4688,1625.2813 L2467.4688,1628 Q2466.8438,1627.4219 2466.25,1627.1563 Q2465.6563,1626.875 2465.0313,1626.875 Q2463.6875,1626.875 2463,1627.9531 Q2462.3125,1629.0156 2462.3125,1631.1094 Q2462.3125,1633.2031 2463,1634.2813 Q2463.6875,1635.3438 2465.0313,1635.3438 Q2465.6563,1635.3438 2466.25,1635.0781 Q2466.8438,1634.7969 2467.4688,1634.2188 L2467.4688,1636.9375 Z " fill="#000000"/><text fill="#000000" font-family="sans-serif" font-size="14" lengthAdjust="spacing" textLength="75" x="2478.5" y="1636.1436">Detail View</text><line style="stroke:#181818;stroke-width:0.5;" x1="2450.5" x2="2555.5" y1="1647.2969" y2="1647.2969"/><line style="stroke:#181818;stroke-width:0.5;" x1="2450.5" x2="2555.5" y1="1655.2969" y2="1655.2969"/></g><!--class Share Options--><g id="elem_Share Options"><rect codeLine="127" fill="#F1F1F1" height="48" id="Share Options" rx="2.5" ry="2.5" style="stroke:#181818;stroke-width:0.5;" width="130" x="2438" y="413.2969"/><ellipse cx="2453" cy="429.2969" fill="#ADD1B2" rx="11" ry="11" style="stroke:#181818;stroke-width:1.0;"/><path d="M2455.9688,434.9375 Q2455.3906,435.2344 2454.75,435.375 Q2454.1094,435.5313 2453.4063,435.5313 Q2450.9063,435.5313 2449.5781,433.8906 Q2448.2656,432.2344 2448.2656,429.1094 Q2448.2656,425.9844 2449.5781,424.3281 Q2450.9063,422.6719 2453.4063,422.6719 Q2454.1094,422.6719 2454.75,422.8281 Q2455.4063,422.9844 2455.9688,423.2813 L2455.9688,426 Q2455.3438,425.4219 2454.75,425.1563 Q2454.1563,424.875 2453.5313,424.875 Q2452.1875,424.875 2451.5,425.9531 Q2450.8125,427.0156 2450.8125,429.1094 Q2450.8125,431.2031 2451.5,432.2813 Q2452.1875,433.3438 2453.5313,433.3438 Q2454.1563,433.3438 2454.75,433.0781 Q2455.3438,432.7969 2455.9688,432.2188 L2455.9688,434.9375 Z " fill="#000000"/><text fill="#000000" font-family="sans-serif" font-size="14" lengthAdjust="spacing" textLength="98" x="2467" y="434.1436">Share Options</text><line style="stroke:#181818;stroke-width:0.5;" x1="2439" x2="2567" y1="445.2969" y2="445.2969"/><line style="stroke:#181818;stroke-width:0.5;" x1="2439" x2="2567" y1="453.2969" y2="453.2969"/></g><!--class Confirm Button--><g id="elem_Confirm Button"><rect codeLine="129" fill="#F1F1F1" height="48" id="Confirm Button" rx="2.5" ry="2.5" style="stroke:#181818;stroke-width:0.5;" width="136" x="2435" y="330.2969"/><ellipse cx="2450" cy="346.2969" fill="#ADD1B2" rx="11" ry="11" style="stroke:#181818;stroke-width:1.0;"/><path d="M2452.9688,351.9375 Q2452.3906,352.2344 2451.75,352.375 Q2451.1094,352.5313 2450.4063,352.5313 Q2447.9063,352.5313 2446.5781,350.8906 Q2445.2656,349.2344 2445.2656,346.1094 Q2445.2656,342.9844 2446.5781,341.3281 Q2447.9063,339.6719 2450.4063,339.6719 Q2451.1094,339.6719 2451.75,339.8281 Q2452.4063,339.9844 2452.9688,340.2813 L2452.9688,343 Q2452.3438,342.4219 2451.75,342.1563 Q2451.1563,341.875 2450.5313,341.875 Q2449.1875,341.875 2448.5,342.9531 Q2447.8125,344.0156 2447.8125,346.1094 Q2447.8125,348.2031 2448.5,349.2813 Q2449.1875,350.3438 2450.5313,350.3438 Q2451.1563,350.3438 2451.75,350.0781 Q2452.3438,349.7969 2452.9688,349.2188 L2452.9688,351.9375 Z " fill="#000000"/><text fill="#000000" font-family="sans-serif" font-size="14" lengthAdjust="spacing" textLength="104" x="2464" y="351.1436">Confirm Button</text><line style="stroke:#181818;stroke-width:0.5;" x1="2436" x2="2570" y1="362.2969" y2="362.2969"/><line style="stroke:#181818;stroke-width:0.5;" x1="2436" x2="2570" y1="370.2969" y2="370.2969"/></g><!--class User--><g id="elem_User"><rect fill="#F1F1F1" height="48" id="User" rx="2.5" ry="2.5" style="stroke:#181818;stroke-width:0.5;" width="64" x="228.5" y="859.2969"/><ellipse cx="243.5" cy="875.2969" fill="#ADD1B2" rx="11" ry="11" style="stroke:#181818;stroke-width:1.0;"/><path d="M246.4688,880.9375 Q245.8906,881.2344 245.25,881.375 Q244.6094,881.5313 243.9063,881.5313 Q241.4063,881.5313 240.0781,879.8906 Q238.7656,878.2344 238.7656,875.1094 Q238.7656,871.9844 240.0781,870.3281 Q241.4063,868.6719 243.9063,868.6719 Q244.6094,868.6719 245.25,868.8281 Q245.9063,868.9844 246.4688,869.2813 L246.4688,872 Q245.8438,871.4219 245.25,871.1563 Q244.6563,870.875 244.0313,870.875 Q242.6875,870.875 242,871.9531 Q241.3125,873.0156 241.3125,875.1094 Q241.3125,877.2031 242,878.2813 Q242.6875,879.3438 244.0313,879.3438 Q244.6563,879.3438 245.25,879.0781 Q245.8438,878.7969 246.4688,878.2188 L246.4688,880.9375 Z " fill="#000000"/><text fill="#000000" font-family="sans-serif" font-size="14" lengthAdjust="spacing" textLength="32" x="257.5" y="880.1436">User</text><line style="stroke:#181818;stroke-width:0.5;" x1="229.5" x2="291.5" y1="891.2969" y2="891.2969"/><line style="stroke:#181818;stroke-width:0.5;" x1="229.5" x2="291.5" y1="899.2969" y2="899.2969"/></g><!--link Controller to KaggleModel--><g id="link_Controller_KaggleModel"><path codeLine="135" d="M499.41,241.4869 C552.15,249.2969 599.8646,256.3491 645.2346,263.0591 " fill="none" id="Controller-to-KaggleModel" style="stroke:#181818;stroke-width:1.0;stroke-dasharray:7.0,7.0;"/><polygon fill="#181818" points="651.17,263.9369,642.8521,258.6632,646.2238,263.2054,641.6816,266.5771,651.17,263.9369" style="stroke:#181818;stroke-width:1.0;"/><text fill="#000000" font-family="sans-serif" font-size="13" lengthAdjust="spacing" textLength="39" x="530" y="242.3638">&#171;use&#187;</text></g><!--link Controller to Database--><g id="link_Controller_Database"><path codeLine="136" d="M499.41,187.0569 C533.24,184.3169 561.4695,182.0405 593.6195,179.4405 " fill="none" id="Controller-to-Database" style="stroke:#181818;stroke-width:1.0;stroke-dasharray:7.0,7.0;"/><polygon fill="#181818" points="599.6,178.9569,590.3069,175.6954,594.6163,179.3599,590.9517,183.6693,599.6,178.9569" style="stroke:#181818;stroke-width:1.0;"/><text fill="#000000" font-family="sans-serif" font-size="13" lengthAdjust="spacing" textLength="39" x="530" y="178.3638">&#171;use&#187;</text></g><!--link User to MainScreen--><g id="link_User_MainScreen"><path codeLine="139" d="M292.83,883.2969 C367.15,883.2969 550.57,883.2969 666.71,883.2969 " fill="none" id="User-to-MainScreen" style="stroke:#181818;stroke-width:1.0;"/><polygon fill="#181818" points="672.71,883.2969,663.71,879.2969,667.71,883.2969,663.71,887.2969,672.71,883.2969" style="stroke:#181818;stroke-width:1.0;"/><text fill="#000000" font-family="sans-serif" font-size="13" lengthAdjust="spacing" textLength="32" x="533.5" y="879.3638">Uses</text></g><!--link MainScreen to RegistrationScreen--><g id="link_MainScreen_RegistrationScreen"><path codeLine="140" d="M821.85,834.5769 C877.87,783.5769 972.03,704.0169 1065,653.2969 C1075.81,647.3969 1081.6751,644.2957 1093.2451,638.9957 " fill="none" id="MainScreen-to-RegistrationScreen" style="stroke:#181818;stroke-width:1.0;"/><polygon fill="#181818" points="1098.7,636.4969,1088.8518,636.6085,1094.1542,638.5792,1092.1835,643.8817,1098.7,636.4969" style="stroke:#181818;stroke-width:1.0;"/><text fill="#000000" font-family="sans-serif" font-size="13" lengthAdjust="spacing" textLength="62" x="972" y="670.3638">navigates</text></g><!--link MainScreen to LoginScreen--><g id="link_MainScreen_LoginScreen"><path codeLine="141" d="M866.39,883.2969 C931.13,883.2969 1013,883.2969 1092.72,883.2969 " fill="none" id="MainScreen-to-LoginScreen" style="stroke:#181818;stroke-width:1.0;"/><polygon fill="#181818" points="1098.72,883.2969,1089.72,879.2969,1093.72,883.2969,1089.72,887.2969,1098.72,883.2969" style="stroke:#181818;stroke-width:1.0;"/><text fill="#000000" font-family="sans-serif" font-size="13" lengthAdjust="spacing" textLength="62" x="972" y="879.3638">navigates</text></g><!--link MainScreen to UploadScreen--><g id="link_MainScreen_UploadScreen"><path codeLine="142" d="M866.39,855.0469 C956.69,828.4469 1086.2146,790.2827 1181.6146,762.1727 " fill="none" id="MainScreen-to-UploadScreen" style="stroke:#181818;stroke-width:1.0;"/><polygon fill="#181818" points="1187.37,760.4769,1177.6064,759.1837,1182.5739,761.8901,1179.8675,766.8575,1187.37,760.4769" style="stroke:#181818;stroke-width:1.0;"/><text fill="#000000" font-family="sans-serif" font-size="13" lengthAdjust="spacing" textLength="62" x="972" y="804.3638">navigates</text></g><!--link UploadScreen to ResultDisplayScreen--><g id="link_UploadScreen_ResultDisplayScreen"><path codeLine="143" d="M1414.75,721.8969 C1499.15,717.8569 1607.8369,712.6442 1690.6569,708.6742 " fill="none" id="UploadScreen-to-ResultDisplayScreen" style="stroke:#181818;stroke-width:1.0;"/><polygon fill="#181818" points="1696.65,708.3869,1687.4688,704.8224,1691.6557,708.6263,1687.8518,712.8132,1696.65,708.3869" style="stroke:#181818;stroke-width:1.0;"/><text fill="#000000" font-family="sans-serif" font-size="13" lengthAdjust="spacing" textLength="98" x="1568" y="707.3638">uploads lead to</text></g><!--link ResultDisplayScreen to AdviceDisplayScreen--><g id="link_ResultDisplayScreen_AdviceDisplayScreen"><path codeLine="144" d="M1904.77,662.5569 C1961.73,639.2969 2027.3551,612.5047 2084.3051,589.2547 " fill="none" id="ResultDisplayScreen-to-AdviceDisplayScreen" style="stroke:#181818;stroke-width:1.0;"/><polygon fill="#181818" points="2089.86,586.9869,2080.0158,586.6853,2085.2309,588.8767,2083.0395,594.0919,2089.86,586.9869" style="stroke:#181818;stroke-width:1.0;"/><text fill="#000000" font-family="sans-serif" font-size="13" lengthAdjust="spacing" textLength="91" x="1942" y="607.3638">results lead to</text></g><!--link MainScreen to HistoryRecordScreen--><g id="link_MainScreen_HistoryRecordScreen"><path codeLine="145" d="M866.39,914.6269 C943.73,939.8969 1048.3567,974.0734 1138.3667,1003.4834 " fill="none" id="MainScreen-to-HistoryRecordScreen" style="stroke:#181818;stroke-width:1.0;"/><polygon fill="#181818" points="1144.07,1005.3469,1136.7574,998.7494,1139.3173,1003.794,1134.2728,1006.3538,1144.07,1005.3469" style="stroke:#181818;stroke-width:1.0;"/><text fill="#000000" font-family="sans-serif" font-size="13" lengthAdjust="spacing" textLength="62" x="972" y="945.3638">navigates</text></g><!--link ResultDisplayScreen to ShareScreen--><g id="link_ResultDisplayScreen_ShareScreen"><path codeLine="146" d="M1911.34,691.9569 C1959.13,686.8669 2009.8638,681.4531 2059.5638,676.1531 " fill="none" id="ResultDisplayScreen-to-ShareScreen" style="stroke:#181818;stroke-width:1.0;"/><polygon fill="#181818" points="2065.53,675.5169,2056.1566,672.4938,2060.5582,676.0471,2057.0049,680.4487,2065.53,675.5169" style="stroke:#181818;stroke-width:1.0;"/><text fill="#000000" font-family="sans-serif" font-size="13" lengthAdjust="spacing" textLength="64" x="1955.5" y="675.3638">options to</text></g><!--link MainScreen to MainScreen UI--><g id="link_MainScreen_MainScreen UI"><path codeLine="149" d="M776.4,932.0569 C801.41,1114.1969 915.69,1744.2969 1300,1744.2969 C1300,1744.2969 1300,1744.2969 2191.5,1744.2969 C2262.405,1744.2969 2338.73,1766.8269 2397.9638,1789.7081 C2412.7722,1795.4284 2426.5124,1801.1707 2438.8327,1806.5884 C2440.3728,1807.2656 2441.8906,1807.9377 2443.3856,1808.6041 C2444.1331,1808.9373 2444.8748,1809.2691 2445.6108,1809.5993 C2445.9788,1809.7644 2440.8742,1807.4662 2441.2392,1807.6305 " fill="none" id="MainScreen-to-MainScreen UI" style="stroke:#181818;stroke-width:1.0;"/><polygon fill="#181818" points="2446.7104,1810.0935,2440.1456,1802.7516,2442.1511,1808.041,2436.8616,1810.0465,2446.7104,1810.0935" style="stroke:#181818;stroke-width:1.0;"/></g><!--link RegistrationScreen to RegistrationScreen UI--><g id="link_RegistrationScreen_RegistrationScreen UI"><path codeLine="150" d="M1516.28,636.4569 C1523.58,641.6569 1530.52,647.2569 1537,653.2969 C1561.75,676.3869 1541.67,700.8469 1567,723.2969 C1644.47,791.9519 1875.1875,813.6544 2088.0363,818.0931 C2194.4606,820.3125 2296.4178,818.2159 2372.5183,815.5145 C2382.0308,815.1769 2391.1394,814.8297 2399.8021,814.4804 C2401.9678,814.3931 2404.1057,814.3056 2406.215,814.2181 C2407.2696,814.1744 2402.3225,814.3827 2403.3628,814.3389 " fill="none" id="RegistrationScreen-to-RegistrationScreen UI" style="stroke:#181818;stroke-width:1.0;"/><polygon fill="#181818" points="2409.3575,814.0869,2400.1974,810.4685,2404.3619,814.2969,2400.5335,818.4614,2409.3575,814.0869" style="stroke:#181818;stroke-width:1.0;"/></g><!--link LoginScreen to LoginScreen UI--><g id="link_LoginScreen_LoginScreen UI"><path codeLine="151" d="M1490.34,948.5169 C1506.18,954.3869 1521.9,960.3669 1537,966.2969 C1550.53,971.6069 1552.92,975.6869 1567,979.2969 C1767.565,1030.6919 1999.245,1052.5044 2181.8063,1061.4369 C2273.0869,1065.9031 2352.0878,1067.1494 2408.7798,1067.2634 C2410.5515,1067.267 2412.3013,1067.2695 2414.0291,1067.2709 C2414.8929,1067.2716 2409.7513,1067.2707 2410.6041,1067.2709 " fill="none" id="LoginScreen-to-LoginScreen UI" style="stroke:#181818;stroke-width:1.0;"/><polygon fill="#181818" points="2416.6041,1067.2722,2407.6041,1063.2722,2411.6041,1067.2722,2407.6041,1071.2722,2416.6041,1067.2722" style="stroke:#181818;stroke-width:1.0;"/></g><!--link UploadScreen to UploadScreen UI--><g id="link_UploadScreen_UploadScreen UI"><path codeLine="152" d="M1414.95,760.0169 C1453.95,772.0669 1497.69,786.4269 1537,801.2969 C1763.1,886.8469 1823.46,903.4969 2034,1022.2969 C2186.91,1108.5769 2207.83,1157.3369 2358,1248.2969 C2373.19,1257.4969 2389.6244,1266.7106 2405.7708,1275.3742 C2413.844,1279.706 2421.8452,1283.9003 2429.5829,1287.8865 C2433.4517,1289.8796 2437.2547,1291.8207 2440.9678,1293.701 C2441.8961,1294.1711 2442.8187,1294.6374 2443.7354,1295.0997 C2444.1938,1295.3309 2444.6506,1295.561 2445.1059,1295.7902 C2445.3336,1295.9048 2440.2004,1293.3236 2440.4273,1293.4377 " fill="none" id="UploadScreen-to-UploadScreen UI" style="stroke:#181818;stroke-width:1.0;"/><polygon fill="#181818" points="2445.7877,1296.1332,2439.5441,1288.5163,2441.3207,1293.8869,2435.95,1295.6635,2445.7877,1296.1332" style="stroke:#181818;stroke-width:1.0;"/></g><!--link ResultDisplayScreen to ResultDisplayScreen UI--><g id="link_ResultDisplayScreen_ResultDisplayScreen UI"><path codeLine="153" d="M1907.7,744.0669 C2027.33,784.0369 2223.52,825.1369 2341,720.2969 C2365.86,698.1069 2334.64,595.0669 2358,571.2969 C2369.135,559.9644 2383.5106,553.0588 2398.8575,549.0875 C2400.7759,548.5911 2396.8371,549.3717 2398.7813,548.9641 " fill="none" id="ResultDisplayScreen-to-ResultDisplayScreen UI" style="stroke:#181818;stroke-width:1.0;"/><polygon fill="#181818" points="2404.6537,547.7329,2395.0244,545.6647,2399.7601,548.7589,2396.6659,553.4945,2404.6537,547.7329" style="stroke:#181818;stroke-width:1.0;"/></g><!--link AdviceDisplayScreen to AdviceDisplayScreen UI--><g id="link_AdviceDisplayScreen_AdviceDisplayScreen UI"><path codeLine="154" d="M2195.08,505.4969 C2204.78,421.9669 2239.41,231.6569 2358,140.2969 C2370.585,130.6019 2385.6969,124.5281 2401.3297,120.8805 C2401.8182,120.7665 2396.4514,121.9623 2396.9409,121.853 " fill="none" id="AdviceDisplayScreen-to-AdviceDisplayScreen UI" style="stroke:#181818;stroke-width:1.0;"/><polygon fill="#181818" points="2402.7967,120.5456,2393.1414,118.6028,2397.9169,121.6351,2394.8846,126.4106,2402.7967,120.5456" style="stroke:#181818;stroke-width:1.0;"/></g><!--link HistoryRecordScreen to HistoryRecordScreen UI--><g id="link_HistoryRecordScreen_HistoryRecordScreen UI"><path codeLine="155" d="M1457.96,1124.3969 C1619.11,1194.7669 1877.3175,1307.5169 2096.6225,1403.2794 C2206.275,1451.1606 2306.2019,1494.795 2379.4081,1526.7616 C2397.7097,1534.7532 2414.3412,1542.0156 2429.0371,1548.4328 C2432.7111,1550.0371 2430.7655,1549.1875 2434.1934,1550.6844 " fill="none" id="HistoryRecordScreen-to-HistoryRecordScreen UI" style="stroke:#181818;stroke-width:1.0;"/><polygon fill="#181818" points="2439.692,1553.0854,2433.0448,1545.8181,2435.1098,1551.0846,2429.8434,1553.1496,2439.692,1553.0854" style="stroke:#181818;stroke-width:1.0;"/></g><!--link ShareScreen to ShareScreen UI--><g id="link_ShareScreen_ShareScreen UI"><path codeLine="156" d="M2315.47,628.5169 C2325.26,621.8469 2334.03,613.8569 2341,604.2969 C2350.5,591.2569 2347.01,326.1169 2358,314.2969 C2368.8175,302.6619 2383.0319,295.6025 2398.3161,291.5714 C2402.1371,290.5636 2406.0251,289.7451 2409.9435,289.0917 C2410.1884,289.0509 2404.51,289.9665 2404.7552,289.9269 " fill="none" id="ShareScreen-to-ShareScreen UI" style="stroke:#181818;stroke-width:1.0;"/><polygon fill="#181818" points="2410.6785,288.9711,2401.1563,286.4559,2405.7424,289.7676,2402.4307,294.3537,2410.6785,288.9711" style="stroke:#181818;stroke-width:1.0;"/></g><!--SRC=[hLVDRkCs4BxhAGQvr4Ltzm6CHG3NQLgZIHl4wxtJqbWYGfCgITbDYxnxXwHiKnAbfDdrmRB9Z_FD_r2MMu6mvljQy1t70fQ26GCtd9MQxU78RGMR5IpLlbOIfJMmKneMDS5pPhcIMIPmPy4gqBoiB1HSOnusQfO_iHBXQYau7IMM0g_WtmpeatkQUyRbEjU8ibrsdvyC2XAngOLYnIqossYS_TZV_eqRg_HpOb-o0o-PnI_g8hxTVucu7x4a4TeRaT2XKaT2t2gzZsLpMJUMrbTofsQDGItP7kUmjfhByWFK9FYeT75PmJtZulGtDgBPxlbtaLHmKmlsl5Hon_NUcpCRRl-YjT8pTD_tfkoAYRrofqe-uWw_bNJ8KcD10UPCc3UOCl32ku-tjWt2_1x3GxgbBMzJCMNwGwMicWrC2ikr-vx3BHVuViKUqJJ2teH3Oudg86QcmtCETvJPGyO9M4ouA0uynqd29TCOO3Fc7nDvEGsDYTkIViISmZtM5iRhlYLi0RCgF9sD0uS4KO68tE4UAqgmbUo0l6VTtWrQgZqpYimhfGmkVDkRCV-uvE_OeLRTJLrGhofEMW-zigx8W-am-Aq_QyTdPWDz7WIpEvUpTVkZx_cNg4MlKHzG9reqzHMhbH2q6R4VcE1Ex-_HmCWqahJ8SzL8-qsIJbgzkw7Gp9EMD44pFDZnB-PFliIff6Wp3n58bpkJJ3p_WmjPF91QX1t1QVoh8MbHlNJgbFHE7YjHedOs_yzpBLqtxzgTLkLNwgEW8h8Je3Y9VsTbAV1UqPauZTxWcrZA3RDiomp68dPeyofXHLE7_1ngzm4adbhce3DetAl3f55KDJ_qhaJaUYXmnoNTdogaFzl6WbHq6VADWrQv14iDYMv7uLxbBb5RZGTkdoyrs15wgiBpRdHNsgok8XS4trpz4Quzb8dmSsCj9MGCUkd3smOAgpo992ixx8dRKbABbHkA53uKnJJ_si_9LjNN-UDxoRSHUqblvkrS2vB4lW_0sayKfIUfWx0tSwScVrA508Gl-BUTvFzLixfwGx1JDu0aSG2E4FUbfiRxY3aEuIjpqfmmbk4hn-FhxF4OJR9w0BJJT9AtlMfFnD7tY3ikdsXkG3HQWKdtXdL-6uByNEzPD6W_VRhkTCmvVFvCu-ZwkWywDyGBWeY_SjCmGHSFuSlLLBmsi4LxTBORxmBZDQ4nAc7No32_iWrDFFZuyJf-BPi3hPeiMd60H3UOm-czQu2EQtS2rYcr6DVP2FJ3mfX3us4615ADMPMbKEvqAhldq0xDy-cUSgdaZNKS8ulJRWugP9UJtoQ8coIN972lqRP2hfqwjNkFFk0fOXsD2dMK9Bqt5B94NCxGT0VFuk2SiRrksul02TNlZMadNFYJtInBXUDyQAGJPQbmd0-DD9eiZiKPtEiB_m40]--></g></svg>