<?xml version="1.0" encoding="us-ascii" standalone="no"?><svg xmlns="http://www.w3.org/2000/svg" xmlns:xlink="http://www.w3.org/1999/xlink" contentStyleType="text/css" height="1055px" preserveAspectRatio="none" style="width:2158px;height:1055px;background:#FFFFFF;" version="1.1" viewBox="0 0 2158 1055" width="2158px" zoomAndPan="magnify"><defs/><g><text fill="#000000" font-family="sans-serif" font-size="14" font-weight="bold" lengthAdjust="spacing" textLength="545" x="799.75" y="22.9951">Application Overall Class Diagram - Functions and Stored Contents</text><!--class WelcomeScreen--><g id="elem_WelcomeScreen"><rect codeLine="3" fill="#F1F1F1" height="48" id="WelcomeScreen" rx="2.5" ry="2.5" style="stroke:#181818;stroke-width:0.5;" width="149" x="578" y="68.7969"/><ellipse cx="593" cy="84.7969" fill="#ADD1B2" rx="11" ry="11" style="stroke:#181818;stroke-width:1.0;"/><path d="M595.3438,80.4688 C594.4063,80.0313 593.8125,79.8906 592.9375,79.8906 C590.3125,79.8906 588.3125,81.9688 588.3125,84.6875 L588.3125,85.8125 C588.3125,88.3906 590.4219,90.2813 593.3125,90.2813 C594.5313,90.2813 595.6875,89.9844 596.4375,89.4375 C597.0156,89.0313 597.3438,88.5781 597.3438,88.1875 C597.3438,87.7344 596.9531,87.3438 596.4844,87.3438 C596.2656,87.3438 596.0625,87.4219 595.875,87.6094 C595.4219,88.0938 595.4219,88.0938 595.2344,88.1875 C594.8125,88.4531 594.125,88.5781 593.3594,88.5781 C591.3125,88.5781 590.0156,87.4844 590.0156,85.7813 L590.0156,84.6875 C590.0156,82.9063 591.2656,81.5938 593,81.5938 C593.5781,81.5938 594.1875,81.75 594.6563,82 C595.1406,82.2813 595.3125,82.5 595.4063,82.9063 C595.4688,83.3125 595.5,83.4375 595.6406,83.5625 C595.7813,83.7031 596.0156,83.8125 596.2344,83.8125 C596.5,83.8125 596.7656,83.6719 596.9375,83.4531 C597.0469,83.2969 597.0781,83.1094 597.0781,82.6875 L597.0781,81.2656 C597.0781,80.8281 597.0625,80.7031 596.9688,80.5469 C596.8125,80.2813 596.5313,80.1406 596.2344,80.1406 C595.9375,80.1406 595.7344,80.2344 595.5156,80.5469 L595.3438,80.4688 Z " fill="#000000"/><text fill="#000000" font-family="sans-serif" font-size="14" lengthAdjust="spacing" textLength="117" x="607" y="89.6436">WelcomeScreen</text><line style="stroke:#181818;stroke-width:0.5;" x1="579" x2="726" y1="100.7969" y2="100.7969"/><line style="stroke:#181818;stroke-width:0.5;" x1="579" x2="726" y1="108.7969" y2="108.7969"/></g><!--class RegistrationScreen--><g id="elem_RegistrationScreen"><rect codeLine="6" fill="#F1F1F1" height="129.4844" id="RegistrationScreen" rx="2.5" ry="2.5" style="stroke:#181818;stroke-width:0.5;" width="493" x="283" y="226.7969"/><ellipse cx="455.75" cy="242.7969" fill="#ADD1B2" rx="11" ry="11" style="stroke:#181818;stroke-width:1.0;"/><path d="M458.0938,238.4688 C457.1563,238.0313 456.5625,237.8906 455.6875,237.8906 C453.0625,237.8906 451.0625,239.9688 451.0625,242.6875 L451.0625,243.8125 C451.0625,246.3906 453.1719,248.2813 456.0625,248.2813 C457.2813,248.2813 458.4375,247.9844 459.1875,247.4375 C459.7656,247.0313 460.0938,246.5781 460.0938,246.1875 C460.0938,245.7344 459.7031,245.3438 459.2344,245.3438 C459.0156,245.3438 458.8125,245.4219 458.625,245.6094 C458.1719,246.0938 458.1719,246.0938 457.9844,246.1875 C457.5625,246.4531 456.875,246.5781 456.1094,246.5781 C454.0625,246.5781 452.7656,245.4844 452.7656,243.7813 L452.7656,242.6875 C452.7656,240.9063 454.0156,239.5938 455.75,239.5938 C456.3281,239.5938 456.9375,239.75 457.4063,240 C457.8906,240.2813 458.0625,240.5 458.1563,240.9063 C458.2188,241.3125 458.25,241.4375 458.3906,241.5625 C458.5313,241.7031 458.7656,241.8125 458.9844,241.8125 C459.25,241.8125 459.5156,241.6719 459.6875,241.4531 C459.7969,241.2969 459.8281,241.1094 459.8281,240.6875 L459.8281,239.2656 C459.8281,238.8281 459.8125,238.7031 459.7188,238.5469 C459.5625,238.2813 459.2813,238.1406 458.9844,238.1406 C458.6875,238.1406 458.4844,238.2344 458.2656,238.5469 L458.0938,238.4688 Z " fill="#000000"/><text fill="#000000" font-family="sans-serif" font-size="14" lengthAdjust="spacing" textLength="139" x="476.25" y="247.6436">RegistrationScreen</text><line style="stroke:#181818;stroke-width:0.5;" x1="284" x2="775" y1="258.7969" y2="258.7969"/><line style="stroke:#181818;stroke-width:0.5;" x1="284" x2="775" y1="266.7969" y2="266.7969"/><ellipse cx="294" cy="280.4453" fill="#84BE84" rx="3" ry="3" style="stroke:#038048;stroke-width:1.0;"/><text fill="#000000" font-family="sans-serif" font-size="14" lengthAdjust="spacing" textLength="111" x="303" y="283.792">showRegForm()</text><ellipse cx="294" cy="296.7422" fill="#84BE84" rx="3" ry="3" style="stroke:#038048;stroke-width:1.0;"/><text fill="#000000" font-family="sans-serif" font-size="14" lengthAdjust="spacing" textLength="455" x="303" y="300.0889">inputRegInfo(username: String, password: String, email: String)</text><ellipse cx="294" cy="313.0391" fill="#84BE84" rx="3" ry="3" style="stroke:#038048;stroke-width:1.0;"/><text fill="#000000" font-family="sans-serif" font-size="14" lengthAdjust="spacing" textLength="467" x="303" y="316.3857">submitRegInfo(username: String, password: String, email: String)</text><ellipse cx="294" cy="329.3359" fill="#84BE84" rx="3" ry="3" style="stroke:#038048;stroke-width:1.0;"/><text fill="#000000" font-family="sans-serif" font-size="14" lengthAdjust="spacing" textLength="155" x="303" y="332.6826">displayConfirmation()</text><ellipse cx="294" cy="345.6328" fill="#84BE84" rx="3" ry="3" style="stroke:#038048;stroke-width:1.0;"/><text fill="#000000" font-family="sans-serif" font-size="14" lengthAdjust="spacing" textLength="213" x="303" y="348.9795">displayError(errorMsg: String)</text></g><!--class LoginScreen--><g id="elem_LoginScreen"><rect codeLine="14" fill="#F1F1F1" height="129.4844" id="LoginScreen" rx="2.5" ry="2.5" style="stroke:#181818;stroke-width:0.5;" width="419" x="811" y="226.7969"/><ellipse cx="971.75" cy="242.7969" fill="#ADD1B2" rx="11" ry="11" style="stroke:#181818;stroke-width:1.0;"/><path d="M974.0938,238.4688 C973.1563,238.0313 972.5625,237.8906 971.6875,237.8906 C969.0625,237.8906 967.0625,239.9688 967.0625,242.6875 L967.0625,243.8125 C967.0625,246.3906 969.1719,248.2813 972.0625,248.2813 C973.2813,248.2813 974.4375,247.9844 975.1875,247.4375 C975.7656,247.0313 976.0938,246.5781 976.0938,246.1875 C976.0938,245.7344 975.7031,245.3438 975.2344,245.3438 C975.0156,245.3438 974.8125,245.4219 974.625,245.6094 C974.1719,246.0938 974.1719,246.0938 973.9844,246.1875 C973.5625,246.4531 972.875,246.5781 972.1094,246.5781 C970.0625,246.5781 968.7656,245.4844 968.7656,243.7813 L968.7656,242.6875 C968.7656,240.9063 970.0156,239.5938 971.75,239.5938 C972.3281,239.5938 972.9375,239.75 973.4063,240 C973.8906,240.2813 974.0625,240.5 974.1563,240.9063 C974.2188,241.3125 974.25,241.4375 974.3906,241.5625 C974.5313,241.7031 974.7656,241.8125 974.9844,241.8125 C975.25,241.8125 975.5156,241.6719 975.6875,241.4531 C975.7969,241.2969 975.8281,241.1094 975.8281,240.6875 L975.8281,239.2656 C975.8281,238.8281 975.8125,238.7031 975.7188,238.5469 C975.5625,238.2813 975.2813,238.1406 974.9844,238.1406 C974.6875,238.1406 974.4844,238.2344 974.2656,238.5469 L974.0938,238.4688 Z " fill="#000000"/><text fill="#000000" font-family="sans-serif" font-size="14" lengthAdjust="spacing" textLength="89" x="992.25" y="247.6436">LoginScreen</text><line style="stroke:#181818;stroke-width:0.5;" x1="812" x2="1229" y1="258.7969" y2="258.7969"/><line style="stroke:#181818;stroke-width:0.5;" x1="812" x2="1229" y1="266.7969" y2="266.7969"/><ellipse cx="822" cy="280.4453" fill="#84BE84" rx="3" ry="3" style="stroke:#038048;stroke-width:1.0;"/><text fill="#000000" font-family="sans-serif" font-size="14" lengthAdjust="spacing" textLength="122" x="831" y="283.792">showLoginForm()</text><ellipse cx="822" cy="296.7422" fill="#84BE84" rx="3" ry="3" style="stroke:#038048;stroke-width:1.0;"/><text fill="#000000" font-family="sans-serif" font-size="14" lengthAdjust="spacing" textLength="381" x="831" y="300.0889">inputCredentials(username: String, password: String)</text><ellipse cx="822" cy="313.0391" fill="#84BE84" rx="3" ry="3" style="stroke:#038048;stroke-width:1.0;"/><text fill="#000000" font-family="sans-serif" font-size="14" lengthAdjust="spacing" textLength="393" x="831" y="316.3857">submitCredentials(username: String, password: String)</text><ellipse cx="822" cy="329.3359" fill="#84BE84" rx="3" ry="3" style="stroke:#038048;stroke-width:1.0;"/><text fill="#000000" font-family="sans-serif" font-size="14" lengthAdjust="spacing" textLength="143" x="831" y="332.6826">displayMainScreen()</text><ellipse cx="822" cy="345.6328" fill="#84BE84" rx="3" ry="3" style="stroke:#038048;stroke-width:1.0;"/><text fill="#000000" font-family="sans-serif" font-size="14" lengthAdjust="spacing" textLength="213" x="831" y="348.9795">displayError(errorMsg: String)</text></g><!--class MainScreen--><g id="elem_MainScreen"><rect codeLine="22" fill="#F1F1F1" height="96.8906" id="MainScreen" rx="2.5" ry="2.5" style="stroke:#181818;stroke-width:0.5;" width="199" x="1444" y="44.2969"/><ellipse cx="1497.75" cy="60.2969" fill="#ADD1B2" rx="11" ry="11" style="stroke:#181818;stroke-width:1.0;"/><path d="M1500.0938,55.9688 C1499.1563,55.5313 1498.5625,55.3906 1497.6875,55.3906 C1495.0625,55.3906 1493.0625,57.4688 1493.0625,60.1875 L1493.0625,61.3125 C1493.0625,63.8906 1495.1719,65.7813 1498.0625,65.7813 C1499.2813,65.7813 1500.4375,65.4844 1501.1875,64.9375 C1501.7656,64.5313 1502.0938,64.0781 1502.0938,63.6875 C1502.0938,63.2344 1501.7031,62.8438 1501.2344,62.8438 C1501.0156,62.8438 1500.8125,62.9219 1500.625,63.1094 C1500.1719,63.5938 1500.1719,63.5938 1499.9844,63.6875 C1499.5625,63.9531 1498.875,64.0781 1498.1094,64.0781 C1496.0625,64.0781 1494.7656,62.9844 1494.7656,61.2813 L1494.7656,60.1875 C1494.7656,58.4063 1496.0156,57.0938 1497.75,57.0938 C1498.3281,57.0938 1498.9375,57.25 1499.4063,57.5 C1499.8906,57.7813 1500.0625,58 1500.1563,58.4063 C1500.2188,58.8125 1500.25,58.9375 1500.3906,59.0625 C1500.5313,59.2031 1500.7656,59.3125 1500.9844,59.3125 C1501.25,59.3125 1501.5156,59.1719 1501.6875,58.9531 C1501.7969,58.7969 1501.8281,58.6094 1501.8281,58.1875 L1501.8281,56.7656 C1501.8281,56.3281 1501.8125,56.2031 1501.7188,56.0469 C1501.5625,55.7813 1501.2813,55.6406 1500.9844,55.6406 C1500.6875,55.6406 1500.4844,55.7344 1500.2656,56.0469 L1500.0938,55.9688 Z " fill="#000000"/><text fill="#000000" font-family="sans-serif" font-size="14" lengthAdjust="spacing" textLength="83" x="1518.25" y="65.1436">MainScreen</text><line style="stroke:#181818;stroke-width:0.5;" x1="1445" x2="1642" y1="76.2969" y2="76.2969"/><line style="stroke:#181818;stroke-width:0.5;" x1="1445" x2="1642" y1="84.2969" y2="84.2969"/><ellipse cx="1455" cy="97.9453" fill="#84BE84" rx="3" ry="3" style="stroke:#038048;stroke-width:1.0;"/><text fill="#000000" font-family="sans-serif" font-size="14" lengthAdjust="spacing" textLength="158" x="1464" y="101.292">selectUploadFeature()</text><ellipse cx="1455" cy="114.2422" fill="#84BE84" rx="3" ry="3" style="stroke:#038048;stroke-width:1.0;"/><text fill="#000000" font-family="sans-serif" font-size="14" lengthAdjust="spacing" textLength="160" x="1464" y="117.5889">selectHistoryFeature()</text><ellipse cx="1455" cy="130.5391" fill="#84BE84" rx="3" ry="3" style="stroke:#038048;stroke-width:1.0;"/><text fill="#000000" font-family="sans-serif" font-size="14" lengthAdjust="spacing" textLength="173" x="1464" y="133.8857">navigateToMainScreen()</text></g><!--class UploadScreen--><g id="elem_UploadScreen"><rect codeLine="28" fill="#F1F1F1" height="113.1875" id="UploadScreen" rx="2.5" ry="2.5" style="stroke:#181818;stroke-width:0.5;" width="239" x="1265" y="234.7969"/><ellipse cx="1330.75" cy="250.7969" fill="#ADD1B2" rx="11" ry="11" style="stroke:#181818;stroke-width:1.0;"/><path d="M1333.0938,246.4688 C1332.1563,246.0313 1331.5625,245.8906 1330.6875,245.8906 C1328.0625,245.8906 1326.0625,247.9688 1326.0625,250.6875 L1326.0625,251.8125 C1326.0625,254.3906 1328.1719,256.2813 1331.0625,256.2813 C1332.2813,256.2813 1333.4375,255.9844 1334.1875,255.4375 C1334.7656,255.0313 1335.0938,254.5781 1335.0938,254.1875 C1335.0938,253.7344 1334.7031,253.3438 1334.2344,253.3438 C1334.0156,253.3438 1333.8125,253.4219 1333.625,253.6094 C1333.1719,254.0938 1333.1719,254.0938 1332.9844,254.1875 C1332.5625,254.4531 1331.875,254.5781 1331.1094,254.5781 C1329.0625,254.5781 1327.7656,253.4844 1327.7656,251.7813 L1327.7656,250.6875 C1327.7656,248.9063 1329.0156,247.5938 1330.75,247.5938 C1331.3281,247.5938 1331.9375,247.75 1332.4063,248 C1332.8906,248.2813 1333.0625,248.5 1333.1563,248.9063 C1333.2188,249.3125 1333.25,249.4375 1333.3906,249.5625 C1333.5313,249.7031 1333.7656,249.8125 1333.9844,249.8125 C1334.25,249.8125 1334.5156,249.6719 1334.6875,249.4531 C1334.7969,249.2969 1334.8281,249.1094 1334.8281,248.6875 L1334.8281,247.2656 C1334.8281,246.8281 1334.8125,246.7031 1334.7188,246.5469 C1334.5625,246.2813 1334.2813,246.1406 1333.9844,246.1406 C1333.6875,246.1406 1333.4844,246.2344 1333.2656,246.5469 L1333.0938,246.4688 Z " fill="#000000"/><text fill="#000000" font-family="sans-serif" font-size="14" lengthAdjust="spacing" textLength="99" x="1351.25" y="255.6436">UploadScreen</text><line style="stroke:#181818;stroke-width:0.5;" x1="1266" x2="1503" y1="266.7969" y2="266.7969"/><line style="stroke:#181818;stroke-width:0.5;" x1="1266" x2="1503" y1="274.7969" y2="274.7969"/><ellipse cx="1276" cy="288.4453" fill="#84BE84" rx="3" ry="3" style="stroke:#038048;stroke-width:1.0;"/><text fill="#000000" font-family="sans-serif" font-size="14" lengthAdjust="spacing" textLength="132" x="1285" y="291.792">showUploadForm()</text><ellipse cx="1276" cy="304.7422" fill="#84BE84" rx="3" ry="3" style="stroke:#038048;stroke-width:1.0;"/><text fill="#000000" font-family="sans-serif" font-size="14" lengthAdjust="spacing" textLength="91" x="1285" y="308.0889">inputPhoto()</text><ellipse cx="1276" cy="321.0391" fill="#84BE84" rx="3" ry="3" style="stroke:#038048;stroke-width:1.0;"/><text fill="#000000" font-family="sans-serif" font-size="14" lengthAdjust="spacing" textLength="181" x="1285" y="324.3857">submitPhoto(photo: File)</text><ellipse cx="1276" cy="337.3359" fill="#84BE84" rx="3" ry="3" style="stroke:#038048;stroke-width:1.0;"/><text fill="#000000" font-family="sans-serif" font-size="14" lengthAdjust="spacing" textLength="213" x="1285" y="340.6826">displayError(errorMsg: String)</text></g><!--class ResultDisplayScreen--><g id="elem_ResultDisplayScreen"><rect codeLine="35" fill="#F1F1F1" height="80.5938" id="ResultDisplayScreen" rx="2.5" ry="2.5" style="stroke:#181818;stroke-width:0.5;" width="221" x="1842" y="514.2969"/><ellipse cx="1875.9" cy="530.2969" fill="#ADD1B2" rx="11" ry="11" style="stroke:#181818;stroke-width:1.0;"/><path d="M1878.2438,525.9688 C1877.3063,525.5313 1876.7125,525.3906 1875.8375,525.3906 C1873.2125,525.3906 1871.2125,527.4688 1871.2125,530.1875 L1871.2125,531.3125 C1871.2125,533.8906 1873.3219,535.7813 1876.2125,535.7813 C1877.4313,535.7813 1878.5875,535.4844 1879.3375,534.9375 C1879.9156,534.5313 1880.2438,534.0781 1880.2438,533.6875 C1880.2438,533.2344 1879.8531,532.8438 1879.3844,532.8438 C1879.1656,532.8438 1878.9625,532.9219 1878.775,533.1094 C1878.3219,533.5938 1878.3219,533.5938 1878.1344,533.6875 C1877.7125,533.9531 1877.025,534.0781 1876.2594,534.0781 C1874.2125,534.0781 1872.9156,532.9844 1872.9156,531.2813 L1872.9156,530.1875 C1872.9156,528.4063 1874.1656,527.0938 1875.9,527.0938 C1876.4781,527.0938 1877.0875,527.25 1877.5563,527.5 C1878.0406,527.7813 1878.2125,528 1878.3063,528.4063 C1878.3688,528.8125 1878.4,528.9375 1878.5406,529.0625 C1878.6813,529.2031 1878.9156,529.3125 1879.1344,529.3125 C1879.4,529.3125 1879.6656,529.1719 1879.8375,528.9531 C1879.9469,528.7969 1879.9781,528.6094 1879.9781,528.1875 L1879.9781,526.7656 C1879.9781,526.3281 1879.9625,526.2031 1879.8688,526.0469 C1879.7125,525.7813 1879.4313,525.6406 1879.1344,525.6406 C1878.8375,525.6406 1878.6344,525.7344 1878.4156,526.0469 L1878.2438,525.9688 Z " fill="#000000"/><text fill="#000000" font-family="sans-serif" font-size="14" lengthAdjust="spacing" textLength="147" x="1894.1" y="535.1436">ResultDisplayScreen</text><line style="stroke:#181818;stroke-width:0.5;" x1="1843" x2="2062" y1="546.2969" y2="546.2969"/><line style="stroke:#181818;stroke-width:0.5;" x1="1843" x2="2062" y1="554.2969" y2="554.2969"/><ellipse cx="1853" cy="567.9453" fill="#84BE84" rx="3" ry="3" style="stroke:#038048;stroke-width:1.0;"/><text fill="#000000" font-family="sans-serif" font-size="14" lengthAdjust="spacing" textLength="181" x="1862" y="571.292">showResults(results: List)</text><ellipse cx="1853" cy="584.2422" fill="#84BE84" rx="3" ry="3" style="stroke:#038048;stroke-width:1.0;"/><text fill="#000000" font-family="sans-serif" font-size="14" lengthAdjust="spacing" textLength="195" x="1862" y="587.5889">displayResults(results: List)</text></g><!--class AdviceDisplayScreen--><g id="elem_AdviceDisplayScreen"><rect codeLine="40" fill="#F1F1F1" height="80.5938" id="AdviceDisplayScreen" rx="2.5" ry="2.5" style="stroke:#181818;stroke-width:0.5;" width="266" x="1846.5" y="761.2969"/><ellipse cx="1900.25" cy="777.2969" fill="#ADD1B2" rx="11" ry="11" style="stroke:#181818;stroke-width:1.0;"/><path d="M1902.5938,772.9688 C1901.6563,772.5313 1901.0625,772.3906 1900.1875,772.3906 C1897.5625,772.3906 1895.5625,774.4688 1895.5625,777.1875 L1895.5625,778.3125 C1895.5625,780.8906 1897.6719,782.7813 1900.5625,782.7813 C1901.7813,782.7813 1902.9375,782.4844 1903.6875,781.9375 C1904.2656,781.5313 1904.5938,781.0781 1904.5938,780.6875 C1904.5938,780.2344 1904.2031,779.8438 1903.7344,779.8438 C1903.5156,779.8438 1903.3125,779.9219 1903.125,780.1094 C1902.6719,780.5938 1902.6719,780.5938 1902.4844,780.6875 C1902.0625,780.9531 1901.375,781.0781 1900.6094,781.0781 C1898.5625,781.0781 1897.2656,779.9844 1897.2656,778.2813 L1897.2656,777.1875 C1897.2656,775.4063 1898.5156,774.0938 1900.25,774.0938 C1900.8281,774.0938 1901.4375,774.25 1901.9063,774.5 C1902.3906,774.7813 1902.5625,775 1902.6563,775.4063 C1902.7188,775.8125 1902.75,775.9375 1902.8906,776.0625 C1903.0313,776.2031 1903.2656,776.3125 1903.4844,776.3125 C1903.75,776.3125 1904.0156,776.1719 1904.1875,775.9531 C1904.2969,775.7969 1904.3281,775.6094 1904.3281,775.1875 L1904.3281,773.7656 C1904.3281,773.3281 1904.3125,773.2031 1904.2188,773.0469 C1904.0625,772.7813 1903.7813,772.6406 1903.4844,772.6406 C1903.1875,772.6406 1902.9844,772.7344 1902.7656,773.0469 L1902.5938,772.9688 Z " fill="#000000"/><text fill="#000000" font-family="sans-serif" font-size="14" lengthAdjust="spacing" textLength="150" x="1920.75" y="782.1436">AdviceDisplayScreen</text><line style="stroke:#181818;stroke-width:0.5;" x1="1847.5" x2="2111.5" y1="793.2969" y2="793.2969"/><line style="stroke:#181818;stroke-width:0.5;" x1="1847.5" x2="2111.5" y1="801.2969" y2="801.2969"/><ellipse cx="1857.5" cy="814.9453" fill="#84BE84" rx="3" ry="3" style="stroke:#038048;stroke-width:1.0;"/><text fill="#000000" font-family="sans-serif" font-size="14" lengthAdjust="spacing" textLength="226" x="1866.5" y="818.292">showCareAdvice(advice: String)</text><ellipse cx="1857.5" cy="831.2422" fill="#84BE84" rx="3" ry="3" style="stroke:#038048;stroke-width:1.0;"/><text fill="#000000" font-family="sans-serif" font-size="14" lengthAdjust="spacing" textLength="240" x="1866.5" y="834.5889">displayCareAdvice(advice: String)</text></g><!--class HistoryRecordScreen--><g id="elem_HistoryRecordScreen"><rect codeLine="45" fill="#F1F1F1" height="145.7813" id="HistoryRecordScreen" rx="2.5" ry="2.5" style="stroke:#181818;stroke-width:0.5;" width="329" x="1539" y="218.2969"/><ellipse cx="1623.25" cy="234.2969" fill="#ADD1B2" rx="11" ry="11" style="stroke:#181818;stroke-width:1.0;"/><path d="M1625.5938,229.9688 C1624.6563,229.5313 1624.0625,229.3906 1623.1875,229.3906 C1620.5625,229.3906 1618.5625,231.4688 1618.5625,234.1875 L1618.5625,235.3125 C1618.5625,237.8906 1620.6719,239.7813 1623.5625,239.7813 C1624.7813,239.7813 1625.9375,239.4844 1626.6875,238.9375 C1627.2656,238.5313 1627.5938,238.0781 1627.5938,237.6875 C1627.5938,237.2344 1627.2031,236.8438 1626.7344,236.8438 C1626.5156,236.8438 1626.3125,236.9219 1626.125,237.1094 C1625.6719,237.5938 1625.6719,237.5938 1625.4844,237.6875 C1625.0625,237.9531 1624.375,238.0781 1623.6094,238.0781 C1621.5625,238.0781 1620.2656,236.9844 1620.2656,235.2813 L1620.2656,234.1875 C1620.2656,232.4063 1621.5156,231.0938 1623.25,231.0938 C1623.8281,231.0938 1624.4375,231.25 1624.9063,231.5 C1625.3906,231.7813 1625.5625,232 1625.6563,232.4063 C1625.7188,232.8125 1625.75,232.9375 1625.8906,233.0625 C1626.0313,233.2031 1626.2656,233.3125 1626.4844,233.3125 C1626.75,233.3125 1627.0156,233.1719 1627.1875,232.9531 C1627.2969,232.7969 1627.3281,232.6094 1627.3281,232.1875 L1627.3281,230.7656 C1627.3281,230.3281 1627.3125,230.2031 1627.2188,230.0469 C1627.0625,229.7813 1626.7813,229.6406 1626.4844,229.6406 C1626.1875,229.6406 1625.9844,229.7344 1625.7656,230.0469 L1625.5938,229.9688 Z " fill="#000000"/><text fill="#000000" font-family="sans-serif" font-size="14" lengthAdjust="spacing" textLength="152" x="1643.75" y="239.1436">HistoryRecordScreen</text><line style="stroke:#181818;stroke-width:0.5;" x1="1540" x2="1867" y1="250.2969" y2="250.2969"/><line style="stroke:#181818;stroke-width:0.5;" x1="1540" x2="1867" y1="258.2969" y2="258.2969"/><ellipse cx="1550" cy="271.9453" fill="#84BE84" rx="3" ry="3" style="stroke:#038048;stroke-width:1.0;"/><text fill="#000000" font-family="sans-serif" font-size="14" lengthAdjust="spacing" textLength="160" x="1559" y="275.292">selectHistoryFeature()</text><ellipse cx="1550" cy="288.2422" fill="#84BE84" rx="3" ry="3" style="stroke:#038048;stroke-width:1.0;"/><text fill="#000000" font-family="sans-serif" font-size="14" lengthAdjust="spacing" textLength="222" x="1559" y="291.5889">displayHistory(historyList: List)</text><ellipse cx="1550" cy="304.5391" fill="#84BE84" rx="3" ry="3" style="stroke:#038048;stroke-width:1.0;"/><text fill="#000000" font-family="sans-serif" font-size="14" lengthAdjust="spacing" textLength="194" x="1559" y="307.8857">selectRecord(recordId: Int)</text><ellipse cx="1550" cy="320.8359" fill="#84BE84" rx="3" ry="3" style="stroke:#038048;stroke-width:1.0;"/><text fill="#000000" font-family="sans-serif" font-size="14" lengthAdjust="spacing" textLength="236" x="1559" y="324.1826">showRecordDetails(recordId: Int)</text><ellipse cx="1550" cy="337.1328" fill="#84BE84" rx="3" ry="3" style="stroke:#038048;stroke-width:1.0;"/><text fill="#000000" font-family="sans-serif" font-size="14" lengthAdjust="spacing" textLength="303" x="1559" y="340.4795">chooseAction(action: String, recordId: Int)</text><ellipse cx="1550" cy="353.4297" fill="#84BE84" rx="3" ry="3" style="stroke:#038048;stroke-width:1.0;"/><text fill="#000000" font-family="sans-serif" font-size="14" lengthAdjust="spacing" textLength="172" x="1559" y="356.7764">displayUpdatedHistory()</text></g><!--class ShareScreen--><g id="elem_ShareScreen"><rect codeLine="54" fill="#F1F1F1" height="80.5938" id="ShareScreen" rx="2.5" ry="2.5" style="stroke:#181818;stroke-width:0.5;" width="267" x="1866" y="52.2969"/><ellipse cx="1949.75" cy="68.2969" fill="#ADD1B2" rx="11" ry="11" style="stroke:#181818;stroke-width:1.0;"/><path d="M1952.0938,63.9688 C1951.1563,63.5313 1950.5625,63.3906 1949.6875,63.3906 C1947.0625,63.3906 1945.0625,65.4688 1945.0625,68.1875 L1945.0625,69.3125 C1945.0625,71.8906 1947.1719,73.7813 1950.0625,73.7813 C1951.2813,73.7813 1952.4375,73.4844 1953.1875,72.9375 C1953.7656,72.5313 1954.0938,72.0781 1954.0938,71.6875 C1954.0938,71.2344 1953.7031,70.8438 1953.2344,70.8438 C1953.0156,70.8438 1952.8125,70.9219 1952.625,71.1094 C1952.1719,71.5938 1952.1719,71.5938 1951.9844,71.6875 C1951.5625,71.9531 1950.875,72.0781 1950.1094,72.0781 C1948.0625,72.0781 1946.7656,70.9844 1946.7656,69.2813 L1946.7656,68.1875 C1946.7656,66.4063 1948.0156,65.0938 1949.75,65.0938 C1950.3281,65.0938 1950.9375,65.25 1951.4063,65.5 C1951.8906,65.7813 1952.0625,66 1952.1563,66.4063 C1952.2188,66.8125 1952.25,66.9375 1952.3906,67.0625 C1952.5313,67.2031 1952.7656,67.3125 1952.9844,67.3125 C1953.25,67.3125 1953.5156,67.1719 1953.6875,66.9531 C1953.7969,66.7969 1953.8281,66.6094 1953.8281,66.1875 L1953.8281,64.7656 C1953.8281,64.3281 1953.8125,64.2031 1953.7188,64.0469 C1953.5625,63.7813 1953.2813,63.6406 1952.9844,63.6406 C1952.6875,63.6406 1952.4844,63.7344 1952.2656,64.0469 L1952.0938,63.9688 Z " fill="#000000"/><text fill="#000000" font-family="sans-serif" font-size="14" lengthAdjust="spacing" textLength="91" x="1970.25" y="73.1436">ShareScreen</text><line style="stroke:#181818;stroke-width:0.5;" x1="1867" x2="2132" y1="84.2969" y2="84.2969"/><line style="stroke:#181818;stroke-width:0.5;" x1="1867" x2="2132" y1="92.2969" y2="92.2969"/><ellipse cx="1877" cy="105.9453" fill="#84BE84" rx="3" ry="3" style="stroke:#038048;stroke-width:1.0;"/><text fill="#000000" font-family="sans-serif" font-size="14" lengthAdjust="spacing" textLength="144" x="1886" y="109.292">showShareOptions()</text><ellipse cx="1877" cy="122.2422" fill="#84BE84" rx="3" ry="3" style="stroke:#038048;stroke-width:1.0;"/><text fill="#000000" font-family="sans-serif" font-size="14" lengthAdjust="spacing" textLength="241" x="1886" y="125.5889">choosePlatform(platform: String)</text></g><!--class Controller--><g id="elem_Controller"><rect codeLine="59" fill="#F1F1F1" height="227.2656" id="Controller" rx="2.5" ry="2.5" style="stroke:#181818;stroke-width:0.5;" width="500" x="770.5" y="441.2969"/><ellipse cx="979.75" cy="457.2969" fill="#ADD1B2" rx="11" ry="11" style="stroke:#181818;stroke-width:1.0;"/><path d="M982.0938,452.9688 C981.1563,452.5313 980.5625,452.3906 979.6875,452.3906 C977.0625,452.3906 975.0625,454.4688 975.0625,457.1875 L975.0625,458.3125 C975.0625,460.8906 977.1719,462.7813 980.0625,462.7813 C981.2813,462.7813 982.4375,462.4844 983.1875,461.9375 C983.7656,461.5313 984.0938,461.0781 984.0938,460.6875 C984.0938,460.2344 983.7031,459.8438 983.2344,459.8438 C983.0156,459.8438 982.8125,459.9219 982.625,460.1094 C982.1719,460.5938 982.1719,460.5938 981.9844,460.6875 C981.5625,460.9531 980.875,461.0781 980.1094,461.0781 C978.0625,461.0781 976.7656,459.9844 976.7656,458.2813 L976.7656,457.1875 C976.7656,455.4063 978.0156,454.0938 979.75,454.0938 C980.3281,454.0938 980.9375,454.25 981.4063,454.5 C981.8906,454.7813 982.0625,455 982.1563,455.4063 C982.2188,455.8125 982.25,455.9375 982.3906,456.0625 C982.5313,456.2031 982.7656,456.3125 982.9844,456.3125 C983.25,456.3125 983.5156,456.1719 983.6875,455.9531 C983.7969,455.7969 983.8281,455.6094 983.8281,455.1875 L983.8281,453.7656 C983.8281,453.3281 983.8125,453.2031 983.7188,453.0469 C983.5625,452.7813 983.2813,452.6406 982.9844,452.6406 C982.6875,452.6406 982.4844,452.7344 982.2656,453.0469 L982.0938,452.9688 Z " fill="#000000"/><text fill="#000000" font-family="sans-serif" font-size="14" lengthAdjust="spacing" textLength="73" x="1000.25" y="462.1436">Controller</text><line style="stroke:#181818;stroke-width:0.5;" x1="771.5" x2="1269.5" y1="473.2969" y2="473.2969"/><line style="stroke:#181818;stroke-width:0.5;" x1="771.5" x2="1269.5" y1="481.2969" y2="481.2969"/><ellipse cx="781.5" cy="494.9453" fill="#84BE84" rx="3" ry="3" style="stroke:#038048;stroke-width:1.0;"/><text fill="#000000" font-family="sans-serif" font-size="14" lengthAdjust="spacing" textLength="474" x="790.5" y="498.292">validateRegInfo(username: String, password: String, email: String)</text><ellipse cx="781.5" cy="511.2422" fill="#84BE84" rx="3" ry="3" style="stroke:#038048;stroke-width:1.0;"/><text fill="#000000" font-family="sans-serif" font-size="14" lengthAdjust="spacing" textLength="467" x="790.5" y="514.5889">createAccount(username: String, password: String, email: String)</text><ellipse cx="781.5" cy="527.5391" fill="#84BE84" rx="3" ry="3" style="stroke:#038048;stroke-width:1.0;"/><text fill="#000000" font-family="sans-serif" font-size="14" lengthAdjust="spacing" textLength="400" x="790.5" y="530.8857">validateCredentials(username: String, password: String)</text><ellipse cx="781.5" cy="543.8359" fill="#84BE84" rx="3" ry="3" style="stroke:#038048;stroke-width:1.0;"/><text fill="#000000" font-family="sans-serif" font-size="14" lengthAdjust="spacing" textLength="221" x="790.5" y="547.1826">grantAccess(username: String)</text><ellipse cx="781.5" cy="560.1328" fill="#84BE84" rx="3" ry="3" style="stroke:#038048;stroke-width:1.0;"/><text fill="#000000" font-family="sans-serif" font-size="14" lengthAdjust="spacing" textLength="261" x="790.5" y="563.4795">checkPhotoRestrictions(photo: File)</text><ellipse cx="781.5" cy="576.4297" fill="#84BE84" rx="3" ry="3" style="stroke:#038048;stroke-width:1.0;"/><text fill="#000000" font-family="sans-serif" font-size="14" lengthAdjust="spacing" textLength="222" x="790.5" y="579.7764">analyzeAndPredict(photo: File)</text><ellipse cx="781.5" cy="592.7266" fill="#84BE84" rx="3" ry="3" style="stroke:#038048;stroke-width:1.0;"/><text fill="#000000" font-family="sans-serif" font-size="14" lengthAdjust="spacing" textLength="315" x="790.5" y="596.0732">requestCareAdvice(results: List, photo: File)</text><ellipse cx="781.5" cy="609.0234" fill="#84BE84" rx="3" ry="3" style="stroke:#038048;stroke-width:1.0;"/><text fill="#000000" font-family="sans-serif" font-size="14" lengthAdjust="spacing" textLength="326" x="790.5" y="612.3701">generateCareAdvice(results: List, photo: File)</text><ellipse cx="781.5" cy="625.3203" fill="#84BE84" rx="3" ry="3" style="stroke:#038048;stroke-width:1.0;"/><text fill="#000000" font-family="sans-serif" font-size="14" lengthAdjust="spacing" textLength="116" x="790.5" y="628.667">requestHistory()</text><ellipse cx="781.5" cy="641.6172" fill="#84BE84" rx="3" ry="3" style="stroke:#038048;stroke-width:1.0;"/><text fill="#000000" font-family="sans-serif" font-size="14" lengthAdjust="spacing" textLength="219" x="790.5" y="644.9639">reanalyzeRecord(recordId: Int)</text><ellipse cx="781.5" cy="657.9141" fill="#84BE84" rx="3" ry="3" style="stroke:#038048;stroke-width:1.0;"/><text fill="#000000" font-family="sans-serif" font-size="14" lengthAdjust="spacing" textLength="197" x="790.5" y="661.2607">deleteRecord(recordId: Int)</text></g><!--class Server--><g id="elem_Server"><rect codeLine="73" fill="#F1F1F1" height="80.5938" id="Server" rx="2.5" ry="2.5" style="stroke:#181818;stroke-width:0.5;" width="493" x="7" y="761.2969"/><ellipse cx="225.75" cy="777.2969" fill="#ADD1B2" rx="11" ry="11" style="stroke:#181818;stroke-width:1.0;"/><path d="M228.0938,772.9688 C227.1563,772.5313 226.5625,772.3906 225.6875,772.3906 C223.0625,772.3906 221.0625,774.4688 221.0625,777.1875 L221.0625,778.3125 C221.0625,780.8906 223.1719,782.7813 226.0625,782.7813 C227.2813,782.7813 228.4375,782.4844 229.1875,781.9375 C229.7656,781.5313 230.0938,781.0781 230.0938,780.6875 C230.0938,780.2344 229.7031,779.8438 229.2344,779.8438 C229.0156,779.8438 228.8125,779.9219 228.625,780.1094 C228.1719,780.5938 228.1719,780.5938 227.9844,780.6875 C227.5625,780.9531 226.875,781.0781 226.1094,781.0781 C224.0625,781.0781 222.7656,779.9844 222.7656,778.2813 L222.7656,777.1875 C222.7656,775.4063 224.0156,774.0938 225.75,774.0938 C226.3281,774.0938 226.9375,774.25 227.4063,774.5 C227.8906,774.7813 228.0625,775 228.1563,775.4063 C228.2188,775.8125 228.25,775.9375 228.3906,776.0625 C228.5313,776.2031 228.7656,776.3125 228.9844,776.3125 C229.25,776.3125 229.5156,776.1719 229.6875,775.9531 C229.7969,775.7969 229.8281,775.6094 229.8281,775.1875 L229.8281,773.7656 C229.8281,773.3281 229.8125,773.2031 229.7188,773.0469 C229.5625,772.7813 229.2813,772.6406 228.9844,772.6406 C228.6875,772.6406 228.4844,772.7344 228.2656,773.0469 L228.0938,772.9688 Z " fill="#000000"/><text fill="#000000" font-family="sans-serif" font-size="14" lengthAdjust="spacing" textLength="47" x="246.25" y="782.1436">Server</text><line style="stroke:#181818;stroke-width:0.5;" x1="8" x2="499" y1="793.2969" y2="793.2969"/><line style="stroke:#181818;stroke-width:0.5;" x1="8" x2="499" y1="801.2969" y2="801.2969"/><ellipse cx="18" cy="814.9453" fill="#84BE84" rx="3" ry="3" style="stroke:#038048;stroke-width:1.0;"/><text fill="#000000" font-family="sans-serif" font-size="14" lengthAdjust="spacing" textLength="467" x="27" y="818.292">createAccount(username: String, password: String, email: String)</text><ellipse cx="18" cy="831.2422" fill="#84BE84" rx="3" ry="3" style="stroke:#038048;stroke-width:1.0;"/><text fill="#000000" font-family="sans-serif" font-size="14" lengthAdjust="spacing" textLength="221" x="27" y="834.5889">grantAccess(username: String)</text></g><!--class UserInfo--><g id="elem_UserInfo"><rect codeLine="78" fill="#F1F1F1" height="113.1875" id="UserInfo" rx="2.5" ry="2.5" style="stroke:#181818;stroke-width:0.5;" width="484" x="11.5" y="935.2969"/><ellipse cx="219.75" cy="951.2969" fill="#ADD1B2" rx="11" ry="11" style="stroke:#181818;stroke-width:1.0;"/><path d="M222.0938,946.9688 C221.1563,946.5313 220.5625,946.3906 219.6875,946.3906 C217.0625,946.3906 215.0625,948.4688 215.0625,951.1875 L215.0625,952.3125 C215.0625,954.8906 217.1719,956.7813 220.0625,956.7813 C221.2813,956.7813 222.4375,956.4844 223.1875,955.9375 C223.7656,955.5313 224.0938,955.0781 224.0938,954.6875 C224.0938,954.2344 223.7031,953.8438 223.2344,953.8438 C223.0156,953.8438 222.8125,953.9219 222.625,954.1094 C222.1719,954.5938 222.1719,954.5938 221.9844,954.6875 C221.5625,954.9531 220.875,955.0781 220.1094,955.0781 C218.0625,955.0781 216.7656,953.9844 216.7656,952.2813 L216.7656,951.1875 C216.7656,949.4063 218.0156,948.0938 219.75,948.0938 C220.3281,948.0938 220.9375,948.25 221.4063,948.5 C221.8906,948.7813 222.0625,949 222.1563,949.4063 C222.2188,949.8125 222.25,949.9375 222.3906,950.0625 C222.5313,950.2031 222.7656,950.3125 222.9844,950.3125 C223.25,950.3125 223.5156,950.1719 223.6875,949.9531 C223.7969,949.7969 223.8281,949.6094 223.8281,949.1875 L223.8281,947.7656 C223.8281,947.3281 223.8125,947.2031 223.7188,947.0469 C223.5625,946.7813 223.2813,946.6406 222.9844,946.6406 C222.6875,946.6406 222.4844,946.7344 222.2656,947.0469 L222.0938,946.9688 Z " fill="#000000"/><text fill="#000000" font-family="sans-serif" font-size="14" lengthAdjust="spacing" textLength="59" x="240.25" y="956.1436">UserInfo</text><line style="stroke:#181818;stroke-width:0.5;" x1="12.5" x2="494.5" y1="967.2969" y2="967.2969"/><rect fill="none" height="6" style="stroke:#C82930;stroke-width:1.0;" width="6" x="19.5" y="977.9453"/><text fill="#000000" font-family="sans-serif" font-size="14" lengthAdjust="spacing" textLength="123" x="31.5" y="984.292">username: String</text><rect fill="none" height="6" style="stroke:#C82930;stroke-width:1.0;" width="6" x="19.5" y="994.2422"/><text fill="#000000" font-family="sans-serif" font-size="14" lengthAdjust="spacing" textLength="120" x="31.5" y="1000.5889">password: String</text><rect fill="none" height="6" style="stroke:#C82930;stroke-width:1.0;" width="6" x="19.5" y="1010.5391"/><text fill="#000000" font-family="sans-serif" font-size="14" lengthAdjust="spacing" textLength="92" x="31.5" y="1016.8857">email: String</text><line style="stroke:#181818;stroke-width:0.5;" x1="12.5" x2="494.5" y1="1024.1875" y2="1024.1875"/><ellipse cx="22.5" cy="1037.8359" fill="#84BE84" rx="3" ry="3" style="stroke:#038048;stroke-width:1.0;"/><text fill="#000000" font-family="sans-serif" font-size="14" lengthAdjust="spacing" textLength="458" x="31.5" y="1041.1826">storeUserInfo(username: String, password: String, email: String)</text></g><!--class KaggleModel--><g id="elem_KaggleModel"><rect codeLine="85" fill="#F1F1F1" height="64.2969" id="KaggleModel" rx="2.5" ry="2.5" style="stroke:#181818;stroke-width:0.5;" width="248" x="535.5" y="769.7969"/><ellipse cx="609.25" cy="785.7969" fill="#ADD1B2" rx="11" ry="11" style="stroke:#181818;stroke-width:1.0;"/><path d="M611.5938,781.4688 C610.6563,781.0313 610.0625,780.8906 609.1875,780.8906 C606.5625,780.8906 604.5625,782.9688 604.5625,785.6875 L604.5625,786.8125 C604.5625,789.3906 606.6719,791.2813 609.5625,791.2813 C610.7813,791.2813 611.9375,790.9844 612.6875,790.4375 C613.2656,790.0313 613.5938,789.5781 613.5938,789.1875 C613.5938,788.7344 613.2031,788.3438 612.7344,788.3438 C612.5156,788.3438 612.3125,788.4219 612.125,788.6094 C611.6719,789.0938 611.6719,789.0938 611.4844,789.1875 C611.0625,789.4531 610.375,789.5781 609.6094,789.5781 C607.5625,789.5781 606.2656,788.4844 606.2656,786.7813 L606.2656,785.6875 C606.2656,783.9063 607.5156,782.5938 609.25,782.5938 C609.8281,782.5938 610.4375,782.75 610.9063,783 C611.3906,783.2813 611.5625,783.5 611.6563,783.9063 C611.7188,784.3125 611.75,784.4375 611.8906,784.5625 C612.0313,784.7031 612.2656,784.8125 612.4844,784.8125 C612.75,784.8125 613.0156,784.6719 613.1875,784.4531 C613.2969,784.2969 613.3281,784.1094 613.3281,783.6875 L613.3281,782.2656 C613.3281,781.8281 613.3125,781.7031 613.2188,781.5469 C613.0625,781.2813 612.7813,781.1406 612.4844,781.1406 C612.1875,781.1406 611.9844,781.2344 611.7656,781.5469 L611.5938,781.4688 Z " fill="#000000"/><text fill="#000000" font-family="sans-serif" font-size="14" lengthAdjust="spacing" textLength="92" x="629.75" y="790.6436">KaggleModel</text><line style="stroke:#181818;stroke-width:0.5;" x1="536.5" x2="782.5" y1="801.7969" y2="801.7969"/><line style="stroke:#181818;stroke-width:0.5;" x1="536.5" x2="782.5" y1="809.7969" y2="809.7969"/><ellipse cx="546.5" cy="823.4453" fill="#84BE84" rx="3" ry="3" style="stroke:#038048;stroke-width:1.0;"/><text fill="#000000" font-family="sans-serif" font-size="14" lengthAdjust="spacing" textLength="222" x="555.5" y="826.792">analyzeAndPredict(photo: File)</text></g><!--class GPT4Vision--><g id="elem_GPT4Vision"><rect codeLine="89" fill="#F1F1F1" height="64.2969" id="GPT4Vision" rx="2.5" ry="2.5" style="stroke:#181818;stroke-width:0.5;" width="352" x="818.5" y="769.7969"/><ellipse cx="950.25" cy="785.7969" fill="#ADD1B2" rx="11" ry="11" style="stroke:#181818;stroke-width:1.0;"/><path d="M952.5938,781.4688 C951.6563,781.0313 951.0625,780.8906 950.1875,780.8906 C947.5625,780.8906 945.5625,782.9688 945.5625,785.6875 L945.5625,786.8125 C945.5625,789.3906 947.6719,791.2813 950.5625,791.2813 C951.7813,791.2813 952.9375,790.9844 953.6875,790.4375 C954.2656,790.0313 954.5938,789.5781 954.5938,789.1875 C954.5938,788.7344 954.2031,788.3438 953.7344,788.3438 C953.5156,788.3438 953.3125,788.4219 953.125,788.6094 C952.6719,789.0938 952.6719,789.0938 952.4844,789.1875 C952.0625,789.4531 951.375,789.5781 950.6094,789.5781 C948.5625,789.5781 947.2656,788.4844 947.2656,786.7813 L947.2656,785.6875 C947.2656,783.9063 948.5156,782.5938 950.25,782.5938 C950.8281,782.5938 951.4375,782.75 951.9063,783 C952.3906,783.2813 952.5625,783.5 952.6563,783.9063 C952.7188,784.3125 952.75,784.4375 952.8906,784.5625 C953.0313,784.7031 953.2656,784.8125 953.4844,784.8125 C953.75,784.8125 954.0156,784.6719 954.1875,784.4531 C954.2969,784.2969 954.3281,784.1094 954.3281,783.6875 L954.3281,782.2656 C954.3281,781.8281 954.3125,781.7031 954.2188,781.5469 C954.0625,781.2813 953.7813,781.1406 953.4844,781.1406 C953.1875,781.1406 952.9844,781.2344 952.7656,781.5469 L952.5938,781.4688 Z " fill="#000000"/><text fill="#000000" font-family="sans-serif" font-size="14" lengthAdjust="spacing" textLength="80" x="970.75" y="790.6436">GPT4Vision</text><line style="stroke:#181818;stroke-width:0.5;" x1="819.5" x2="1169.5" y1="801.7969" y2="801.7969"/><line style="stroke:#181818;stroke-width:0.5;" x1="819.5" x2="1169.5" y1="809.7969" y2="809.7969"/><ellipse cx="829.5" cy="823.4453" fill="#84BE84" rx="3" ry="3" style="stroke:#038048;stroke-width:1.0;"/><text fill="#000000" font-family="sans-serif" font-size="14" lengthAdjust="spacing" textLength="326" x="838.5" y="826.792">generateCareAdvice(results: List, photo: File)</text></g><!--class Database--><g id="elem_Database"><rect codeLine="93" fill="#F1F1F1" height="113.1875" id="Database" rx="2.5" ry="2.5" style="stroke:#181818;stroke-width:0.5;" width="351" x="1206" y="745.2969"/><ellipse cx="1343.25" cy="761.2969" fill="#ADD1B2" rx="11" ry="11" style="stroke:#181818;stroke-width:1.0;"/><path d="M1345.5938,756.9688 C1344.6563,756.5313 1344.0625,756.3906 1343.1875,756.3906 C1340.5625,756.3906 1338.5625,758.4688 1338.5625,761.1875 L1338.5625,762.3125 C1338.5625,764.8906 1340.6719,766.7813 1343.5625,766.7813 C1344.7813,766.7813 1345.9375,766.4844 1346.6875,765.9375 C1347.2656,765.5313 1347.5938,765.0781 1347.5938,764.6875 C1347.5938,764.2344 1347.2031,763.8438 1346.7344,763.8438 C1346.5156,763.8438 1346.3125,763.9219 1346.125,764.1094 C1345.6719,764.5938 1345.6719,764.5938 1345.4844,764.6875 C1345.0625,764.9531 1344.375,765.0781 1343.6094,765.0781 C1341.5625,765.0781 1340.2656,763.9844 1340.2656,762.2813 L1340.2656,761.1875 C1340.2656,759.4063 1341.5156,758.0938 1343.25,758.0938 C1343.8281,758.0938 1344.4375,758.25 1344.9063,758.5 C1345.3906,758.7813 1345.5625,759 1345.6563,759.4063 C1345.7188,759.8125 1345.75,759.9375 1345.8906,760.0625 C1346.0313,760.2031 1346.2656,760.3125 1346.4844,760.3125 C1346.75,760.3125 1347.0156,760.1719 1347.1875,759.9531 C1347.2969,759.7969 1347.3281,759.6094 1347.3281,759.1875 L1347.3281,757.7656 C1347.3281,757.3281 1347.3125,757.2031 1347.2188,757.0469 C1347.0625,756.7813 1346.7813,756.6406 1346.4844,756.6406 C1346.1875,756.6406 1345.9844,756.7344 1345.7656,757.0469 L1345.5938,756.9688 Z " fill="#000000"/><text fill="#000000" font-family="sans-serif" font-size="14" lengthAdjust="spacing" textLength="68" x="1363.75" y="766.1436">Database</text><line style="stroke:#181818;stroke-width:0.5;" x1="1207" x2="1556" y1="777.2969" y2="777.2969"/><rect fill="none" height="6" style="stroke:#C82930;stroke-width:1.0;" width="6" x="1214" y="787.9453"/><text fill="#000000" font-family="sans-serif" font-size="14" lengthAdjust="spacing" textLength="111" x="1226" y="794.292">historyList: List</text><line style="stroke:#181818;stroke-width:0.5;" x1="1207" x2="1556" y1="801.5938" y2="801.5938"/><ellipse cx="1217" cy="815.2422" fill="#84BE84" rx="3" ry="3" style="stroke:#038048;stroke-width:1.0;"/><text fill="#000000" font-family="sans-serif" font-size="14" lengthAdjust="spacing" textLength="100" x="1226" y="818.5889">fetchHistory()</text><ellipse cx="1217" cy="831.5391" fill="#84BE84" rx="3" ry="3" style="stroke:#038048;stroke-width:1.0;"/><text fill="#000000" font-family="sans-serif" font-size="14" lengthAdjust="spacing" textLength="325" x="1226" y="834.8857">updateRecord(recordId: Int, newResults: List)</text><ellipse cx="1217" cy="847.8359" fill="#84BE84" rx="3" ry="3" style="stroke:#038048;stroke-width:1.0;"/><text fill="#000000" font-family="sans-serif" font-size="14" lengthAdjust="spacing" textLength="205" x="1226" y="851.1826">removeRecord(recordId: Int)</text></g><!--class AnalysisService--><g id="elem_AnalysisService"><rect codeLine="100" fill="#F1F1F1" height="64.2969" id="AnalysisService" rx="2.5" ry="2.5" style="stroke:#181818;stroke-width:0.5;" width="219" x="1592" y="769.7969"/><ellipse cx="1642.25" cy="785.7969" fill="#ADD1B2" rx="11" ry="11" style="stroke:#181818;stroke-width:1.0;"/><path d="M1644.5938,781.4688 C1643.6563,781.0313 1643.0625,780.8906 1642.1875,780.8906 C1639.5625,780.8906 1637.5625,782.9688 1637.5625,785.6875 L1637.5625,786.8125 C1637.5625,789.3906 1639.6719,791.2813 1642.5625,791.2813 C1643.7813,791.2813 1644.9375,790.9844 1645.6875,790.4375 C1646.2656,790.0313 1646.5938,789.5781 1646.5938,789.1875 C1646.5938,788.7344 1646.2031,788.3438 1645.7344,788.3438 C1645.5156,788.3438 1645.3125,788.4219 1645.125,788.6094 C1644.6719,789.0938 1644.6719,789.0938 1644.4844,789.1875 C1644.0625,789.4531 1643.375,789.5781 1642.6094,789.5781 C1640.5625,789.5781 1639.2656,788.4844 1639.2656,786.7813 L1639.2656,785.6875 C1639.2656,783.9063 1640.5156,782.5938 1642.25,782.5938 C1642.8281,782.5938 1643.4375,782.75 1643.9063,783 C1644.3906,783.2813 1644.5625,783.5 1644.6563,783.9063 C1644.7188,784.3125 1644.75,784.4375 1644.8906,784.5625 C1645.0313,784.7031 1645.2656,784.8125 1645.4844,784.8125 C1645.75,784.8125 1646.0156,784.6719 1646.1875,784.4531 C1646.2969,784.2969 1646.3281,784.1094 1646.3281,783.6875 L1646.3281,782.2656 C1646.3281,781.8281 1646.3125,781.7031 1646.2188,781.5469 C1646.0625,781.2813 1645.7813,781.1406 1645.4844,781.1406 C1645.1875,781.1406 1644.9844,781.2344 1644.7656,781.5469 L1644.5938,781.4688 Z " fill="#000000"/><text fill="#000000" font-family="sans-serif" font-size="14" lengthAdjust="spacing" textLength="110" x="1662.75" y="790.6436">AnalysisService</text><line style="stroke:#181818;stroke-width:0.5;" x1="1593" x2="1810" y1="801.7969" y2="801.7969"/><line style="stroke:#181818;stroke-width:0.5;" x1="1593" x2="1810" y1="809.7969" y2="809.7969"/><ellipse cx="1603" cy="823.4453" fill="#84BE84" rx="3" ry="3" style="stroke:#038048;stroke-width:1.0;"/><text fill="#000000" font-family="sans-serif" font-size="14" lengthAdjust="spacing" textLength="193" x="1612" y="826.792">analyzeAgain(recordId: Int)</text></g><!--class SharePlatform--><g id="elem_SharePlatform"><rect codeLine="104" fill="#F1F1F1" height="64.2969" id="SharePlatform" rx="2.5" ry="2.5" style="stroke:#181818;stroke-width:0.5;" width="192" x="1903.5" y="259.2969"/><ellipse cx="1943.7" cy="275.2969" fill="#ADD1B2" rx="11" ry="11" style="stroke:#181818;stroke-width:1.0;"/><path d="M1946.0438,270.9688 C1945.1063,270.5313 1944.5125,270.3906 1943.6375,270.3906 C1941.0125,270.3906 1939.0125,272.4688 1939.0125,275.1875 L1939.0125,276.3125 C1939.0125,278.8906 1941.1219,280.7813 1944.0125,280.7813 C1945.2313,280.7813 1946.3875,280.4844 1947.1375,279.9375 C1947.7156,279.5313 1948.0438,279.0781 1948.0438,278.6875 C1948.0438,278.2344 1947.6531,277.8438 1947.1844,277.8438 C1946.9656,277.8438 1946.7625,277.9219 1946.575,278.1094 C1946.1219,278.5938 1946.1219,278.5938 1945.9344,278.6875 C1945.5125,278.9531 1944.825,279.0781 1944.0594,279.0781 C1942.0125,279.0781 1940.7156,277.9844 1940.7156,276.2813 L1940.7156,275.1875 C1940.7156,273.4063 1941.9656,272.0938 1943.7,272.0938 C1944.2781,272.0938 1944.8875,272.25 1945.3563,272.5 C1945.8406,272.7813 1946.0125,273 1946.1063,273.4063 C1946.1688,273.8125 1946.2,273.9375 1946.3406,274.0625 C1946.4813,274.2031 1946.7156,274.3125 1946.9344,274.3125 C1947.2,274.3125 1947.4656,274.1719 1947.6375,273.9531 C1947.7469,273.7969 1947.7781,273.6094 1947.7781,273.1875 L1947.7781,271.7656 C1947.7781,271.3281 1947.7625,271.2031 1947.6688,271.0469 C1947.5125,270.7813 1947.2313,270.6406 1946.9344,270.6406 C1946.6375,270.6406 1946.4344,270.7344 1946.2156,271.0469 L1946.0438,270.9688 Z " fill="#000000"/><text fill="#000000" font-family="sans-serif" font-size="14" lengthAdjust="spacing" textLength="104" x="1963.3" y="280.1436">SharePlatform</text><line style="stroke:#181818;stroke-width:0.5;" x1="1904.5" x2="2094.5" y1="291.2969" y2="291.2969"/><line style="stroke:#181818;stroke-width:0.5;" x1="1904.5" x2="2094.5" y1="299.2969" y2="299.2969"/><ellipse cx="1914.5" cy="312.9453" fill="#84BE84" rx="3" ry="3" style="stroke:#038048;stroke-width:1.0;"/><text fill="#000000" font-family="sans-serif" font-size="14" lengthAdjust="spacing" textLength="166" x="1923.5" y="316.292">processShareRequest()</text></g><!--link WelcomeScreen to RegistrationScreen--><g id="link_WelcomeScreen_RegistrationScreen"><path codeLine="108" d="M637.907,117.1099 C621.107,143.9479 595.9934,184.069 572.5224,221.566 " fill="none" id="WelcomeScreen-to-RegistrationScreen" style="stroke:#181818;stroke-width:1.0;"/><polygon fill="#181818" points="569.339,226.6519,577.5047,221.1454,571.9919,222.4137,570.7236,216.9008,569.339,226.6519" style="stroke:#181818;stroke-width:1.0;"/><text fill="#000000" font-family="sans-serif" font-size="13" lengthAdjust="spacing" textLength="102" x="603.5" y="184.3638">showRegForm()</text></g><!--link WelcomeScreen to LoginScreen--><g id="link_WelcomeScreen_LoginScreen"><path codeLine="109" d="M695.796,116.9159 C746.05,143.7499 825.7453,186.3037 896.1673,223.9077 " fill="none" id="WelcomeScreen-to-LoginScreen" style="stroke:#181818;stroke-width:1.0;"/><polygon fill="#181818" points="901.46,226.7339,895.4051,218.9661,897.0494,224.3787,891.6368,226.023,901.46,226.7339" style="stroke:#181818;stroke-width:1.0;"/><text fill="#000000" font-family="sans-serif" font-size="13" lengthAdjust="spacing" textLength="111" x="826.5" y="184.3638">showLoginForm()</text></g><!--link MainScreen to UploadScreen--><g id="link_MainScreen_UploadScreen"><path codeLine="110" d="M1505.01,141.3639 C1482.31,169.4189 1457.2335,200.402 1433.4635,229.787 " fill="none" id="MainScreen-to-UploadScreen" style="stroke:#181818;stroke-width:1.0;"/><polygon fill="#181818" points="1429.69,234.4519,1438.4601,229.9702,1432.8346,230.5645,1432.2403,224.9389,1429.69,234.4519" style="stroke:#181818;stroke-width:1.0;"/><text fill="#000000" font-family="sans-serif" font-size="13" lengthAdjust="spacing" textLength="121" x="1479.5" y="184.3638">showUploadForm()</text></g><!--link MainScreen to HistoryRecordScreen--><g id="link_MainScreen_HistoryRecordScreen"><path codeLine="111" d="M1584.62,141.5209 C1592.92,151.3139 1601.54,161.5959 1609.5,171.2969 C1621.86,186.3599 1631.1918,197.9568 1643.5318,213.5168 " fill="none" id="MainScreen-to-HistoryRecordScreen" style="stroke:#181818;stroke-width:1.0;"/><polygon fill="#181818" points="1647.26,218.2179,1644.8017,208.6808,1644.1531,214.3003,1638.5336,213.6517,1647.26,218.2179" style="stroke:#181818;stroke-width:1.0;"/><text fill="#000000" font-family="sans-serif" font-size="13" lengthAdjust="spacing" textLength="142" x="1624.5" y="184.3638">selectHistoryFeature()</text></g><!--link ResultDisplayScreen to AdviceDisplayScreen--><g id="link_ResultDisplayScreen_AdviceDisplayScreen"><path codeLine="112" d="M1956.87,595.4329 C1961.9,641.0729 1969.4524,709.638 1974.4824,755.254 " fill="none" id="ResultDisplayScreen-to-AdviceDisplayScreen" style="stroke:#181818;stroke-width:1.0;"/><polygon fill="#181818" points="1975.14,761.2179,1978.1295,751.8337,1974.592,756.248,1970.1777,752.7105,1975.14,761.2179" style="stroke:#181818;stroke-width:1.0;"/><text fill="#000000" font-family="sans-serif" font-size="13" lengthAdjust="spacing" textLength="159" x="1971.5" y="711.3638">showCareAdvice(advice)</text></g><!--link HistoryRecordScreen to ResultDisplayScreen--><g id="link_HistoryRecordScreen_ResultDisplayScreen"><path codeLine="113" d="M1772.2,364.4449 C1818.26,412.8219 1873.0424,470.3478 1910.7524,509.9488 " fill="none" id="HistoryRecordScreen-to-ResultDisplayScreen" style="stroke:#181818;stroke-width:1.0;"/><polygon fill="#181818" points="1914.89,514.2939,1911.5803,505.0178,1911.442,510.6729,1905.7868,510.5346,1914.89,514.2939" style="stroke:#181818;stroke-width:1.0;"/><text fill="#000000" font-family="sans-serif" font-size="13" lengthAdjust="spacing" textLength="185" x="1814.5" y="407.3638">showRecordDetails(recordId)</text></g><!--link ShareScreen to SharePlatform--><g id="link_ShareScreen_SharePlatform"><path codeLine="114" d="M1999.5,133.5619 C1999.5,170.5689 1999.5,218.9829 1999.5,252.9909 " fill="none" id="ShareScreen-to-SharePlatform" style="stroke:#181818;stroke-width:1.0;"/><polygon fill="#181818" points="1999.5,258.9909,2003.5,249.9909,1999.5,253.9909,1995.5,249.9909,1999.5,258.9909" style="stroke:#181818;stroke-width:1.0;"/><text fill="#000000" font-family="sans-serif" font-size="13" lengthAdjust="spacing" textLength="150" x="2000.5" y="184.3638">processShareRequest()</text></g><!--link RegistrationScreen to Controller--><g id="link_RegistrationScreen_Controller"><path codeLine="116" d="M627.98,355.8099 C657.942,374.3709 691.224,394.2399 722.5,411.2969 C740.876,421.3189 754.7247,428.6564 774.1297,438.5414 " fill="none" id="RegistrationScreen-to-Controller" style="stroke:#181818;stroke-width:1.0;"/><polygon fill="#181818" points="779.476,441.2649,773.2722,433.6155,775.0207,438.9953,769.6409,440.7439,779.476,441.2649" style="stroke:#181818;stroke-width:1.0;"/><text fill="#000000" font-family="sans-serif" font-size="13" lengthAdjust="spacing" textLength="288" x="723.5" y="407.3638">validateRegInfo(username, password, email)</text></g><!--link LoginScreen to Controller--><g id="link_LoginScreen_Controller"><path codeLine="117" d="M1020.5,355.9329 C1020.5,381.6329 1020.5,406.0809 1020.5,435.2889 " fill="none" id="LoginScreen-to-Controller" style="stroke:#181818;stroke-width:1.0;"/><polygon fill="#181818" points="1020.5,441.2889,1024.5,432.2889,1020.5,436.2889,1016.5,432.2889,1020.5,441.2889" style="stroke:#181818;stroke-width:1.0;"/><text fill="#000000" font-family="sans-serif" font-size="13" lengthAdjust="spacing" textLength="268" x="1021.5" y="407.3638">validateCredentials(username, password)</text></g><!--link UploadScreen to Controller--><g id="link_UploadScreen_Controller"><path codeLine="118" d="M1352.25,347.9519 C1337.79,369.6069 1319.29,393.4489 1298.5,411.2969 C1286.26,421.8059 1278.0363,428.3862 1264.3563,437.8382 " fill="none" id="UploadScreen-to-Controller" style="stroke:#181818;stroke-width:1.0;"/><polygon fill="#181818" points="1259.42,441.2489,1269.0983,439.4237,1263.5336,438.4066,1264.5507,432.842,1259.42,441.2489" style="stroke:#181818;stroke-width:1.0;"/><text fill="#000000" font-family="sans-serif" font-size="13" lengthAdjust="spacing" textLength="196" x="1317.5" y="407.3638">checkPhotoRestrictions(photo)</text></g><!--link Controller to KaggleModel--><g id="link_Controller_KaggleModel"><path codeLine="119" d="M854.528,668.4369 C799.894,705.5159 748.4376,740.4375 710.4256,766.2355 " fill="none" id="Controller-to-KaggleModel" style="stroke:#181818;stroke-width:1.0;"/><polygon fill="#181818" points="705.461,769.6049,715.1542,767.8605,709.5982,766.7971,710.6617,761.2411,705.461,769.6049" style="stroke:#181818;stroke-width:1.0;"/><text fill="#000000" font-family="sans-serif" font-size="13" lengthAdjust="spacing" textLength="166" x="809.5" y="711.3638">analyzeAndPredict(photo)</text></g><!--link Controller to GPT4Vision--><g id="link_Controller_GPT4Vision"><path codeLine="120" d="M1008.53,668.6159 C1004.596,705.6639 1001.1711,737.9344 998.4381,763.6904 " fill="none" id="Controller-to-GPT4Vision" style="stroke:#181818;stroke-width:1.0;"/><polygon fill="#181818" points="997.805,769.6569,1002.7323,761.1292,998.3326,764.6848,994.777,760.285,997.805,769.6569" style="stroke:#181818;stroke-width:1.0;"/><text fill="#000000" font-family="sans-serif" font-size="13" lengthAdjust="spacing" textLength="229" x="1006.5" y="711.3638">generateCareAdvice(results, photo)</text></g><!--link HistoryRecordScreen to Controller--><g id="link_HistoryRecordScreen_Controller"><path codeLine="121" d="M1605.65,364.3989 C1579.54,381.4419 1550.71,398.3889 1522.5,411.2969 C1443.31,447.5289 1358.6017,475.0755 1276.4517,497.3075 " fill="none" id="HistoryRecordScreen-to-Controller" style="stroke:#181818;stroke-width:1.0;"/><polygon fill="#181818" points="1270.66,498.8749,1280.3924,500.3849,1275.4864,497.5687,1278.3026,492.6627,1270.66,498.8749" style="stroke:#181818;stroke-width:1.0;"/><text fill="#000000" font-family="sans-serif" font-size="13" lengthAdjust="spacing" textLength="104" x="1555.5" y="407.3638">requestHistory()</text></g><!--link Controller to Database--><g id="link_Controller_Database"><path codeLine="122" d="M1200.11,668.3539 C1215.22,678.3379 1230.18,688.4089 1244.5,698.2969 C1265.89,713.0689 1283.8582,726.1193 1304.5682,741.6353 " fill="none" id="Controller-to-Database" style="stroke:#181818;stroke-width:1.0;"/><polygon fill="#181818" points="1309.37,745.2329,1304.5656,736.6353,1305.3685,742.2349,1299.7689,743.0378,1309.37,745.2329" style="stroke:#181818;stroke-width:1.0;"/><text fill="#000000" font-family="sans-serif" font-size="13" lengthAdjust="spacing" textLength="88" x="1268.5" y="711.3638">fetchHistory()</text></g><!--link Controller to AnalysisService--><g id="link_Controller_AnalysisService"><path codeLine="123" d="M1270.63,636.4849 C1366.32,668.6249 1476.09,707.0359 1574.5,745.2969 C1593.67,752.7519 1608.7124,759.0146 1627.5524,767.2506 " fill="none" id="Controller-to-AnalysisService" style="stroke:#181818;stroke-width:1.0;"/><polygon fill="#181818" points="1633.05,769.6539,1626.4058,762.3838,1628.4686,767.6511,1623.2013,769.714,1633.05,769.6539" style="stroke:#181818;stroke-width:1.0;"/><text fill="#000000" font-family="sans-serif" font-size="13" lengthAdjust="spacing" textLength="148" x="1486.5" y="711.3638">analyzeAgain(recordId)</text></g><!--link Controller to Server--><g id="link_Controller_Server"><path codeLine="124" d="M770.202,616.5749 C682.831,639.7069 584.615,667.8839 496.5,698.2969 C443.48,716.5969 391.0481,738.4278 345.0591,758.7498 " fill="none" id="Controller-to-Server" style="stroke:#181818;stroke-width:1.0;"/><polygon fill="#181818" points="339.571,761.1749,349.4198,761.1959,344.1444,759.1539,346.1864,753.8785,339.571,761.1749" style="stroke:#181818;stroke-width:1.0;"/><text fill="#000000" font-family="sans-serif" font-size="13" lengthAdjust="spacing" textLength="281" x="497.5" y="711.3638">createAccount(username, password, email)</text></g><!--link Server to UserInfo--><g id="link_Server_UserInfo"><path codeLine="125" d="M253.5,842.6669 C253.5,869.6129 253.5,899.5619 253.5,929.2969 " fill="none" id="Server-to-UserInfo" style="stroke:#181818;stroke-width:1.0;"/><polygon fill="#181818" points="253.5,935.2969,257.5,926.2969,253.5,930.2969,249.5,926.2969,253.5,935.2969" style="stroke:#181818;stroke-width:1.0;"/><text fill="#000000" font-family="sans-serif" font-size="13" lengthAdjust="spacing" textLength="274" x="254.5" y="901.3638">storeUserInfo(username, password, email)</text></g><!--SRC=[hLPBRzim3BxxL-ZeOCrj9ny61Eso5MlH86stisepZZ15yYGvHLVilu-ov8TikLtJvH0buflyICemmu6igegpd1ec1RavWgASatDEjIONZ9QA7iYIh6kHMmPDg2Z8hP4A2d8kXG5XT9Ba3ViFuBaym6sk00HvJlwqX2sKJ1lLcEYe13yVz5u-8dKjrI5Tk2icgjhWtQNOoRJMe0GzG8Os5HFb6QbGuQDKHNy31yfu-zShqVN3WRrRIy5qnUaJnhbZwj2uduQapqf9bOBzljPbBzw5VYLB5ecvkPv4VOvPnOGoolK_-1o4UfAe3-AQjYw-DRfUiWiEEEJclkAI5ckWfbRGAdMahuW4gPv6D46FhAG6xcJWJ6V8APpcqHiQ9tApbqQcGOBSLMM_Cx9c7DuOwXPqpSs5uuw1s99rgjoPaIkCCpGnmz9PM1L7biEiXNEgmB6aj3bcm3hFrbdoDTX2ZfY8rIzU96_14zEzEsqKGRXEXLEEmThZ4f5tAJg69b_s_W8CTfsESkLxAJMich6JqkRe0HqJyExTLmK2gMYz78HzkyVSJ1FRNDzKpNXB0-CRJitEOgloFoAvj4DGISv1jJgFb3Fhmdkd3pgAMbPvBcjXJjRIUdFIWC3fBmnw07egr6KAyfzDSo6-aU3MHAJHgA3ywJUiHB51Lv0lmgFWLurQ1XWEcWNzd8YK871bONnlaF5cUeZuM-_Y2z0j4DjcXg776QXZ3uV_KyQNAz7FIIHPq7dZop6hknsRTBU1MTyUTj6tEa_nlNFi6orB3jSI4zWcvXL0TA9VDdSVlpDjdoVF9zMyqtH13NsW6jhiJ2QOKxy3a-z7uAWhrzBJmfyH0Utu3-QWWeCyleQLbKs2PjfY1kCOvwR4RJYFCpkusXdLIbPAMf0qjAt3kPk1uUjikVmKUvPb97oHJOM63nh7FNpB31u4bZbOsuuxsDWZzjXUGgduIeejPAiajaQTwSbgN2GnYourK-LjRcABQv4CbulL41Od8_6w994QMEd1Lid8t4Bf-y_ttI8PLcTMJsmLzBeMIL2rYPQN1luY6R1QoM7RPsIcuoTIWuxFo7op-pQVhsBWzsJeZunsmo4Zem4mOXotR1zNqAqJERyMC8FHZH2fffTeEgaTx8Z2w52UYly5]--></g></svg>