<?xml version="1.0" encoding="us-ascii" standalone="no"?><svg xmlns="http://www.w3.org/2000/svg" xmlns:xlink="http://www.w3.org/1999/xlink" contentStyleType="text/css" height="1206px" preserveAspectRatio="none" style="width:1969px;height:1206px;background:#FFFFFF;" version="1.1" viewBox="0 0 1969 1206" width="1969px" zoomAndPan="magnify"><defs/><g><text fill="#000000" font-family="sans-serif" font-size="14" font-weight="bold" lengthAdjust="spacing" textLength="569" x="693" y="22.9951">Application Class Diagram with Detailed UI Components and Interactions</text><!--cluster Client Side--><g id="cluster_Client Side"><path d="M33,346.2969 L118,346.2969 A3.75,3.75 0 0 1 120.5,348.7969 L127.5,368.5938 L1959.5,368.5938 A2.5,2.5 0 0 1 1962,371.0938 L1962,1196.7969 A2.5,2.5 0 0 1 1959.5,1199.2969 L33,1199.2969 A2.5,2.5 0 0 1 30.5,1196.7969 L30.5,348.7969 A2.5,2.5 0 0 1 33,346.2969 " fill="none" style="stroke:#000000;stroke-width:1.5;"/><line style="stroke:#000000;stroke-width:1.5;" x1="30.5" x2="127.5" y1="368.5938" y2="368.5938"/><text fill="#000000" font-family="sans-serif" font-size="14" font-weight="bold" lengthAdjust="spacing" textLength="84" x="34.5" y="361.292">Client Side</text></g><!--cluster Server Side--><g id="cluster_Server Side"><path d="M8.5,43.2969 L101.5,43.2969 A3.75,3.75 0 0 1 104,45.7969 L111,65.5938 L1042,65.5938 A2.5,2.5 0 0 1 1044.5,68.0938 L1044.5,319.7969 A2.5,2.5 0 0 1 1042,322.2969 L8.5,322.2969 A2.5,2.5 0 0 1 6,319.7969 L6,45.7969 A2.5,2.5 0 0 1 8.5,43.2969 " fill="none" style="stroke:#000000;stroke-width:1.5;"/><line style="stroke:#000000;stroke-width:1.5;" x1="6" x2="111" y1="65.5938" y2="65.5938"/><text fill="#000000" font-family="sans-serif" font-size="14" font-weight="bold" lengthAdjust="spacing" textLength="92" x="10" y="58.292">Server Side</text></g><!--class MainScreen--><g id="elem_MainScreen"><rect codeLine="7" fill="#F1F1F1" height="145.7813" id="MainScreen" rx="2.5" ry="2.5" style="stroke:#181818;stroke-width:0.5;" width="428" x="46.5" y="734.4069"/><ellipse cx="215.75" cy="750.4069" fill="#ADD1B2" rx="11" ry="11" style="stroke:#181818;stroke-width:1.0;"/><path d="M218.7188,756.0475 Q218.1406,756.3444 217.5,756.485 Q216.8594,756.6413 216.1563,756.6413 Q213.6563,756.6413 212.3281,755.0006 Q211.0156,753.3444 211.0156,750.2194 Q211.0156,747.0944 212.3281,745.4381 Q213.6563,743.7819 216.1563,743.7819 Q216.8594,743.7819 217.5,743.9381 Q218.1563,744.0944 218.7188,744.3913 L218.7188,747.11 Q218.0938,746.5319 217.5,746.2663 Q216.9063,745.985 216.2813,745.985 Q214.9375,745.985 214.25,747.0631 Q213.5625,748.1256 213.5625,750.2194 Q213.5625,752.3131 214.25,753.3913 Q214.9375,754.4538 216.2813,754.4538 Q216.9063,754.4538 217.5,754.1881 Q218.0938,753.9069 218.7188,753.3288 L218.7188,756.0475 Z " fill="#000000"/><text fill="#000000" font-family="sans-serif" font-size="14" lengthAdjust="spacing" textLength="81" x="236.25" y="755.2536">MainScreen</text><line style="stroke:#181818;stroke-width:0.5;" x1="47.5" x2="473.5" y1="766.4069" y2="766.4069"/><ellipse cx="57.5" cy="788.2038" fill="none" rx="3" ry="3" style="stroke:#038048;stroke-width:1.0;"/><text fill="#000000" font-family="sans-serif" font-size="14" lengthAdjust="spacing" textLength="398" x="66.5" y="783.402">Navigation Buttons | HistoryRecordScreen, UploadScreen,</text><text fill="#000000" font-family="sans-serif" font-size="14" lengthAdjust="spacing" textLength="323" x="70.5" y="799.6989">LoginScreen, RegistrationScreen : &#25805;&#20316;&#23548;&#33322;&#25353;&#38062;</text><ellipse cx="57.5" cy="812.6491" fill="none" rx="3" ry="3" style="stroke:#038048;stroke-width:1.0;"/><text fill="#000000" font-family="sans-serif" font-size="14" lengthAdjust="spacing" textLength="219" x="66.5" y="815.9957">Feature Icons | &#22270;&#26631;&#30452;&#35266;&#34920;&#31034;&#21151;&#33021;</text><line style="stroke:#181818;stroke-width:0.5;" x1="47.5" x2="473.5" y1="823.2975" y2="823.2975"/><ellipse cx="57.5" cy="836.9459" fill="#84BE84" rx="3" ry="3" style="stroke:#038048;stroke-width:1.0;"/><text fill="#000000" font-family="sans-serif" font-size="14" lengthAdjust="spacing" textLength="153" x="66.5" y="840.2926">selectUploadFeature()</text><ellipse cx="57.5" cy="853.2428" fill="#84BE84" rx="3" ry="3" style="stroke:#038048;stroke-width:1.0;"/><text fill="#000000" font-family="sans-serif" font-size="14" lengthAdjust="spacing" textLength="152" x="66.5" y="856.5895">selectHistoryFeature()</text><ellipse cx="57.5" cy="869.5397" fill="#84BE84" rx="3" ry="3" style="stroke:#038048;stroke-width:1.0;"/><text fill="#000000" font-family="sans-serif" font-size="14" lengthAdjust="spacing" textLength="167" x="66.5" y="872.8864">navigateToMainScreen()</text></g><!--class RegistrationScreen--><g id="elem_RegistrationScreen"><rect codeLine="14" fill="#F1F1F1" height="162.0781" id="RegistrationScreen" rx="2.5" ry="2.5" style="stroke:#181818;stroke-width:0.5;" width="472" x="623" y="1021.2569"/><ellipse cx="788.75" cy="1037.2569" fill="#ADD1B2" rx="11" ry="11" style="stroke:#181818;stroke-width:1.0;"/><path d="M791.7188,1042.8975 Q791.1406,1043.1944 790.5,1043.335 Q789.8594,1043.4913 789.1563,1043.4913 Q786.6563,1043.4913 785.3281,1041.8506 Q784.0156,1040.1944 784.0156,1037.0694 Q784.0156,1033.9444 785.3281,1032.2881 Q786.6563,1030.6319 789.1563,1030.6319 Q789.8594,1030.6319 790.5,1030.7881 Q791.1563,1030.9444 791.7188,1031.2413 L791.7188,1033.96 Q791.0938,1033.3819 790.5,1033.1163 Q789.9063,1032.835 789.2813,1032.835 Q787.9375,1032.835 787.25,1033.9131 Q786.5625,1034.9756 786.5625,1037.0694 Q786.5625,1039.1631 787.25,1040.2413 Q787.9375,1041.3038 789.2813,1041.3038 Q789.9063,1041.3038 790.5,1041.0381 Q791.0938,1040.7569 791.7188,1040.1788 L791.7188,1042.8975 Z " fill="#000000"/><text fill="#000000" font-family="sans-serif" font-size="14" lengthAdjust="spacing" textLength="132" x="809.25" y="1042.1036">RegistrationScreen</text><line style="stroke:#181818;stroke-width:0.5;" x1="624" x2="1094" y1="1053.2569" y2="1053.2569"/><ellipse cx="634" cy="1066.9053" fill="none" rx="3" ry="3" style="stroke:#038048;stroke-width:1.0;"/><text fill="#000000" font-family="sans-serif" font-size="14" lengthAdjust="spacing" textLength="303" x="643" y="1070.252">Input Fields | &#29992;&#25143;&#21517;, &#23494;&#30721;, &#37038;&#31665; : &#36755;&#20837;&#27880;&#20876;&#20449;&#24687;</text><ellipse cx="634" cy="1083.2022" fill="none" rx="3" ry="3" style="stroke:#038048;stroke-width:1.0;"/><text fill="#000000" font-family="sans-serif" font-size="14" lengthAdjust="spacing" textLength="196" x="643" y="1086.5489">Submit Button | &#25552;&#20132;&#27880;&#20876;&#20449;&#24687;</text><line style="stroke:#181818;stroke-width:0.5;" x1="624" x2="1094" y1="1093.8506" y2="1093.8506"/><ellipse cx="634" cy="1107.4991" fill="#84BE84" rx="3" ry="3" style="stroke:#038048;stroke-width:1.0;"/><text fill="#000000" font-family="sans-serif" font-size="14" lengthAdjust="spacing" textLength="110" x="643" y="1110.8457">showRegForm()</text><ellipse cx="634" cy="1123.7959" fill="#84BE84" rx="3" ry="3" style="stroke:#038048;stroke-width:1.0;"/><text fill="#000000" font-family="sans-serif" font-size="14" lengthAdjust="spacing" textLength="434" x="643" y="1127.1426">inputRegInfo(username: String, password: String, email: String)</text><ellipse cx="634" cy="1140.0928" fill="#84BE84" rx="3" ry="3" style="stroke:#038048;stroke-width:1.0;"/><text fill="#000000" font-family="sans-serif" font-size="14" lengthAdjust="spacing" textLength="446" x="643" y="1143.4395">submitRegInfo(username: String, password: String, email: String)</text><ellipse cx="634" cy="1156.3897" fill="#84BE84" rx="3" ry="3" style="stroke:#038048;stroke-width:1.0;"/><text fill="#000000" font-family="sans-serif" font-size="14" lengthAdjust="spacing" textLength="144" x="643" y="1159.7364">displayConfirmation()</text><ellipse cx="634" cy="1172.6866" fill="#84BE84" rx="3" ry="3" style="stroke:#038048;stroke-width:1.0;"/><text fill="#000000" font-family="sans-serif" font-size="14" lengthAdjust="spacing" textLength="201" x="643" y="1176.0332">displayError(errorMsg: String)</text></g><!--class LoginScreen--><g id="elem_LoginScreen"><rect codeLine="23" fill="#F1F1F1" height="162.0781" id="LoginScreen" rx="2.5" ry="2.5" style="stroke:#181818;stroke-width:0.5;" width="404" x="657" y="824.2569"/><ellipse cx="811.75" cy="840.2569" fill="#ADD1B2" rx="11" ry="11" style="stroke:#181818;stroke-width:1.0;"/><path d="M814.7188,845.8975 Q814.1406,846.1944 813.5,846.335 Q812.8594,846.4913 812.1563,846.4913 Q809.6563,846.4913 808.3281,844.8506 Q807.0156,843.1944 807.0156,840.0694 Q807.0156,836.9444 808.3281,835.2881 Q809.6563,833.6319 812.1563,833.6319 Q812.8594,833.6319 813.5,833.7881 Q814.1563,833.9444 814.7188,834.2413 L814.7188,836.96 Q814.0938,836.3819 813.5,836.1163 Q812.9063,835.835 812.2813,835.835 Q810.9375,835.835 810.25,836.9131 Q809.5625,837.9756 809.5625,840.0694 Q809.5625,842.1631 810.25,843.2413 Q810.9375,844.3038 812.2813,844.3038 Q812.9063,844.3038 813.5,844.0381 Q814.0938,843.7569 814.7188,843.1788 L814.7188,845.8975 Z " fill="#000000"/><text fill="#000000" font-family="sans-serif" font-size="14" lengthAdjust="spacing" textLength="86" x="832.25" y="845.1036">LoginScreen</text><line style="stroke:#181818;stroke-width:0.5;" x1="658" x2="1060" y1="856.2569" y2="856.2569"/><ellipse cx="668" cy="869.9053" fill="none" rx="3" ry="3" style="stroke:#038048;stroke-width:1.0;"/><text fill="#000000" font-family="sans-serif" font-size="14" lengthAdjust="spacing" textLength="267" x="677" y="873.252">Input Fields | &#29992;&#25143;&#21517;, &#23494;&#30721; : &#36755;&#20837;&#30331;&#24405;&#20973;&#35777;</text><ellipse cx="668" cy="886.2022" fill="none" rx="3" ry="3" style="stroke:#038048;stroke-width:1.0;"/><text fill="#000000" font-family="sans-serif" font-size="14" lengthAdjust="spacing" textLength="157" x="677" y="889.5489">Login Button | &#30331;&#24405;&#31995;&#32479;</text><line style="stroke:#181818;stroke-width:0.5;" x1="658" x2="1060" y1="896.8506" y2="896.8506"/><ellipse cx="668" cy="910.4991" fill="#84BE84" rx="3" ry="3" style="stroke:#038048;stroke-width:1.0;"/><text fill="#000000" font-family="sans-serif" font-size="14" lengthAdjust="spacing" textLength="119" x="677" y="913.8457">showLoginForm()</text><ellipse cx="668" cy="926.7959" fill="#84BE84" rx="3" ry="3" style="stroke:#038048;stroke-width:1.0;"/><text fill="#000000" font-family="sans-serif" font-size="14" lengthAdjust="spacing" textLength="366" x="677" y="930.1426">inputCredentials(username: String, password: String)</text><ellipse cx="668" cy="943.0928" fill="#84BE84" rx="3" ry="3" style="stroke:#038048;stroke-width:1.0;"/><text fill="#000000" font-family="sans-serif" font-size="14" lengthAdjust="spacing" textLength="378" x="677" y="946.4395">submitCredentials(username: String, password: String)</text><ellipse cx="668" cy="959.3897" fill="#84BE84" rx="3" ry="3" style="stroke:#038048;stroke-width:1.0;"/><text fill="#000000" font-family="sans-serif" font-size="14" lengthAdjust="spacing" textLength="138" x="677" y="962.7364">displayMainScreen()</text><ellipse cx="668" cy="975.6866" fill="#84BE84" rx="3" ry="3" style="stroke:#038048;stroke-width:1.0;"/><text fill="#000000" font-family="sans-serif" font-size="14" lengthAdjust="spacing" textLength="201" x="677" y="979.0332">displayError(errorMsg: String)</text></g><!--class UploadScreen--><g id="elem_UploadScreen"><rect codeLine="32" fill="#F1F1F1" height="162.0781" id="UploadScreen" rx="2.5" ry="2.5" style="stroke:#181818;stroke-width:0.5;" width="323" x="697.5" y="627.2569"/><ellipse cx="806.25" cy="643.2569" fill="#ADD1B2" rx="11" ry="11" style="stroke:#181818;stroke-width:1.0;"/><path d="M809.2188,648.8975 Q808.6406,649.1944 808,649.335 Q807.3594,649.4913 806.6563,649.4913 Q804.1563,649.4913 802.8281,647.8506 Q801.5156,646.1944 801.5156,643.0694 Q801.5156,639.9444 802.8281,638.2881 Q804.1563,636.6319 806.6563,636.6319 Q807.3594,636.6319 808,636.7881 Q808.6563,636.9444 809.2188,637.2413 L809.2188,639.96 Q808.5938,639.3819 808,639.1163 Q807.4063,638.835 806.7813,638.835 Q805.4375,638.835 804.75,639.9131 Q804.0625,640.9756 804.0625,643.0694 Q804.0625,645.1631 804.75,646.2413 Q805.4375,647.3038 806.7813,647.3038 Q807.4063,647.3038 808,647.0381 Q808.5938,646.7569 809.2188,646.1788 L809.2188,648.8975 Z " fill="#000000"/><text fill="#000000" font-family="sans-serif" font-size="14" lengthAdjust="spacing" textLength="97" x="826.75" y="648.1036">UploadScreen</text><line style="stroke:#181818;stroke-width:0.5;" x1="698.5" x2="1019.5" y1="659.2569" y2="659.2569"/><ellipse cx="708.5" cy="672.9053" fill="none" rx="3" ry="3" style="stroke:#038048;stroke-width:1.0;"/><text fill="#000000" font-family="sans-serif" font-size="14" lengthAdjust="spacing" textLength="199" x="717.5" y="676.252">Photo Selector | &#36873;&#25321;&#29031;&#29255;&#19978;&#20256;</text><ellipse cx="708.5" cy="689.2022" fill="none" rx="3" ry="3" style="stroke:#038048;stroke-width:1.0;"/><text fill="#000000" font-family="sans-serif" font-size="14" lengthAdjust="spacing" textLength="224" x="717.5" y="692.5489">Upload Button | &#25552;&#20132;&#29031;&#29255;&#36827;&#34892;&#20998;&#26512;</text><ellipse cx="708.5" cy="705.4991" fill="none" rx="3" ry="3" style="stroke:#038048;stroke-width:1.0;"/><text fill="#000000" font-family="sans-serif" font-size="14" lengthAdjust="spacing" textLength="297" x="717.5" y="708.8457">Supplementary Info Input | &#34917;&#20805;&#20449;&#24687;&#25991;&#26412;&#36755;&#20837;</text><line style="stroke:#181818;stroke-width:0.5;" x1="698.5" x2="1019.5" y1="716.1475" y2="716.1475"/><ellipse cx="708.5" cy="729.7959" fill="#84BE84" rx="3" ry="3" style="stroke:#038048;stroke-width:1.0;"/><text fill="#000000" font-family="sans-serif" font-size="14" lengthAdjust="spacing" textLength="130" x="717.5" y="733.1426">showUploadForm()</text><ellipse cx="708.5" cy="746.0928" fill="#84BE84" rx="3" ry="3" style="stroke:#038048;stroke-width:1.0;"/><text fill="#000000" font-family="sans-serif" font-size="14" lengthAdjust="spacing" textLength="86" x="717.5" y="749.4395">inputPhoto()</text><ellipse cx="708.5" cy="762.3897" fill="#84BE84" rx="3" ry="3" style="stroke:#038048;stroke-width:1.0;"/><text fill="#000000" font-family="sans-serif" font-size="14" lengthAdjust="spacing" textLength="171" x="717.5" y="765.7364">submitPhoto(photo: File)</text><ellipse cx="708.5" cy="778.6866" fill="#84BE84" rx="3" ry="3" style="stroke:#038048;stroke-width:1.0;"/><text fill="#000000" font-family="sans-serif" font-size="14" lengthAdjust="spacing" textLength="201" x="717.5" y="782.0332">displayError(errorMsg: String)</text></g><!--class ResultDisplayScreen--><g id="elem_ResultDisplayScreen"><rect codeLine="41" fill="#F1F1F1" height="145.7813" id="ResultDisplayScreen" rx="2.5" ry="2.5" style="stroke:#181818;stroke-width:0.5;" width="261" x="1255" y="635.4069"/><ellipse cx="1310.25" cy="651.4069" fill="#ADD1B2" rx="11" ry="11" style="stroke:#181818;stroke-width:1.0;"/><path d="M1313.2188,657.0475 Q1312.6406,657.3444 1312,657.485 Q1311.3594,657.6413 1310.6563,657.6413 Q1308.1563,657.6413 1306.8281,656.0006 Q1305.5156,654.3444 1305.5156,651.2194 Q1305.5156,648.0944 1306.8281,646.4381 Q1308.1563,644.7819 1310.6563,644.7819 Q1311.3594,644.7819 1312,644.9381 Q1312.6563,645.0944 1313.2188,645.3913 L1313.2188,648.11 Q1312.5938,647.5319 1312,647.2663 Q1311.4063,646.985 1310.7813,646.985 Q1309.4375,646.985 1308.75,648.0631 Q1308.0625,649.1256 1308.0625,651.2194 Q1308.0625,653.3131 1308.75,654.3913 Q1309.4375,655.4538 1310.7813,655.4538 Q1311.4063,655.4538 1312,655.1881 Q1312.5938,654.9069 1313.2188,654.3288 L1313.2188,657.0475 Z " fill="#000000"/><text fill="#000000" font-family="sans-serif" font-size="14" lengthAdjust="spacing" textLength="142" x="1330.75" y="656.2536">ResultDisplayScreen</text><line style="stroke:#181818;stroke-width:0.5;" x1="1256" x2="1515" y1="667.4069" y2="667.4069"/><ellipse cx="1266" cy="681.0553" fill="none" rx="3" ry="3" style="stroke:#038048;stroke-width:1.0;"/><text fill="#000000" font-family="sans-serif" font-size="14" lengthAdjust="spacing" textLength="203" x="1275" y="684.402">Result Text | &#26174;&#31034;&#20998;&#26512;&#32467;&#26524;&#25991;&#26412;</text><ellipse cx="1266" cy="697.3522" fill="none" rx="3" ry="3" style="stroke:#038048;stroke-width:1.0;"/><text fill="#000000" font-family="sans-serif" font-size="14" lengthAdjust="spacing" textLength="147" x="1275" y="700.6989">Graphs | &#32467;&#26524;&#22270;&#34920;&#23637;&#31034;</text><ellipse cx="1266" cy="713.6491" fill="none" rx="3" ry="3" style="stroke:#038048;stroke-width:1.0;"/><text fill="#000000" font-family="sans-serif" font-size="14" lengthAdjust="spacing" textLength="219" x="1275" y="716.9957">Reanalyze Button | &#37325;&#26032;&#20998;&#26512;&#25353;&#38062;</text><ellipse cx="1266" cy="729.9459" fill="none" rx="3" ry="3" style="stroke:#038048;stroke-width:1.0;"/><text fill="#000000" font-family="sans-serif" font-size="14" lengthAdjust="spacing" textLength="235" x="1275" y="733.2926">Show Advice Button | &#26174;&#31034;&#24314;&#35758;&#25353;&#38062;</text><line style="stroke:#181818;stroke-width:0.5;" x1="1256" x2="1515" y1="740.5944" y2="740.5944"/><ellipse cx="1266" cy="754.2428" fill="#84BE84" rx="3" ry="3" style="stroke:#038048;stroke-width:1.0;"/><text fill="#000000" font-family="sans-serif" font-size="14" lengthAdjust="spacing" textLength="178" x="1275" y="757.5895">showResults(results: List)</text><ellipse cx="1266" cy="770.5397" fill="#84BE84" rx="3" ry="3" style="stroke:#038048;stroke-width:1.0;"/><text fill="#000000" font-family="sans-serif" font-size="14" lengthAdjust="spacing" textLength="188" x="1275" y="773.8864">displayResults(results: List)</text></g><!--class AdviceDisplayScreen--><g id="elem_AdviceDisplayScreen"><rect codeLine="49" fill="#F1F1F1" height="96.8906" id="AdviceDisplayScreen" rx="2.5" ry="2.5" style="stroke:#181818;stroke-width:0.5;" width="253" x="1681" y="694.8469"/><ellipse cx="1731.75" cy="710.8469" fill="#ADD1B2" rx="11" ry="11" style="stroke:#181818;stroke-width:1.0;"/><path d="M1734.7188,716.4875 Q1734.1406,716.7844 1733.5,716.925 Q1732.8594,717.0813 1732.1563,717.0813 Q1729.6563,717.0813 1728.3281,715.4406 Q1727.0156,713.7844 1727.0156,710.6594 Q1727.0156,707.5344 1728.3281,705.8781 Q1729.6563,704.2219 1732.1563,704.2219 Q1732.8594,704.2219 1733.5,704.3781 Q1734.1563,704.5344 1734.7188,704.8313 L1734.7188,707.55 Q1734.0938,706.9719 1733.5,706.7063 Q1732.9063,706.425 1732.2813,706.425 Q1730.9375,706.425 1730.25,707.5031 Q1729.5625,708.5656 1729.5625,710.6594 Q1729.5625,712.7531 1730.25,713.8313 Q1730.9375,714.8938 1732.2813,714.8938 Q1732.9063,714.8938 1733.5,714.6281 Q1734.0938,714.3469 1734.7188,713.7688 L1734.7188,716.4875 Z " fill="#000000"/><text fill="#000000" font-family="sans-serif" font-size="14" lengthAdjust="spacing" textLength="143" x="1752.25" y="715.6936">AdviceDisplayScreen</text><line style="stroke:#181818;stroke-width:0.5;" x1="1682" x2="1933" y1="726.8469" y2="726.8469"/><ellipse cx="1692" cy="740.4953" fill="none" rx="3" ry="3" style="stroke:#038048;stroke-width:1.0;"/><text fill="#000000" font-family="sans-serif" font-size="14" lengthAdjust="spacing" textLength="176" x="1701" y="743.842">Advice Text | &#23637;&#31034;&#20859;&#25252;&#24314;&#35758;</text><line style="stroke:#181818;stroke-width:0.5;" x1="1682" x2="1933" y1="751.1438" y2="751.1438"/><ellipse cx="1692" cy="764.7922" fill="#84BE84" rx="3" ry="3" style="stroke:#038048;stroke-width:1.0;"/><text fill="#000000" font-family="sans-serif" font-size="14" lengthAdjust="spacing" textLength="217" x="1701" y="768.1389">showCareAdvice(advice: String)</text><ellipse cx="1692" cy="781.0891" fill="#84BE84" rx="3" ry="3" style="stroke:#038048;stroke-width:1.0;"/><text fill="#000000" font-family="sans-serif" font-size="14" lengthAdjust="spacing" textLength="227" x="1701" y="784.4357">displayCareAdvice(advice: String)</text></g><!--class HistoryRecordScreen--><g id="elem_HistoryRecordScreen"><rect codeLine="54" fill="#F1F1F1" height="210.9688" id="HistoryRecordScreen" rx="2.5" ry="2.5" style="stroke:#181818;stroke-width:0.5;" width="313" x="702.5" y="380.8169"/><ellipse cx="781.75" cy="396.8169" fill="#ADD1B2" rx="11" ry="11" style="stroke:#181818;stroke-width:1.0;"/><path d="M784.7188,402.4575 Q784.1406,402.7544 783.5,402.895 Q782.8594,403.0513 782.1563,403.0513 Q779.6563,403.0513 778.3281,401.4106 Q777.0156,399.7544 777.0156,396.6294 Q777.0156,393.5044 778.3281,391.8481 Q779.6563,390.1919 782.1563,390.1919 Q782.8594,390.1919 783.5,390.3481 Q784.1563,390.5044 784.7188,390.8013 L784.7188,393.52 Q784.0938,392.9419 783.5,392.6763 Q782.9063,392.395 782.2813,392.395 Q780.9375,392.395 780.25,393.4731 Q779.5625,394.5356 779.5625,396.6294 Q779.5625,398.7231 780.25,399.8013 Q780.9375,400.8638 782.2813,400.8638 Q782.9063,400.8638 783.5,400.5981 Q784.0938,400.3169 784.7188,399.7388 L784.7188,402.4575 Z " fill="#000000"/><text fill="#000000" font-family="sans-serif" font-size="14" lengthAdjust="spacing" textLength="146" x="802.25" y="401.6636">HistoryRecordScreen</text><line style="stroke:#181818;stroke-width:0.5;" x1="703.5" x2="1014.5" y1="412.8169" y2="412.8169"/><ellipse cx="713.5" cy="426.4653" fill="none" rx="3" ry="3" style="stroke:#038048;stroke-width:1.0;"/><text fill="#000000" font-family="sans-serif" font-size="14" lengthAdjust="spacing" textLength="174" x="722.5" y="429.812">Record List | &#21382;&#21490;&#35760;&#24405;&#21015;&#34920;</text><ellipse cx="713.5" cy="442.7622" fill="none" rx="3" ry="3" style="stroke:#038048;stroke-width:1.0;"/><text fill="#000000" font-family="sans-serif" font-size="14" lengthAdjust="spacing" textLength="172" x="722.5" y="446.1089">Detail View | &#26597;&#30475;&#35760;&#24405;&#35814;&#24773;</text><ellipse cx="713.5" cy="459.0591" fill="none" rx="3" ry="3" style="stroke:#038048;stroke-width:1.0;"/><text fill="#000000" font-family="sans-serif" font-size="14" lengthAdjust="spacing" textLength="247" x="722.5" y="462.4057">Reanalyze Button | &#37325;&#26032;&#20998;&#26512;&#35760;&#24405;&#25353;&#38062;</text><ellipse cx="713.5" cy="475.3559" fill="none" rx="3" ry="3" style="stroke:#038048;stroke-width:1.0;"/><text fill="#000000" font-family="sans-serif" font-size="14" lengthAdjust="spacing" textLength="194" x="722.5" y="478.7026">Delete Button | &#21024;&#38500;&#35760;&#24405;&#25353;&#38062;</text><line style="stroke:#181818;stroke-width:0.5;" x1="703.5" x2="1014.5" y1="486.0044" y2="486.0044"/><ellipse cx="713.5" cy="499.6528" fill="#84BE84" rx="3" ry="3" style="stroke:#038048;stroke-width:1.0;"/><text fill="#000000" font-family="sans-serif" font-size="14" lengthAdjust="spacing" textLength="152" x="722.5" y="502.9995">selectHistoryFeature()</text><ellipse cx="713.5" cy="515.9497" fill="#84BE84" rx="3" ry="3" style="stroke:#038048;stroke-width:1.0;"/><text fill="#000000" font-family="sans-serif" font-size="14" lengthAdjust="spacing" textLength="205" x="722.5" y="519.2964">displayHistory(historyList: List)</text><ellipse cx="713.5" cy="532.2466" fill="#84BE84" rx="3" ry="3" style="stroke:#038048;stroke-width:1.0;"/><text fill="#000000" font-family="sans-serif" font-size="14" lengthAdjust="spacing" textLength="185" x="722.5" y="535.5932">selectRecord(recordId: Int)</text><ellipse cx="713.5" cy="548.5434" fill="#84BE84" rx="3" ry="3" style="stroke:#038048;stroke-width:1.0;"/><text fill="#000000" font-family="sans-serif" font-size="14" lengthAdjust="spacing" textLength="227" x="722.5" y="551.8901">showRecordDetails(recordId: Int)</text><ellipse cx="713.5" cy="564.8403" fill="#84BE84" rx="3" ry="3" style="stroke:#038048;stroke-width:1.0;"/><text fill="#000000" font-family="sans-serif" font-size="14" lengthAdjust="spacing" textLength="287" x="722.5" y="568.187">chooseAction(action: String, recordId: Int)</text><ellipse cx="713.5" cy="581.1372" fill="#84BE84" rx="3" ry="3" style="stroke:#038048;stroke-width:1.0;"/><text fill="#000000" font-family="sans-serif" font-size="14" lengthAdjust="spacing" textLength="163" x="722.5" y="584.4839">displayUpdatedHistory()</text></g><!--class ShareScreen--><g id="elem_ShareScreen"><rect codeLine="66" fill="#F1F1F1" height="113.1875" id="ShareScreen" rx="2.5" ry="2.5" style="stroke:#181818;stroke-width:0.5;" width="277" x="1669" y="546.7069"/><ellipse cx="1758.75" cy="562.7069" fill="#ADD1B2" rx="11" ry="11" style="stroke:#181818;stroke-width:1.0;"/><path d="M1761.7188,568.3475 Q1761.1406,568.6444 1760.5,568.785 Q1759.8594,568.9413 1759.1563,568.9413 Q1756.6563,568.9413 1755.3281,567.3006 Q1754.0156,565.6444 1754.0156,562.5194 Q1754.0156,559.3944 1755.3281,557.7381 Q1756.6563,556.0819 1759.1563,556.0819 Q1759.8594,556.0819 1760.5,556.2381 Q1761.1563,556.3944 1761.7188,556.6913 L1761.7188,559.41 Q1761.0938,558.8319 1760.5,558.5663 Q1759.9063,558.285 1759.2813,558.285 Q1757.9375,558.285 1757.25,559.3631 Q1756.5625,560.4256 1756.5625,562.5194 Q1756.5625,564.6131 1757.25,565.6913 Q1757.9375,566.7538 1759.2813,566.7538 Q1759.9063,566.7538 1760.5,566.4881 Q1761.0938,566.2069 1761.7188,565.6288 L1761.7188,568.3475 Z " fill="#000000"/><text fill="#000000" font-family="sans-serif" font-size="14" lengthAdjust="spacing" textLength="89" x="1779.25" y="567.5536">ShareScreen</text><line style="stroke:#181818;stroke-width:0.5;" x1="1670" x2="1945" y1="578.7069" y2="578.7069"/><ellipse cx="1680" cy="592.3553" fill="none" rx="3" ry="3" style="stroke:#038048;stroke-width:1.0;"/><text fill="#000000" font-family="sans-serif" font-size="14" lengthAdjust="spacing" textLength="251" x="1689" y="595.702">Share Options | &#20998;&#20139;&#21040;&#19981;&#21516;&#24179;&#21488;&#30340;&#36873;&#39033;</text><ellipse cx="1680" cy="608.6522" fill="none" rx="3" ry="3" style="stroke:#038048;stroke-width:1.0;"/><text fill="#000000" font-family="sans-serif" font-size="14" lengthAdjust="spacing" textLength="201" x="1689" y="611.9989">Confirm Button | &#30830;&#35748;&#20998;&#20139;&#25805;&#20316;</text><line style="stroke:#181818;stroke-width:0.5;" x1="1670" x2="1945" y1="619.3006" y2="619.3006"/><ellipse cx="1680" cy="632.9491" fill="#84BE84" rx="3" ry="3" style="stroke:#038048;stroke-width:1.0;"/><text fill="#000000" font-family="sans-serif" font-size="14" lengthAdjust="spacing" textLength="141" x="1689" y="636.2957">showShareOptions()</text><ellipse cx="1680" cy="649.2459" fill="#84BE84" rx="3" ry="3" style="stroke:#038048;stroke-width:1.0;"/><text fill="#000000" font-family="sans-serif" font-size="14" lengthAdjust="spacing" textLength="223" x="1689" y="652.5926">choosePlatform(platform: String)</text></g><!--class Controller--><g id="elem_Controller"><rect codeLine="75" fill="#F1F1F1" height="227.2656" id="Controller" rx="2.5" ry="2.5" style="stroke:#181818;stroke-width:0.5;" width="477" x="22" y="78.6669"/><ellipse cx="222.75" cy="94.6669" fill="#ADD1B2" rx="11" ry="11" style="stroke:#181818;stroke-width:1.0;"/><path d="M225.7188,100.3075 Q225.1406,100.6044 224.5,100.745 Q223.8594,100.9012 223.1563,100.9012 Q220.6563,100.9012 219.3281,99.2606 Q218.0156,97.6044 218.0156,94.4794 Q218.0156,91.3544 219.3281,89.6981 Q220.6563,88.0419 223.1563,88.0419 Q223.8594,88.0419 224.5,88.1981 Q225.1563,88.3544 225.7188,88.6512 L225.7188,91.37 Q225.0938,90.7919 224.5,90.5262 Q223.9063,90.245 223.2813,90.245 Q221.9375,90.245 221.25,91.3231 Q220.5625,92.3856 220.5625,94.4794 Q220.5625,96.5731 221.25,97.6512 Q221.9375,98.7137 223.2813,98.7137 Q223.9063,98.7137 224.5,98.4481 Q225.0938,98.1669 225.7188,97.5887 L225.7188,100.3075 Z " fill="#000000"/><text fill="#000000" font-family="sans-serif" font-size="14" lengthAdjust="spacing" textLength="67" x="243.25" y="99.5136">Controller</text><line style="stroke:#181818;stroke-width:0.5;" x1="23" x2="498" y1="110.6669" y2="110.6669"/><line style="stroke:#181818;stroke-width:0.5;" x1="23" x2="498" y1="118.6669" y2="118.6669"/><ellipse cx="33" cy="132.3153" fill="#84BE84" rx="3" ry="3" style="stroke:#038048;stroke-width:1.0;"/><text fill="#000000" font-family="sans-serif" font-size="14" lengthAdjust="spacing" textLength="451" x="42" y="135.662">validateRegInfo(username: String, password: String, email: String)</text><ellipse cx="33" cy="148.6122" fill="#84BE84" rx="3" ry="3" style="stroke:#038048;stroke-width:1.0;"/><text fill="#000000" font-family="sans-serif" font-size="14" lengthAdjust="spacing" textLength="447" x="42" y="151.9589">createAccount(username: String, password: String, email: String)</text><ellipse cx="33" cy="164.9091" fill="#84BE84" rx="3" ry="3" style="stroke:#038048;stroke-width:1.0;"/><text fill="#000000" font-family="sans-serif" font-size="14" lengthAdjust="spacing" textLength="383" x="42" y="168.2557">validateCredentials(username: String, password: String)</text><ellipse cx="33" cy="181.2059" fill="#84BE84" rx="3" ry="3" style="stroke:#038048;stroke-width:1.0;"/><text fill="#000000" font-family="sans-serif" font-size="14" lengthAdjust="spacing" textLength="215" x="42" y="184.5526">grantAccess(username: String)</text><ellipse cx="33" cy="197.5028" fill="#84BE84" rx="3" ry="3" style="stroke:#038048;stroke-width:1.0;"/><text fill="#000000" font-family="sans-serif" font-size="14" lengthAdjust="spacing" textLength="248" x="42" y="200.8495">checkPhotoRestrictions(photo: File)</text><ellipse cx="33" cy="213.7997" fill="#84BE84" rx="3" ry="3" style="stroke:#038048;stroke-width:1.0;"/><text fill="#000000" font-family="sans-serif" font-size="14" lengthAdjust="spacing" textLength="210" x="42" y="217.1464">analyzeAndPredict(photo: File)</text><ellipse cx="33" cy="230.0966" fill="#84BE84" rx="3" ry="3" style="stroke:#038048;stroke-width:1.0;"/><text fill="#000000" font-family="sans-serif" font-size="14" lengthAdjust="spacing" textLength="301" x="42" y="233.4432">requestCareAdvice(results: List, photo: File)</text><ellipse cx="33" cy="246.3934" fill="#84BE84" rx="3" ry="3" style="stroke:#038048;stroke-width:1.0;"/><text fill="#000000" font-family="sans-serif" font-size="14" lengthAdjust="spacing" textLength="310" x="42" y="249.7401">generateCareAdvice(results: List, photo: File)</text><ellipse cx="33" cy="262.6903" fill="#84BE84" rx="3" ry="3" style="stroke:#038048;stroke-width:1.0;"/><text fill="#000000" font-family="sans-serif" font-size="14" lengthAdjust="spacing" textLength="111" x="42" y="266.037">requestHistory()</text><ellipse cx="33" cy="278.9872" fill="#84BE84" rx="3" ry="3" style="stroke:#038048;stroke-width:1.0;"/><text fill="#000000" font-family="sans-serif" font-size="14" lengthAdjust="spacing" textLength="209" x="42" y="282.3339">reanalyzeRecord(recordId: Int)</text><ellipse cx="33" cy="295.2841" fill="#84BE84" rx="3" ry="3" style="stroke:#038048;stroke-width:1.0;"/><text fill="#000000" font-family="sans-serif" font-size="14" lengthAdjust="spacing" textLength="187" x="42" y="298.6307">deleteRecord(recordId: Int)</text></g><!--class KaggleModel--><g id="elem_KaggleModel"><rect codeLine="88" fill="#F1F1F1" height="64.2969" id="KaggleModel" rx="2.5" ry="2.5" style="stroke:#181818;stroke-width:0.5;" width="236" x="741" y="235.1469"/><ellipse cx="810.25" cy="251.1469" fill="#ADD1B2" rx="11" ry="11" style="stroke:#181818;stroke-width:1.0;"/><path d="M813.2188,256.7875 Q812.6406,257.0844 812,257.225 Q811.3594,257.3813 810.6563,257.3813 Q808.1563,257.3813 806.8281,255.7406 Q805.5156,254.0844 805.5156,250.9594 Q805.5156,247.8344 806.8281,246.1781 Q808.1563,244.5219 810.6563,244.5219 Q811.3594,244.5219 812,244.6781 Q812.6563,244.8344 813.2188,245.1313 L813.2188,247.85 Q812.5938,247.2719 812,247.0063 Q811.4063,246.725 810.7813,246.725 Q809.4375,246.725 808.75,247.8031 Q808.0625,248.8656 808.0625,250.9594 Q808.0625,253.0531 808.75,254.1313 Q809.4375,255.1938 810.7813,255.1938 Q811.4063,255.1938 812,254.9281 Q812.5938,254.6469 813.2188,254.0688 L813.2188,256.7875 Z " fill="#000000"/><text fill="#000000" font-family="sans-serif" font-size="14" lengthAdjust="spacing" textLength="89" x="830.75" y="255.9936">KaggleModel</text><line style="stroke:#181818;stroke-width:0.5;" x1="742" x2="976" y1="267.1469" y2="267.1469"/><line style="stroke:#181818;stroke-width:0.5;" x1="742" x2="976" y1="275.1469" y2="275.1469"/><ellipse cx="752" cy="288.7953" fill="#84BE84" rx="3" ry="3" style="stroke:#038048;stroke-width:1.0;"/><text fill="#000000" font-family="sans-serif" font-size="14" lengthAdjust="spacing" textLength="210" x="761" y="292.142">analyzeAndPredict(photo: File)</text></g><!--class Database--><g id="elem_Database"><rect codeLine="91" fill="#F1F1F1" height="96.8906" id="Database" rx="2.5" ry="2.5" style="stroke:#181818;stroke-width:0.5;" width="339" x="689.5" y="102.8469"/><ellipse cx="821.75" cy="118.8469" fill="#ADD1B2" rx="11" ry="11" style="stroke:#181818;stroke-width:1.0;"/><path d="M824.7188,124.4875 Q824.1406,124.7844 823.5,124.925 Q822.8594,125.0812 822.1563,125.0812 Q819.6563,125.0812 818.3281,123.4406 Q817.0156,121.7844 817.0156,118.6594 Q817.0156,115.5344 818.3281,113.8781 Q819.6563,112.2219 822.1563,112.2219 Q822.8594,112.2219 823.5,112.3781 Q824.1563,112.5344 824.7188,112.8312 L824.7188,115.55 Q824.0938,114.9719 823.5,114.7062 Q822.9063,114.425 822.2813,114.425 Q820.9375,114.425 820.25,115.5031 Q819.5625,116.5656 819.5625,118.6594 Q819.5625,120.7531 820.25,121.8312 Q820.9375,122.8937 822.2813,122.8937 Q822.9063,122.8937 823.5,122.6281 Q824.0938,122.3469 824.7188,121.7687 L824.7188,124.4875 Z " fill="#000000"/><text fill="#000000" font-family="sans-serif" font-size="14" lengthAdjust="spacing" textLength="66" x="842.25" y="123.6936">Database</text><line style="stroke:#181818;stroke-width:0.5;" x1="690.5" x2="1027.5" y1="134.8469" y2="134.8469"/><line style="stroke:#181818;stroke-width:0.5;" x1="690.5" x2="1027.5" y1="142.8469" y2="142.8469"/><ellipse cx="700.5" cy="156.4953" fill="#84BE84" rx="3" ry="3" style="stroke:#038048;stroke-width:1.0;"/><text fill="#000000" font-family="sans-serif" font-size="14" lengthAdjust="spacing" textLength="92" x="709.5" y="159.842">fetchHistory()</text><ellipse cx="700.5" cy="172.7922" fill="#84BE84" rx="3" ry="3" style="stroke:#038048;stroke-width:1.0;"/><text fill="#000000" font-family="sans-serif" font-size="14" lengthAdjust="spacing" textLength="313" x="709.5" y="176.1389">updateRecord(recordId: Int, newResults: List)</text><ellipse cx="700.5" cy="189.0891" fill="#84BE84" rx="3" ry="3" style="stroke:#038048;stroke-width:1.0;"/><text fill="#000000" font-family="sans-serif" font-size="14" lengthAdjust="spacing" textLength="195" x="709.5" y="192.4357">removeRecord(recordId: Int)</text></g><!--link Controller to KaggleModel--><g id="link_Controller_KaggleModel"><path codeLine="99" d="M499.4,222.2069 C582.36,232.6369 665.8668,243.1386 734.6868,251.7886 " fill="none" id="Controller-to-KaggleModel" style="stroke:#181818;stroke-width:1.0;stroke-dasharray:7.0,7.0;"/><polygon fill="#181818" points="740.64,252.5369,732.2091,247.4457,735.679,251.9133,731.2114,255.3833,740.64,252.5369" style="stroke:#181818;stroke-width:1.0;"/><text fill="#000000" font-family="sans-serif" font-size="13" lengthAdjust="spacing" textLength="39" x="541.5" y="224.3638">&#171;use&#187;</text></g><!--link Controller to Database--><g id="link_Controller_Database"><path codeLine="100" d="M499.4,175.9469 C562.87,171.5869 624.1741,167.3683 683.1041,163.3183 " fill="none" id="Controller-to-Database" style="stroke:#181818;stroke-width:1.0;stroke-dasharray:7.0,7.0;"/><polygon fill="#181818" points="689.09,162.9069,679.8369,159.5334,684.1018,163.2497,680.3854,167.5145,689.09,162.9069" style="stroke:#181818;stroke-width:1.0;"/><text fill="#000000" font-family="sans-serif" font-size="13" lengthAdjust="spacing" textLength="39" x="541.5" y="167.3638">&#171;use&#187;</text></g><!--link MainScreen to RegistrationScreen--><g id="link_MainScreen_RegistrationScreen"><path codeLine="104" d="M388.23,880.5569 C456.82,919.1369 543.56,966.2169 623,1004.2969 C634.56,1009.8369 641.0519,1012.917 653.1619,1018.387 " fill="none" id="MainScreen-to-RegistrationScreen" style="stroke:#181818;stroke-width:1.0;"/><polygon fill="#181818" points="658.63,1020.8569,652.0745,1013.5067,654.0733,1018.7986,648.7813,1020.7974,658.63,1020.8569" style="stroke:#181818;stroke-width:1.0;"/><text fill="#000000" font-family="sans-serif" font-size="13" lengthAdjust="spacing" textLength="62" x="530" y="955.3638">navigates</text></g><!--link MainScreen to LoginScreen--><g id="link_MainScreen_LoginScreen"><path codeLine="105" d="M474.74,842.3269 C533.94,852.0569 592.0894,861.6143 650.5894,871.2243 " fill="none" id="MainScreen-to-LoginScreen" style="stroke:#181818;stroke-width:1.0;"/><polygon fill="#181818" points="656.51,872.1969,648.2774,866.7909,651.5761,871.3864,646.9806,874.6851,656.51,872.1969" style="stroke:#181818;stroke-width:1.0;"/><text fill="#000000" font-family="sans-serif" font-size="13" lengthAdjust="spacing" textLength="62" x="530" y="850.3638">navigates</text></g><!--link MainScreen to UploadScreen--><g id="link_MainScreen_UploadScreen"><path codeLine="106" d="M474.74,771.9069 C547.99,759.7469 622.771,747.3392 691.161,735.9892 " fill="none" id="MainScreen-to-UploadScreen" style="stroke:#181818;stroke-width:1.0;"/><polygon fill="#181818" points="697.08,735.0069,687.5466,732.5343,692.1475,735.8255,688.8563,740.4264,697.08,735.0069" style="stroke:#181818;stroke-width:1.0;"/><text fill="#000000" font-family="sans-serif" font-size="13" lengthAdjust="spacing" textLength="62" x="530" y="751.3638">navigates</text></g><!--link UploadScreen to ResultDisplayScreen--><g id="link_UploadScreen_ResultDisplayScreen"><path codeLine="107" d="M1020.93,708.2969 C1095.91,708.2969 1177.95,708.2969 1248.62,708.2969 " fill="none" id="UploadScreen-to-ResultDisplayScreen" style="stroke:#181818;stroke-width:1.0;"/><polygon fill="#181818" points="1254.62,708.2969,1245.62,704.2969,1249.62,708.2969,1245.62,712.2969,1254.62,708.2969" style="stroke:#181818;stroke-width:1.0;"/><text fill="#000000" font-family="sans-serif" font-size="13" lengthAdjust="spacing" textLength="98" x="1126" y="704.3638">uploads lead to</text></g><!--link ResultDisplayScreen to AdviceDisplayScreen--><g id="link_ResultDisplayScreen_AdviceDisplayScreen"><path codeLine="108" d="M1516.23,719.1069 C1568.52,723.4669 1622.6507,727.9792 1674.5507,732.2992 " fill="none" id="ResultDisplayScreen-to-AdviceDisplayScreen" style="stroke:#181818;stroke-width:1.0;"/><polygon fill="#181818" points="1680.53,732.7969,1671.8928,728.0641,1675.5472,732.3821,1671.2292,736.0365,1680.53,732.7969" style="stroke:#181818;stroke-width:1.0;"/><text fill="#000000" font-family="sans-serif" font-size="13" lengthAdjust="spacing" textLength="91" x="1547" y="718.3638">results lead to</text></g><!--link MainScreen to HistoryRecordScreen--><g id="link_MainScreen_HistoryRecordScreen"><path codeLine="109" d="M393.81,734.0469 C462.09,696.4469 546.83,650.0869 623,609.2969 C648.57,595.5969 670.4786,583.9878 696.9886,570.0578 " fill="none" id="MainScreen-to-HistoryRecordScreen" style="stroke:#181818;stroke-width:1.0;"/><polygon fill="#181818" points="702.3,567.2669,692.4723,567.9123,697.8739,569.5926,696.1936,574.9942,702.3,567.2669" style="stroke:#181818;stroke-width:1.0;"/><text fill="#000000" font-family="sans-serif" font-size="13" lengthAdjust="spacing" textLength="62" x="530" y="627.3638">navigates</text></g><!--link ResultDisplayScreen to ShareScreen--><g id="link_ResultDisplayScreen_ShareScreen"><path codeLine="110" d="M1516.23,675.8669 C1564.54,663.7869 1613.7089,651.4913 1662.7389,639.2413 " fill="none" id="ResultDisplayScreen-to-ShareScreen" style="stroke:#181818;stroke-width:1.0;"/><polygon fill="#181818" points="1668.56,637.7869,1658.8588,636.0877,1663.7091,638.9989,1660.798,643.8491,1668.56,637.7869" style="stroke:#181818;stroke-width:1.0;"/><text fill="#000000" font-family="sans-serif" font-size="13" lengthAdjust="spacing" textLength="64" x="1560.5" y="643.3638">options to</text></g><!--SRC=[hLTjKnH74Fv-lsBABvmLz0TSMLGH20aLJInF_9Glu-vmDyNUpcPc3aAYLK7bHOL0XMXYf1IgC9gt0sEgeY3uPsvV-1VfcTbZXziz9CRxS7kt_NHFzzCzFJsIIe-WmI3mg8CbPJuQyh0GQ9ZY6iSDD4Lb7GqJYQb7N3GsYePO8s0-yQL0s7VHg2y9nuxI5AMIHyObaWnnMgjBv59EjAJK9oQe7s1bCC3E1AwHgfo6TPMyL4fVeLD37WN3g4fTSWfzKqBmSRGt5p3rgmudn4zVgyy7WdYWFnPu3BiZ1Cic9-NJtU9Fg92CJnV8VJn9QrYIoompRyi_CtB5oOTDAI50T0sbvYuHXt7NwFGZuqBdtnS-Eizg7Olzw1AfWHBNbj8WAYXQNMhlhOLRhvE5twB5smVVjxA5Kr_Hg6FM31_kH-lpySE_awStaerdyUPEUETnSdDFQrotQ2fOoQQhpgO0CS9ummuJ4jEKy7xK7sVbfY3SnmrIGLN9gL_hXtm9CGMnPcz80ugXyzVcktcrGT-B9PUAmCFJGymVfxoXmoddnHznpdYPgEyBebPWPbH5XaOeyLn5O_p3isZXdt1bgH-5MtFn-am_EhZHYblF8Ht9_ceu-oHwyIoSMso_sOXcjZ8pLHrNMWDW9rfUQUzivh1s8gpyTsT0YmfpCCI92-LFiITEm5wE-7TMJ-aitWJlY-j3ZkC7k-7UlN3-psHh9bFNh6GK6r3yOZVUVPmZrzvjtUocpQ28tejr9bavHvjv7QZl2lZlaNS8Njj0LTrl60V_3xwz7TtzDPvz6j-URx-yqtwzde6DYztbPB39cuV9ncAuC1SzMh4B4DepQK1oCPz6QdSXG_Srb6my2MTdJHL6z-UZjJyComMjGJGzEMm2wjKR54IKkNbMq7be9dastWOpSdIPVAKSZ7xQL_rAHnJlhaQFreoR6VvZZeEwhXajXcO7FIvyVW_KRAFOnzxqroJZxM1-ARg_RIntTz0gX8C6tKdgM0gfAxixIQjbATWi6PLZMHh2d1XO6Ul7CVth1D3KoPGj4tOuknlTsJIEvbmiE83oPsBlGozrBGMKw-QfKfXBf35b5e9igySez0yuyKzt5uwIcI51z4GwTSO46TG3GTbC35bxwgMKkZiMk71GknslZrIRKjIkA_w-cmkN_qfQswh5BFm8XPGXZN_e2YLJgXWUFudNxXfailLBT7FsnCLcbBfBRXZOafP6kB1-y60pXxLJMQr3WHHNcHPz7kYngfmZyQA7vRZgSK7wew2mj0MKcj3-pBLtVWyNjjilbyALnV3LYt1vE_xv5hIgWurNcLvww5gzUAELj3QDkfbQqa2kMvDRbV19mWicDp0dEVCy45eXJcAFgeo-Zs41-0DBWux3chxyNvOwNhtpIGeJio_14oBoYaUII9m9VMP0hmIXcPvxd45fAGxwxaLm2x0zS9nysGHhLiyvqg31xqAr6l5XVeUO_wDUkbp1ZkITtVEMpk7g3TCRPE-KJt6jvf4B37JiCZe1DxQLOIpnLIo8RMASIATU44KpCFMPzwuV-QHpLkPw9YSDDdbiKB1h-a3BXmjH3LdRHj-ch0iGSWulMYLh4vqzEt24ZGewTmvARM2W6tGOR8Q0XQzGqSGUj5jFJzMYJWE1hX8vfNgGqAt8tEjWY_XelEcdDxi-D0RrZCwS6R3lOXNrLfIiDmfGUD_fNBPoQ7jKFWPsPEYpSKS4Pldyf5D1JGqJo2CmUqbMAa8fxQ89e8BIBN6etULSqPbi-zXhCVi0g22Mzch9_WK0]--></g></svg>