<?xml version="1.0" encoding="us-ascii" standalone="no"?><svg xmlns="http://www.w3.org/2000/svg" xmlns:xlink="http://www.w3.org/1999/xlink" contentStyleType="text/css" height="324px" preserveAspectRatio="none" style="width:993px;height:324px;background:#F9F9F9;" version="1.1" viewBox="0 0 993 324" width="993px" zoomAndPan="magnify"><defs/><g><rect fill="#F9F9F9" height="324" style="stroke:none;stroke-width:1.0;" width="993" x="0" y="0"/><rect fill="#FFFFFF" height="29.1328" style="stroke:#393939;stroke-width:1.0;" width="10" x="28" y="96.5625"/><rect fill="#FFFFFF" height="203.9297" style="stroke:#393939;stroke-width:1.0;" width="10" x="430" y="67.4297"/><rect fill="#FFFFFF" height="87.3984" style="stroke:#393939;stroke-width:1.0;" width="10" x="725" y="154.8281"/><rect fill="#FFFFFF" height="29.1328" style="stroke:#393939;stroke-width:1.0;" width="10" x="947" y="183.9609"/><line style="stroke:#393939;stroke-width:0.5;stroke-dasharray:5.0,5.0;" x1="33" x2="33" y1="36.2969" y2="289.3594"/><line style="stroke:#393939;stroke-width:0.5;stroke-dasharray:5.0,5.0;" x1="435" x2="435" y1="36.2969" y2="289.3594"/><line style="stroke:#393939;stroke-width:0.5;stroke-dasharray:5.0,5.0;" x1="730" x2="730" y1="36.2969" y2="289.3594"/><line style="stroke:#393939;stroke-width:0.5;stroke-dasharray:5.0,5.0;" x1="952" x2="952" y1="36.2969" y2="289.3594"/><rect fill="#E55756" height="30.2969" rx="3.5" ry="3.5" style="stroke:#191919;stroke-width:1.5;" width="56" x="5" y="5"/><text fill="#F9F9F9" font-family="sans-serif" font-size="14" lengthAdjust="spacing" textLength="42" x="12" y="24.9951">&#31649;&#29702;&#21592;</text><rect fill="#E55756" height="30.2969" rx="3.5" ry="3.5" style="stroke:#191919;stroke-width:1.5;" width="56" x="5" y="288.3594"/><text fill="#F9F9F9" font-family="sans-serif" font-size="14" lengthAdjust="spacing" textLength="42" x="12" y="308.3545">&#31649;&#29702;&#21592;</text><rect fill="#E55756" height="30.2969" rx="3.5" ry="3.5" style="stroke:#191919;stroke-width:1.5;" width="70" x="400" y="5"/><text fill="#F9F9F9" font-family="sans-serif" font-size="14" lengthAdjust="spacing" textLength="56" x="407" y="24.9951">&#31649;&#29702;&#30028;&#38754;</text><rect fill="#E55756" height="30.2969" rx="3.5" ry="3.5" style="stroke:#191919;stroke-width:1.5;" width="70" x="400" y="288.3594"/><text fill="#F9F9F9" font-family="sans-serif" font-size="14" lengthAdjust="spacing" textLength="56" x="407" y="308.3545">&#31649;&#29702;&#30028;&#38754;</text><rect fill="#E55756" height="30.2969" rx="3.5" ry="3.5" style="stroke:#191919;stroke-width:1.5;" width="42" x="709" y="5"/><text fill="#F9F9F9" font-family="sans-serif" font-size="14" lengthAdjust="spacing" textLength="28" x="716" y="24.9951">&#31995;&#32479;</text><rect fill="#E55756" height="30.2969" rx="3.5" ry="3.5" style="stroke:#191919;stroke-width:1.5;" width="42" x="709" y="288.3594"/><text fill="#F9F9F9" font-family="sans-serif" font-size="14" lengthAdjust="spacing" textLength="28" x="716" y="308.3545">&#31995;&#32479;</text><rect fill="#E55756" height="30.2969" rx="3.5" ry="3.5" style="stroke:#191919;stroke-width:1.5;" width="70" x="917" y="5"/><text fill="#F9F9F9" font-family="sans-serif" font-size="14" lengthAdjust="spacing" textLength="56" x="924" y="24.9951">&#31038;&#21306;&#24179;&#21488;</text><rect fill="#E55756" height="30.2969" rx="3.5" ry="3.5" style="stroke:#191919;stroke-width:1.5;" width="70" x="917" y="288.3594"/><text fill="#F9F9F9" font-family="sans-serif" font-size="14" lengthAdjust="spacing" textLength="56" x="924" y="308.3545">&#31038;&#21306;&#24179;&#21488;</text><rect fill="#FFFFFF" height="29.1328" style="stroke:#393939;stroke-width:1.0;" width="10" x="28" y="96.5625"/><rect fill="#FFFFFF" height="203.9297" style="stroke:#393939;stroke-width:1.0;" width="10" x="430" y="67.4297"/><rect fill="#FFFFFF" height="87.3984" style="stroke:#393939;stroke-width:1.0;" width="10" x="725" y="154.8281"/><rect fill="#FFFFFF" height="29.1328" style="stroke:#393939;stroke-width:1.0;" width="10" x="947" y="183.9609"/><polygon fill="#191919" points="418,63.4297,428,67.4297,418,71.4297,422,67.4297" style="stroke:#191919;stroke-width:1.0;"/><line style="stroke:#191919;stroke-width:1.0;" x1="33" x2="424" y1="67.4297" y2="67.4297"/><text fill="#000000" font-family="sans-serif" font-size="13" lengthAdjust="spacing" textLength="233" x="40" y="62.3638">SelectCreateCompetitionChallenge()</text><polygon fill="#191919" points="49,92.5625,39,96.5625,49,100.5625,45,96.5625" style="stroke:#191919;stroke-width:1.0;"/><line style="stroke:#191919;stroke-width:1.0;" x1="43" x2="429" y1="96.5625" y2="96.5625"/><text fill="#000000" font-family="sans-serif" font-size="13" lengthAdjust="spacing" textLength="154" x="55" y="91.4966">SetRulesTimeRewards()</text><polygon fill="#191919" points="418,121.6953,428,125.6953,418,129.6953,422,125.6953" style="stroke:#191919;stroke-width:1.0;"/><line style="stroke:#191919;stroke-width:1.0;" x1="33" x2="424" y1="125.6953" y2="125.6953"/><text fill="#000000" font-family="sans-serif" font-size="13" lengthAdjust="spacing" textLength="368" x="40" y="120.6294">SubmitCompetitionChallengeDetails(rules, time, rewards)</text><polygon fill="#191919" points="713,150.8281,723,154.8281,713,158.8281,717,154.8281" style="stroke:#191919;stroke-width:1.0;"/><line style="stroke:#191919;stroke-width:1.0;" x1="440" x2="719" y1="154.8281" y2="154.8281"/><text fill="#000000" font-family="sans-serif" font-size="13" lengthAdjust="spacing" textLength="266" x="447" y="149.7622">PublishCompetitionChallengePost(details)</text><polygon fill="#191919" points="935,179.9609,945,183.9609,935,187.9609,939,183.9609" style="stroke:#191919;stroke-width:1.0;"/><line style="stroke:#191919;stroke-width:1.0;" x1="735" x2="941" y1="183.9609" y2="183.9609"/><text fill="#000000" font-family="sans-serif" font-size="13" lengthAdjust="spacing" textLength="193" x="742" y="178.895">AnnouncePostToCommunity()</text><polygon fill="#191919" points="746,209.0938,736,213.0938,746,217.0938,742,213.0938" style="stroke:#191919;stroke-width:1.0;"/><line style="stroke:#191919;stroke-width:1.0;" x1="740" x2="951" y1="213.0938" y2="213.0938"/><text fill="#000000" font-family="sans-serif" font-size="13" lengthAdjust="spacing" textLength="93" x="752" y="208.0278">Confirmation()</text><polygon fill="#191919" points="451,238.2266,441,242.2266,451,246.2266,447,242.2266" style="stroke:#191919;stroke-width:1.0;"/><line style="stroke:#191919;stroke-width:1.0;" x1="445" x2="729" y1="242.2266" y2="242.2266"/><text fill="#000000" font-family="sans-serif" font-size="13" lengthAdjust="spacing" textLength="165" x="457" y="237.1606">DisplaySuccessMessage()</text><polygon fill="#191919" points="44,267.3594,34,271.3594,44,275.3594,40,271.3594" style="stroke:#191919;stroke-width:1.0;"/><line style="stroke:#191919;stroke-width:1.0;" x1="38" x2="434" y1="271.3594" y2="271.3594"/><text fill="#000000" font-family="sans-serif" font-size="13" lengthAdjust="spacing" textLength="128" x="50" y="266.2935">ShowConfirmation()</text><!--SRC=[TP5DIWD148NtVOesgmd42xWGPB8LGf8BL7fAfw5_XkuQGoxWAg0k13SYYciHijA0jna6R-5a9Z-TE5dqwjNxwjNh4qfH8zVWFCl0aHGo0qEy_7Wjxs-BXoSEdaEYfTcJEurUFiv_dzywsva165G7WujbkNofH_pC4-e3-Vsdc7yNNulYxhCU4bRht4YQCLOZ-UbvmEPdV8GA1SKEWJ2sEaEI9As9Kr0ApJL6NGQ2v4qbXw5O0DaWQneDSuL-B3KESGekyVy0HvFa4osfBKCV2QJoaLkXUvmgU8-x1jzb2RRojzcQdge5WtoYf4_RDWoifoXfrWHvrnMpDQA2RVkiU1V6sDo8sZosyKO93mxgtpd3JB4rLz9fMAM9zcu9hBlrUuNrfSyKp4Qv4EZzPVMW_gy0iZdWo6-bTdeymCxp1m00]--></g></svg>