<?xml version="1.0" encoding="us-ascii" standalone="no"?><svg xmlns="http://www.w3.org/2000/svg" xmlns:xlink="http://www.w3.org/1999/xlink" contentStyleType="text/css" height="353px" preserveAspectRatio="none" style="width:631px;height:353px;background:#F9F9F9;" version="1.1" viewBox="0 0 631 353" width="631px" zoomAndPan="magnify"><defs/><g><rect fill="#F9F9F9" height="353" style="stroke:none;stroke-width:1.0;" width="631" x="0" y="0"/><rect fill="#FFFFFF" height="58.2656" style="stroke:#393939;stroke-width:1.0;" width="10" x="21" y="125.6953"/><rect fill="#FFFFFF" height="87.3984" style="stroke:#393939;stroke-width:1.0;" width="10" x="21" y="213.0938"/><rect fill="#FFFFFF" height="242.0625" style="stroke:#393939;stroke-width:1.0;" width="10" x="180" y="67.4297"/><rect fill="#FFFFFF" height="212.9297" style="stroke:#393939;stroke-width:1.0;" width="10" x="340" y="96.5625"/><rect fill="#FFFFFF" height="145.6641" style="stroke:#393939;stroke-width:1.0;" width="10" x="420" y="154.8281"/><rect fill="#FFFFFF" height="29.1328" style="stroke:#393939;stroke-width:1.0;" width="10" x="599" y="242.2266"/><line style="stroke:#393939;stroke-width:0.5;stroke-dasharray:5.0,5.0;" x1="26" x2="26" y1="36.2969" y2="318.4922"/><line style="stroke:#393939;stroke-width:0.5;stroke-dasharray:5.0,5.0;" x1="185" x2="185" y1="36.2969" y2="318.4922"/><line style="stroke:#393939;stroke-width:0.5;stroke-dasharray:5.0,5.0;" x1="345" x2="345" y1="36.2969" y2="318.4922"/><line style="stroke:#393939;stroke-width:0.5;stroke-dasharray:5.0,5.0;" x1="425" x2="425" y1="36.2969" y2="318.4922"/><line style="stroke:#393939;stroke-width:0.5;stroke-dasharray:5.0,5.0;" x1="604" x2="604" y1="36.2969" y2="318.4922"/><rect fill="#E55756" height="30.2969" rx="3.5" ry="3.5" style="stroke:#191919;stroke-width:1.5;" width="42" x="5" y="5"/><text fill="#F9F9F9" font-family="sans-serif" font-size="14" lengthAdjust="spacing" textLength="28" x="12" y="24.9951">&#29992;&#25143;</text><rect fill="#E55756" height="30.2969" rx="3.5" ry="3.5" style="stroke:#191919;stroke-width:1.5;" width="42" x="5" y="317.4922"/><text fill="#F9F9F9" font-family="sans-serif" font-size="14" lengthAdjust="spacing" textLength="28" x="12" y="337.4873">&#29992;&#25143;</text><rect fill="#E55756" height="30.2969" rx="3.5" ry="3.5" style="stroke:#191919;stroke-width:1.5;" width="98" x="136" y="5"/><text fill="#F9F9F9" font-family="sans-serif" font-size="14" lengthAdjust="spacing" textLength="84" x="143" y="24.9951">&#20998;&#26512;&#32467;&#26524;&#39029;&#38754;</text><rect fill="#E55756" height="30.2969" rx="3.5" ry="3.5" style="stroke:#191919;stroke-width:1.5;" width="98" x="136" y="317.4922"/><text fill="#F9F9F9" font-family="sans-serif" font-size="14" lengthAdjust="spacing" textLength="84" x="143" y="337.4873">&#20998;&#26512;&#32467;&#26524;&#39029;&#38754;</text><rect fill="#E55756" height="30.2969" rx="3.5" ry="3.5" style="stroke:#191919;stroke-width:1.5;" width="70" x="310" y="5"/><text fill="#F9F9F9" font-family="sans-serif" font-size="14" lengthAdjust="spacing" textLength="56" x="317" y="24.9951">&#20998;&#20139;&#30028;&#38754;</text><rect fill="#E55756" height="30.2969" rx="3.5" ry="3.5" style="stroke:#191919;stroke-width:1.5;" width="70" x="310" y="317.4922"/><text fill="#F9F9F9" font-family="sans-serif" font-size="14" lengthAdjust="spacing" textLength="56" x="317" y="337.4873">&#20998;&#20139;&#30028;&#38754;</text><rect fill="#E55756" height="30.2969" rx="3.5" ry="3.5" style="stroke:#191919;stroke-width:1.5;" width="70" x="390" y="5"/><text fill="#F9F9F9" font-family="sans-serif" font-size="14" lengthAdjust="spacing" textLength="56" x="397" y="24.9951">&#20998;&#20139;&#24179;&#21488;</text><rect fill="#E55756" height="30.2969" rx="3.5" ry="3.5" style="stroke:#191919;stroke-width:1.5;" width="70" x="390" y="317.4922"/><text fill="#F9F9F9" font-family="sans-serif" font-size="14" lengthAdjust="spacing" textLength="56" x="397" y="337.4873">&#20998;&#20139;&#24179;&#21488;</text><rect fill="#E55756" height="30.2969" rx="3.5" ry="3.5" style="stroke:#191919;stroke-width:1.5;" width="42" x="583" y="5"/><text fill="#F9F9F9" font-family="sans-serif" font-size="14" lengthAdjust="spacing" textLength="28" x="590" y="24.9951">&#31995;&#32479;</text><rect fill="#E55756" height="30.2969" rx="3.5" ry="3.5" style="stroke:#191919;stroke-width:1.5;" width="42" x="583" y="317.4922"/><text fill="#F9F9F9" font-family="sans-serif" font-size="14" lengthAdjust="spacing" textLength="28" x="590" y="337.4873">&#31995;&#32479;</text><rect fill="#FFFFFF" height="58.2656" style="stroke:#393939;stroke-width:1.0;" width="10" x="21" y="125.6953"/><rect fill="#FFFFFF" height="87.3984" style="stroke:#393939;stroke-width:1.0;" width="10" x="21" y="213.0938"/><rect fill="#FFFFFF" height="242.0625" style="stroke:#393939;stroke-width:1.0;" width="10" x="180" y="67.4297"/><rect fill="#FFFFFF" height="212.9297" style="stroke:#393939;stroke-width:1.0;" width="10" x="340" y="96.5625"/><rect fill="#FFFFFF" height="145.6641" style="stroke:#393939;stroke-width:1.0;" width="10" x="420" y="154.8281"/><rect fill="#FFFFFF" height="29.1328" style="stroke:#393939;stroke-width:1.0;" width="10" x="599" y="242.2266"/><polygon fill="#191919" points="168,63.4297,178,67.4297,168,71.4297,172,67.4297" style="stroke:#191919;stroke-width:1.0;"/><line style="stroke:#191919;stroke-width:1.0;" x1="26" x2="174" y1="67.4297" y2="67.4297"/><text fill="#000000" font-family="sans-serif" font-size="13" lengthAdjust="spacing" textLength="135" x="33" y="62.3638">SelectShareFeature()</text><polygon fill="#191919" points="328,92.5625,338,96.5625,328,100.5625,332,96.5625" style="stroke:#191919;stroke-width:1.0;"/><line style="stroke:#191919;stroke-width:1.0;" x1="190" x2="334" y1="96.5625" y2="96.5625"/><text fill="#000000" font-family="sans-serif" font-size="13" lengthAdjust="spacing" textLength="131" x="197" y="91.4966">ShowShareOptions()</text><polygon fill="#191919" points="42,121.6953,32,125.6953,42,129.6953,38,125.6953" style="stroke:#191919;stroke-width:1.0;"/><line style="stroke:#191919;stroke-width:1.0;" x1="36" x2="339" y1="125.6953" y2="125.6953"/><text fill="#000000" font-family="sans-serif" font-size="13" lengthAdjust="spacing" textLength="201" x="48" y="120.6294">ChoosePlatform(&#24494;&#20449;, &#24494;&#21338;, QQ)</text><polygon fill="#191919" points="408,150.8281,418,154.8281,408,158.8281,412,154.8281" style="stroke:#191919;stroke-width:1.0;"/><line style="stroke:#191919;stroke-width:1.0;" x1="31" x2="414" y1="154.8281" y2="154.8281"/><text fill="#000000" font-family="sans-serif" font-size="13" lengthAdjust="spacing" textLength="99" x="38" y="149.7622">EnterPlatform()</text><polygon fill="#191919" points="37,179.9609,27,183.9609,37,187.9609,33,183.9609" style="stroke:#191919;stroke-width:1.0;"/><line style="stroke:#191919;stroke-width:1.0;" x1="31" x2="419" y1="183.9609" y2="183.9609"/><text fill="#000000" font-family="sans-serif" font-size="13" lengthAdjust="spacing" textLength="122" x="43" y="178.895">EditShareContent()</text><polygon fill="#191919" points="408,209.0938,418,213.0938,408,217.0938,412,213.0938" style="stroke:#191919;stroke-width:1.0;"/><line style="stroke:#191919;stroke-width:1.0;" x1="31" x2="414" y1="213.0938" y2="213.0938"/><text fill="#000000" font-family="sans-serif" font-size="13" lengthAdjust="spacing" textLength="98" x="38" y="208.0278">ConfirmShare()</text><polygon fill="#191919" points="587,238.2266,597,242.2266,587,246.2266,591,242.2266" style="stroke:#191919;stroke-width:1.0;"/><line style="stroke:#191919;stroke-width:1.0;" x1="430" x2="593" y1="242.2266" y2="242.2266"/><text fill="#000000" font-family="sans-serif" font-size="13" lengthAdjust="spacing" textLength="150" x="437" y="237.1606">ProcessShareRequest()</text><polygon fill="#191919" points="441,267.3594,431,271.3594,441,275.3594,437,271.3594" style="stroke:#191919;stroke-width:1.0;"/><line style="stroke:#191919;stroke-width:1.0;" x1="435" x2="603" y1="271.3594" y2="271.3594"/><text fill="#000000" font-family="sans-serif" font-size="13" lengthAdjust="spacing" textLength="99" x="447" y="266.2935">ShareSuccess()</text><polygon fill="#191919" points="37,296.4922,27,300.4922,37,304.4922,33,300.4922" style="stroke:#191919;stroke-width:1.0;"/><line style="stroke:#191919;stroke-width:1.0;" x1="31" x2="424" y1="300.4922" y2="300.4922"/><text fill="#000000" font-family="sans-serif" font-size="13" lengthAdjust="spacing" textLength="146" x="43" y="295.4263">DisplayShareSuccess()</text><!--SRC=[ZP51IiD058RtSugngmhr0bsugNLhQaumfAzc8Cd4cHUb5v0k50Lr8rgfAq4GeOXeGI_JDFGMJjAQphHLNCrY_lzx__lV1leG0WsPL2Hc4hd7OnOXpQuU9xqtoXHD54ZhgvBsJYRzYsnqEUdVJWUlqxk7IYwKe9807NO0A_BnnrDsVVeZL3wJu7eI85gdJD-7wVdBGka433j2XhOs6uwoqVrCrLK88I5vKhgrRGIXTUf201wwEMWN62OIgfk4USYF68APcHWs3J52vXHV71UClHYvY9J9CDSXfarJYaXrsl25KEKYrVJpUVmrg57zfcStDTfg6RYYxt8Ngm5DQaO8iWGjfoYh8hPlaQJPvhCo6aAJ8jI8DlnpjhPqk0mBUtKbySh4sLcqpv720wKAtpuS9g3GIZu_tro_Pd3XT1ClfzY1I-ylw-vm5GUi-mV0gcsfYcy0]--></g></svg>