<?xml version="1.0" encoding="us-ascii" standalone="no"?><svg xmlns="http://www.w3.org/2000/svg" xmlns:xlink="http://www.w3.org/1999/xlink" contentStyleType="text/css" height="866px" preserveAspectRatio="none" style="width:1724px;height:866px;background:#FFFFFF;" version="1.1" viewBox="0 0 1724 866" width="1724px" zoomAndPan="magnify"><defs/><g><text fill="#000000" font-family="sans-serif" font-size="14" font-weight="bold" lengthAdjust="spacing" textLength="312" x="699" y="22.9951">Simplified Class Diagram for Application</text><!--cluster Client Side--><g id="cluster_Client Side"><path d="M8.5,92.1869 L93.5,92.1869 A3.75,3.75 0 0 1 96,94.6869 L103,114.4837 L1049.5,114.4837 A2.5,2.5 0 0 1 1052,116.9837 L1052,857.0269 A2.5,2.5 0 0 1 1049.5,859.5269 L8.5,859.5269 A2.5,2.5 0 0 1 6,857.0269 L6,94.6869 A2.5,2.5 0 0 1 8.5,92.1869 " fill="none" style="stroke:#000000;stroke-width:1.5;"/><line style="stroke:#000000;stroke-width:1.5;" x1="6" x2="103" y1="114.4837" y2="114.4837"/><text fill="#000000" font-family="sans-serif" font-size="14" font-weight="bold" lengthAdjust="spacing" textLength="84" x="10" y="107.182">Client Side</text></g><!--cluster Server Side--><g id="cluster_Server Side"><path d="M1078.5,43.2969 L1171.5,43.2969 A3.75,3.75 0 0 1 1174,45.7969 L1181,65.5938 L1714.5,65.5938 A2.5,2.5 0 0 1 1717,68.0938 L1717,517.3969 A2.5,2.5 0 0 1 1714.5,519.8969 L1078.5,519.8969 A2.5,2.5 0 0 1 1076,517.3969 L1076,45.7969 A2.5,2.5 0 0 1 1078.5,43.2969 " fill="none" style="stroke:#000000;stroke-width:1.5;"/><line style="stroke:#000000;stroke-width:1.5;" x1="1076" x2="1181" y1="65.5938" y2="65.5938"/><text fill="#000000" font-family="sans-serif" font-size="14" font-weight="bold" lengthAdjust="spacing" textLength="92" x="1080" y="58.292">Server Side</text></g><!--class MainScreen--><g id="elem_MainScreen"><rect codeLine="4" fill="#F1F1F1" height="96.8906" id="MainScreen" rx="2.5" ry="2.5" style="stroke:#181818;stroke-width:0.5;" width="193" x="284.5" y="143.4769"/><ellipse cx="336.25" cy="159.4769" fill="#ADD1B2" rx="11" ry="11" style="stroke:#181818;stroke-width:1.0;"/><path d="M339.2188,165.1175 Q338.6406,165.4144 338,165.555 Q337.3594,165.7113 336.6563,165.7113 Q334.1563,165.7113 332.8281,164.0706 Q331.5156,162.4144 331.5156,159.2894 Q331.5156,156.1644 332.8281,154.5081 Q334.1563,152.8519 336.6563,152.8519 Q337.3594,152.8519 338,153.0081 Q338.6563,153.1644 339.2188,153.4613 L339.2188,156.18 Q338.5938,155.6019 338,155.3363 Q337.4063,155.055 336.7813,155.055 Q335.4375,155.055 334.75,156.1331 Q334.0625,157.1956 334.0625,159.2894 Q334.0625,161.3831 334.75,162.4613 Q335.4375,163.5238 336.7813,163.5238 Q337.4063,163.5238 338,163.2581 Q338.5938,162.9769 339.2188,162.3988 L339.2188,165.1175 Z " fill="#000000"/><text fill="#000000" font-family="sans-serif" font-size="14" lengthAdjust="spacing" textLength="81" x="356.75" y="164.3236">MainScreen</text><line style="stroke:#181818;stroke-width:0.5;" x1="285.5" x2="476.5" y1="175.4769" y2="175.4769"/><line style="stroke:#181818;stroke-width:0.5;" x1="285.5" x2="476.5" y1="183.4769" y2="183.4769"/><ellipse cx="295.5" cy="197.1253" fill="#84BE84" rx="3" ry="3" style="stroke:#038048;stroke-width:1.0;"/><text fill="#000000" font-family="sans-serif" font-size="14" lengthAdjust="spacing" textLength="153" x="304.5" y="200.472">selectUploadFeature()</text><ellipse cx="295.5" cy="213.4222" fill="#84BE84" rx="3" ry="3" style="stroke:#038048;stroke-width:1.0;"/><text fill="#000000" font-family="sans-serif" font-size="14" lengthAdjust="spacing" textLength="152" x="304.5" y="216.7689">selectHistoryFeature()</text><ellipse cx="295.5" cy="229.7191" fill="#84BE84" rx="3" ry="3" style="stroke:#038048;stroke-width:1.0;"/><text fill="#000000" font-family="sans-serif" font-size="14" lengthAdjust="spacing" textLength="167" x="304.5" y="233.0657">navigateToMainScreen()</text></g><!--class RegistrationScreen--><g id="elem_RegistrationScreen"><rect codeLine="9" fill="#F1F1F1" height="129.4844" id="RegistrationScreen" rx="2.5" ry="2.5" style="stroke:#181818;stroke-width:0.5;" width="472" x="564" y="127.1869"/><ellipse cx="729.75" cy="143.1869" fill="#ADD1B2" rx="11" ry="11" style="stroke:#181818;stroke-width:1.0;"/><path d="M732.7188,148.8275 Q732.1406,149.1244 731.5,149.265 Q730.8594,149.4213 730.1563,149.4213 Q727.6563,149.4213 726.3281,147.7806 Q725.0156,146.1244 725.0156,142.9994 Q725.0156,139.8744 726.3281,138.2181 Q727.6563,136.5619 730.1563,136.5619 Q730.8594,136.5619 731.5,136.7181 Q732.1563,136.8744 732.7188,137.1713 L732.7188,139.89 Q732.0938,139.3119 731.5,139.0463 Q730.9063,138.765 730.2813,138.765 Q728.9375,138.765 728.25,139.8431 Q727.5625,140.9056 727.5625,142.9994 Q727.5625,145.0931 728.25,146.1713 Q728.9375,147.2338 730.2813,147.2338 Q730.9063,147.2338 731.5,146.9681 Q732.0938,146.6869 732.7188,146.1088 L732.7188,148.8275 Z " fill="#000000"/><text fill="#000000" font-family="sans-serif" font-size="14" lengthAdjust="spacing" textLength="132" x="750.25" y="148.0336">RegistrationScreen</text><line style="stroke:#181818;stroke-width:0.5;" x1="565" x2="1035" y1="159.1869" y2="159.1869"/><line style="stroke:#181818;stroke-width:0.5;" x1="565" x2="1035" y1="167.1869" y2="167.1869"/><ellipse cx="575" cy="180.8353" fill="#84BE84" rx="3" ry="3" style="stroke:#038048;stroke-width:1.0;"/><text fill="#000000" font-family="sans-serif" font-size="14" lengthAdjust="spacing" textLength="110" x="584" y="184.182">showRegForm()</text><ellipse cx="575" cy="197.1322" fill="#84BE84" rx="3" ry="3" style="stroke:#038048;stroke-width:1.0;"/><text fill="#000000" font-family="sans-serif" font-size="14" lengthAdjust="spacing" textLength="434" x="584" y="200.4789">inputRegInfo(username: String, password: String, email: String)</text><ellipse cx="575" cy="213.4291" fill="#84BE84" rx="3" ry="3" style="stroke:#038048;stroke-width:1.0;"/><text fill="#000000" font-family="sans-serif" font-size="14" lengthAdjust="spacing" textLength="446" x="584" y="216.7757">submitRegInfo(username: String, password: String, email: String)</text><ellipse cx="575" cy="229.7259" fill="#84BE84" rx="3" ry="3" style="stroke:#038048;stroke-width:1.0;"/><text fill="#000000" font-family="sans-serif" font-size="14" lengthAdjust="spacing" textLength="144" x="584" y="233.0726">displayConfirmation()</text><ellipse cx="575" cy="246.0228" fill="#84BE84" rx="3" ry="3" style="stroke:#038048;stroke-width:1.0;"/><text fill="#000000" font-family="sans-serif" font-size="14" lengthAdjust="spacing" textLength="201" x="584" y="249.3695">displayError(errorMsg: String)</text></g><!--class LoginScreen--><g id="elem_LoginScreen"><rect codeLine="16" fill="#F1F1F1" height="129.4844" id="LoginScreen" rx="2.5" ry="2.5" style="stroke:#181818;stroke-width:0.5;" width="404" x="22" y="390.7069"/><ellipse cx="176.75" cy="406.7069" fill="#ADD1B2" rx="11" ry="11" style="stroke:#181818;stroke-width:1.0;"/><path d="M179.7188,412.3475 Q179.1406,412.6444 178.5,412.785 Q177.8594,412.9413 177.1563,412.9413 Q174.6563,412.9413 173.3281,411.3006 Q172.0156,409.6444 172.0156,406.5194 Q172.0156,403.3944 173.3281,401.7381 Q174.6563,400.0819 177.1563,400.0819 Q177.8594,400.0819 178.5,400.2381 Q179.1563,400.3944 179.7188,400.6913 L179.7188,403.41 Q179.0938,402.8319 178.5,402.5663 Q177.9063,402.285 177.2813,402.285 Q175.9375,402.285 175.25,403.3631 Q174.5625,404.4256 174.5625,406.5194 Q174.5625,408.6131 175.25,409.6913 Q175.9375,410.7538 177.2813,410.7538 Q177.9063,410.7538 178.5,410.4881 Q179.0938,410.2069 179.7188,409.6288 L179.7188,412.3475 Z " fill="#000000"/><text fill="#000000" font-family="sans-serif" font-size="14" lengthAdjust="spacing" textLength="86" x="197.25" y="411.5536">LoginScreen</text><line style="stroke:#181818;stroke-width:0.5;" x1="23" x2="425" y1="422.7069" y2="422.7069"/><line style="stroke:#181818;stroke-width:0.5;" x1="23" x2="425" y1="430.7069" y2="430.7069"/><ellipse cx="33" cy="444.3553" fill="#84BE84" rx="3" ry="3" style="stroke:#038048;stroke-width:1.0;"/><text fill="#000000" font-family="sans-serif" font-size="14" lengthAdjust="spacing" textLength="119" x="42" y="447.702">showLoginForm()</text><ellipse cx="33" cy="460.6522" fill="#84BE84" rx="3" ry="3" style="stroke:#038048;stroke-width:1.0;"/><text fill="#000000" font-family="sans-serif" font-size="14" lengthAdjust="spacing" textLength="366" x="42" y="463.9989">inputCredentials(username: String, password: String)</text><ellipse cx="33" cy="476.9491" fill="#84BE84" rx="3" ry="3" style="stroke:#038048;stroke-width:1.0;"/><text fill="#000000" font-family="sans-serif" font-size="14" lengthAdjust="spacing" textLength="378" x="42" y="480.2957">submitCredentials(username: String, password: String)</text><ellipse cx="33" cy="493.2459" fill="#84BE84" rx="3" ry="3" style="stroke:#038048;stroke-width:1.0;"/><text fill="#000000" font-family="sans-serif" font-size="14" lengthAdjust="spacing" textLength="138" x="42" y="496.5926">displayMainScreen()</text><ellipse cx="33" cy="509.5428" fill="#84BE84" rx="3" ry="3" style="stroke:#038048;stroke-width:1.0;"/><text fill="#000000" font-family="sans-serif" font-size="14" lengthAdjust="spacing" textLength="201" x="42" y="512.8895">displayError(errorMsg: String)</text></g><!--class UploadScreen--><g id="elem_UploadScreen"><rect codeLine="23" fill="#F1F1F1" height="113.1875" id="UploadScreen" rx="2.5" ry="2.5" style="stroke:#181818;stroke-width:0.5;" width="227" x="461.5" y="398.8569"/><ellipse cx="522.25" cy="414.8569" fill="#ADD1B2" rx="11" ry="11" style="stroke:#181818;stroke-width:1.0;"/><path d="M525.2188,420.4975 Q524.6406,420.7944 524,420.935 Q523.3594,421.0913 522.6563,421.0913 Q520.1563,421.0913 518.8281,419.4506 Q517.5156,417.7944 517.5156,414.6694 Q517.5156,411.5444 518.8281,409.8881 Q520.1563,408.2319 522.6563,408.2319 Q523.3594,408.2319 524,408.3881 Q524.6563,408.5444 525.2188,408.8413 L525.2188,411.56 Q524.5938,410.9819 524,410.7163 Q523.4063,410.435 522.7813,410.435 Q521.4375,410.435 520.75,411.5131 Q520.0625,412.5756 520.0625,414.6694 Q520.0625,416.7631 520.75,417.8413 Q521.4375,418.9038 522.7813,418.9038 Q523.4063,418.9038 524,418.6381 Q524.5938,418.3569 525.2188,417.7788 L525.2188,420.4975 Z " fill="#000000"/><text fill="#000000" font-family="sans-serif" font-size="14" lengthAdjust="spacing" textLength="97" x="542.75" y="419.7036">UploadScreen</text><line style="stroke:#181818;stroke-width:0.5;" x1="462.5" x2="687.5" y1="430.8569" y2="430.8569"/><line style="stroke:#181818;stroke-width:0.5;" x1="462.5" x2="687.5" y1="438.8569" y2="438.8569"/><ellipse cx="472.5" cy="452.5053" fill="#84BE84" rx="3" ry="3" style="stroke:#038048;stroke-width:1.0;"/><text fill="#000000" font-family="sans-serif" font-size="14" lengthAdjust="spacing" textLength="130" x="481.5" y="455.852">showUploadForm()</text><ellipse cx="472.5" cy="468.8022" fill="#84BE84" rx="3" ry="3" style="stroke:#038048;stroke-width:1.0;"/><text fill="#000000" font-family="sans-serif" font-size="14" lengthAdjust="spacing" textLength="86" x="481.5" y="472.1489">inputPhoto()</text><ellipse cx="472.5" cy="485.0991" fill="#84BE84" rx="3" ry="3" style="stroke:#038048;stroke-width:1.0;"/><text fill="#000000" font-family="sans-serif" font-size="14" lengthAdjust="spacing" textLength="171" x="481.5" y="488.4457">submitPhoto(photo: File)</text><ellipse cx="472.5" cy="501.3959" fill="#84BE84" rx="3" ry="3" style="stroke:#038048;stroke-width:1.0;"/><text fill="#000000" font-family="sans-serif" font-size="14" lengthAdjust="spacing" textLength="201" x="481.5" y="504.7426">displayError(errorMsg: String)</text></g><!--class ResultDisplayScreen--><g id="elem_ResultDisplayScreen"><rect codeLine="29" fill="#F1F1F1" height="80.5938" id="ResultDisplayScreen" rx="2.5" ry="2.5" style="stroke:#181818;stroke-width:0.5;" width="214" x="468" y="605.3369"/><ellipse cx="501" cy="621.3369" fill="#ADD1B2" rx="11" ry="11" style="stroke:#181818;stroke-width:1.0;"/><path d="M503.9688,626.9775 Q503.3906,627.2744 502.75,627.415 Q502.1094,627.5713 501.4063,627.5713 Q498.9063,627.5713 497.5781,625.9306 Q496.2656,624.2744 496.2656,621.1494 Q496.2656,618.0244 497.5781,616.3681 Q498.9063,614.7119 501.4063,614.7119 Q502.1094,614.7119 502.75,614.8681 Q503.4063,615.0244 503.9688,615.3213 L503.9688,618.04 Q503.3438,617.4619 502.75,617.1963 Q502.1563,616.915 501.5313,616.915 Q500.1875,616.915 499.5,617.9931 Q498.8125,619.0556 498.8125,621.1494 Q498.8125,623.2431 499.5,624.3213 Q500.1875,625.3838 501.5313,625.3838 Q502.1563,625.3838 502.75,625.1181 Q503.3438,624.8369 503.9688,624.2588 L503.9688,626.9775 Z " fill="#000000"/><text fill="#000000" font-family="sans-serif" font-size="14" lengthAdjust="spacing" textLength="142" x="519" y="626.1836">ResultDisplayScreen</text><line style="stroke:#181818;stroke-width:0.5;" x1="469" x2="681" y1="637.3369" y2="637.3369"/><line style="stroke:#181818;stroke-width:0.5;" x1="469" x2="681" y1="645.3369" y2="645.3369"/><ellipse cx="479" cy="658.9853" fill="#84BE84" rx="3" ry="3" style="stroke:#038048;stroke-width:1.0;"/><text fill="#000000" font-family="sans-serif" font-size="14" lengthAdjust="spacing" textLength="178" x="488" y="662.332">showResults(results: List)</text><ellipse cx="479" cy="675.2822" fill="#84BE84" rx="3" ry="3" style="stroke:#038048;stroke-width:1.0;"/><text fill="#000000" font-family="sans-serif" font-size="14" lengthAdjust="spacing" textLength="188" x="488" y="678.6289">displayResults(results: List)</text></g><!--class AdviceDisplayScreen--><g id="elem_AdviceDisplayScreen"><rect codeLine="33" fill="#F1F1F1" height="80.5938" id="AdviceDisplayScreen" rx="2.5" ry="2.5" style="stroke:#181818;stroke-width:0.5;" width="253" x="376.5" y="762.9369"/><ellipse cx="427.25" cy="778.9369" fill="#ADD1B2" rx="11" ry="11" style="stroke:#181818;stroke-width:1.0;"/><path d="M430.2188,784.5775 Q429.6406,784.8744 429,785.015 Q428.3594,785.1713 427.6563,785.1713 Q425.1563,785.1713 423.8281,783.5306 Q422.5156,781.8744 422.5156,778.7494 Q422.5156,775.6244 423.8281,773.9681 Q425.1563,772.3119 427.6563,772.3119 Q428.3594,772.3119 429,772.4681 Q429.6563,772.6244 430.2188,772.9213 L430.2188,775.64 Q429.5938,775.0619 429,774.7963 Q428.4063,774.515 427.7813,774.515 Q426.4375,774.515 425.75,775.5931 Q425.0625,776.6556 425.0625,778.7494 Q425.0625,780.8431 425.75,781.9213 Q426.4375,782.9838 427.7813,782.9838 Q428.4063,782.9838 429,782.7181 Q429.5938,782.4369 430.2188,781.8588 L430.2188,784.5775 Z " fill="#000000"/><text fill="#000000" font-family="sans-serif" font-size="14" lengthAdjust="spacing" textLength="143" x="447.75" y="783.7836">AdviceDisplayScreen</text><line style="stroke:#181818;stroke-width:0.5;" x1="377.5" x2="628.5" y1="794.9369" y2="794.9369"/><line style="stroke:#181818;stroke-width:0.5;" x1="377.5" x2="628.5" y1="802.9369" y2="802.9369"/><ellipse cx="387.5" cy="816.5853" fill="#84BE84" rx="3" ry="3" style="stroke:#038048;stroke-width:1.0;"/><text fill="#000000" font-family="sans-serif" font-size="14" lengthAdjust="spacing" textLength="217" x="396.5" y="819.932">showCareAdvice(advice: String)</text><ellipse cx="387.5" cy="832.8822" fill="#84BE84" rx="3" ry="3" style="stroke:#038048;stroke-width:1.0;"/><text fill="#000000" font-family="sans-serif" font-size="14" lengthAdjust="spacing" textLength="227" x="396.5" y="836.2289">displayCareAdvice(advice: String)</text></g><!--class HistoryRecordScreen--><g id="elem_HistoryRecordScreen"><rect codeLine="37" fill="#F1F1F1" height="145.7813" id="HistoryRecordScreen" rx="2.5" ry="2.5" style="stroke:#181818;stroke-width:0.5;" width="313" x="723.5" y="382.5569"/><ellipse cx="802.75" cy="398.5569" fill="#ADD1B2" rx="11" ry="11" style="stroke:#181818;stroke-width:1.0;"/><path d="M805.7188,404.1975 Q805.1406,404.4944 804.5,404.635 Q803.8594,404.7913 803.1563,404.7913 Q800.6563,404.7913 799.3281,403.1506 Q798.0156,401.4944 798.0156,398.3694 Q798.0156,395.2444 799.3281,393.5881 Q800.6563,391.9319 803.1563,391.9319 Q803.8594,391.9319 804.5,392.0881 Q805.1563,392.2444 805.7188,392.5413 L805.7188,395.26 Q805.0938,394.6819 804.5,394.4163 Q803.9063,394.135 803.2813,394.135 Q801.9375,394.135 801.25,395.2131 Q800.5625,396.2756 800.5625,398.3694 Q800.5625,400.4631 801.25,401.5413 Q801.9375,402.6038 803.2813,402.6038 Q803.9063,402.6038 804.5,402.3381 Q805.0938,402.0569 805.7188,401.4788 L805.7188,404.1975 Z " fill="#000000"/><text fill="#000000" font-family="sans-serif" font-size="14" lengthAdjust="spacing" textLength="146" x="823.25" y="403.4036">HistoryRecordScreen</text><line style="stroke:#181818;stroke-width:0.5;" x1="724.5" x2="1035.5" y1="414.5569" y2="414.5569"/><line style="stroke:#181818;stroke-width:0.5;" x1="724.5" x2="1035.5" y1="422.5569" y2="422.5569"/><ellipse cx="734.5" cy="436.2053" fill="#84BE84" rx="3" ry="3" style="stroke:#038048;stroke-width:1.0;"/><text fill="#000000" font-family="sans-serif" font-size="14" lengthAdjust="spacing" textLength="152" x="743.5" y="439.552">selectHistoryFeature()</text><ellipse cx="734.5" cy="452.5022" fill="#84BE84" rx="3" ry="3" style="stroke:#038048;stroke-width:1.0;"/><text fill="#000000" font-family="sans-serif" font-size="14" lengthAdjust="spacing" textLength="205" x="743.5" y="455.8489">displayHistory(historyList: List)</text><ellipse cx="734.5" cy="468.7991" fill="#84BE84" rx="3" ry="3" style="stroke:#038048;stroke-width:1.0;"/><text fill="#000000" font-family="sans-serif" font-size="14" lengthAdjust="spacing" textLength="185" x="743.5" y="472.1457">selectRecord(recordId: Int)</text><ellipse cx="734.5" cy="485.0959" fill="#84BE84" rx="3" ry="3" style="stroke:#038048;stroke-width:1.0;"/><text fill="#000000" font-family="sans-serif" font-size="14" lengthAdjust="spacing" textLength="227" x="743.5" y="488.4426">showRecordDetails(recordId: Int)</text><ellipse cx="734.5" cy="501.3928" fill="#84BE84" rx="3" ry="3" style="stroke:#038048;stroke-width:1.0;"/><text fill="#000000" font-family="sans-serif" font-size="14" lengthAdjust="spacing" textLength="287" x="743.5" y="504.7395">chooseAction(action: String, recordId: Int)</text><ellipse cx="734.5" cy="517.6897" fill="#84BE84" rx="3" ry="3" style="stroke:#038048;stroke-width:1.0;"/><text fill="#000000" font-family="sans-serif" font-size="14" lengthAdjust="spacing" textLength="163" x="743.5" y="521.0364">displayUpdatedHistory()</text></g><!--class ShareScreen--><g id="elem_ShareScreen"><rect codeLine="45" fill="#F1F1F1" height="80.5938" id="ShareScreen" rx="2.5" ry="2.5" style="stroke:#181818;stroke-width:0.5;" width="249" x="664.5" y="762.9369"/><ellipse cx="740.25" cy="778.9369" fill="#ADD1B2" rx="11" ry="11" style="stroke:#181818;stroke-width:1.0;"/><path d="M743.2188,784.5775 Q742.6406,784.8744 742,785.015 Q741.3594,785.1713 740.6563,785.1713 Q738.1563,785.1713 736.8281,783.5306 Q735.5156,781.8744 735.5156,778.7494 Q735.5156,775.6244 736.8281,773.9681 Q738.1563,772.3119 740.6563,772.3119 Q741.3594,772.3119 742,772.4681 Q742.6563,772.6244 743.2188,772.9213 L743.2188,775.64 Q742.5938,775.0619 742,774.7963 Q741.4063,774.515 740.7813,774.515 Q739.4375,774.515 738.75,775.5931 Q738.0625,776.6556 738.0625,778.7494 Q738.0625,780.8431 738.75,781.9213 Q739.4375,782.9838 740.7813,782.9838 Q741.4063,782.9838 742,782.7181 Q742.5938,782.4369 743.2188,781.8588 L743.2188,784.5775 Z " fill="#000000"/><text fill="#000000" font-family="sans-serif" font-size="14" lengthAdjust="spacing" textLength="89" x="760.75" y="783.7836">ShareScreen</text><line style="stroke:#181818;stroke-width:0.5;" x1="665.5" x2="912.5" y1="794.9369" y2="794.9369"/><line style="stroke:#181818;stroke-width:0.5;" x1="665.5" x2="912.5" y1="802.9369" y2="802.9369"/><ellipse cx="675.5" cy="816.5853" fill="#84BE84" rx="3" ry="3" style="stroke:#038048;stroke-width:1.0;"/><text fill="#000000" font-family="sans-serif" font-size="14" lengthAdjust="spacing" textLength="141" x="684.5" y="819.932">showShareOptions()</text><ellipse cx="675.5" cy="832.8822" fill="#84BE84" rx="3" ry="3" style="stroke:#038048;stroke-width:1.0;"/><text fill="#000000" font-family="sans-serif" font-size="14" lengthAdjust="spacing" textLength="223" x="684.5" y="836.2289">choosePlatform(platform: String)</text></g><!--class Controller--><g id="elem_Controller"><rect codeLine="52" fill="#F1F1F1" height="227.2656" id="Controller" rx="2.5" ry="2.5" style="stroke:#181818;stroke-width:0.5;" width="477" x="1157.5" y="78.2969"/><ellipse cx="1358.25" cy="94.2969" fill="#ADD1B2" rx="11" ry="11" style="stroke:#181818;stroke-width:1.0;"/><path d="M1361.2188,99.9375 Q1360.6406,100.2344 1360,100.375 Q1359.3594,100.5313 1358.6563,100.5313 Q1356.1563,100.5313 1354.8281,98.8906 Q1353.5156,97.2344 1353.5156,94.1094 Q1353.5156,90.9844 1354.8281,89.3281 Q1356.1563,87.6719 1358.6563,87.6719 Q1359.3594,87.6719 1360,87.8281 Q1360.6563,87.9844 1361.2188,88.2813 L1361.2188,91 Q1360.5938,90.4219 1360,90.1563 Q1359.4063,89.875 1358.7813,89.875 Q1357.4375,89.875 1356.75,90.9531 Q1356.0625,92.0156 1356.0625,94.1094 Q1356.0625,96.2031 1356.75,97.2813 Q1357.4375,98.3438 1358.7813,98.3438 Q1359.4063,98.3438 1360,98.0781 Q1360.5938,97.7969 1361.2188,97.2188 L1361.2188,99.9375 Z " fill="#000000"/><text fill="#000000" font-family="sans-serif" font-size="14" lengthAdjust="spacing" textLength="67" x="1378.75" y="99.1436">Controller</text><line style="stroke:#181818;stroke-width:0.5;" x1="1158.5" x2="1633.5" y1="110.2969" y2="110.2969"/><line style="stroke:#181818;stroke-width:0.5;" x1="1158.5" x2="1633.5" y1="118.2969" y2="118.2969"/><ellipse cx="1168.5" cy="131.9453" fill="#84BE84" rx="3" ry="3" style="stroke:#038048;stroke-width:1.0;"/><text fill="#000000" font-family="sans-serif" font-size="14" lengthAdjust="spacing" textLength="451" x="1177.5" y="135.292">validateRegInfo(username: String, password: String, email: String)</text><ellipse cx="1168.5" cy="148.2422" fill="#84BE84" rx="3" ry="3" style="stroke:#038048;stroke-width:1.0;"/><text fill="#000000" font-family="sans-serif" font-size="14" lengthAdjust="spacing" textLength="447" x="1177.5" y="151.5889">createAccount(username: String, password: String, email: String)</text><ellipse cx="1168.5" cy="164.5391" fill="#84BE84" rx="3" ry="3" style="stroke:#038048;stroke-width:1.0;"/><text fill="#000000" font-family="sans-serif" font-size="14" lengthAdjust="spacing" textLength="383" x="1177.5" y="167.8857">validateCredentials(username: String, password: String)</text><ellipse cx="1168.5" cy="180.8359" fill="#84BE84" rx="3" ry="3" style="stroke:#038048;stroke-width:1.0;"/><text fill="#000000" font-family="sans-serif" font-size="14" lengthAdjust="spacing" textLength="215" x="1177.5" y="184.1826">grantAccess(username: String)</text><ellipse cx="1168.5" cy="197.1328" fill="#84BE84" rx="3" ry="3" style="stroke:#038048;stroke-width:1.0;"/><text fill="#000000" font-family="sans-serif" font-size="14" lengthAdjust="spacing" textLength="248" x="1177.5" y="200.4795">checkPhotoRestrictions(photo: File)</text><ellipse cx="1168.5" cy="213.4297" fill="#84BE84" rx="3" ry="3" style="stroke:#038048;stroke-width:1.0;"/><text fill="#000000" font-family="sans-serif" font-size="14" lengthAdjust="spacing" textLength="210" x="1177.5" y="216.7764">analyzeAndPredict(photo: File)</text><ellipse cx="1168.5" cy="229.7266" fill="#84BE84" rx="3" ry="3" style="stroke:#038048;stroke-width:1.0;"/><text fill="#000000" font-family="sans-serif" font-size="14" lengthAdjust="spacing" textLength="301" x="1177.5" y="233.0732">requestCareAdvice(results: List, photo: File)</text><ellipse cx="1168.5" cy="246.0234" fill="#84BE84" rx="3" ry="3" style="stroke:#038048;stroke-width:1.0;"/><text fill="#000000" font-family="sans-serif" font-size="14" lengthAdjust="spacing" textLength="310" x="1177.5" y="249.3701">generateCareAdvice(results: List, photo: File)</text><ellipse cx="1168.5" cy="262.3203" fill="#84BE84" rx="3" ry="3" style="stroke:#038048;stroke-width:1.0;"/><text fill="#000000" font-family="sans-serif" font-size="14" lengthAdjust="spacing" textLength="111" x="1177.5" y="265.667">requestHistory()</text><ellipse cx="1168.5" cy="278.6172" fill="#84BE84" rx="3" ry="3" style="stroke:#038048;stroke-width:1.0;"/><text fill="#000000" font-family="sans-serif" font-size="14" lengthAdjust="spacing" textLength="209" x="1177.5" y="281.9639">reanalyzeRecord(recordId: Int)</text><ellipse cx="1168.5" cy="294.9141" fill="#84BE84" rx="3" ry="3" style="stroke:#038048;stroke-width:1.0;"/><text fill="#000000" font-family="sans-serif" font-size="14" lengthAdjust="spacing" textLength="187" x="1177.5" y="298.2607">deleteRecord(recordId: Int)</text></g><!--class KaggleModel--><g id="elem_KaggleModel"><rect codeLine="65" fill="#F1F1F1" height="64.2969" id="KaggleModel" rx="2.5" ry="2.5" style="stroke:#181818;stroke-width:0.5;" width="236" x="1092" y="423.2969"/><ellipse cx="1161.25" cy="439.2969" fill="#ADD1B2" rx="11" ry="11" style="stroke:#181818;stroke-width:1.0;"/><path d="M1164.2188,444.9375 Q1163.6406,445.2344 1163,445.375 Q1162.3594,445.5313 1161.6563,445.5313 Q1159.1563,445.5313 1157.8281,443.8906 Q1156.5156,442.2344 1156.5156,439.1094 Q1156.5156,435.9844 1157.8281,434.3281 Q1159.1563,432.6719 1161.6563,432.6719 Q1162.3594,432.6719 1163,432.8281 Q1163.6563,432.9844 1164.2188,433.2813 L1164.2188,436 Q1163.5938,435.4219 1163,435.1563 Q1162.4063,434.875 1161.7813,434.875 Q1160.4375,434.875 1159.75,435.9531 Q1159.0625,437.0156 1159.0625,439.1094 Q1159.0625,441.2031 1159.75,442.2813 Q1160.4375,443.3438 1161.7813,443.3438 Q1162.4063,443.3438 1163,443.0781 Q1163.5938,442.7969 1164.2188,442.2188 L1164.2188,444.9375 Z " fill="#000000"/><text fill="#000000" font-family="sans-serif" font-size="14" lengthAdjust="spacing" textLength="89" x="1181.75" y="444.1436">KaggleModel</text><line style="stroke:#181818;stroke-width:0.5;" x1="1093" x2="1327" y1="455.2969" y2="455.2969"/><line style="stroke:#181818;stroke-width:0.5;" x1="1093" x2="1327" y1="463.2969" y2="463.2969"/><ellipse cx="1103" cy="476.9453" fill="#84BE84" rx="3" ry="3" style="stroke:#038048;stroke-width:1.0;"/><text fill="#000000" font-family="sans-serif" font-size="14" lengthAdjust="spacing" textLength="210" x="1112" y="480.292">analyzeAndPredict(photo: File)</text></g><!--class Database--><g id="elem_Database"><rect codeLine="68" fill="#F1F1F1" height="96.8906" id="Database" rx="2.5" ry="2.5" style="stroke:#181818;stroke-width:0.5;" width="339" x="1362.5" y="407.0069"/><ellipse cx="1494.75" cy="423.0069" fill="#ADD1B2" rx="11" ry="11" style="stroke:#181818;stroke-width:1.0;"/><path d="M1497.7188,428.6475 Q1497.1406,428.9444 1496.5,429.085 Q1495.8594,429.2413 1495.1563,429.2413 Q1492.6563,429.2413 1491.3281,427.6006 Q1490.0156,425.9444 1490.0156,422.8194 Q1490.0156,419.6944 1491.3281,418.0381 Q1492.6563,416.3819 1495.1563,416.3819 Q1495.8594,416.3819 1496.5,416.5381 Q1497.1563,416.6944 1497.7188,416.9913 L1497.7188,419.71 Q1497.0938,419.1319 1496.5,418.8663 Q1495.9063,418.585 1495.2813,418.585 Q1493.9375,418.585 1493.25,419.6631 Q1492.5625,420.7256 1492.5625,422.8194 Q1492.5625,424.9131 1493.25,425.9913 Q1493.9375,427.0538 1495.2813,427.0538 Q1495.9063,427.0538 1496.5,426.7881 Q1497.0938,426.5069 1497.7188,425.9288 L1497.7188,428.6475 Z " fill="#000000"/><text fill="#000000" font-family="sans-serif" font-size="14" lengthAdjust="spacing" textLength="66" x="1515.25" y="427.8536">Database</text><line style="stroke:#181818;stroke-width:0.5;" x1="1363.5" x2="1700.5" y1="439.0069" y2="439.0069"/><line style="stroke:#181818;stroke-width:0.5;" x1="1363.5" x2="1700.5" y1="447.0069" y2="447.0069"/><ellipse cx="1373.5" cy="460.6553" fill="#84BE84" rx="3" ry="3" style="stroke:#038048;stroke-width:1.0;"/><text fill="#000000" font-family="sans-serif" font-size="14" lengthAdjust="spacing" textLength="92" x="1382.5" y="464.002">fetchHistory()</text><ellipse cx="1373.5" cy="476.9522" fill="#84BE84" rx="3" ry="3" style="stroke:#038048;stroke-width:1.0;"/><text fill="#000000" font-family="sans-serif" font-size="14" lengthAdjust="spacing" textLength="313" x="1382.5" y="480.2989">updateRecord(recordId: Int, newResults: List)</text><ellipse cx="1373.5" cy="493.2491" fill="#84BE84" rx="3" ry="3" style="stroke:#038048;stroke-width:1.0;"/><text fill="#000000" font-family="sans-serif" font-size="14" lengthAdjust="spacing" textLength="195" x="1382.5" y="496.5957">removeRecord(recordId: Int)</text></g><!--link MainScreen to RegistrationScreen--><g id="link_MainScreen_RegistrationScreen"><path codeLine="75" d="M477.92,191.9269 C504.02,191.9269 527.45,191.9269 557.62,191.9269 " fill="none" id="MainScreen-to-RegistrationScreen" style="stroke:#181818;stroke-width:1.0;"/><polygon fill="#181818" points="563.62,191.9269,554.62,187.9269,558.62,191.9269,554.62,195.9269,563.62,191.9269" style="stroke:#181818;stroke-width:1.0;"/><text fill="#000000" font-family="sans-serif" font-size="13" lengthAdjust="spacing" textLength="50" x="495.75" y="184.9938">initiates</text></g><!--link MainScreen to LoginScreen--><g id="link_MainScreen_LoginScreen"><path codeLine="76" d="M352.39,240.5869 C327.18,282.5769 293.338,338.9425 265.558,385.2225 " fill="none" id="MainScreen-to-LoginScreen" style="stroke:#181818;stroke-width:1.0;"/><polygon fill="#181818" points="262.47,390.3669,270.5315,384.709,265.0433,386.0799,263.6724,380.5917,262.47,390.3669" style="stroke:#181818;stroke-width:1.0;"/><text fill="#000000" font-family="sans-serif" font-size="13" lengthAdjust="spacing" textLength="50" x="294" y="348.6238">initiates</text></g><!--link MainScreen to UploadScreen--><g id="link_MainScreen_UploadScreen"><path codeLine="77" d="M416.36,240.5869 C449.36,285.0769 495.0552,346.6781 529.9152,393.6681 " fill="none" id="MainScreen-to-UploadScreen" style="stroke:#181818;stroke-width:1.0;"/><polygon fill="#181818" points="533.49,398.4869,531.3402,388.8755,530.511,394.4712,524.9152,393.642,533.49,398.4869" style="stroke:#181818;stroke-width:1.0;"/><text fill="#000000" font-family="sans-serif" font-size="13" lengthAdjust="spacing" textLength="50" x="496" y="348.6238">initiates</text></g><!--link UploadScreen to ResultDisplayScreen--><g id="link_UploadScreen_ResultDisplayScreen"><path codeLine="78" d="M575,512.3969 C575,542.1969 575,572.1369 575,599.0169 " fill="none" id="UploadScreen-to-ResultDisplayScreen" style="stroke:#181818;stroke-width:1.0;"/><polygon fill="#181818" points="575,605.0169,579,596.0169,575,600.0169,571,596.0169,575,605.0169" style="stroke:#181818;stroke-width:1.0;"/><text fill="#000000" font-family="sans-serif" font-size="13" lengthAdjust="spacing" textLength="43" x="576" y="571.4038">results</text></g><!--link ResultDisplayScreen to AdviceDisplayScreen--><g id="link_ResultDisplayScreen_AdviceDisplayScreen"><path codeLine="79" d="M556.65,686.2969 C545.81,709.7069 534.6701,733.7918 523.8401,757.1918 " fill="none" id="ResultDisplayScreen-to-AdviceDisplayScreen" style="stroke:#181818;stroke-width:1.0;"/><polygon fill="#181818" points="521.32,762.6369,528.7302,756.1493,523.4201,758.0993,521.4701,752.7892,521.32,762.6369" style="stroke:#181818;stroke-width:1.0;"/><text fill="#000000" font-family="sans-serif" font-size="13" lengthAdjust="spacing" textLength="41" x="542" y="729.0038">advice</text></g><!--link MainScreen to HistoryRecordScreen--><g id="link_MainScreen_HistoryRecordScreen"><path codeLine="80" d="M445.11,240.6569 C474.98,261.8369 511.48,286.2869 546,305.5569 C578.91,323.9369 647.6576,354.9045 717.8076,385.4045 " fill="none" id="MainScreen-to-HistoryRecordScreen" style="stroke:#181818;stroke-width:1.0;"/><polygon fill="#181818" points="723.31,387.7969,716.6513,380.5401,718.7246,385.8032,713.4615,387.8766,723.31,387.7969" style="stroke:#181818;stroke-width:1.0;"/><text fill="#000000" font-family="sans-serif" font-size="13" lengthAdjust="spacing" textLength="43" x="641" y="348.6238">history</text></g><!--link ResultDisplayScreen to ShareScreen--><g id="link_ResultDisplayScreen_ShareScreen"><path codeLine="81" d="M629.55,686.2969 C661.75,709.7069 697.5178,735.7075 729.6878,759.1075 " fill="none" id="ResultDisplayScreen-to-ShareScreen" style="stroke:#181818;stroke-width:1.0;"/><polygon fill="#181818" points="734.54,762.6369,729.6147,754.108,730.4965,759.6957,724.9088,760.5776,734.54,762.6369" style="stroke:#181818;stroke-width:1.0;"/><text fill="#000000" font-family="sans-serif" font-size="13" lengthAdjust="spacing" textLength="36" x="689" y="729.0038">share</text></g><!--link Controller to KaggleModel--><g id="link_Controller_KaggleModel"><path codeLine="83" d="M1315.77,305.7369 C1285.39,348.4469 1256.6273,388.8872 1235.8473,418.1072 " fill="none" id="Controller-to-KaggleModel" style="stroke:#181818;stroke-width:1.0;stroke-dasharray:7.0,7.0;"/><polygon fill="#181818" points="1232.37,422.9969,1240.8457,417.9806,1235.2677,418.9222,1234.3262,413.3442,1232.37,422.9969" style="stroke:#181818;stroke-width:1.0;"/><text fill="#000000" font-family="sans-serif" font-size="13" lengthAdjust="spacing" textLength="30" x="1292" y="348.6238">uses</text></g><!--link Controller to Database--><g id="link_Controller_Database"><path codeLine="84" d="M1454.66,305.7369 C1473.07,341.1269 1489.6321,372.9835 1504.3621,401.3135 " fill="none" id="Controller-to-Database" style="stroke:#181818;stroke-width:1.0;stroke-dasharray:7.0,7.0;"/><polygon fill="#181818" points="1507.13,406.6369,1506.5271,396.8065,1504.8234,402.2007,1499.4292,400.497,1507.13,406.6369" style="stroke:#181818;stroke-width:1.0;"/><text fill="#000000" font-family="sans-serif" font-size="13" lengthAdjust="spacing" textLength="30" x="1477" y="348.6238">uses</text></g><!--SRC=[hLRTJjim5BxlKrXSPHhm0Bb0gjgXeL6jekC13ivfOk7OcUqKiObttt7Y3gTn2kleHTpu_1z_vtESS1BPHjID55k11Lj8i9Oj1PG6QhRLXiqRad5mGglPh07-22MoiuKKg1nP5dZ6ViyO_NXdkWAXDjmWgh3jVvyjIkJklf4QYci4rnhCFXsAlmhhj7bEo1NiH0aEV-XNzq7-4iM-mv9Sc2xNH0wLVYADQstgsBTGJUje_qPjTTPQD0fgpDd66Q7ASzQGuoTjYjSTh478_MjSHFjGYm_nL0ZRI7XUQBKLfkxAoSRYByPeaw5_hcmvT1DtvLQNOg8TdIZPa8N1WWvOWBJlA6NKXPFDGssZOpwby1vkwSe355EbholjT3OggTzk_3DdrqBYwOdTeMsbM_P6Kq3rAZOp_PgpMqBsEE8HjJZWlDW9ZaS3Bi1WhvP1jnp1vN7LE70OwJlaTDnJj30zzo5WKCYgVlKrZXhIk-e3KJlySaC0kr43fQwpNhP4HxDd9pLvfRN5EUzc3xhb5RzJHY7T-wOWhYhsMO-xigceW-bZw4JV6n_FPgDyrXBSrcEs2NyEE_yIKVG6pGvDWgA9LvpHKf8mYhu3ANpU7q5WL1fvcdEkM-N-ozC-gvC9XUunvIWJj6F3GN-HFtOZJYD5GjwVG7hSGO5y_eLpLQmfBTATq3FuioLlqRmCvfJoJfgLgD3ucl_HBeGRuYv8Giflp4T1G-IEACKW_WPbAN6boIQ6qJjw4tjPWeC7i1YxsABZLQAAjkdnESxkd2dSK-Q86GpMUdUqA9gQwBFbmeYoSXTNgS-9d0ab28KExS2aq4-ABEAhzWtLmUKKwmu45rqQuziYPm4HivJKMwKeFsSzNm_o8TqKI-SiiEraX9Z5ScRzssmMSSlbvTK093cZ-RE76dy1q8l_0000]--></g></svg>