<?xml version="1.0" encoding="us-ascii" standalone="no"?><svg xmlns="http://www.w3.org/2000/svg" xmlns:xlink="http://www.w3.org/1999/xlink" contentStyleType="text/css" height="1542px" preserveAspectRatio="none" style="width:840px;height:1542px;background:#FFFFFF;" version="1.1" viewBox="0 0 840 1542" width="840px" zoomAndPan="magnify"><defs/><g><text fill="#000000" font-family="sans-serif" font-size="14" font-weight="bold" lengthAdjust="spacing" textLength="256" x="290.5" y="32.9951">&#24212;&#29992;&#24635;&#20307;&#27963;&#21160;&#22270; - &#29992;&#25143;&#20132;&#20114;&#25345;&#32493;&#24615;&#24378;&#35843;</text><ellipse cx="414" cy="57.2969" fill="#222222" rx="10" ry="10" style="stroke:#222222;stroke-width:1.0;"/><rect fill="#F1F1F1" height="33.9688" rx="12.5" ry="12.5" style="stroke:#181818;stroke-width:0.5;" width="68" x="380" y="87.2969"/><text fill="#000000" font-family="sans-serif" font-size="12" lengthAdjust="spacing" textLength="48" x="390" y="108.4355">&#21551;&#21160;&#24212;&#29992;</text><rect fill="none" height="330.1719" style="stroke:#000000;stroke-width:1.5;" width="490" x="169" y="131.2656"/><path d="M240,131.2656 L240,140.5625 L230,150.5625 L169,150.5625 " fill="none" style="stroke:#000000;stroke-width:1.5;"/><text fill="#000000" font-family="sans-serif" font-size="14" lengthAdjust="spacing" textLength="61" x="172" y="145.2607">&#27880;&#20876;/&#30331;&#24405;</text><rect fill="#F1F1F1" height="33.9688" rx="12.5" ry="12.5" style="stroke:#181818;stroke-width:0.5;" width="104" x="362" y="167.5625"/><text fill="#000000" font-family="sans-serif" font-size="12" lengthAdjust="spacing" textLength="84" x="372" y="188.7012">&#36873;&#25321;&#27880;&#20876;&#25110;&#30331;&#24405;</text><rect fill="#555555" height="6" rx="2.5" ry="2.5" style="stroke:#555555;stroke-width:1.0;" width="470" x="179" y="221.5313"/><rect fill="#F1F1F1" height="33.9688" rx="12.5" ry="12.5" style="stroke:#181818;stroke-width:0.5;" width="68" x="258.25" y="247.5313"/><text fill="#000000" font-family="sans-serif" font-size="12" lengthAdjust="spacing" textLength="48" x="268.25" y="268.6699">&#29992;&#25143;&#27880;&#20876;</text><polygon fill="#F1F1F1" points="267.25,301.5,317.25,301.5,329.25,313.5,317.25,325.5,267.25,325.5,255.25,313.5,267.25,301.5" style="stroke:#181818;stroke-width:0.5;"/><text fill="#000000" font-family="sans-serif" font-size="11" lengthAdjust="spacing" textLength="50" x="267.25" y="317.3081">&#20449;&#24687;&#26377;&#25928;?</text><text fill="#000000" font-family="sans-serif" font-size="11" lengthAdjust="spacing" textLength="11" x="244.25" y="310.9058">&#26159;</text><text fill="#000000" font-family="sans-serif" font-size="11" lengthAdjust="spacing" textLength="11" x="329.25" y="310.9058">&#21542;</text><rect fill="#F1F1F1" height="33.9688" rx="12.5" ry="12.5" style="stroke:#181818;stroke-width:0.5;" width="68" x="206.5" y="335.5"/><text fill="#000000" font-family="sans-serif" font-size="12" lengthAdjust="spacing" textLength="48" x="216.5" y="356.6387">&#21019;&#24314;&#36134;&#25143;</text><rect fill="#F1F1F1" height="33.9688" rx="12.5" ry="12.5" style="stroke:#181818;stroke-width:0.5;" width="75" x="203" y="389.4688"/><text fill="#000000" font-family="sans-serif" font-size="12" lengthAdjust="spacing" textLength="55" x="213" y="410.6074">-&gt; &#20027;&#30028;&#38754;</text><rect fill="#F1F1F1" height="33.9688" rx="12.5" ry="12.5" style="stroke:#181818;stroke-width:0.5;" width="92" x="298" y="335.5"/><text fill="#000000" font-family="sans-serif" font-size="12" lengthAdjust="spacing" textLength="72" x="308" y="356.6387">&#26174;&#31034;&#38169;&#35823;&#20449;&#24687;</text><ellipse cx="344" cy="400.4688" fill="none" rx="11" ry="11" style="stroke:#222222;stroke-width:1.0;"/><ellipse cx="344" cy="400.4688" fill="#222222" rx="6" ry="6" style="stroke:#222222;stroke-width:1.0;"/><rect fill="#F1F1F1" height="33.9688" rx="12.5" ry="12.5" style="stroke:#181818;stroke-width:0.5;" width="68" x="493.25" y="247.5313"/><text fill="#000000" font-family="sans-serif" font-size="12" lengthAdjust="spacing" textLength="48" x="503.25" y="268.6699">&#29992;&#25143;&#30331;&#24405;</text><polygon fill="#F1F1F1" points="502.25,301.5,552.25,301.5,564.25,313.5,552.25,325.5,502.25,325.5,490.25,313.5,502.25,301.5" style="stroke:#181818;stroke-width:0.5;"/><text fill="#000000" font-family="sans-serif" font-size="11" lengthAdjust="spacing" textLength="50" x="502.25" y="317.3081">&#20973;&#35777;&#26377;&#25928;?</text><text fill="#000000" font-family="sans-serif" font-size="11" lengthAdjust="spacing" textLength="11" x="479.25" y="310.9058">&#26159;</text><text fill="#000000" font-family="sans-serif" font-size="11" lengthAdjust="spacing" textLength="11" x="564.25" y="310.9058">&#21542;</text><rect fill="#F1F1F1" height="33.9688" rx="12.5" ry="12.5" style="stroke:#181818;stroke-width:0.5;" width="68" x="441.5" y="335.5"/><text fill="#000000" font-family="sans-serif" font-size="12" lengthAdjust="spacing" textLength="48" x="451.5" y="356.6387">&#25480;&#26435;&#35775;&#38382;</text><rect fill="#F1F1F1" height="33.9688" rx="12.5" ry="12.5" style="stroke:#181818;stroke-width:0.5;" width="75" x="438" y="389.4688"/><text fill="#000000" font-family="sans-serif" font-size="12" lengthAdjust="spacing" textLength="55" x="448" y="410.6074">-&gt; &#20027;&#30028;&#38754;</text><rect fill="#F1F1F1" height="33.9688" rx="12.5" ry="12.5" style="stroke:#181818;stroke-width:0.5;" width="92" x="533" y="335.5"/><text fill="#000000" font-family="sans-serif" font-size="12" lengthAdjust="spacing" textLength="72" x="543" y="356.6387">&#26174;&#31034;&#38169;&#35823;&#20449;&#24687;</text><ellipse cx="579" cy="400.4688" fill="none" rx="11" ry="11" style="stroke:#222222;stroke-width:1.0;"/><ellipse cx="579" cy="400.4688" fill="#222222" rx="6" ry="6" style="stroke:#222222;stroke-width:1.0;"/><rect fill="#555555" height="6" rx="2.5" ry="2.5" style="stroke:#555555;stroke-width:1.0;" width="470" x="179" y="443.4375"/><rect fill="none" height="242.2031" style="stroke:#000000;stroke-width:1.5;" width="658" x="85" y="527.1479"/><path d="M165,527.1479 L165,536.4448 L155,546.4448 L85,546.4448 " fill="none" style="stroke:#000000;stroke-width:1.5;"/><text fill="#000000" font-family="sans-serif" font-size="14" lengthAdjust="spacing" textLength="70" x="88" y="541.1431">&#20027;&#30028;&#38754;&#25805;&#20316;</text><rect fill="#F1F1F1" height="33.9688" rx="12.5" ry="12.5" style="stroke:#181818;stroke-width:0.5;" width="80" x="374" y="563.4448"/><text fill="#000000" font-family="sans-serif" font-size="12" lengthAdjust="spacing" textLength="60" x="384" y="584.5835">&#20027;&#30028;&#38754;&#25805;&#20316;</text><rect fill="#555555" height="6" rx="2.5" ry="2.5" style="stroke:#555555;stroke-width:1.0;" width="638" x="95" y="617.4136"/><rect fill="#F1F1F1" height="33.9688" rx="12.5" ry="12.5" style="stroke:#181818;stroke-width:0.5;" width="188" x="109" y="643.4136"/><text fill="#000000" font-family="sans-serif" font-size="12" lengthAdjust="spacing" textLength="168" x="119" y="664.5522">&#19978;&#20256;&#29031;&#29255;&#36827;&#34892;&#26893;&#29289;&#29983;&#29702;&#25351;&#26631;&#39044;&#27979;</text><rect fill="#F1F1F1" height="33.9688" rx="12.5" ry="12.5" style="stroke:#181818;stroke-width:0.5;" width="87" x="159.5" y="697.3823"/><text fill="#000000" font-family="sans-serif" font-size="12" lengthAdjust="spacing" textLength="67" x="169.5" y="718.521">-&gt; &#20998;&#26512;&#29031;&#29255;</text><rect fill="#F1F1F1" height="33.9688" rx="12.5" ry="12.5" style="stroke:#181818;stroke-width:0.5;" width="116" x="325" y="643.4136"/><text fill="#000000" font-family="sans-serif" font-size="12" lengthAdjust="spacing" textLength="96" x="335" y="664.5522">&#26597;&#30475;&#26893;&#29289;&#20859;&#25252;&#24314;&#35758;</text><rect fill="#F1F1F1" height="33.9688" rx="12.5" ry="12.5" style="stroke:#181818;stroke-width:0.5;" width="111" x="327.5" y="697.3823"/><text fill="#000000" font-family="sans-serif" font-size="12" lengthAdjust="spacing" textLength="91" x="337.5" y="718.521">-&gt; &#29983;&#25104;&#20859;&#25252;&#24314;&#35758;</text><rect fill="#F1F1F1" height="33.9688" rx="12.5" ry="12.5" style="stroke:#181818;stroke-width:0.5;" width="92" x="478.5" y="643.4136"/><text fill="#000000" font-family="sans-serif" font-size="12" lengthAdjust="spacing" textLength="72" x="488.5" y="664.5522">&#26597;&#35810;&#21382;&#21490;&#35760;&#24405;</text><rect fill="#F1F1F1" height="33.9688" rx="12.5" ry="12.5" style="stroke:#181818;stroke-width:0.5;" width="111" x="469" y="697.3823"/><text fill="#000000" font-family="sans-serif" font-size="12" lengthAdjust="spacing" textLength="91" x="479" y="718.521">-&gt; &#33719;&#21462;&#21382;&#21490;&#35760;&#24405;</text><rect fill="#F1F1F1" height="33.9688" rx="12.5" ry="12.5" style="stroke:#181818;stroke-width:0.5;" width="68" x="629.5" y="643.4136"/><text fill="#000000" font-family="sans-serif" font-size="12" lengthAdjust="spacing" textLength="48" x="639.5" y="664.5522">&#20998;&#20139;&#32467;&#26524;</text><rect fill="#F1F1F1" height="33.9688" rx="12.5" ry="12.5" style="stroke:#181818;stroke-width:0.5;" width="111" x="608" y="697.3823"/><text fill="#000000" font-family="sans-serif" font-size="12" lengthAdjust="spacing" textLength="91" x="618" y="718.521">-&gt; &#36873;&#25321;&#20998;&#20139;&#24179;&#21488;</text><rect fill="#555555" height="6" rx="2.5" ry="2.5" style="stroke:#555555;stroke-width:1.0;" width="638" x="95" y="751.3511"/><rect fill="none" height="634.332" style="stroke:#000000;stroke-width:1.5;" width="766" x="36" y="779.3511"/><path d="M102,779.3511 L102,788.6479 L92,798.6479 L36,798.6479 " fill="none" style="stroke:#000000;stroke-width:1.5;"/><text fill="#000000" font-family="sans-serif" font-size="14" lengthAdjust="spacing" textLength="56" x="39" y="793.3462">&#31995;&#32479;&#22788;&#29702;</text><rect fill="#555555" height="6" rx="2.5" ry="2.5" style="stroke:#555555;stroke-width:1.0;" width="746" x="46" y="815.6479"/><rect fill="#F1F1F1" height="33.9688" rx="12.5" ry="12.5" style="stroke:#181818;stroke-width:0.5;" width="68" x="128" y="997.355"/><text fill="#000000" font-family="sans-serif" font-size="12" lengthAdjust="spacing" textLength="48" x="138" y="1018.4937">&#20998;&#26512;&#29031;&#29255;</text><polygon fill="#F1F1F1" points="126,1066.3237,198,1066.3237,210,1078.3237,198,1090.3237,126,1090.3237,114,1078.3237,126,1066.3237" style="stroke:#181818;stroke-width:0.5;"/><text fill="#000000" font-family="sans-serif" font-size="11" lengthAdjust="spacing" textLength="72" x="126" y="1082.1318">&#29031;&#29255;&#28385;&#36275;&#35201;&#27714;?</text><text fill="#000000" font-family="sans-serif" font-size="11" lengthAdjust="spacing" textLength="11" x="103" y="1075.7295">&#26159;</text><text fill="#000000" font-family="sans-serif" font-size="11" lengthAdjust="spacing" textLength="11" x="210" y="1075.7295">&#21542;</text><rect fill="#F1F1F1" height="33.9688" rx="12.5" ry="12.5" style="stroke:#181818;stroke-width:0.5;" width="92" x="58" y="1100.3237"/><text fill="#000000" font-family="sans-serif" font-size="12" lengthAdjust="spacing" textLength="72" x="68" y="1121.4624">&#23637;&#31034;&#39044;&#27979;&#32467;&#26524;</text><rect fill="#F1F1F1" height="33.9688" rx="12.5" ry="12.5" style="stroke:#181818;stroke-width:0.5;" width="75" x="66.5" y="1169.2925"/><text fill="#000000" font-family="sans-serif" font-size="12" lengthAdjust="spacing" textLength="55" x="76.5" y="1190.4312">-&gt; &#20027;&#30028;&#38754;</text><rect fill="#F1F1F1" height="33.9688" rx="12.5" ry="12.5" style="stroke:#181818;stroke-width:0.5;" width="92" x="174" y="1100.3237"/><text fill="#000000" font-family="sans-serif" font-size="12" lengthAdjust="spacing" textLength="72" x="184" y="1121.4624">&#26174;&#31034;&#38169;&#35823;&#20449;&#24687;</text><rect fill="#F1F1F1" height="33.9688" rx="12.5" ry="12.5" style="stroke:#181818;stroke-width:0.5;" width="75" x="182.5" y="1169.2925"/><text fill="#000000" font-family="sans-serif" font-size="12" lengthAdjust="spacing" textLength="55" x="192.5" y="1190.4312">-&gt; &#20027;&#30028;&#38754;</text><polygon fill="#F1F1F1" points="162,1209.2612,174,1221.2612,162,1233.2612,150,1221.2612,162,1209.2612" style="stroke:#181818;stroke-width:0.5;"/><rect fill="#F1F1F1" height="33.9688" rx="12.5" ry="12.5" style="stroke:#181818;stroke-width:0.5;" width="92" x="304" y="1029.355"/><text fill="#000000" font-family="sans-serif" font-size="12" lengthAdjust="spacing" textLength="72" x="314" y="1050.4937">&#29983;&#25104;&#20859;&#25252;&#24314;&#35758;</text><rect fill="#F1F1F1" height="33.9688" rx="12.5" ry="12.5" style="stroke:#181818;stroke-width:0.5;" width="92" x="304" y="1098.3237"/><text fill="#000000" font-family="sans-serif" font-size="12" lengthAdjust="spacing" textLength="72" x="314" y="1119.4624">&#23637;&#31034;&#20859;&#25252;&#24314;&#35758;</text><rect fill="#F1F1F1" height="33.9688" rx="12.5" ry="12.5" style="stroke:#181818;stroke-width:0.5;" width="75" x="312.5" y="1167.2925"/><text fill="#000000" font-family="sans-serif" font-size="12" lengthAdjust="spacing" textLength="55" x="322.5" y="1188.4312">-&gt; &#20027;&#30028;&#38754;</text><rect fill="#F1F1F1" height="33.9688" rx="12.5" ry="12.5" style="stroke:#181818;stroke-width:0.5;" width="92" x="487" y="841.6479"/><text fill="#000000" font-family="sans-serif" font-size="12" lengthAdjust="spacing" textLength="72" x="497" y="862.7866">&#33719;&#21462;&#21382;&#21490;&#35760;&#24405;</text><rect fill="#F1F1F1" height="33.9688" rx="12.5" ry="12.5" style="stroke:#181818;stroke-width:0.5;" width="92" x="487" y="895.6167"/><text fill="#000000" font-family="sans-serif" font-size="12" lengthAdjust="spacing" textLength="72" x="497" y="916.7554">&#23637;&#31034;&#21382;&#21490;&#35760;&#24405;</text><rect fill="#F1F1F1" height="33.9688" rx="12.5" ry="12.5" style="stroke:#181818;stroke-width:0.5;" width="92" x="487" y="962.8706"/><text fill="#000000" font-family="sans-serif" font-size="12" lengthAdjust="spacing" textLength="72" x="497" y="984.0093">&#36873;&#25321;&#29305;&#23450;&#35760;&#24405;</text><rect fill="#F1F1F1" height="33.9688" rx="12.5" ry="12.5" style="stroke:#181818;stroke-width:0.5;" width="92" x="487" y="1031.8394"/><text fill="#000000" font-family="sans-serif" font-size="12" lengthAdjust="spacing" textLength="72" x="497" y="1052.978">&#23637;&#31034;&#35760;&#24405;&#35814;&#24773;</text><rect fill="#F1F1F1" height="33.9688" rx="12.5" ry="12.5" style="stroke:#181818;stroke-width:0.5;" width="128" x="469" y="1100.8081"/><text fill="#000000" font-family="sans-serif" font-size="12" lengthAdjust="spacing" textLength="108" x="479" y="1121.9468">&#36873;&#25321;&#20877;&#27425;&#20998;&#26512;&#25110;&#21024;&#38500;</text><polygon fill="#F1F1F1" points="508,1169.7769,558,1169.7769,570,1181.7769,558,1193.7769,508,1193.7769,496,1181.7769,508,1169.7769" style="stroke:#181818;stroke-width:0.5;"/><text fill="#000000" font-family="sans-serif" font-size="11" lengthAdjust="spacing" textLength="50" x="508" y="1185.585">&#20877;&#27425;&#20998;&#26512;?</text><text fill="#000000" font-family="sans-serif" font-size="11" lengthAdjust="spacing" textLength="11" x="485" y="1179.1826">&#26159;</text><text fill="#000000" font-family="sans-serif" font-size="11" lengthAdjust="spacing" textLength="28" x="570" y="1179.1826">&#21024;&#38500;?</text><rect fill="#F1F1F1" height="33.9688" rx="12.5" ry="12.5" style="stroke:#181818;stroke-width:0.5;" width="68" x="440" y="1203.7769"/><text fill="#000000" font-family="sans-serif" font-size="12" lengthAdjust="spacing" textLength="48" x="450" y="1224.9155">&#37325;&#26032;&#20998;&#26512;</text><rect fill="#F1F1F1" height="33.9688" rx="12.5" ry="12.5" style="stroke:#181818;stroke-width:0.5;" width="80" x="434" y="1257.7456"/><text fill="#000000" font-family="sans-serif" font-size="12" lengthAdjust="spacing" textLength="60" x="444" y="1278.8843">&#23637;&#31034;&#26032;&#32467;&#26524;</text><rect fill="#F1F1F1" height="33.9688" rx="12.5" ry="12.5" style="stroke:#181818;stroke-width:0.5;" width="75" x="436.5" y="1311.7144"/><text fill="#000000" font-family="sans-serif" font-size="12" lengthAdjust="spacing" textLength="55" x="446.5" y="1332.853">-&gt; &#20027;&#30028;&#38754;</text><rect fill="#F1F1F1" height="33.9688" rx="12.5" ry="12.5" style="stroke:#181818;stroke-width:0.5;" width="68" x="558" y="1203.7769"/><text fill="#000000" font-family="sans-serif" font-size="12" lengthAdjust="spacing" textLength="48" x="568" y="1224.9155">&#21024;&#38500;&#35760;&#24405;</text><rect fill="#F1F1F1" height="33.9688" rx="12.5" ry="12.5" style="stroke:#181818;stroke-width:0.5;" width="116" x="534" y="1257.7456"/><text fill="#000000" font-family="sans-serif" font-size="12" lengthAdjust="spacing" textLength="96" x="544" y="1278.8843">&#26356;&#26032;&#21382;&#21490;&#35760;&#24405;&#35270;&#22270;</text><rect fill="#F1F1F1" height="33.9688" rx="12.5" ry="12.5" style="stroke:#181818;stroke-width:0.5;" width="75" x="554.5" y="1311.7144"/><text fill="#000000" font-family="sans-serif" font-size="12" lengthAdjust="spacing" textLength="55" x="564.5" y="1332.853">-&gt; &#20027;&#30028;&#38754;</text><polygon fill="#F1F1F1" points="533,1351.6831,545,1363.6831,533,1375.6831,521,1363.6831,533,1351.6831" style="stroke:#181818;stroke-width:0.5;"/><rect fill="#F1F1F1" height="33.9688" rx="12.5" ry="12.5" style="stroke:#181818;stroke-width:0.5;" width="92" x="688" y="994.8706"/><text fill="#000000" font-family="sans-serif" font-size="12" lengthAdjust="spacing" textLength="72" x="698" y="1016.0093">&#36873;&#25321;&#20998;&#20139;&#24179;&#21488;</text><rect fill="#F1F1F1" height="33.9688" rx="12.5" ry="12.5" style="stroke:#181818;stroke-width:0.5;" width="92" x="688" y="1063.8394"/><text fill="#000000" font-family="sans-serif" font-size="12" lengthAdjust="spacing" textLength="72" x="698" y="1084.978">&#32534;&#36753;&#20998;&#20139;&#20869;&#23481;</text><rect fill="#F1F1F1" height="33.9688" rx="12.5" ry="12.5" style="stroke:#181818;stroke-width:0.5;" width="68" x="700" y="1132.8081"/><text fill="#000000" font-family="sans-serif" font-size="12" lengthAdjust="spacing" textLength="48" x="710" y="1153.9468">&#23436;&#25104;&#20998;&#20139;</text><rect fill="#F1F1F1" height="33.9688" rx="12.5" ry="12.5" style="stroke:#181818;stroke-width:0.5;" width="75" x="696.5" y="1201.7769"/><text fill="#000000" font-family="sans-serif" font-size="12" lengthAdjust="spacing" textLength="55" x="706.5" y="1222.9155">-&gt; &#20027;&#30028;&#38754;</text><rect fill="#555555" height="6" rx="2.5" ry="2.5" style="stroke:#555555;stroke-width:1.0;" width="746" x="46" y="1395.6831"/><polygon fill="#F1F1F1" points="386.5,481.4375,441.5,481.4375,453.5,493.4375,441.5,505.4375,386.5,505.4375,374.5,493.4375,386.5,481.4375" style="stroke:#181818;stroke-width:0.5;"/><text fill="#000000" font-family="sans-serif" font-size="11" lengthAdjust="spacing" textLength="11" x="418" y="515.6479">&#26159;</text><text fill="#000000" font-family="sans-serif" font-size="11" lengthAdjust="spacing" textLength="55" x="386.5" y="497.2456">&#29992;&#25143;&#26410;&#36864;&#20986;</text><text fill="#000000" font-family="sans-serif" font-size="11" lengthAdjust="spacing" textLength="11" x="363.5" y="490.8433">&#21542;</text><rect fill="#F1F1F1" height="33.9688" rx="12.5" ry="12.5" style="stroke:#181818;stroke-width:0.5;" width="44" x="392" y="1455.6831"/><text fill="#000000" font-family="sans-serif" font-size="12" lengthAdjust="spacing" textLength="24" x="402" y="1476.8218">&#32467;&#26463;</text><ellipse cx="414" cy="1520.6519" fill="none" rx="11" ry="11" style="stroke:#222222;stroke-width:1.0;"/><ellipse cx="414" cy="1520.6519" fill="#222222" rx="6" ry="6" style="stroke:#222222;stroke-width:1.0;"/><line style="stroke:#181818;stroke-width:1.0;" x1="414" x2="414" y1="67.2969" y2="87.2969"/><polygon fill="#181818" points="410,77.2969,414,87.2969,418,77.2969,414,81.2969" style="stroke:#181818;stroke-width:1.0;"/><line style="stroke:#181818;stroke-width:1.0;" x1="240.5" x2="240.5" y1="369.4688" y2="389.4688"/><polygon fill="#181818" points="236.5,379.4688,240.5,389.4688,244.5,379.4688,240.5,383.4688" style="stroke:#181818;stroke-width:1.0;"/><line style="stroke:#181818;stroke-width:1.0;" x1="344" x2="344" y1="369.4688" y2="389.4688"/><polygon fill="#181818" points="340,379.4688,344,389.4688,348,379.4688,344,383.4688" style="stroke:#181818;stroke-width:1.0;"/><line style="stroke:#181818;stroke-width:1.0;" x1="255.25" x2="240.5" y1="313.5" y2="313.5"/><line style="stroke:#181818;stroke-width:1.0;" x1="240.5" x2="240.5" y1="313.5" y2="335.5"/><polygon fill="#181818" points="236.5,325.5,240.5,335.5,244.5,325.5,240.5,329.5" style="stroke:#181818;stroke-width:1.0;"/><line style="stroke:#181818;stroke-width:1.0;" x1="329.25" x2="344" y1="313.5" y2="313.5"/><line style="stroke:#181818;stroke-width:1.0;" x1="344" x2="344" y1="313.5" y2="335.5"/><polygon fill="#181818" points="340,325.5,344,335.5,348,325.5,344,329.5" style="stroke:#181818;stroke-width:1.0;"/><line style="stroke:#181818;stroke-width:1.0;" x1="240.5" x2="240.5" y1="423.4375" y2="428.4375"/><line style="stroke:#181818;stroke-width:1.0;" x1="240.5" x2="292.25" y1="428.4375" y2="428.4375"/><line style="stroke:#181818;stroke-width:1.0;" x1="292.25" x2="292.25" y1="428.4375" y2="443.4375"/><polygon fill="#181818" points="288.25,433.4375,292.25,443.4375,296.25,433.4375,292.25,437.4375" style="stroke:#181818;stroke-width:1.0;"/><line style="stroke:#181818;stroke-width:1.0;" x1="292.25" x2="292.25" y1="281.5" y2="301.5"/><polygon fill="#181818" points="288.25,291.5,292.25,301.5,296.25,291.5,292.25,295.5" style="stroke:#181818;stroke-width:1.0;"/><line style="stroke:#181818;stroke-width:1.0;" x1="475.5" x2="475.5" y1="369.4688" y2="389.4688"/><polygon fill="#181818" points="471.5,379.4688,475.5,389.4688,479.5,379.4688,475.5,383.4688" style="stroke:#181818;stroke-width:1.0;"/><line style="stroke:#181818;stroke-width:1.0;" x1="579" x2="579" y1="369.4688" y2="389.4688"/><polygon fill="#181818" points="575,379.4688,579,389.4688,583,379.4688,579,383.4688" style="stroke:#181818;stroke-width:1.0;"/><line style="stroke:#181818;stroke-width:1.0;" x1="490.25" x2="475.5" y1="313.5" y2="313.5"/><line style="stroke:#181818;stroke-width:1.0;" x1="475.5" x2="475.5" y1="313.5" y2="335.5"/><polygon fill="#181818" points="471.5,325.5,475.5,335.5,479.5,325.5,475.5,329.5" style="stroke:#181818;stroke-width:1.0;"/><line style="stroke:#181818;stroke-width:1.0;" x1="564.25" x2="579" y1="313.5" y2="313.5"/><line style="stroke:#181818;stroke-width:1.0;" x1="579" x2="579" y1="313.5" y2="335.5"/><polygon fill="#181818" points="575,325.5,579,335.5,583,325.5,579,329.5" style="stroke:#181818;stroke-width:1.0;"/><line style="stroke:#181818;stroke-width:1.0;" x1="475.5" x2="475.5" y1="423.4375" y2="428.4375"/><line style="stroke:#181818;stroke-width:1.0;" x1="475.5" x2="527.25" y1="428.4375" y2="428.4375"/><line style="stroke:#181818;stroke-width:1.0;" x1="527.25" x2="527.25" y1="428.4375" y2="443.4375"/><polygon fill="#181818" points="523.25,433.4375,527.25,443.4375,531.25,433.4375,527.25,437.4375" style="stroke:#181818;stroke-width:1.0;"/><line style="stroke:#181818;stroke-width:1.0;" x1="527.25" x2="527.25" y1="281.5" y2="301.5"/><polygon fill="#181818" points="523.25,291.5,527.25,301.5,531.25,291.5,527.25,295.5" style="stroke:#181818;stroke-width:1.0;"/><line style="stroke:#181818;stroke-width:1.0;" x1="292.25" x2="292.25" y1="227.5313" y2="247.5313"/><polygon fill="#181818" points="288.25,237.5313,292.25,247.5313,296.25,237.5313,292.25,241.5313" style="stroke:#181818;stroke-width:1.0;"/><line style="stroke:#181818;stroke-width:1.0;" x1="527.25" x2="527.25" y1="227.5313" y2="247.5313"/><polygon fill="#181818" points="523.25,237.5313,527.25,247.5313,531.25,237.5313,527.25,241.5313" style="stroke:#181818;stroke-width:1.0;"/><line style="stroke:#181818;stroke-width:1.0;" x1="414" x2="414" y1="201.5313" y2="221.5313"/><polygon fill="#181818" points="410,211.5313,414,221.5313,418,211.5313,414,215.5313" style="stroke:#181818;stroke-width:1.0;"/><line style="stroke:#181818;stroke-width:1.0;" x1="414" x2="414" y1="121.2656" y2="167.5625"/><polygon fill="#181818" points="410,157.5625,414,167.5625,418,157.5625,414,161.5625" style="stroke:#181818;stroke-width:1.0;"/><line style="stroke:#181818;stroke-width:1.0;" x1="203" x2="203" y1="677.3823" y2="697.3823"/><polygon fill="#181818" points="199,687.3823,203,697.3823,207,687.3823,203,691.3823" style="stroke:#181818;stroke-width:1.0;"/><line style="stroke:#181818;stroke-width:1.0;" x1="383" x2="383" y1="677.3823" y2="697.3823"/><polygon fill="#181818" points="379,687.3823,383,697.3823,387,687.3823,383,691.3823" style="stroke:#181818;stroke-width:1.0;"/><line style="stroke:#181818;stroke-width:1.0;" x1="524.5" x2="524.5" y1="677.3823" y2="697.3823"/><polygon fill="#181818" points="520.5,687.3823,524.5,697.3823,528.5,687.3823,524.5,691.3823" style="stroke:#181818;stroke-width:1.0;"/><line style="stroke:#181818;stroke-width:1.0;" x1="663.5" x2="663.5" y1="677.3823" y2="697.3823"/><polygon fill="#181818" points="659.5,687.3823,663.5,697.3823,667.5,687.3823,663.5,691.3823" style="stroke:#181818;stroke-width:1.0;"/><line style="stroke:#181818;stroke-width:1.0;" x1="203" x2="203" y1="623.4136" y2="643.4136"/><polygon fill="#181818" points="199,633.4136,203,643.4136,207,633.4136,203,637.4136" style="stroke:#181818;stroke-width:1.0;"/><line style="stroke:#181818;stroke-width:1.0;" x1="383" x2="383" y1="623.4136" y2="643.4136"/><polygon fill="#181818" points="379,633.4136,383,643.4136,387,633.4136,383,637.4136" style="stroke:#181818;stroke-width:1.0;"/><line style="stroke:#181818;stroke-width:1.0;" x1="524.5" x2="524.5" y1="623.4136" y2="643.4136"/><polygon fill="#181818" points="520.5,633.4136,524.5,643.4136,528.5,633.4136,524.5,637.4136" style="stroke:#181818;stroke-width:1.0;"/><line style="stroke:#181818;stroke-width:1.0;" x1="663.5" x2="663.5" y1="623.4136" y2="643.4136"/><polygon fill="#181818" points="659.5,633.4136,663.5,643.4136,667.5,633.4136,663.5,637.4136" style="stroke:#181818;stroke-width:1.0;"/><line style="stroke:#181818;stroke-width:1.0;" x1="203" x2="203" y1="731.3511" y2="751.3511"/><polygon fill="#181818" points="199,741.3511,203,751.3511,207,741.3511,203,745.3511" style="stroke:#181818;stroke-width:1.0;"/><line style="stroke:#181818;stroke-width:1.0;" x1="383" x2="383" y1="731.3511" y2="751.3511"/><polygon fill="#181818" points="379,741.3511,383,751.3511,387,741.3511,383,745.3511" style="stroke:#181818;stroke-width:1.0;"/><line style="stroke:#181818;stroke-width:1.0;" x1="524.5" x2="524.5" y1="731.3511" y2="751.3511"/><polygon fill="#181818" points="520.5,741.3511,524.5,751.3511,528.5,741.3511,524.5,745.3511" style="stroke:#181818;stroke-width:1.0;"/><line style="stroke:#181818;stroke-width:1.0;" x1="663.5" x2="663.5" y1="731.3511" y2="751.3511"/><polygon fill="#181818" points="659.5,741.3511,663.5,751.3511,667.5,741.3511,663.5,745.3511" style="stroke:#181818;stroke-width:1.0;"/><line style="stroke:#181818;stroke-width:1.0;" x1="414" x2="414" y1="597.4136" y2="617.4136"/><polygon fill="#181818" points="410,607.4136,414,617.4136,418,607.4136,414,611.4136" style="stroke:#181818;stroke-width:1.0;"/><line style="stroke:#181818;stroke-width:1.0;" x1="104" x2="104" y1="1134.2925" y2="1169.2925"/><polygon fill="#181818" points="100,1159.2925,104,1169.2925,108,1159.2925,104,1163.2925" style="stroke:#181818;stroke-width:1.0;"/><line style="stroke:#181818;stroke-width:1.0;" x1="220" x2="220" y1="1134.2925" y2="1169.2925"/><polygon fill="#181818" points="216,1159.2925,220,1169.2925,224,1159.2925,220,1163.2925" style="stroke:#181818;stroke-width:1.0;"/><line style="stroke:#181818;stroke-width:1.0;" x1="114" x2="104" y1="1078.3237" y2="1078.3237"/><line style="stroke:#181818;stroke-width:1.0;" x1="104" x2="104" y1="1078.3237" y2="1100.3237"/><polygon fill="#181818" points="100,1090.3237,104,1100.3237,108,1090.3237,104,1094.3237" style="stroke:#181818;stroke-width:1.0;"/><line style="stroke:#181818;stroke-width:1.0;" x1="210" x2="220" y1="1078.3237" y2="1078.3237"/><line style="stroke:#181818;stroke-width:1.0;" x1="220" x2="220" y1="1078.3237" y2="1100.3237"/><polygon fill="#181818" points="216,1090.3237,220,1100.3237,224,1090.3237,220,1094.3237" style="stroke:#181818;stroke-width:1.0;"/><line style="stroke:#181818;stroke-width:1.0;" x1="104" x2="104" y1="1203.2612" y2="1221.2612"/><line style="stroke:#181818;stroke-width:1.0;" x1="104" x2="150" y1="1221.2612" y2="1221.2612"/><polygon fill="#181818" points="140,1217.2612,150,1221.2612,140,1225.2612,144,1221.2612" style="stroke:#181818;stroke-width:1.0;"/><line style="stroke:#181818;stroke-width:1.0;" x1="220" x2="220" y1="1203.2612" y2="1221.2612"/><line style="stroke:#181818;stroke-width:1.0;" x1="220" x2="174" y1="1221.2612" y2="1221.2612"/><polygon fill="#181818" points="184,1217.2612,174,1221.2612,184,1225.2612,180,1221.2612" style="stroke:#181818;stroke-width:1.0;"/><line style="stroke:#181818;stroke-width:1.0;" x1="162" x2="162" y1="1031.3237" y2="1066.3237"/><polygon fill="#181818" points="158,1056.3237,162,1066.3237,166,1056.3237,162,1060.3237" style="stroke:#181818;stroke-width:1.0;"/><line style="stroke:#181818;stroke-width:1.0;" x1="350" x2="350" y1="1063.3237" y2="1098.3237"/><polygon fill="#181818" points="346,1088.3237,350,1098.3237,354,1088.3237,350,1092.3237" style="stroke:#181818;stroke-width:1.0;"/><line style="stroke:#181818;stroke-width:1.0;" x1="350" x2="350" y1="1132.2925" y2="1167.2925"/><polygon fill="#181818" points="346,1157.2925,350,1167.2925,354,1157.2925,350,1161.2925" style="stroke:#181818;stroke-width:1.0;"/><line style="stroke:#181818;stroke-width:1.0;" x1="533" x2="533" y1="875.6167" y2="895.6167"/><polygon fill="#181818" points="529,885.6167,533,895.6167,537,885.6167,533,889.6167" style="stroke:#181818;stroke-width:1.0;"/><line style="stroke:#181818;stroke-width:1.0;" x1="533" x2="533" y1="929.5854" y2="962.8706"/><polygon fill="#181818" points="529,952.8706,533,962.8706,537,952.8706,533,956.8706" style="stroke:#181818;stroke-width:1.0;"/><line style="stroke:#181818;stroke-width:1.0;" x1="533" x2="533" y1="996.8394" y2="1031.8394"/><polygon fill="#181818" points="529,1021.8394,533,1031.8394,537,1021.8394,533,1025.8394" style="stroke:#181818;stroke-width:1.0;"/><line style="stroke:#181818;stroke-width:1.0;" x1="533" x2="533" y1="1065.8081" y2="1100.8081"/><polygon fill="#181818" points="529,1090.8081,533,1100.8081,537,1090.8081,533,1094.8081" style="stroke:#181818;stroke-width:1.0;"/><line style="stroke:#181818;stroke-width:1.0;" x1="474" x2="474" y1="1237.7456" y2="1257.7456"/><polygon fill="#181818" points="470,1247.7456,474,1257.7456,478,1247.7456,474,1251.7456" style="stroke:#181818;stroke-width:1.0;"/><line style="stroke:#181818;stroke-width:1.0;" x1="474" x2="474" y1="1291.7144" y2="1311.7144"/><polygon fill="#181818" points="470,1301.7144,474,1311.7144,478,1301.7144,474,1305.7144" style="stroke:#181818;stroke-width:1.0;"/><line style="stroke:#181818;stroke-width:1.0;" x1="592" x2="592" y1="1237.7456" y2="1257.7456"/><polygon fill="#181818" points="588,1247.7456,592,1257.7456,596,1247.7456,592,1251.7456" style="stroke:#181818;stroke-width:1.0;"/><line style="stroke:#181818;stroke-width:1.0;" x1="592" x2="592" y1="1291.7144" y2="1311.7144"/><polygon fill="#181818" points="588,1301.7144,592,1311.7144,596,1301.7144,592,1305.7144" style="stroke:#181818;stroke-width:1.0;"/><line style="stroke:#181818;stroke-width:1.0;" x1="496" x2="474" y1="1181.7769" y2="1181.7769"/><line style="stroke:#181818;stroke-width:1.0;" x1="474" x2="474" y1="1181.7769" y2="1203.7769"/><polygon fill="#181818" points="470,1193.7769,474,1203.7769,478,1193.7769,474,1197.7769" style="stroke:#181818;stroke-width:1.0;"/><line style="stroke:#181818;stroke-width:1.0;" x1="570" x2="592" y1="1181.7769" y2="1181.7769"/><line style="stroke:#181818;stroke-width:1.0;" x1="592" x2="592" y1="1181.7769" y2="1203.7769"/><polygon fill="#181818" points="588,1193.7769,592,1203.7769,596,1193.7769,592,1197.7769" style="stroke:#181818;stroke-width:1.0;"/><line style="stroke:#181818;stroke-width:1.0;" x1="474" x2="474" y1="1345.6831" y2="1363.6831"/><line style="stroke:#181818;stroke-width:1.0;" x1="474" x2="521" y1="1363.6831" y2="1363.6831"/><polygon fill="#181818" points="511,1359.6831,521,1363.6831,511,1367.6831,515,1363.6831" style="stroke:#181818;stroke-width:1.0;"/><line style="stroke:#181818;stroke-width:1.0;" x1="592" x2="592" y1="1345.6831" y2="1363.6831"/><line style="stroke:#181818;stroke-width:1.0;" x1="592" x2="545" y1="1363.6831" y2="1363.6831"/><polygon fill="#181818" points="555,1359.6831,545,1363.6831,555,1367.6831,551,1363.6831" style="stroke:#181818;stroke-width:1.0;"/><line style="stroke:#181818;stroke-width:1.0;" x1="533" x2="533" y1="1134.7769" y2="1169.7769"/><polygon fill="#181818" points="529,1159.7769,533,1169.7769,537,1159.7769,533,1163.7769" style="stroke:#181818;stroke-width:1.0;"/><line style="stroke:#181818;stroke-width:1.0;" x1="734" x2="734" y1="1028.8394" y2="1063.8394"/><polygon fill="#181818" points="730,1053.8394,734,1063.8394,738,1053.8394,734,1057.8394" style="stroke:#181818;stroke-width:1.0;"/><line style="stroke:#181818;stroke-width:1.0;" x1="734" x2="734" y1="1097.8081" y2="1132.8081"/><polygon fill="#181818" points="730,1122.8081,734,1132.8081,738,1122.8081,734,1126.8081" style="stroke:#181818;stroke-width:1.0;"/><line style="stroke:#181818;stroke-width:1.0;" x1="734" x2="734" y1="1166.7769" y2="1201.7769"/><polygon fill="#181818" points="730,1191.7769,734,1201.7769,738,1191.7769,734,1195.7769" style="stroke:#181818;stroke-width:1.0;"/><line style="stroke:#181818;stroke-width:1.0;" x1="162" x2="162" y1="821.6479" y2="997.355"/><polygon fill="#181818" points="158,987.355,162,997.355,166,987.355,162,991.355" style="stroke:#181818;stroke-width:1.0;"/><line style="stroke:#181818;stroke-width:1.0;" x1="350" x2="350" y1="821.6479" y2="1029.355"/><polygon fill="#181818" points="346,1019.355,350,1029.355,354,1019.355,350,1023.355" style="stroke:#181818;stroke-width:1.0;"/><line style="stroke:#181818;stroke-width:1.0;" x1="533" x2="533" y1="821.6479" y2="841.6479"/><polygon fill="#181818" points="529,831.6479,533,841.6479,537,831.6479,533,835.6479" style="stroke:#181818;stroke-width:1.0;"/><line style="stroke:#181818;stroke-width:1.0;" x1="734" x2="734" y1="821.6479" y2="994.8706"/><polygon fill="#181818" points="730,984.8706,734,994.8706,738,984.8706,734,988.8706" style="stroke:#181818;stroke-width:1.0;"/><line style="stroke:#181818;stroke-width:1.0;" x1="162" x2="162" y1="1233.2612" y2="1395.6831"/><polygon fill="#181818" points="158,1385.6831,162,1395.6831,166,1385.6831,162,1389.6831" style="stroke:#181818;stroke-width:1.0;"/><line style="stroke:#181818;stroke-width:1.0;" x1="350" x2="350" y1="1201.2612" y2="1395.6831"/><polygon fill="#181818" points="346,1385.6831,350,1395.6831,354,1385.6831,350,1389.6831" style="stroke:#181818;stroke-width:1.0;"/><line style="stroke:#181818;stroke-width:1.0;" x1="533" x2="533" y1="1375.6831" y2="1395.6831"/><polygon fill="#181818" points="529,1385.6831,533,1395.6831,537,1385.6831,533,1389.6831" style="stroke:#181818;stroke-width:1.0;"/><line style="stroke:#181818;stroke-width:1.0;" x1="734" x2="734" y1="1235.7456" y2="1395.6831"/><polygon fill="#181818" points="730,1385.6831,734,1395.6831,738,1385.6831,734,1389.6831" style="stroke:#181818;stroke-width:1.0;"/><line style="stroke:#181818;stroke-width:1.0;" x1="414" x2="414" y1="757.3511" y2="815.6479"/><polygon fill="#181818" points="410,805.6479,414,815.6479,418,805.6479,414,809.6479" style="stroke:#181818;stroke-width:1.0;"/><line style="stroke:#181818;stroke-width:1.0;" x1="414" x2="414" y1="505.4375" y2="563.4448"/><polygon fill="#181818" points="410,553.4448,414,563.4448,418,553.4448,414,557.4448" style="stroke:#181818;stroke-width:1.0;"/><line style="stroke:#181818;stroke-width:1.0;" x1="414" x2="414" y1="1401.6831" y2="1423.6831"/><line style="stroke:#181818;stroke-width:1.0;" x1="414" x2="814" y1="1423.6831" y2="1423.6831"/><polygon fill="#181818" points="810,942.8706,814,932.8706,818,942.8706,814,938.8706" style="stroke:#181818;stroke-width:1.0;"/><line style="stroke:#181818;stroke-width:1.0;" x1="814" x2="814" y1="493.4375" y2="1423.6831"/><line style="stroke:#181818;stroke-width:1.0;" x1="814" x2="453.5" y1="493.4375" y2="493.4375"/><polygon fill="#181818" points="463.5,489.4375,453.5,493.4375,463.5,497.4375,459.5,493.4375" style="stroke:#181818;stroke-width:1.0;"/><line style="stroke:#181818;stroke-width:1.0;" x1="374.5" x2="24" y1="493.4375" y2="493.4375"/><polygon fill="#181818" points="20,928.8706,24,938.8706,28,928.8706,24,932.8706" style="stroke:#181818;stroke-width:1.0;"/><line style="stroke:#181818;stroke-width:1.0;" x1="24" x2="24" y1="493.4375" y2="1435.6831"/><line style="stroke:#181818;stroke-width:1.0;" x1="24" x2="414" y1="1435.6831" y2="1435.6831"/><line style="stroke:#181818;stroke-width:1.0;" x1="414" x2="414" y1="1435.6831" y2="1455.6831"/><polygon fill="#181818" points="410,1445.6831,414,1455.6831,418,1445.6831,414,1449.6831" style="stroke:#181818;stroke-width:1.0;"/><line style="stroke:#181818;stroke-width:1.0;" x1="414" x2="414" y1="449.4375" y2="481.4375"/><polygon fill="#181818" points="410,471.4375,414,481.4375,418,471.4375,414,475.4375" style="stroke:#181818;stroke-width:1.0;"/><line style="stroke:#181818;stroke-width:1.0;" x1="414" x2="414" y1="1489.6519" y2="1509.6519"/><polygon fill="#181818" points="410,1499.6519,414,1509.6519,418,1499.6519,414,1503.6519" style="stroke:#181818;stroke-width:1.0;"/><!--SRC=[nPLTJzfG6CVl-obEl88BitkQpCzYCfpD31ffiel51AQKyYgRm7IW2668ssnni3bQXI_JyvpJRx6s1x5lW5cMZ0jIplFdVvwNtpaL1N4dZh1M9TK-f7JZuGH6EixtSME2rf6zADyPMjVGFa8nJVGRI5tXUuqE3ZakAMxkYrmCLrHRxpZm7BTdBGgYi9j0Qp3iOwduWfpf-A6sXjvnoFh4p5GE2jSi1dATHNadjhMx_yPvS8HiSoRavyl25eeOqpQaLMZce2PlH96u7K-W29ogqRdACS1o0-iQ7VKi6zuJMbz_YOpVEgaLpVFEF1BVISPH15TwFXyudP2kPbRFgAgohRrkIN5txyaayKhOcbU3Dbzl2Wb_JUwQ7sl2sHkgfbVM16KPpW-fCZK_AV-X9kk9JUc0uzvk2nOwaTcOcb_DL0fdjIWIagx4NJZCauEJal7GV0J2ISSNUyh5WyHCcZVkBqdcYkIoTDgWxI9qIoHtJQejKf6Wc8NBhDavWf-5O7-mBC55XVtNiuLlJgn5hI-aMM3cEAD3lclJf8IqtTeQv8fRynnpgdPmMSB7FwWoyE3mQ4lBT_YuxjQijBKADBHlH3-1YsRGa1qzfi7Z8JuUk4VyrEi3vzi_FpBKYTx2tIEhpUxX1KVaRhCt2vjqjWvwc_uQqbuQRjylvftPtTPiLfsPXfMscFub9-1Pfs25y_nOB1j940wU2oblEM7111Pj5uGcVBl50aO9oOsnydc90mjHjGU7cL07B9NWUvknO5tqMBuqpxf17Doo5I2OsHBK1qpAB-B4Klmr94wA6s48Ef6mRZ2E6YCxCLTFwPLalKB_FKt18-phFRclqyc7cK3AO6NidvvIj7bq1CzwWtXl1kldxE9tZXGNivjztk8v-utn1m00]--></g></svg>