<?xml version="1.0" encoding="us-ascii" standalone="no"?><svg xmlns="http://www.w3.org/2000/svg" xmlns:xlink="http://www.w3.org/1999/xlink" contentStyleType="text/css" height="724px" preserveAspectRatio="none" style="width:1186px;height:724px;background:#FFFFFF;" version="1.1" viewBox="0 0 1186 724" width="1186px" zoomAndPan="magnify"><defs/><g><text fill="#000000" font-family="sans-serif" font-size="14" font-weight="bold" lengthAdjust="spacing" textLength="105" x="533.7399" y="22.9951">&#25511;&#21046;&#22120;&#29366;&#24577;&#31649;&#29702;</text><ellipse cx="544.4788" cy="53.2969" fill="#222222" rx="10" ry="10" style="stroke:#222222;stroke-width:1.0;"/><g id="&#20449;&#24687;&#39564;&#35777;"><rect fill="#F1F1F1" height="64.2344" rx="12.5" ry="12.5" style="stroke:#181818;stroke-width:0.5;" width="291" x="398.9788" y="124.2969"/><line style="stroke:#181818;stroke-width:0.5;" x1="398.9788" x2="689.9788" y1="150.5938" y2="150.5938"/><text fill="#000000" font-family="sans-serif" font-size="14" lengthAdjust="spacing" textLength="56" x="516.4788" y="142.292">&#20449;&#24687;&#39564;&#35777;</text><text fill="#000000" font-family="sans-serif" font-size="12" lengthAdjust="spacing" textLength="271" x="403.9788" y="166.7324">ValidateRegInfo(username, password, email)</text><text fill="#000000" font-family="sans-serif" font-size="12" lengthAdjust="spacing" textLength="254" x="403.9788" y="180.7012">ValidateCredentials(username, password)</text></g><g id="&#36134;&#25143;&#21019;&#24314;"><rect fill="#F1F1F1" height="50" rx="12.5" ry="12.5" style="stroke:#181818;stroke-width:0.5;" width="76" x="22.4787" y="265.2969"/><line style="stroke:#181818;stroke-width:0.5;" x1="22.4787" x2="98.4787" y1="291.5938" y2="291.5938"/><text fill="#000000" font-family="sans-serif" font-size="14" lengthAdjust="spacing" textLength="56" x="32.4787" y="283.292">&#36134;&#25143;&#21019;&#24314;</text></g><g id="&#23637;&#31034;&#30830;&#35748;"><rect fill="#F1F1F1" height="50" rx="12.5" ry="12.5" style="stroke:#181818;stroke-width:0.5;" width="76" x="132.4788" y="505.2969"/><line style="stroke:#181818;stroke-width:0.5;" x1="132.4788" x2="208.4788" y1="531.5938" y2="531.5938"/><text fill="#000000" font-family="sans-serif" font-size="14" lengthAdjust="spacing" textLength="56" x="142.4788" y="523.292">&#23637;&#31034;&#30830;&#35748;</text></g><ellipse cx="544.4788" cy="707.2969" fill="none" rx="11" ry="11" style="stroke:#222222;stroke-width:1.0;"/><ellipse cx="544.4788" cy="707.2969" fill="#222222" rx="6" ry="6" style="stroke:#222222;stroke-width:1.0;"/><g id="&#25480;&#26435;&#35775;&#38382;"><rect fill="#F1F1F1" height="50" rx="12.5" ry="12.5" style="stroke:#181818;stroke-width:0.5;" width="76" x="309.4788" y="345.2969"/><line style="stroke:#181818;stroke-width:0.5;" x1="309.4788" x2="385.4788" y1="371.5938" y2="371.5938"/><text fill="#000000" font-family="sans-serif" font-size="14" lengthAdjust="spacing" textLength="56" x="319.4788" y="363.292">&#25480;&#26435;&#35775;&#38382;</text></g><g id="&#26174;&#31034;&#20027;&#30028;&#38754;"><rect fill="#F1F1F1" height="50" rx="12.5" ry="12.5" style="stroke:#181818;stroke-width:0.5;" width="90" x="328.4788" y="505.2969"/><line style="stroke:#181818;stroke-width:0.5;" x1="328.4788" x2="418.4788" y1="531.5938" y2="531.5938"/><text fill="#000000" font-family="sans-serif" font-size="14" lengthAdjust="spacing" textLength="70" x="338.4788" y="523.292">&#26174;&#31034;&#20027;&#30028;&#38754;</text></g><g id="&#26816;&#26597;&#29031;&#29255;&#38480;&#21046;"><rect fill="#F1F1F1" height="50" rx="12.5" ry="12.5" style="stroke:#181818;stroke-width:0.5;" width="104" x="492.4788" y="265.2969"/><line style="stroke:#181818;stroke-width:0.5;" x1="492.4788" x2="596.4788" y1="291.5938" y2="291.5938"/><text fill="#000000" font-family="sans-serif" font-size="14" lengthAdjust="spacing" textLength="84" x="502.4788" y="283.292">&#26816;&#26597;&#29031;&#29255;&#38480;&#21046;</text></g><g id="&#20998;&#26512;&#39044;&#27979;"><rect fill="#F1F1F1" height="50" rx="12.5" ry="12.5" style="stroke:#181818;stroke-width:0.5;" width="76" x="506.4788" y="425.2969"/><line style="stroke:#181818;stroke-width:0.5;" x1="506.4788" x2="582.4788" y1="451.5938" y2="451.5938"/><text fill="#000000" font-family="sans-serif" font-size="14" lengthAdjust="spacing" textLength="56" x="516.4788" y="443.292">&#20998;&#26512;&#39044;&#27979;</text></g><g id="&#23637;&#31034;&#32467;&#26524;"><rect fill="#F1F1F1" height="50" rx="12.5" ry="12.5" style="stroke:#181818;stroke-width:0.5;" width="76" x="506.4788" y="585.2969"/><line style="stroke:#181818;stroke-width:0.5;" x1="506.4788" x2="582.4788" y1="611.5938" y2="611.5938"/><text fill="#000000" font-family="sans-serif" font-size="14" lengthAdjust="spacing" textLength="56" x="516.4788" y="603.292">&#23637;&#31034;&#32467;&#26524;</text></g><g id="&#35831;&#27714;&#20859;&#25252;&#24314;&#35758;"><rect fill="#F1F1F1" height="50" rx="12.5" ry="12.5" style="stroke:#181818;stroke-width:0.5;" width="104" x="716.4788" y="265.2969"/><line style="stroke:#181818;stroke-width:0.5;" x1="716.4788" x2="820.4788" y1="291.5938" y2="291.5938"/><text fill="#000000" font-family="sans-serif" font-size="14" lengthAdjust="spacing" textLength="84" x="726.4788" y="283.292">&#35831;&#27714;&#20859;&#25252;&#24314;&#35758;</text></g><g id="&#29983;&#25104;&#20859;&#25252;&#24314;&#35758;"><rect fill="#F1F1F1" height="50" rx="12.5" ry="12.5" style="stroke:#181818;stroke-width:0.5;" width="104" x="685.4788" y="425.2969"/><line style="stroke:#181818;stroke-width:0.5;" x1="685.4788" x2="789.4788" y1="451.5938" y2="451.5938"/><text fill="#000000" font-family="sans-serif" font-size="14" lengthAdjust="spacing" textLength="84" x="695.4788" y="443.292">&#29983;&#25104;&#20859;&#25252;&#24314;&#35758;</text></g><g id="&#23637;&#31034;&#20859;&#25252;&#24314;&#35758;"><rect fill="#F1F1F1" height="50" rx="12.5" ry="12.5" style="stroke:#181818;stroke-width:0.5;" width="104" x="647.4788" y="585.2969"/><line style="stroke:#181818;stroke-width:0.5;" x1="647.4788" x2="751.4788" y1="611.5938" y2="611.5938"/><text fill="#000000" font-family="sans-serif" font-size="14" lengthAdjust="spacing" textLength="84" x="657.4788" y="603.292">&#23637;&#31034;&#20859;&#25252;&#24314;&#35758;</text></g><g id="&#35831;&#27714;&#21382;&#21490;&#35760;&#24405;"><rect fill="#F1F1F1" height="50" rx="12.5" ry="12.5" style="stroke:#181818;stroke-width:0.5;" width="104" x="996.4788" y="345.2969"/><line style="stroke:#181818;stroke-width:0.5;" x1="996.4788" x2="1100.4788" y1="371.5938" y2="371.5938"/><text fill="#000000" font-family="sans-serif" font-size="14" lengthAdjust="spacing" textLength="84" x="1006.4788" y="363.292">&#35831;&#27714;&#21382;&#21490;&#35760;&#24405;</text></g><g id="&#26174;&#31034;&#21382;&#21490;&#35760;&#24405;"><rect fill="#F1F1F1" height="50" rx="12.5" ry="12.5" style="stroke:#181818;stroke-width:0.5;" width="104" x="920.4788" y="505.2969"/><line style="stroke:#181818;stroke-width:0.5;" x1="920.4788" x2="1024.4788" y1="531.5938" y2="531.5938"/><text fill="#000000" font-family="sans-serif" font-size="14" lengthAdjust="spacing" textLength="84" x="930.4788" y="523.292">&#26174;&#31034;&#21382;&#21490;&#35760;&#24405;</text></g><!--link *start* to ????--><g id="link_*start*_&#20449;&#24687;&#39564;&#35777;"><path d="M544.4788,63.6179 C544.4788,77.1939 544.4788,97.0559 544.4788,117.8589 " fill="none" id="*start*-to-&#20449;&#24687;&#39564;&#35777;" style="stroke:#181818;stroke-width:1.0;"/><polygon fill="#181818" points="544.4788,123.8589,548.4788,114.8589,544.4788,118.8589,540.4788,114.8589,544.4788,123.8589" style="stroke:#181818;stroke-width:1.0;"/></g><!--link ???? to ????--><g id="link_&#20449;&#24687;&#39564;&#35777;_&#36134;&#25143;&#21019;&#24314;"><path d="M398.8838,164.3839 C252.0498,173.0589 43.5298,190.1729 18.4787,218.2969 C6,232.3069 13.122,246.2543 27.1229,260.7493 " fill="none" id="&#20449;&#24687;&#39564;&#35777;-to-&#36134;&#25143;&#21019;&#24314;" style="stroke:#181818;stroke-width:1.0;"/><polygon fill="#181818" points="31.2914,265.0649,27.9157,255.8126,27.8177,261.4686,22.1617,261.3705,31.2914,265.0649" style="stroke:#181818;stroke-width:1.0;"/><text fill="#000000" font-family="sans-serif" font-size="13" lengthAdjust="spacing" textLength="283" x="19.4787" y="231.3638">CreateAccount(username, password, email)</text></g><!--link ???? to ????--><g id="link_&#36134;&#25143;&#21019;&#24314;_&#23637;&#31034;&#30830;&#35748;"><path d="M71.6315,315.4269 C92.7146,361.0439 135.6735,453.9905 156.7795,499.6565 " fill="none" id="&#36134;&#25143;&#21019;&#24314;-to-&#23637;&#31034;&#30830;&#35748;" style="stroke:#181818;stroke-width:1.0;"/><polygon fill="#181818" points="159.2968,505.1029,159.1519,495.2551,157.1991,500.5642,151.89,498.6114,159.2968,505.1029" style="stroke:#181818;stroke-width:1.0;"/><text fill="#000000" font-family="sans-serif" font-size="13" lengthAdjust="spacing" textLength="128" x="109.4788" y="374.8638">ShowConfirmation()</text></g><!--link ???? to *end*--><g id="link_&#23637;&#31034;&#30830;&#35748;_*end*"><path d="M208.7458,549.2029 C292.7088,588.4899 483.8183,677.9128 529.4583,699.2687 " fill="none" id="&#23637;&#31034;&#30830;&#35748;-to-*end*" style="stroke:#181818;stroke-width:1.0;"/><polygon fill="#181818" points="534.8928,701.8116,528.4363,694.3742,530.364,699.6925,525.0458,701.6202,534.8928,701.8116" style="stroke:#181818;stroke-width:1.0;"/></g><!--link ???? to ????--><g id="link_&#20449;&#24687;&#39564;&#35777;_&#25480;&#26435;&#35775;&#38382;"><path d="M413.1478,188.4399 C398.9278,196.2629 385.8748,206.0499 375.4788,218.2969 C345.0238,254.1719 342.917,306.3653 344.754,339.0433 " fill="none" id="&#20449;&#24687;&#39564;&#35777;-to-&#25480;&#26435;&#35775;&#38382;" style="stroke:#181818;stroke-width:1.0;"/><polygon fill="#181818" points="345.0908,345.0339,348.5793,335.8236,344.8101,340.0418,340.5919,336.2726,345.0908,345.0339" style="stroke:#181818;stroke-width:1.0;"/><text fill="#000000" font-family="sans-serif" font-size="13" lengthAdjust="spacing" textLength="156" x="376.4788" y="231.3638">GrantAccess(username)</text></g><!--link ???? to ?????--><g id="link_&#25480;&#26435;&#35775;&#38382;_&#26174;&#31034;&#20027;&#30028;&#38754;"><path d="M351.4838,395.6379 C356.3848,425.4159 363.6545,469.5955 368.5375,499.2665 " fill="none" id="&#25480;&#26435;&#35775;&#38382;-to-&#26174;&#31034;&#20027;&#30028;&#38754;" style="stroke:#181818;stroke-width:1.0;"/><polygon fill="#181818" points="369.5118,505.1869,371.9972,495.6568,368.6998,500.2532,364.1034,496.9559,369.5118,505.1869" style="stroke:#181818;stroke-width:1.0;"/><text fill="#000000" font-family="sans-serif" font-size="13" lengthAdjust="spacing" textLength="118" x="365.4788" y="454.8638">ShowMainScreen()</text></g><!--link ????? to *end*--><g id="link_&#26174;&#31034;&#20027;&#30028;&#38754;_*end*"><path d="M397.2558,555.6299 C436.5328,595.8259 508.8284,669.8127 532.8694,694.4157 " fill="none" id="&#26174;&#31034;&#20027;&#30028;&#38754;-to-*end*" style="stroke:#181818;stroke-width:1.0;"/><polygon fill="#181818" points="537.0628,698.7071,533.6337,689.4745,533.5683,695.1309,527.9118,695.0656,537.0628,698.7071" style="stroke:#181818;stroke-width:1.0;"/></g><!--link ???? to ??????--><g id="link_&#20449;&#24687;&#39564;&#35777;_&#26816;&#26597;&#29031;&#29255;&#38480;&#21046;"><path d="M542.3378,188.4159 C541.5978,202.6969 541.0498,219.8539 541.4788,235.2969 C541.7498,245.0579 541.9402,249.8114 542.4932,259.1264 " fill="none" id="&#20449;&#24687;&#39564;&#35777;-to-&#26816;&#26597;&#29031;&#29255;&#38480;&#21046;" style="stroke:#181818;stroke-width:1.0;"/><polygon fill="#181818" points="542.8488,265.1159,546.3084,255.8946,542.5525,260.1247,538.3224,256.3687,542.8488,265.1159" style="stroke:#181818;stroke-width:1.0;"/><text fill="#000000" font-family="sans-serif" font-size="13" lengthAdjust="spacing" textLength="198" x="542.4788" y="231.3638">CheckPhotoRestrictions(photo)</text></g><!--link ?????? to ????--><g id="link_&#26816;&#26597;&#29031;&#29255;&#38480;&#21046;_&#20998;&#26512;&#39044;&#27979;"><path d="M543.9348,315.4889 C543.7508,324.8049 543.5688,335.5459 543.4788,345.2969 C543.2728,367.5179 543.2728,373.0759 543.4788,395.2969 C543.5688,405.0479 543.6323,409.79 543.8163,419.106 " fill="none" id="&#26816;&#26597;&#29031;&#29255;&#38480;&#21046;-to-&#20998;&#26512;&#39044;&#27979;" style="stroke:#181818;stroke-width:1.0;"/><polygon fill="#181818" points="543.9348,425.1049,547.7563,416.0276,543.836,420.1058,539.7578,416.1856,543.9348,425.1049" style="stroke:#181818;stroke-width:1.0;"/><text fill="#000000" font-family="sans-serif" font-size="13" lengthAdjust="spacing" textLength="167" x="544.4788" y="374.8638">AnalyzeAndPredict(photo)</text></g><!--link ???? to ????--><g id="link_&#20998;&#26512;&#39044;&#27979;_&#23637;&#31034;&#32467;&#26524;"><path d="M544.4788,475.6379 C544.4788,505.4159 544.4788,549.5159 544.4788,579.1869 " fill="none" id="&#20998;&#26512;&#39044;&#27979;-to-&#23637;&#31034;&#32467;&#26524;" style="stroke:#181818;stroke-width:1.0;"/><polygon fill="#181818" points="544.4788,585.1869,548.4788,576.1869,544.4788,580.1869,540.4788,576.1869,544.4788,585.1869" style="stroke:#181818;stroke-width:1.0;"/><text fill="#000000" font-family="sans-serif" font-size="13" lengthAdjust="spacing" textLength="135" x="545.4788" y="534.8638">ShowResults(results)</text></g><!--link ???? to *end*--><g id="link_&#23637;&#31034;&#32467;&#26524;_*end*"><path d="M544.4788,635.7618 C544.4788,655.3333 544.4788,675.789 544.4788,690.0936 " fill="none" id="&#23637;&#31034;&#32467;&#26524;-to-*end*" style="stroke:#181818;stroke-width:1.0;"/><polygon fill="#181818" points="544.4788,696.0936,548.4788,687.0936,544.4788,691.0936,540.4788,687.0936,544.4788,696.0936" style="stroke:#181818;stroke-width:1.0;"/></g><!--link ???? to ??????--><g id="link_&#20449;&#24687;&#39564;&#35777;_&#35831;&#27714;&#20859;&#25252;&#24314;&#35758;"><path d="M690.0708,182.8619 C710.5268,191.4769 729.8638,202.9699 745.4788,218.2969 C758.0548,230.6409 762.7634,243.9902 765.3484,259.3412 " fill="none" id="&#20449;&#24687;&#39564;&#35777;-to-&#35831;&#27714;&#20859;&#25252;&#24314;&#35758;" style="stroke:#181818;stroke-width:1.0;"/><polygon fill="#181818" points="766.3448,265.2579,768.7948,255.7186,765.5145,260.3273,760.9058,257.047,766.3448,265.2579" style="stroke:#181818;stroke-width:1.0;"/><text fill="#000000" font-family="sans-serif" font-size="13" lengthAdjust="spacing" textLength="224" x="757.4788" y="231.3638">RequestCareAdvice(results, photo)</text></g><!--link ?????? to ??????--><g id="link_&#35831;&#27714;&#20859;&#25252;&#24314;&#35758;_&#29983;&#25104;&#20859;&#25252;&#24314;&#35758;"><path d="M756.8008,315.5129 C752.8828,324.6469 748.8988,335.2589 746.4788,345.2969 C740.0218,372.0769 738.2088,397.7207 737.6798,419.0117 " fill="none" id="&#35831;&#27714;&#20859;&#25252;&#24314;&#35758;-to-&#29983;&#25104;&#20859;&#25252;&#24314;&#35758;" style="stroke:#181818;stroke-width:1.0;"/><polygon fill="#181818" points="737.5308,425.0099,741.7531,416.112,737.655,420.0114,733.7556,415.9133,737.5308,425.0099" style="stroke:#181818;stroke-width:1.0;"/><text fill="#000000" font-family="sans-serif" font-size="13" lengthAdjust="spacing" textLength="231" x="747.4788" y="374.8638">GenerateCareAdvice(results, photo)</text></g><!--link ?????? to ??????--><g id="link_&#29983;&#25104;&#20859;&#25252;&#24314;&#35758;_&#23637;&#31034;&#20859;&#25252;&#24314;&#35758;"><path d="M731.6248,475.6379 C724.4628,505.4159 713.817,549.6823 706.68,579.3533 " fill="none" id="&#29983;&#25104;&#20859;&#25252;&#24314;&#35758;-to-&#23637;&#31034;&#20859;&#25252;&#24314;&#35758;" style="stroke:#181818;stroke-width:1.0;"/><polygon fill="#181818" points="705.2768,585.1869,711.2707,577.3719,706.4461,580.3255,703.4925,575.501,705.2768,585.1869" style="stroke:#181818;stroke-width:1.0;"/><text fill="#000000" font-family="sans-serif" font-size="13" lengthAdjust="spacing" textLength="160" x="724.4788" y="534.8638">ShowCareAdvice(advice)</text></g><!--link ?????? to *end*--><g id="link_&#23637;&#31034;&#20859;&#25252;&#24314;&#35758;_*end*"><path d="M659.9648,635.5152 C624.0878,657.5044 578.8974,685.2019 558.6044,697.639 " fill="none" id="&#23637;&#31034;&#20859;&#25252;&#24314;&#35758;-to-*end*" style="stroke:#181818;stroke-width:1.0;"/><polygon fill="#181818" points="553.4888,700.7743,563.2525,699.4818,557.7518,698.1615,559.0721,692.6609,553.4888,700.7743" style="stroke:#181818;stroke-width:1.0;"/></g><!--link ???? to ??????--><g id="link_&#20449;&#24687;&#39564;&#35777;_&#35831;&#27714;&#21382;&#21490;&#35760;&#24405;"><path d="M690.0208,161.4549 C801.9648,167.4829 944.9568,182.2329 990.4788,218.2969 C1029.9898,249.5999 1041.908,305.2841 1045.918,339.3311 " fill="none" id="&#20449;&#24687;&#39564;&#35777;-to-&#35831;&#27714;&#21382;&#21490;&#35760;&#24405;" style="stroke:#181818;stroke-width:1.0;"/><polygon fill="#181818" points="1046.6198,345.2899,1049.5396,335.8838,1046.0349,340.3242,1041.5945,336.8195,1046.6198,345.2899" style="stroke:#181818;stroke-width:1.0;"/><text fill="#000000" font-family="sans-serif" font-size="13" lengthAdjust="spacing" textLength="108" x="1006.4788" y="231.3638">RequestHistory()</text></g><!--link ?????? to ??????--><g id="link_&#35831;&#27714;&#21382;&#21490;&#35760;&#24405;_&#26174;&#31034;&#21382;&#21490;&#35760;&#24405;"><path d="M1036.7698,395.6379 C1022.4498,425.4159 1000.9497,470.1089 986.6767,499.7799 " fill="none" id="&#35831;&#27714;&#21382;&#21490;&#35760;&#24405;-to-&#26174;&#31034;&#21382;&#21490;&#35760;&#24405;" style="stroke:#181818;stroke-width:1.0;"/><polygon fill="#181818" points="984.0758,505.1869,991.5819,498.8104,986.2433,500.6811,984.3726,495.3425,984.0758,505.1869" style="stroke:#181818;stroke-width:1.0;"/><text fill="#000000" font-family="sans-serif" font-size="13" lengthAdjust="spacing" textLength="156" x="1022.4798" y="454.8638">ShowHistory(historyList)</text></g><!--link ?????? to *end*--><g id="link_&#26174;&#31034;&#21382;&#21490;&#35760;&#24405;_*end*"><path d="M930.6858,555.3339 C890.3118,577.9189 826.9908,611.6859 769.4788,635.2969 C689.1468,668.2761 593.3747,693.8381 560.8277,702.1618 " fill="none" id="&#26174;&#31034;&#21382;&#21490;&#35760;&#24405;-to-*end*" style="stroke:#181818;stroke-width:1.0;"/><polygon fill="#181818" points="555.0148,703.6484,564.7252,705.2937,559.8589,702.4095,562.7431,697.5432,555.0148,703.6484" style="stroke:#181818;stroke-width:1.0;"/></g><!--SRC=[VPBFRjD04CRlVWeV7TI-G0z8KGu52QGgbRW0XvKz9IkSTTdTK9LJ0pIOKeL84455_oWbKCJ1eGXQr0ZwClNQVWjcaxgEapIdbQtvVlDzCoEfTC5KpQFGFmbtlaLR9sgZ7WMTgDKmZFit7fhpypVDY_EEglUIxzjnhswCVfWBvZtYKeT8ACEZssp5ise2E2DLc3DNYH1h7dVcJAWIwXOUiBIsnC419YbnnPJwWf7leHt4lxug_pJqFuNzCsoA0CGKRTkhCJcZfP7JQL1ut8wwPr4dY8CkWfOhtbh9OokKLuca7hCAHgv2It0AKnoffg_sNiJ1UV8XGD0Y9qoY8H1Pf8AHAngeFlv3-CMVVjJUJlOEBntS9PGjsnn0znylcM7XyuOw-19j7aMlNoKxBToW7aq5xCTB5KzwPH2IKrl74jQg_eFmISbWAdv3xRUImvVgznja51bnrvz1aJbBk2b4fF9StSWu- -_K_kvb66nRSwMm-F2z6kYmvleqSUzK7JyFD_jggulRYWCzrZ8ygM6C4k5GT9vI6r8ixdfeQOfCqwBt1yflZT4MWG7NztSzReekopc66nnFXYA39yqxWPYPkja8t_wCWn_XttQM-XOLqkFhrbN8qQhiciR4sbMgh0pVE_YaXpK1GL__0G00]--></g></svg>