<?xml version="1.0" encoding="us-ascii" standalone="no"?><svg xmlns="http://www.w3.org/2000/svg" xmlns:xlink="http://www.w3.org/1999/xlink" contentStyleType="text/css" height="1157px" preserveAspectRatio="none" style="width:1898px;height:1157px;background:#FFFFFF;" version="1.1" viewBox="0 0 1898 1157" width="1898px" zoomAndPan="magnify"><defs/><g><text fill="#000000" font-family="sans-serif" font-size="14" font-weight="bold" lengthAdjust="spacing" textLength="367" x="758.5" y="22.9951">Application Class Diagram with UI Components</text><!--cluster Client Side--><g id="cluster_Client Side"><path d="M150.5,346.2969 L235.5,346.2969 A3.75,3.75 0 0 1 238,348.7969 L245,368.5938 L1888.5,368.5938 A2.5,2.5 0 0 1 1891,371.0938 L1891,1147.7969 A2.5,2.5 0 0 1 1888.5,1150.2969 L150.5,1150.2969 A2.5,2.5 0 0 1 148,1147.7969 L148,348.7969 A2.5,2.5 0 0 1 150.5,346.2969 " fill="none" style="stroke:#000000;stroke-width:1.5;"/><line style="stroke:#000000;stroke-width:1.5;" x1="148" x2="245" y1="368.5938" y2="368.5938"/><text fill="#000000" font-family="sans-serif" font-size="14" font-weight="bold" lengthAdjust="spacing" textLength="84" x="152" y="361.292">Client Side</text></g><!--cluster Server Side--><g id="cluster_Server Side"><path d="M8.5,43.2969 L101.5,43.2969 A3.75,3.75 0 0 1 104,45.7969 L111,65.5938 L1042,65.5938 A2.5,2.5 0 0 1 1044.5,68.0938 L1044.5,319.7969 A2.5,2.5 0 0 1 1042,322.2969 L8.5,322.2969 A2.5,2.5 0 0 1 6,319.7969 L6,45.7969 A2.5,2.5 0 0 1 8.5,43.2969 " fill="none" style="stroke:#000000;stroke-width:1.5;"/><line style="stroke:#000000;stroke-width:1.5;" x1="6" x2="111" y1="65.5938" y2="65.5938"/><text fill="#000000" font-family="sans-serif" font-size="14" font-weight="bold" lengthAdjust="spacing" textLength="92" x="10" y="58.292">Server Side</text></g><!--class MainScreen--><g id="elem_MainScreen"><rect codeLine="8" fill="#F1F1F1" height="129.4844" id="MainScreen" rx="2.5" ry="2.5" style="stroke:#181818;stroke-width:0.5;" width="193" x="164" y="697.5569"/><ellipse cx="215.75" cy="713.5569" fill="#ADD1B2" rx="11" ry="11" style="stroke:#181818;stroke-width:1.0;"/><path d="M218.7188,719.1975 Q218.1406,719.4944 217.5,719.635 Q216.8594,719.7913 216.1563,719.7913 Q213.6563,719.7913 212.3281,718.1506 Q211.0156,716.4944 211.0156,713.3694 Q211.0156,710.2444 212.3281,708.5881 Q213.6563,706.9319 216.1563,706.9319 Q216.8594,706.9319 217.5,707.0881 Q218.1563,707.2444 218.7188,707.5413 L218.7188,710.26 Q218.0938,709.6819 217.5,709.4163 Q216.9063,709.135 216.2813,709.135 Q214.9375,709.135 214.25,710.2131 Q213.5625,711.2756 213.5625,713.3694 Q213.5625,715.4631 214.25,716.5413 Q214.9375,717.6038 216.2813,717.6038 Q216.9063,717.6038 217.5,717.3381 Q218.0938,717.0569 218.7188,716.4788 L218.7188,719.1975 Z " fill="#000000"/><text fill="#000000" font-family="sans-serif" font-size="14" lengthAdjust="spacing" textLength="81" x="236.25" y="718.4036">MainScreen</text><line style="stroke:#181818;stroke-width:0.5;" x1="165" x2="356" y1="729.5569" y2="729.5569"/><ellipse cx="175" cy="743.2053" fill="none" rx="3" ry="3" style="stroke:#038048;stroke-width:1.0;"/><text fill="#000000" font-family="sans-serif" font-size="14" lengthAdjust="spacing" textLength="130" x="184" y="746.552">Navigation Buttons</text><ellipse cx="175" cy="759.5022" fill="none" rx="3" ry="3" style="stroke:#038048;stroke-width:1.0;"/><text fill="#000000" font-family="sans-serif" font-size="14" lengthAdjust="spacing" textLength="94" x="184" y="762.8489">Feature Icons</text><line style="stroke:#181818;stroke-width:0.5;" x1="165" x2="356" y1="770.1506" y2="770.1506"/><ellipse cx="175" cy="783.7991" fill="#84BE84" rx="3" ry="3" style="stroke:#038048;stroke-width:1.0;"/><text fill="#000000" font-family="sans-serif" font-size="14" lengthAdjust="spacing" textLength="153" x="184" y="787.1457">selectUploadFeature()</text><ellipse cx="175" cy="800.0959" fill="#84BE84" rx="3" ry="3" style="stroke:#038048;stroke-width:1.0;"/><text fill="#000000" font-family="sans-serif" font-size="14" lengthAdjust="spacing" textLength="152" x="184" y="803.4426">selectHistoryFeature()</text><ellipse cx="175" cy="816.3928" fill="#84BE84" rx="3" ry="3" style="stroke:#038048;stroke-width:1.0;"/><text fill="#000000" font-family="sans-serif" font-size="14" lengthAdjust="spacing" textLength="167" x="184" y="819.7395">navigateToMainScreen()</text></g><!--class RegistrationScreen--><g id="elem_RegistrationScreen"><rect codeLine="15" fill="#F1F1F1" height="162.0781" id="RegistrationScreen" rx="2.5" ry="2.5" style="stroke:#181818;stroke-width:0.5;" width="472" x="623" y="972.2569"/><ellipse cx="788.75" cy="988.2569" fill="#ADD1B2" rx="11" ry="11" style="stroke:#181818;stroke-width:1.0;"/><path d="M791.7188,993.8975 Q791.1406,994.1944 790.5,994.335 Q789.8594,994.4913 789.1563,994.4913 Q786.6563,994.4913 785.3281,992.8506 Q784.0156,991.1944 784.0156,988.0694 Q784.0156,984.9444 785.3281,983.2881 Q786.6563,981.6319 789.1563,981.6319 Q789.8594,981.6319 790.5,981.7881 Q791.1563,981.9444 791.7188,982.2413 L791.7188,984.96 Q791.0938,984.3819 790.5,984.1163 Q789.9063,983.835 789.2813,983.835 Q787.9375,983.835 787.25,984.9131 Q786.5625,985.9756 786.5625,988.0694 Q786.5625,990.1631 787.25,991.2413 Q787.9375,992.3038 789.2813,992.3038 Q789.9063,992.3038 790.5,992.0381 Q791.0938,991.7569 791.7188,991.1788 L791.7188,993.8975 Z " fill="#000000"/><text fill="#000000" font-family="sans-serif" font-size="14" lengthAdjust="spacing" textLength="132" x="809.25" y="993.1036">RegistrationScreen</text><line style="stroke:#181818;stroke-width:0.5;" x1="624" x2="1094" y1="1004.2569" y2="1004.2569"/><ellipse cx="634" cy="1017.9053" fill="none" rx="3" ry="3" style="stroke:#038048;stroke-width:1.0;"/><text fill="#000000" font-family="sans-serif" font-size="14" lengthAdjust="spacing" textLength="79" x="643" y="1021.252">Input Fields</text><ellipse cx="634" cy="1034.2022" fill="none" rx="3" ry="3" style="stroke:#038048;stroke-width:1.0;"/><text fill="#000000" font-family="sans-serif" font-size="14" lengthAdjust="spacing" textLength="99" x="643" y="1037.5489">Submit Button</text><line style="stroke:#181818;stroke-width:0.5;" x1="624" x2="1094" y1="1044.8506" y2="1044.8506"/><ellipse cx="634" cy="1058.4991" fill="#84BE84" rx="3" ry="3" style="stroke:#038048;stroke-width:1.0;"/><text fill="#000000" font-family="sans-serif" font-size="14" lengthAdjust="spacing" textLength="110" x="643" y="1061.8457">showRegForm()</text><ellipse cx="634" cy="1074.7959" fill="#84BE84" rx="3" ry="3" style="stroke:#038048;stroke-width:1.0;"/><text fill="#000000" font-family="sans-serif" font-size="14" lengthAdjust="spacing" textLength="434" x="643" y="1078.1426">inputRegInfo(username: String, password: String, email: String)</text><ellipse cx="634" cy="1091.0928" fill="#84BE84" rx="3" ry="3" style="stroke:#038048;stroke-width:1.0;"/><text fill="#000000" font-family="sans-serif" font-size="14" lengthAdjust="spacing" textLength="446" x="643" y="1094.4395">submitRegInfo(username: String, password: String, email: String)</text><ellipse cx="634" cy="1107.3897" fill="#84BE84" rx="3" ry="3" style="stroke:#038048;stroke-width:1.0;"/><text fill="#000000" font-family="sans-serif" font-size="14" lengthAdjust="spacing" textLength="144" x="643" y="1110.7364">displayConfirmation()</text><ellipse cx="634" cy="1123.6866" fill="#84BE84" rx="3" ry="3" style="stroke:#038048;stroke-width:1.0;"/><text fill="#000000" font-family="sans-serif" font-size="14" lengthAdjust="spacing" textLength="201" x="643" y="1127.0332">displayError(errorMsg: String)</text></g><!--class LoginScreen--><g id="elem_LoginScreen"><rect codeLine="24" fill="#F1F1F1" height="162.0781" id="LoginScreen" rx="2.5" ry="2.5" style="stroke:#181818;stroke-width:0.5;" width="404" x="657" y="775.2569"/><ellipse cx="811.75" cy="791.2569" fill="#ADD1B2" rx="11" ry="11" style="stroke:#181818;stroke-width:1.0;"/><path d="M814.7188,796.8975 Q814.1406,797.1944 813.5,797.335 Q812.8594,797.4913 812.1563,797.4913 Q809.6563,797.4913 808.3281,795.8506 Q807.0156,794.1944 807.0156,791.0694 Q807.0156,787.9444 808.3281,786.2881 Q809.6563,784.6319 812.1563,784.6319 Q812.8594,784.6319 813.5,784.7881 Q814.1563,784.9444 814.7188,785.2413 L814.7188,787.96 Q814.0938,787.3819 813.5,787.1163 Q812.9063,786.835 812.2813,786.835 Q810.9375,786.835 810.25,787.9131 Q809.5625,788.9756 809.5625,791.0694 Q809.5625,793.1631 810.25,794.2413 Q810.9375,795.3038 812.2813,795.3038 Q812.9063,795.3038 813.5,795.0381 Q814.0938,794.7569 814.7188,794.1788 L814.7188,796.8975 Z " fill="#000000"/><text fill="#000000" font-family="sans-serif" font-size="14" lengthAdjust="spacing" textLength="86" x="832.25" y="796.1036">LoginScreen</text><line style="stroke:#181818;stroke-width:0.5;" x1="658" x2="1060" y1="807.2569" y2="807.2569"/><ellipse cx="668" cy="820.9053" fill="none" rx="3" ry="3" style="stroke:#038048;stroke-width:1.0;"/><text fill="#000000" font-family="sans-serif" font-size="14" lengthAdjust="spacing" textLength="79" x="677" y="824.252">Input Fields</text><ellipse cx="668" cy="837.2022" fill="none" rx="3" ry="3" style="stroke:#038048;stroke-width:1.0;"/><text fill="#000000" font-family="sans-serif" font-size="14" lengthAdjust="spacing" textLength="88" x="677" y="840.5489">Login Button</text><line style="stroke:#181818;stroke-width:0.5;" x1="658" x2="1060" y1="847.8506" y2="847.8506"/><ellipse cx="668" cy="861.4991" fill="#84BE84" rx="3" ry="3" style="stroke:#038048;stroke-width:1.0;"/><text fill="#000000" font-family="sans-serif" font-size="14" lengthAdjust="spacing" textLength="119" x="677" y="864.8457">showLoginForm()</text><ellipse cx="668" cy="877.7959" fill="#84BE84" rx="3" ry="3" style="stroke:#038048;stroke-width:1.0;"/><text fill="#000000" font-family="sans-serif" font-size="14" lengthAdjust="spacing" textLength="366" x="677" y="881.1426">inputCredentials(username: String, password: String)</text><ellipse cx="668" cy="894.0928" fill="#84BE84" rx="3" ry="3" style="stroke:#038048;stroke-width:1.0;"/><text fill="#000000" font-family="sans-serif" font-size="14" lengthAdjust="spacing" textLength="378" x="677" y="897.4395">submitCredentials(username: String, password: String)</text><ellipse cx="668" cy="910.3897" fill="#84BE84" rx="3" ry="3" style="stroke:#038048;stroke-width:1.0;"/><text fill="#000000" font-family="sans-serif" font-size="14" lengthAdjust="spacing" textLength="138" x="677" y="913.7364">displayMainScreen()</text><ellipse cx="668" cy="926.6866" fill="#84BE84" rx="3" ry="3" style="stroke:#038048;stroke-width:1.0;"/><text fill="#000000" font-family="sans-serif" font-size="14" lengthAdjust="spacing" textLength="201" x="677" y="930.0332">displayError(errorMsg: String)</text></g><!--class UploadScreen--><g id="elem_UploadScreen"><rect codeLine="33" fill="#F1F1F1" height="145.7813" id="UploadScreen" rx="2.5" ry="2.5" style="stroke:#181818;stroke-width:0.5;" width="227" x="745.5" y="594.4069"/><ellipse cx="806.25" cy="610.4069" fill="#ADD1B2" rx="11" ry="11" style="stroke:#181818;stroke-width:1.0;"/><path d="M809.2188,616.0475 Q808.6406,616.3444 808,616.485 Q807.3594,616.6413 806.6563,616.6413 Q804.1563,616.6413 802.8281,615.0006 Q801.5156,613.3444 801.5156,610.2194 Q801.5156,607.0944 802.8281,605.4381 Q804.1563,603.7819 806.6563,603.7819 Q807.3594,603.7819 808,603.9381 Q808.6563,604.0944 809.2188,604.3913 L809.2188,607.11 Q808.5938,606.5319 808,606.2663 Q807.4063,605.985 806.7813,605.985 Q805.4375,605.985 804.75,607.0631 Q804.0625,608.1256 804.0625,610.2194 Q804.0625,612.3131 804.75,613.3913 Q805.4375,614.4538 806.7813,614.4538 Q807.4063,614.4538 808,614.1881 Q808.5938,613.9069 809.2188,613.3288 L809.2188,616.0475 Z " fill="#000000"/><text fill="#000000" font-family="sans-serif" font-size="14" lengthAdjust="spacing" textLength="97" x="826.75" y="615.2536">UploadScreen</text><line style="stroke:#181818;stroke-width:0.5;" x1="746.5" x2="971.5" y1="626.4069" y2="626.4069"/><ellipse cx="756.5" cy="640.0553" fill="none" rx="3" ry="3" style="stroke:#038048;stroke-width:1.0;"/><text fill="#000000" font-family="sans-serif" font-size="14" lengthAdjust="spacing" textLength="102" x="765.5" y="643.402">Photo Selector</text><ellipse cx="756.5" cy="656.3522" fill="none" rx="3" ry="3" style="stroke:#038048;stroke-width:1.0;"/><text fill="#000000" font-family="sans-serif" font-size="14" lengthAdjust="spacing" textLength="99" x="765.5" y="659.6989">Upload Button</text><line style="stroke:#181818;stroke-width:0.5;" x1="746.5" x2="971.5" y1="667.0006" y2="667.0006"/><ellipse cx="756.5" cy="680.6491" fill="#84BE84" rx="3" ry="3" style="stroke:#038048;stroke-width:1.0;"/><text fill="#000000" font-family="sans-serif" font-size="14" lengthAdjust="spacing" textLength="130" x="765.5" y="683.9957">showUploadForm()</text><ellipse cx="756.5" cy="696.9459" fill="#84BE84" rx="3" ry="3" style="stroke:#038048;stroke-width:1.0;"/><text fill="#000000" font-family="sans-serif" font-size="14" lengthAdjust="spacing" textLength="86" x="765.5" y="700.2926">inputPhoto()</text><ellipse cx="756.5" cy="713.2428" fill="#84BE84" rx="3" ry="3" style="stroke:#038048;stroke-width:1.0;"/><text fill="#000000" font-family="sans-serif" font-size="14" lengthAdjust="spacing" textLength="171" x="765.5" y="716.5895">submitPhoto(photo: File)</text><ellipse cx="756.5" cy="729.5397" fill="#84BE84" rx="3" ry="3" style="stroke:#038048;stroke-width:1.0;"/><text fill="#000000" font-family="sans-serif" font-size="14" lengthAdjust="spacing" textLength="201" x="765.5" y="732.8864">displayError(errorMsg: String)</text></g><!--class ResultDisplayScreen--><g id="elem_ResultDisplayScreen"><rect codeLine="41" fill="#F1F1F1" height="113.1875" id="ResultDisplayScreen" rx="2.5" ry="2.5" style="stroke:#181818;stroke-width:0.5;" width="214" x="1255" y="610.7069"/><ellipse cx="1288" cy="626.7069" fill="#ADD1B2" rx="11" ry="11" style="stroke:#181818;stroke-width:1.0;"/><path d="M1290.9688,632.3475 Q1290.3906,632.6444 1289.75,632.785 Q1289.1094,632.9413 1288.4063,632.9413 Q1285.9063,632.9413 1284.5781,631.3006 Q1283.2656,629.6444 1283.2656,626.5194 Q1283.2656,623.3944 1284.5781,621.7381 Q1285.9063,620.0819 1288.4063,620.0819 Q1289.1094,620.0819 1289.75,620.2381 Q1290.4063,620.3944 1290.9688,620.6913 L1290.9688,623.41 Q1290.3438,622.8319 1289.75,622.5663 Q1289.1563,622.285 1288.5313,622.285 Q1287.1875,622.285 1286.5,623.3631 Q1285.8125,624.4256 1285.8125,626.5194 Q1285.8125,628.6131 1286.5,629.6913 Q1287.1875,630.7538 1288.5313,630.7538 Q1289.1563,630.7538 1289.75,630.4881 Q1290.3438,630.2069 1290.9688,629.6288 L1290.9688,632.3475 Z " fill="#000000"/><text fill="#000000" font-family="sans-serif" font-size="14" lengthAdjust="spacing" textLength="142" x="1306" y="631.5536">ResultDisplayScreen</text><line style="stroke:#181818;stroke-width:0.5;" x1="1256" x2="1468" y1="642.7069" y2="642.7069"/><ellipse cx="1266" cy="656.3553" fill="none" rx="3" ry="3" style="stroke:#038048;stroke-width:1.0;"/><text fill="#000000" font-family="sans-serif" font-size="14" lengthAdjust="spacing" textLength="78" x="1275" y="659.702">Result Text</text><ellipse cx="1266" cy="672.6522" fill="none" rx="3" ry="3" style="stroke:#038048;stroke-width:1.0;"/><text fill="#000000" font-family="sans-serif" font-size="14" lengthAdjust="spacing" textLength="50" x="1275" y="675.9989">Graphs</text><line style="stroke:#181818;stroke-width:0.5;" x1="1256" x2="1468" y1="683.3006" y2="683.3006"/><ellipse cx="1266" cy="696.9491" fill="#84BE84" rx="3" ry="3" style="stroke:#038048;stroke-width:1.0;"/><text fill="#000000" font-family="sans-serif" font-size="14" lengthAdjust="spacing" textLength="178" x="1275" y="700.2957">showResults(results: List)</text><ellipse cx="1266" cy="713.2459" fill="#84BE84" rx="3" ry="3" style="stroke:#038048;stroke-width:1.0;"/><text fill="#000000" font-family="sans-serif" font-size="14" lengthAdjust="spacing" textLength="188" x="1275" y="716.5926">displayResults(results: List)</text></g><!--class AdviceDisplayScreen--><g id="elem_AdviceDisplayScreen"><rect codeLine="47" fill="#F1F1F1" height="96.8906" id="AdviceDisplayScreen" rx="2.5" ry="2.5" style="stroke:#181818;stroke-width:0.5;" width="253" x="1622" y="653.8469"/><ellipse cx="1672.75" cy="669.8469" fill="#ADD1B2" rx="11" ry="11" style="stroke:#181818;stroke-width:1.0;"/><path d="M1675.7188,675.4875 Q1675.1406,675.7844 1674.5,675.925 Q1673.8594,676.0813 1673.1563,676.0813 Q1670.6563,676.0813 1669.3281,674.4406 Q1668.0156,672.7844 1668.0156,669.6594 Q1668.0156,666.5344 1669.3281,664.8781 Q1670.6563,663.2219 1673.1563,663.2219 Q1673.8594,663.2219 1674.5,663.3781 Q1675.1563,663.5344 1675.7188,663.8313 L1675.7188,666.55 Q1675.0938,665.9719 1674.5,665.7063 Q1673.9063,665.425 1673.2813,665.425 Q1671.9375,665.425 1671.25,666.5031 Q1670.5625,667.5656 1670.5625,669.6594 Q1670.5625,671.7531 1671.25,672.8313 Q1671.9375,673.8938 1673.2813,673.8938 Q1673.9063,673.8938 1674.5,673.6281 Q1675.0938,673.3469 1675.7188,672.7688 L1675.7188,675.4875 Z " fill="#000000"/><text fill="#000000" font-family="sans-serif" font-size="14" lengthAdjust="spacing" textLength="143" x="1693.25" y="674.6936">AdviceDisplayScreen</text><line style="stroke:#181818;stroke-width:0.5;" x1="1623" x2="1874" y1="685.8469" y2="685.8469"/><ellipse cx="1633" cy="699.4953" fill="none" rx="3" ry="3" style="stroke:#038048;stroke-width:1.0;"/><text fill="#000000" font-family="sans-serif" font-size="14" lengthAdjust="spacing" textLength="79" x="1642" y="702.842">Advice Text</text><line style="stroke:#181818;stroke-width:0.5;" x1="1623" x2="1874" y1="710.1438" y2="710.1438"/><ellipse cx="1633" cy="723.7922" fill="#84BE84" rx="3" ry="3" style="stroke:#038048;stroke-width:1.0;"/><text fill="#000000" font-family="sans-serif" font-size="14" lengthAdjust="spacing" textLength="217" x="1642" y="727.1389">showCareAdvice(advice: String)</text><ellipse cx="1633" cy="740.0891" fill="#84BE84" rx="3" ry="3" style="stroke:#038048;stroke-width:1.0;"/><text fill="#000000" font-family="sans-serif" font-size="14" lengthAdjust="spacing" textLength="227" x="1642" y="743.4357">displayCareAdvice(advice: String)</text></g><!--class HistoryRecordScreen--><g id="elem_HistoryRecordScreen"><rect codeLine="52" fill="#F1F1F1" height="178.375" id="HistoryRecordScreen" rx="2.5" ry="2.5" style="stroke:#181818;stroke-width:0.5;" width="313" x="702.5" y="381.1069"/><ellipse cx="781.75" cy="397.1069" fill="#ADD1B2" rx="11" ry="11" style="stroke:#181818;stroke-width:1.0;"/><path d="M784.7188,402.7475 Q784.1406,403.0444 783.5,403.185 Q782.8594,403.3412 782.1563,403.3412 Q779.6563,403.3412 778.3281,401.7006 Q777.0156,400.0444 777.0156,396.9194 Q777.0156,393.7944 778.3281,392.1381 Q779.6563,390.4819 782.1563,390.4819 Q782.8594,390.4819 783.5,390.6381 Q784.1563,390.7944 784.7188,391.0912 L784.7188,393.81 Q784.0938,393.2319 783.5,392.9662 Q782.9063,392.685 782.2813,392.685 Q780.9375,392.685 780.25,393.7631 Q779.5625,394.8256 779.5625,396.9194 Q779.5625,399.0131 780.25,400.0912 Q780.9375,401.1537 782.2813,401.1537 Q782.9063,401.1537 783.5,400.8881 Q784.0938,400.6069 784.7188,400.0287 L784.7188,402.7475 Z " fill="#000000"/><text fill="#000000" font-family="sans-serif" font-size="14" lengthAdjust="spacing" textLength="146" x="802.25" y="401.9536">HistoryRecordScreen</text><line style="stroke:#181818;stroke-width:0.5;" x1="703.5" x2="1014.5" y1="413.1069" y2="413.1069"/><ellipse cx="713.5" cy="426.7553" fill="none" rx="3" ry="3" style="stroke:#038048;stroke-width:1.0;"/><text fill="#000000" font-family="sans-serif" font-size="14" lengthAdjust="spacing" textLength="77" x="722.5" y="430.102">Record List</text><ellipse cx="713.5" cy="443.0522" fill="none" rx="3" ry="3" style="stroke:#038048;stroke-width:1.0;"/><text fill="#000000" font-family="sans-serif" font-size="14" lengthAdjust="spacing" textLength="75" x="722.5" y="446.3989">Detail View</text><line style="stroke:#181818;stroke-width:0.5;" x1="703.5" x2="1014.5" y1="453.7006" y2="453.7006"/><ellipse cx="713.5" cy="467.3491" fill="#84BE84" rx="3" ry="3" style="stroke:#038048;stroke-width:1.0;"/><text fill="#000000" font-family="sans-serif" font-size="14" lengthAdjust="spacing" textLength="152" x="722.5" y="470.6957">selectHistoryFeature()</text><ellipse cx="713.5" cy="483.6459" fill="#84BE84" rx="3" ry="3" style="stroke:#038048;stroke-width:1.0;"/><text fill="#000000" font-family="sans-serif" font-size="14" lengthAdjust="spacing" textLength="205" x="722.5" y="486.9926">displayHistory(historyList: List)</text><ellipse cx="713.5" cy="499.9428" fill="#84BE84" rx="3" ry="3" style="stroke:#038048;stroke-width:1.0;"/><text fill="#000000" font-family="sans-serif" font-size="14" lengthAdjust="spacing" textLength="185" x="722.5" y="503.2895">selectRecord(recordId: Int)</text><ellipse cx="713.5" cy="516.2397" fill="#84BE84" rx="3" ry="3" style="stroke:#038048;stroke-width:1.0;"/><text fill="#000000" font-family="sans-serif" font-size="14" lengthAdjust="spacing" textLength="227" x="722.5" y="519.5864">showRecordDetails(recordId: Int)</text><ellipse cx="713.5" cy="532.5366" fill="#84BE84" rx="3" ry="3" style="stroke:#038048;stroke-width:1.0;"/><text fill="#000000" font-family="sans-serif" font-size="14" lengthAdjust="spacing" textLength="287" x="722.5" y="535.8832">chooseAction(action: String, recordId: Int)</text><ellipse cx="713.5" cy="548.8334" fill="#84BE84" rx="3" ry="3" style="stroke:#038048;stroke-width:1.0;"/><text fill="#000000" font-family="sans-serif" font-size="14" lengthAdjust="spacing" textLength="163" x="722.5" y="552.1801">displayUpdatedHistory()</text></g><!--class ShareScreen--><g id="elem_ShareScreen"><rect codeLine="62" fill="#F1F1F1" height="113.1875" id="ShareScreen" rx="2.5" ry="2.5" style="stroke:#181818;stroke-width:0.5;" width="249" x="1624" y="505.7069"/><ellipse cx="1699.75" cy="521.7069" fill="#ADD1B2" rx="11" ry="11" style="stroke:#181818;stroke-width:1.0;"/><path d="M1702.7188,527.3475 Q1702.1406,527.6444 1701.5,527.785 Q1700.8594,527.9413 1700.1563,527.9413 Q1697.6563,527.9413 1696.3281,526.3006 Q1695.0156,524.6444 1695.0156,521.5194 Q1695.0156,518.3944 1696.3281,516.7381 Q1697.6563,515.0819 1700.1563,515.0819 Q1700.8594,515.0819 1701.5,515.2381 Q1702.1563,515.3944 1702.7188,515.6913 L1702.7188,518.41 Q1702.0938,517.8319 1701.5,517.5663 Q1700.9063,517.285 1700.2813,517.285 Q1698.9375,517.285 1698.25,518.3631 Q1697.5625,519.4256 1697.5625,521.5194 Q1697.5625,523.6131 1698.25,524.6913 Q1698.9375,525.7538 1700.2813,525.7538 Q1700.9063,525.7538 1701.5,525.4881 Q1702.0938,525.2069 1702.7188,524.6288 L1702.7188,527.3475 Z " fill="#000000"/><text fill="#000000" font-family="sans-serif" font-size="14" lengthAdjust="spacing" textLength="89" x="1720.25" y="526.5536">ShareScreen</text><line style="stroke:#181818;stroke-width:0.5;" x1="1625" x2="1872" y1="537.7069" y2="537.7069"/><ellipse cx="1635" cy="551.3553" fill="none" rx="3" ry="3" style="stroke:#038048;stroke-width:1.0;"/><text fill="#000000" font-family="sans-serif" font-size="14" lengthAdjust="spacing" textLength="98" x="1644" y="554.702">Share Options</text><ellipse cx="1635" cy="567.6522" fill="none" rx="3" ry="3" style="stroke:#038048;stroke-width:1.0;"/><text fill="#000000" font-family="sans-serif" font-size="14" lengthAdjust="spacing" textLength="104" x="1644" y="570.9989">Confirm Button</text><line style="stroke:#181818;stroke-width:0.5;" x1="1625" x2="1872" y1="578.3006" y2="578.3006"/><ellipse cx="1635" cy="591.9491" fill="#84BE84" rx="3" ry="3" style="stroke:#038048;stroke-width:1.0;"/><text fill="#000000" font-family="sans-serif" font-size="14" lengthAdjust="spacing" textLength="141" x="1644" y="595.2957">showShareOptions()</text><ellipse cx="1635" cy="608.2459" fill="#84BE84" rx="3" ry="3" style="stroke:#038048;stroke-width:1.0;"/><text fill="#000000" font-family="sans-serif" font-size="14" lengthAdjust="spacing" textLength="223" x="1644" y="611.5926">choosePlatform(platform: String)</text></g><!--class Controller--><g id="elem_Controller"><rect codeLine="71" fill="#F1F1F1" height="227.2656" id="Controller" rx="2.5" ry="2.5" style="stroke:#181818;stroke-width:0.5;" width="477" x="22" y="78.6669"/><ellipse cx="222.75" cy="94.6669" fill="#ADD1B2" rx="11" ry="11" style="stroke:#181818;stroke-width:1.0;"/><path d="M225.7188,100.3075 Q225.1406,100.6044 224.5,100.745 Q223.8594,100.9012 223.1563,100.9012 Q220.6563,100.9012 219.3281,99.2606 Q218.0156,97.6044 218.0156,94.4794 Q218.0156,91.3544 219.3281,89.6981 Q220.6563,88.0419 223.1563,88.0419 Q223.8594,88.0419 224.5,88.1981 Q225.1563,88.3544 225.7188,88.6512 L225.7188,91.37 Q225.0938,90.7919 224.5,90.5262 Q223.9063,90.245 223.2813,90.245 Q221.9375,90.245 221.25,91.3231 Q220.5625,92.3856 220.5625,94.4794 Q220.5625,96.5731 221.25,97.6512 Q221.9375,98.7137 223.2813,98.7137 Q223.9063,98.7137 224.5,98.4481 Q225.0938,98.1669 225.7188,97.5887 L225.7188,100.3075 Z " fill="#000000"/><text fill="#000000" font-family="sans-serif" font-size="14" lengthAdjust="spacing" textLength="67" x="243.25" y="99.5136">Controller</text><line style="stroke:#181818;stroke-width:0.5;" x1="23" x2="498" y1="110.6669" y2="110.6669"/><line style="stroke:#181818;stroke-width:0.5;" x1="23" x2="498" y1="118.6669" y2="118.6669"/><ellipse cx="33" cy="132.3153" fill="#84BE84" rx="3" ry="3" style="stroke:#038048;stroke-width:1.0;"/><text fill="#000000" font-family="sans-serif" font-size="14" lengthAdjust="spacing" textLength="451" x="42" y="135.662">validateRegInfo(username: String, password: String, email: String)</text><ellipse cx="33" cy="148.6122" fill="#84BE84" rx="3" ry="3" style="stroke:#038048;stroke-width:1.0;"/><text fill="#000000" font-family="sans-serif" font-size="14" lengthAdjust="spacing" textLength="447" x="42" y="151.9589">createAccount(username: String, password: String, email: String)</text><ellipse cx="33" cy="164.9091" fill="#84BE84" rx="3" ry="3" style="stroke:#038048;stroke-width:1.0;"/><text fill="#000000" font-family="sans-serif" font-size="14" lengthAdjust="spacing" textLength="383" x="42" y="168.2557">validateCredentials(username: String, password: String)</text><ellipse cx="33" cy="181.2059" fill="#84BE84" rx="3" ry="3" style="stroke:#038048;stroke-width:1.0;"/><text fill="#000000" font-family="sans-serif" font-size="14" lengthAdjust="spacing" textLength="215" x="42" y="184.5526">grantAccess(username: String)</text><ellipse cx="33" cy="197.5028" fill="#84BE84" rx="3" ry="3" style="stroke:#038048;stroke-width:1.0;"/><text fill="#000000" font-family="sans-serif" font-size="14" lengthAdjust="spacing" textLength="248" x="42" y="200.8495">checkPhotoRestrictions(photo: File)</text><ellipse cx="33" cy="213.7997" fill="#84BE84" rx="3" ry="3" style="stroke:#038048;stroke-width:1.0;"/><text fill="#000000" font-family="sans-serif" font-size="14" lengthAdjust="spacing" textLength="210" x="42" y="217.1464">analyzeAndPredict(photo: File)</text><ellipse cx="33" cy="230.0966" fill="#84BE84" rx="3" ry="3" style="stroke:#038048;stroke-width:1.0;"/><text fill="#000000" font-family="sans-serif" font-size="14" lengthAdjust="spacing" textLength="301" x="42" y="233.4432">requestCareAdvice(results: List, photo: File)</text><ellipse cx="33" cy="246.3934" fill="#84BE84" rx="3" ry="3" style="stroke:#038048;stroke-width:1.0;"/><text fill="#000000" font-family="sans-serif" font-size="14" lengthAdjust="spacing" textLength="310" x="42" y="249.7401">generateCareAdvice(results: List, photo: File)</text><ellipse cx="33" cy="262.6903" fill="#84BE84" rx="3" ry="3" style="stroke:#038048;stroke-width:1.0;"/><text fill="#000000" font-family="sans-serif" font-size="14" lengthAdjust="spacing" textLength="111" x="42" y="266.037">requestHistory()</text><ellipse cx="33" cy="278.9872" fill="#84BE84" rx="3" ry="3" style="stroke:#038048;stroke-width:1.0;"/><text fill="#000000" font-family="sans-serif" font-size="14" lengthAdjust="spacing" textLength="209" x="42" y="282.3339">reanalyzeRecord(recordId: Int)</text><ellipse cx="33" cy="295.2841" fill="#84BE84" rx="3" ry="3" style="stroke:#038048;stroke-width:1.0;"/><text fill="#000000" font-family="sans-serif" font-size="14" lengthAdjust="spacing" textLength="187" x="42" y="298.6307">deleteRecord(recordId: Int)</text></g><!--class KaggleModel--><g id="elem_KaggleModel"><rect codeLine="84" fill="#F1F1F1" height="64.2969" id="KaggleModel" rx="2.5" ry="2.5" style="stroke:#181818;stroke-width:0.5;" width="236" x="741" y="235.1469"/><ellipse cx="810.25" cy="251.1469" fill="#ADD1B2" rx="11" ry="11" style="stroke:#181818;stroke-width:1.0;"/><path d="M813.2188,256.7875 Q812.6406,257.0844 812,257.225 Q811.3594,257.3813 810.6563,257.3813 Q808.1563,257.3813 806.8281,255.7406 Q805.5156,254.0844 805.5156,250.9594 Q805.5156,247.8344 806.8281,246.1781 Q808.1563,244.5219 810.6563,244.5219 Q811.3594,244.5219 812,244.6781 Q812.6563,244.8344 813.2188,245.1313 L813.2188,247.85 Q812.5938,247.2719 812,247.0063 Q811.4063,246.725 810.7813,246.725 Q809.4375,246.725 808.75,247.8031 Q808.0625,248.8656 808.0625,250.9594 Q808.0625,253.0531 808.75,254.1313 Q809.4375,255.1938 810.7813,255.1938 Q811.4063,255.1938 812,254.9281 Q812.5938,254.6469 813.2188,254.0688 L813.2188,256.7875 Z " fill="#000000"/><text fill="#000000" font-family="sans-serif" font-size="14" lengthAdjust="spacing" textLength="89" x="830.75" y="255.9936">KaggleModel</text><line style="stroke:#181818;stroke-width:0.5;" x1="742" x2="976" y1="267.1469" y2="267.1469"/><line style="stroke:#181818;stroke-width:0.5;" x1="742" x2="976" y1="275.1469" y2="275.1469"/><ellipse cx="752" cy="288.7953" fill="#84BE84" rx="3" ry="3" style="stroke:#038048;stroke-width:1.0;"/><text fill="#000000" font-family="sans-serif" font-size="14" lengthAdjust="spacing" textLength="210" x="761" y="292.142">analyzeAndPredict(photo: File)</text></g><!--class Database--><g id="elem_Database"><rect codeLine="87" fill="#F1F1F1" height="96.8906" id="Database" rx="2.5" ry="2.5" style="stroke:#181818;stroke-width:0.5;" width="339" x="689.5" y="102.8469"/><ellipse cx="821.75" cy="118.8469" fill="#ADD1B2" rx="11" ry="11" style="stroke:#181818;stroke-width:1.0;"/><path d="M824.7188,124.4875 Q824.1406,124.7844 823.5,124.925 Q822.8594,125.0812 822.1563,125.0812 Q819.6563,125.0812 818.3281,123.4406 Q817.0156,121.7844 817.0156,118.6594 Q817.0156,115.5344 818.3281,113.8781 Q819.6563,112.2219 822.1563,112.2219 Q822.8594,112.2219 823.5,112.3781 Q824.1563,112.5344 824.7188,112.8312 L824.7188,115.55 Q824.0938,114.9719 823.5,114.7062 Q822.9063,114.425 822.2813,114.425 Q820.9375,114.425 820.25,115.5031 Q819.5625,116.5656 819.5625,118.6594 Q819.5625,120.7531 820.25,121.8312 Q820.9375,122.8937 822.2813,122.8937 Q822.9063,122.8937 823.5,122.6281 Q824.0938,122.3469 824.7188,121.7687 L824.7188,124.4875 Z " fill="#000000"/><text fill="#000000" font-family="sans-serif" font-size="14" lengthAdjust="spacing" textLength="66" x="842.25" y="123.6936">Database</text><line style="stroke:#181818;stroke-width:0.5;" x1="690.5" x2="1027.5" y1="134.8469" y2="134.8469"/><line style="stroke:#181818;stroke-width:0.5;" x1="690.5" x2="1027.5" y1="142.8469" y2="142.8469"/><ellipse cx="700.5" cy="156.4953" fill="#84BE84" rx="3" ry="3" style="stroke:#038048;stroke-width:1.0;"/><text fill="#000000" font-family="sans-serif" font-size="14" lengthAdjust="spacing" textLength="92" x="709.5" y="159.842">fetchHistory()</text><ellipse cx="700.5" cy="172.7922" fill="#84BE84" rx="3" ry="3" style="stroke:#038048;stroke-width:1.0;"/><text fill="#000000" font-family="sans-serif" font-size="14" lengthAdjust="spacing" textLength="313" x="709.5" y="176.1389">updateRecord(recordId: Int, newResults: List)</text><ellipse cx="700.5" cy="189.0891" fill="#84BE84" rx="3" ry="3" style="stroke:#038048;stroke-width:1.0;"/><text fill="#000000" font-family="sans-serif" font-size="14" lengthAdjust="spacing" textLength="195" x="709.5" y="192.4357">removeRecord(recordId: Int)</text></g><!--link Controller to KaggleModel--><g id="link_Controller_KaggleModel"><path codeLine="95" d="M499.4,222.2069 C582.36,232.6369 665.8668,243.1386 734.6868,251.7886 " fill="none" id="Controller-to-KaggleModel" style="stroke:#181818;stroke-width:1.0;stroke-dasharray:7.0,7.0;"/><polygon fill="#181818" points="740.64,252.5369,732.2091,247.4457,735.679,251.9133,731.2114,255.3833,740.64,252.5369" style="stroke:#181818;stroke-width:1.0;"/><text fill="#000000" font-family="sans-serif" font-size="13" lengthAdjust="spacing" textLength="39" x="541.5" y="224.3638">&#171;use&#187;</text></g><!--link Controller to Database--><g id="link_Controller_Database"><path codeLine="96" d="M499.4,175.9469 C562.87,171.5869 624.1741,167.3683 683.1041,163.3183 " fill="none" id="Controller-to-Database" style="stroke:#181818;stroke-width:1.0;stroke-dasharray:7.0,7.0;"/><polygon fill="#181818" points="689.09,162.9069,679.8369,159.5334,684.1018,163.2497,680.3854,167.5145,689.09,162.9069" style="stroke:#181818;stroke-width:1.0;"/><text fill="#000000" font-family="sans-serif" font-size="13" lengthAdjust="spacing" textLength="39" x="541.5" y="167.3638">&#171;use&#187;</text></g><!--link MainScreen to RegistrationScreen--><g id="link_MainScreen_RegistrationScreen"><path codeLine="100" d="M357.27,816.6469 C429.4,856.7869 531.23,911.7869 623,955.2969 C634.68,960.8369 641.2855,963.9314 653.5255,969.4214 " fill="none" id="MainScreen-to-RegistrationScreen" style="stroke:#181818;stroke-width:1.0;"/><polygon fill="#181818" points="659,971.8769,652.4252,964.5439,654.4379,969.8306,649.1512,971.8433,659,971.8769" style="stroke:#181818;stroke-width:1.0;"/><text fill="#000000" font-family="sans-serif" font-size="13" lengthAdjust="spacing" textLength="62" x="530" y="907.3638">navigates</text></g><!--link MainScreen to LoginScreen--><g id="link_MainScreen_LoginScreen"><path codeLine="101" d="M357.34,777.3969 C437.86,790.0869 549.7232,807.7124 650.8232,823.6524 " fill="none" id="MainScreen-to-LoginScreen" style="stroke:#181818;stroke-width:1.0;"/><polygon fill="#181818" points="656.75,824.5869,648.4828,819.234,651.811,823.8082,647.2369,827.1364,656.75,824.5869" style="stroke:#181818;stroke-width:1.0;"/><text fill="#000000" font-family="sans-serif" font-size="13" lengthAdjust="spacing" textLength="62" x="530" y="803.3638">navigates</text></g><!--link MainScreen to UploadScreen--><g id="link_MainScreen_UploadScreen"><path codeLine="102" d="M357.34,747.0369 C463.05,730.1969 627.0847,704.0705 739.1747,686.2205 " fill="none" id="MainScreen-to-UploadScreen" style="stroke:#181818;stroke-width:1.0;"/><polygon fill="#181818" points="745.1,685.2769,735.5829,682.742,740.1622,686.0632,736.8411,690.6425,745.1,685.2769" style="stroke:#181818;stroke-width:1.0;"/><text fill="#000000" font-family="sans-serif" font-size="13" lengthAdjust="spacing" textLength="62" x="530" y="708.3638">navigates</text></g><!--link UploadScreen to ResultDisplayScreen--><g id="link_UploadScreen_ResultDisplayScreen"><path codeLine="103" d="M972.75,667.2969 C1057.15,667.2969 1165.83,667.2969 1248.65,667.2969 " fill="none" id="UploadScreen-to-ResultDisplayScreen" style="stroke:#181818;stroke-width:1.0;"/><polygon fill="#181818" points="1254.65,667.2969,1245.65,663.2969,1249.65,667.2969,1245.65,671.2969,1254.65,667.2969" style="stroke:#181818;stroke-width:1.0;"/><text fill="#000000" font-family="sans-serif" font-size="13" lengthAdjust="spacing" textLength="98" x="1126" y="663.3638">uploads lead to</text></g><!--link ResultDisplayScreen to AdviceDisplayScreen--><g id="link_ResultDisplayScreen_AdviceDisplayScreen"><path codeLine="104" d="M1469.34,676.9769 C1516.57,681.2769 1566.5347,685.8226 1615.8247,690.3126 " fill="none" id="ResultDisplayScreen-to-AdviceDisplayScreen" style="stroke:#181818;stroke-width:1.0;"/><polygon fill="#181818" points="1621.8,690.8569,1613.2,686.0569,1616.8206,690.4033,1612.4742,694.0239,1621.8,690.8569" style="stroke:#181818;stroke-width:1.0;"/><text fill="#000000" font-family="sans-serif" font-size="13" lengthAdjust="spacing" textLength="91" x="1500" y="677.3638">results lead to</text></g><!--link MainScreen to HistoryRecordScreen--><g id="link_MainScreen_HistoryRecordScreen"><path codeLine="105" d="M357.18,711.8169 C429.71,673.9269 532.07,621.2369 623,577.2969 C648.43,565.0069 670.1198,554.7959 696.5998,542.6059 " fill="none" id="MainScreen-to-HistoryRecordScreen" style="stroke:#181818;stroke-width:1.0;"/><polygon fill="#181818" points="702.05,540.0969,692.202,540.2269,697.5081,542.1877,695.5473,547.4939,702.05,540.0969" style="stroke:#181818;stroke-width:1.0;"/><text fill="#000000" font-family="sans-serif" font-size="13" lengthAdjust="spacing" textLength="62" x="530" y="593.3638">navigates</text></g><!--link ResultDisplayScreen to ShareScreen--><g id="link_ResultDisplayScreen_ShareScreen"><path codeLine="106" d="M1469.34,638.2569 C1517.13,625.2069 1568.0422,611.3083 1617.7422,597.7283 " fill="none" id="ResultDisplayScreen-to-ShareScreen" style="stroke:#181818;stroke-width:1.0;"/><polygon fill="#181818" points="1623.53,596.1469,1613.7939,594.6605,1618.7068,597.4648,1615.9026,602.3776,1623.53,596.1469" style="stroke:#181818;stroke-width:1.0;"/><text fill="#000000" font-family="sans-serif" font-size="13" lengthAdjust="spacing" textLength="64" x="1513.5" y="602.3638">options to</text></g><!--SRC=[hLRDSjCm4BxxANQur0o51_1qEXDI2XbQw3IKksflR4qLoKXoGc5uTrQIWvLQJaiXXoZH_kZRJxkhjTmAX5dR2buoovM4kM36m1bdjMPhs7BRmCq2vchTAedIcYmJkB9W5MXUDnOghh5qbjcHkUEoPSwiPUKTgt5fxycxasT7hBHAmur13Sn0HskMzMhmOYuu-OObh_05_Co0FgN7SScuN9OQKVRRxlFAe22VDwrGh3f7PZkD-Sk7uW_Sq8dt2Rba6rupYr_Ku3wMVmfonyRRpbebpI3htS6Yt6t_Yk1UOqsdQc-RWDseBMcSAxsEZoFIEalx2xbIkID6iZKMiBIQo_gOk3HcgtGrxE2QSR7x6yVTtQxvV_5KSTCATZzNSiNrseUJZyNlj5OwH_TzQUg4cuMB3CuvYYgYSEbXzjIEABnGDP_WpekIxCqrLfH0d0dpXBX7b3tRl2SYdKR_nf8FTegaaFffblgoID5qrIYhyb7uORjrtmNX4FYC8BmFMFhAKthO3sYcuhX6qmbx5iwOAXYdOd8TrW8kgCB601zJ2tBuWj_jiFbUixOPL_6isl0I3wAQCur1BMT-EL14Jr0DyW5TZARlOzTOKWvEzSBfPjUZw1No9goEdH57mLKuY8XqouAoVY7tbFoTEDaPMkeUPbApR9GoEFEFGyxyCXJLb54FzwQjg45NEzHx5-aCFVHXCq21hnot8_wM3Lr0-XQzw7Fha9byXFnACBjoPTJsFn8Nvpr0xsBOxXldVjh_YXwy9UeDlOJZ1uyihLP2a302ks62EqB-Hsyd9iZJh2nL9-q_UTgXUdRxf153MaA2PcouTnrOtla6GrLCmZ9SMBfXCSd4_G-SoUgAO97kX9x6RnrvYwfphtKGxgHPZHArY_alxVhZ4WbDrn4WFr9u5LMdFQ0Kv_n7LjS2BnNPn6dq16vYBsVCibjcC7QnGbisYIYwDkJd6DqnIDnryL7BqRXMcuD1KTKSaPMasRA6g6o0oGgYkH7AOKIDYkZDczCzDWeuEQ5KEprzgFGds4633lxAJSS4TIlXXo3JyDR0BTgjwoR6DnNZaL29I5XrCkGcMVf9z_NhqtY4BTokoQ8Tfv0O6WlOpQWZxNW-Eg2sDo74Udk2SFpu3IwWyse61DBhRLMMqdBMgRUoWBua_bW_09TwqcACKuV5hRm05Rek-VyD]--></g></svg>