<?xml version="1.0" encoding="us-ascii" standalone="no"?><svg xmlns="http://www.w3.org/2000/svg" xmlns:xlink="http://www.w3.org/1999/xlink" contentStyleType="text/css" height="517px" preserveAspectRatio="none" style="width:920px;height:517px;background:#F9F9F9;" version="1.1" viewBox="0 0 920 517" width="920px" zoomAndPan="magnify"><defs/><g><rect fill="#F9F9F9" height="517" style="stroke:none;stroke-width:1.0;" width="920" x="0" y="0"/><rect fill="#FFFFFF" height="29.1328" style="stroke:#393939;stroke-width:1.0;" width="10" x="36" y="125.6953"/><rect fill="#FFFFFF" height="405.3984" style="stroke:#393939;stroke-width:1.0;" width="10" x="133" y="67.4297"/><rect fill="#FFFFFF" height="316.1328" style="stroke:#393939;stroke-width:1.0;" width="10" x="332" y="96.5625"/><rect fill="#FFFFFF" height="228.7344" style="stroke:#393939;stroke-width:1.0;" width="10" x="630" y="183.9609"/><rect fill="#FFFFFF" height="29.1328" style="stroke:#393939;stroke-width:1.0;" width="10" x="815" y="237.2266"/><rect fill="#FFFFFF" height="30" style="stroke:#393939;stroke-width:1.0;" width="10" x="881" y="433.8281"/><rect fill="none" height="206.7344" rx="3.5" ry="3.5" style="stroke:#393939;stroke-width:1.0;" width="848" x="10" y="198.9609"/><line style="stroke:#393939;stroke-width:0.5;stroke-dasharray:5.0,5.0;" x1="41" x2="41" y1="36.2969" y2="481.8281"/><line style="stroke:#393939;stroke-width:0.5;stroke-dasharray:5.0,5.0;" x1="138" x2="138" y1="36.2969" y2="481.8281"/><line style="stroke:#393939;stroke-width:0.5;stroke-dasharray:5.0,5.0;" x1="337" x2="337" y1="36.2969" y2="481.8281"/><line style="stroke:#393939;stroke-width:0.5;stroke-dasharray:5.0,5.0;" x1="635" x2="635" y1="36.2969" y2="481.8281"/><line style="stroke:#393939;stroke-width:0.5;stroke-dasharray:5.0,5.0;" x1="820" x2="820" y1="36.2969" y2="481.8281"/><line style="stroke:#393939;stroke-width:0.5;stroke-dasharray:5.0,5.0;" x1="886" x2="886" y1="36.2969" y2="481.8281"/><rect fill="#E55756" height="30.2969" rx="3.5" ry="3.5" style="stroke:#191919;stroke-width:1.5;" width="42" x="20" y="5"/><text fill="#F9F9F9" font-family="sans-serif" font-size="14" lengthAdjust="spacing" textLength="28" x="27" y="24.9951">&#29992;&#25143;</text><rect fill="#E55756" height="30.2969" rx="3.5" ry="3.5" style="stroke:#191919;stroke-width:1.5;" width="42" x="20" y="480.8281"/><text fill="#F9F9F9" font-family="sans-serif" font-size="14" lengthAdjust="spacing" textLength="28" x="27" y="500.8232">&#29992;&#25143;</text><rect fill="#E55756" height="30.2969" rx="3.5" ry="3.5" style="stroke:#191919;stroke-width:1.5;" width="70" x="103" y="5"/><text fill="#F9F9F9" font-family="sans-serif" font-size="14" lengthAdjust="spacing" textLength="56" x="110" y="24.9951">&#27426;&#36814;&#30028;&#38754;</text><rect fill="#E55756" height="30.2969" rx="3.5" ry="3.5" style="stroke:#191919;stroke-width:1.5;" width="70" x="103" y="480.8281"/><text fill="#F9F9F9" font-family="sans-serif" font-size="14" lengthAdjust="spacing" textLength="56" x="110" y="500.8232">&#27426;&#36814;&#30028;&#38754;</text><rect fill="#E55756" height="30.2969" rx="3.5" ry="3.5" style="stroke:#191919;stroke-width:1.5;" width="70" x="302" y="5"/><text fill="#F9F9F9" font-family="sans-serif" font-size="14" lengthAdjust="spacing" textLength="56" x="309" y="24.9951">&#30331;&#24405;&#30028;&#38754;</text><rect fill="#E55756" height="30.2969" rx="3.5" ry="3.5" style="stroke:#191919;stroke-width:1.5;" width="70" x="302" y="480.8281"/><text fill="#F9F9F9" font-family="sans-serif" font-size="14" lengthAdjust="spacing" textLength="56" x="309" y="500.8232">&#30331;&#24405;&#30028;&#38754;</text><rect fill="#E55756" height="30.2969" rx="3.5" ry="3.5" style="stroke:#191919;stroke-width:1.5;" width="56" x="607" y="5"/><text fill="#F9F9F9" font-family="sans-serif" font-size="14" lengthAdjust="spacing" textLength="42" x="614" y="24.9951">&#25511;&#21046;&#22120;</text><rect fill="#E55756" height="30.2969" rx="3.5" ry="3.5" style="stroke:#191919;stroke-width:1.5;" width="56" x="607" y="480.8281"/><text fill="#F9F9F9" font-family="sans-serif" font-size="14" lengthAdjust="spacing" textLength="42" x="614" y="500.8232">&#25511;&#21046;&#22120;</text><rect fill="#E55756" height="30.2969" rx="3.5" ry="3.5" style="stroke:#191919;stroke-width:1.5;" width="56" x="792" y="5"/><text fill="#F9F9F9" font-family="sans-serif" font-size="14" lengthAdjust="spacing" textLength="42" x="799" y="24.9951">&#26381;&#21153;&#31471;</text><rect fill="#E55756" height="30.2969" rx="3.5" ry="3.5" style="stroke:#191919;stroke-width:1.5;" width="56" x="792" y="480.8281"/><text fill="#F9F9F9" font-family="sans-serif" font-size="14" lengthAdjust="spacing" textLength="42" x="799" y="500.8232">&#26381;&#21153;&#31471;</text><rect fill="#E55756" height="30.2969" rx="3.5" ry="3.5" style="stroke:#191919;stroke-width:1.5;" width="56" x="858" y="5"/><text fill="#F9F9F9" font-family="sans-serif" font-size="14" lengthAdjust="spacing" textLength="42" x="865" y="24.9951">&#20027;&#30028;&#38754;</text><rect fill="#E55756" height="30.2969" rx="3.5" ry="3.5" style="stroke:#191919;stroke-width:1.5;" width="56" x="858" y="480.8281"/><text fill="#F9F9F9" font-family="sans-serif" font-size="14" lengthAdjust="spacing" textLength="42" x="865" y="500.8232">&#20027;&#30028;&#38754;</text><rect fill="#FFFFFF" height="29.1328" style="stroke:#393939;stroke-width:1.0;" width="10" x="36" y="125.6953"/><rect fill="#FFFFFF" height="405.3984" style="stroke:#393939;stroke-width:1.0;" width="10" x="133" y="67.4297"/><rect fill="#FFFFFF" height="316.1328" style="stroke:#393939;stroke-width:1.0;" width="10" x="332" y="96.5625"/><rect fill="#FFFFFF" height="228.7344" style="stroke:#393939;stroke-width:1.0;" width="10" x="630" y="183.9609"/><rect fill="#FFFFFF" height="29.1328" style="stroke:#393939;stroke-width:1.0;" width="10" x="815" y="237.2266"/><rect fill="#FFFFFF" height="30" style="stroke:#393939;stroke-width:1.0;" width="10" x="881" y="433.8281"/><polygon fill="#191919" points="121,63.4297,131,67.4297,121,71.4297,125,67.4297" style="stroke:#191919;stroke-width:1.0;"/><line style="stroke:#191919;stroke-width:1.0;" x1="41" x2="127" y1="67.4297" y2="67.4297"/><text fill="#000000" font-family="sans-serif" font-size="13" lengthAdjust="spacing" textLength="73" x="48" y="62.3638">ClickLogin()</text><polygon fill="#191919" points="320,92.5625,330,96.5625,320,100.5625,324,96.5625" style="stroke:#191919;stroke-width:1.0;"/><line style="stroke:#191919;stroke-width:1.0;" x1="143" x2="326" y1="96.5625" y2="96.5625"/><text fill="#000000" font-family="sans-serif" font-size="13" lengthAdjust="spacing" textLength="112" x="150" y="91.4966">ShowLoginForm()</text><polygon fill="#191919" points="57,121.6953,47,125.6953,57,129.6953,53,125.6953" style="stroke:#191919;stroke-width:1.0;"/><line style="stroke:#191919;stroke-width:1.0;" x1="51" x2="331" y1="125.6953" y2="125.6953"/><text fill="#000000" font-family="sans-serif" font-size="13" lengthAdjust="spacing" textLength="249" x="63" y="120.6294">InputCredentials(username, password)</text><polygon fill="#191919" points="320,150.8281,330,154.8281,320,158.8281,324,154.8281" style="stroke:#191919;stroke-width:1.0;"/><line style="stroke:#191919;stroke-width:1.0;" x1="41" x2="326" y1="154.8281" y2="154.8281"/><text fill="#000000" font-family="sans-serif" font-size="13" lengthAdjust="spacing" textLength="262" x="48" y="149.7622">SubmitCredentials(username, password)</text><polygon fill="#191919" points="618,179.9609,628,183.9609,618,187.9609,622,183.9609" style="stroke:#191919;stroke-width:1.0;"/><line style="stroke:#191919;stroke-width:1.0;" x1="342" x2="624" y1="183.9609" y2="183.9609"/><text fill="#000000" font-family="sans-serif" font-size="13" lengthAdjust="spacing" textLength="269" x="349" y="178.895">ValidateCredentials(username, password)</text><path d="M13.5,198.9609 L76,198.9609 L76,206.0938 L66,216.0938 L10,216.0938 L10,202.4609 A3.5,3.5 0 0 1 13.5,198.9609 " fill="#EEEEEE" style="stroke:#393939;stroke-width:1.5;"/><rect fill="none" height="206.7344" rx="3.5" ry="3.5" style="stroke:#393939;stroke-width:1.0;" width="848" x="10" y="198.9609"/><text fill="#191919" font-family="sans-serif" font-size="13" font-weight="bold" lengthAdjust="spacing" textLength="21" x="25" y="212.0278">alt</text><text fill="#393939" font-family="sans-serif" font-size="11" font-weight="bold" lengthAdjust="spacing" textLength="54" x="91" y="211.1714">[&#20973;&#35777;&#26377;&#25928;]</text><polygon fill="#191919" points="803,233.2266,813,237.2266,803,241.2266,807,237.2266" style="stroke:#191919;stroke-width:1.0;"/><line style="stroke:#191919;stroke-width:1.0;" x1="640" x2="809" y1="237.2266" y2="237.2266"/><text fill="#000000" font-family="sans-serif" font-size="13" lengthAdjust="spacing" textLength="156" x="647" y="232.1606">GrantAccess(username)</text><polygon fill="#191919" points="651,262.3594,641,266.3594,651,270.3594,647,266.3594" style="stroke:#191919;stroke-width:1.0;"/><line style="stroke:#191919;stroke-width:1.0;" x1="645" x2="819" y1="266.3594" y2="266.3594"/><text fill="#000000" font-family="sans-serif" font-size="13" lengthAdjust="spacing" textLength="107" x="657" y="261.2935">AccessGranted()</text><polygon fill="#191919" points="353,291.4922,343,295.4922,353,299.4922,349,295.4922" style="stroke:#191919;stroke-width:1.0;"/><line style="stroke:#191919;stroke-width:1.0;" x1="347" x2="629" y1="295.4922" y2="295.4922"/><text fill="#000000" font-family="sans-serif" font-size="13" lengthAdjust="spacing" textLength="118" x="359" y="290.4263">ShowMainScreen()</text><polygon fill="#191919" points="52,320.625,42,324.625,52,328.625,48,324.625" style="stroke:#191919;stroke-width:1.0;"/><line style="stroke:#191919;stroke-width:1.0;" x1="46" x2="331" y1="324.625" y2="324.625"/><text fill="#000000" font-family="sans-serif" font-size="13" lengthAdjust="spacing" textLength="130" x="58" y="319.5591">DisplayMainScreen()</text><line style="stroke:#393939;stroke-width:1.0;stroke-dasharray:2.0,2.0;" x1="10" x2="858" y1="333.625" y2="333.625"/><text fill="#393939" font-family="sans-serif" font-size="11" font-weight="bold" lengthAdjust="spacing" textLength="54" x="15" y="343.8354">[&#20973;&#35777;&#26080;&#25928;]</text><polygon fill="#191919" points="353,364.5625,343,368.5625,353,372.5625,349,368.5625" style="stroke:#191919;stroke-width:1.0;"/><line style="stroke:#191919;stroke-width:1.0;" x1="347" x2="629" y1="368.5625" y2="368.5625"/><text fill="#000000" font-family="sans-serif" font-size="13" lengthAdjust="spacing" textLength="138" x="359" y="363.4966">ShowError("&#20973;&#35777;&#26080;&#25928;")</text><polygon fill="#191919" points="52,393.6953,42,397.6953,52,401.6953,48,397.6953" style="stroke:#191919;stroke-width:1.0;"/><line style="stroke:#191919;stroke-width:1.0;" x1="46" x2="331" y1="397.6953" y2="397.6953"/><text fill="#000000" font-family="sans-serif" font-size="13" lengthAdjust="spacing" textLength="150" x="58" y="392.6294">DisplayError("&#20973;&#35777;&#26080;&#25928;")</text><polygon fill="#191919" points="869,429.8281,879,433.8281,869,437.8281,873,433.8281" style="stroke:#191919;stroke-width:1.0;"/><line style="stroke:#191919;stroke-width:1.0;" x1="41" x2="875" y1="433.8281" y2="433.8281"/><text fill="#000000" font-family="sans-serif" font-size="13" lengthAdjust="spacing" textLength="156" x="48" y="428.7622">NavigateToMainScreen()</text><!--SRC=[ZPFDIiD058NtUOgngnRq1ReGfFuWg9kA-p6vj8EJJ9YPjhXqPHNjoYA52jgD1PNkL2ZYovYaleNJj4rlqeBDSdBkTyx9dQpfAhX0N2gLvLEfcSrywcaItVN3vWUXYjGKoDIhNFZQ6tstelRDxqClDvOqWDl2XR8j0RoqDkeCWwysqd9HOTuoPTXw3fhlGQSVospXQIauN_3ktWRNJz7B85QPQFMiukTpYEnSchXPuoPaOpCTbnH9YJFxx62SAr-mgArPdMh8bBBIGuQ2YXX6kIeQCM9NI1TZS5yBpnX47AX8zZs_faiI7F0qerpbn-SUTM6T-5IfXf0E0iRxIBfaKjHENVOloe4CB1Dh_kqDyeHovXZfoldGvYpADGaktqQ3Yx1x5RQR5Z4FmXkpoGgDqPuqwzkoRL1pWq8yaA2dwuuFftFPk1D0p08dFvb7VJ4XdMDndOV9rPbobczlcocVq_EK6hY2MV7xn-N55mrtf1GodyDpkHMSbu-1vrXuqsWjw3HrEsTtQlxF69CZMcSL8pqMgOO90VrWY3i__GC0]--></g></svg>