<?xml version="1.0" encoding="us-ascii" standalone="no"?><svg xmlns="http://www.w3.org/2000/svg" xmlns:xlink="http://www.w3.org/1999/xlink" contentStyleType="text/css" height="1055px" preserveAspectRatio="none" style="width:1800px;height:1055px;background:#FFFFFF;" version="1.1" viewBox="0 0 1800 1055" width="1800px" zoomAndPan="magnify"><defs/><g><text fill="#000000" font-family="sans-serif" font-size="14" font-weight="bold" lengthAdjust="spacing" textLength="211" x="787.5" y="22.9951">&#24212;&#29992;&#24635;&#20307;&#31867;&#22270; - &#20989;&#25968;&#21450;&#23384;&#20648;&#20869;&#23481;</text><!--class ????--><g id="elem_&#27426;&#36814;&#30028;&#38754;"><rect codeLine="3" fill="#F1F1F1" height="48" id="&#27426;&#36814;&#30028;&#38754;" rx="2.5" ry="2.5" style="stroke:#181818;stroke-width:0.5;" width="88" x="479" y="68.7969"/><ellipse cx="494" cy="84.7969" fill="#ADD1B2" rx="11" ry="11" style="stroke:#181818;stroke-width:1.0;"/><path d="M496.3438,80.4688 C495.4063,80.0313 494.8125,79.8906 493.9375,79.8906 C491.3125,79.8906 489.3125,81.9688 489.3125,84.6875 L489.3125,85.8125 C489.3125,88.3906 491.4219,90.2813 494.3125,90.2813 C495.5313,90.2813 496.6875,89.9844 497.4375,89.4375 C498.0156,89.0313 498.3438,88.5781 498.3438,88.1875 C498.3438,87.7344 497.9531,87.3438 497.4844,87.3438 C497.2656,87.3438 497.0625,87.4219 496.875,87.6094 C496.4219,88.0938 496.4219,88.0938 496.2344,88.1875 C495.8125,88.4531 495.125,88.5781 494.3594,88.5781 C492.3125,88.5781 491.0156,87.4844 491.0156,85.7813 L491.0156,84.6875 C491.0156,82.9063 492.2656,81.5938 494,81.5938 C494.5781,81.5938 495.1875,81.75 495.6563,82 C496.1406,82.2813 496.3125,82.5 496.4063,82.9063 C496.4688,83.3125 496.5,83.4375 496.6406,83.5625 C496.7813,83.7031 497.0156,83.8125 497.2344,83.8125 C497.5,83.8125 497.7656,83.6719 497.9375,83.4531 C498.0469,83.2969 498.0781,83.1094 498.0781,82.6875 L498.0781,81.2656 C498.0781,80.8281 498.0625,80.7031 497.9688,80.5469 C497.8125,80.2813 497.5313,80.1406 497.2344,80.1406 C496.9375,80.1406 496.7344,80.2344 496.5156,80.5469 L496.3438,80.4688 Z " fill="#000000"/><text fill="#000000" font-family="sans-serif" font-size="14" lengthAdjust="spacing" textLength="56" x="508" y="89.6436">&#27426;&#36814;&#30028;&#38754;</text><line style="stroke:#181818;stroke-width:0.5;" x1="480" x2="566" y1="100.7969" y2="100.7969"/><line style="stroke:#181818;stroke-width:0.5;" x1="480" x2="566" y1="108.7969" y2="108.7969"/></g><!--class ????--><g id="elem_&#27880;&#20876;&#30028;&#38754;"><rect codeLine="6" fill="#F1F1F1" height="129.4844" id="&#27880;&#20876;&#30028;&#38754;" rx="2.5" ry="2.5" style="stroke:#181818;stroke-width:0.5;" width="336" x="264" y="226.7969"/><ellipse cx="399.75" cy="242.7969" fill="#ADD1B2" rx="11" ry="11" style="stroke:#181818;stroke-width:1.0;"/><path d="M402.0938,238.4688 C401.1563,238.0313 400.5625,237.8906 399.6875,237.8906 C397.0625,237.8906 395.0625,239.9688 395.0625,242.6875 L395.0625,243.8125 C395.0625,246.3906 397.1719,248.2813 400.0625,248.2813 C401.2813,248.2813 402.4375,247.9844 403.1875,247.4375 C403.7656,247.0313 404.0938,246.5781 404.0938,246.1875 C404.0938,245.7344 403.7031,245.3438 403.2344,245.3438 C403.0156,245.3438 402.8125,245.4219 402.625,245.6094 C402.1719,246.0938 402.1719,246.0938 401.9844,246.1875 C401.5625,246.4531 400.875,246.5781 400.1094,246.5781 C398.0625,246.5781 396.7656,245.4844 396.7656,243.7813 L396.7656,242.6875 C396.7656,240.9063 398.0156,239.5938 399.75,239.5938 C400.3281,239.5938 400.9375,239.75 401.4063,240 C401.8906,240.2813 402.0625,240.5 402.1563,240.9063 C402.2188,241.3125 402.25,241.4375 402.3906,241.5625 C402.5313,241.7031 402.7656,241.8125 402.9844,241.8125 C403.25,241.8125 403.5156,241.6719 403.6875,241.4531 C403.7969,241.2969 403.8281,241.1094 403.8281,240.6875 L403.8281,239.2656 C403.8281,238.8281 403.8125,238.7031 403.7188,238.5469 C403.5625,238.2813 403.2813,238.1406 402.9844,238.1406 C402.6875,238.1406 402.4844,238.2344 402.2656,238.5469 L402.0938,238.4688 Z " fill="#000000"/><text fill="#000000" font-family="sans-serif" font-size="14" lengthAdjust="spacing" textLength="56" x="420.25" y="247.6436">&#27880;&#20876;&#30028;&#38754;</text><line style="stroke:#181818;stroke-width:0.5;" x1="265" x2="599" y1="258.7969" y2="258.7969"/><line style="stroke:#181818;stroke-width:0.5;" x1="265" x2="599" y1="266.7969" y2="266.7969"/><ellipse cx="275" cy="280.4453" fill="#84BE84" rx="3" ry="3" style="stroke:#038048;stroke-width:1.0;"/><text fill="#000000" font-family="sans-serif" font-size="14" lengthAdjust="spacing" textLength="113" x="284" y="283.792">ShowRegForm()</text><ellipse cx="275" cy="296.7422" fill="#84BE84" rx="3" ry="3" style="stroke:#038048;stroke-width:1.0;"/><text fill="#000000" font-family="sans-serif" font-size="14" lengthAdjust="spacing" textLength="296" x="284" y="300.0889">InputRegInfo(username, password, email)</text><ellipse cx="275" cy="313.0391" fill="#84BE84" rx="3" ry="3" style="stroke:#038048;stroke-width:1.0;"/><text fill="#000000" font-family="sans-serif" font-size="14" lengthAdjust="spacing" textLength="310" x="284" y="316.3857">SubmitRegInfo(username, password, email)</text><ellipse cx="275" cy="329.3359" fill="#84BE84" rx="3" ry="3" style="stroke:#038048;stroke-width:1.0;"/><text fill="#000000" font-family="sans-serif" font-size="14" lengthAdjust="spacing" textLength="157" x="284" y="332.6826">DisplayConfirmation()</text><ellipse cx="275" cy="345.6328" fill="#84BE84" rx="3" ry="3" style="stroke:#038048;stroke-width:1.0;"/><text fill="#000000" font-family="sans-serif" font-size="14" lengthAdjust="spacing" textLength="215" x="284" y="348.9795">DisplayError(errorMsg: String)</text></g><!--class ????--><g id="elem_&#30331;&#24405;&#30028;&#38754;"><rect codeLine="14" fill="#F1F1F1" height="129.4844" id="&#30331;&#24405;&#30028;&#38754;" rx="2.5" ry="2.5" style="stroke:#181818;stroke-width:0.5;" width="315" x="635.5" y="226.7969"/><ellipse cx="760.75" cy="242.7969" fill="#ADD1B2" rx="11" ry="11" style="stroke:#181818;stroke-width:1.0;"/><path d="M763.0938,238.4688 C762.1563,238.0313 761.5625,237.8906 760.6875,237.8906 C758.0625,237.8906 756.0625,239.9688 756.0625,242.6875 L756.0625,243.8125 C756.0625,246.3906 758.1719,248.2813 761.0625,248.2813 C762.2813,248.2813 763.4375,247.9844 764.1875,247.4375 C764.7656,247.0313 765.0938,246.5781 765.0938,246.1875 C765.0938,245.7344 764.7031,245.3438 764.2344,245.3438 C764.0156,245.3438 763.8125,245.4219 763.625,245.6094 C763.1719,246.0938 763.1719,246.0938 762.9844,246.1875 C762.5625,246.4531 761.875,246.5781 761.1094,246.5781 C759.0625,246.5781 757.7656,245.4844 757.7656,243.7813 L757.7656,242.6875 C757.7656,240.9063 759.0156,239.5938 760.75,239.5938 C761.3281,239.5938 761.9375,239.75 762.4063,240 C762.8906,240.2813 763.0625,240.5 763.1563,240.9063 C763.2188,241.3125 763.25,241.4375 763.3906,241.5625 C763.5313,241.7031 763.7656,241.8125 763.9844,241.8125 C764.25,241.8125 764.5156,241.6719 764.6875,241.4531 C764.7969,241.2969 764.8281,241.1094 764.8281,240.6875 L764.8281,239.2656 C764.8281,238.8281 764.8125,238.7031 764.7188,238.5469 C764.5625,238.2813 764.2813,238.1406 763.9844,238.1406 C763.6875,238.1406 763.4844,238.2344 763.2656,238.5469 L763.0938,238.4688 Z " fill="#000000"/><text fill="#000000" font-family="sans-serif" font-size="14" lengthAdjust="spacing" textLength="56" x="781.25" y="247.6436">&#30331;&#24405;&#30028;&#38754;</text><line style="stroke:#181818;stroke-width:0.5;" x1="636.5" x2="949.5" y1="258.7969" y2="258.7969"/><line style="stroke:#181818;stroke-width:0.5;" x1="636.5" x2="949.5" y1="266.7969" y2="266.7969"/><ellipse cx="646.5" cy="280.4453" fill="#84BE84" rx="3" ry="3" style="stroke:#038048;stroke-width:1.0;"/><text fill="#000000" font-family="sans-serif" font-size="14" lengthAdjust="spacing" textLength="124" x="655.5" y="283.792">ShowLoginForm()</text><ellipse cx="646.5" cy="296.7422" fill="#84BE84" rx="3" ry="3" style="stroke:#038048;stroke-width:1.0;"/><text fill="#000000" font-family="sans-serif" font-size="14" lengthAdjust="spacing" textLength="275" x="655.5" y="300.0889">InputCredentials(username, password)</text><ellipse cx="646.5" cy="313.0391" fill="#84BE84" rx="3" ry="3" style="stroke:#038048;stroke-width:1.0;"/><text fill="#000000" font-family="sans-serif" font-size="14" lengthAdjust="spacing" textLength="289" x="655.5" y="316.3857">SubmitCredentials(username, password)</text><ellipse cx="646.5" cy="329.3359" fill="#84BE84" rx="3" ry="3" style="stroke:#038048;stroke-width:1.0;"/><text fill="#000000" font-family="sans-serif" font-size="14" lengthAdjust="spacing" textLength="145" x="655.5" y="332.6826">DisplayMainScreen()</text><ellipse cx="646.5" cy="345.6328" fill="#84BE84" rx="3" ry="3" style="stroke:#038048;stroke-width:1.0;"/><text fill="#000000" font-family="sans-serif" font-size="14" lengthAdjust="spacing" textLength="215" x="655.5" y="348.9795">DisplayError(errorMsg: String)</text></g><!--class ???--><g id="elem_&#20027;&#30028;&#38754;"><rect codeLine="22" fill="#F1F1F1" height="96.8906" id="&#20027;&#30028;&#38754;" rx="2.5" ry="2.5" style="stroke:#181818;stroke-width:0.5;" width="200" x="1146" y="44.2969"/><ellipse cx="1220.75" cy="60.2969" fill="#ADD1B2" rx="11" ry="11" style="stroke:#181818;stroke-width:1.0;"/><path d="M1223.0938,55.9688 C1222.1563,55.5313 1221.5625,55.3906 1220.6875,55.3906 C1218.0625,55.3906 1216.0625,57.4688 1216.0625,60.1875 L1216.0625,61.3125 C1216.0625,63.8906 1218.1719,65.7813 1221.0625,65.7813 C1222.2813,65.7813 1223.4375,65.4844 1224.1875,64.9375 C1224.7656,64.5313 1225.0938,64.0781 1225.0938,63.6875 C1225.0938,63.2344 1224.7031,62.8438 1224.2344,62.8438 C1224.0156,62.8438 1223.8125,62.9219 1223.625,63.1094 C1223.1719,63.5938 1223.1719,63.5938 1222.9844,63.6875 C1222.5625,63.9531 1221.875,64.0781 1221.1094,64.0781 C1219.0625,64.0781 1217.7656,62.9844 1217.7656,61.2813 L1217.7656,60.1875 C1217.7656,58.4063 1219.0156,57.0938 1220.75,57.0938 C1221.3281,57.0938 1221.9375,57.25 1222.4063,57.5 C1222.8906,57.7813 1223.0625,58 1223.1563,58.4063 C1223.2188,58.8125 1223.25,58.9375 1223.3906,59.0625 C1223.5313,59.2031 1223.7656,59.3125 1223.9844,59.3125 C1224.25,59.3125 1224.5156,59.1719 1224.6875,58.9531 C1224.7969,58.7969 1224.8281,58.6094 1224.8281,58.1875 L1224.8281,56.7656 C1224.8281,56.3281 1224.8125,56.2031 1224.7188,56.0469 C1224.5625,55.7813 1224.2813,55.6406 1223.9844,55.6406 C1223.6875,55.6406 1223.4844,55.7344 1223.2656,56.0469 L1223.0938,55.9688 Z " fill="#000000"/><text fill="#000000" font-family="sans-serif" font-size="14" lengthAdjust="spacing" textLength="42" x="1241.25" y="65.1436">&#20027;&#30028;&#38754;</text><line style="stroke:#181818;stroke-width:0.5;" x1="1147" x2="1345" y1="76.2969" y2="76.2969"/><line style="stroke:#181818;stroke-width:0.5;" x1="1147" x2="1345" y1="84.2969" y2="84.2969"/><ellipse cx="1157" cy="97.9453" fill="#84BE84" rx="3" ry="3" style="stroke:#038048;stroke-width:1.0;"/><text fill="#000000" font-family="sans-serif" font-size="14" lengthAdjust="spacing" textLength="160" x="1166" y="101.292">SelectUploadFeature()</text><ellipse cx="1157" cy="114.2422" fill="#84BE84" rx="3" ry="3" style="stroke:#038048;stroke-width:1.0;"/><text fill="#000000" font-family="sans-serif" font-size="14" lengthAdjust="spacing" textLength="162" x="1166" y="117.5889">SelectHistoryFeature()</text><ellipse cx="1157" cy="130.5391" fill="#84BE84" rx="3" ry="3" style="stroke:#038048;stroke-width:1.0;"/><text fill="#000000" font-family="sans-serif" font-size="14" lengthAdjust="spacing" textLength="174" x="1166" y="133.8857">NavigateToMainScreen()</text></g><!--class ????--><g id="elem_&#19978;&#20256;&#30028;&#38754;"><rect codeLine="28" fill="#F1F1F1" height="113.1875" id="&#19978;&#20256;&#30028;&#38754;" rx="2.5" ry="2.5" style="stroke:#181818;stroke-width:0.5;" width="241" x="985.5" y="234.7969"/><ellipse cx="1073.75" cy="250.7969" fill="#ADD1B2" rx="11" ry="11" style="stroke:#181818;stroke-width:1.0;"/><path d="M1076.0938,246.4688 C1075.1563,246.0313 1074.5625,245.8906 1073.6875,245.8906 C1071.0625,245.8906 1069.0625,247.9688 1069.0625,250.6875 L1069.0625,251.8125 C1069.0625,254.3906 1071.1719,256.2813 1074.0625,256.2813 C1075.2813,256.2813 1076.4375,255.9844 1077.1875,255.4375 C1077.7656,255.0313 1078.0938,254.5781 1078.0938,254.1875 C1078.0938,253.7344 1077.7031,253.3438 1077.2344,253.3438 C1077.0156,253.3438 1076.8125,253.4219 1076.625,253.6094 C1076.1719,254.0938 1076.1719,254.0938 1075.9844,254.1875 C1075.5625,254.4531 1074.875,254.5781 1074.1094,254.5781 C1072.0625,254.5781 1070.7656,253.4844 1070.7656,251.7813 L1070.7656,250.6875 C1070.7656,248.9063 1072.0156,247.5938 1073.75,247.5938 C1074.3281,247.5938 1074.9375,247.75 1075.4063,248 C1075.8906,248.2813 1076.0625,248.5 1076.1563,248.9063 C1076.2188,249.3125 1076.25,249.4375 1076.3906,249.5625 C1076.5313,249.7031 1076.7656,249.8125 1076.9844,249.8125 C1077.25,249.8125 1077.5156,249.6719 1077.6875,249.4531 C1077.7969,249.2969 1077.8281,249.1094 1077.8281,248.6875 L1077.8281,247.2656 C1077.8281,246.8281 1077.8125,246.7031 1077.7188,246.5469 C1077.5625,246.2813 1077.2813,246.1406 1076.9844,246.1406 C1076.6875,246.1406 1076.4844,246.2344 1076.2656,246.5469 L1076.0938,246.4688 Z " fill="#000000"/><text fill="#000000" font-family="sans-serif" font-size="14" lengthAdjust="spacing" textLength="56" x="1094.25" y="255.6436">&#19978;&#20256;&#30028;&#38754;</text><line style="stroke:#181818;stroke-width:0.5;" x1="986.5" x2="1225.5" y1="266.7969" y2="266.7969"/><line style="stroke:#181818;stroke-width:0.5;" x1="986.5" x2="1225.5" y1="274.7969" y2="274.7969"/><ellipse cx="996.5" cy="288.4453" fill="#84BE84" rx="3" ry="3" style="stroke:#038048;stroke-width:1.0;"/><text fill="#000000" font-family="sans-serif" font-size="14" lengthAdjust="spacing" textLength="134" x="1005.5" y="291.792">ShowUploadForm()</text><ellipse cx="996.5" cy="304.7422" fill="#84BE84" rx="3" ry="3" style="stroke:#038048;stroke-width:1.0;"/><text fill="#000000" font-family="sans-serif" font-size="14" lengthAdjust="spacing" textLength="91" x="1005.5" y="308.0889">InputPhoto()</text><ellipse cx="996.5" cy="321.0391" fill="#84BE84" rx="3" ry="3" style="stroke:#038048;stroke-width:1.0;"/><text fill="#000000" font-family="sans-serif" font-size="14" lengthAdjust="spacing" textLength="149" x="1005.5" y="324.3857">SubmitPhoto(photo)</text><ellipse cx="996.5" cy="337.3359" fill="#84BE84" rx="3" ry="3" style="stroke:#038048;stroke-width:1.0;"/><text fill="#000000" font-family="sans-serif" font-size="14" lengthAdjust="spacing" textLength="215" x="1005.5" y="340.6826">DisplayError(errorMsg: String)</text></g><!--class ??????--><g id="elem_&#32467;&#26524;&#23637;&#31034;&#30028;&#38754;"><rect codeLine="35" fill="#F1F1F1" height="80.5938" id="&#32467;&#26524;&#23637;&#31034;&#30028;&#38754;" rx="2.5" ry="2.5" style="stroke:#181818;stroke-width:0.5;" width="188" x="1506" y="514.2969"/><ellipse cx="1553.75" cy="530.2969" fill="#ADD1B2" rx="11" ry="11" style="stroke:#181818;stroke-width:1.0;"/><path d="M1556.0938,525.9688 C1555.1563,525.5313 1554.5625,525.3906 1553.6875,525.3906 C1551.0625,525.3906 1549.0625,527.4688 1549.0625,530.1875 L1549.0625,531.3125 C1549.0625,533.8906 1551.1719,535.7813 1554.0625,535.7813 C1555.2813,535.7813 1556.4375,535.4844 1557.1875,534.9375 C1557.7656,534.5313 1558.0938,534.0781 1558.0938,533.6875 C1558.0938,533.2344 1557.7031,532.8438 1557.2344,532.8438 C1557.0156,532.8438 1556.8125,532.9219 1556.625,533.1094 C1556.1719,533.5938 1556.1719,533.5938 1555.9844,533.6875 C1555.5625,533.9531 1554.875,534.0781 1554.1094,534.0781 C1552.0625,534.0781 1550.7656,532.9844 1550.7656,531.2813 L1550.7656,530.1875 C1550.7656,528.4063 1552.0156,527.0938 1553.75,527.0938 C1554.3281,527.0938 1554.9375,527.25 1555.4063,527.5 C1555.8906,527.7813 1556.0625,528 1556.1563,528.4063 C1556.2188,528.8125 1556.25,528.9375 1556.3906,529.0625 C1556.5313,529.2031 1556.7656,529.3125 1556.9844,529.3125 C1557.25,529.3125 1557.5156,529.1719 1557.6875,528.9531 C1557.7969,528.7969 1557.8281,528.6094 1557.8281,528.1875 L1557.8281,526.7656 C1557.8281,526.3281 1557.8125,526.2031 1557.7188,526.0469 C1557.5625,525.7813 1557.2813,525.6406 1556.9844,525.6406 C1556.6875,525.6406 1556.4844,525.7344 1556.2656,526.0469 L1556.0938,525.9688 Z " fill="#000000"/><text fill="#000000" font-family="sans-serif" font-size="14" lengthAdjust="spacing" textLength="84" x="1574.25" y="535.1436">&#32467;&#26524;&#23637;&#31034;&#30028;&#38754;</text><line style="stroke:#181818;stroke-width:0.5;" x1="1507" x2="1693" y1="546.2969" y2="546.2969"/><line style="stroke:#181818;stroke-width:0.5;" x1="1507" x2="1693" y1="554.2969" y2="554.2969"/><ellipse cx="1517" cy="567.9453" fill="#84BE84" rx="3" ry="3" style="stroke:#038048;stroke-width:1.0;"/><text fill="#000000" font-family="sans-serif" font-size="14" lengthAdjust="spacing" textLength="148" x="1526" y="571.292">ShowResults(results)</text><ellipse cx="1517" cy="584.2422" fill="#84BE84" rx="3" ry="3" style="stroke:#038048;stroke-width:1.0;"/><text fill="#000000" font-family="sans-serif" font-size="14" lengthAdjust="spacing" textLength="162" x="1526" y="587.5889">DisplayResults(results)</text></g><!--class ??????--><g id="elem_&#24314;&#35758;&#23637;&#31034;&#30028;&#38754;"><rect codeLine="40" fill="#F1F1F1" height="80.5938" id="&#24314;&#35758;&#23637;&#31034;&#30028;&#38754;" rx="2.5" ry="2.5" style="stroke:#181818;stroke-width:0.5;" width="215" x="1507.5" y="761.2969"/><ellipse cx="1568.75" cy="777.2969" fill="#ADD1B2" rx="11" ry="11" style="stroke:#181818;stroke-width:1.0;"/><path d="M1571.0938,772.9688 C1570.1563,772.5313 1569.5625,772.3906 1568.6875,772.3906 C1566.0625,772.3906 1564.0625,774.4688 1564.0625,777.1875 L1564.0625,778.3125 C1564.0625,780.8906 1566.1719,782.7813 1569.0625,782.7813 C1570.2813,782.7813 1571.4375,782.4844 1572.1875,781.9375 C1572.7656,781.5313 1573.0938,781.0781 1573.0938,780.6875 C1573.0938,780.2344 1572.7031,779.8438 1572.2344,779.8438 C1572.0156,779.8438 1571.8125,779.9219 1571.625,780.1094 C1571.1719,780.5938 1571.1719,780.5938 1570.9844,780.6875 C1570.5625,780.9531 1569.875,781.0781 1569.1094,781.0781 C1567.0625,781.0781 1565.7656,779.9844 1565.7656,778.2813 L1565.7656,777.1875 C1565.7656,775.4063 1567.0156,774.0938 1568.75,774.0938 C1569.3281,774.0938 1569.9375,774.25 1570.4063,774.5 C1570.8906,774.7813 1571.0625,775 1571.1563,775.4063 C1571.2188,775.8125 1571.25,775.9375 1571.3906,776.0625 C1571.5313,776.2031 1571.7656,776.3125 1571.9844,776.3125 C1572.25,776.3125 1572.5156,776.1719 1572.6875,775.9531 C1572.7969,775.7969 1572.8281,775.6094 1572.8281,775.1875 L1572.8281,773.7656 C1572.8281,773.3281 1572.8125,773.2031 1572.7188,773.0469 C1572.5625,772.7813 1572.2813,772.6406 1571.9844,772.6406 C1571.6875,772.6406 1571.4844,772.7344 1571.2656,773.0469 L1571.0938,772.9688 Z " fill="#000000"/><text fill="#000000" font-family="sans-serif" font-size="14" lengthAdjust="spacing" textLength="84" x="1589.25" y="782.1436">&#24314;&#35758;&#23637;&#31034;&#30028;&#38754;</text><line style="stroke:#181818;stroke-width:0.5;" x1="1508.5" x2="1721.5" y1="793.2969" y2="793.2969"/><line style="stroke:#181818;stroke-width:0.5;" x1="1508.5" x2="1721.5" y1="801.2969" y2="801.2969"/><ellipse cx="1518.5" cy="814.9453" fill="#84BE84" rx="3" ry="3" style="stroke:#038048;stroke-width:1.0;"/><text fill="#000000" font-family="sans-serif" font-size="14" lengthAdjust="spacing" textLength="175" x="1527.5" y="818.292">ShowCareAdvice(advice)</text><ellipse cx="1518.5" cy="831.2422" fill="#84BE84" rx="3" ry="3" style="stroke:#038048;stroke-width:1.0;"/><text fill="#000000" font-family="sans-serif" font-size="14" lengthAdjust="spacing" textLength="189" x="1527.5" y="834.5889">DisplayCareAdvice(advice)</text></g><!--class ??????--><g id="elem_&#21382;&#21490;&#35760;&#24405;&#30028;&#38754;"><rect codeLine="45" fill="#F1F1F1" height="145.7813" id="&#21382;&#21490;&#35760;&#24405;&#30028;&#38754;" rx="2.5" ry="2.5" style="stroke:#181818;stroke-width:0.5;" width="249" x="1261.5" y="218.2969"/><ellipse cx="1339.75" cy="234.2969" fill="#ADD1B2" rx="11" ry="11" style="stroke:#181818;stroke-width:1.0;"/><path d="M1342.0938,229.9688 C1341.1563,229.5313 1340.5625,229.3906 1339.6875,229.3906 C1337.0625,229.3906 1335.0625,231.4688 1335.0625,234.1875 L1335.0625,235.3125 C1335.0625,237.8906 1337.1719,239.7813 1340.0625,239.7813 C1341.2813,239.7813 1342.4375,239.4844 1343.1875,238.9375 C1343.7656,238.5313 1344.0938,238.0781 1344.0938,237.6875 C1344.0938,237.2344 1343.7031,236.8438 1343.2344,236.8438 C1343.0156,236.8438 1342.8125,236.9219 1342.625,237.1094 C1342.1719,237.5938 1342.1719,237.5938 1341.9844,237.6875 C1341.5625,237.9531 1340.875,238.0781 1340.1094,238.0781 C1338.0625,238.0781 1336.7656,236.9844 1336.7656,235.2813 L1336.7656,234.1875 C1336.7656,232.4063 1338.0156,231.0938 1339.75,231.0938 C1340.3281,231.0938 1340.9375,231.25 1341.4063,231.5 C1341.8906,231.7813 1342.0625,232 1342.1563,232.4063 C1342.2188,232.8125 1342.25,232.9375 1342.3906,233.0625 C1342.5313,233.2031 1342.7656,233.3125 1342.9844,233.3125 C1343.25,233.3125 1343.5156,233.1719 1343.6875,232.9531 C1343.7969,232.7969 1343.8281,232.6094 1343.8281,232.1875 L1343.8281,230.7656 C1343.8281,230.3281 1343.8125,230.2031 1343.7188,230.0469 C1343.5625,229.7813 1343.2813,229.6406 1342.9844,229.6406 C1342.6875,229.6406 1342.4844,229.7344 1342.2656,230.0469 L1342.0938,229.9688 Z " fill="#000000"/><text fill="#000000" font-family="sans-serif" font-size="14" lengthAdjust="spacing" textLength="84" x="1360.25" y="239.1436">&#21382;&#21490;&#35760;&#24405;&#30028;&#38754;</text><line style="stroke:#181818;stroke-width:0.5;" x1="1262.5" x2="1509.5" y1="250.2969" y2="250.2969"/><line style="stroke:#181818;stroke-width:0.5;" x1="1262.5" x2="1509.5" y1="258.2969" y2="258.2969"/><ellipse cx="1272.5" cy="271.9453" fill="#84BE84" rx="3" ry="3" style="stroke:#038048;stroke-width:1.0;"/><text fill="#000000" font-family="sans-serif" font-size="14" lengthAdjust="spacing" textLength="162" x="1281.5" y="275.292">SelectHistoryFeature()</text><ellipse cx="1272.5" cy="288.2422" fill="#84BE84" rx="3" ry="3" style="stroke:#038048;stroke-width:1.0;"/><text fill="#000000" font-family="sans-serif" font-size="14" lengthAdjust="spacing" textLength="189" x="1281.5" y="291.5889">DisplayHistory(historyList)</text><ellipse cx="1272.5" cy="304.5391" fill="#84BE84" rx="3" ry="3" style="stroke:#038048;stroke-width:1.0;"/><text fill="#000000" font-family="sans-serif" font-size="14" lengthAdjust="spacing" textLength="167" x="1281.5" y="307.8857">SelectRecord(recordId)</text><ellipse cx="1272.5" cy="320.8359" fill="#84BE84" rx="3" ry="3" style="stroke:#038048;stroke-width:1.0;"/><text fill="#000000" font-family="sans-serif" font-size="14" lengthAdjust="spacing" textLength="209" x="1281.5" y="324.1826">ShowRecordDetails(recordId)</text><ellipse cx="1272.5" cy="337.1328" fill="#84BE84" rx="3" ry="3" style="stroke:#038048;stroke-width:1.0;"/><text fill="#000000" font-family="sans-serif" font-size="14" lengthAdjust="spacing" textLength="223" x="1281.5" y="340.4795">ChooseAction(action, recordId)</text><ellipse cx="1272.5" cy="353.4297" fill="#84BE84" rx="3" ry="3" style="stroke:#038048;stroke-width:1.0;"/><text fill="#000000" font-family="sans-serif" font-size="14" lengthAdjust="spacing" textLength="174" x="1281.5" y="356.7764">DisplayUpdatedHistory()</text></g><!--class ????--><g id="elem_&#20998;&#20139;&#30028;&#38754;"><rect codeLine="54" fill="#F1F1F1" height="80.5938" id="&#20998;&#20139;&#30028;&#38754;" rx="2.5" ry="2.5" style="stroke:#181818;stroke-width:0.5;" width="216" x="1533" y="52.2969"/><ellipse cx="1608.75" cy="68.2969" fill="#ADD1B2" rx="11" ry="11" style="stroke:#181818;stroke-width:1.0;"/><path d="M1611.0938,63.9688 C1610.1563,63.5313 1609.5625,63.3906 1608.6875,63.3906 C1606.0625,63.3906 1604.0625,65.4688 1604.0625,68.1875 L1604.0625,69.3125 C1604.0625,71.8906 1606.1719,73.7813 1609.0625,73.7813 C1610.2813,73.7813 1611.4375,73.4844 1612.1875,72.9375 C1612.7656,72.5313 1613.0938,72.0781 1613.0938,71.6875 C1613.0938,71.2344 1612.7031,70.8438 1612.2344,70.8438 C1612.0156,70.8438 1611.8125,70.9219 1611.625,71.1094 C1611.1719,71.5938 1611.1719,71.5938 1610.9844,71.6875 C1610.5625,71.9531 1609.875,72.0781 1609.1094,72.0781 C1607.0625,72.0781 1605.7656,70.9844 1605.7656,69.2813 L1605.7656,68.1875 C1605.7656,66.4063 1607.0156,65.0938 1608.75,65.0938 C1609.3281,65.0938 1609.9375,65.25 1610.4063,65.5 C1610.8906,65.7813 1611.0625,66 1611.1563,66.4063 C1611.2188,66.8125 1611.25,66.9375 1611.3906,67.0625 C1611.5313,67.2031 1611.7656,67.3125 1611.9844,67.3125 C1612.25,67.3125 1612.5156,67.1719 1612.6875,66.9531 C1612.7969,66.7969 1612.8281,66.6094 1612.8281,66.1875 L1612.8281,64.7656 C1612.8281,64.3281 1612.8125,64.2031 1612.7188,64.0469 C1612.5625,63.7813 1612.2813,63.6406 1611.9844,63.6406 C1611.6875,63.6406 1611.4844,63.7344 1611.2656,64.0469 L1611.0938,63.9688 Z " fill="#000000"/><text fill="#000000" font-family="sans-serif" font-size="14" lengthAdjust="spacing" textLength="56" x="1629.25" y="73.1436">&#20998;&#20139;&#30028;&#38754;</text><line style="stroke:#181818;stroke-width:0.5;" x1="1534" x2="1748" y1="84.2969" y2="84.2969"/><line style="stroke:#181818;stroke-width:0.5;" x1="1534" x2="1748" y1="92.2969" y2="92.2969"/><ellipse cx="1544" cy="105.9453" fill="#84BE84" rx="3" ry="3" style="stroke:#038048;stroke-width:1.0;"/><text fill="#000000" font-family="sans-serif" font-size="14" lengthAdjust="spacing" textLength="146" x="1553" y="109.292">ShowShareOptions()</text><ellipse cx="1544" cy="122.2422" fill="#84BE84" rx="3" ry="3" style="stroke:#038048;stroke-width:1.0;"/><text fill="#000000" font-family="sans-serif" font-size="14" lengthAdjust="spacing" textLength="190" x="1553" y="125.5889">ChoosePlatform(platform)</text></g><!--class ???--><g id="elem_&#25511;&#21046;&#22120;"><rect codeLine="59" fill="#F1F1F1" height="227.2656" id="&#25511;&#21046;&#22120;" rx="2.5" ry="2.5" style="stroke:#181818;stroke-width:0.5;" width="343" x="621.5" y="441.2969"/><ellipse cx="767.75" cy="457.2969" fill="#ADD1B2" rx="11" ry="11" style="stroke:#181818;stroke-width:1.0;"/><path d="M770.0938,452.9688 C769.1563,452.5313 768.5625,452.3906 767.6875,452.3906 C765.0625,452.3906 763.0625,454.4688 763.0625,457.1875 L763.0625,458.3125 C763.0625,460.8906 765.1719,462.7813 768.0625,462.7813 C769.2813,462.7813 770.4375,462.4844 771.1875,461.9375 C771.7656,461.5313 772.0938,461.0781 772.0938,460.6875 C772.0938,460.2344 771.7031,459.8438 771.2344,459.8438 C771.0156,459.8438 770.8125,459.9219 770.625,460.1094 C770.1719,460.5938 770.1719,460.5938 769.9844,460.6875 C769.5625,460.9531 768.875,461.0781 768.1094,461.0781 C766.0625,461.0781 764.7656,459.9844 764.7656,458.2813 L764.7656,457.1875 C764.7656,455.4063 766.0156,454.0938 767.75,454.0938 C768.3281,454.0938 768.9375,454.25 769.4063,454.5 C769.8906,454.7813 770.0625,455 770.1563,455.4063 C770.2188,455.8125 770.25,455.9375 770.3906,456.0625 C770.5313,456.2031 770.7656,456.3125 770.9844,456.3125 C771.25,456.3125 771.5156,456.1719 771.6875,455.9531 C771.7969,455.7969 771.8281,455.6094 771.8281,455.1875 L771.8281,453.7656 C771.8281,453.3281 771.8125,453.2031 771.7188,453.0469 C771.5625,452.7813 771.2813,452.6406 770.9844,452.6406 C770.6875,452.6406 770.4844,452.7344 770.2656,453.0469 L770.0938,452.9688 Z " fill="#000000"/><text fill="#000000" font-family="sans-serif" font-size="14" lengthAdjust="spacing" textLength="42" x="788.25" y="462.1436">&#25511;&#21046;&#22120;</text><line style="stroke:#181818;stroke-width:0.5;" x1="622.5" x2="963.5" y1="473.2969" y2="473.2969"/><line style="stroke:#181818;stroke-width:0.5;" x1="622.5" x2="963.5" y1="481.2969" y2="481.2969"/><ellipse cx="632.5" cy="494.9453" fill="#84BE84" rx="3" ry="3" style="stroke:#038048;stroke-width:1.0;"/><text fill="#000000" font-family="sans-serif" font-size="14" lengthAdjust="spacing" textLength="317" x="641.5" y="498.292">ValidateRegInfo(username, password, email)</text><ellipse cx="632.5" cy="511.2422" fill="#84BE84" rx="3" ry="3" style="stroke:#038048;stroke-width:1.0;"/><text fill="#000000" font-family="sans-serif" font-size="14" lengthAdjust="spacing" textLength="310" x="641.5" y="514.5889">CreateAccount(username, password, email)</text><ellipse cx="632.5" cy="527.5391" fill="#84BE84" rx="3" ry="3" style="stroke:#038048;stroke-width:1.0;"/><text fill="#000000" font-family="sans-serif" font-size="14" lengthAdjust="spacing" textLength="296" x="641.5" y="530.8857">ValidateCredentials(username, password)</text><ellipse cx="632.5" cy="543.8359" fill="#84BE84" rx="3" ry="3" style="stroke:#038048;stroke-width:1.0;"/><text fill="#000000" font-family="sans-serif" font-size="14" lengthAdjust="spacing" textLength="170" x="641.5" y="547.1826">GrantAccess(username)</text><ellipse cx="632.5" cy="560.1328" fill="#84BE84" rx="3" ry="3" style="stroke:#038048;stroke-width:1.0;"/><text fill="#000000" font-family="sans-serif" font-size="14" lengthAdjust="spacing" textLength="229" x="641.5" y="563.4795">CheckPhotoRestrictions(photo)</text><ellipse cx="632.5" cy="576.4297" fill="#84BE84" rx="3" ry="3" style="stroke:#038048;stroke-width:1.0;"/><text fill="#000000" font-family="sans-serif" font-size="14" lengthAdjust="spacing" textLength="190" x="641.5" y="579.7764">AnalyzeAndPredict(photo)</text><ellipse cx="632.5" cy="592.7266" fill="#84BE84" rx="3" ry="3" style="stroke:#038048;stroke-width:1.0;"/><text fill="#000000" font-family="sans-serif" font-size="14" lengthAdjust="spacing" textLength="250" x="641.5" y="596.0732">RequestCareAdvice(results, photo)</text><ellipse cx="632.5" cy="609.0234" fill="#84BE84" rx="3" ry="3" style="stroke:#038048;stroke-width:1.0;"/><text fill="#000000" font-family="sans-serif" font-size="14" lengthAdjust="spacing" textLength="259" x="641.5" y="612.3701">GenerateCareAdvice(results, photo)</text><ellipse cx="632.5" cy="625.3203" fill="#84BE84" rx="3" ry="3" style="stroke:#038048;stroke-width:1.0;"/><text fill="#000000" font-family="sans-serif" font-size="14" lengthAdjust="spacing" textLength="120" x="641.5" y="628.667">RequestHistory()</text><ellipse cx="632.5" cy="641.6172" fill="#84BE84" rx="3" ry="3" style="stroke:#038048;stroke-width:1.0;"/><text fill="#000000" font-family="sans-serif" font-size="14" lengthAdjust="spacing" textLength="194" x="641.5" y="644.9639">ReanalyzeRecord(recordId)</text><ellipse cx="632.5" cy="657.9141" fill="#84BE84" rx="3" ry="3" style="stroke:#038048;stroke-width:1.0;"/><text fill="#000000" font-family="sans-serif" font-size="14" lengthAdjust="spacing" textLength="170" x="641.5" y="661.2607">DeleteRecord(recordId)</text></g><!--class ???--><g id="elem_&#26381;&#21153;&#31471;"><rect codeLine="73" fill="#F1F1F1" height="80.5938" id="&#26381;&#21153;&#31471;" rx="2.5" ry="2.5" style="stroke:#181818;stroke-width:0.5;" width="336" x="7" y="761.2969"/><ellipse cx="149.75" cy="777.2969" fill="#ADD1B2" rx="11" ry="11" style="stroke:#181818;stroke-width:1.0;"/><path d="M152.0938,772.9688 C151.1563,772.5313 150.5625,772.3906 149.6875,772.3906 C147.0625,772.3906 145.0625,774.4688 145.0625,777.1875 L145.0625,778.3125 C145.0625,780.8906 147.1719,782.7813 150.0625,782.7813 C151.2813,782.7813 152.4375,782.4844 153.1875,781.9375 C153.7656,781.5313 154.0938,781.0781 154.0938,780.6875 C154.0938,780.2344 153.7031,779.8438 153.2344,779.8438 C153.0156,779.8438 152.8125,779.9219 152.625,780.1094 C152.1719,780.5938 152.1719,780.5938 151.9844,780.6875 C151.5625,780.9531 150.875,781.0781 150.1094,781.0781 C148.0625,781.0781 146.7656,779.9844 146.7656,778.2813 L146.7656,777.1875 C146.7656,775.4063 148.0156,774.0938 149.75,774.0938 C150.3281,774.0938 150.9375,774.25 151.4063,774.5 C151.8906,774.7813 152.0625,775 152.1563,775.4063 C152.2188,775.8125 152.25,775.9375 152.3906,776.0625 C152.5313,776.2031 152.7656,776.3125 152.9844,776.3125 C153.25,776.3125 153.5156,776.1719 153.6875,775.9531 C153.7969,775.7969 153.8281,775.6094 153.8281,775.1875 L153.8281,773.7656 C153.8281,773.3281 153.8125,773.2031 153.7188,773.0469 C153.5625,772.7813 153.2813,772.6406 152.9844,772.6406 C152.6875,772.6406 152.4844,772.7344 152.2656,773.0469 L152.0938,772.9688 Z " fill="#000000"/><text fill="#000000" font-family="sans-serif" font-size="14" lengthAdjust="spacing" textLength="42" x="170.25" y="782.1436">&#26381;&#21153;&#31471;</text><line style="stroke:#181818;stroke-width:0.5;" x1="8" x2="342" y1="793.2969" y2="793.2969"/><line style="stroke:#181818;stroke-width:0.5;" x1="8" x2="342" y1="801.2969" y2="801.2969"/><ellipse cx="18" cy="814.9453" fill="#84BE84" rx="3" ry="3" style="stroke:#038048;stroke-width:1.0;"/><text fill="#000000" font-family="sans-serif" font-size="14" lengthAdjust="spacing" textLength="310" x="27" y="818.292">CreateAccount(username, password, email)</text><ellipse cx="18" cy="831.2422" fill="#84BE84" rx="3" ry="3" style="stroke:#038048;stroke-width:1.0;"/><text fill="#000000" font-family="sans-serif" font-size="14" lengthAdjust="spacing" textLength="170" x="27" y="834.5889">GrantAccess(username)</text></g><!--class ????--><g id="elem_&#29992;&#25143;&#20449;&#24687;"><rect codeLine="78" fill="#F1F1F1" height="113.1875" id="&#29992;&#25143;&#20449;&#24687;" rx="2.5" ry="2.5" style="stroke:#181818;stroke-width:0.5;" width="327" x="11.5" y="935.2969"/><ellipse cx="142.75" cy="951.2969" fill="#ADD1B2" rx="11" ry="11" style="stroke:#181818;stroke-width:1.0;"/><path d="M145.0938,946.9688 C144.1563,946.5313 143.5625,946.3906 142.6875,946.3906 C140.0625,946.3906 138.0625,948.4688 138.0625,951.1875 L138.0625,952.3125 C138.0625,954.8906 140.1719,956.7813 143.0625,956.7813 C144.2813,956.7813 145.4375,956.4844 146.1875,955.9375 C146.7656,955.5313 147.0938,955.0781 147.0938,954.6875 C147.0938,954.2344 146.7031,953.8438 146.2344,953.8438 C146.0156,953.8438 145.8125,953.9219 145.625,954.1094 C145.1719,954.5938 145.1719,954.5938 144.9844,954.6875 C144.5625,954.9531 143.875,955.0781 143.1094,955.0781 C141.0625,955.0781 139.7656,953.9844 139.7656,952.2813 L139.7656,951.1875 C139.7656,949.4063 141.0156,948.0938 142.75,948.0938 C143.3281,948.0938 143.9375,948.25 144.4063,948.5 C144.8906,948.7813 145.0625,949 145.1563,949.4063 C145.2188,949.8125 145.25,949.9375 145.3906,950.0625 C145.5313,950.2031 145.7656,950.3125 145.9844,950.3125 C146.25,950.3125 146.5156,950.1719 146.6875,949.9531 C146.7969,949.7969 146.8281,949.6094 146.8281,949.1875 L146.8281,947.7656 C146.8281,947.3281 146.8125,947.2031 146.7188,947.0469 C146.5625,946.7813 146.2813,946.6406 145.9844,946.6406 C145.6875,946.6406 145.4844,946.7344 145.2656,947.0469 L145.0938,946.9688 Z " fill="#000000"/><text fill="#000000" font-family="sans-serif" font-size="14" lengthAdjust="spacing" textLength="56" x="163.25" y="956.1436">&#29992;&#25143;&#20449;&#24687;</text><line style="stroke:#181818;stroke-width:0.5;" x1="12.5" x2="337.5" y1="967.2969" y2="967.2969"/><rect fill="none" height="6" style="stroke:#C82930;stroke-width:1.0;" width="6" x="19.5" y="977.9453"/><text fill="#000000" font-family="sans-serif" font-size="14" lengthAdjust="spacing" textLength="123" x="31.5" y="984.292">username: String</text><rect fill="none" height="6" style="stroke:#C82930;stroke-width:1.0;" width="6" x="19.5" y="994.2422"/><text fill="#000000" font-family="sans-serif" font-size="14" lengthAdjust="spacing" textLength="120" x="31.5" y="1000.5889">password: String</text><rect fill="none" height="6" style="stroke:#C82930;stroke-width:1.0;" width="6" x="19.5" y="1010.5391"/><text fill="#000000" font-family="sans-serif" font-size="14" lengthAdjust="spacing" textLength="92" x="31.5" y="1016.8857">email: String</text><line style="stroke:#181818;stroke-width:0.5;" x1="12.5" x2="337.5" y1="1024.1875" y2="1024.1875"/><ellipse cx="22.5" cy="1037.8359" fill="#84BE84" rx="3" ry="3" style="stroke:#038048;stroke-width:1.0;"/><text fill="#000000" font-family="sans-serif" font-size="14" lengthAdjust="spacing" textLength="301" x="31.5" y="1041.1826">StoreUserInfo(username, password, email)</text></g><!--class Kaggle??--><g id="elem_Kaggle&#27169;&#22411;"><rect codeLine="85" fill="#F1F1F1" height="64.2969" id="Kaggle&#27169;&#22411;" rx="2.5" ry="2.5" style="stroke:#181818;stroke-width:0.5;" width="216" x="385" y="769.7969"/><ellipse cx="450.25" cy="785.7969" fill="#ADD1B2" rx="11" ry="11" style="stroke:#181818;stroke-width:1.0;"/><path d="M452.5938,781.4688 C451.6563,781.0313 451.0625,780.8906 450.1875,780.8906 C447.5625,780.8906 445.5625,782.9688 445.5625,785.6875 L445.5625,786.8125 C445.5625,789.3906 447.6719,791.2813 450.5625,791.2813 C451.7813,791.2813 452.9375,790.9844 453.6875,790.4375 C454.2656,790.0313 454.5938,789.5781 454.5938,789.1875 C454.5938,788.7344 454.2031,788.3438 453.7344,788.3438 C453.5156,788.3438 453.3125,788.4219 453.125,788.6094 C452.6719,789.0938 452.6719,789.0938 452.4844,789.1875 C452.0625,789.4531 451.375,789.5781 450.6094,789.5781 C448.5625,789.5781 447.2656,788.4844 447.2656,786.7813 L447.2656,785.6875 C447.2656,783.9063 448.5156,782.5938 450.25,782.5938 C450.8281,782.5938 451.4375,782.75 451.9063,783 C452.3906,783.2813 452.5625,783.5 452.6563,783.9063 C452.7188,784.3125 452.75,784.4375 452.8906,784.5625 C453.0313,784.7031 453.2656,784.8125 453.4844,784.8125 C453.75,784.8125 454.0156,784.6719 454.1875,784.4531 C454.2969,784.2969 454.3281,784.1094 454.3281,783.6875 L454.3281,782.2656 C454.3281,781.8281 454.3125,781.7031 454.2188,781.5469 C454.0625,781.2813 453.7813,781.1406 453.4844,781.1406 C453.1875,781.1406 452.9844,781.2344 452.7656,781.5469 L452.5938,781.4688 Z " fill="#000000"/><text fill="#000000" font-family="sans-serif" font-size="14" lengthAdjust="spacing" textLength="77" x="470.75" y="790.6436">Kaggle&#27169;&#22411;</text><line style="stroke:#181818;stroke-width:0.5;" x1="386" x2="600" y1="801.7969" y2="801.7969"/><line style="stroke:#181818;stroke-width:0.5;" x1="386" x2="600" y1="809.7969" y2="809.7969"/><ellipse cx="396" cy="823.4453" fill="#84BE84" rx="3" ry="3" style="stroke:#038048;stroke-width:1.0;"/><text fill="#000000" font-family="sans-serif" font-size="14" lengthAdjust="spacing" textLength="190" x="405" y="826.792">AnalyzeAndPredict(photo)</text></g><!--class GPT4Vision--><g id="elem_GPT4Vision"><rect codeLine="89" fill="#F1F1F1" height="64.2969" id="GPT4Vision" rx="2.5" ry="2.5" style="stroke:#181818;stroke-width:0.5;" width="285" x="636.5" y="769.7969"/><ellipse cx="734.75" cy="785.7969" fill="#ADD1B2" rx="11" ry="11" style="stroke:#181818;stroke-width:1.0;"/><path d="M737.0938,781.4688 C736.1563,781.0313 735.5625,780.8906 734.6875,780.8906 C732.0625,780.8906 730.0625,782.9688 730.0625,785.6875 L730.0625,786.8125 C730.0625,789.3906 732.1719,791.2813 735.0625,791.2813 C736.2813,791.2813 737.4375,790.9844 738.1875,790.4375 C738.7656,790.0313 739.0938,789.5781 739.0938,789.1875 C739.0938,788.7344 738.7031,788.3438 738.2344,788.3438 C738.0156,788.3438 737.8125,788.4219 737.625,788.6094 C737.1719,789.0938 737.1719,789.0938 736.9844,789.1875 C736.5625,789.4531 735.875,789.5781 735.1094,789.5781 C733.0625,789.5781 731.7656,788.4844 731.7656,786.7813 L731.7656,785.6875 C731.7656,783.9063 733.0156,782.5938 734.75,782.5938 C735.3281,782.5938 735.9375,782.75 736.4063,783 C736.8906,783.2813 737.0625,783.5 737.1563,783.9063 C737.2188,784.3125 737.25,784.4375 737.3906,784.5625 C737.5313,784.7031 737.7656,784.8125 737.9844,784.8125 C738.25,784.8125 738.5156,784.6719 738.6875,784.4531 C738.7969,784.2969 738.8281,784.1094 738.8281,783.6875 L738.8281,782.2656 C738.8281,781.8281 738.8125,781.7031 738.7188,781.5469 C738.5625,781.2813 738.2813,781.1406 737.9844,781.1406 C737.6875,781.1406 737.4844,781.2344 737.2656,781.5469 L737.0938,781.4688 Z " fill="#000000"/><text fill="#000000" font-family="sans-serif" font-size="14" lengthAdjust="spacing" textLength="80" x="755.25" y="790.6436">GPT4Vision</text><line style="stroke:#181818;stroke-width:0.5;" x1="637.5" x2="920.5" y1="801.7969" y2="801.7969"/><line style="stroke:#181818;stroke-width:0.5;" x1="637.5" x2="920.5" y1="809.7969" y2="809.7969"/><ellipse cx="647.5" cy="823.4453" fill="#84BE84" rx="3" ry="3" style="stroke:#038048;stroke-width:1.0;"/><text fill="#000000" font-family="sans-serif" font-size="14" lengthAdjust="spacing" textLength="259" x="656.5" y="826.792">GenerateCareAdvice(results, photo)</text></g><!--class ???--><g id="elem_&#25968;&#25454;&#24211;"><rect codeLine="93" fill="#F1F1F1" height="113.1875" id="&#25968;&#25454;&#24211;" rx="2.5" ry="2.5" style="stroke:#181818;stroke-width:0.5;" width="288" x="957" y="745.2969"/><ellipse cx="1075.75" cy="761.2969" fill="#ADD1B2" rx="11" ry="11" style="stroke:#181818;stroke-width:1.0;"/><path d="M1078.0938,756.9688 C1077.1563,756.5313 1076.5625,756.3906 1075.6875,756.3906 C1073.0625,756.3906 1071.0625,758.4688 1071.0625,761.1875 L1071.0625,762.3125 C1071.0625,764.8906 1073.1719,766.7813 1076.0625,766.7813 C1077.2813,766.7813 1078.4375,766.4844 1079.1875,765.9375 C1079.7656,765.5313 1080.0938,765.0781 1080.0938,764.6875 C1080.0938,764.2344 1079.7031,763.8438 1079.2344,763.8438 C1079.0156,763.8438 1078.8125,763.9219 1078.625,764.1094 C1078.1719,764.5938 1078.1719,764.5938 1077.9844,764.6875 C1077.5625,764.9531 1076.875,765.0781 1076.1094,765.0781 C1074.0625,765.0781 1072.7656,763.9844 1072.7656,762.2813 L1072.7656,761.1875 C1072.7656,759.4063 1074.0156,758.0938 1075.75,758.0938 C1076.3281,758.0938 1076.9375,758.25 1077.4063,758.5 C1077.8906,758.7813 1078.0625,759 1078.1563,759.4063 C1078.2188,759.8125 1078.25,759.9375 1078.3906,760.0625 C1078.5313,760.2031 1078.7656,760.3125 1078.9844,760.3125 C1079.25,760.3125 1079.5156,760.1719 1079.6875,759.9531 C1079.7969,759.7969 1079.8281,759.6094 1079.8281,759.1875 L1079.8281,757.7656 C1079.8281,757.3281 1079.8125,757.2031 1079.7188,757.0469 C1079.5625,756.7813 1079.2813,756.6406 1078.9844,756.6406 C1078.6875,756.6406 1078.4844,756.7344 1078.2656,757.0469 L1078.0938,756.9688 Z " fill="#000000"/><text fill="#000000" font-family="sans-serif" font-size="14" lengthAdjust="spacing" textLength="42" x="1096.25" y="766.1436">&#25968;&#25454;&#24211;</text><line style="stroke:#181818;stroke-width:0.5;" x1="958" x2="1244" y1="777.2969" y2="777.2969"/><rect fill="none" height="6" style="stroke:#C82930;stroke-width:1.0;" width="6" x="965" y="787.9453"/><text fill="#000000" font-family="sans-serif" font-size="14" lengthAdjust="spacing" textLength="111" x="977" y="794.292">historyList: List</text><line style="stroke:#181818;stroke-width:0.5;" x1="958" x2="1244" y1="801.5938" y2="801.5938"/><ellipse cx="968" cy="815.2422" fill="#84BE84" rx="3" ry="3" style="stroke:#038048;stroke-width:1.0;"/><text fill="#000000" font-family="sans-serif" font-size="14" lengthAdjust="spacing" textLength="102" x="977" y="818.5889">FetchHistory()</text><ellipse cx="968" cy="831.5391" fill="#84BE84" rx="3" ry="3" style="stroke:#038048;stroke-width:1.0;"/><text fill="#000000" font-family="sans-serif" font-size="14" lengthAdjust="spacing" textLength="262" x="977" y="834.8857">UpdateRecord(recordId, newResults)</text><ellipse cx="968" cy="847.8359" fill="#84BE84" rx="3" ry="3" style="stroke:#038048;stroke-width:1.0;"/><text fill="#000000" font-family="sans-serif" font-size="14" lengthAdjust="spacing" textLength="180" x="977" y="851.1826">RemoveRecord(recordId)</text></g><!--class ????--><g id="elem_&#20998;&#26512;&#26381;&#21153;"><rect codeLine="100" fill="#F1F1F1" height="64.2969" id="&#20998;&#26512;&#26381;&#21153;" rx="2.5" ry="2.5" style="stroke:#181818;stroke-width:0.5;" width="192" x="1280" y="769.7969"/><ellipse cx="1343.75" cy="785.7969" fill="#ADD1B2" rx="11" ry="11" style="stroke:#181818;stroke-width:1.0;"/><path d="M1346.0938,781.4688 C1345.1563,781.0313 1344.5625,780.8906 1343.6875,780.8906 C1341.0625,780.8906 1339.0625,782.9688 1339.0625,785.6875 L1339.0625,786.8125 C1339.0625,789.3906 1341.1719,791.2813 1344.0625,791.2813 C1345.2813,791.2813 1346.4375,790.9844 1347.1875,790.4375 C1347.7656,790.0313 1348.0938,789.5781 1348.0938,789.1875 C1348.0938,788.7344 1347.7031,788.3438 1347.2344,788.3438 C1347.0156,788.3438 1346.8125,788.4219 1346.625,788.6094 C1346.1719,789.0938 1346.1719,789.0938 1345.9844,789.1875 C1345.5625,789.4531 1344.875,789.5781 1344.1094,789.5781 C1342.0625,789.5781 1340.7656,788.4844 1340.7656,786.7813 L1340.7656,785.6875 C1340.7656,783.9063 1342.0156,782.5938 1343.75,782.5938 C1344.3281,782.5938 1344.9375,782.75 1345.4063,783 C1345.8906,783.2813 1346.0625,783.5 1346.1563,783.9063 C1346.2188,784.3125 1346.25,784.4375 1346.3906,784.5625 C1346.5313,784.7031 1346.7656,784.8125 1346.9844,784.8125 C1347.25,784.8125 1347.5156,784.6719 1347.6875,784.4531 C1347.7969,784.2969 1347.8281,784.1094 1347.8281,783.6875 L1347.8281,782.2656 C1347.8281,781.8281 1347.8125,781.7031 1347.7188,781.5469 C1347.5625,781.2813 1347.2813,781.1406 1346.9844,781.1406 C1346.6875,781.1406 1346.4844,781.2344 1346.2656,781.5469 L1346.0938,781.4688 Z " fill="#000000"/><text fill="#000000" font-family="sans-serif" font-size="14" lengthAdjust="spacing" textLength="56" x="1364.25" y="790.6436">&#20998;&#26512;&#26381;&#21153;</text><line style="stroke:#181818;stroke-width:0.5;" x1="1281" x2="1471" y1="801.7969" y2="801.7969"/><line style="stroke:#181818;stroke-width:0.5;" x1="1281" x2="1471" y1="809.7969" y2="809.7969"/><ellipse cx="1291" cy="823.4453" fill="#84BE84" rx="3" ry="3" style="stroke:#038048;stroke-width:1.0;"/><text fill="#000000" font-family="sans-serif" font-size="14" lengthAdjust="spacing" textLength="166" x="1300" y="826.792">AnalyzeAgain(recordId)</text></g><!--class ????--><g id="elem_&#20998;&#20139;&#24179;&#21488;"><rect codeLine="104" fill="#F1F1F1" height="64.2969" id="&#20998;&#20139;&#24179;&#21488;" rx="2.5" ry="2.5" style="stroke:#181818;stroke-width:0.5;" width="191" x="1545.5" y="259.2969"/><ellipse cx="1608.75" cy="275.2969" fill="#ADD1B2" rx="11" ry="11" style="stroke:#181818;stroke-width:1.0;"/><path d="M1611.0938,270.9688 C1610.1563,270.5313 1609.5625,270.3906 1608.6875,270.3906 C1606.0625,270.3906 1604.0625,272.4688 1604.0625,275.1875 L1604.0625,276.3125 C1604.0625,278.8906 1606.1719,280.7813 1609.0625,280.7813 C1610.2813,280.7813 1611.4375,280.4844 1612.1875,279.9375 C1612.7656,279.5313 1613.0938,279.0781 1613.0938,278.6875 C1613.0938,278.2344 1612.7031,277.8438 1612.2344,277.8438 C1612.0156,277.8438 1611.8125,277.9219 1611.625,278.1094 C1611.1719,278.5938 1611.1719,278.5938 1610.9844,278.6875 C1610.5625,278.9531 1609.875,279.0781 1609.1094,279.0781 C1607.0625,279.0781 1605.7656,277.9844 1605.7656,276.2813 L1605.7656,275.1875 C1605.7656,273.4063 1607.0156,272.0938 1608.75,272.0938 C1609.3281,272.0938 1609.9375,272.25 1610.4063,272.5 C1610.8906,272.7813 1611.0625,273 1611.1563,273.4063 C1611.2188,273.8125 1611.25,273.9375 1611.3906,274.0625 C1611.5313,274.2031 1611.7656,274.3125 1611.9844,274.3125 C1612.25,274.3125 1612.5156,274.1719 1612.6875,273.9531 C1612.7969,273.7969 1612.8281,273.6094 1612.8281,273.1875 L1612.8281,271.7656 C1612.8281,271.3281 1612.8125,271.2031 1612.7188,271.0469 C1612.5625,270.7813 1612.2813,270.6406 1611.9844,270.6406 C1611.6875,270.6406 1611.4844,270.7344 1611.2656,271.0469 L1611.0938,270.9688 Z " fill="#000000"/><text fill="#000000" font-family="sans-serif" font-size="14" lengthAdjust="spacing" textLength="56" x="1629.25" y="280.1436">&#20998;&#20139;&#24179;&#21488;</text><line style="stroke:#181818;stroke-width:0.5;" x1="1546.5" x2="1735.5" y1="291.2969" y2="291.2969"/><line style="stroke:#181818;stroke-width:0.5;" x1="1546.5" x2="1735.5" y1="299.2969" y2="299.2969"/><ellipse cx="1556.5" cy="312.9453" fill="#84BE84" rx="3" ry="3" style="stroke:#038048;stroke-width:1.0;"/><text fill="#000000" font-family="sans-serif" font-size="14" lengthAdjust="spacing" textLength="165" x="1565.5" y="316.292">ProcessShareRequest()</text></g><!--link ???? to ????--><g id="link_&#27426;&#36814;&#30028;&#38754;_&#27880;&#20876;&#30028;&#38754;"><path codeLine="108" d="M512.204,117.1099 C499.775,143.9479 481.3604,183.7104 463.9954,221.2074 " fill="none" id="&#27426;&#36814;&#30028;&#38754;-to-&#27880;&#20876;&#30028;&#38754;" style="stroke:#181818;stroke-width:1.0;"/><polygon fill="#181818" points="461.474,226.6519,468.8857,220.166,463.5751,222.1148,461.6264,216.8042,461.474,226.6519" style="stroke:#181818;stroke-width:1.0;"/><text fill="#000000" font-family="sans-serif" font-size="13" lengthAdjust="spacing" textLength="103" x="487" y="184.3638">ShowRegForm()</text></g><!--link ???? to ????--><g id="link_&#27426;&#36814;&#30028;&#38754;_&#30331;&#24405;&#30028;&#38754;"><path codeLine="109" d="M554.766,116.9159 C591.637,143.7499 649.1408,185.5992 700.8098,223.2032 " fill="none" id="&#27426;&#36814;&#30028;&#38754;-to-&#30331;&#24405;&#30028;&#38754;" style="stroke:#181818;stroke-width:1.0;"/><polygon fill="#181818" points="705.661,226.7339,700.7379,218.2037,701.6183,223.7917,696.0304,224.672,705.661,226.7339" style="stroke:#181818;stroke-width:1.0;"/><text fill="#000000" font-family="sans-serif" font-size="13" lengthAdjust="spacing" textLength="112" x="651" y="184.3638">ShowLoginForm()</text></g><!--link ??? to ????--><g id="link_&#20027;&#30028;&#38754;_&#19978;&#20256;&#30028;&#38754;"><path codeLine="110" d="M1211.26,141.6939 C1204.21,151.4739 1196.85,161.7059 1190,171.2969 C1175.3,191.8759 1162.7268,209.6308 1148.6468,229.6058 " fill="none" id="&#20027;&#30028;&#38754;-to-&#19978;&#20256;&#30028;&#38754;" style="stroke:#181818;stroke-width:1.0;"/><polygon fill="#181818" points="1145.19,234.5099,1153.6446,229.4582,1148.0707,230.4231,1147.1058,224.8491,1145.19,234.5099" style="stroke:#181818;stroke-width:1.0;"/><text fill="#000000" font-family="sans-serif" font-size="13" lengthAdjust="spacing" textLength="122" x="1191" y="184.3638">ShowUploadForm()</text></g><!--link ??? to ??????--><g id="link_&#20027;&#30028;&#38754;_&#21382;&#21490;&#35760;&#24405;&#30028;&#38754;"><path codeLine="111" d="M1293.49,141.5179 C1302.06,151.0499 1310.6,161.2349 1318,171.2969 C1328.71,185.8679 1336.0386,197.0911 1345.2886,212.9611 " fill="none" id="&#20027;&#30028;&#38754;-to-&#21382;&#21490;&#35760;&#24405;&#30028;&#38754;" style="stroke:#181818;stroke-width:1.0;"/><polygon fill="#181818" points="1348.31,218.1449,1347.2337,208.355,1345.7922,213.8251,1340.3221,212.3835,1348.31,218.1449" style="stroke:#181818;stroke-width:1.0;"/><text fill="#000000" font-family="sans-serif" font-size="13" lengthAdjust="spacing" textLength="143" x="1330" y="184.3638">SelectHistoryFeature()</text></g><!--link ?????? to ??????--><g id="link_&#32467;&#26524;&#23637;&#31034;&#30028;&#38754;_&#24314;&#35758;&#23637;&#31034;&#30028;&#38754;"><path codeLine="112" d="M1602.43,595.4329 C1605.22,641.0729 1609.4124,709.6131 1612.2124,755.2291 " fill="none" id="&#32467;&#26524;&#23637;&#31034;&#30028;&#38754;-to-&#24314;&#35758;&#23637;&#31034;&#30028;&#38754;" style="stroke:#181818;stroke-width:1.0;"/><polygon fill="#181818" points="1612.58,761.2179,1616.0211,751.9897,1612.2737,756.2273,1608.0361,752.4798,1612.58,761.2179" style="stroke:#181818;stroke-width:1.0;"/><text fill="#000000" font-family="sans-serif" font-size="13" lengthAdjust="spacing" textLength="160" x="1611" y="711.3638">ShowCareAdvice(advice)</text></g><!--link ?????? to ??????--><g id="link_&#21382;&#21490;&#35760;&#24405;&#30028;&#38754;_&#32467;&#26524;&#23637;&#31034;&#30028;&#38754;"><path codeLine="113" d="M1456.83,364.5319 C1465.83,374.3619 1474.77,384.4559 1483,394.2969 C1515.83,433.5459 1546.6553,476.2123 1569.5453,509.1403 " fill="none" id="&#21382;&#21490;&#35760;&#24405;&#30028;&#38754;-to-&#32467;&#26524;&#23637;&#31034;&#30028;&#38754;" style="stroke:#181818;stroke-width:1.0;"/><polygon fill="#181818" points="1572.97,514.0669,1571.1173,504.3938,1570.1161,509.9614,1564.5485,508.9602,1572.97,514.0669" style="stroke:#181818;stroke-width:1.0;"/><text fill="#000000" font-family="sans-serif" font-size="13" lengthAdjust="spacing" textLength="186" x="1498" y="407.3638">ShowRecordDetails(recordId)</text></g><!--link ???? to ????--><g id="link_&#20998;&#20139;&#30028;&#38754;_&#20998;&#20139;&#24179;&#21488;"><path codeLine="114" d="M1641,133.5619 C1641,170.5689 1641,218.9829 1641,252.9909 " fill="none" id="&#20998;&#20139;&#30028;&#38754;-to-&#20998;&#20139;&#24179;&#21488;" style="stroke:#181818;stroke-width:1.0;"/><polygon fill="#181818" points="1641,258.9909,1645,249.9909,1641,253.9909,1637,249.9909,1641,258.9909" style="stroke:#181818;stroke-width:1.0;"/><text fill="#000000" font-family="sans-serif" font-size="13" lengthAdjust="spacing" textLength="150" x="1642" y="184.3638">ProcessShareRequest()</text></g><!--link ???? to ???--><g id="link_&#27880;&#20876;&#30028;&#38754;_&#25511;&#21046;&#22120;"><path codeLine="116" d="M454.675,356.0849 C463.947,375.6039 476.266,395.9489 492,411.2969 C528.421,446.8239 569.93,472.2338 615.865,493.6058 " fill="none" id="&#27880;&#20876;&#30028;&#38754;-to-&#25511;&#21046;&#22120;" style="stroke:#181818;stroke-width:1.0;"/><polygon fill="#181818" points="621.305,496.1369,614.8323,488.7136,616.7717,494.0277,611.4576,495.967,621.305,496.1369" style="stroke:#181818;stroke-width:1.0;"/><text fill="#000000" font-family="sans-serif" font-size="13" lengthAdjust="spacing" textLength="289" x="493" y="407.3638">ValidateRegInfo(username, password, email)</text></g><!--link ???? to ???--><g id="link_&#30331;&#24405;&#30028;&#38754;_&#25511;&#21046;&#22120;"><path codeLine="117" d="M791.559,355.9549 C791.326,368.6549 791.122,381.8989 791,394.2969 C790.852,409.3889 790.8197,419.284 790.9197,434.956 " fill="none" id="&#30331;&#24405;&#30028;&#38754;-to-&#25511;&#21046;&#22120;" style="stroke:#181818;stroke-width:1.0;"/><polygon fill="#181818" points="790.958,440.9559,794.9005,431.9305,790.9261,435.956,786.9007,431.9816,790.958,440.9559" style="stroke:#181818;stroke-width:1.0;"/><text fill="#000000" font-family="sans-serif" font-size="13" lengthAdjust="spacing" textLength="269" x="792" y="407.3638">ValidateCredentials(username, password)</text></g><!--link ???? to ???--><g id="link_&#19978;&#20256;&#30028;&#38754;_&#25511;&#21046;&#22120;"><path codeLine="118" d="M1096.6,347.9859 C1090.71,369.6459 1081.22,393.4829 1066,411.2969 C1038.57,443.4099 1007.3302,466.3969 969.9722,486.8099 " fill="none" id="&#19978;&#20256;&#30028;&#38754;-to-&#25511;&#21046;&#22120;" style="stroke:#181818;stroke-width:1.0;"/><polygon fill="#181818" points="964.707,489.6869,974.5229,488.8815,969.0947,487.2894,970.6869,481.8612,964.707,489.6869" style="stroke:#181818;stroke-width:1.0;"/><text fill="#000000" font-family="sans-serif" font-size="13" lengthAdjust="spacing" textLength="198" x="1079" y="407.3638">CheckPhotoRestrictions(photo)</text></g><!--link ??? to Kaggle??--><g id="link_&#25511;&#21046;&#22120;_Kaggle&#27169;&#22411;"><path codeLine="119" d="M643.949,668.3249 C631.352,678.3369 618.892,688.4209 607,698.2969 C579.153,721.4219 553.1293,744.8357 530.7163,765.5197 " fill="none" id="&#25511;&#21046;&#22120;-to-Kaggle&#27169;&#22411;" style="stroke:#181818;stroke-width:1.0;"/><polygon fill="#181818" points="526.307,769.5889,535.6337,766.4247,529.9814,766.1979,530.2082,760.5456,526.307,769.5889" style="stroke:#181818;stroke-width:1.0;"/><text fill="#000000" font-family="sans-serif" font-size="13" lengthAdjust="spacing" textLength="167" x="608" y="711.3638">AnalyzeAndPredict(photo)</text></g><!--link ??? to GPT4Vision--><g id="link_&#25511;&#21046;&#22120;_GPT4Vision"><path codeLine="120" d="M786.553,668.6159 C784.436,705.6639 782.5934,737.9107 781.1214,763.6667 " fill="none" id="&#25511;&#21046;&#22120;-to-GPT4Vision" style="stroke:#181818;stroke-width:1.0;"/><polygon fill="#181818" points="780.779,769.6569,785.286,760.8998,781.0643,764.665,777.299,760.4433,780.779,769.6569" style="stroke:#181818;stroke-width:1.0;"/><text fill="#000000" font-family="sans-serif" font-size="13" lengthAdjust="spacing" textLength="231" x="786" y="711.3638">GenerateCareAdvice(results, photo)</text></g><!--link ?????? to ???--><g id="link_&#21382;&#21490;&#35760;&#24405;&#30028;&#38754;_&#25511;&#21046;&#22120;"><path codeLine="121" d="M1336.97,364.5309 C1322.3,381.8769 1305,398.9379 1286,411.2969 C1189.37,474.1429 1070.3837,508.6862 970.4917,528.6462 " fill="none" id="&#21382;&#21490;&#35760;&#24405;&#30028;&#38754;-to-&#25511;&#21046;&#22120;" style="stroke:#181818;stroke-width:1.0;"/><polygon fill="#181818" points="964.608,529.8219,974.2173,531.9809,969.5111,528.8422,972.6498,524.1359,964.608,529.8219" style="stroke:#181818;stroke-width:1.0;"/><text fill="#000000" font-family="sans-serif" font-size="13" lengthAdjust="spacing" textLength="108" x="1308" y="407.3638">RequestHistory()</text></g><!--link ??? to ???--><g id="link_&#25511;&#21046;&#22120;_&#25968;&#25454;&#24211;"><path codeLine="122" d="M964.689,649.9779 C986.295,664.8939 1007.34,681.1169 1026,698.2969 C1040.84,711.9609 1051.1619,724.0771 1062.7819,740.2701 " fill="none" id="&#25511;&#21046;&#22120;-to-&#25968;&#25454;&#24211;" style="stroke:#181818;stroke-width:1.0;"/><polygon fill="#181818" points="1066.28,745.1449,1064.2827,735.5007,1063.3649,741.0826,1057.783,740.1648,1066.28,745.1449" style="stroke:#181818;stroke-width:1.0;"/><text fill="#000000" font-family="sans-serif" font-size="13" lengthAdjust="spacing" textLength="90" x="1042" y="711.3638">FetchHistory()</text></g><!--link ??? to ????--><g id="link_&#25511;&#21046;&#22120;_&#20998;&#26512;&#26381;&#21153;"><path codeLine="123" d="M964.615,621.8469 C1053.91,657.0439 1164.51,701.9319 1262,745.2969 C1279.1,752.9009 1292.0153,758.9487 1308.8453,767.1417 " fill="none" id="&#25511;&#21046;&#22120;-to-&#20998;&#26512;&#26381;&#21153;" style="stroke:#181818;stroke-width:1.0;"/><polygon fill="#181818" points="1314.24,769.7679,1307.8987,762.2321,1309.7444,767.5794,1304.3971,769.4251,1314.24,769.7679" style="stroke:#181818;stroke-width:1.0;"/><text fill="#000000" font-family="sans-serif" font-size="13" lengthAdjust="spacing" textLength="149" x="1188" y="711.3638">AnalyzeAgain(recordId)</text></g><!--link ??? to ???--><g id="link_&#25511;&#21046;&#22120;_&#26381;&#21153;&#31471;"><path codeLine="124" d="M621.219,585.9469 C521.884,607.9369 396.808,643.6269 295,698.2969 C264.465,714.6939 239.1329,735.7572 216.9399,757.0772 " fill="none" id="&#25511;&#21046;&#22120;-to-&#26381;&#21153;&#31471;" style="stroke:#181818;stroke-width:1.0;"/><polygon fill="#181818" points="212.613,761.2339,221.8745,757.8834,216.2187,757.77,216.3322,752.1143,212.613,761.2339" style="stroke:#181818;stroke-width:1.0;"/><text fill="#000000" font-family="sans-serif" font-size="13" lengthAdjust="spacing" textLength="283" x="296" y="711.3638">CreateAccount(username, password, email)</text></g><!--link ??? to ????--><g id="link_&#26381;&#21153;&#31471;_&#29992;&#25143;&#20449;&#24687;"><path codeLine="125" d="M175,842.6669 C175,869.6129 175,899.5619 175,929.2969 " fill="none" id="&#26381;&#21153;&#31471;-to-&#29992;&#25143;&#20449;&#24687;" style="stroke:#181818;stroke-width:1.0;"/><polygon fill="#181818" points="175,935.2969,179,926.2969,175,930.2969,171,926.2969,175,935.2969" style="stroke:#181818;stroke-width:1.0;"/><text fill="#000000" font-family="sans-serif" font-size="13" lengthAdjust="spacing" textLength="275" x="176" y="901.3638">StoreUserInfo(username, password, email)</text></g><!--SRC=[bLPRJnD157xlhvZ79RHlFlN1f2c2HD26Wk_ZTjXktEwiirC86XCr4GboCO4c4f48CR49MeiaAgt8d-biyLyuUz_PtTAMXmwP-UOxb- -SCqjLgY70Ellz_QRrejkxtEkVTTc7lo07s9jBgz5ckvlistlsgidMNxFMHIOZQz0qWVNrvFfgfz_O-lVn13pBF0_sppbmAzW7_6-oNCMh2qYPngGcJRXRixfHftnlLb_6Kjr4H8Srb0K6frZ5f985g0PLpGENwuzgwiZeATKqDBXMnFgoIcgGgbYNnACxX60Y8VjttbJoe4o9gYiJOH3zWowxR2I3cCEAgYV2A19KGJfLeMQcE2V4C1BKyt8UgdfP9WYDxNxlTpVcEzAGJ9SC3SFAD8AqJf3FwHxTLKsAoLhix3vSKHL8qI8MV8dOsUpz-PHCasSedgTI5LCi2VbmjmpxTro9kdlMqI4xQ_G_TzAgpQnhr9I8kuhSYSE0b7KxrwtM8D8Y9AXGML5b945dYHLSyZWatbbdkp-kM-raMTsGVu_OEvIgxZh75q6y1IJpuk7XsCjiK71E6kojAKHvTvXnGB6AiOaAijCWq5co88RnF5WoAhmCAhuZqS0srdkTqsIkobMUZGU6JMfAWi6I1kcoNHg6zq-4pThvmZP-ieEcJ_KGQgfjUjJUv_t5qGLPndMT3aNxx2DrvGo1EkNCo0n1GM18VkoKCYyjNgYo6tQqh0iwrDQUee9UAN5Z726SBg0dTNupKa5URN8l8h0Pf2DY-pi4vz65Sdcxq7KYlLwcU2tHv5cepU4ssppkdtxtjHalr-df2zkPlpuRltfNnzPBtq3EX_dTx-xwzEAkOqhOcYppuD4IvnXMEO4Jzw2YQCXg7hEZjtwK0uKBRisK5cyzL4qkkNzd19t2j3RQrdQBTVRyg2DTdWVshyivZQXSZIdgjcLCiYpGaJ__0kLhUEK6QNaJMqVlN87ZSIjyyW-umnkVNPoptRP_fqImhQ_J-ruDkhD2-5Z8vMwBNmbSDk438O4MdcCN7Ns9m-VE1WkFaWiMtYCHdJAO-PtqcPpov3WKoKV3DPlo8AIOSm9CClj9IH_WmjXrd8ZAaGVfIcI4j3iw10Ct3yQOjO8WWtY6JLL1g3Z9pICrHDhtXBRDWu4TAzwAj6qUZD2n0wIBEfsOkwB5iDNp8DRE8b3enp2WM2l6o8Fnp9CtwcGEBpbL69t1zYmTRNx-1m00]--></g></svg>