<?xml version="1.0" encoding="us-ascii" standalone="no"?><svg xmlns="http://www.w3.org/2000/svg" xmlns:xlink="http://www.w3.org/1999/xlink" contentStyleType="text/css" height="1157px" preserveAspectRatio="none" style="width:1937px;height:1157px;background:#FFFFFF;" version="1.1" viewBox="0 0 1937 1157" width="1937px" zoomAndPan="magnify"><defs/><g><text fill="#000000" font-family="sans-serif" font-size="14" font-weight="bold" lengthAdjust="spacing" textLength="436" x="743.5" y="22.9951">Application Class Diagram with Detailed UI Components</text><!--cluster Client Side--><g id="cluster_Client Side"><path d="M33,346.2969 L118,346.2969 A3.75,3.75 0 0 1 120.5,348.7969 L127.5,368.5938 L1927.5,368.5938 A2.5,2.5 0 0 1 1930,371.0938 L1930,1147.7969 A2.5,2.5 0 0 1 1927.5,1150.2969 L33,1150.2969 A2.5,2.5 0 0 1 30.5,1147.7969 L30.5,348.7969 A2.5,2.5 0 0 1 33,346.2969 " fill="none" style="stroke:#000000;stroke-width:1.5;"/><line style="stroke:#000000;stroke-width:1.5;" x1="30.5" x2="127.5" y1="368.5938" y2="368.5938"/><text fill="#000000" font-family="sans-serif" font-size="14" font-weight="bold" lengthAdjust="spacing" textLength="84" x="34.5" y="361.292">Client Side</text></g><!--cluster Server Side--><g id="cluster_Server Side"><path d="M8.5,43.2969 L101.5,43.2969 A3.75,3.75 0 0 1 104,45.7969 L111,65.5938 L1042,65.5938 A2.5,2.5 0 0 1 1044.5,68.0938 L1044.5,319.7969 A2.5,2.5 0 0 1 1042,322.2969 L8.5,322.2969 A2.5,2.5 0 0 1 6,319.7969 L6,45.7969 A2.5,2.5 0 0 1 8.5,43.2969 " fill="none" style="stroke:#000000;stroke-width:1.5;"/><line style="stroke:#000000;stroke-width:1.5;" x1="6" x2="111" y1="65.5938" y2="65.5938"/><text fill="#000000" font-family="sans-serif" font-size="14" font-weight="bold" lengthAdjust="spacing" textLength="92" x="10" y="58.292">Server Side</text></g><!--class MainScreen--><g id="elem_MainScreen"><rect codeLine="7" fill="#F1F1F1" height="145.7813" id="MainScreen" rx="2.5" ry="2.5" style="stroke:#181818;stroke-width:0.5;" width="428" x="46.5" y="689.4069"/><ellipse cx="215.75" cy="705.4069" fill="#ADD1B2" rx="11" ry="11" style="stroke:#181818;stroke-width:1.0;"/><path d="M218.7188,711.0475 Q218.1406,711.3444 217.5,711.485 Q216.8594,711.6413 216.1563,711.6413 Q213.6563,711.6413 212.3281,710.0006 Q211.0156,708.3444 211.0156,705.2194 Q211.0156,702.0944 212.3281,700.4381 Q213.6563,698.7819 216.1563,698.7819 Q216.8594,698.7819 217.5,698.9381 Q218.1563,699.0944 218.7188,699.3913 L218.7188,702.11 Q218.0938,701.5319 217.5,701.2663 Q216.9063,700.985 216.2813,700.985 Q214.9375,700.985 214.25,702.0631 Q213.5625,703.1256 213.5625,705.2194 Q213.5625,707.3131 214.25,708.3913 Q214.9375,709.4538 216.2813,709.4538 Q216.9063,709.4538 217.5,709.1881 Q218.0938,708.9069 218.7188,708.3288 L218.7188,711.0475 Z " fill="#000000"/><text fill="#000000" font-family="sans-serif" font-size="14" lengthAdjust="spacing" textLength="81" x="236.25" y="710.2536">MainScreen</text><line style="stroke:#181818;stroke-width:0.5;" x1="47.5" x2="473.5" y1="721.4069" y2="721.4069"/><ellipse cx="57.5" cy="743.2038" fill="none" rx="3" ry="3" style="stroke:#038048;stroke-width:1.0;"/><text fill="#000000" font-family="sans-serif" font-size="14" lengthAdjust="spacing" textLength="398" x="66.5" y="738.402">Navigation Buttons | HistoryRecordScreen, UploadScreen,</text><text fill="#000000" font-family="sans-serif" font-size="14" lengthAdjust="spacing" textLength="323" x="70.5" y="754.6989">LoginScreen, RegistrationScreen : &#25805;&#20316;&#23548;&#33322;&#25353;&#38062;</text><ellipse cx="57.5" cy="767.6491" fill="none" rx="3" ry="3" style="stroke:#038048;stroke-width:1.0;"/><text fill="#000000" font-family="sans-serif" font-size="14" lengthAdjust="spacing" textLength="219" x="66.5" y="770.9957">Feature Icons | &#22270;&#26631;&#30452;&#35266;&#34920;&#31034;&#21151;&#33021;</text><line style="stroke:#181818;stroke-width:0.5;" x1="47.5" x2="473.5" y1="778.2975" y2="778.2975"/><ellipse cx="57.5" cy="791.9459" fill="#84BE84" rx="3" ry="3" style="stroke:#038048;stroke-width:1.0;"/><text fill="#000000" font-family="sans-serif" font-size="14" lengthAdjust="spacing" textLength="153" x="66.5" y="795.2926">selectUploadFeature()</text><ellipse cx="57.5" cy="808.2428" fill="#84BE84" rx="3" ry="3" style="stroke:#038048;stroke-width:1.0;"/><text fill="#000000" font-family="sans-serif" font-size="14" lengthAdjust="spacing" textLength="152" x="66.5" y="811.5895">selectHistoryFeature()</text><ellipse cx="57.5" cy="824.5397" fill="#84BE84" rx="3" ry="3" style="stroke:#038048;stroke-width:1.0;"/><text fill="#000000" font-family="sans-serif" font-size="14" lengthAdjust="spacing" textLength="167" x="66.5" y="827.8864">navigateToMainScreen()</text></g><!--class RegistrationScreen--><g id="elem_RegistrationScreen"><rect codeLine="14" fill="#F1F1F1" height="162.0781" id="RegistrationScreen" rx="2.5" ry="2.5" style="stroke:#181818;stroke-width:0.5;" width="472" x="623" y="972.2569"/><ellipse cx="788.75" cy="988.2569" fill="#ADD1B2" rx="11" ry="11" style="stroke:#181818;stroke-width:1.0;"/><path d="M791.7188,993.8975 Q791.1406,994.1944 790.5,994.335 Q789.8594,994.4913 789.1563,994.4913 Q786.6563,994.4913 785.3281,992.8506 Q784.0156,991.1944 784.0156,988.0694 Q784.0156,984.9444 785.3281,983.2881 Q786.6563,981.6319 789.1563,981.6319 Q789.8594,981.6319 790.5,981.7881 Q791.1563,981.9444 791.7188,982.2413 L791.7188,984.96 Q791.0938,984.3819 790.5,984.1163 Q789.9063,983.835 789.2813,983.835 Q787.9375,983.835 787.25,984.9131 Q786.5625,985.9756 786.5625,988.0694 Q786.5625,990.1631 787.25,991.2413 Q787.9375,992.3038 789.2813,992.3038 Q789.9063,992.3038 790.5,992.0381 Q791.0938,991.7569 791.7188,991.1788 L791.7188,993.8975 Z " fill="#000000"/><text fill="#000000" font-family="sans-serif" font-size="14" lengthAdjust="spacing" textLength="132" x="809.25" y="993.1036">RegistrationScreen</text><line style="stroke:#181818;stroke-width:0.5;" x1="624" x2="1094" y1="1004.2569" y2="1004.2569"/><ellipse cx="634" cy="1017.9053" fill="none" rx="3" ry="3" style="stroke:#038048;stroke-width:1.0;"/><text fill="#000000" font-family="sans-serif" font-size="14" lengthAdjust="spacing" textLength="303" x="643" y="1021.252">Input Fields | &#29992;&#25143;&#21517;, &#23494;&#30721;, &#37038;&#31665; : &#36755;&#20837;&#27880;&#20876;&#20449;&#24687;</text><ellipse cx="634" cy="1034.2022" fill="none" rx="3" ry="3" style="stroke:#038048;stroke-width:1.0;"/><text fill="#000000" font-family="sans-serif" font-size="14" lengthAdjust="spacing" textLength="196" x="643" y="1037.5489">Submit Button | &#25552;&#20132;&#27880;&#20876;&#20449;&#24687;</text><line style="stroke:#181818;stroke-width:0.5;" x1="624" x2="1094" y1="1044.8506" y2="1044.8506"/><ellipse cx="634" cy="1058.4991" fill="#84BE84" rx="3" ry="3" style="stroke:#038048;stroke-width:1.0;"/><text fill="#000000" font-family="sans-serif" font-size="14" lengthAdjust="spacing" textLength="110" x="643" y="1061.8457">showRegForm()</text><ellipse cx="634" cy="1074.7959" fill="#84BE84" rx="3" ry="3" style="stroke:#038048;stroke-width:1.0;"/><text fill="#000000" font-family="sans-serif" font-size="14" lengthAdjust="spacing" textLength="434" x="643" y="1078.1426">inputRegInfo(username: String, password: String, email: String)</text><ellipse cx="634" cy="1091.0928" fill="#84BE84" rx="3" ry="3" style="stroke:#038048;stroke-width:1.0;"/><text fill="#000000" font-family="sans-serif" font-size="14" lengthAdjust="spacing" textLength="446" x="643" y="1094.4395">submitRegInfo(username: String, password: String, email: String)</text><ellipse cx="634" cy="1107.3897" fill="#84BE84" rx="3" ry="3" style="stroke:#038048;stroke-width:1.0;"/><text fill="#000000" font-family="sans-serif" font-size="14" lengthAdjust="spacing" textLength="144" x="643" y="1110.7364">displayConfirmation()</text><ellipse cx="634" cy="1123.6866" fill="#84BE84" rx="3" ry="3" style="stroke:#038048;stroke-width:1.0;"/><text fill="#000000" font-family="sans-serif" font-size="14" lengthAdjust="spacing" textLength="201" x="643" y="1127.0332">displayError(errorMsg: String)</text></g><!--class LoginScreen--><g id="elem_LoginScreen"><rect codeLine="23" fill="#F1F1F1" height="162.0781" id="LoginScreen" rx="2.5" ry="2.5" style="stroke:#181818;stroke-width:0.5;" width="404" x="657" y="775.2569"/><ellipse cx="811.75" cy="791.2569" fill="#ADD1B2" rx="11" ry="11" style="stroke:#181818;stroke-width:1.0;"/><path d="M814.7188,796.8975 Q814.1406,797.1944 813.5,797.335 Q812.8594,797.4913 812.1563,797.4913 Q809.6563,797.4913 808.3281,795.8506 Q807.0156,794.1944 807.0156,791.0694 Q807.0156,787.9444 808.3281,786.2881 Q809.6563,784.6319 812.1563,784.6319 Q812.8594,784.6319 813.5,784.7881 Q814.1563,784.9444 814.7188,785.2413 L814.7188,787.96 Q814.0938,787.3819 813.5,787.1163 Q812.9063,786.835 812.2813,786.835 Q810.9375,786.835 810.25,787.9131 Q809.5625,788.9756 809.5625,791.0694 Q809.5625,793.1631 810.25,794.2413 Q810.9375,795.3038 812.2813,795.3038 Q812.9063,795.3038 813.5,795.0381 Q814.0938,794.7569 814.7188,794.1788 L814.7188,796.8975 Z " fill="#000000"/><text fill="#000000" font-family="sans-serif" font-size="14" lengthAdjust="spacing" textLength="86" x="832.25" y="796.1036">LoginScreen</text><line style="stroke:#181818;stroke-width:0.5;" x1="658" x2="1060" y1="807.2569" y2="807.2569"/><ellipse cx="668" cy="820.9053" fill="none" rx="3" ry="3" style="stroke:#038048;stroke-width:1.0;"/><text fill="#000000" font-family="sans-serif" font-size="14" lengthAdjust="spacing" textLength="267" x="677" y="824.252">Input Fields | &#29992;&#25143;&#21517;, &#23494;&#30721; : &#36755;&#20837;&#30331;&#24405;&#20973;&#35777;</text><ellipse cx="668" cy="837.2022" fill="none" rx="3" ry="3" style="stroke:#038048;stroke-width:1.0;"/><text fill="#000000" font-family="sans-serif" font-size="14" lengthAdjust="spacing" textLength="157" x="677" y="840.5489">Login Button | &#30331;&#24405;&#31995;&#32479;</text><line style="stroke:#181818;stroke-width:0.5;" x1="658" x2="1060" y1="847.8506" y2="847.8506"/><ellipse cx="668" cy="861.4991" fill="#84BE84" rx="3" ry="3" style="stroke:#038048;stroke-width:1.0;"/><text fill="#000000" font-family="sans-serif" font-size="14" lengthAdjust="spacing" textLength="119" x="677" y="864.8457">showLoginForm()</text><ellipse cx="668" cy="877.7959" fill="#84BE84" rx="3" ry="3" style="stroke:#038048;stroke-width:1.0;"/><text fill="#000000" font-family="sans-serif" font-size="14" lengthAdjust="spacing" textLength="366" x="677" y="881.1426">inputCredentials(username: String, password: String)</text><ellipse cx="668" cy="894.0928" fill="#84BE84" rx="3" ry="3" style="stroke:#038048;stroke-width:1.0;"/><text fill="#000000" font-family="sans-serif" font-size="14" lengthAdjust="spacing" textLength="378" x="677" y="897.4395">submitCredentials(username: String, password: String)</text><ellipse cx="668" cy="910.3897" fill="#84BE84" rx="3" ry="3" style="stroke:#038048;stroke-width:1.0;"/><text fill="#000000" font-family="sans-serif" font-size="14" lengthAdjust="spacing" textLength="138" x="677" y="913.7364">displayMainScreen()</text><ellipse cx="668" cy="926.6866" fill="#84BE84" rx="3" ry="3" style="stroke:#038048;stroke-width:1.0;"/><text fill="#000000" font-family="sans-serif" font-size="14" lengthAdjust="spacing" textLength="201" x="677" y="930.0332">displayError(errorMsg: String)</text></g><!--class UploadScreen--><g id="elem_UploadScreen"><rect codeLine="32" fill="#F1F1F1" height="145.7813" id="UploadScreen" rx="2.5" ry="2.5" style="stroke:#181818;stroke-width:0.5;" width="250" x="734" y="594.4069"/><ellipse cx="806.25" cy="610.4069" fill="#ADD1B2" rx="11" ry="11" style="stroke:#181818;stroke-width:1.0;"/><path d="M809.2188,616.0475 Q808.6406,616.3444 808,616.485 Q807.3594,616.6413 806.6563,616.6413 Q804.1563,616.6413 802.8281,615.0006 Q801.5156,613.3444 801.5156,610.2194 Q801.5156,607.0944 802.8281,605.4381 Q804.1563,603.7819 806.6563,603.7819 Q807.3594,603.7819 808,603.9381 Q808.6563,604.0944 809.2188,604.3913 L809.2188,607.11 Q808.5938,606.5319 808,606.2663 Q807.4063,605.985 806.7813,605.985 Q805.4375,605.985 804.75,607.0631 Q804.0625,608.1256 804.0625,610.2194 Q804.0625,612.3131 804.75,613.3913 Q805.4375,614.4538 806.7813,614.4538 Q807.4063,614.4538 808,614.1881 Q808.5938,613.9069 809.2188,613.3288 L809.2188,616.0475 Z " fill="#000000"/><text fill="#000000" font-family="sans-serif" font-size="14" lengthAdjust="spacing" textLength="97" x="826.75" y="615.2536">UploadScreen</text><line style="stroke:#181818;stroke-width:0.5;" x1="735" x2="983" y1="626.4069" y2="626.4069"/><ellipse cx="745" cy="640.0553" fill="none" rx="3" ry="3" style="stroke:#038048;stroke-width:1.0;"/><text fill="#000000" font-family="sans-serif" font-size="14" lengthAdjust="spacing" textLength="199" x="754" y="643.402">Photo Selector | &#36873;&#25321;&#29031;&#29255;&#19978;&#20256;</text><ellipse cx="745" cy="656.3522" fill="none" rx="3" ry="3" style="stroke:#038048;stroke-width:1.0;"/><text fill="#000000" font-family="sans-serif" font-size="14" lengthAdjust="spacing" textLength="224" x="754" y="659.6989">Upload Button | &#25552;&#20132;&#29031;&#29255;&#36827;&#34892;&#20998;&#26512;</text><line style="stroke:#181818;stroke-width:0.5;" x1="735" x2="983" y1="667.0006" y2="667.0006"/><ellipse cx="745" cy="680.6491" fill="#84BE84" rx="3" ry="3" style="stroke:#038048;stroke-width:1.0;"/><text fill="#000000" font-family="sans-serif" font-size="14" lengthAdjust="spacing" textLength="130" x="754" y="683.9957">showUploadForm()</text><ellipse cx="745" cy="696.9459" fill="#84BE84" rx="3" ry="3" style="stroke:#038048;stroke-width:1.0;"/><text fill="#000000" font-family="sans-serif" font-size="14" lengthAdjust="spacing" textLength="86" x="754" y="700.2926">inputPhoto()</text><ellipse cx="745" cy="713.2428" fill="#84BE84" rx="3" ry="3" style="stroke:#038048;stroke-width:1.0;"/><text fill="#000000" font-family="sans-serif" font-size="14" lengthAdjust="spacing" textLength="171" x="754" y="716.5895">submitPhoto(photo: File)</text><ellipse cx="745" cy="729.5397" fill="#84BE84" rx="3" ry="3" style="stroke:#038048;stroke-width:1.0;"/><text fill="#000000" font-family="sans-serif" font-size="14" lengthAdjust="spacing" textLength="201" x="754" y="732.8864">displayError(errorMsg: String)</text></g><!--class ResultDisplayScreen--><g id="elem_ResultDisplayScreen"><rect codeLine="40" fill="#F1F1F1" height="113.1875" id="ResultDisplayScreen" rx="2.5" ry="2.5" style="stroke:#181818;stroke-width:0.5;" width="229" x="1255" y="610.7069"/><ellipse cx="1294.75" cy="626.7069" fill="#ADD1B2" rx="11" ry="11" style="stroke:#181818;stroke-width:1.0;"/><path d="M1297.7188,632.3475 Q1297.1406,632.6444 1296.5,632.785 Q1295.8594,632.9413 1295.1563,632.9413 Q1292.6563,632.9413 1291.3281,631.3006 Q1290.0156,629.6444 1290.0156,626.5194 Q1290.0156,623.3944 1291.3281,621.7381 Q1292.6563,620.0819 1295.1563,620.0819 Q1295.8594,620.0819 1296.5,620.2381 Q1297.1563,620.3944 1297.7188,620.6913 L1297.7188,623.41 Q1297.0938,622.8319 1296.5,622.5663 Q1295.9063,622.285 1295.2813,622.285 Q1293.9375,622.285 1293.25,623.3631 Q1292.5625,624.4256 1292.5625,626.5194 Q1292.5625,628.6131 1293.25,629.6913 Q1293.9375,630.7538 1295.2813,630.7538 Q1295.9063,630.7538 1296.5,630.4881 Q1297.0938,630.2069 1297.7188,629.6288 L1297.7188,632.3475 Z " fill="#000000"/><text fill="#000000" font-family="sans-serif" font-size="14" lengthAdjust="spacing" textLength="142" x="1314.25" y="631.5536">ResultDisplayScreen</text><line style="stroke:#181818;stroke-width:0.5;" x1="1256" x2="1483" y1="642.7069" y2="642.7069"/><ellipse cx="1266" cy="656.3553" fill="none" rx="3" ry="3" style="stroke:#038048;stroke-width:1.0;"/><text fill="#000000" font-family="sans-serif" font-size="14" lengthAdjust="spacing" textLength="203" x="1275" y="659.702">Result Text | &#26174;&#31034;&#20998;&#26512;&#32467;&#26524;&#25991;&#26412;</text><ellipse cx="1266" cy="672.6522" fill="none" rx="3" ry="3" style="stroke:#038048;stroke-width:1.0;"/><text fill="#000000" font-family="sans-serif" font-size="14" lengthAdjust="spacing" textLength="147" x="1275" y="675.9989">Graphs | &#32467;&#26524;&#22270;&#34920;&#23637;&#31034;</text><line style="stroke:#181818;stroke-width:0.5;" x1="1256" x2="1483" y1="683.3006" y2="683.3006"/><ellipse cx="1266" cy="696.9491" fill="#84BE84" rx="3" ry="3" style="stroke:#038048;stroke-width:1.0;"/><text fill="#000000" font-family="sans-serif" font-size="14" lengthAdjust="spacing" textLength="178" x="1275" y="700.2957">showResults(results: List)</text><ellipse cx="1266" cy="713.2459" fill="#84BE84" rx="3" ry="3" style="stroke:#038048;stroke-width:1.0;"/><text fill="#000000" font-family="sans-serif" font-size="14" lengthAdjust="spacing" textLength="188" x="1275" y="716.5926">displayResults(results: List)</text></g><!--class AdviceDisplayScreen--><g id="elem_AdviceDisplayScreen"><rect codeLine="46" fill="#F1F1F1" height="96.8906" id="AdviceDisplayScreen" rx="2.5" ry="2.5" style="stroke:#181818;stroke-width:0.5;" width="253" x="1649" y="653.8469"/><ellipse cx="1699.75" cy="669.8469" fill="#ADD1B2" rx="11" ry="11" style="stroke:#181818;stroke-width:1.0;"/><path d="M1702.7188,675.4875 Q1702.1406,675.7844 1701.5,675.925 Q1700.8594,676.0813 1700.1563,676.0813 Q1697.6563,676.0813 1696.3281,674.4406 Q1695.0156,672.7844 1695.0156,669.6594 Q1695.0156,666.5344 1696.3281,664.8781 Q1697.6563,663.2219 1700.1563,663.2219 Q1700.8594,663.2219 1701.5,663.3781 Q1702.1563,663.5344 1702.7188,663.8313 L1702.7188,666.55 Q1702.0938,665.9719 1701.5,665.7063 Q1700.9063,665.425 1700.2813,665.425 Q1698.9375,665.425 1698.25,666.5031 Q1697.5625,667.5656 1697.5625,669.6594 Q1697.5625,671.7531 1698.25,672.8313 Q1698.9375,673.8938 1700.2813,673.8938 Q1700.9063,673.8938 1701.5,673.6281 Q1702.0938,673.3469 1702.7188,672.7688 L1702.7188,675.4875 Z " fill="#000000"/><text fill="#000000" font-family="sans-serif" font-size="14" lengthAdjust="spacing" textLength="143" x="1720.25" y="674.6936">AdviceDisplayScreen</text><line style="stroke:#181818;stroke-width:0.5;" x1="1650" x2="1901" y1="685.8469" y2="685.8469"/><ellipse cx="1660" cy="699.4953" fill="none" rx="3" ry="3" style="stroke:#038048;stroke-width:1.0;"/><text fill="#000000" font-family="sans-serif" font-size="14" lengthAdjust="spacing" textLength="176" x="1669" y="702.842">Advice Text | &#23637;&#31034;&#20859;&#25252;&#24314;&#35758;</text><line style="stroke:#181818;stroke-width:0.5;" x1="1650" x2="1901" y1="710.1438" y2="710.1438"/><ellipse cx="1660" cy="723.7922" fill="#84BE84" rx="3" ry="3" style="stroke:#038048;stroke-width:1.0;"/><text fill="#000000" font-family="sans-serif" font-size="14" lengthAdjust="spacing" textLength="217" x="1669" y="727.1389">showCareAdvice(advice: String)</text><ellipse cx="1660" cy="740.0891" fill="#84BE84" rx="3" ry="3" style="stroke:#038048;stroke-width:1.0;"/><text fill="#000000" font-family="sans-serif" font-size="14" lengthAdjust="spacing" textLength="227" x="1669" y="743.4357">displayCareAdvice(advice: String)</text></g><!--class HistoryRecordScreen--><g id="elem_HistoryRecordScreen"><rect codeLine="51" fill="#F1F1F1" height="178.375" id="HistoryRecordScreen" rx="2.5" ry="2.5" style="stroke:#181818;stroke-width:0.5;" width="313" x="702.5" y="381.1069"/><ellipse cx="781.75" cy="397.1069" fill="#ADD1B2" rx="11" ry="11" style="stroke:#181818;stroke-width:1.0;"/><path d="M784.7188,402.7475 Q784.1406,403.0444 783.5,403.185 Q782.8594,403.3412 782.1563,403.3412 Q779.6563,403.3412 778.3281,401.7006 Q777.0156,400.0444 777.0156,396.9194 Q777.0156,393.7944 778.3281,392.1381 Q779.6563,390.4819 782.1563,390.4819 Q782.8594,390.4819 783.5,390.6381 Q784.1563,390.7944 784.7188,391.0912 L784.7188,393.81 Q784.0938,393.2319 783.5,392.9662 Q782.9063,392.685 782.2813,392.685 Q780.9375,392.685 780.25,393.7631 Q779.5625,394.8256 779.5625,396.9194 Q779.5625,399.0131 780.25,400.0912 Q780.9375,401.1537 782.2813,401.1537 Q782.9063,401.1537 783.5,400.8881 Q784.0938,400.6069 784.7188,400.0287 L784.7188,402.7475 Z " fill="#000000"/><text fill="#000000" font-family="sans-serif" font-size="14" lengthAdjust="spacing" textLength="146" x="802.25" y="401.9536">HistoryRecordScreen</text><line style="stroke:#181818;stroke-width:0.5;" x1="703.5" x2="1014.5" y1="413.1069" y2="413.1069"/><ellipse cx="713.5" cy="426.7553" fill="none" rx="3" ry="3" style="stroke:#038048;stroke-width:1.0;"/><text fill="#000000" font-family="sans-serif" font-size="14" lengthAdjust="spacing" textLength="174" x="722.5" y="430.102">Record List | &#21382;&#21490;&#35760;&#24405;&#21015;&#34920;</text><ellipse cx="713.5" cy="443.0522" fill="none" rx="3" ry="3" style="stroke:#038048;stroke-width:1.0;"/><text fill="#000000" font-family="sans-serif" font-size="14" lengthAdjust="spacing" textLength="172" x="722.5" y="446.3989">Detail View | &#26597;&#30475;&#35760;&#24405;&#35814;&#24773;</text><line style="stroke:#181818;stroke-width:0.5;" x1="703.5" x2="1014.5" y1="453.7006" y2="453.7006"/><ellipse cx="713.5" cy="467.3491" fill="#84BE84" rx="3" ry="3" style="stroke:#038048;stroke-width:1.0;"/><text fill="#000000" font-family="sans-serif" font-size="14" lengthAdjust="spacing" textLength="152" x="722.5" y="470.6957">selectHistoryFeature()</text><ellipse cx="713.5" cy="483.6459" fill="#84BE84" rx="3" ry="3" style="stroke:#038048;stroke-width:1.0;"/><text fill="#000000" font-family="sans-serif" font-size="14" lengthAdjust="spacing" textLength="205" x="722.5" y="486.9926">displayHistory(historyList: List)</text><ellipse cx="713.5" cy="499.9428" fill="#84BE84" rx="3" ry="3" style="stroke:#038048;stroke-width:1.0;"/><text fill="#000000" font-family="sans-serif" font-size="14" lengthAdjust="spacing" textLength="185" x="722.5" y="503.2895">selectRecord(recordId: Int)</text><ellipse cx="713.5" cy="516.2397" fill="#84BE84" rx="3" ry="3" style="stroke:#038048;stroke-width:1.0;"/><text fill="#000000" font-family="sans-serif" font-size="14" lengthAdjust="spacing" textLength="227" x="722.5" y="519.5864">showRecordDetails(recordId: Int)</text><ellipse cx="713.5" cy="532.5366" fill="#84BE84" rx="3" ry="3" style="stroke:#038048;stroke-width:1.0;"/><text fill="#000000" font-family="sans-serif" font-size="14" lengthAdjust="spacing" textLength="287" x="722.5" y="535.8832">chooseAction(action: String, recordId: Int)</text><ellipse cx="713.5" cy="548.8334" fill="#84BE84" rx="3" ry="3" style="stroke:#038048;stroke-width:1.0;"/><text fill="#000000" font-family="sans-serif" font-size="14" lengthAdjust="spacing" textLength="163" x="722.5" y="552.1801">displayUpdatedHistory()</text></g><!--class ShareScreen--><g id="elem_ShareScreen"><rect codeLine="61" fill="#F1F1F1" height="113.1875" id="ShareScreen" rx="2.5" ry="2.5" style="stroke:#181818;stroke-width:0.5;" width="277" x="1637" y="505.7069"/><ellipse cx="1726.75" cy="521.7069" fill="#ADD1B2" rx="11" ry="11" style="stroke:#181818;stroke-width:1.0;"/><path d="M1729.7188,527.3475 Q1729.1406,527.6444 1728.5,527.785 Q1727.8594,527.9413 1727.1563,527.9413 Q1724.6563,527.9413 1723.3281,526.3006 Q1722.0156,524.6444 1722.0156,521.5194 Q1722.0156,518.3944 1723.3281,516.7381 Q1724.6563,515.0819 1727.1563,515.0819 Q1727.8594,515.0819 1728.5,515.2381 Q1729.1563,515.3944 1729.7188,515.6913 L1729.7188,518.41 Q1729.0938,517.8319 1728.5,517.5663 Q1727.9063,517.285 1727.2813,517.285 Q1725.9375,517.285 1725.25,518.3631 Q1724.5625,519.4256 1724.5625,521.5194 Q1724.5625,523.6131 1725.25,524.6913 Q1725.9375,525.7538 1727.2813,525.7538 Q1727.9063,525.7538 1728.5,525.4881 Q1729.0938,525.2069 1729.7188,524.6288 L1729.7188,527.3475 Z " fill="#000000"/><text fill="#000000" font-family="sans-serif" font-size="14" lengthAdjust="spacing" textLength="89" x="1747.25" y="526.5536">ShareScreen</text><line style="stroke:#181818;stroke-width:0.5;" x1="1638" x2="1913" y1="537.7069" y2="537.7069"/><ellipse cx="1648" cy="551.3553" fill="none" rx="3" ry="3" style="stroke:#038048;stroke-width:1.0;"/><text fill="#000000" font-family="sans-serif" font-size="14" lengthAdjust="spacing" textLength="251" x="1657" y="554.702">Share Options | &#20998;&#20139;&#21040;&#19981;&#21516;&#24179;&#21488;&#30340;&#36873;&#39033;</text><ellipse cx="1648" cy="567.6522" fill="none" rx="3" ry="3" style="stroke:#038048;stroke-width:1.0;"/><text fill="#000000" font-family="sans-serif" font-size="14" lengthAdjust="spacing" textLength="201" x="1657" y="570.9989">Confirm Button | &#30830;&#35748;&#20998;&#20139;&#25805;&#20316;</text><line style="stroke:#181818;stroke-width:0.5;" x1="1638" x2="1913" y1="578.3006" y2="578.3006"/><ellipse cx="1648" cy="591.9491" fill="#84BE84" rx="3" ry="3" style="stroke:#038048;stroke-width:1.0;"/><text fill="#000000" font-family="sans-serif" font-size="14" lengthAdjust="spacing" textLength="141" x="1657" y="595.2957">showShareOptions()</text><ellipse cx="1648" cy="608.2459" fill="#84BE84" rx="3" ry="3" style="stroke:#038048;stroke-width:1.0;"/><text fill="#000000" font-family="sans-serif" font-size="14" lengthAdjust="spacing" textLength="223" x="1657" y="611.5926">choosePlatform(platform: String)</text></g><!--class Controller--><g id="elem_Controller"><rect codeLine="70" fill="#F1F1F1" height="227.2656" id="Controller" rx="2.5" ry="2.5" style="stroke:#181818;stroke-width:0.5;" width="477" x="22" y="78.6669"/><ellipse cx="222.75" cy="94.6669" fill="#ADD1B2" rx="11" ry="11" style="stroke:#181818;stroke-width:1.0;"/><path d="M225.7188,100.3075 Q225.1406,100.6044 224.5,100.745 Q223.8594,100.9012 223.1563,100.9012 Q220.6563,100.9012 219.3281,99.2606 Q218.0156,97.6044 218.0156,94.4794 Q218.0156,91.3544 219.3281,89.6981 Q220.6563,88.0419 223.1563,88.0419 Q223.8594,88.0419 224.5,88.1981 Q225.1563,88.3544 225.7188,88.6512 L225.7188,91.37 Q225.0938,90.7919 224.5,90.5262 Q223.9063,90.245 223.2813,90.245 Q221.9375,90.245 221.25,91.3231 Q220.5625,92.3856 220.5625,94.4794 Q220.5625,96.5731 221.25,97.6512 Q221.9375,98.7137 223.2813,98.7137 Q223.9063,98.7137 224.5,98.4481 Q225.0938,98.1669 225.7188,97.5887 L225.7188,100.3075 Z " fill="#000000"/><text fill="#000000" font-family="sans-serif" font-size="14" lengthAdjust="spacing" textLength="67" x="243.25" y="99.5136">Controller</text><line style="stroke:#181818;stroke-width:0.5;" x1="23" x2="498" y1="110.6669" y2="110.6669"/><line style="stroke:#181818;stroke-width:0.5;" x1="23" x2="498" y1="118.6669" y2="118.6669"/><ellipse cx="33" cy="132.3153" fill="#84BE84" rx="3" ry="3" style="stroke:#038048;stroke-width:1.0;"/><text fill="#000000" font-family="sans-serif" font-size="14" lengthAdjust="spacing" textLength="451" x="42" y="135.662">validateRegInfo(username: String, password: String, email: String)</text><ellipse cx="33" cy="148.6122" fill="#84BE84" rx="3" ry="3" style="stroke:#038048;stroke-width:1.0;"/><text fill="#000000" font-family="sans-serif" font-size="14" lengthAdjust="spacing" textLength="447" x="42" y="151.9589">createAccount(username: String, password: String, email: String)</text><ellipse cx="33" cy="164.9091" fill="#84BE84" rx="3" ry="3" style="stroke:#038048;stroke-width:1.0;"/><text fill="#000000" font-family="sans-serif" font-size="14" lengthAdjust="spacing" textLength="383" x="42" y="168.2557">validateCredentials(username: String, password: String)</text><ellipse cx="33" cy="181.2059" fill="#84BE84" rx="3" ry="3" style="stroke:#038048;stroke-width:1.0;"/><text fill="#000000" font-family="sans-serif" font-size="14" lengthAdjust="spacing" textLength="215" x="42" y="184.5526">grantAccess(username: String)</text><ellipse cx="33" cy="197.5028" fill="#84BE84" rx="3" ry="3" style="stroke:#038048;stroke-width:1.0;"/><text fill="#000000" font-family="sans-serif" font-size="14" lengthAdjust="spacing" textLength="248" x="42" y="200.8495">checkPhotoRestrictions(photo: File)</text><ellipse cx="33" cy="213.7997" fill="#84BE84" rx="3" ry="3" style="stroke:#038048;stroke-width:1.0;"/><text fill="#000000" font-family="sans-serif" font-size="14" lengthAdjust="spacing" textLength="210" x="42" y="217.1464">analyzeAndPredict(photo: File)</text><ellipse cx="33" cy="230.0966" fill="#84BE84" rx="3" ry="3" style="stroke:#038048;stroke-width:1.0;"/><text fill="#000000" font-family="sans-serif" font-size="14" lengthAdjust="spacing" textLength="301" x="42" y="233.4432">requestCareAdvice(results: List, photo: File)</text><ellipse cx="33" cy="246.3934" fill="#84BE84" rx="3" ry="3" style="stroke:#038048;stroke-width:1.0;"/><text fill="#000000" font-family="sans-serif" font-size="14" lengthAdjust="spacing" textLength="310" x="42" y="249.7401">generateCareAdvice(results: List, photo: File)</text><ellipse cx="33" cy="262.6903" fill="#84BE84" rx="3" ry="3" style="stroke:#038048;stroke-width:1.0;"/><text fill="#000000" font-family="sans-serif" font-size="14" lengthAdjust="spacing" textLength="111" x="42" y="266.037">requestHistory()</text><ellipse cx="33" cy="278.9872" fill="#84BE84" rx="3" ry="3" style="stroke:#038048;stroke-width:1.0;"/><text fill="#000000" font-family="sans-serif" font-size="14" lengthAdjust="spacing" textLength="209" x="42" y="282.3339">reanalyzeRecord(recordId: Int)</text><ellipse cx="33" cy="295.2841" fill="#84BE84" rx="3" ry="3" style="stroke:#038048;stroke-width:1.0;"/><text fill="#000000" font-family="sans-serif" font-size="14" lengthAdjust="spacing" textLength="187" x="42" y="298.6307">deleteRecord(recordId: Int)</text></g><!--class KaggleModel--><g id="elem_KaggleModel"><rect codeLine="83" fill="#F1F1F1" height="64.2969" id="KaggleModel" rx="2.5" ry="2.5" style="stroke:#181818;stroke-width:0.5;" width="236" x="741" y="235.1469"/><ellipse cx="810.25" cy="251.1469" fill="#ADD1B2" rx="11" ry="11" style="stroke:#181818;stroke-width:1.0;"/><path d="M813.2188,256.7875 Q812.6406,257.0844 812,257.225 Q811.3594,257.3813 810.6563,257.3813 Q808.1563,257.3813 806.8281,255.7406 Q805.5156,254.0844 805.5156,250.9594 Q805.5156,247.8344 806.8281,246.1781 Q808.1563,244.5219 810.6563,244.5219 Q811.3594,244.5219 812,244.6781 Q812.6563,244.8344 813.2188,245.1313 L813.2188,247.85 Q812.5938,247.2719 812,247.0063 Q811.4063,246.725 810.7813,246.725 Q809.4375,246.725 808.75,247.8031 Q808.0625,248.8656 808.0625,250.9594 Q808.0625,253.0531 808.75,254.1313 Q809.4375,255.1938 810.7813,255.1938 Q811.4063,255.1938 812,254.9281 Q812.5938,254.6469 813.2188,254.0688 L813.2188,256.7875 Z " fill="#000000"/><text fill="#000000" font-family="sans-serif" font-size="14" lengthAdjust="spacing" textLength="89" x="830.75" y="255.9936">KaggleModel</text><line style="stroke:#181818;stroke-width:0.5;" x1="742" x2="976" y1="267.1469" y2="267.1469"/><line style="stroke:#181818;stroke-width:0.5;" x1="742" x2="976" y1="275.1469" y2="275.1469"/><ellipse cx="752" cy="288.7953" fill="#84BE84" rx="3" ry="3" style="stroke:#038048;stroke-width:1.0;"/><text fill="#000000" font-family="sans-serif" font-size="14" lengthAdjust="spacing" textLength="210" x="761" y="292.142">analyzeAndPredict(photo: File)</text></g><!--class Database--><g id="elem_Database"><rect codeLine="86" fill="#F1F1F1" height="96.8906" id="Database" rx="2.5" ry="2.5" style="stroke:#181818;stroke-width:0.5;" width="339" x="689.5" y="102.8469"/><ellipse cx="821.75" cy="118.8469" fill="#ADD1B2" rx="11" ry="11" style="stroke:#181818;stroke-width:1.0;"/><path d="M824.7188,124.4875 Q824.1406,124.7844 823.5,124.925 Q822.8594,125.0812 822.1563,125.0812 Q819.6563,125.0812 818.3281,123.4406 Q817.0156,121.7844 817.0156,118.6594 Q817.0156,115.5344 818.3281,113.8781 Q819.6563,112.2219 822.1563,112.2219 Q822.8594,112.2219 823.5,112.3781 Q824.1563,112.5344 824.7188,112.8312 L824.7188,115.55 Q824.0938,114.9719 823.5,114.7062 Q822.9063,114.425 822.2813,114.425 Q820.9375,114.425 820.25,115.5031 Q819.5625,116.5656 819.5625,118.6594 Q819.5625,120.7531 820.25,121.8312 Q820.9375,122.8937 822.2813,122.8937 Q822.9063,122.8937 823.5,122.6281 Q824.0938,122.3469 824.7188,121.7687 L824.7188,124.4875 Z " fill="#000000"/><text fill="#000000" font-family="sans-serif" font-size="14" lengthAdjust="spacing" textLength="66" x="842.25" y="123.6936">Database</text><line style="stroke:#181818;stroke-width:0.5;" x1="690.5" x2="1027.5" y1="134.8469" y2="134.8469"/><line style="stroke:#181818;stroke-width:0.5;" x1="690.5" x2="1027.5" y1="142.8469" y2="142.8469"/><ellipse cx="700.5" cy="156.4953" fill="#84BE84" rx="3" ry="3" style="stroke:#038048;stroke-width:1.0;"/><text fill="#000000" font-family="sans-serif" font-size="14" lengthAdjust="spacing" textLength="92" x="709.5" y="159.842">fetchHistory()</text><ellipse cx="700.5" cy="172.7922" fill="#84BE84" rx="3" ry="3" style="stroke:#038048;stroke-width:1.0;"/><text fill="#000000" font-family="sans-serif" font-size="14" lengthAdjust="spacing" textLength="313" x="709.5" y="176.1389">updateRecord(recordId: Int, newResults: List)</text><ellipse cx="700.5" cy="189.0891" fill="#84BE84" rx="3" ry="3" style="stroke:#038048;stroke-width:1.0;"/><text fill="#000000" font-family="sans-serif" font-size="14" lengthAdjust="spacing" textLength="195" x="709.5" y="192.4357">removeRecord(recordId: Int)</text></g><!--link Controller to KaggleModel--><g id="link_Controller_KaggleModel"><path codeLine="94" d="M499.4,222.2069 C582.36,232.6369 665.8668,243.1386 734.6868,251.7886 " fill="none" id="Controller-to-KaggleModel" style="stroke:#181818;stroke-width:1.0;stroke-dasharray:7.0,7.0;"/><polygon fill="#181818" points="740.64,252.5369,732.2091,247.4457,735.679,251.9133,731.2114,255.3833,740.64,252.5369" style="stroke:#181818;stroke-width:1.0;"/><text fill="#000000" font-family="sans-serif" font-size="13" lengthAdjust="spacing" textLength="39" x="541.5" y="224.3638">&#171;use&#187;</text></g><!--link Controller to Database--><g id="link_Controller_Database"><path codeLine="95" d="M499.4,175.9469 C562.87,171.5869 624.1741,167.3683 683.1041,163.3183 " fill="none" id="Controller-to-Database" style="stroke:#181818;stroke-width:1.0;stroke-dasharray:7.0,7.0;"/><polygon fill="#181818" points="689.09,162.9069,679.8369,159.5334,684.1018,163.2497,680.3854,167.5145,689.09,162.9069" style="stroke:#181818;stroke-width:1.0;"/><text fill="#000000" font-family="sans-serif" font-size="13" lengthAdjust="spacing" textLength="39" x="541.5" y="167.3638">&#171;use&#187;</text></g><!--link MainScreen to RegistrationScreen--><g id="link_MainScreen_RegistrationScreen"><path codeLine="99" d="M391.33,835.4769 C459.5,872.9069 544.89,918.2669 623,955.2969 C634.68,960.8369 641.2855,963.9314 653.5255,969.4214 " fill="none" id="MainScreen-to-RegistrationScreen" style="stroke:#181818;stroke-width:1.0;"/><polygon fill="#181818" points="659,971.8769,652.4252,964.5439,654.4379,969.8306,649.1512,971.8433,659,971.8769" style="stroke:#181818;stroke-width:1.0;"/><text fill="#000000" font-family="sans-serif" font-size="13" lengthAdjust="spacing" textLength="62" x="530" y="907.3638">navigates</text></g><!--link MainScreen to LoginScreen--><g id="link_MainScreen_LoginScreen"><path codeLine="100" d="M474.74,795.8969 C533.94,805.2269 592.0832,814.3928 650.5832,823.6128 " fill="none" id="MainScreen-to-LoginScreen" style="stroke:#181818;stroke-width:1.0;"/><polygon fill="#181818" points="656.51,824.5469,648.2425,819.1945,651.571,823.7684,646.997,827.0969,656.51,824.5469" style="stroke:#181818;stroke-width:1.0;"/><text fill="#000000" font-family="sans-serif" font-size="13" lengthAdjust="spacing" textLength="62" x="530" y="803.3638">navigates</text></g><!--link MainScreen to UploadScreen--><g id="link_MainScreen_UploadScreen"><path codeLine="101" d="M474.74,728.3369 C561.53,714.5169 652.8747,699.9709 727.6947,688.0509 " fill="none" id="MainScreen-to-UploadScreen" style="stroke:#181818;stroke-width:1.0;"/><polygon fill="#181818" points="733.62,687.1069,724.1028,684.5727,728.6823,687.8935,725.3614,692.473,733.62,687.1069" style="stroke:#181818;stroke-width:1.0;"/><text fill="#000000" font-family="sans-serif" font-size="13" lengthAdjust="spacing" textLength="62" x="530" y="708.3638">navigates</text></g><!--link UploadScreen to ResultDisplayScreen--><g id="link_UploadScreen_ResultDisplayScreen"><path codeLine="102" d="M984.39,667.2969 C1066.87,667.2969 1168.26,667.2969 1248.52,667.2969 " fill="none" id="UploadScreen-to-ResultDisplayScreen" style="stroke:#181818;stroke-width:1.0;"/><polygon fill="#181818" points="1254.52,667.2969,1245.52,663.2969,1249.52,667.2969,1245.52,671.2969,1254.52,667.2969" style="stroke:#181818;stroke-width:1.0;"/><text fill="#000000" font-family="sans-serif" font-size="13" lengthAdjust="spacing" textLength="98" x="1126" y="663.3638">uploads lead to</text></g><!--link ResultDisplayScreen to AdviceDisplayScreen--><g id="link_ResultDisplayScreen_AdviceDisplayScreen"><path codeLine="103" d="M1484.38,677.1669 C1535.6,681.5969 1590.2524,686.3393 1642.8024,690.8893 " fill="none" id="ResultDisplayScreen-to-AdviceDisplayScreen" style="stroke:#181818;stroke-width:1.0;"/><polygon fill="#181818" points="1648.78,691.4069,1640.1586,686.6454,1643.7986,690.9756,1639.4685,694.6156,1648.78,691.4069" style="stroke:#181818;stroke-width:1.0;"/><text fill="#000000" font-family="sans-serif" font-size="13" lengthAdjust="spacing" textLength="91" x="1515" y="677.3638">results lead to</text></g><!--link MainScreen to HistoryRecordScreen--><g id="link_MainScreen_HistoryRecordScreen"><path codeLine="104" d="M401.1,688.9769 C467.89,654.3769 549.21,612.9569 623,577.2969 C648.43,565.0069 670.1198,554.7959 696.5998,542.6059 " fill="none" id="MainScreen-to-HistoryRecordScreen" style="stroke:#181818;stroke-width:1.0;"/><polygon fill="#181818" points="702.05,540.0969,692.202,540.2269,697.5081,542.1877,695.5473,547.4939,702.05,540.0969" style="stroke:#181818;stroke-width:1.0;"/><text fill="#000000" font-family="sans-serif" font-size="13" lengthAdjust="spacing" textLength="62" x="530" y="593.3638">navigates</text></g><!--link ResultDisplayScreen to ShareScreen--><g id="link_ResultDisplayScreen_ShareScreen"><path codeLine="105" d="M1484.38,637.6969 C1531.75,625.3869 1581.363,612.4963 1630.993,599.5963 " fill="none" id="ResultDisplayScreen-to-ShareScreen" style="stroke:#181818;stroke-width:1.0;"/><polygon fill="#181818" points="1636.8,598.0869,1627.0832,596.4796,1631.9608,599.3447,1629.0957,604.2223,1636.8,598.0869" style="stroke:#181818;stroke-width:1.0;"/><text fill="#000000" font-family="sans-serif" font-size="13" lengthAdjust="spacing" textLength="64" x="1528.5" y="605.3638">options to</text></g><!--SRC=[hLTjJnj74FxkNx7AbxYganzWHKWKIeiQMXI7VEgNvMvjhpZVNdVNKDf6Aabu3HHKchw10aYaeM-6b4fD890_uxip_wApjsTkpPq9fVY3pzvvPlQPcPsPFKcbGr2lvpdKmf8o5_KvM0ZKJt65ungQeBAA-ed4r24s6Xb4VQpcCPUuKkHo3YbB91dYj5ALoAQSMCf4xheOeww7bRw7hJ5S8IKv2TieUIuNBw5hVGu5EwX4RN8DVPb3yB6YpOSmTKiM9yIDbzNdNK4Sq1_n78Rj0O9bdPFyEsV57r8X6P_CaBjud5Qm97TPOjwKVwpbAWJlrQLaha1VeTZS7M8nRckT0j8Ksly-TT5jLcbRBA0xf09AFB8KEr54mUfIysZTtttTclijM9m_-RQHR1npHOEMtjDVEmusPyErlrlF7xIsTiBj0tzXe_NmADAuRuGfOoSpN5Ks0OW1nckccv2OkeJrGRVCydL1k8jhf8XAabEtKe1y2J41lYOhf0QvR_yrurqVhT4hiMHJuJbuie-vPSfhaJlvjFXzpXdF4_Kz92ePPWQLPsY04iTMOGo_smdc_l5NbWh8tvq9DwSAwEH18soyW7IqZbVzwMV1_eu_izXyinLCxIPcIf5VyHa0Ey7oIlDWEuKr4s7a_sm68b5c3leuiU7uK-o82qGl5VXBgyVXp2w2guhrQOp3dmxzeoV-x9-jtQb4FOfA4c8D2lSFmyEDL73DQZiRtRWPP8LtkCeaowV2ffSzzLq4_WwvXFEH3LIA-WtZmF_aw_dWyQ_XzFDmVhRvSg7vUZC1QufdZvF6jjwijROM_RcPuEbAHdMBkYFxDQTkvQqW8i_riuXkGpz8E_Gsc9QZk-HpgGZ-UAnQJaGgF5mDdgu7tyy6wtya-0yuzgfHsYCnz2jeK_wB9w2MygBN7gSMETUBFio9XkLnz3YdHLm0gkLjRpGjV_emMDZs3mzQZKQAOaQFJu-TxdCbfXO3ybNzL25E1LgRqXj1DjHZ44fqqEq0HObLCZrsHLUaLMLCaDvevkPnz4WwG3UbcEw8PyCijDkiEqw3Keoeg_XzC-Cl_zLgxAagdli14fqWDJzqZv89TMusdeNhZpMojVjBy70w5UbI5VANVGWYqIUUya7aKpuEErYMLPLxyO-Cl4SMK6n2CP-RQHxyxi_jDLyk-IkB_gjzVtal_FaH5El9rgj4BnuxHZVQQhGQsrfTp-tOaVl6tQL4-3ZX6NSNC2SvSnmG6YwEOuUgW5_5k8JuWQLUos9rL_ulIsrMbvubS4Lq9J0X8gtOaKHYZKLT4reD22sTvkmkZ5tiJ7v1Ubrx66W1jWkEay_gOCre2Htz3NXdgbM8IxZo-J_gnTjb50oaGrD-Is7RKFto791PAH_XIiKXGmnqp6DqWTYOLlgnnADO4DD4cKYhck55tTFdCyskW5pI7ZMfbiP9ZOsVwnHKpNNGSk6Le8ACia7OjP7n2e2ivCt2AAARDtiweb54jsx1KUlfEGiwTJP1mCRtgAXZ1xgX4zqhHPLw0eqIEQ5wa8XQaOYOG8cug5ntzTa4pH4up-Z6ZHxpRQIeLaNEM560p1j_-tKZXJOlY-V0Eguz9gv3eBTFNnIAg1x11788t3uaosMXb7RMW2wYk2HEjS-GongP9iTkcva3e8XOtAib-nS0]--></g></svg>