<?xml version="1.0" encoding="us-ascii" standalone="no"?><svg xmlns="http://www.w3.org/2000/svg" xmlns:xlink="http://www.w3.org/1999/xlink" contentStyleType="text/css" height="457px" preserveAspectRatio="none" style="width:952px;height:457px;background:#F9F9F9;" version="1.1" viewBox="0 0 952 457" width="952px" zoomAndPan="magnify"><defs/><g><rect fill="#F9F9F9" height="457" style="stroke:none;stroke-width:1.0;" width="952" x="0" y="0"/><rect fill="#FFFFFF" height="29.1328" style="stroke:#393939;stroke-width:1.0;" width="10" x="36" y="125.6953"/><rect fill="#FFFFFF" height="345.2656" style="stroke:#393939;stroke-width:1.0;" width="10" x="202" y="67.4297"/><rect fill="#FFFFFF" height="316.1328" style="stroke:#393939;stroke-width:1.0;" width="10" x="353" y="96.5625"/><rect fill="#FFFFFF" height="228.7344" style="stroke:#393939;stroke-width:1.0;" width="10" x="580" y="183.9609"/><rect fill="#FFFFFF" height="29.1328" style="stroke:#393939;stroke-width:1.0;" width="10" x="777" y="237.2266"/><rect fill="#FFFFFF" height="29.1328" style="stroke:#393939;stroke-width:1.0;" width="10" x="881.5" y="295.4922"/><rect fill="none" height="206.7344" rx="3.5" ry="3.5" style="stroke:#393939;stroke-width:1.0;" width="935.5" x="10" y="198.9609"/><line style="stroke:#393939;stroke-width:0.5;stroke-dasharray:5.0,5.0;" x1="41" x2="41" y1="36.2969" y2="422.6953"/><line style="stroke:#393939;stroke-width:0.5;stroke-dasharray:5.0,5.0;" x1="207" x2="207" y1="36.2969" y2="422.6953"/><line style="stroke:#393939;stroke-width:0.5;stroke-dasharray:5.0,5.0;" x1="358" x2="358" y1="36.2969" y2="422.6953"/><line style="stroke:#393939;stroke-width:0.5;stroke-dasharray:5.0,5.0;" x1="585" x2="585" y1="36.2969" y2="422.6953"/><line style="stroke:#393939;stroke-width:0.5;stroke-dasharray:5.0,5.0;" x1="781.5" x2="781.5" y1="36.2969" y2="422.6953"/><line style="stroke:#393939;stroke-width:0.5;stroke-dasharray:5.0,5.0;" x1="886.5" x2="886.5" y1="36.2969" y2="422.6953"/><rect fill="#E55756" height="30.2969" rx="3.5" ry="3.5" style="stroke:#191919;stroke-width:1.5;" width="42" x="20" y="5"/><text fill="#F9F9F9" font-family="sans-serif" font-size="14" lengthAdjust="spacing" textLength="28" x="27" y="24.9951">&#29992;&#25143;</text><rect fill="#E55756" height="30.2969" rx="3.5" ry="3.5" style="stroke:#191919;stroke-width:1.5;" width="42" x="20" y="421.6953"/><text fill="#F9F9F9" font-family="sans-serif" font-size="14" lengthAdjust="spacing" textLength="28" x="27" y="441.6904">&#29992;&#25143;</text><rect fill="#E55756" height="30.2969" rx="3.5" ry="3.5" style="stroke:#191919;stroke-width:1.5;" width="56" x="179" y="5"/><text fill="#F9F9F9" font-family="sans-serif" font-size="14" lengthAdjust="spacing" textLength="42" x="186" y="24.9951">&#20027;&#30028;&#38754;</text><rect fill="#E55756" height="30.2969" rx="3.5" ry="3.5" style="stroke:#191919;stroke-width:1.5;" width="56" x="179" y="421.6953"/><text fill="#F9F9F9" font-family="sans-serif" font-size="14" lengthAdjust="spacing" textLength="42" x="186" y="441.6904">&#20027;&#30028;&#38754;</text><rect fill="#E55756" height="30.2969" rx="3.5" ry="3.5" style="stroke:#191919;stroke-width:1.5;" width="70" x="323" y="5"/><text fill="#F9F9F9" font-family="sans-serif" font-size="14" lengthAdjust="spacing" textLength="56" x="330" y="24.9951">&#19978;&#20256;&#30028;&#38754;</text><rect fill="#E55756" height="30.2969" rx="3.5" ry="3.5" style="stroke:#191919;stroke-width:1.5;" width="70" x="323" y="421.6953"/><text fill="#F9F9F9" font-family="sans-serif" font-size="14" lengthAdjust="spacing" textLength="56" x="330" y="441.6904">&#19978;&#20256;&#30028;&#38754;</text><rect fill="#E55756" height="30.2969" rx="3.5" ry="3.5" style="stroke:#191919;stroke-width:1.5;" width="56" x="557" y="5"/><text fill="#F9F9F9" font-family="sans-serif" font-size="14" lengthAdjust="spacing" textLength="42" x="564" y="24.9951">&#25511;&#21046;&#22120;</text><rect fill="#E55756" height="30.2969" rx="3.5" ry="3.5" style="stroke:#191919;stroke-width:1.5;" width="56" x="557" y="421.6953"/><text fill="#F9F9F9" font-family="sans-serif" font-size="14" lengthAdjust="spacing" textLength="42" x="564" y="441.6904">&#25511;&#21046;&#22120;</text><rect fill="#E55756" height="30.2969" rx="3.5" ry="3.5" style="stroke:#191919;stroke-width:1.5;" width="91" x="736.5" y="5"/><text fill="#F9F9F9" font-family="sans-serif" font-size="14" lengthAdjust="spacing" textLength="77" x="743.5" y="24.9951">Kaggle&#27169;&#22411;</text><rect fill="#E55756" height="30.2969" rx="3.5" ry="3.5" style="stroke:#191919;stroke-width:1.5;" width="91" x="736.5" y="421.6953"/><text fill="#F9F9F9" font-family="sans-serif" font-size="14" lengthAdjust="spacing" textLength="77" x="743.5" y="441.6904">Kaggle&#27169;&#22411;</text><rect fill="#E55756" height="30.2969" rx="3.5" ry="3.5" style="stroke:#191919;stroke-width:1.5;" width="98" x="837.5" y="5"/><text fill="#F9F9F9" font-family="sans-serif" font-size="14" lengthAdjust="spacing" textLength="84" x="844.5" y="24.9951">&#32467;&#26524;&#23637;&#31034;&#30028;&#38754;</text><rect fill="#E55756" height="30.2969" rx="3.5" ry="3.5" style="stroke:#191919;stroke-width:1.5;" width="98" x="837.5" y="421.6953"/><text fill="#F9F9F9" font-family="sans-serif" font-size="14" lengthAdjust="spacing" textLength="84" x="844.5" y="441.6904">&#32467;&#26524;&#23637;&#31034;&#30028;&#38754;</text><rect fill="#FFFFFF" height="29.1328" style="stroke:#393939;stroke-width:1.0;" width="10" x="36" y="125.6953"/><rect fill="#FFFFFF" height="345.2656" style="stroke:#393939;stroke-width:1.0;" width="10" x="202" y="67.4297"/><rect fill="#FFFFFF" height="316.1328" style="stroke:#393939;stroke-width:1.0;" width="10" x="353" y="96.5625"/><rect fill="#FFFFFF" height="228.7344" style="stroke:#393939;stroke-width:1.0;" width="10" x="580" y="183.9609"/><rect fill="#FFFFFF" height="29.1328" style="stroke:#393939;stroke-width:1.0;" width="10" x="777" y="237.2266"/><rect fill="#FFFFFF" height="29.1328" style="stroke:#393939;stroke-width:1.0;" width="10" x="881.5" y="295.4922"/><polygon fill="#191919" points="190,63.4297,200,67.4297,190,71.4297,194,67.4297" style="stroke:#191919;stroke-width:1.0;"/><line style="stroke:#191919;stroke-width:1.0;" x1="41" x2="196" y1="67.4297" y2="67.4297"/><text fill="#000000" font-family="sans-serif" font-size="13" lengthAdjust="spacing" textLength="142" x="48" y="62.3638">SelectUploadFeature()</text><polygon fill="#191919" points="341,92.5625,351,96.5625,341,100.5625,345,96.5625" style="stroke:#191919;stroke-width:1.0;"/><line style="stroke:#191919;stroke-width:1.0;" x1="212" x2="347" y1="96.5625" y2="96.5625"/><text fill="#000000" font-family="sans-serif" font-size="13" lengthAdjust="spacing" textLength="122" x="219" y="91.4966">ShowUploadForm()</text><polygon fill="#191919" points="57,121.6953,47,125.6953,57,129.6953,53,125.6953" style="stroke:#191919;stroke-width:1.0;"/><line style="stroke:#191919;stroke-width:1.0;" x1="51" x2="352" y1="125.6953" y2="125.6953"/><text fill="#000000" font-family="sans-serif" font-size="13" lengthAdjust="spacing" textLength="79" x="63" y="120.6294">InputPhoto()</text><polygon fill="#191919" points="341,150.8281,351,154.8281,341,158.8281,345,154.8281" style="stroke:#191919;stroke-width:1.0;"/><line style="stroke:#191919;stroke-width:1.0;" x1="41" x2="347" y1="154.8281" y2="154.8281"/><text fill="#000000" font-family="sans-serif" font-size="13" lengthAdjust="spacing" textLength="129" x="48" y="149.7622">SubmitPhoto(photo)</text><polygon fill="#191919" points="568,179.9609,578,183.9609,568,187.9609,572,183.9609" style="stroke:#191919;stroke-width:1.0;"/><line style="stroke:#191919;stroke-width:1.0;" x1="363" x2="574" y1="183.9609" y2="183.9609"/><text fill="#000000" font-family="sans-serif" font-size="13" lengthAdjust="spacing" textLength="198" x="370" y="178.895">CheckPhotoRestrictions(photo)</text><path d="M13.5,198.9609 L76,198.9609 L76,206.0938 L66,216.0938 L10,216.0938 L10,202.4609 A3.5,3.5 0 0 1 13.5,198.9609 " fill="#EEEEEE" style="stroke:#393939;stroke-width:1.5;"/><rect fill="none" height="206.7344" rx="3.5" ry="3.5" style="stroke:#393939;stroke-width:1.0;" width="935.5" x="10" y="198.9609"/><text fill="#191919" font-family="sans-serif" font-size="13" font-weight="bold" lengthAdjust="spacing" textLength="21" x="25" y="212.0278">alt</text><text fill="#393939" font-family="sans-serif" font-size="11" font-weight="bold" lengthAdjust="spacing" textLength="76" x="91" y="211.1714">[&#29031;&#29255;&#28385;&#36275;&#35201;&#27714;]</text><polygon fill="#191919" points="765,233.2266,775,237.2266,765,241.2266,769,237.2266" style="stroke:#191919;stroke-width:1.0;"/><line style="stroke:#191919;stroke-width:1.0;" x1="590" x2="771" y1="237.2266" y2="237.2266"/><text fill="#000000" font-family="sans-serif" font-size="13" lengthAdjust="spacing" textLength="167" x="597" y="232.1606">AnalyzeAndPredict(photo)</text><polygon fill="#191919" points="601,262.3594,591,266.3594,601,270.3594,597,266.3594" style="stroke:#191919;stroke-width:1.0;"/><line style="stroke:#191919;stroke-width:1.0;" x1="595" x2="781" y1="266.3594" y2="266.3594"/><text fill="#000000" font-family="sans-serif" font-size="13" lengthAdjust="spacing" textLength="163" x="607" y="261.2935">PredictionResults(results)</text><polygon fill="#191919" points="869.5,291.4922,879.5,295.4922,869.5,299.4922,873.5,295.4922" style="stroke:#191919;stroke-width:1.0;"/><line style="stroke:#191919;stroke-width:1.0;" x1="590" x2="875.5" y1="295.4922" y2="295.4922"/><text fill="#000000" font-family="sans-serif" font-size="13" lengthAdjust="spacing" textLength="135" x="597" y="290.4263">ShowResults(results)</text><polygon fill="#191919" points="52,320.625,42,324.625,52,328.625,48,324.625" style="stroke:#191919;stroke-width:1.0;"/><line style="stroke:#191919;stroke-width:1.0;" x1="46" x2="885.5" y1="324.625" y2="324.625"/><text fill="#000000" font-family="sans-serif" font-size="13" lengthAdjust="spacing" textLength="147" x="58" y="319.5591">DisplayResults(results)</text><line style="stroke:#393939;stroke-width:1.0;stroke-dasharray:2.0,2.0;" x1="10" x2="945.5" y1="333.625" y2="333.625"/><text fill="#393939" font-family="sans-serif" font-size="11" font-weight="bold" lengthAdjust="spacing" textLength="87" x="15" y="343.8354">[&#29031;&#29255;&#19981;&#28385;&#36275;&#35201;&#27714;]</text><polygon fill="#191919" points="374,364.5625,364,368.5625,374,372.5625,370,368.5625" style="stroke:#191919;stroke-width:1.0;"/><line style="stroke:#191919;stroke-width:1.0;" x1="368" x2="579" y1="368.5625" y2="368.5625"/><text fill="#000000" font-family="sans-serif" font-size="13" lengthAdjust="spacing" textLength="177" x="380" y="363.4966">ShowError("&#29031;&#29255;&#19981;&#31526;&#21512;&#35201;&#27714;")</text><polygon fill="#191919" points="52,393.6953,42,397.6953,52,401.6953,48,397.6953" style="stroke:#191919;stroke-width:1.0;"/><line style="stroke:#191919;stroke-width:1.0;" x1="46" x2="352" y1="397.6953" y2="397.6953"/><text fill="#000000" font-family="sans-serif" font-size="13" lengthAdjust="spacing" textLength="189" x="58" y="392.6294">DisplayError("&#29031;&#29255;&#19981;&#31526;&#21512;&#35201;&#27714;")</text><!--SRC=[XLFDIiGm4BxdAM9Fwy4Ny228Fo0YB8eF4Dl1biqs9KaLlIc8wo-2xa5GKH7TWnSHT75zd6shRs7IhJMfolRGGsU-dvdvEY9zQ09k4YvGHBWCt20YeSJPMITjlM8YS2o0MoMdt-rbxSFForj7rqaKLSlx_VTheoEEA2FUaii1GhirFNv8MY_9UIVlSraeEQEqgZTFLbSff9sRvEeWRspa7nQO1zJkp7gdwTL5yjJExjuC0nn4J6LX0Ec1yDY4Dex7yH9GSELoRd4MY8mvr4OHSMMmHYJaqo7TgG3c71hfi_K2ntZJ15a38mkcQRJ-E9uBerZMVIQP1TNRBYrM5UELPb1W8lqUHHvKeHMrdwKgWYaVt4QENmGXUQ2WB1JVN2MJSGX4g0h3paEsjvlsRZvUdZ_kjzAdROJLOr0h8UCeIcao97HZ4oP3hyx1KqBV8XfO2fc7p2icITLyGQGSB-Rt5BN1NSM0rDZ4BrhRgHc7uev_CfPyTdvqoQBukUbq829ADeRvi_Y02YWstEyU3Ldo7n6SuPpncbCoP8_toKbhmE0CfFz9OE5s20647Z9ZPeJ339yPUUEx-dM-0000]--></g></svg>