<?xml version="1.0" encoding="us-ascii" standalone="no"?><svg xmlns="http://www.w3.org/2000/svg" xmlns:xlink="http://www.w3.org/1999/xlink" contentStyleType="text/css" height="828px" preserveAspectRatio="none" style="width:975px;height:828px;background:#F9F9F9;" version="1.1" viewBox="0 0 975 828" width="975px" zoomAndPan="magnify"><defs/><g><rect fill="#F9F9F9" height="828" style="stroke:none;stroke-width:1.0;" width="975" x="0" y="0"/><ellipse cx="487.5" cy="16" fill="#222222" rx="10" ry="10" style="stroke:#222222;stroke-width:1.0;"/><path d="M10.5,87 L964.5,87 A3.5,3.5 0 0 1 968,90.5 L968,113.2969 L7,113.2969 L7,90.5 A3.5,3.5 0 0 1 10.5,87 " fill="#F1F1F1" style="stroke:#F1F1F1;stroke-width:1.0;"/><rect fill="none" height="635.5938" rx="3.5" ry="3.5" style="stroke:#181818;stroke-width:0.5;" width="961" x="7" y="87"/><line style="stroke:#181818;stroke-width:0.5;" x1="7" x2="968" y1="113.2969" y2="113.2969"/><text fill="#000000" font-family="sans-serif" font-size="14" lengthAdjust="spacing" textLength="42" x="466.5" y="104.9951">&#20027;&#30028;&#38754;</text><path d="M22.5,290.2969 L255.8724,290.2969 A3.5,3.5 0 0 1 259.3724,293.7969 L259.3724,316.5938 L19,316.5938 L19,293.7969 A3.5,3.5 0 0 1 22.5,290.2969 " fill="#F1F1F1" style="stroke:#F1F1F1;stroke-width:1.0;"/><rect fill="none" height="257.2969" rx="3.5" ry="3.5" style="stroke:#181818;stroke-width:0.5;" width="240.3724" x="19" y="290.2969"/><line style="stroke:#181818;stroke-width:0.5;" x1="19" x2="259.3724" y1="316.5938" y2="316.5938"/><text fill="#000000" font-family="sans-serif" font-size="14" lengthAdjust="spacing" textLength="70" x="104.1862" y="308.292">&#29992;&#25143;&#26410;&#30331;&#24405;</text><ellipse cx="128.3724" cy="337.5938" fill="#222222" rx="10" ry="10" style="stroke:#222222;stroke-width:1.0;"/><g id="&#20027;&#30028;&#38754;.Unlogged.&#30331;&#24405;&#30028;&#38754;"><rect fill="#F1F1F1" height="50" rx="3.5" ry="3.5" style="stroke:#181818;stroke-width:0.5;" width="76" x="90.3724" y="384.5938"/><line style="stroke:#181818;stroke-width:0.5;" x1="90.3724" x2="166.3724" y1="410.8906" y2="410.8906"/><text fill="#000000" font-family="sans-serif" font-size="14" lengthAdjust="spacing" textLength="56" x="100.3724" y="402.5889">&#30331;&#24405;&#30028;&#38754;</text></g><g id="&#20027;&#30028;&#38754;.Unlogged.&#27880;&#20876;&#30028;&#38754;"><rect fill="#F1F1F1" height="50" rx="3.5" ry="3.5" style="stroke:#181818;stroke-width:0.5;" width="76" x="34.3724" y="487.5938"/><line style="stroke:#181818;stroke-width:0.5;" x1="34.3724" x2="110.3724" y1="513.8906" y2="513.8906"/><text fill="#000000" font-family="sans-serif" font-size="14" lengthAdjust="spacing" textLength="56" x="44.3724" y="505.5889">&#27880;&#20876;&#30028;&#38754;</text></g><g id="&#20027;&#30028;&#38754;.Unlogged.&#29992;&#25143;&#24050;&#30331;&#24405;"><rect fill="#F1F1F1" height="50" rx="3.5" ry="3.5" style="stroke:#181818;stroke-width:0.5;" width="90" x="160.3724" y="487.5938"/><line style="stroke:#181818;stroke-width:0.5;" x1="160.3724" x2="250.3724" y1="513.8906" y2="513.8906"/><text fill="#000000" font-family="sans-serif" font-size="14" lengthAdjust="spacing" textLength="70" x="170.3724" y="505.5889">&#29992;&#25143;&#24050;&#30331;&#24405;</text></g><!--link *start*Unlogged to ????--><g id="link_*start*Unlogged_&#30331;&#24405;&#30028;&#38754;"><path d="M128.3724,347.7448 C128.3724,357.0098 128.3724,365.7347 128.3724,378.3778 " fill="none" id="*start*Unlogged-to-&#30331;&#24405;&#30028;&#38754;" style="stroke:#191919;stroke-width:1.0;"/><polygon fill="#191919" points="128.3724,384.3778,132.3724,375.3778,128.3724,379.3778,124.3724,375.3778,128.3724,384.3778" style="stroke:#191919;stroke-width:1.0;"/></g><!--link ???? to ????--><g id="link_&#30331;&#24405;&#30028;&#38754;_&#27880;&#20876;&#30028;&#38754;"><path d="M90.2888,419.2408 C72.4908,425.3958 52.9342,435.6817 42.3724,452.5938 C35.4334,463.705 37.1065,471.7589 44.9993,482.668 " fill="none" id="&#30331;&#24405;&#30028;&#38754;-to-&#27880;&#20876;&#30028;&#38754;" style="stroke:#191919;stroke-width:1.0;"/><polygon fill="#191919" points="48.5163,487.5292,46.4815,477.8928,45.5854,483.4782,40,482.5822,48.5163,487.5292" style="stroke:#191919;stroke-width:1.0;"/><text fill="#000000" font-family="sans-serif" font-size="13" lengthAdjust="spacing" textLength="62" x="43.3724" y="465.6606">&#36873;&#25321;"&#27880;&#20876;"</text></g><!--link ???? to ????--><g id="link_&#27880;&#20876;&#30028;&#38754;_&#30331;&#24405;&#30028;&#38754;"><path d="M94.2733,487.2349 C98.6377,481.6757 102.9307,475.6228 106.3724,469.5938 C112.6051,458.6758 115.77,451.3494 119.467,440.3244 " fill="none" id="&#27880;&#20876;&#30028;&#38754;-to-&#30331;&#24405;&#30028;&#38754;" style="stroke:#191919;stroke-width:1.0;"/><polygon fill="#191919" points="121.3746,434.6358,114.7208,441.8971,119.785,439.3763,122.3057,444.4405,121.3746,434.6358" style="stroke:#191919;stroke-width:1.0;"/><text fill="#000000" font-family="sans-serif" font-size="13" lengthAdjust="spacing" textLength="52" x="114.3724" y="465.6606">&#27880;&#20876;&#25104;&#21151;</text></g><!--link ???? to ?????--><g id="link_&#30331;&#24405;&#30028;&#38754;_&#29992;&#25143;&#24050;&#30331;&#24405;"><path d="M155.4914,434.8438 C161.0474,440.4101 166.6384,446.4932 171.3724,452.5938 C179.7074,463.3343 184.5681,471.0498 190.5301,482.1084 " fill="none" id="&#30331;&#24405;&#30028;&#38754;-to-&#29992;&#25143;&#24050;&#30331;&#24405;" style="stroke:#191919;stroke-width:1.0;"/><polygon fill="#191919" points="193.3774,487.3898,192.6273,477.5695,191.0046,482.9886,185.5855,481.3659,193.3774,487.3898" style="stroke:#191919;stroke-width:1.0;"/><text fill="#000000" font-family="sans-serif" font-size="13" lengthAdjust="spacing" textLength="52" x="183.3724" y="465.6606">&#30331;&#24405;&#25104;&#21151;</text></g><path d="M280.5,125.2969 L955.5,125.2969 A3.5,3.5 0 0 1 959,128.7969 L959,151.5938 L277,151.5938 L277,128.7969 A3.5,3.5 0 0 1 280.5,125.2969 " fill="#F1F1F1" style="stroke:#F1F1F1;stroke-width:1.0;"/><rect fill="none" height="587.2969" rx="3.5" ry="3.5" style="stroke:#181818;stroke-width:0.5;" width="682" x="277" y="125.2969"/><line style="stroke:#181818;stroke-width:0.5;" x1="277" x2="959" y1="151.5938" y2="151.5938"/><text fill="#000000" font-family="sans-serif" font-size="14" lengthAdjust="spacing" textLength="70" x="583" y="143.292">&#29992;&#25143;&#24050;&#30331;&#24405;</text><!--cluster ????--><g id="cluster_&#21382;&#21490;&#35760;&#24405;"><path d="M292.5,272.5938 L719.5,272.5938 A3.5,3.5 0 0 1 723,276.0938 L723,293.8906 L289,293.8906 L289,276.0938 A3.5,3.5 0 0 1 292.5,272.5938 " fill="#F1F1F1" style="stroke:#F1F1F1;stroke-width:1.0;"/><rect fill="none" height="430" rx="3.5" ry="3.5" style="stroke:#181818;stroke-width:0.5;" width="434" x="289" y="272.5938"/><line style="stroke:#181818;stroke-width:0.5;" x1="289" x2="723" y1="293.8906" y2="293.8906"/><text fill="#000000" font-family="sans-serif" font-size="14" lengthAdjust="spacing" textLength="56" x="478" y="289.5889">&#21382;&#21490;&#35760;&#24405;</text></g><ellipse cx="571" cy="344.5938" fill="#222222" rx="10" ry="10" style="stroke:#222222;stroke-width:1.0;"/><g id="&#20027;&#30028;&#38754;.Logged.&#21382;&#21490;&#35760;&#24405;.&#21382;&#21490;&#21015;&#34920;"><rect fill="#F1F1F1" height="50" rx="3.5" ry="3.5" style="stroke:#181818;stroke-width:0.5;" width="76" x="533" y="422.5938"/><line style="stroke:#181818;stroke-width:0.5;" x1="533" x2="609" y1="448.8906" y2="448.8906"/><text fill="#000000" font-family="sans-serif" font-size="14" lengthAdjust="spacing" textLength="56" x="543" y="440.5889">&#21382;&#21490;&#21015;&#34920;</text></g><g id="&#20027;&#30028;&#38754;.Logged.&#21382;&#21490;&#35760;&#24405;.&#35814;&#32454;&#20998;&#26512;&#32467;&#26524;"><rect fill="#F1F1F1" height="50" rx="3.5" ry="3.5" style="stroke:#181818;stroke-width:0.5;" width="104" x="321" y="525.5938"/><line style="stroke:#181818;stroke-width:0.5;" x1="321" x2="425" y1="551.8906" y2="551.8906"/><text fill="#000000" font-family="sans-serif" font-size="14" lengthAdjust="spacing" textLength="84" x="331" y="543.5889">&#35814;&#32454;&#20998;&#26512;&#32467;&#26524;</text></g><g id="&#20027;&#30028;&#38754;.Logged.&#21382;&#21490;&#35760;&#24405;.&#20877;&#27425;&#20998;&#26512;"><rect fill="#F1F1F1" height="50" rx="3.5" ry="3.5" style="stroke:#181818;stroke-width:0.5;" width="76" x="539" y="628.5938"/><line style="stroke:#181818;stroke-width:0.5;" x1="539" x2="615" y1="654.8906" y2="654.8906"/><text fill="#000000" font-family="sans-serif" font-size="14" lengthAdjust="spacing" textLength="56" x="549" y="646.5889">&#20877;&#27425;&#20998;&#26512;</text></g><g id="&#20027;&#30028;&#38754;.Logged.&#21382;&#21490;&#35760;&#24405;.&#21024;&#38500;&#35760;&#24405;"><rect fill="#F1F1F1" height="50" rx="3.5" ry="3.5" style="stroke:#181818;stroke-width:0.5;" width="76" x="533" y="525.5938"/><line style="stroke:#181818;stroke-width:0.5;" x1="533" x2="609" y1="551.8906" y2="551.8906"/><text fill="#000000" font-family="sans-serif" font-size="14" lengthAdjust="spacing" textLength="56" x="543" y="543.5889">&#21024;&#38500;&#35760;&#24405;</text></g><ellipse cx="941" cy="188.5938" fill="#222222" rx="10" ry="10" style="stroke:#222222;stroke-width:1.0;"/><g id="&#20027;&#30028;&#38754;.Logged.&#40664;&#35748;&#35270;&#22270;"><rect fill="#F1F1F1" height="50" rx="3.5" ry="3.5" style="stroke:#181818;stroke-width:0.5;" width="76" x="747" y="319.5938"/><line style="stroke:#181818;stroke-width:0.5;" x1="747" x2="823" y1="345.8906" y2="345.8906"/><text fill="#000000" font-family="sans-serif" font-size="14" lengthAdjust="spacing" textLength="56" x="757" y="337.5889">&#40664;&#35748;&#35270;&#22270;</text></g><g id="&#20027;&#30028;&#38754;.Logged.&#26893;&#29289;&#22270;&#29255;&#19978;&#20256;"><rect fill="#F1F1F1" height="50" rx="3.5" ry="3.5" style="stroke:#181818;stroke-width:0.5;" width="104" x="747" y="422.5938"/><line style="stroke:#181818;stroke-width:0.5;" x1="747" x2="851" y1="448.8906" y2="448.8906"/><text fill="#000000" font-family="sans-serif" font-size="14" lengthAdjust="spacing" textLength="84" x="757" y="440.5889">&#26893;&#29289;&#22270;&#29255;&#19978;&#20256;</text></g><g id="&#20027;&#30028;&#38754;.Logged.&#20998;&#20139;"><rect fill="#F1F1F1" height="50" rx="3.5" ry="3.5" style="stroke:#181818;stroke-width:0.5;" width="50" x="800" y="163.5938"/><line style="stroke:#181818;stroke-width:0.5;" x1="800" x2="850" y1="189.8906" y2="189.8906"/><text fill="#000000" font-family="sans-serif" font-size="14" lengthAdjust="spacing" textLength="28" x="811" y="181.5889">&#20998;&#20139;</text></g><g id="&#20027;&#30028;&#38754;.Logged.&#27604;&#36187;&#25110;&#25361;&#25112;"><rect fill="#F1F1F1" height="50" rx="3.5" ry="3.5" style="stroke:#181818;stroke-width:0.5;" width="90" x="622" y="163.5938"/><line style="stroke:#181818;stroke-width:0.5;" x1="622" x2="712" y1="189.8906" y2="189.8906"/><text fill="#000000" font-family="sans-serif" font-size="14" lengthAdjust="spacing" textLength="70" x="632" y="181.5889">&#27604;&#36187;&#25110;&#25361;&#25112;</text></g><g id="&#20027;&#30028;&#38754;.Logged.&#22270;&#29255;&#20998;&#26512;&#32467;&#26524;"><rect fill="#F1F1F1" height="50" rx="3.5" ry="3.5" style="stroke:#181818;stroke-width:0.5;" width="104" x="794" y="525.5938"/><line style="stroke:#181818;stroke-width:0.5;" x1="794" x2="898" y1="551.8906" y2="551.8906"/><text fill="#000000" font-family="sans-serif" font-size="14" lengthAdjust="spacing" textLength="84" x="804" y="543.5889">&#22270;&#29255;&#20998;&#26512;&#32467;&#26524;</text></g><!--link *start*Logged to ????--><g id="link_*start*Logged_&#40664;&#35748;&#35270;&#22270;"><path d="M937.826,198.3098 C933.095,210.4897 923.305,232.8718 910,248.5938 C885.26,277.8268 855.0631,300.3299 828.3051,317.6239 " fill="none" id="*start*Logged-to-&#40664;&#35748;&#35270;&#22270;" style="stroke:#191919;stroke-width:1.0;"/><polygon fill="#191919" points="823.266,320.8808,832.9959,319.3549,827.4653,318.1667,828.6535,312.636,823.266,320.8808" style="stroke:#191919;stroke-width:1.0;"/></g><!--link ???? to ??????--><g id="link_&#40664;&#35748;&#35270;&#22270;_&#26893;&#29289;&#22270;&#29255;&#19978;&#20256;"><path d="M785.734,369.8058 C786.292,380.5118 787.274,393.2258 789,404.5938 C789.878,410.3738 789.7874,410.6873 791.1314,416.4553 " fill="none" id="&#40664;&#35748;&#35270;&#22270;-to-&#26893;&#29289;&#22270;&#29255;&#19978;&#20256;" style="stroke:#191919;stroke-width:1.0;"/><polygon fill="#191919" points="792.493,422.2988,794.3463,412.6258,791.3583,417.4292,786.555,414.4413,792.493,422.2988" style="stroke:#191919;stroke-width:1.0;"/><text fill="#000000" font-family="sans-serif" font-size="13" lengthAdjust="spacing" textLength="88" x="790" y="400.6606">&#36873;&#25321;"&#19978;&#20256;&#22270;&#29255;"</text></g><!--link ???? to ????--><g id="link_&#40664;&#35748;&#35270;&#22270;_&#21382;&#21490;&#35760;&#24405;"><path d="M771.509,319.3178 C758.922,298.6878 738.033,270.9958 711,258.5938 C670.402,239.9688 342.6959,229.2727 309,258.5938 C305.5314,261.612 302.7189,265.1318 300.4556,268.9907 C299.8897,269.9555 299.3582,270.9414 298.8593,271.946 C298.7969,272.0716 301.3589,266.8016 301.2976,266.9277 " fill="none" id="&#40664;&#35748;&#35270;&#22270;-to-&#21382;&#21490;&#35760;&#24405;" style="stroke:#191919;stroke-width:1.0;"/><polygon fill="#191919" points="298.6737,272.3236,306.2067,265.979,300.8603,267.8271,299.0122,262.4806,298.6737,272.3236" style="stroke:#191919;stroke-width:1.0;"/><text fill="#000000" font-family="sans-serif" font-size="13" lengthAdjust="spacing" textLength="88" x="371" y="244.6606">&#36873;&#25321;"&#21382;&#21490;&#35760;&#24405;"</text></g><!--reverse link ?? to ????--><g id="link_&#20998;&#20139;_&#40664;&#35748;&#35270;&#22270;"><path d="M795.5806,215.3554 C790.0616,221.4144 789.016,224.0127 786,231.5938 C774.642,260.1408 776.923,296.1128 780.334,319.4708 " fill="none" id="&#20998;&#20139;-backto-&#40664;&#35748;&#35270;&#22270;" style="stroke:#191919;stroke-width:1.0;"/><polygon fill="#191919" points="799.621,210.9198,790.6033,214.8797,796.254,214.6162,796.5176,220.2669,799.621,210.9198" style="stroke:#191919;stroke-width:1.0;"/><text fill="#000000" font-family="sans-serif" font-size="13" lengthAdjust="spacing" textLength="62" x="787" y="244.6606">&#36873;&#25321;"&#20998;&#20139;"</text></g><!--reverse link ????? to ????--><g id="link_&#27604;&#36187;&#25110;&#25361;&#25112;_&#40664;&#35748;&#35270;&#22270;"><path d="M615.8961,199.0637 C575.9071,208.1177 533.201,223.5268 557,248.5938 C568.797,261.0198 695.639,249.0038 711,256.5938 C738.199,270.0338 759.319,298.4848 771.911,319.2028 " fill="none" id="&#27604;&#36187;&#25110;&#25361;&#25112;-backto-&#40664;&#35748;&#35270;&#22270;" style="stroke:#191919;stroke-width:1.0;"/><polygon fill="#191919" points="621.748,197.7387,612.0869,195.8249,616.8714,198.8429,613.8535,203.6274,621.748,197.7387" style="stroke:#191919;stroke-width:1.0;"/><text fill="#000000" font-family="sans-serif" font-size="13" lengthAdjust="spacing" textLength="127" x="558" y="244.6606">&#36873;&#25321;"&#21457;&#36215;&#27604;&#36187;&#25110;&#25361;&#25112;"</text></g><!--link ?????? to ??????--><g id="link_&#26893;&#29289;&#22270;&#29255;&#19978;&#20256;_&#22270;&#29255;&#20998;&#26512;&#32467;&#26524;"><path d="M794.621,472.7868 C793.7,483.8438 794.189,496.8418 799,507.5938 C801.95,514.1858 802.3097,515.8794 807.4427,521.1324 " fill="none" id="&#26893;&#29289;&#22270;&#29255;&#19978;&#20256;-to-&#22270;&#29255;&#20998;&#26512;&#32467;&#26524;" style="stroke:#191919;stroke-width:1.0;"/><polygon fill="#191919" points="811.636,525.4238,808.2069,516.1911,808.1415,521.8476,802.4851,521.7823,811.636,525.4238" style="stroke:#191919;stroke-width:1.0;"/><text fill="#000000" font-family="sans-serif" font-size="13" lengthAdjust="spacing" textLength="78" x="800" y="503.6606">&#22270;&#29255;&#19978;&#20256;&#25104;&#21151;</text></g><!--link ?????? to ????--><g id="link_&#22270;&#29255;&#20998;&#26512;&#32467;&#26524;_&#40664;&#35748;&#35270;&#22270;"><path d="M869.255,525.4708 C873.252,519.9868 876.818,513.9038 879,507.5938 C896.433,457.1898 908.018,432.3418 879,387.5938 C866.649,368.5478 849.1918,359.6937 828.9158,353.9627 " fill="none" id="&#22270;&#29255;&#20998;&#26512;&#32467;&#26524;-to-&#40664;&#35748;&#35270;&#22270;" style="stroke:#191919;stroke-width:1.0;"/><polygon fill="#191919" points="823.142,352.3308,830.7147,358.6279,827.9535,353.6907,832.8907,350.9295,823.142,352.3308" style="stroke:#191919;stroke-width:1.0;"/><text fill="#000000" font-family="sans-serif" font-size="13" lengthAdjust="spacing" textLength="26" x="897" y="452.1606">&#36820;&#22238;</text></g><!--link *start*???? to ????--><g id="link_*start*&#21382;&#21490;&#35760;&#24405;_&#21382;&#21490;&#21015;&#34920;"><path d="M571,354.9148 C571,370.1508 571,394.8618 571,416.5298 " fill="none" id="*start*&#21382;&#21490;&#35760;&#24405;-to-&#21382;&#21490;&#21015;&#34920;" style="stroke:#191919;stroke-width:1.0;"/><polygon fill="#191919" points="571,422.5298,575,413.5298,571,417.5298,567,413.5298,571,422.5298" style="stroke:#191919;stroke-width:1.0;"/></g><!--link ???? to ??????--><g id="link_&#21382;&#21490;&#21015;&#34920;_&#35814;&#32454;&#20998;&#26512;&#32467;&#26524;"><path d="M532.971,447.9648 C494.09,449.3398 434.143,457.3208 396,490.5938 C385.81,499.4828 381.6255,507.6474 378.4455,519.7604 " fill="none" id="&#21382;&#21490;&#21015;&#34920;-to-&#35814;&#32454;&#20998;&#26512;&#32467;&#26524;" style="stroke:#191919;stroke-width:1.0;"/><polygon fill="#191919" points="376.922,525.5638,383.0762,517.8744,378.1916,520.7276,375.3384,515.843,376.922,525.5638" style="stroke:#191919;stroke-width:1.0;"/><text fill="#000000" font-family="sans-serif" font-size="13" lengthAdjust="spacing" textLength="78" x="397" y="503.6606">&#36873;&#25321;&#19968;&#39033;&#35760;&#24405;</text></g><!--reverse link ???? to ????--><g id="link_&#40664;&#35748;&#35270;&#22270;_&#21382;&#21490;&#21015;&#34920;"><path d="M741.315,366.2116 C702.483,384.5386 648.13,410.1908 609.288,428.5238 " fill="none" id="&#40664;&#35748;&#35270;&#22270;-backto-&#21382;&#21490;&#21015;&#34920;" style="stroke:#191919;stroke-width:1.0;"/><polygon fill="#191919" points="746.741,363.6508,736.8947,363.8747,742.2193,365.7848,740.3092,371.1094,746.741,363.6508" style="stroke:#191919;stroke-width:1.0;"/><text fill="#000000" font-family="sans-serif" font-size="13" lengthAdjust="spacing" textLength="26" x="692" y="400.6606">&#36820;&#22238;</text></g><!--link ?????? to ????--><g id="link_&#35814;&#32454;&#20998;&#26512;&#32467;&#26524;_&#21382;&#21490;&#21015;&#34920;"><path d="M425.108,530.3288 C441.645,523.6918 459.828,515.8388 476,507.5938 C496.237,497.2768 512.7825,487.3251 530.2535,476.0211 " fill="none" id="&#35814;&#32454;&#20998;&#26512;&#32467;&#26524;-to-&#21382;&#21490;&#21015;&#34920;" style="stroke:#191919;stroke-width:1.0;"/><polygon fill="#191919" points="535.291,472.7618,525.5618,474.2924,531.0931,475.4779,529.9076,481.0091,535.291,472.7618" style="stroke:#191919;stroke-width:1.0;"/><text fill="#000000" font-family="sans-serif" font-size="13" lengthAdjust="spacing" textLength="26" x="507" y="503.6606">&#36820;&#22238;</text></g><!--link ?????? to ????--><g id="link_&#35814;&#32454;&#20998;&#26512;&#32467;&#26524;_&#20877;&#27425;&#20998;&#26512;"><path d="M421.604,575.6578 C457.548,593.4538 500.4349,614.6866 533.5859,631.0997 " fill="none" id="&#35814;&#32454;&#20998;&#26512;&#32467;&#26524;-to-&#20877;&#27425;&#20998;&#26512;" style="stroke:#191919;stroke-width:1.0;"/><polygon fill="#191919" points="538.963,633.7619,532.6722,626.1839,534.4821,631.5434,529.1226,633.3533,538.963,633.7619" style="stroke:#191919;stroke-width:1.0;"/><text fill="#000000" font-family="sans-serif" font-size="13" lengthAdjust="spacing" textLength="88" x="489" y="606.6606">&#36873;&#25321;"&#20877;&#27425;&#20998;&#26512;"</text></g><!--link ?????? to ????--><g id="link_&#35814;&#32454;&#20998;&#26512;&#32467;&#26524;_&#21024;&#38500;&#35760;&#24405;"><path d="M425.022,550.5938 C458.823,550.5938 496.134,550.5938 526.776,550.5938 " fill="none" id="&#35814;&#32454;&#20998;&#26512;&#32467;&#26524;-to-&#21024;&#38500;&#35760;&#24405;" style="stroke:#191919;stroke-width:1.0;"/><polygon fill="#191919" points="532.776,550.5938,523.776,546.5938,527.776,550.5938,523.776,554.5938,532.776,550.5938" style="stroke:#191919;stroke-width:1.0;"/><text fill="#000000" font-family="sans-serif" font-size="13" lengthAdjust="spacing" textLength="88" x="435" y="543.6606">&#36873;&#25321;"&#21024;&#38500;&#35760;&#24405;"</text></g><!--link ???? to ????--><g id="link_&#20877;&#27425;&#20998;&#26512;_&#21382;&#21490;&#21015;&#34920;"><path d="M599.235,628.5852 C626.486,596.1018 666.021,536.8947 640,490.5938 C633.198,478.4908 626.6099,472.3316 614.6209,465.8166 " fill="none" id="&#20877;&#27425;&#20998;&#26512;-to-&#21382;&#21490;&#21015;&#34920;" style="stroke:#191919;stroke-width:1.0;"/><polygon fill="#191919" points="609.349,462.9518,615.347,470.7636,613.7422,465.3391,619.1667,463.7344,609.349,462.9518" style="stroke:#191919;stroke-width:1.0;"/><text fill="#000000" font-family="sans-serif" font-size="13" lengthAdjust="spacing" textLength="52" x="650" y="555.1606">&#20998;&#26512;&#23436;&#25104;</text></g><!--link ???? to ????--><g id="link_&#21024;&#38500;&#35760;&#24405;_&#21382;&#21490;&#21015;&#34920;"><path d="M571,525.2488 C571,509.3448 571,494.6598 571,478.7858 " fill="none" id="&#21024;&#38500;&#35760;&#24405;-to-&#21382;&#21490;&#21015;&#34920;" style="stroke:#191919;stroke-width:1.0;"/><polygon fill="#191919" points="571,472.7858,567,481.7858,571,477.7858,575,481.7858,571,472.7858" style="stroke:#191919;stroke-width:1.0;"/><text fill="#000000" font-family="sans-serif" font-size="13" lengthAdjust="spacing" textLength="65" x="572" y="503.6606">&#35760;&#24405;&#24050;&#21024;&#38500;</text></g><!--link ?? to ????--><g id="link_&#20998;&#20139;_&#40664;&#35748;&#35270;&#22270;"><path d="M843.648,213.8678 C849.509,224.3658 853.617,236.9038 850,248.5938 C841.731,275.3218 826.9419,296.6468 811.7249,314.6368 " fill="none" id="&#20998;&#20139;-to-&#40664;&#35748;&#35270;&#22270;" style="stroke:#191919;stroke-width:1.0;"/><polygon fill="#191919" points="807.85,319.2178,816.7163,314.9295,811.0791,315.4003,810.6083,309.763,807.85,319.2178" style="stroke:#191919;stroke-width:1.0;"/><text fill="#000000" font-family="sans-serif" font-size="13" lengthAdjust="spacing" textLength="52" x="853" y="244.6606">&#23436;&#25104;&#20998;&#20139;</text></g><!--link ????? to ????--><g id="link_&#27604;&#36187;&#25110;&#25361;&#25112;_&#40664;&#35748;&#35270;&#22270;"><path d="M685.438,213.6558 C707.541,242.5028 740.7156,285.8002 762.8486,314.6842 " fill="none" id="&#27604;&#36187;&#25110;&#25361;&#25112;-to-&#40664;&#35748;&#35270;&#22270;" style="stroke:#191919;stroke-width:1.0;"/><polygon fill="#191919" points="766.498,319.4468,764.1989,309.87,763.4568,315.478,757.8489,314.7359,766.498,319.4468" style="stroke:#191919;stroke-width:1.0;"/><text fill="#000000" font-family="sans-serif" font-size="13" lengthAdjust="spacing" textLength="52" x="713" y="244.6606">&#21457;&#24067;&#25104;&#21151;</text></g><ellipse cx="487.5" cy="811" fill="none" rx="11" ry="11" style="stroke:#222222;stroke-width:1.0;"/><ellipse cx="487.5" cy="811" fill="#222222" rx="6" ry="6" style="stroke:#222222;stroke-width:1.0;"/><!--link *start* to ???--><g id="link_*start*_&#20027;&#30028;&#38754;"><path d="M487.5,26.185 C487.5,37.745 487.5,53.447 487.5,80.839 " fill="none" id="*start*-to-&#20027;&#30028;&#38754;" style="stroke:#191919;stroke-width:1.0;"/><polygon fill="#191919" points="487.5,86.839,491.5,77.839,487.5,81.839,483.5,77.839,487.5,86.839" style="stroke:#191919;stroke-width:1.0;"/></g><!--link ??? to *end*--><g id="link_&#20027;&#30028;&#38754;_*end*"><path d="M487.5,723.3319 C487.5,757.7184 487.5,779.3992 487.5,793.6042 " fill="none" id="&#20027;&#30028;&#38754;-to-*end*" style="stroke:#191919;stroke-width:1.0;"/><polygon fill="#191919" points="487.5,799.6042,491.5,790.6042,487.5,794.6042,483.5,790.6042,487.5,799.6042" style="stroke:#191919;stroke-width:1.0;"/><text fill="#000000" font-family="sans-serif" font-size="13" lengthAdjust="spacing" textLength="52" x="488.5" y="766.0669">&#36864;&#20986;&#24212;&#29992;</text></g><!--SRC=[ZLJBJi905DttAyOkJVW15tw1MrV61GaLJ42DO5mO4XAJKXG4ObK8Yc28WXem60DI7p_JcRP_uRItZ-bBdGMXvzvpxfnxPsQfa15o0iebz_FSnl8cIYHMaJfNj8kgSNF7SVb2iY1u03hY45s0yfey9DACN3zgRGL_Nl0ecKVhEzdTT5f8sPdcScGXorPsWYnePP7N8HQhDh22Z5A5d8vuG7cNviiAYbCQn8dKm2UtyRN009vD8K9vy8VX5QtVi6kNPBbUY_DiA2rzFD0VHDpvSeCiY1AftSCTq_UWfbL65D4gPNL-edxqFFVm3J4-HcP_EvqfK1ry9kBwL1-_W25RWKNZ5BB2bYKWYUhYYQ5Qtt6aWprpxnDPV-iGwP9KcqHgCTnwKt-R1SAUb3VEi7cdBm3IJP1kGrFEIVUQohEPWI57v0S7GGNqRnbtkk6Dm8nzFVI6oWuMKh1qfVU7lWGsO6NgatjD4GC6e3_gl6Jqtw7EBoBsO7wtOAw8Ki6z_f_ez5-iaUS-X9Z1CYZ_fvHxDgMUqHw4pYQ3-hLyjIESG0IFpOlk9xA5ebfWHUWTXaINMmoV2FiwH9mXg0jnxoG7ha8Khzx4ysFV6rFaEE-DDIdcCJCRLCBb1Lx8zCtv0G00]--></g></svg>