<?xml version="1.0" encoding="us-ascii" standalone="no"?><svg xmlns="http://www.w3.org/2000/svg" xmlns:xlink="http://www.w3.org/1999/xlink" contentStyleType="text/css" height="266px" preserveAspectRatio="none" style="width:878px;height:266px;background:#F9F9F9;" version="1.1" viewBox="0 0 878 266" width="878px" zoomAndPan="magnify"><defs/><g><rect fill="#F9F9F9" height="266" style="stroke:none;stroke-width:1.0;" width="878" x="0" y="0"/><rect fill="#FFFFFF" height="145.6641" style="stroke:#393939;stroke-width:1.0;" width="10" x="196" y="67.4297"/><rect fill="#FFFFFF" height="116.5313" style="stroke:#393939;stroke-width:1.0;" width="10" x="449" y="96.5625"/><rect fill="#FFFFFF" height="29.1328" style="stroke:#393939;stroke-width:1.0;" width="10" x="709" y="125.6953"/><rect fill="#FFFFFF" height="29.1328" style="stroke:#393939;stroke-width:1.0;" width="10" x="818" y="183.9609"/><line style="stroke:#393939;stroke-width:0.5;stroke-dasharray:5.0,5.0;" x1="26" x2="26" y1="36.2969" y2="231.0938"/><line style="stroke:#393939;stroke-width:0.5;stroke-dasharray:5.0,5.0;" x1="201" x2="201" y1="36.2969" y2="231.0938"/><line style="stroke:#393939;stroke-width:0.5;stroke-dasharray:5.0,5.0;" x1="454" x2="454" y1="36.2969" y2="231.0938"/><line style="stroke:#393939;stroke-width:0.5;stroke-dasharray:5.0,5.0;" x1="714" x2="714" y1="36.2969" y2="231.0938"/><line style="stroke:#393939;stroke-width:0.5;stroke-dasharray:5.0,5.0;" x1="823" x2="823" y1="36.2969" y2="231.0938"/><rect fill="#E55756" height="30.2969" rx="3.5" ry="3.5" style="stroke:#191919;stroke-width:1.5;" width="42" x="5" y="5"/><text fill="#F9F9F9" font-family="sans-serif" font-size="14" lengthAdjust="spacing" textLength="28" x="12" y="24.9951">&#29992;&#25143;</text><rect fill="#E55756" height="30.2969" rx="3.5" ry="3.5" style="stroke:#191919;stroke-width:1.5;" width="42" x="5" y="230.0938"/><text fill="#F9F9F9" font-family="sans-serif" font-size="14" lengthAdjust="spacing" textLength="28" x="12" y="250.0889">&#29992;&#25143;</text><rect fill="#E55756" height="30.2969" rx="3.5" ry="3.5" style="stroke:#191919;stroke-width:1.5;" width="98" x="152" y="5"/><text fill="#F9F9F9" font-family="sans-serif" font-size="14" lengthAdjust="spacing" textLength="84" x="159" y="24.9951">&#32467;&#26524;&#23637;&#31034;&#30028;&#38754;</text><rect fill="#E55756" height="30.2969" rx="3.5" ry="3.5" style="stroke:#191919;stroke-width:1.5;" width="98" x="152" y="230.0938"/><text fill="#F9F9F9" font-family="sans-serif" font-size="14" lengthAdjust="spacing" textLength="84" x="159" y="250.0889">&#32467;&#26524;&#23637;&#31034;&#30028;&#38754;</text><rect fill="#E55756" height="30.2969" rx="3.5" ry="3.5" style="stroke:#191919;stroke-width:1.5;" width="56" x="426" y="5"/><text fill="#F9F9F9" font-family="sans-serif" font-size="14" lengthAdjust="spacing" textLength="42" x="433" y="24.9951">&#25511;&#21046;&#22120;</text><rect fill="#E55756" height="30.2969" rx="3.5" ry="3.5" style="stroke:#191919;stroke-width:1.5;" width="56" x="426" y="230.0938"/><text fill="#F9F9F9" font-family="sans-serif" font-size="14" lengthAdjust="spacing" textLength="42" x="433" y="250.0889">&#25511;&#21046;&#22120;</text><rect fill="#E55756" height="30.2969" rx="3.5" ry="3.5" style="stroke:#191919;stroke-width:1.5;" width="100" x="664" y="5"/><text fill="#F9F9F9" font-family="sans-serif" font-size="14" lengthAdjust="spacing" textLength="86" x="671" y="24.9951">GPT4-Vision</text><rect fill="#E55756" height="30.2969" rx="3.5" ry="3.5" style="stroke:#191919;stroke-width:1.5;" width="100" x="664" y="230.0938"/><text fill="#F9F9F9" font-family="sans-serif" font-size="14" lengthAdjust="spacing" textLength="86" x="671" y="250.0889">GPT4-Vision</text><rect fill="#E55756" height="30.2969" rx="3.5" ry="3.5" style="stroke:#191919;stroke-width:1.5;" width="98" x="774" y="5"/><text fill="#F9F9F9" font-family="sans-serif" font-size="14" lengthAdjust="spacing" textLength="84" x="781" y="24.9951">&#24314;&#35758;&#23637;&#31034;&#30028;&#38754;</text><rect fill="#E55756" height="30.2969" rx="3.5" ry="3.5" style="stroke:#191919;stroke-width:1.5;" width="98" x="774" y="230.0938"/><text fill="#F9F9F9" font-family="sans-serif" font-size="14" lengthAdjust="spacing" textLength="84" x="781" y="250.0889">&#24314;&#35758;&#23637;&#31034;&#30028;&#38754;</text><rect fill="#FFFFFF" height="145.6641" style="stroke:#393939;stroke-width:1.0;" width="10" x="196" y="67.4297"/><rect fill="#FFFFFF" height="116.5313" style="stroke:#393939;stroke-width:1.0;" width="10" x="449" y="96.5625"/><rect fill="#FFFFFF" height="29.1328" style="stroke:#393939;stroke-width:1.0;" width="10" x="709" y="125.6953"/><rect fill="#FFFFFF" height="29.1328" style="stroke:#393939;stroke-width:1.0;" width="10" x="818" y="183.9609"/><polygon fill="#191919" points="184,63.4297,194,67.4297,184,71.4297,188,67.4297" style="stroke:#191919;stroke-width:1.0;"/><line style="stroke:#191919;stroke-width:1.0;" x1="26" x2="190" y1="67.4297" y2="67.4297"/><text fill="#000000" font-family="sans-serif" font-size="13" lengthAdjust="spacing" textLength="151" x="33" y="62.3638">ViewPredictionResults()</text><polygon fill="#191919" points="437,92.5625,447,96.5625,437,100.5625,441,96.5625" style="stroke:#191919;stroke-width:1.0;"/><line style="stroke:#191919;stroke-width:1.0;" x1="206" x2="443" y1="96.5625" y2="96.5625"/><text fill="#000000" font-family="sans-serif" font-size="13" lengthAdjust="spacing" textLength="224" x="213" y="91.4966">RequestCareAdvice(results, photo)</text><polygon fill="#191919" points="697,121.6953,707,125.6953,697,129.6953,701,125.6953" style="stroke:#191919;stroke-width:1.0;"/><line style="stroke:#191919;stroke-width:1.0;" x1="459" x2="703" y1="125.6953" y2="125.6953"/><text fill="#000000" font-family="sans-serif" font-size="13" lengthAdjust="spacing" textLength="231" x="466" y="120.6294">GenerateCareAdvice(results, photo)</text><polygon fill="#191919" points="470,150.8281,460,154.8281,470,158.8281,466,154.8281" style="stroke:#191919;stroke-width:1.0;"/><line style="stroke:#191919;stroke-width:1.0;" x1="464" x2="713" y1="154.8281" y2="154.8281"/><text fill="#000000" font-family="sans-serif" font-size="13" lengthAdjust="spacing" textLength="193" x="476" y="149.7622">CareAdviceGenerated(advice)</text><polygon fill="#191919" points="806,179.9609,816,183.9609,806,187.9609,810,183.9609" style="stroke:#191919;stroke-width:1.0;"/><line style="stroke:#191919;stroke-width:1.0;" x1="459" x2="812" y1="183.9609" y2="183.9609"/><text fill="#000000" font-family="sans-serif" font-size="13" lengthAdjust="spacing" textLength="160" x="466" y="178.895">ShowCareAdvice(advice)</text><polygon fill="#191919" points="37,209.0938,27,213.0938,37,217.0938,33,213.0938" style="stroke:#191919;stroke-width:1.0;"/><line style="stroke:#191919;stroke-width:1.0;" x1="31" x2="822" y1="213.0938" y2="213.0938"/><text fill="#000000" font-family="sans-serif" font-size="13" lengthAdjust="spacing" textLength="172" x="43" y="208.0278">DisplayCareAdvice(advice)</text><!--SRC=[ZP6nJiCm48PtFuNfb4fqwzG12O7KjMfHTyiv4Kkf7Mod5M_G0R501oHWG4XqgiG2KliyISfRu2QqERST6Etxxxl__Zkn4Oo0ZfWs967Q2YuI9Yqj7kVvz9ioGrC3sYirYjL3_lgSVSwAzsKnk_jvUMjiX1fC6ji1rm3IRyZlFxBfL_OqBtLSIQjL7EzZkxshTcieZ52or5qdjbqzVLssMguNYuFnB1mB3d_ZoSOrRPrvfcY73WLCUXf2mQtZzikY2Pg4kVUOMV2N85wtezNM7QiFDoaOUy4qd9UpWqfkJcaIAQiG5QrC4CCHwoKTiGiIjDF_1udI8GYoRx96RU5XK2NL924SfVa6SQoEDuZK1DdRedOW_mfUiuELL-dGIs6IcDqUuI1BFWaLK9Ze5v_g5m00]--></g></svg>