<?xml version="1.0" encoding="us-ascii" standalone="no"?><svg xmlns="http://www.w3.org/2000/svg" xmlns:xlink="http://www.w3.org/1999/xlink" contentStyleType="text/css" height="854px" preserveAspectRatio="none" style="width:1813px;height:854px;background:#FFFFFF;" version="1.1" viewBox="0 0 1813 854" width="1813px" zoomAndPan="magnify"><defs/><g><text fill="#000000" font-family="sans-serif" font-size="14" font-weight="bold" lengthAdjust="spacing" textLength="84" x="854.5" y="22.9951">&#25511;&#21046;&#22120;&#29366;&#24577;&#22270;</text><ellipse cx="903.5" cy="53.2969" fill="#222222" rx="10" ry="10" style="stroke:#222222;stroke-width:1.0;"/><path d="M19.5,124.2969 L1787.5,124.2969 A12.5,12.5 0 0 1 1800,136.7969 L1800,150.5938 L7,150.5938 L7,136.7969 A12.5,12.5 0 0 1 19.5,124.2969 " fill="#F1F1F1" style="stroke:#F1F1F1;stroke-width:1.0;"/><rect fill="none" height="625.2969" rx="12.5" ry="12.5" style="stroke:#181818;stroke-width:0.5;" width="1793" x="7" y="124.2969"/><line style="stroke:#181818;stroke-width:0.5;" x1="7" x2="1800" y1="150.5938" y2="150.5938"/><text fill="#000000" font-family="sans-serif" font-size="14" lengthAdjust="spacing" textLength="56" x="875.5" y="142.292">&#24453;&#26426;&#29366;&#24577;</text><!--cluster ????--><g id="cluster_&#29992;&#25143;&#27880;&#20876;"><path d="M371.5,162.5938 L572.5,162.5938 A12.5,12.5 0 0 1 585,175.0938 L585,183.8906 L359,183.8906 L359,175.0938 A12.5,12.5 0 0 1 371.5,162.5938 " fill="#F1F1F1" style="stroke:#F1F1F1;stroke-width:1.0;"/><rect fill="none" height="311" rx="12.5" ry="12.5" style="stroke:#181818;stroke-width:0.5;" width="226" x="359" y="162.5938"/><line style="stroke:#181818;stroke-width:0.5;" x1="359" x2="585" y1="183.8906" y2="183.8906"/><text fill="#000000" font-family="sans-serif" font-size="14" lengthAdjust="spacing" textLength="56" x="444" y="179.5889">&#29992;&#25143;&#27880;&#20876;</text></g><!--cluster ????--><g id="cluster_&#29992;&#25143;&#30331;&#24405;"><path d="M782.5,162.5938 L983.5,162.5938 A12.5,12.5 0 0 1 996,175.0938 L996,183.8906 L770,183.8906 L770,175.0938 A12.5,12.5 0 0 1 782.5,162.5938 " fill="#F1F1F1" style="stroke:#F1F1F1;stroke-width:1.0;"/><rect fill="none" height="311" rx="12.5" ry="12.5" style="stroke:#181818;stroke-width:0.5;" width="226" x="770" y="162.5938"/><line style="stroke:#181818;stroke-width:0.5;" x1="770" x2="996" y1="183.8906" y2="183.8906"/><text fill="#000000" font-family="sans-serif" font-size="14" lengthAdjust="spacing" textLength="56" x="855" y="179.5889">&#29992;&#25143;&#30331;&#24405;</text></g><!--cluster ??????--><g id="cluster_&#22788;&#29702;&#22270;&#29255;&#19978;&#20256;"><path d="M1148.5,162.5938 L1393.5,162.5938 A12.5,12.5 0 0 1 1406,175.0938 L1406,183.8906 L1136,183.8906 L1136,175.0938 A12.5,12.5 0 0 1 1148.5,162.5938 " fill="#F1F1F1" style="stroke:#F1F1F1;stroke-width:1.0;"/><rect fill="none" height="444" rx="12.5" ry="12.5" style="stroke:#181818;stroke-width:0.5;" width="270" x="1136" y="162.5938"/><line style="stroke:#181818;stroke-width:0.5;" x1="1136" x2="1406" y1="183.8906" y2="183.8906"/><text fill="#000000" font-family="sans-serif" font-size="14" lengthAdjust="spacing" textLength="84" x="1229" y="179.5889">&#22788;&#29702;&#22270;&#29255;&#19978;&#20256;</text></g><!--cluster ??????--><g id="cluster_&#31649;&#29702;&#21382;&#21490;&#35760;&#24405;"><path d="M1558.5,268.5938 L1778.5,268.5938 A12.5,12.5 0 0 1 1791,281.0938 L1791,289.8906 L1546,289.8906 L1546,281.0938 A12.5,12.5 0 0 1 1558.5,268.5938 " fill="#F1F1F1" style="stroke:#F1F1F1;stroke-width:1.0;"/><rect fill="none" height="471" rx="12.5" ry="12.5" style="stroke:#181818;stroke-width:0.5;" width="245" x="1546" y="268.5938"/><line style="stroke:#181818;stroke-width:0.5;" x1="1546" x2="1791" y1="289.8906" y2="289.8906"/><text fill="#000000" font-family="sans-serif" font-size="14" lengthAdjust="spacing" textLength="84" x="1626.5" y="285.5889">&#31649;&#29702;&#21382;&#21490;&#35760;&#24405;</text></g><!--cluster ????--><g id="cluster_&#22788;&#29702;&#20998;&#20139;"><path d="M31.5,162.5938 L232.5,162.5938 A12.5,12.5 0 0 1 245,175.0938 L245,183.8906 L19,183.8906 L19,175.0938 A12.5,12.5 0 0 1 31.5,162.5938 " fill="#F1F1F1" style="stroke:#F1F1F1;stroke-width:1.0;"/><rect fill="none" height="311" rx="12.5" ry="12.5" style="stroke:#181818;stroke-width:0.5;" width="226" x="19" y="162.5938"/><line style="stroke:#181818;stroke-width:0.5;" x1="19" x2="245" y1="183.8906" y2="183.8906"/><text fill="#000000" font-family="sans-serif" font-size="14" lengthAdjust="spacing" textLength="56" x="104" y="179.5889">&#22788;&#29702;&#20998;&#20139;</text></g><ellipse cx="466" cy="215.5938" fill="#222222" rx="10" ry="10" style="stroke:#222222;stroke-width:1.0;"/><g id="&#24453;&#26426;&#29366;&#24577;.&#29992;&#25143;&#27880;&#20876;.&#39564;&#35777;&#27880;&#20876;&#20449;&#24687;"><rect fill="#F1F1F1" height="50" rx="12.5" ry="12.5" style="stroke:#181818;stroke-width:0.5;" width="104" x="414" y="296.5938"/><line style="stroke:#181818;stroke-width:0.5;" x1="414" x2="518" y1="322.8906" y2="322.8906"/><text fill="#000000" font-family="sans-serif" font-size="14" lengthAdjust="spacing" textLength="84" x="424" y="314.5889">&#39564;&#35777;&#27880;&#20876;&#20449;&#24687;</text></g><g id="&#24453;&#26426;&#29366;&#24577;.&#29992;&#25143;&#27880;&#20876;.&#27880;&#20876;&#25104;&#21151;"><rect fill="#F1F1F1" height="50" rx="12.5" ry="12.5" style="stroke:#181818;stroke-width:0.5;" width="76" x="383" y="399.5938"/><line style="stroke:#181818;stroke-width:0.5;" x1="383" x2="459" y1="425.8906" y2="425.8906"/><text fill="#000000" font-family="sans-serif" font-size="14" lengthAdjust="spacing" textLength="56" x="393" y="417.5889">&#27880;&#20876;&#25104;&#21151;</text></g><g id="&#24453;&#26426;&#29366;&#24577;.&#29992;&#25143;&#27880;&#20876;.&#27880;&#20876;&#22833;&#36133;"><rect fill="#F1F1F1" height="50" rx="12.5" ry="12.5" style="stroke:#181818;stroke-width:0.5;" width="76" x="477" y="399.5938"/><line style="stroke:#181818;stroke-width:0.5;" x1="477" x2="553" y1="425.8906" y2="425.8906"/><text fill="#000000" font-family="sans-serif" font-size="14" lengthAdjust="spacing" textLength="56" x="487" y="417.5889">&#27880;&#20876;&#22833;&#36133;</text></g><ellipse cx="885" cy="215.5938" fill="#222222" rx="10" ry="10" style="stroke:#222222;stroke-width:1.0;"/><g id="&#24453;&#26426;&#29366;&#24577;.&#29992;&#25143;&#30331;&#24405;.&#39564;&#35777;&#30331;&#24405;&#20449;&#24687;"><rect fill="#F1F1F1" height="50" rx="12.5" ry="12.5" style="stroke:#181818;stroke-width:0.5;" width="104" x="833" y="296.5938"/><line style="stroke:#181818;stroke-width:0.5;" x1="833" x2="937" y1="322.8906" y2="322.8906"/><text fill="#000000" font-family="sans-serif" font-size="14" lengthAdjust="spacing" textLength="84" x="843" y="314.5889">&#39564;&#35777;&#30331;&#24405;&#20449;&#24687;</text></g><g id="&#24453;&#26426;&#29366;&#24577;.&#29992;&#25143;&#30331;&#24405;.&#30331;&#24405;&#25104;&#21151;"><rect fill="#F1F1F1" height="50" rx="12.5" ry="12.5" style="stroke:#181818;stroke-width:0.5;" width="76" x="802" y="399.5938"/><line style="stroke:#181818;stroke-width:0.5;" x1="802" x2="878" y1="425.8906" y2="425.8906"/><text fill="#000000" font-family="sans-serif" font-size="14" lengthAdjust="spacing" textLength="56" x="812" y="417.5889">&#30331;&#24405;&#25104;&#21151;</text></g><g id="&#24453;&#26426;&#29366;&#24577;.&#29992;&#25143;&#30331;&#24405;.&#30331;&#24405;&#22833;&#36133;"><rect fill="#F1F1F1" height="50" rx="12.5" ry="12.5" style="stroke:#181818;stroke-width:0.5;" width="76" x="896" y="399.5938"/><line style="stroke:#181818;stroke-width:0.5;" x1="896" x2="972" y1="425.8906" y2="425.8906"/><text fill="#000000" font-family="sans-serif" font-size="14" lengthAdjust="spacing" textLength="56" x="906" y="417.5889">&#30331;&#24405;&#22833;&#36133;</text></g><ellipse cx="1261" cy="215.5938" fill="#222222" rx="10" ry="10" style="stroke:#222222;stroke-width:1.0;"/><g id="&#24453;&#26426;&#29366;&#24577;.&#22788;&#29702;&#22270;&#29255;&#19978;&#20256;.&#26816;&#26597;&#22270;&#29255;&#38480;&#21046;"><rect fill="#F1F1F1" height="50" rx="12.5" ry="12.5" style="stroke:#181818;stroke-width:0.5;" width="104" x="1209" y="296.5938"/><line style="stroke:#181818;stroke-width:0.5;" x1="1209" x2="1313" y1="322.8906" y2="322.8906"/><text fill="#000000" font-family="sans-serif" font-size="14" lengthAdjust="spacing" textLength="84" x="1219" y="314.5889">&#26816;&#26597;&#22270;&#29255;&#38480;&#21046;</text></g><g id="&#24453;&#26426;&#29366;&#24577;.&#22788;&#29702;&#22270;&#29255;&#19978;&#20256;.&#22270;&#29255;&#20998;&#26512;"><rect fill="#F1F1F1" height="50" rx="12.5" ry="12.5" style="stroke:#181818;stroke-width:0.5;" width="76" x="1263" y="399.5938"/><line style="stroke:#181818;stroke-width:0.5;" x1="1263" x2="1339" y1="425.8906" y2="425.8906"/><text fill="#000000" font-family="sans-serif" font-size="14" lengthAdjust="spacing" textLength="56" x="1273" y="417.5889">&#22270;&#29255;&#20998;&#26512;</text></g><g id="&#24453;&#26426;&#29366;&#24577;.&#22788;&#29702;&#22270;&#29255;&#19978;&#20256;.&#19978;&#20256;&#22833;&#36133;"><rect fill="#F1F1F1" height="50" rx="12.5" ry="12.5" style="stroke:#181818;stroke-width:0.5;" width="76" x="1168" y="399.5938"/><line style="stroke:#181818;stroke-width:0.5;" x1="1168" x2="1244" y1="425.8906" y2="425.8906"/><text fill="#000000" font-family="sans-serif" font-size="14" lengthAdjust="spacing" textLength="56" x="1178" y="417.5889">&#19978;&#20256;&#22833;&#36133;</text></g><g id="&#24453;&#26426;&#29366;&#24577;.&#22788;&#29702;&#22270;&#29255;&#19978;&#20256;.&#20998;&#26512;&#23436;&#25104;"><rect fill="#F1F1F1" height="50" rx="12.5" ry="12.5" style="stroke:#181818;stroke-width:0.5;" width="76" x="1215" y="532.5938"/><line style="stroke:#181818;stroke-width:0.5;" x1="1215" x2="1291" y1="558.8906" y2="558.8906"/><text fill="#000000" font-family="sans-serif" font-size="14" lengthAdjust="spacing" textLength="56" x="1225" y="550.5889">&#20998;&#26512;&#23436;&#25104;</text></g><ellipse cx="1640" cy="321.5938" fill="#222222" rx="10" ry="10" style="stroke:#222222;stroke-width:1.0;"/><g id="&#24453;&#26426;&#29366;&#24577;.&#31649;&#29702;&#21382;&#21490;&#35760;&#24405;.&#26174;&#31034;&#21382;&#21490;&#35760;&#24405;"><rect fill="#F1F1F1" height="50" rx="12.5" ry="12.5" style="stroke:#181818;stroke-width:0.5;" width="104" x="1588" y="399.5938"/><line style="stroke:#181818;stroke-width:0.5;" x1="1588" x2="1692" y1="425.8906" y2="425.8906"/><text fill="#000000" font-family="sans-serif" font-size="14" lengthAdjust="spacing" textLength="84" x="1598" y="417.5889">&#26174;&#31034;&#21382;&#21490;&#35760;&#24405;</text></g><g id="&#24453;&#26426;&#29366;&#24577;.&#31649;&#29702;&#21382;&#21490;&#35760;&#24405;.&#35814;&#32454;&#20998;&#26512;&#32467;&#26524;"><rect fill="#F1F1F1" height="50" rx="12.5" ry="12.5" style="stroke:#181818;stroke-width:0.5;" width="104" x="1598" y="532.5938"/><line style="stroke:#181818;stroke-width:0.5;" x1="1598" x2="1702" y1="558.8906" y2="558.8906"/><text fill="#000000" font-family="sans-serif" font-size="14" lengthAdjust="spacing" textLength="84" x="1608" y="550.5889">&#35814;&#32454;&#20998;&#26512;&#32467;&#26524;</text></g><g id="&#24453;&#26426;&#29366;&#24577;.&#31649;&#29702;&#21382;&#21490;&#35760;&#24405;.&#20877;&#27425;&#20998;&#26512;"><rect fill="#F1F1F1" height="50" rx="12.5" ry="12.5" style="stroke:#181818;stroke-width:0.5;" width="76" x="1578" y="665.5938"/><line style="stroke:#181818;stroke-width:0.5;" x1="1578" x2="1654" y1="691.8906" y2="691.8906"/><text fill="#000000" font-family="sans-serif" font-size="14" lengthAdjust="spacing" textLength="56" x="1588" y="683.5889">&#20877;&#27425;&#20998;&#26512;</text></g><g id="&#24453;&#26426;&#29366;&#24577;.&#31649;&#29702;&#21382;&#21490;&#35760;&#24405;.&#21024;&#38500;&#35760;&#24405;"><rect fill="#F1F1F1" height="50" rx="12.5" ry="12.5" style="stroke:#181818;stroke-width:0.5;" width="76" x="1681" y="665.5938"/><line style="stroke:#181818;stroke-width:0.5;" x1="1681" x2="1757" y1="691.8906" y2="691.8906"/><text fill="#000000" font-family="sans-serif" font-size="14" lengthAdjust="spacing" textLength="56" x="1691" y="683.5889">&#21024;&#38500;&#35760;&#24405;</text></g><ellipse cx="126" cy="215.5938" fill="#222222" rx="10" ry="10" style="stroke:#222222;stroke-width:1.0;"/><g id="&#24453;&#26426;&#29366;&#24577;.&#22788;&#29702;&#20998;&#20139;.&#20934;&#22791;&#20998;&#20139;&#20869;&#23481;"><rect fill="#F1F1F1" height="50" rx="12.5" ry="12.5" style="stroke:#181818;stroke-width:0.5;" width="104" x="74" y="296.5938"/><line style="stroke:#181818;stroke-width:0.5;" x1="74" x2="178" y1="322.8906" y2="322.8906"/><text fill="#000000" font-family="sans-serif" font-size="14" lengthAdjust="spacing" textLength="84" x="84" y="314.5889">&#20934;&#22791;&#20998;&#20139;&#20869;&#23481;</text></g><g id="&#24453;&#26426;&#29366;&#24577;.&#22788;&#29702;&#20998;&#20139;.&#20998;&#20139;&#25104;&#21151;"><rect fill="#F1F1F1" height="50" rx="12.5" ry="12.5" style="stroke:#181818;stroke-width:0.5;" width="76" x="43" y="399.5938"/><line style="stroke:#181818;stroke-width:0.5;" x1="43" x2="119" y1="425.8906" y2="425.8906"/><text fill="#000000" font-family="sans-serif" font-size="14" lengthAdjust="spacing" textLength="56" x="53" y="417.5889">&#20998;&#20139;&#25104;&#21151;</text></g><g id="&#24453;&#26426;&#29366;&#24577;.&#22788;&#29702;&#20998;&#20139;.&#20998;&#20139;&#22833;&#36133;"><rect fill="#F1F1F1" height="50" rx="12.5" ry="12.5" style="stroke:#181818;stroke-width:0.5;" width="76" x="137" y="399.5938"/><line style="stroke:#181818;stroke-width:0.5;" x1="137" x2="213" y1="425.8906" y2="425.8906"/><text fill="#000000" font-family="sans-serif" font-size="14" lengthAdjust="spacing" textLength="56" x="147" y="417.5889">&#20998;&#20139;&#22833;&#36133;</text></g><ellipse cx="279" cy="424.5938" fill="#222222" rx="10" ry="10" style="stroke:#222222;stroke-width:1.0;"/><g id="&#24453;&#26426;&#29366;&#24577;.&#31561;&#24453;&#25351;&#20196;"><rect fill="#F1F1F1" height="50" rx="12.5" ry="12.5" style="stroke:#181818;stroke-width:0.5;" width="76" x="660" y="532.5938"/><line style="stroke:#181818;stroke-width:0.5;" x1="660" x2="736" y1="558.8906" y2="558.8906"/><text fill="#000000" font-family="sans-serif" font-size="14" lengthAdjust="spacing" textLength="56" x="670" y="550.5889">&#31561;&#24453;&#25351;&#20196;</text></g><!--link *start*???? to ????--><g id="link_*start*&#24453;&#26426;&#29366;&#24577;_&#31561;&#24453;&#25351;&#20196;"><path d="M278.4,434.8938 C277.76,453.2938 279.27,494.3338 303,514.5938 C329.81,537.4838 559.8564,550.326 653.7364,554.676 " fill="none" id="*start*&#24453;&#26426;&#29366;&#24577;-to-&#31561;&#24453;&#25351;&#20196;" style="stroke:#181818;stroke-width:1.0;"/><polygon fill="#181818" points="659.73,554.9538,650.9248,550.5415,654.7354,554.7223,650.5545,558.5329,659.73,554.9538" style="stroke:#181818;stroke-width:1.0;"/></g><!--link ???? to ????--><g id="link_&#31561;&#24453;&#25351;&#20196;_&#29992;&#25143;&#27880;&#20876;"><path d="M686.04,532.1138 C670,498.6838 641.33,436.5938 622,381.5938 C609.595,346.2988 598.5,305.7763 590.43,273.7225 C589.4213,269.7158 588.4598,265.8414 587.5489,262.1261 C587.0935,260.2684 586.6507,258.4505 586.221,256.6757 C586.0061,255.7883 585.7945,254.9117 585.5863,254.0463 C585.4821,253.6136 585.3788,253.1837 585.2764,252.7566 C585.2251,252.5431 586.572,258.1652 586.5212,257.9531 " fill="none" id="&#31561;&#24453;&#25351;&#20196;-to-&#29992;&#25143;&#27880;&#20876;" style="stroke:#181818;stroke-width:1.0;"/><polygon fill="#181818" points="585.1233,252.1182,583.3302,261.8025,586.2882,256.9806,591.1101,259.9386,585.1233,252.1182" style="stroke:#181818;stroke-width:1.0;"/><text fill="#000000" font-family="sans-serif" font-size="13" lengthAdjust="spacing" textLength="78" x="623" y="377.6606">&#25910;&#21040;&#27880;&#20876;&#35831;&#27714;</text></g><!--link ???? to ????--><g id="link_&#31561;&#24453;&#25351;&#20196;_&#29992;&#25143;&#30331;&#24405;"><path d="M696.7,532.2138 C695.36,495.3238 695.21,423.3738 710,364.5938 C718.695,330.0438 735.305,293.6513 749.9313,265.6 C757.2444,251.5744 764.0616,239.6341 769.1455,231.052 C769.3043,230.7838 769.4615,230.5189 769.617,230.2573 C769.6947,230.1265 766.7034,235.1525 766.7802,235.0234 " fill="none" id="&#31561;&#24453;&#25351;&#20196;-to-&#29992;&#25143;&#30331;&#24405;" style="stroke:#181818;stroke-width:1.0;"/><polygon fill="#181818" points="769.8488,229.8675,761.8086,235.5556,767.2916,234.1641,768.6832,239.6471,769.8488,229.8675" style="stroke:#181818;stroke-width:1.0;"/><text fill="#000000" font-family="sans-serif" font-size="13" lengthAdjust="spacing" textLength="78" x="711" y="377.6606">&#25910;&#21040;&#30331;&#24405;&#35831;&#27714;</text></g><!--link ???? to ??????--><g id="link_&#31561;&#24453;&#25351;&#20196;_&#22788;&#29702;&#22270;&#29255;&#19978;&#20256;"><path d="M736.49,557.2738 C795.73,556.3638 910.13,546.6338 984,489.5938 C1033.72,451.1938 1018.47,418.9338 1050,364.5938 C1069.25,331.4238 1092.3225,295.0538 1110.7913,266.6688 C1120.0256,252.4763 1128.1091,240.28 1133.9883,231.4781 C1134.3557,230.928 1134.7146,230.3911 1135.0645,229.8679 C1135.2395,229.6063 1135.4123,229.348 1135.5828,229.0932 C1135.6681,228.9659 1132.4148,233.8251 1132.499,233.6995 " fill="none" id="&#31561;&#24453;&#25351;&#20196;-to-&#22788;&#29702;&#22270;&#29255;&#19978;&#20256;" style="stroke:#181818;stroke-width:1.0;"/><polygon fill="#181818" points="1135.8369,228.7137,1127.5061,233.9671,1133.0553,232.8685,1134.1539,238.4176,1135.8369,228.7137" style="stroke:#181818;stroke-width:1.0;"/><text fill="#000000" font-family="sans-serif" font-size="13" lengthAdjust="spacing" textLength="104" x="1051" y="377.6606">&#25910;&#21040;&#22270;&#29255;&#19978;&#20256;&#35831;&#27714;</text></g><!--link ???? to ??????--><g id="link_&#31561;&#24453;&#25351;&#20196;_&#31649;&#29702;&#21382;&#21490;&#35760;&#24405;"><path d="M736.48,554.5138 C881.46,546.6538 1386.95,518.9638 1394,514.5938 C1444.08,483.5438 1421.91,444.5638 1460,399.5938 C1477.18,379.3088 1500.22,360.3388 1519.19,346.3038 C1528.675,339.2863 1537.1425,333.5025 1543.3513,329.405 C1544.1273,328.8928 1544.8681,328.407 1545.5712,327.9484 C1545.6591,327.891 1540.7189,331.1088 1540.8056,331.0524 " fill="none" id="&#31561;&#24453;&#25351;&#20196;-to-&#31649;&#29702;&#21382;&#21490;&#35760;&#24405;" style="stroke:#181818;stroke-width:1.0;"/><polygon fill="#181818" points="1545.8331,327.7777,1536.1086,329.338,1541.6435,330.5066,1540.4749,336.0414,1545.8331,327.7777" style="stroke:#181818;stroke-width:1.0;"/><text fill="#000000" font-family="sans-serif" font-size="13" lengthAdjust="spacing" textLength="104" x="1461" y="429.1606">&#25910;&#21040;&#21382;&#21490;&#35760;&#24405;&#35831;&#27714;</text></g><!--link ???? to ????--><g id="link_&#31561;&#24453;&#25351;&#20196;_&#22788;&#29702;&#20998;&#20139;"><path d="M659.56,557.5438 C594.72,557.3438 461.8,549.0038 371,489.5938 C321.01,456.8938 318.42,434.6638 291,381.5938 C273.565,347.8538 260.21,307.3563 251.1425,274.9263 C248.8756,266.8188 248.3406,265.0342 246.6129,258.1667 " fill="none" id="&#31561;&#24453;&#25351;&#20196;-to-&#22788;&#29702;&#20998;&#20139;" style="stroke:#181818;stroke-width:1.0;"/><polygon fill="#181818" points="245.149,252.348,243.4657,262.052,246.3689,257.197,251.2239,260.1002,245.149,252.348" style="stroke:#181818;stroke-width:1.0;"/><text fill="#000000" font-family="sans-serif" font-size="13" lengthAdjust="spacing" textLength="78" x="292" y="377.6606">&#25910;&#21040;&#20998;&#20139;&#35831;&#27714;</text></g><!--link *start*???? to ??????--><g id="link_*start*&#29992;&#25143;&#27880;&#20876;_&#39564;&#35777;&#27880;&#20876;&#20449;&#24687;"><path d="M466,225.8238 C466,241.5338 466,267.9538 466,290.4638 " fill="none" id="*start*&#29992;&#25143;&#27880;&#20876;-to-&#39564;&#35777;&#27880;&#20876;&#20449;&#24687;" style="stroke:#181818;stroke-width:1.0;"/><polygon fill="#181818" points="466,296.4638,470,287.4638,466,291.4638,462,287.4638,466,296.4638" style="stroke:#181818;stroke-width:1.0;"/></g><!--link ?????? to ????--><g id="link_&#39564;&#35777;&#27880;&#20876;&#20449;&#24687;_&#27880;&#20876;&#25104;&#21151;"><path d="M434.33,346.6338 C429.34,351.9738 424.88,358.0138 422,364.5938 C417.31,375.2938 416.24,382.1746 416.9,393.1546 " fill="none" id="&#39564;&#35777;&#27880;&#20876;&#20449;&#24687;-to-&#27880;&#20876;&#25104;&#21151;" style="stroke:#181818;stroke-width:1.0;"/><polygon fill="#181818" points="417.26,399.1438,420.7128,389.92,416.96,394.1528,412.7272,390.4,417.26,399.1438" style="stroke:#181818;stroke-width:1.0;"/><text fill="#000000" font-family="sans-serif" font-size="13" lengthAdjust="spacing" textLength="52" x="423" y="377.6606">&#20449;&#24687;&#26377;&#25928;</text></g><!--link ?????? to ????--><g id="link_&#39564;&#35777;&#27880;&#20876;&#20449;&#24687;_&#27880;&#20876;&#22833;&#36133;"><path d="M477.86,347.0438 C485.57,362.9238 492.9524,378.1349 500.6324,393.9749 " fill="none" id="&#39564;&#35777;&#27880;&#20876;&#20449;&#24687;-to-&#27880;&#20876;&#22833;&#36133;" style="stroke:#181818;stroke-width:1.0;"/><polygon fill="#181818" points="503.25,399.3738,502.9228,389.5303,501.0686,394.8747,495.7243,393.0205,503.25,399.3738" style="stroke:#181818;stroke-width:1.0;"/><text fill="#000000" font-family="sans-serif" font-size="13" lengthAdjust="spacing" textLength="52" x="494" y="377.6606">&#20449;&#24687;&#26080;&#25928;</text></g><!--link ???? to ????--><g id="link_&#27880;&#20876;&#25104;&#21151;_&#31561;&#24453;&#25351;&#20196;"><path d="M433.66,450.0038 C441.79,463.4838 453.54,479.4838 468,489.5938 C526.96,530.8338 605.317,546.1846 653.787,552.2846 " fill="none" id="&#27880;&#20876;&#25104;&#21151;-to-&#31561;&#24453;&#25351;&#20196;" style="stroke:#181818;stroke-width:1.0;"/><polygon fill="#181818" points="659.74,553.0338,651.3099,547.9413,654.7791,552.4094,650.311,555.8786,659.74,553.0338" style="stroke:#181818;stroke-width:1.0;"/></g><!--link ???? to ????--><g id="link_&#27880;&#20876;&#22833;&#36133;_&#31561;&#24453;&#25351;&#20196;"><path d="M527.66,449.8838 C539.16,469.7938 557.83,497.3938 581,514.5938 C604.31,531.8938 629.6106,541.1135 653.8906,547.3835 " fill="none" id="&#27880;&#20876;&#22833;&#36133;-to-&#31561;&#24453;&#25351;&#20196;" style="stroke:#181818;stroke-width:1.0;"/><polygon fill="#181818" points="659.7,548.8838,651.986,542.7605,654.8588,547.6336,649.9857,550.5064,659.7,548.8838" style="stroke:#181818;stroke-width:1.0;"/></g><!--link *start*???? to ??????--><g id="link_*start*&#29992;&#25143;&#30331;&#24405;_&#39564;&#35777;&#30331;&#24405;&#20449;&#24687;"><path d="M885,225.8238 C885,241.5338 885,267.9538 885,290.4638 " fill="none" id="*start*&#29992;&#25143;&#30331;&#24405;-to-&#39564;&#35777;&#30331;&#24405;&#20449;&#24687;" style="stroke:#181818;stroke-width:1.0;"/><polygon fill="#181818" points="885,296.4638,889,287.4638,885,291.4638,881,287.4638,885,296.4638" style="stroke:#181818;stroke-width:1.0;"/></g><!--link ?????? to ????--><g id="link_&#39564;&#35777;&#30331;&#24405;&#20449;&#24687;_&#30331;&#24405;&#25104;&#21151;"><path d="M853.33,346.6338 C848.34,351.9738 843.88,358.0138 841,364.5938 C836.31,375.2938 835.24,382.1746 835.9,393.1546 " fill="none" id="&#39564;&#35777;&#30331;&#24405;&#20449;&#24687;-to-&#30331;&#24405;&#25104;&#21151;" style="stroke:#181818;stroke-width:1.0;"/><polygon fill="#181818" points="836.26,399.1438,839.7128,389.92,835.96,394.1528,831.7272,390.4,836.26,399.1438" style="stroke:#181818;stroke-width:1.0;"/><text fill="#000000" font-family="sans-serif" font-size="13" lengthAdjust="spacing" textLength="52" x="842" y="377.6606">&#20973;&#35777;&#26377;&#25928;</text></g><!--link ?????? to ????--><g id="link_&#39564;&#35777;&#30331;&#24405;&#20449;&#24687;_&#30331;&#24405;&#22833;&#36133;"><path d="M896.86,347.0438 C904.57,362.9238 911.9524,378.1349 919.6324,393.9749 " fill="none" id="&#39564;&#35777;&#30331;&#24405;&#20449;&#24687;-to-&#30331;&#24405;&#22833;&#36133;" style="stroke:#181818;stroke-width:1.0;"/><polygon fill="#181818" points="922.25,399.3738,921.9228,389.5303,920.0686,394.8747,914.7243,393.0205,922.25,399.3738" style="stroke:#181818;stroke-width:1.0;"/><text fill="#000000" font-family="sans-serif" font-size="13" lengthAdjust="spacing" textLength="52" x="913" y="377.6606">&#20973;&#35777;&#26080;&#25928;</text></g><!--link ???? to ????--><g id="link_&#30331;&#24405;&#25104;&#21151;_&#31561;&#24453;&#25351;&#20196;"><path d="M813.62,449.9238 C788.12,473.4538 754.099,504.8343 728.649,528.3243 " fill="none" id="&#30331;&#24405;&#25104;&#21151;-to-&#31561;&#24453;&#25351;&#20196;" style="stroke:#181818;stroke-width:1.0;"/><polygon fill="#181818" points="724.24,532.3938,733.5665,529.2289,727.9142,529.0025,728.1406,523.3502,724.24,532.3938" style="stroke:#181818;stroke-width:1.0;"/></g><!--link ???? to ????--><g id="link_&#30331;&#24405;&#22833;&#36133;_&#31561;&#24453;&#25351;&#20196;"><path d="M920.93,450.0138 C912.73,463.3238 901.05,479.1538 887,489.5938 C841.31,523.5438 782.762,540.2212 742.172,548.7412 " fill="none" id="&#30331;&#24405;&#22833;&#36133;-to-&#31561;&#24453;&#25351;&#20196;" style="stroke:#181818;stroke-width:1.0;"/><polygon fill="#181818" points="736.3,549.9738,745.9298,552.0396,741.1934,548.9466,744.2863,544.2102,736.3,549.9738" style="stroke:#181818;stroke-width:1.0;"/></g><!--link *start*?????? to ??????--><g id="link_*start*&#22788;&#29702;&#22270;&#29255;&#19978;&#20256;_&#26816;&#26597;&#22270;&#29255;&#38480;&#21046;"><path d="M1261,225.8238 C1261,241.5338 1261,267.9538 1261,290.4638 " fill="none" id="*start*&#22788;&#29702;&#22270;&#29255;&#19978;&#20256;-to-&#26816;&#26597;&#22270;&#29255;&#38480;&#21046;" style="stroke:#181818;stroke-width:1.0;"/><polygon fill="#181818" points="1261,296.4638,1265,287.4638,1261,291.4638,1257,287.4638,1261,296.4638" style="stroke:#181818;stroke-width:1.0;"/></g><!--link ?????? to ????--><g id="link_&#26816;&#26597;&#22270;&#29255;&#38480;&#21046;_&#22270;&#29255;&#20998;&#26512;"><path d="M1272.4,346.8738 C1274.99,352.6438 1277.66,358.8038 1280,364.5938 C1284.56,375.8838 1287.1683,382.927 1290.8983,393.647 " fill="none" id="&#26816;&#26597;&#22270;&#29255;&#38480;&#21046;-to-&#22270;&#29255;&#20998;&#26512;" style="stroke:#181818;stroke-width:1.0;"/><polygon fill="#181818" points="1292.87,399.3138,1293.6902,389.4991,1291.2269,394.5914,1286.1345,392.1281,1292.87,399.3138" style="stroke:#181818;stroke-width:1.0;"/><text fill="#000000" font-family="sans-serif" font-size="13" lengthAdjust="spacing" textLength="78" x="1287" y="377.6606">&#22270;&#29255;&#31526;&#21512;&#35201;&#27714;</text></g><!--link ?????? to ????--><g id="link_&#26816;&#26597;&#22270;&#29255;&#38480;&#21046;_&#19978;&#20256;&#22833;&#36133;"><path d="M1208.83,340.5638 C1198.55,346.5738 1189.07,354.4238 1183,364.5938 C1176.57,375.3538 1177.4562,383.0225 1183.7162,393.9925 " fill="none" id="&#26816;&#26597;&#22270;&#29255;&#38480;&#21046;-to-&#19978;&#20256;&#22833;&#36133;" style="stroke:#181818;stroke-width:1.0;"/><polygon fill="#181818" points="1186.69,399.2038,1185.7035,389.4044,1184.2119,394.8611,1178.7552,393.3694,1186.69,399.2038" style="stroke:#181818;stroke-width:1.0;"/><text fill="#000000" font-family="sans-serif" font-size="13" lengthAdjust="spacing" textLength="91" x="1184" y="377.6606">&#22270;&#29255;&#19981;&#31526;&#21512;&#35201;&#27714;</text></g><!--link ???? to ????--><g id="link_&#22270;&#29255;&#20998;&#26512;_&#20998;&#26512;&#23436;&#25104;"><path d="M1292.08,449.9238 C1283.46,473.4538 1272.5328,503.2695 1263.9328,526.7595 " fill="none" id="&#22270;&#29255;&#20998;&#26512;-to-&#20998;&#26512;&#23436;&#25104;" style="stroke:#181818;stroke-width:1.0;"/><polygon fill="#181818" points="1261.87,532.3938,1268.7203,525.3175,1263.589,527.6985,1261.208,522.5672,1261.87,532.3938" style="stroke:#181818;stroke-width:1.0;"/><text fill="#000000" font-family="sans-serif" font-size="13" lengthAdjust="spacing" textLength="52" x="1275" y="510.6606">&#20998;&#26512;&#25104;&#21151;</text></g><!--link ???? to ????--><g id="link_&#19978;&#20256;&#22833;&#36133;_&#31561;&#24453;&#25351;&#20196;"><path d="M1173.04,449.9838 C1143.08,470.8038 1096.83,499.6838 1052,514.5938 C941.59,551.3138 808.4299,556.7265 742.2899,557.0265 " fill="none" id="&#19978;&#20256;&#22833;&#36133;-to-&#31561;&#24453;&#25351;&#20196;" style="stroke:#181818;stroke-width:1.0;"/><polygon fill="#181818" points="736.29,557.0538,745.3081,561.0129,741.2899,557.0311,745.2718,553.013,736.29,557.0538" style="stroke:#181818;stroke-width:1.0;"/></g><!--link ???? to ????--><g id="link_&#20998;&#26512;&#23436;&#25104;_&#31561;&#24453;&#25351;&#20196;"><path d="M1214.66,557.5938 C1055.27,557.5938 901.88,557.5938 742.48,557.5938 " fill="none" id="&#20998;&#26512;&#23436;&#25104;-to-&#31561;&#24453;&#25351;&#20196;" style="stroke:#181818;stroke-width:1.0;"/><polygon fill="#181818" points="736.48,557.5938,745.48,561.5938,741.48,557.5938,745.48,553.5938,736.48,557.5938" style="stroke:#181818;stroke-width:1.0;"/></g><!--link *start*?????? to ??????--><g id="link_*start*&#31649;&#29702;&#21382;&#21490;&#35760;&#24405;_&#26174;&#31034;&#21382;&#21490;&#35760;&#24405;"><path d="M1640,331.9138 C1640,347.0538 1640,371.4738 1640,393.1138 " fill="none" id="*start*&#31649;&#29702;&#21382;&#21490;&#35760;&#24405;-to-&#26174;&#31034;&#21382;&#21490;&#35760;&#24405;" style="stroke:#181818;stroke-width:1.0;"/><polygon fill="#181818" points="1640,399.1138,1644,390.1138,1640,394.1138,1636,390.1138,1640,399.1138" style="stroke:#181818;stroke-width:1.0;"/></g><!--link ?????? to ??????--><g id="link_&#26174;&#31034;&#21382;&#21490;&#35760;&#24405;_&#35814;&#32454;&#20998;&#26512;&#32467;&#26524;"><path d="M1641.86,449.9238 C1643.65,473.4538 1645.9041,502.9211 1647.6941,526.4111 " fill="none" id="&#26174;&#31034;&#21382;&#21490;&#35760;&#24405;-to-&#35814;&#32454;&#20998;&#26512;&#32467;&#26524;" style="stroke:#181818;stroke-width:1.0;"/><polygon fill="#181818" points="1648.15,532.3938,1651.4546,523.1158,1647.7701,527.4082,1643.4777,523.7237,1648.15,532.3938" style="stroke:#181818;stroke-width:1.0;"/><text fill="#000000" font-family="sans-serif" font-size="13" lengthAdjust="spacing" textLength="52" x="1647" y="510.6606">&#36873;&#25321;&#35760;&#24405;</text></g><!--link ?????? to ????--><g id="link_&#26174;&#31034;&#21382;&#21490;&#35760;&#24405;_&#31561;&#24453;&#25351;&#20196;"><path d="M1614.54,449.9138 C1599.23,463.3538 1578.73,479.3538 1558,489.5938 C1518.47,509.1138 1505.56,507.7938 1462,514.5938 C1443.89,517.4238 894.9218,546.2902 742.4318,554.2702 " fill="none" id="&#26174;&#31034;&#21382;&#21490;&#35760;&#24405;-to-&#31561;&#24453;&#25351;&#20196;" style="stroke:#181818;stroke-width:1.0;"/><polygon fill="#181818" points="736.44,554.5838,745.6367,558.1079,741.4332,554.3225,745.2187,550.1189,736.44,554.5838" style="stroke:#181818;stroke-width:1.0;"/><text fill="#000000" font-family="sans-serif" font-size="13" lengthAdjust="spacing" textLength="26" x="1539" y="510.6606">&#36820;&#22238;</text></g><!--link ?????? to ????--><g id="link_&#35814;&#32454;&#20998;&#26512;&#32467;&#26524;_&#20877;&#27425;&#20998;&#26512;"><path d="M1629.56,582.8438 C1619.76,596.0538 1609.08,613.2238 1604,630.5938 C1600.72,641.8338 1600.905,648.7682 1604.065,659.4982 " fill="none" id="&#35814;&#32454;&#20998;&#26512;&#32467;&#26524;-to-&#20877;&#27425;&#20998;&#26512;" style="stroke:#181818;stroke-width:1.0;"/><polygon fill="#181818" points="1605.76,665.2538,1607.0545,655.4903,1604.3475,660.4574,1599.3804,657.7504,1605.76,665.2538" style="stroke:#181818;stroke-width:1.0;"/><text fill="#000000" font-family="sans-serif" font-size="13" lengthAdjust="spacing" textLength="78" x="1605" y="643.6606">&#36873;&#25321;&#20877;&#27425;&#20998;&#26512;</text></g><!--link ?????? to ????--><g id="link_&#35814;&#32454;&#20998;&#26512;&#32467;&#26524;_&#21024;&#38500;&#35760;&#24405;"><path d="M1662.82,582.9238 C1675.21,606.4538 1691.0843,636.5949 1703.4543,660.0849 " fill="none" id="&#35814;&#32454;&#20998;&#26512;&#32467;&#26524;-to-&#21024;&#38500;&#35760;&#24405;" style="stroke:#181818;stroke-width:1.0;"/><polygon fill="#181818" points="1706.25,665.3938,1705.5957,655.5666,1703.9203,660.9697,1698.5172,659.2942,1706.25,665.3938" style="stroke:#181818;stroke-width:1.0;"/><text fill="#000000" font-family="sans-serif" font-size="13" lengthAdjust="spacing" textLength="52" x="1697" y="643.6606">&#36873;&#25321;&#21024;&#38500;</text></g><!--link ???? to ??????--><g id="link_&#20877;&#27425;&#20998;&#26512;_&#26174;&#31034;&#21382;&#21490;&#35760;&#24405;"><path d="M1605.28,665.2638 C1602.82,659.5038 1600.27,653.3538 1598,647.5938 C1579.21,599.8938 1577.69,582.5938 1589,532.5938 C1595.81,502.4838 1609.1034,476.0927 1621.4634,455.1227 " fill="none" id="&#20877;&#27425;&#20998;&#26512;-to-&#26174;&#31034;&#21382;&#21490;&#35760;&#24405;" style="stroke:#181818;stroke-width:1.0;"/><polygon fill="#181818" points="1624.51,449.9538,1616.4941,455.6761,1621.9711,454.2612,1623.386,459.7383,1624.51,449.9538" style="stroke:#181818;stroke-width:1.0;"/></g><!--link ???? to ??????--><g id="link_&#21024;&#38500;&#35760;&#24405;_&#26174;&#31034;&#21382;&#21490;&#35760;&#24405;"><path d="M1744,665.1938 C1748.1,659.8138 1751.74,653.8438 1754,647.5938 C1756.57,640.4938 1755.35,638.0238 1754,630.5938 C1742.71,568.4638 1736.64,551.6538 1704,497.5938 C1693.54,480.2738 1682.8516,467.5365 1670.0816,454.3965 " fill="none" id="&#21024;&#38500;&#35760;&#24405;-to-&#26174;&#31034;&#21382;&#21490;&#35760;&#24405;" style="stroke:#181818;stroke-width:1.0;"/><polygon fill="#181818" points="1665.9,450.0938,1669.3039,459.3357,1669.3847,453.6794,1675.041,453.7602,1665.9,450.0938" style="stroke:#181818;stroke-width:1.0;"/></g><!--link *start*???? to ??????--><g id="link_*start*&#22788;&#29702;&#20998;&#20139;_&#20934;&#22791;&#20998;&#20139;&#20869;&#23481;"><path d="M126,225.8238 C126,241.5338 126,267.9538 126,290.4638 " fill="none" id="*start*&#22788;&#29702;&#20998;&#20139;-to-&#20934;&#22791;&#20998;&#20139;&#20869;&#23481;" style="stroke:#181818;stroke-width:1.0;"/><polygon fill="#181818" points="126,296.4638,130,287.4638,126,291.4638,122,287.4638,126,296.4638" style="stroke:#181818;stroke-width:1.0;"/></g><!--link ?????? to ????--><g id="link_&#20934;&#22791;&#20998;&#20139;&#20869;&#23481;_&#20998;&#20139;&#25104;&#21151;"><path d="M94.33,346.6338 C89.34,351.9738 84.88,358.0138 82,364.5938 C77.31,375.2938 76.24,382.1746 76.9,393.1546 " fill="none" id="&#20934;&#22791;&#20998;&#20139;&#20869;&#23481;-to-&#20998;&#20139;&#25104;&#21151;" style="stroke:#181818;stroke-width:1.0;"/><polygon fill="#181818" points="77.26,399.1438,80.7128,389.92,76.96,394.1528,72.7272,390.4,77.26,399.1438" style="stroke:#181818;stroke-width:1.0;"/><text fill="#000000" font-family="sans-serif" font-size="13" lengthAdjust="spacing" textLength="52" x="83" y="377.6606">&#20998;&#20139;&#23436;&#25104;</text></g><!--link ?????? to ????--><g id="link_&#20934;&#22791;&#20998;&#20139;&#20869;&#23481;_&#20998;&#20139;&#22833;&#36133;"><path d="M137.86,347.0438 C145.57,362.9238 152.9524,378.1349 160.6324,393.9749 " fill="none" id="&#20934;&#22791;&#20998;&#20139;&#20869;&#23481;-to-&#20998;&#20139;&#22833;&#36133;" style="stroke:#181818;stroke-width:1.0;"/><polygon fill="#181818" points="163.25,399.3738,162.9228,389.5303,161.0686,394.8747,155.7243,393.0205,163.25,399.3738" style="stroke:#181818;stroke-width:1.0;"/><text fill="#000000" font-family="sans-serif" font-size="13" lengthAdjust="spacing" textLength="52" x="154" y="377.6606">&#20998;&#20139;&#20013;&#26029;</text></g><!--link ???? to ????--><g id="link_&#20998;&#20139;&#25104;&#21151;_&#31561;&#24453;&#25351;&#20196;"><path d="M92.98,449.8238 C101.02,463.5838 112.9,479.9438 128,489.5938 C175,519.6438 195.82,506.4138 251,514.5938 C401.35,536.8738 576.0214,549.2139 653.5814,554.0039 " fill="none" id="&#20998;&#20139;&#25104;&#21151;-to-&#31561;&#24453;&#25351;&#20196;" style="stroke:#181818;stroke-width:1.0;"/><polygon fill="#181818" points="659.57,554.3738,650.8337,549.8266,654.5795,554.0655,650.3405,557.8114,659.57,554.3738" style="stroke:#181818;stroke-width:1.0;"/></g><!--link ???? to ????--><g id="link_&#20998;&#20139;&#22833;&#36133;_&#31561;&#24453;&#25351;&#20196;"><path d="M197.06,449.8538 C217.78,470.8938 250.8,500.1738 286,514.5938 C353.2,542.1138 564.8736,552.1445 653.7136,555.2445 " fill="none" id="&#20998;&#20139;&#22833;&#36133;-to-&#31561;&#24453;&#25351;&#20196;" style="stroke:#181818;stroke-width:1.0;"/><polygon fill="#181818" points="659.71,555.4538,650.855,551.1423,654.713,555.2794,650.576,559.1375,659.71,555.4538" style="stroke:#181818;stroke-width:1.0;"/></g><ellipse cx="903.5" cy="837.5969" fill="none" rx="11" ry="11" style="stroke:#222222;stroke-width:1.0;"/><ellipse cx="903.5" cy="837.5969" fill="#222222" rx="6" ry="6" style="stroke:#222222;stroke-width:1.0;"/><!--link *start* to ????--><g id="link_*start*_&#24453;&#26426;&#29366;&#24577;"><path d="M903.5,63.7369 C903.5,75.3269 903.5,90.8269 903.5,117.8869 " fill="none" id="*start*-to-&#24453;&#26426;&#29366;&#24577;" style="stroke:#181818;stroke-width:1.0;"/><polygon fill="#181818" points="903.5,123.8869,907.5,114.8869,903.5,118.8869,899.5,114.8869,903.5,123.8869" style="stroke:#181818;stroke-width:1.0;"/></g><!--link ???? to *end*--><g id="link_&#24453;&#26426;&#29366;&#24577;_*end*"><path d="M903.5,750.0969 C903.5,784.3769 903.5,806.0169 903.5,820.2069 " fill="none" id="&#24453;&#26426;&#29366;&#24577;-to-*end*" style="stroke:#181818;stroke-width:1.0;"/><polygon fill="#181818" points="903.5,826.2069,907.5,817.2069,903.5,821.2069,899.5,817.2069,903.5,826.2069" style="stroke:#181818;stroke-width:1.0;"/><text fill="#000000" font-family="sans-serif" font-size="13" lengthAdjust="spacing" textLength="52" x="904.5" y="792.6638">&#31995;&#32479;&#20851;&#38381;</text></g><!--SRC=[ZLNBJjjG4DtxA-uQYH_8eZ-2kc310ebTiqELaggndPI7fORIY2WFrOIqnGaG521kmyzuvjf_WNt7ZtlZHyWgSsREcNlcpatgX_MZ0uPdDs0keJVbdIKscd2rrhIzdOziT_S3WtKB-ojAQDgd-dxzGC7OiSR2JrBEdNQKFJ4yrnO96Q2AxXJD9rnCGJzXDORT9PXt5Fhp9xp_KaNZFHV-NwGq2gjeO7_bbXuwuct3U-vu_qOfMGOhEy_6aSIP3kSF_knExY-3xpY5gNkhlnbPX37jSp9RPJpgR8C_uOIQbF9UnzYSYtGU5jK4e6b1PnZsf0psstXXRgU1VUy_NcUqor52KsGBRrnHo5Li68qljCWefN96PPZa1P0Q1SE9V6qQBQ6bHcDQPbIHBLvjMQ7SQC4AgdRnLmE7rrGGzApmAT8SSp3jaW32vS615PrRXFns0fRfJvh92fQGgNzcEZxKQOwlT15jnLUOHLSVCKL8qn44HRbmN8f2nLxadzl6k7wkkRsI2yXn3XRL_dp2NPrwS_Sx3lhXwOD66x_ztavM7dAD-QzTk1e8Ge6ic99-YhVZz7AeZmnMairHqBFJdvYOB40Qe2nUCGb5fwHkSplffqaTD1Wws0QbG6_1x8NaSt2o826GFKFAYzlUJiisKeJUiuC_d6HhCjcolSeKYlPA-RkA2YA3DSONBdU7q5e4byuR]--></g></svg>