<?xml version="1.0" encoding="us-ascii" standalone="no"?><svg xmlns="http://www.w3.org/2000/svg" xmlns:xlink="http://www.w3.org/1999/xlink" contentStyleType="text/css" height="730px" preserveAspectRatio="none" style="width:2051px;height:730px;background:#FFFFFF;" version="1.1" viewBox="0 0 2051 730" width="2051px" zoomAndPan="magnify"><defs/><g><!--class User--><g id="elem_User"><rect codeLine="1" fill="#F1F1F1" height="162.0781" id="User" rx="2.5" ry="2.5" style="stroke:#181818;stroke-width:0.5;" width="491" x="7" y="395.52"/><ellipse cx="232.25" cy="411.52" fill="#ADD1B2" rx="11" ry="11" style="stroke:#181818;stroke-width:1.0;"/><path d="M235.2188,417.1606 Q234.6406,417.4575 234,417.5981 Q233.3594,417.7544 232.6563,417.7544 Q230.1563,417.7544 228.8281,416.1138 Q227.5156,414.4575 227.5156,411.3325 Q227.5156,408.2075 228.8281,406.5513 Q230.1563,404.895 232.6563,404.895 Q233.3594,404.895 234,405.0513 Q234.6563,405.2075 235.2188,405.5044 L235.2188,408.2231 Q234.5938,407.645 234,407.3794 Q233.4063,407.0981 232.7813,407.0981 Q231.4375,407.0981 230.75,408.1763 Q230.0625,409.2388 230.0625,411.3325 Q230.0625,413.4263 230.75,414.5044 Q231.4375,415.5669 232.7813,415.5669 Q233.4063,415.5669 234,415.3013 Q234.5938,415.02 235.2188,414.4419 L235.2188,417.1606 Z " fill="#000000"/><text fill="#000000" font-family="sans-serif" font-size="14" lengthAdjust="spacing" textLength="32" x="252.75" y="416.3667">User</text><line style="stroke:#181818;stroke-width:0.5;" x1="8" x2="497" y1="427.52" y2="427.52"/><rect fill="none" height="6" style="stroke:#C82930;stroke-width:1.0;" width="6" x="15" y="438.1684"/><text fill="#000000" font-family="sans-serif" font-size="14" lengthAdjust="spacing" textLength="92" x="27" y="444.5151">userId: String</text><rect fill="none" height="6" style="stroke:#C82930;stroke-width:1.0;" width="6" x="15" y="454.4653"/><text fill="#000000" font-family="sans-serif" font-size="14" lengthAdjust="spacing" textLength="119" x="27" y="460.812">username: String</text><rect fill="none" height="6" style="stroke:#C82930;stroke-width:1.0;" width="6" x="15" y="470.7622"/><text fill="#000000" font-family="sans-serif" font-size="14" lengthAdjust="spacing" textLength="116" x="27" y="477.1089">password: String</text><rect fill="none" height="6" style="stroke:#C82930;stroke-width:1.0;" width="6" x="15" y="487.0591"/><text fill="#000000" font-family="sans-serif" font-size="14" lengthAdjust="spacing" textLength="85" x="27" y="493.4057">email: String</text><line style="stroke:#181818;stroke-width:0.5;" x1="8" x2="497" y1="500.7075" y2="500.7075"/><ellipse cx="18" cy="514.3559" fill="#84BE84" rx="3" ry="3" style="stroke:#038048;stroke-width:1.0;"/><text fill="#000000" font-family="sans-serif" font-size="14" lengthAdjust="spacing" textLength="465" x="27" y="517.7026">register(username: String, password: String, email: String): Boolean</text><ellipse cx="18" cy="530.6528" fill="#84BE84" rx="3" ry="3" style="stroke:#038048;stroke-width:1.0;"/><text fill="#000000" font-family="sans-serif" font-size="14" lengthAdjust="spacing" textLength="352" x="27" y="533.9995">login(username: String, password: String): Boolean</text><ellipse cx="18" cy="546.9497" fill="#84BE84" rx="3" ry="3" style="stroke:#038048;stroke-width:1.0;"/><text fill="#000000" font-family="sans-serif" font-size="14" lengthAdjust="spacing" textLength="91" x="27" y="550.2964">logout(): void</text></g><!--class Interface--><g id="elem_Interface"><rect codeLine="11" fill="#F1F1F1" height="80.5938" id="Interface" rx="2.5" ry="2.5" style="stroke:#181818;stroke-width:0.5;" width="278" x="985.5" y="7"/><ellipse cx="1090.25" cy="23" fill="#ADD1B2" rx="11" ry="11" style="stroke:#181818;stroke-width:1.0;"/><path d="M1093.2188,28.6406 Q1092.6406,28.9375 1092,29.0781 Q1091.3594,29.2344 1090.6563,29.2344 Q1088.1563,29.2344 1086.8281,27.5938 Q1085.5156,25.9375 1085.5156,22.8125 Q1085.5156,19.6875 1086.8281,18.0313 Q1088.1563,16.375 1090.6563,16.375 Q1091.3594,16.375 1092,16.5313 Q1092.6563,16.6875 1093.2188,16.9844 L1093.2188,19.7031 Q1092.5938,19.125 1092,18.8594 Q1091.4063,18.5781 1090.7813,18.5781 Q1089.4375,18.5781 1088.75,19.6563 Q1088.0625,20.7188 1088.0625,22.8125 Q1088.0625,24.9063 1088.75,25.9844 Q1089.4375,27.0469 1090.7813,27.0469 Q1091.4063,27.0469 1092,26.7813 Q1092.5938,26.5 1093.2188,25.9219 L1093.2188,28.6406 Z " fill="#000000"/><text fill="#000000" font-family="sans-serif" font-size="14" lengthAdjust="spacing" textLength="60" x="1110.75" y="27.8467">Interface</text><line style="stroke:#181818;stroke-width:0.5;" x1="986.5" x2="1262.5" y1="39" y2="39"/><line style="stroke:#181818;stroke-width:0.5;" x1="986.5" x2="1262.5" y1="47" y2="47"/><ellipse cx="996.5" cy="60.6484" fill="#84BE84" rx="3" ry="3" style="stroke:#038048;stroke-width:1.0;"/><text fill="#000000" font-family="sans-serif" font-size="14" lengthAdjust="spacing" textLength="94" x="1005.5" y="63.9951">display(): void</text><ellipse cx="996.5" cy="76.9453" fill="#84BE84" rx="3" ry="3" style="stroke:#038048;stroke-width:1.0;"/><text fill="#000000" font-family="sans-serif" font-size="14" lengthAdjust="spacing" textLength="252" x="1005.5" y="80.292">navigateTo(interface: Interface): void</text></g><!--class Image--><g id="elem_Image"><rect codeLine="16" fill="#F1F1F1" height="145.7813" id="Image" rx="2.5" ry="2.5" style="stroke:#181818;stroke-width:0.5;" width="183" x="533" y="403.67"/><ellipse cx="599.25" cy="419.67" fill="#ADD1B2" rx="11" ry="11" style="stroke:#181818;stroke-width:1.0;"/><path d="M602.2188,425.3106 Q601.6406,425.6075 601,425.7481 Q600.3594,425.9044 599.6563,425.9044 Q597.1563,425.9044 595.8281,424.2638 Q594.5156,422.6075 594.5156,419.4825 Q594.5156,416.3575 595.8281,414.7013 Q597.1563,413.045 599.6563,413.045 Q600.3594,413.045 601,413.2013 Q601.6563,413.3575 602.2188,413.6544 L602.2188,416.3731 Q601.5938,415.795 601,415.5294 Q600.4063,415.2481 599.7813,415.2481 Q598.4375,415.2481 597.75,416.3263 Q597.0625,417.3888 597.0625,419.4825 Q597.0625,421.5763 597.75,422.6544 Q598.4375,423.7169 599.7813,423.7169 Q600.4063,423.7169 601,423.4513 Q601.5938,423.17 602.2188,422.5919 L602.2188,425.3106 Z " fill="#000000"/><text fill="#000000" font-family="sans-serif" font-size="14" lengthAdjust="spacing" textLength="42" x="619.75" y="424.5167">Image</text><line style="stroke:#181818;stroke-width:0.5;" x1="534" x2="715" y1="435.67" y2="435.67"/><rect fill="none" height="6" style="stroke:#C82930;stroke-width:1.0;" width="6" x="541" y="446.3184"/><text fill="#000000" font-family="sans-serif" font-size="14" lengthAdjust="spacing" textLength="103" x="553" y="452.6651">imageId: String</text><rect fill="none" height="6" style="stroke:#C82930;stroke-width:1.0;" width="6" x="541" y="462.6153"/><text fill="#000000" font-family="sans-serif" font-size="14" lengthAdjust="spacing" textLength="92" x="553" y="468.962">userId: String</text><rect fill="none" height="6" style="stroke:#C82930;stroke-width:1.0;" width="6" x="541" y="478.9122"/><text fill="#000000" font-family="sans-serif" font-size="14" lengthAdjust="spacing" textLength="80" x="553" y="485.2589">path: String</text><rect fill="none" height="6" style="stroke:#C82930;stroke-width:1.0;" width="6" x="541" y="495.2091"/><text fill="#000000" font-family="sans-serif" font-size="14" lengthAdjust="spacing" textLength="157" x="553" y="501.5557">uploadTime: DateTime</text><line style="stroke:#181818;stroke-width:0.5;" x1="534" x2="715" y1="508.8575" y2="508.8575"/><ellipse cx="544" cy="522.5059" fill="#84BE84" rx="3" ry="3" style="stroke:#038048;stroke-width:1.0;"/><text fill="#000000" font-family="sans-serif" font-size="14" lengthAdjust="spacing" textLength="136" x="553" y="525.8526">getImageId(): String</text><ellipse cx="544" cy="538.8028" fill="#84BE84" rx="3" ry="3" style="stroke:#038048;stroke-width:1.0;"/><text fill="#000000" font-family="sans-serif" font-size="14" lengthAdjust="spacing" textLength="113" x="553" y="542.1495">getPath(): String</text></g><!--class ImageProcessingService--><g id="elem_ImageProcessingService"><rect codeLine="25" fill="#F1F1F1" height="80.5938" id="ImageProcessingService" rx="2.5" ry="2.5" style="stroke:#181818;stroke-width:0.5;" width="353" x="1572" y="7"/><ellipse cx="1659.75" cy="23" fill="#ADD1B2" rx="11" ry="11" style="stroke:#181818;stroke-width:1.0;"/><path d="M1662.7188,28.6406 Q1662.1406,28.9375 1661.5,29.0781 Q1660.8594,29.2344 1660.1563,29.2344 Q1657.6563,29.2344 1656.3281,27.5938 Q1655.0156,25.9375 1655.0156,22.8125 Q1655.0156,19.6875 1656.3281,18.0313 Q1657.6563,16.375 1660.1563,16.375 Q1660.8594,16.375 1661.5,16.5313 Q1662.1563,16.6875 1662.7188,16.9844 L1662.7188,19.7031 Q1662.0938,19.125 1661.5,18.8594 Q1660.9063,18.5781 1660.2813,18.5781 Q1658.9375,18.5781 1658.25,19.6563 Q1657.5625,20.7188 1657.5625,22.8125 Q1657.5625,24.9063 1658.25,25.9844 Q1658.9375,27.0469 1660.2813,27.0469 Q1660.9063,27.0469 1661.5,26.7813 Q1662.0938,26.5 1662.7188,25.9219 L1662.7188,28.6406 Z " fill="#000000"/><text fill="#000000" font-family="sans-serif" font-size="14" lengthAdjust="spacing" textLength="169" x="1680.25" y="27.8467">ImageProcessingService</text><line style="stroke:#181818;stroke-width:0.5;" x1="1573" x2="1924" y1="39" y2="39"/><line style="stroke:#181818;stroke-width:0.5;" x1="1573" x2="1924" y1="47" y2="47"/><ellipse cx="1583" cy="60.6484" fill="#84BE84" rx="3" ry="3" style="stroke:#038048;stroke-width:1.0;"/><text fill="#000000" font-family="sans-serif" font-size="14" lengthAdjust="spacing" textLength="327" x="1592" y="63.9951">uploadImage(user: User, imageFile: File): Image</text><ellipse cx="1583" cy="76.9453" fill="#84BE84" rx="3" ry="3" style="stroke:#038048;stroke-width:1.0;"/><text fill="#000000" font-family="sans-serif" font-size="14" lengthAdjust="spacing" textLength="305" x="1592" y="80.292">analyzeImage(image: Image): AnalysisResult</text></g><!--class DatabaseManager--><g id="elem_DatabaseManager"><rect codeLine="30" fill="#F1F1F1" height="145.7813" id="DatabaseManager" rx="2.5" ry="2.5" style="stroke:#181818;stroke-width:0.5;" width="377" x="434" y="164.59"/><ellipse cx="555.25" cy="180.59" fill="#ADD1B2" rx="11" ry="11" style="stroke:#181818;stroke-width:1.0;"/><path d="M558.2188,186.2306 Q557.6406,186.5275 557,186.6681 Q556.3594,186.8244 555.6563,186.8244 Q553.1563,186.8244 551.8281,185.1838 Q550.5156,183.5275 550.5156,180.4025 Q550.5156,177.2775 551.8281,175.6213 Q553.1563,173.965 555.6563,173.965 Q556.3594,173.965 557,174.1213 Q557.6563,174.2775 558.2188,174.5744 L558.2188,177.2931 Q557.5938,176.715 557,176.4494 Q556.4063,176.1681 555.7813,176.1681 Q554.4375,176.1681 553.75,177.2463 Q553.0625,178.3088 553.0625,180.4025 Q553.0625,182.4963 553.75,183.5744 Q554.4375,184.6369 555.7813,184.6369 Q556.4063,184.6369 557,184.3713 Q557.5938,184.09 558.2188,183.5119 L558.2188,186.2306 Z " fill="#000000"/><text fill="#000000" font-family="sans-serif" font-size="14" lengthAdjust="spacing" textLength="126" x="575.75" y="185.4367">DatabaseManager</text><line style="stroke:#181818;stroke-width:0.5;" x1="435" x2="810" y1="196.59" y2="196.59"/><line style="stroke:#181818;stroke-width:0.5;" x1="435" x2="810" y1="204.59" y2="204.59"/><ellipse cx="445" cy="218.2384" fill="#84BE84" rx="3" ry="3" style="stroke:#038048;stroke-width:1.0;"/><text fill="#000000" font-family="sans-serif" font-size="14" lengthAdjust="spacing" textLength="212" x="454" y="221.5851">storeUserInfo(user: User): void</text><ellipse cx="445" cy="234.5353" fill="#84BE84" rx="3" ry="3" style="stroke:#038048;stroke-width:1.0;"/><text fill="#000000" font-family="sans-serif" font-size="14" lengthAdjust="spacing" textLength="218" x="454" y="237.882">storeImage(image: Image): void</text><ellipse cx="445" cy="250.8322" fill="#84BE84" rx="3" ry="3" style="stroke:#038048;stroke-width:1.0;"/><text fill="#000000" font-family="sans-serif" font-size="14" lengthAdjust="spacing" textLength="329" x="454" y="254.1789">storeAnalysisResult(result: AnalysisResult): void</text><ellipse cx="445" cy="267.1291" fill="#84BE84" rx="3" ry="3" style="stroke:#038048;stroke-width:1.0;"/><text fill="#000000" font-family="sans-serif" font-size="14" lengthAdjust="spacing" textLength="345" x="454" y="270.4757">fetchAnalysisResult(image: Image): AnalysisResult</text><ellipse cx="445" cy="283.4259" fill="#84BE84" rx="3" ry="3" style="stroke:#038048;stroke-width:1.0;"/><text fill="#000000" font-family="sans-serif" font-size="14" lengthAdjust="spacing" textLength="351" x="454" y="286.7726">fetchUserHistory(user: User): List&lt;AnalysisResult&gt;</text><ellipse cx="445" cy="299.7228" fill="#84BE84" rx="3" ry="3" style="stroke:#038048;stroke-width:1.0;"/><text fill="#000000" font-family="sans-serif" font-size="14" lengthAdjust="spacing" textLength="276" x="454" y="303.0695">deleteRecord(recordId: String): Boolean</text></g><!--class AnalysisResult--><g id="elem_AnalysisResult"><rect codeLine="39" fill="#F1F1F1" height="178.375" id="AnalysisResult" rx="2.5" ry="2.5" style="stroke:#181818;stroke-width:0.5;" width="197" x="753" y="387.37"/><ellipse cx="797.75" cy="403.37" fill="#ADD1B2" rx="11" ry="11" style="stroke:#181818;stroke-width:1.0;"/><path d="M800.7188,409.0106 Q800.1406,409.3075 799.5,409.4481 Q798.8594,409.6044 798.1563,409.6044 Q795.6563,409.6044 794.3281,407.9638 Q793.0156,406.3075 793.0156,403.1825 Q793.0156,400.0575 794.3281,398.4013 Q795.6563,396.745 798.1563,396.745 Q798.8594,396.745 799.5,396.9013 Q800.1563,397.0575 800.7188,397.3544 L800.7188,400.0731 Q800.0938,399.495 799.5,399.2294 Q798.9063,398.9481 798.2813,398.9481 Q796.9375,398.9481 796.25,400.0263 Q795.5625,401.0888 795.5625,403.1825 Q795.5625,405.2763 796.25,406.3544 Q796.9375,407.4169 798.2813,407.4169 Q798.9063,407.4169 799.5,407.1513 Q800.0938,406.87 800.7188,406.2919 L800.7188,409.0106 Z " fill="#000000"/><text fill="#000000" font-family="sans-serif" font-size="14" lengthAdjust="spacing" textLength="99" x="818.25" y="408.2167">AnalysisResult</text><line style="stroke:#181818;stroke-width:0.5;" x1="754" x2="949" y1="419.37" y2="419.37"/><rect fill="none" height="6" style="stroke:#C82930;stroke-width:1.0;" width="6" x="761" y="430.0184"/><text fill="#000000" font-family="sans-serif" font-size="14" lengthAdjust="spacing" textLength="100" x="773" y="436.3651">resultId: String</text><rect fill="none" height="6" style="stroke:#C82930;stroke-width:1.0;" width="6" x="761" y="446.3153"/><text fill="#000000" font-family="sans-serif" font-size="14" lengthAdjust="spacing" textLength="103" x="773" y="452.662">imageId: String</text><rect fill="none" height="6" style="stroke:#C82930;stroke-width:1.0;" width="6" x="761" y="462.6122"/><text fill="#000000" font-family="sans-serif" font-size="14" lengthAdjust="spacing" textLength="120" x="773" y="468.9589">resultData: String</text><rect fill="none" height="6" style="stroke:#C82930;stroke-width:1.0;" width="6" x="761" y="478.9091"/><text fill="#000000" font-family="sans-serif" font-size="14" lengthAdjust="spacing" textLength="136" x="773" y="485.2557">confidence: Double</text><rect fill="none" height="6" style="stroke:#C82930;stroke-width:1.0;" width="6" x="761" y="495.2059"/><text fill="#000000" font-family="sans-serif" font-size="14" lengthAdjust="spacing" textLength="124" x="773" y="501.5526">careAdvice: String</text><line style="stroke:#181818;stroke-width:0.5;" x1="754" x2="949" y1="508.8544" y2="508.8544"/><ellipse cx="764" cy="522.5028" fill="#84BE84" rx="3" ry="3" style="stroke:#038048;stroke-width:1.0;"/><text fill="#000000" font-family="sans-serif" font-size="14" lengthAdjust="spacing" textLength="158" x="773" y="525.8495">getResultData(): String</text><ellipse cx="764" cy="538.7997" fill="#84BE84" rx="3" ry="3" style="stroke:#038048;stroke-width:1.0;"/><text fill="#000000" font-family="sans-serif" font-size="14" lengthAdjust="spacing" textLength="171" x="773" y="542.1464">getConfidence(): Double</text><ellipse cx="764" cy="555.0966" fill="#84BE84" rx="3" ry="3" style="stroke:#038048;stroke-width:1.0;"/><text fill="#000000" font-family="sans-serif" font-size="14" lengthAdjust="spacing" textLength="159" x="773" y="558.4432">getCareAdvice(): String</text></g><!--class HistoryManager--><g id="elem_HistoryManager"><rect codeLine="50" fill="#F1F1F1" height="80.5938" id="HistoryManager" rx="2.5" ry="2.5" style="stroke:#181818;stroke-width:0.5;" width="382" x="431.5" y="7"/><ellipse cx="564.75" cy="23" fill="#ADD1B2" rx="11" ry="11" style="stroke:#181818;stroke-width:1.0;"/><path d="M567.7188,28.6406 Q567.1406,28.9375 566.5,29.0781 Q565.8594,29.2344 565.1563,29.2344 Q562.6563,29.2344 561.3281,27.5938 Q560.0156,25.9375 560.0156,22.8125 Q560.0156,19.6875 561.3281,18.0313 Q562.6563,16.375 565.1563,16.375 Q565.8594,16.375 566.5,16.5313 Q567.1563,16.6875 567.7188,16.9844 L567.7188,19.7031 Q567.0938,19.125 566.5,18.8594 Q565.9063,18.5781 565.2813,18.5781 Q563.9375,18.5781 563.25,19.6563 Q562.5625,20.7188 562.5625,22.8125 Q562.5625,24.9063 563.25,25.9844 Q563.9375,27.0469 565.2813,27.0469 Q565.9063,27.0469 566.5,26.7813 Q567.0938,26.5 567.7188,25.9219 L567.7188,28.6406 Z " fill="#000000"/><text fill="#000000" font-family="sans-serif" font-size="14" lengthAdjust="spacing" textLength="107" x="585.25" y="27.8467">HistoryManager</text><line style="stroke:#181818;stroke-width:0.5;" x1="432.5" x2="812.5" y1="39" y2="39"/><line style="stroke:#181818;stroke-width:0.5;" x1="432.5" x2="812.5" y1="47" y2="47"/><ellipse cx="442.5" cy="60.6484" fill="#84BE84" rx="3" ry="3" style="stroke:#038048;stroke-width:1.0;"/><text fill="#000000" font-family="sans-serif" font-size="14" lengthAdjust="spacing" textLength="351" x="451.5" y="63.9951">fetchUserHistory(user: User): List&lt;AnalysisResult&gt;</text><ellipse cx="442.5" cy="76.9453" fill="#84BE84" rx="3" ry="3" style="stroke:#038048;stroke-width:1.0;"/><text fill="#000000" font-family="sans-serif" font-size="14" lengthAdjust="spacing" textLength="356" x="451.5" y="80.292">deleteRecord(user: User, recordId: String): Boolean</text></g><!--class ShareService--><g id="elem_ShareService"><rect codeLine="55" fill="#F1F1F1" height="64.2969" id="ShareService" rx="2.5" ry="2.5" style="stroke:#181818;stroke-width:0.5;" width="525" x="846" y="205.33"/><ellipse cx="1059.25" cy="221.33" fill="#ADD1B2" rx="11" ry="11" style="stroke:#181818;stroke-width:1.0;"/><path d="M1062.2188,226.9706 Q1061.6406,227.2675 1061,227.4081 Q1060.3594,227.5644 1059.6563,227.5644 Q1057.1563,227.5644 1055.8281,225.9238 Q1054.5156,224.2675 1054.5156,221.1425 Q1054.5156,218.0175 1055.8281,216.3613 Q1057.1563,214.705 1059.6563,214.705 Q1060.3594,214.705 1061,214.8613 Q1061.6563,215.0175 1062.2188,215.3144 L1062.2188,218.0331 Q1061.5938,217.455 1061,217.1894 Q1060.4063,216.9081 1059.7813,216.9081 Q1058.4375,216.9081 1057.75,217.9863 Q1057.0625,219.0488 1057.0625,221.1425 Q1057.0625,223.2363 1057.75,224.3144 Q1058.4375,225.3769 1059.7813,225.3769 Q1060.4063,225.3769 1061,225.1113 Q1061.5938,224.83 1062.2188,224.2519 L1062.2188,226.9706 Z " fill="#000000"/><text fill="#000000" font-family="sans-serif" font-size="14" lengthAdjust="spacing" textLength="90" x="1079.75" y="226.1767">ShareService</text><line style="stroke:#181818;stroke-width:0.5;" x1="847" x2="1370" y1="237.33" y2="237.33"/><line style="stroke:#181818;stroke-width:0.5;" x1="847" x2="1370" y1="245.33" y2="245.33"/><ellipse cx="857" cy="258.9784" fill="#84BE84" rx="3" ry="3" style="stroke:#038048;stroke-width:1.0;"/><text fill="#000000" font-family="sans-serif" font-size="14" lengthAdjust="spacing" textLength="499" x="866" y="262.3251">shareResult(user: User, result: AnalysisResult, platform: String): Boolean</text></g><!--class AuthenticationManager--><g id="elem_AuthenticationManager"><rect codeLine="59" fill="#F1F1F1" height="80.5938" id="AuthenticationManager" rx="2.5" ry="2.5" style="stroke:#181818;stroke-width:0.5;" width="434" x="35.5" y="642.75"/><ellipse cx="168.25" cy="658.75" fill="#ADD1B2" rx="11" ry="11" style="stroke:#181818;stroke-width:1.0;"/><path d="M171.2188,664.3906 Q170.6406,664.6875 170,664.8281 Q169.3594,664.9844 168.6563,664.9844 Q166.1563,664.9844 164.8281,663.3438 Q163.5156,661.6875 163.5156,658.5625 Q163.5156,655.4375 164.8281,653.7813 Q166.1563,652.125 168.6563,652.125 Q169.3594,652.125 170,652.2813 Q170.6563,652.4375 171.2188,652.7344 L171.2188,655.4531 Q170.5938,654.875 170,654.6094 Q169.4063,654.3281 168.7813,654.3281 Q167.4375,654.3281 166.75,655.4063 Q166.0625,656.4688 166.0625,658.5625 Q166.0625,660.6563 166.75,661.7344 Q167.4375,662.7969 168.7813,662.7969 Q169.4063,662.7969 170,662.5313 Q170.5938,662.25 171.2188,661.6719 L171.2188,664.3906 Z " fill="#000000"/><text fill="#000000" font-family="sans-serif" font-size="14" lengthAdjust="spacing" textLength="160" x="188.75" y="663.5967">AuthenticationManager</text><line style="stroke:#181818;stroke-width:0.5;" x1="36.5" x2="468.5" y1="674.75" y2="674.75"/><line style="stroke:#181818;stroke-width:0.5;" x1="36.5" x2="468.5" y1="682.75" y2="682.75"/><ellipse cx="46.5" cy="696.3984" fill="#84BE84" rx="3" ry="3" style="stroke:#038048;stroke-width:1.0;"/><text fill="#000000" font-family="sans-serif" font-size="14" lengthAdjust="spacing" textLength="283" x="55.5" y="699.7451">validateRegistration(user: User): Boolean</text><ellipse cx="46.5" cy="712.6953" fill="#84BE84" rx="3" ry="3" style="stroke:#038048;stroke-width:1.0;"/><text fill="#000000" font-family="sans-serif" font-size="14" lengthAdjust="spacing" textLength="408" x="55.5" y="716.042">validateLogin(username: String, password: String): Boolean</text></g><!--class KaggleModelInterface--><g id="elem_KaggleModelInterface"><rect codeLine="64" fill="#F1F1F1" height="64.2969" id="KaggleModelInterface" rx="2.5" ry="2.5" style="stroke:#181818;stroke-width:0.5;" width="285" x="1406" y="205.33"/><ellipse cx="1469.75" cy="221.33" fill="#ADD1B2" rx="11" ry="11" style="stroke:#181818;stroke-width:1.0;"/><path d="M1472.7188,226.9706 Q1472.1406,227.2675 1471.5,227.4081 Q1470.8594,227.5644 1470.1563,227.5644 Q1467.6563,227.5644 1466.3281,225.9238 Q1465.0156,224.2675 1465.0156,221.1425 Q1465.0156,218.0175 1466.3281,216.3613 Q1467.6563,214.705 1470.1563,214.705 Q1470.8594,214.705 1471.5,214.8613 Q1472.1563,215.0175 1472.7188,215.3144 L1472.7188,218.0331 Q1472.0938,217.455 1471.5,217.1894 Q1470.9063,216.9081 1470.2813,216.9081 Q1468.9375,216.9081 1468.25,217.9863 Q1467.5625,219.0488 1467.5625,221.1425 Q1467.5625,223.2363 1468.25,224.3144 Q1468.9375,225.3769 1470.2813,225.3769 Q1470.9063,225.3769 1471.5,225.1113 Q1472.0938,224.83 1472.7188,224.2519 L1472.7188,226.9706 Z " fill="#000000"/><text fill="#000000" font-family="sans-serif" font-size="14" lengthAdjust="spacing" textLength="149" x="1490.25" y="226.1767">KaggleModelInterface</text><line style="stroke:#181818;stroke-width:0.5;" x1="1407" x2="1690" y1="237.33" y2="237.33"/><line style="stroke:#181818;stroke-width:0.5;" x1="1407" x2="1690" y1="245.33" y2="245.33"/><ellipse cx="1417" cy="258.9784" fill="#84BE84" rx="3" ry="3" style="stroke:#038048;stroke-width:1.0;"/><text fill="#000000" font-family="sans-serif" font-size="14" lengthAdjust="spacing" textLength="259" x="1426" y="262.3251">predict(image: Image): AnalysisResult</text></g><!--class GPT4VisionService--><g id="elem_GPT4VisionService"><rect codeLine="68" fill="#F1F1F1" height="64.2969" id="GPT4VisionService" rx="2.5" ry="2.5" style="stroke:#181818;stroke-width:0.5;" width="318" x="1726.5" y="205.33"/><ellipse cx="1816.75" cy="221.33" fill="#ADD1B2" rx="11" ry="11" style="stroke:#181818;stroke-width:1.0;"/><path d="M1819.7188,226.9706 Q1819.1406,227.2675 1818.5,227.4081 Q1817.8594,227.5644 1817.1563,227.5644 Q1814.6563,227.5644 1813.3281,225.9238 Q1812.0156,224.2675 1812.0156,221.1425 Q1812.0156,218.0175 1813.3281,216.3613 Q1814.6563,214.705 1817.1563,214.705 Q1817.8594,214.705 1818.5,214.8613 Q1819.1563,215.0175 1819.7188,215.3144 L1819.7188,218.0331 Q1819.0938,217.455 1818.5,217.1894 Q1817.9063,216.9081 1817.2813,216.9081 Q1815.9375,216.9081 1815.25,217.9863 Q1814.5625,219.0488 1814.5625,221.1425 Q1814.5625,223.2363 1815.25,224.3144 Q1815.9375,225.3769 1817.2813,225.3769 Q1817.9063,225.3769 1818.5,225.1113 Q1819.0938,224.83 1819.7188,224.2519 L1819.7188,226.9706 Z " fill="#000000"/><text fill="#000000" font-family="sans-serif" font-size="14" lengthAdjust="spacing" textLength="129" x="1837.25" y="226.1767">GPT4VisionService</text><line style="stroke:#181818;stroke-width:0.5;" x1="1727.5" x2="2043.5" y1="237.33" y2="237.33"/><line style="stroke:#181818;stroke-width:0.5;" x1="1727.5" x2="2043.5" y1="245.33" y2="245.33"/><ellipse cx="1737.5" cy="258.9784" fill="#84BE84" rx="3" ry="3" style="stroke:#038048;stroke-width:1.0;"/><text fill="#000000" font-family="sans-serif" font-size="14" lengthAdjust="spacing" textLength="292" x="1746.5" y="262.3251">generateCareAdvice(image: Image): String</text></g><!--class SocialMediaPlatform--><g id="elem_SocialMediaPlatform"><rect codeLine="72" fill="#F1F1F1" height="80.5938" id="SocialMediaPlatform" rx="2.5" ry="2.5" style="stroke:#181818;stroke-width:0.5;" width="244" x="986.5" y="436.26"/><ellipse cx="1035.75" cy="452.26" fill="#ADD1B2" rx="11" ry="11" style="stroke:#181818;stroke-width:1.0;"/><path d="M1038.7188,457.9006 Q1038.1406,458.1975 1037.5,458.3381 Q1036.8594,458.4944 1036.1563,458.4944 Q1033.6563,458.4944 1032.3281,456.8538 Q1031.0156,455.1975 1031.0156,452.0725 Q1031.0156,448.9475 1032.3281,447.2913 Q1033.6563,445.635 1036.1563,445.635 Q1036.8594,445.635 1037.5,445.7913 Q1038.1563,445.9475 1038.7188,446.2444 L1038.7188,448.9631 Q1038.0938,448.385 1037.5,448.1194 Q1036.9063,447.8381 1036.2813,447.8381 Q1034.9375,447.8381 1034.25,448.9163 Q1033.5625,449.9788 1033.5625,452.0725 Q1033.5625,454.1663 1034.25,455.2444 Q1034.9375,456.3069 1036.2813,456.3069 Q1036.9063,456.3069 1037.5,456.0413 Q1038.0938,455.76 1038.7188,455.1819 L1038.7188,457.9006 Z " fill="#000000"/><text fill="#000000" font-family="sans-serif" font-size="14" lengthAdjust="spacing" textLength="137" x="1056.25" y="457.1067">SocialMediaPlatform</text><line style="stroke:#181818;stroke-width:0.5;" x1="987.5" x2="1229.5" y1="468.26" y2="468.26"/><rect fill="none" height="6" style="stroke:#C82930;stroke-width:1.0;" width="6" x="994.5" y="478.9084"/><text fill="#000000" font-family="sans-serif" font-size="14" lengthAdjust="spacing" textLength="145" x="1006.5" y="485.2551">platformName: String</text><line style="stroke:#181818;stroke-width:0.5;" x1="987.5" x2="1229.5" y1="492.5569" y2="492.5569"/><ellipse cx="997.5" cy="506.2053" fill="#84BE84" rx="3" ry="3" style="stroke:#038048;stroke-width:1.0;"/><text fill="#000000" font-family="sans-serif" font-size="14" lengthAdjust="spacing" textLength="218" x="1006.5" y="509.552">share(content: String): Boolean</text></g><!--link User to AuthenticationManager--><g id="link_User_AuthenticationManager"><path codeLine="77" d="M252.5,558.08 C252.5,587.03 252.5,618.41 252.5,642.36 " fill="none" id="User-AuthenticationManager" style="stroke:#181818;stroke-width:1.0;"/><polygon fill="#000000" points="257.5,609.3164,260.4389,600.2713,254.5611,600.2713,257.5,609.3164" style="stroke:#000000;stroke-width:1.0;"/><text fill="#000000" font-family="sans-serif" font-size="13" lengthAdjust="spacing" textLength="30" x="266.5" y="608.8169">uses</text><text fill="#000000" font-family="sans-serif" font-size="13" lengthAdjust="spacing" textLength="8" x="244.1563" y="577.8028">1</text><text fill="#000000" font-family="sans-serif" font-size="13" lengthAdjust="spacing" textLength="8" x="243.8625" y="631.7577">1</text></g><!--link ImageProcessingService to KaggleModelInterface--><g id="link_ImageProcessingService_KaggleModelInterface"><path codeLine="78" d="M1706.57,87.74 C1669.58,122.56 1616.35,172.64 1582.09,204.87 " fill="none" id="ImageProcessingService-KaggleModelInterface" style="stroke:#181818;stroke-width:1.0;"/><polygon fill="#000000" points="1673.8586,129.5828,1682.4599,125.5248,1678.432,121.244,1673.8586,129.5828" style="stroke:#000000;stroke-width:1.0;"/><text fill="#000000" font-family="sans-serif" font-size="13" lengthAdjust="spacing" textLength="30" x="1686.5" y="130.6569">uses</text><text fill="#000000" font-family="sans-serif" font-size="13" lengthAdjust="spacing" textLength="8" x="1690.9628" y="107.7585">1</text><text fill="#000000" font-family="sans-serif" font-size="13" lengthAdjust="spacing" textLength="8" x="1579.7306" y="194.3039">1</text></g><!--link ImageProcessingService to GPT4VisionService--><g id="link_ImageProcessingService_GPT4VisionService"><path codeLine="79" d="M1777.22,87.74 C1802.56,122.56 1839.02,172.64 1862.49,204.87 " fill="none" id="ImageProcessingService-GPT4VisionService" style="stroke:#181818;stroke-width:1.0;"/><polygon fill="#000000" points="1816.4428,130.1987,1813.4953,121.1564,1808.7433,124.6158,1816.4428,130.1987" style="stroke:#000000;stroke-width:1.0;"/><text fill="#000000" font-family="sans-serif" font-size="13" lengthAdjust="spacing" textLength="30" x="1822.5" y="130.6569">uses</text><text fill="#000000" font-family="sans-serif" font-size="13" lengthAdjust="spacing" textLength="8" x="1773.3143" y="107.7585">1</text><text fill="#000000" font-family="sans-serif" font-size="13" lengthAdjust="spacing" textLength="8" x="1849.3412" y="194.3039">1</text></g><!--link DatabaseManager to AnalysisResult--><g id="link_DatabaseManager_AnalysisResult"><path codeLine="80" d="M692.14,310.58 C715.43,334.69 741.66,361.85 766.02,387.06 " fill="none" id="DatabaseManager-AnalysisResult" style="stroke:#181818;stroke-width:1.0;"/><polygon fill="#000000" points="745.9739,352.5325,741.8033,343.9852,737.5758,348.069,745.9739,352.5325" style="stroke:#000000;stroke-width:1.0;"/><text fill="#000000" font-family="sans-serif" font-size="13" lengthAdjust="spacing" textLength="40" x="751.5" y="353.4369">stores</text><text fill="#000000" font-family="sans-serif" font-size="13" lengthAdjust="spacing" textLength="8" x="690.3963" y="330.3354">1</text><text fill="#000000" font-family="sans-serif" font-size="13" lengthAdjust="spacing" textLength="7" x="751.9294" y="376.4027">*</text></g><!--link DatabaseManager to User--><g id="link_DatabaseManager_User"><path codeLine="81" d="M509.73,310.74 C468.07,337.43 420.61,367.84 377.89,395.21 " fill="none" id="DatabaseManager-User" style="stroke:#181818;stroke-width:1.0;"/><polygon fill="#000000" points="461.29,351.6338,470.4914,349.2288,467.3205,344.2796,461.29,351.6338" style="stroke:#000000;stroke-width:1.0;"/><text fill="#000000" font-family="sans-serif" font-size="13" lengthAdjust="spacing" textLength="40" x="474.5" y="353.4369">stores</text><text fill="#000000" font-family="sans-serif" font-size="13" lengthAdjust="spacing" textLength="8" x="490.6004" y="330.5106">1</text><text fill="#000000" font-family="sans-serif" font-size="13" lengthAdjust="spacing" textLength="8" x="380.7013" y="384.3697">1</text></g><!--link DatabaseManager to Image--><g id="link_DatabaseManager_Image"><path codeLine="82" d="M623.11,310.58 C623.36,340 623.64,373.96 623.89,403.4 " fill="none" id="DatabaseManager-Image" style="stroke:#181818;stroke-width:1.0;"/><polygon fill="#000000" points="628.542,353.9362,631.4048,344.8668,625.5272,344.9162,628.542,353.9362" style="stroke:#000000;stroke-width:1.0;"/><text fill="#000000" font-family="sans-serif" font-size="13" lengthAdjust="spacing" textLength="40" x="637.5" y="353.4369">stores</text><text fill="#000000" font-family="sans-serif" font-size="13" lengthAdjust="spacing" textLength="8" x="614.7869" y="330.3354">1</text><text fill="#000000" font-family="sans-serif" font-size="13" lengthAdjust="spacing" textLength="7" x="616.4854" y="392.5334">*</text></g><!--link HistoryManager to DatabaseManager--><g id="link_HistoryManager_DatabaseManager"><path codeLine="83" d="M622.5,87.74 C622.5,109.95 622.5,138.36 622.5,164.39 " fill="none" id="HistoryManager-DatabaseManager" style="stroke:#181818;stroke-width:1.0;"/><polygon fill="#000000" points="627.5,131.1564,630.4389,122.1113,624.5611,122.1113,627.5,131.1564" style="stroke:#000000;stroke-width:1.0;"/><text fill="#000000" font-family="sans-serif" font-size="13" lengthAdjust="spacing" textLength="30" x="636.5" y="130.6569">uses</text><text fill="#000000" font-family="sans-serif" font-size="13" lengthAdjust="spacing" textLength="8" x="613.8375" y="107.7585">1</text><text fill="#000000" font-family="sans-serif" font-size="13" lengthAdjust="spacing" textLength="8" x="614.1063" y="153.5303">1</text></g><!--link ShareService to SocialMediaPlatform--><g id="link_ShareService_SocialMediaPlatform"><path codeLine="84" d="M1108.5,269.96 C1108.5,312.79 1108.5,389.4 1108.5,436.04 " fill="none" id="ShareService-SocialMediaPlatform" style="stroke:#181818;stroke-width:1.0;"/><polygon fill="#000000" points="1113.5,353.9364,1116.4389,344.8913,1110.5611,344.8913,1113.5,353.9364" style="stroke:#000000;stroke-width:1.0;"/><text fill="#000000" font-family="sans-serif" font-size="13" lengthAdjust="spacing" textLength="60" x="1122.5" y="353.4369">shares to</text><text fill="#000000" font-family="sans-serif" font-size="13" lengthAdjust="spacing" textLength="8" x="1099.7375" y="289.661">1</text><text fill="#000000" font-family="sans-serif" font-size="13" lengthAdjust="spacing" textLength="8" x="1099.8375" y="425.1651">1</text></g><!--link ShareService to AnalysisResult--><g id="link_ShareService_AnalysisResult"><path codeLine="85" d="M1074.37,269.96 C1042.08,299.75 992.07,345.89 947.59,386.91 " fill="none" id="ShareService-AnalysisResult" style="stroke:#181818;stroke-width:1.0;"/><polygon fill="#000000" points="996.8249,352.3266,1005.466,348.3539,1001.4805,344.0335,996.8249,352.3266" style="stroke:#000000;stroke-width:1.0;"/><text fill="#000000" font-family="sans-serif" font-size="13" lengthAdjust="spacing" textLength="43" x="1009.5" y="353.4369">shares</text><text fill="#000000" font-family="sans-serif" font-size="13" lengthAdjust="spacing" textLength="8" x="1059.1015" y="289.661">1</text><text fill="#000000" font-family="sans-serif" font-size="13" lengthAdjust="spacing" textLength="8" x="946.9284" y="376.2407">1</text></g><!--SRC=[hLN1Zjem4Btp5HOdMk1GgQUeGcgxsXPrgH3GtcUJ8LWoDh8D5QtwxntRIOYDYrXfEH0OptkUUNwUb0ACOJyCQlPdmEWpFTBlULMmjTLSrfUOX3t6qGD1VocTvE8Uk8X2OuqrDnRrAEMPi9HZmYBycu9zKaeWoC0aLCtb7JGPd3hQ4OLFYbU3luD1wHkVIofh2oKstOyhRWu2pbsc3qeuyHeiRjI8ju3YWhrctKFTCawv-vCJD8qTmEwIh8DGK6suw_J1xK-_GaKrsddWTPNsjQQL9H7rmd5PIwrAD8OMrgXF_D9vsCpdU84Bxue9y_K_Sa4rk6_YzJa111B4-JS6bCzibYdjeriptApG78Mzb46Tm3CON12uxdmtDbPfT5lEvLRrAeXEmYTbTqjouir7sZ_IcYBO5csvIs2tExh0N9rVkTlu75V-HC4FCMpM60q5MbnXIQwbyjnZdhDl9rlCqhehD9PQAUkvaEhKZ-EbabjUeNIUVb37Pu5D74Z6obdaoc6hZYfZlyyTdrliCVh5ZZJdq4R3n1cl8d7VqlV8lTvHfSaLCIxMM2FcoxcBff80krLwV_DOZtQ7ql8IB5SowVm4WbVWUd03LFkKkFjeohNfJo-Vabqztw2k1IuKYNSr70yQArxQUo_wb-Nc_KzkgEP4nnebKZFOCqD2cHfZhKeEOa7Rmx8HjRq1hSZVq_TJEAuHsTkImFcU_Ojl-6x8fbF_o9z6mKXBmsQ3_qpG7a5MlXVWhpNhmEdSR55lX-biA9YVWRT0zF2ztv5A_E65rijDBcgFDMNfoeykL0-GErhQoMKRPjKDv7NN0JJx1m00]--></g></svg>