<?xml version="1.0" encoding="us-ascii" standalone="no"?><svg xmlns="http://www.w3.org/2000/svg" xmlns:xlink="http://www.w3.org/1999/xlink" contentStyleType="text/css" height="808px" preserveAspectRatio="none" style="width:1051px;height:808px;background:#F9F9F9;" version="1.1" viewBox="0 0 1051 808" width="1051px" zoomAndPan="magnify"><defs/><g><rect fill="#F9F9F9" height="808" style="stroke:none;stroke-width:1.0;" width="1051" x="0" y="0"/><ellipse cx="525.64" cy="16" fill="#222222" rx="10" ry="10" style="stroke:#222222;stroke-width:1.0;"/><path d="M10.5,87 L1040.78,87 A3.5,3.5 0 0 1 1044.28,90.5 L1044.28,113.2969 L7,113.2969 L7,90.5 A3.5,3.5 0 0 1 10.5,87 " fill="#F1F1F1" style="stroke:#F1F1F1;stroke-width:1.0;"/><rect fill="none" height="616.5938" rx="3.5" ry="3.5" style="stroke:#181818;stroke-width:0.5;" width="1037.28" x="7" y="87"/><line style="stroke:#181818;stroke-width:0.5;" x1="7" x2="1044.28" y1="113.2969" y2="113.2969"/><text fill="#000000" font-family="sans-serif" font-size="14" lengthAdjust="spacing" textLength="42" x="504.64" y="104.9951">&#20027;&#30028;&#38754;</text><path d="M22.5,280.7969 L256.0552,280.7969 A3.5,3.5 0 0 1 259.5552,284.2969 L259.5552,307.0937 L19,307.0937 L19,284.2969 A3.5,3.5 0 0 1 22.5,280.7969 " fill="#F1F1F1" style="stroke:#F1F1F1;stroke-width:1.0;"/><rect fill="none" height="257.2969" rx="3.5" ry="3.5" style="stroke:#181818;stroke-width:0.5;" width="240.5552" x="19" y="280.7969"/><line style="stroke:#181818;stroke-width:0.5;" x1="19" x2="259.5552" y1="307.0937" y2="307.0937"/><text fill="#000000" font-family="sans-serif" font-size="14" lengthAdjust="spacing" textLength="70" x="104.2776" y="298.792">&#29992;&#25143;&#26410;&#30331;&#24405;</text><ellipse cx="128.5552" cy="328.0937" fill="#222222" rx="10" ry="10" style="stroke:#222222;stroke-width:1.0;"/><g id="&#20027;&#30028;&#38754;.Unlogged.&#30331;&#24405;&#30028;&#38754;"><rect fill="#F1F1F1" height="50" rx="3.5" ry="3.5" style="stroke:#181818;stroke-width:0.5;" width="76" x="90.5552" y="375.0937"/><line style="stroke:#181818;stroke-width:0.5;" x1="90.5552" x2="166.5552" y1="401.3906" y2="401.3906"/><text fill="#000000" font-family="sans-serif" font-size="14" lengthAdjust="spacing" textLength="56" x="100.5552" y="393.0889">&#30331;&#24405;&#30028;&#38754;</text></g><g id="&#20027;&#30028;&#38754;.Unlogged.&#27880;&#20876;&#30028;&#38754;"><rect fill="#F1F1F1" height="50" rx="3.5" ry="3.5" style="stroke:#181818;stroke-width:0.5;" width="76" x="34.5552" y="478.0937"/><line style="stroke:#181818;stroke-width:0.5;" x1="34.5552" x2="110.5552" y1="504.3906" y2="504.3906"/><text fill="#000000" font-family="sans-serif" font-size="14" lengthAdjust="spacing" textLength="56" x="44.5552" y="496.0889">&#27880;&#20876;&#30028;&#38754;</text></g><g id="&#20027;&#30028;&#38754;.Unlogged.&#29992;&#25143;&#24050;&#30331;&#24405;"><rect fill="#F1F1F1" height="50" rx="3.5" ry="3.5" style="stroke:#181818;stroke-width:0.5;" width="90" x="160.5552" y="478.0937"/><line style="stroke:#181818;stroke-width:0.5;" x1="160.5552" x2="250.5552" y1="504.3906" y2="504.3906"/><text fill="#000000" font-family="sans-serif" font-size="14" lengthAdjust="spacing" textLength="70" x="170.5552" y="496.0889">&#29992;&#25143;&#24050;&#30331;&#24405;</text></g><!--link *start*Unlogged to ????--><g id="link_*start*Unlogged_&#30331;&#24405;&#30028;&#38754;"><path d="M128.5552,338.5337 C128.5552,347.7937 128.5552,356.2837 128.5552,368.7737 " fill="none" id="*start*Unlogged-to-&#30331;&#24405;&#30028;&#38754;" style="stroke:#191919;stroke-width:1.0;"/><polygon fill="#191919" points="128.5552,374.7737,132.5552,365.7737,128.5552,369.7737,124.5552,365.7737,128.5552,374.7737" style="stroke:#191919;stroke-width:1.0;"/></g><!--link ???? to ????--><g id="link_&#30331;&#24405;&#30028;&#38754;_&#27880;&#20876;&#30028;&#38754;"><path d="M90.4752,409.7438 C72.6752,415.8937 53.1152,426.1837 42.5552,443.0937 C35.6752,454.1037 37.2189,462.0177 44.9989,472.8677 " fill="none" id="&#30331;&#24405;&#30028;&#38754;-to-&#27880;&#20876;&#30028;&#38754;" style="stroke:#191919;stroke-width:1.0;"/><polygon fill="#191919" points="48.4952,477.7438,46.5014,468.0988,45.5816,473.6804,40,472.7606,48.4952,477.7438" style="stroke:#191919;stroke-width:1.0;"/><text fill="#000000" font-family="sans-serif" font-size="13" lengthAdjust="spacing" textLength="62" x="43.5552" y="456.1606">&#36873;&#25321;"&#27880;&#20876;"</text></g><!--link ???? to ????--><g id="link_&#27880;&#20876;&#30028;&#38754;_&#30331;&#24405;&#30028;&#38754;"><path d="M94.4552,477.7337 C98.8252,472.1737 103.1152,466.1238 106.5552,460.0937 C112.7352,449.2737 115.8607,442.0701 119.5507,431.1101 " fill="none" id="&#27880;&#20876;&#30028;&#38754;-to-&#30331;&#24405;&#30028;&#38754;" style="stroke:#191919;stroke-width:1.0;"/><polygon fill="#191919" points="121.4652,425.4237,114.8026,432.677,119.8698,430.1624,122.3844,435.2296,121.4652,425.4237" style="stroke:#191919;stroke-width:1.0;"/><text fill="#000000" font-family="sans-serif" font-size="13" lengthAdjust="spacing" textLength="52" x="114.5552" y="456.1606">&#27880;&#20876;&#25104;&#21151;</text></g><!--link ???? to ?????--><g id="link_&#30331;&#24405;&#30028;&#38754;_&#29992;&#25143;&#24050;&#30331;&#24405;"><path d="M155.6752,425.3437 C161.2352,430.9137 166.8252,436.9938 171.5552,443.0937 C179.8152,453.7438 184.6143,461.3243 190.5543,472.3243 " fill="none" id="&#30331;&#24405;&#30028;&#38754;-to-&#29992;&#25143;&#24050;&#30331;&#24405;" style="stroke:#191919;stroke-width:1.0;"/><polygon fill="#191919" points="193.4052,477.6037,192.6485,467.784,191.0295,473.2042,185.6092,471.5852,193.4052,477.6037" style="stroke:#191919;stroke-width:1.0;"/><text fill="#000000" font-family="sans-serif" font-size="13" lengthAdjust="spacing" textLength="52" x="183.5552" y="456.1606">&#30331;&#24405;&#25104;&#21151;</text></g><path d="M280.78,125.2969 L1031.78,125.2969 A3.5,3.5 0 0 1 1035.28,128.7969 L1035.28,151.5938 L277.28,151.5938 L277.28,128.7969 A3.5,3.5 0 0 1 280.78,125.2969 " fill="#F1F1F1" style="stroke:#F1F1F1;stroke-width:1.0;"/><rect fill="none" height="568.2969" rx="3.5" ry="3.5" style="stroke:#181818;stroke-width:0.5;" width="758" x="277.28" y="125.2969"/><line style="stroke:#181818;stroke-width:0.5;" x1="277.28" x2="1035.28" y1="151.5938" y2="151.5938"/><text fill="#000000" font-family="sans-serif" font-size="14" lengthAdjust="spacing" textLength="70" x="621.28" y="143.292">&#29992;&#25143;&#24050;&#30331;&#24405;</text><!--cluster ????--><g id="cluster_&#21382;&#21490;&#35760;&#24405;"><path d="M292.78,272.5938 L719.78,272.5938 A3.5,3.5 0 0 1 723.28,276.0938 L723.28,293.8906 L289.28,293.8906 L289.28,276.0938 A3.5,3.5 0 0 1 292.78,272.5938 " fill="#F1F1F1" style="stroke:#F1F1F1;stroke-width:1.0;"/><rect fill="none" height="411" rx="3.5" ry="3.5" style="stroke:#181818;stroke-width:0.5;" width="434" x="289.28" y="272.5938"/><line style="stroke:#181818;stroke-width:0.5;" x1="289.28" x2="723.28" y1="293.8906" y2="293.8906"/><text fill="#000000" font-family="sans-serif" font-size="14" lengthAdjust="spacing" textLength="56" x="478.28" y="289.5889">&#21382;&#21490;&#35760;&#24405;</text></g><ellipse cx="563.28" cy="325.5938" fill="#222222" rx="10" ry="10" style="stroke:#222222;stroke-width:1.0;"/><g id="&#20027;&#30028;&#38754;.Logged.&#21382;&#21490;&#35760;&#24405;.&#21382;&#21490;&#21015;&#34920;"><rect fill="#F1F1F1" height="50" rx="3.5" ry="3.5" style="stroke:#181818;stroke-width:0.5;" width="76" x="525.28" y="403.5938"/><line style="stroke:#181818;stroke-width:0.5;" x1="525.28" x2="601.28" y1="429.8906" y2="429.8906"/><text fill="#000000" font-family="sans-serif" font-size="14" lengthAdjust="spacing" textLength="56" x="535.28" y="421.5889">&#21382;&#21490;&#21015;&#34920;</text></g><g id="&#20027;&#30028;&#38754;.Logged.&#21382;&#21490;&#35760;&#24405;.&#35814;&#32454;&#20998;&#26512;&#32467;&#26524;"><rect fill="#F1F1F1" height="50" rx="3.5" ry="3.5" style="stroke:#181818;stroke-width:0.5;" width="104" x="313.28" y="506.5938"/><line style="stroke:#181818;stroke-width:0.5;" x1="313.28" x2="417.28" y1="532.8906" y2="532.8906"/><text fill="#000000" font-family="sans-serif" font-size="14" lengthAdjust="spacing" textLength="84" x="323.28" y="524.5889">&#35814;&#32454;&#20998;&#26512;&#32467;&#26524;</text></g><g id="&#20027;&#30028;&#38754;.Logged.&#21382;&#21490;&#35760;&#24405;.&#20877;&#27425;&#20998;&#26512;"><rect fill="#F1F1F1" height="50" rx="3.5" ry="3.5" style="stroke:#181818;stroke-width:0.5;" width="76" x="531.28" y="609.5938"/><line style="stroke:#181818;stroke-width:0.5;" x1="531.28" x2="607.28" y1="635.8906" y2="635.8906"/><text fill="#000000" font-family="sans-serif" font-size="14" lengthAdjust="spacing" textLength="56" x="541.28" y="627.5889">&#20877;&#27425;&#20998;&#26512;</text></g><g id="&#20027;&#30028;&#38754;.Logged.&#21382;&#21490;&#35760;&#24405;.&#21024;&#38500;&#35760;&#24405;"><rect fill="#F1F1F1" height="50" rx="3.5" ry="3.5" style="stroke:#181818;stroke-width:0.5;" width="76" x="525.28" y="506.5938"/><line style="stroke:#181818;stroke-width:0.5;" x1="525.28" x2="601.28" y1="532.8906" y2="532.8906"/><text fill="#000000" font-family="sans-serif" font-size="14" lengthAdjust="spacing" textLength="56" x="535.28" y="524.5889">&#21024;&#38500;&#35760;&#24405;</text></g><ellipse cx="1017.28" cy="188.5938" fill="#222222" rx="10" ry="10" style="stroke:#222222;stroke-width:1.0;"/><g id="&#20027;&#30028;&#38754;.Logged.&#40664;&#35748;&#35270;&#22270;"><rect fill="#F1F1F1" height="50" rx="3.5" ry="3.5" style="stroke:#181818;stroke-width:0.5;" width="76" x="823.28" y="300.5938"/><line style="stroke:#181818;stroke-width:0.5;" x1="823.28" x2="899.28" y1="326.8906" y2="326.8906"/><text fill="#000000" font-family="sans-serif" font-size="14" lengthAdjust="spacing" textLength="56" x="833.28" y="318.5889">&#40664;&#35748;&#35270;&#22270;</text></g><g id="&#20027;&#30028;&#38754;.Logged.&#26893;&#29289;&#22270;&#29255;&#19978;&#20256;"><rect fill="#F1F1F1" height="50" rx="3.5" ry="3.5" style="stroke:#181818;stroke-width:0.5;" width="104" x="783.28" y="403.5938"/><line style="stroke:#181818;stroke-width:0.5;" x1="783.28" x2="887.28" y1="429.8906" y2="429.8906"/><text fill="#000000" font-family="sans-serif" font-size="14" lengthAdjust="spacing" textLength="84" x="793.28" y="421.5889">&#26893;&#29289;&#22270;&#29255;&#19978;&#20256;</text></g><g id="&#20027;&#30028;&#38754;.Logged.&#20998;&#20139;"><rect fill="#F1F1F1" height="50" rx="3.5" ry="3.5" style="stroke:#181818;stroke-width:0.5;" width="50" x="876.28" y="163.5938"/><line style="stroke:#181818;stroke-width:0.5;" x1="876.28" x2="926.28" y1="189.8906" y2="189.8906"/><text fill="#000000" font-family="sans-serif" font-size="14" lengthAdjust="spacing" textLength="28" x="887.28" y="181.5889">&#20998;&#20139;</text></g><g id="&#20027;&#30028;&#38754;.Logged.&#27604;&#36187;&#25110;&#25361;&#25112;"><rect fill="#F1F1F1" height="50" rx="3.5" ry="3.5" style="stroke:#181818;stroke-width:0.5;" width="90" x="698.28" y="163.5938"/><line style="stroke:#181818;stroke-width:0.5;" x1="698.28" x2="788.28" y1="189.8906" y2="189.8906"/><text fill="#000000" font-family="sans-serif" font-size="14" lengthAdjust="spacing" textLength="70" x="708.28" y="181.5889">&#27604;&#36187;&#25110;&#25361;&#25112;</text></g><g id="&#20027;&#30028;&#38754;.Logged.&#22270;&#29255;&#20998;&#26512;&#32467;&#26524;"><rect fill="#F1F1F1" height="50" rx="3.5" ry="3.5" style="stroke:#181818;stroke-width:0.5;" width="104" x="832.28" y="506.5938"/><line style="stroke:#181818;stroke-width:0.5;" x1="832.28" x2="936.28" y1="532.8906" y2="532.8906"/><text fill="#000000" font-family="sans-serif" font-size="14" lengthAdjust="spacing" textLength="84" x="842.28" y="524.5889">&#22270;&#29255;&#20998;&#26512;&#32467;&#26524;</text></g><!--link *start*Logged to ????--><g id="link_*start*Logged_&#40664;&#35748;&#35270;&#22270;"><path d="M1014.33,198.5038 C1009.86,210.9237 1000.38,233.5838 986.28,248.5938 C961.85,274.6038 931.9748,292.3277 905.1248,305.3977 " fill="none" id="*start*Logged-to-&#40664;&#35748;&#35270;&#22270;" style="stroke:#191919;stroke-width:1.0;"/><polygon fill="#191919" points="899.73,308.0238,909.5729,307.6812,904.2257,305.8354,906.0715,300.4881,899.73,308.0238" style="stroke:#191919;stroke-width:1.0;"/></g><!--link ???? to ??????--><g id="link_&#40664;&#35748;&#35270;&#22270;_&#26893;&#29289;&#22270;&#29255;&#19978;&#20256;"><path d="M841.8,350.6838 C838.29,356.2638 835.16,362.3838 833.28,368.5938 C829.92,379.6738 829.3465,386.5012 830.3865,397.3312 " fill="none" id="&#40664;&#35748;&#35270;&#22270;-to-&#26893;&#29289;&#22270;&#29255;&#19978;&#20256;" style="stroke:#191919;stroke-width:1.0;"/><polygon fill="#191919" points="830.96,403.3038,834.0814,393.9626,830.4821,398.3266,826.118,394.7273,830.96,403.3038" style="stroke:#191919;stroke-width:1.0;"/><text fill="#000000" font-family="sans-serif" font-size="13" lengthAdjust="spacing" textLength="88" x="834.28" y="381.6606">&#36873;&#25321;"&#19978;&#20256;&#22270;&#29255;"</text></g><!--link ???? to ????--><g id="link_&#40664;&#35748;&#35270;&#22270;_&#21382;&#21490;&#35760;&#24405;"><path d="M822.92,325.5938 C802.56,325.5938 777.525,325.5938 756.7238,325.5938 C746.3231,325.5938 736.9809,325.5938 729.8108,325.5938 C728.0182,325.5938 726.3615,325.5938 724.8578,325.5938 C724.4819,325.5938 724.1156,325.5938 723.7591,325.5938 C723.67,325.5938 729.5814,325.5938 729.4936,325.5938 " fill="none" id="&#40664;&#35748;&#35270;&#22270;-to-&#21382;&#21490;&#35760;&#24405;" style="stroke:#191919;stroke-width:1.0;"/><polygon fill="#191919" points="723.4936,325.5938,732.4936,329.5938,728.4936,325.5938,732.4936,321.5938,723.4936,325.5938" style="stroke:#191919;stroke-width:1.0;"/><text fill="#000000" font-family="sans-serif" font-size="13" lengthAdjust="spacing" textLength="88" x="725.46" y="318.6606">&#36873;&#25321;"&#21382;&#21490;&#35760;&#24405;"</text></g><!--reverse link ?? to ????--><g id="link_&#20998;&#20139;_&#40664;&#35748;&#35270;&#22270;"><path d="M871.8696,215.3594 C866.3496,221.4194 865.3,224.0138 862.28,231.5938 C853.49,253.6438 854.46,281.0338 856.89,300.3638 " fill="none" id="&#20998;&#20139;-backto-&#40664;&#35748;&#35270;&#22270;" style="stroke:#191919;stroke-width:1.0;"/><polygon fill="#191919" points="875.91,210.9237,866.8923,214.8836,872.543,214.6201,872.8065,220.2709,875.91,210.9237" style="stroke:#191919;stroke-width:1.0;"/><text fill="#000000" font-family="sans-serif" font-size="13" lengthAdjust="spacing" textLength="62" x="863.28" y="244.6606">&#36873;&#25321;"&#20998;&#20139;"</text></g><!--reverse link ????? to ????--><g id="link_&#27604;&#36187;&#25110;&#25361;&#25112;_&#40664;&#35748;&#35270;&#22270;"><path d="M691.9763,198.9708 C652.1963,207.9208 609.97,223.2138 633.28,248.5938 C647.46,264.0338 707.12,250.8538 727.28,256.5938 C761.4,266.3038 797.09,284.8938 823.05,300.1738 " fill="none" id="&#27604;&#36187;&#25110;&#25361;&#25112;-backto-&#40664;&#35748;&#35270;&#22270;" style="stroke:#191919;stroke-width:1.0;"/><polygon fill="#191919" points="697.83,197.6538,688.1715,195.7268,692.9519,198.7513,689.9275,203.5317,697.83,197.6538" style="stroke:#191919;stroke-width:1.0;"/><text fill="#000000" font-family="sans-serif" font-size="13" lengthAdjust="spacing" textLength="127" x="634.28" y="244.6606">&#36873;&#25321;"&#21457;&#36215;&#27604;&#36187;&#25110;&#25361;&#25112;"</text></g><!--link ?????? to ??????--><g id="link_&#26893;&#29289;&#22270;&#29255;&#19978;&#20256;_&#22270;&#29255;&#20998;&#26512;&#32467;&#26524;"><path d="M835.14,453.8538 C835.92,464.9238 838.07,477.9138 843.28,488.5938 C846.41,495.0037 846.8762,496.594 851.7362,501.994 " fill="none" id="&#26893;&#29289;&#22270;&#29255;&#19978;&#20256;-to-&#22270;&#29255;&#20998;&#26512;&#32467;&#26524;" style="stroke:#191919;stroke-width:1.0;"/><polygon fill="#191919" points="855.75,506.4538,852.7025,497.0882,852.4052,502.7373,846.7561,502.44,855.75,506.4538" style="stroke:#191919;stroke-width:1.0;"/><text fill="#000000" font-family="sans-serif" font-size="13" lengthAdjust="spacing" textLength="78" x="844.28" y="484.6606">&#22270;&#29255;&#19978;&#20256;&#25104;&#21151;</text></g><!--link ?????? to ????--><g id="link_&#22270;&#29255;&#20998;&#26512;&#32467;&#26524;_&#40664;&#35748;&#35270;&#22270;"><path d="M912.49,506.1038 C916.9,500.8038 920.81,494.8938 923.28,488.5938 C942.77,438.9538 948.27,415.7138 923.28,368.5938 C917.98,358.6038 914.1058,353.8918 904.7258,347.6118 " fill="none" id="&#22270;&#29255;&#20998;&#26512;&#32467;&#26524;-to-&#40664;&#35748;&#35270;&#22270;" style="stroke:#191919;stroke-width:1.0;"/><polygon fill="#191919" points="899.74,344.2738,904.9933,352.6046,903.8948,347.0554,909.444,345.9569,899.74,344.2738" style="stroke:#191919;stroke-width:1.0;"/><text fill="#000000" font-family="sans-serif" font-size="13" lengthAdjust="spacing" textLength="26" x="941.28" y="433.1606">&#36820;&#22238;</text></g><!--link *start*???? to ????--><g id="link_*start*&#21382;&#21490;&#35760;&#24405;_&#21382;&#21490;&#21015;&#34920;"><path d="M563.28,335.9138 C563.28,351.0538 563.28,375.4738 563.28,397.1138 " fill="none" id="*start*&#21382;&#21490;&#35760;&#24405;-to-&#21382;&#21490;&#21015;&#34920;" style="stroke:#191919;stroke-width:1.0;"/><polygon fill="#191919" points="563.28,403.1138,567.28,394.1138,563.28,398.1138,559.28,394.1138,563.28,403.1138" style="stroke:#191919;stroke-width:1.0;"/></g><!--link ???? to ??????--><g id="link_&#21382;&#21490;&#21015;&#34920;_&#35814;&#32454;&#20998;&#26512;&#32467;&#26524;"><path d="M524.89,428.9738 C486,430.3938 426.31,438.4238 388.28,471.5938 C378.17,480.4138 374.0212,488.4251 370.8212,500.4651 " fill="none" id="&#21382;&#21490;&#21015;&#34920;-to-&#35814;&#32454;&#20998;&#26512;&#32467;&#26524;" style="stroke:#191919;stroke-width:1.0;"/><polygon fill="#191919" points="369.28,506.2637,375.4576,498.5932,370.5643,501.4315,367.726,496.5383,369.28,506.2637" style="stroke:#191919;stroke-width:1.0;"/><text fill="#000000" font-family="sans-serif" font-size="13" lengthAdjust="spacing" textLength="78" x="389.28" y="484.6606">&#36873;&#25321;&#19968;&#39033;&#35760;&#24405;</text></g><!--reverse link ???? to ????--><g id="link_&#40664;&#35748;&#35270;&#22270;_&#21382;&#21490;&#21015;&#34920;"><path d="M817.2474,341.5194 C760.0274,360.9094 658.62,395.2838 601.48,414.6438 " fill="none" id="&#40664;&#35748;&#35270;&#22270;-backto-&#21382;&#21490;&#21015;&#34920;" style="stroke:#191919;stroke-width:1.0;"/><polygon fill="#191919" points="822.93,339.5938,813.1223,338.6938,818.1945,341.1985,815.6899,346.2706,822.93,339.5938" style="stroke:#191919;stroke-width:1.0;"/><text fill="#000000" font-family="sans-serif" font-size="13" lengthAdjust="spacing" textLength="26" x="731.28" y="381.6606">&#36820;&#22238;</text></g><!--link ?????? to ????--><g id="link_&#35814;&#32454;&#20998;&#26512;&#32467;&#26524;_&#21382;&#21490;&#21015;&#34920;"><path d="M417.65,511.2238 C434.12,504.6038 452.19,496.7938 468.28,488.5938 C488.34,478.3638 504.6909,468.5507 522.0809,457.3107 " fill="none" id="&#35814;&#32454;&#20998;&#26512;&#32467;&#26524;-to-&#21382;&#21490;&#21015;&#34920;" style="stroke:#191919;stroke-width:1.0;"/><polygon fill="#191919" points="527.12,454.0538,517.3901,455.5799,522.9208,456.7679,521.7327,462.2986,527.12,454.0538" style="stroke:#191919;stroke-width:1.0;"/><text fill="#000000" font-family="sans-serif" font-size="13" lengthAdjust="spacing" textLength="26" x="499.28" y="484.6606">&#36820;&#22238;</text></g><!--link ?????? to ????--><g id="link_&#35814;&#32454;&#20998;&#26512;&#32467;&#26524;_&#20877;&#27425;&#20998;&#26512;"><path d="M414.66,557.0438 C450.39,574.7338 492.603,595.6314 525.503,611.9214 " fill="none" id="&#35814;&#32454;&#20998;&#26512;&#32467;&#26524;-to-&#20877;&#27425;&#20998;&#26512;" style="stroke:#191919;stroke-width:1.0;"/><polygon fill="#191919" points="530.88,614.5838,524.5894,607.0056,526.3992,612.3651,521.0396,614.1749,530.88,614.5838" style="stroke:#191919;stroke-width:1.0;"/><text fill="#000000" font-family="sans-serif" font-size="13" lengthAdjust="spacing" textLength="88" x="481.28" y="587.6606">&#36873;&#25321;"&#20877;&#27425;&#20998;&#26512;"</text></g><!--link ?????? to ????--><g id="link_&#35814;&#32454;&#20998;&#26512;&#32467;&#26524;_&#21024;&#38500;&#35760;&#24405;"><path d="M417.56,531.5938 C451.25,531.5938 488.29,531.5938 518.84,531.5938 " fill="none" id="&#35814;&#32454;&#20998;&#26512;&#32467;&#26524;-to-&#21024;&#38500;&#35760;&#24405;" style="stroke:#191919;stroke-width:1.0;"/><polygon fill="#191919" points="524.84,531.5938,515.84,527.5938,519.84,531.5938,515.84,535.5938,524.84,531.5938" style="stroke:#191919;stroke-width:1.0;"/><text fill="#000000" font-family="sans-serif" font-size="13" lengthAdjust="spacing" textLength="88" x="427.28" y="524.6606">&#36873;&#25321;"&#21024;&#38500;&#35760;&#24405;"</text></g><!--link ???? to ????--><g id="link_&#20877;&#27425;&#20998;&#26512;_&#21382;&#21490;&#21015;&#34920;"><path d="M591.75,609.3038 C618.99,576.7638 658.23,517.7638 632.28,471.5938 C625.48,459.4938 618.8929,453.3267 606.9029,446.8167 " fill="none" id="&#20877;&#27425;&#20998;&#26512;-to-&#21382;&#21490;&#21015;&#34920;" style="stroke:#191919;stroke-width:1.0;"/><polygon fill="#191919" points="601.63,443.9538,607.6307,451.7634,606.0241,446.3395,611.448,444.7329,601.63,443.9538" style="stroke:#191919;stroke-width:1.0;"/><text fill="#000000" font-family="sans-serif" font-size="13" lengthAdjust="spacing" textLength="52" x="642.28" y="536.1606">&#20998;&#26512;&#23436;&#25104;</text></g><!--link ???? to ????--><g id="link_&#21024;&#38500;&#35760;&#24405;_&#21382;&#21490;&#21015;&#34920;"><path d="M563.28,506.3738 C563.28,490.5338 563.28,475.9238 563.28,460.0438 " fill="none" id="&#21024;&#38500;&#35760;&#24405;-to-&#21382;&#21490;&#21015;&#34920;" style="stroke:#191919;stroke-width:1.0;"/><polygon fill="#191919" points="563.28,454.0438,559.28,463.0438,563.28,459.0438,567.28,463.0438,563.28,454.0438" style="stroke:#191919;stroke-width:1.0;"/><text fill="#000000" font-family="sans-serif" font-size="13" lengthAdjust="spacing" textLength="65" x="564.28" y="484.6606">&#35760;&#24405;&#24050;&#21024;&#38500;</text></g><!--link ?? to ????--><g id="link_&#20998;&#20139;_&#40664;&#35748;&#35270;&#22270;"><path d="M920.54,214.0738 C926.5,224.6038 930.52,237.1137 926.28,248.5938 C918.94,268.4638 908.115,282.4437 894.305,296.0437 " fill="none" id="&#20998;&#20139;-to-&#40664;&#35748;&#35270;&#22270;" style="stroke:#191919;stroke-width:1.0;"/><polygon fill="#191919" points="890.03,300.2538,899.2492,296.7887,893.5925,296.7454,893.6359,291.0887,890.03,300.2538" style="stroke:#191919;stroke-width:1.0;"/><text fill="#000000" font-family="sans-serif" font-size="13" lengthAdjust="spacing" textLength="52" x="929.28" y="244.6606">&#23436;&#25104;&#20998;&#20139;</text></g><!--link ????? to ????--><g id="link_&#27604;&#36187;&#25110;&#25361;&#25112;_&#40664;&#35748;&#35270;&#22270;"><path d="M764.65,214.0438 C786.03,238.5038 814.7911,271.4065 836.1211,295.8065 " fill="none" id="&#27604;&#36187;&#25110;&#25361;&#25112;-to-&#40664;&#35748;&#35270;&#22270;" style="stroke:#191919;stroke-width:1.0;"/><polygon fill="#191919" points="840.07,300.3238,837.1581,290.9152,836.7792,296.5593,831.1351,296.1804,840.07,300.3238" style="stroke:#191919;stroke-width:1.0;"/><text fill="#000000" font-family="sans-serif" font-size="13" lengthAdjust="spacing" textLength="52" x="793.28" y="244.6606">&#21457;&#24067;&#25104;&#21151;</text></g><ellipse cx="525.64" cy="791.59" fill="none" rx="11" ry="11" style="stroke:#222222;stroke-width:1.0;"/><ellipse cx="525.64" cy="791.59" fill="#222222" rx="6" ry="6" style="stroke:#222222;stroke-width:1.0;"/><!--link *start* to ???--><g id="link_*start*_&#20027;&#30028;&#38754;"><path d="M525.64,26.32 C525.64,37.9 525.64,53.46 525.64,80.58 " fill="none" id="*start*-to-&#20027;&#30028;&#38754;" style="stroke:#191919;stroke-width:1.0;"/><polygon fill="#191919" points="525.64,86.58,529.64,77.58,525.64,81.58,521.64,77.58,525.64,86.58" style="stroke:#191919;stroke-width:1.0;"/></g><!--link ??? to *end*--><g id="link_&#20027;&#30028;&#38754;_*end*"><path d="M525.64,704.06 C525.64,738.31 525.64,759.98 525.64,774.19 " fill="none" id="&#20027;&#30028;&#38754;-to-*end*" style="stroke:#191919;stroke-width:1.0;"/><polygon fill="#191919" points="525.64,780.19,529.64,771.19,525.64,775.19,521.64,771.19,525.64,780.19" style="stroke:#191919;stroke-width:1.0;"/><text fill="#000000" font-family="sans-serif" font-size="13" lengthAdjust="spacing" textLength="52" x="526.64" y="746.6569">&#36864;&#20986;&#24212;&#29992;</text></g><!--SRC=[ZLJBJi905DttAyOkJVW15tw1MrV61GaLJ42DO5mO4XAJKXG4ObK8Yc28WXem60DI7p_JcRP_uRItZ-bBdGMXvzvpxfnxPsQfa15o0iebz_FSnl8cIYHMaJfNj8kgSNF7SVb2iY1u03hY45s0yfey9DACN3zgRGL_Nl0ecKVhEzdTT5f8sPdcScGXorPsWYnePP7N8HQhDh22Z5A5d8vuG7cNviiAYbCQn8dKm2UtyRN009vD8K9vy8VX5QtVi6kNPBbUY_DiA2rzFD0VHDpvSeCiY1AftSCTq_UWfbL65D4gPNL-edxqFFVm3J4-HcP_EvqfK1ry9kBwL1-_W25RWKNZ5BB2bYKWYUhYYQ5Qtt6aWprpxnDPV-iGwP9KcqHgCTnwKt-R1SAUb3VEi7cdBm3IJP1kGrFEIVUQohEPWI57v0S7GGNqRnbtkk6Dm8nzFVI6oWuMKh1qfVU7lWGsO6NgatjD4GC6e3_gl6Jqtw7EBoBsO7wtOAw8Ki6z_f_ez5-iaUS-X9Z1CYZ_fvHxDgMUqHw4pYQ3-hLyjIESG0IFpOlk9xA5ebfWHUWTXaINMmoV2FiwH9mXg0jnxoG7ha8Khzx4ysFV6rFaEE-DDIdcCJCRLCBb1Lx8zCtv0G00]--></g></svg>