<?xml version="1.0" encoding="us-ascii" standalone="no"?><svg xmlns="http://www.w3.org/2000/svg" xmlns:xlink="http://www.w3.org/1999/xlink" contentStyleType="text/css" height="575px" preserveAspectRatio="none" style="width:1388px;height:575px;background:#FFFFFF;" version="1.1" viewBox="0 0 1388 575" width="1388px" zoomAndPan="magnify"><defs/><g><rect fill="#FFFFFF" height="29.1328" style="stroke:#181818;stroke-width:1.0;" width="10" x="36" y="125.6953"/><rect fill="#FFFFFF" height="463.6641" style="stroke:#181818;stroke-width:1.0;" width="10" x="123" y="67.4297"/><rect fill="#FFFFFF" height="374.3984" style="stroke:#181818;stroke-width:1.0;" width="10" x="349" y="96.5625"/><rect fill="#FFFFFF" height="287" style="stroke:#181818;stroke-width:1.0;" width="10" x="663" y="183.9609"/><rect fill="#FFFFFF" height="87.3984" style="stroke:#181818;stroke-width:1.0;" width="10" x="973" y="237.2266"/><rect fill="#FFFFFF" height="29.1328" style="stroke:#181818;stroke-width:1.0;" width="10" x="1276" y="266.3594"/><rect fill="#FFFFFF" height="30" style="stroke:#181818;stroke-width:1.0;" width="10" x="1349" y="492.0938"/><rect fill="none" height="265" style="stroke:#000000;stroke-width:1.5;" width="1316" x="10" y="198.9609"/><line style="stroke:#181818;stroke-width:0.5;stroke-dasharray:5.0,5.0;" x1="41" x2="41" y1="36.2969" y2="540.0938"/><line style="stroke:#181818;stroke-width:0.5;stroke-dasharray:5.0,5.0;" x1="128" x2="128" y1="36.2969" y2="540.0938"/><line style="stroke:#181818;stroke-width:0.5;stroke-dasharray:5.0,5.0;" x1="354" x2="354" y1="36.2969" y2="540.0938"/><line style="stroke:#181818;stroke-width:0.5;stroke-dasharray:5.0,5.0;" x1="668" x2="668" y1="36.2969" y2="540.0938"/><line style="stroke:#181818;stroke-width:0.5;stroke-dasharray:5.0,5.0;" x1="978" x2="978" y1="36.2969" y2="540.0938"/><line style="stroke:#181818;stroke-width:0.5;stroke-dasharray:5.0,5.0;" x1="1281" x2="1281" y1="36.2969" y2="540.0938"/><line style="stroke:#181818;stroke-width:0.5;stroke-dasharray:5.0,5.0;" x1="1354" x2="1354" y1="36.2969" y2="540.0938"/><rect fill="#E2E2F0" height="30.2969" rx="2.5" ry="2.5" style="stroke:#181818;stroke-width:0.5;" width="42" x="20" y="5"/><text fill="#000000" font-family="sans-serif" font-size="14" lengthAdjust="spacing" textLength="28" x="27" y="24.9951">&#29992;&#25143;</text><rect fill="#E2E2F0" height="30.2969" rx="2.5" ry="2.5" style="stroke:#181818;stroke-width:0.5;" width="42" x="20" y="539.0938"/><text fill="#000000" font-family="sans-serif" font-size="14" lengthAdjust="spacing" textLength="28" x="27" y="559.0889">&#29992;&#25143;</text><rect fill="#E2E2F0" height="30.2969" rx="2.5" ry="2.5" style="stroke:#181818;stroke-width:0.5;" width="70" x="93" y="5"/><text fill="#000000" font-family="sans-serif" font-size="14" lengthAdjust="spacing" textLength="56" x="100" y="24.9951">&#27426;&#36814;&#30028;&#38754;</text><rect fill="#E2E2F0" height="30.2969" rx="2.5" ry="2.5" style="stroke:#181818;stroke-width:0.5;" width="70" x="93" y="539.0938"/><text fill="#000000" font-family="sans-serif" font-size="14" lengthAdjust="spacing" textLength="56" x="100" y="559.0889">&#27426;&#36814;&#30028;&#38754;</text><rect fill="#E2E2F0" height="30.2969" rx="2.5" ry="2.5" style="stroke:#181818;stroke-width:0.5;" width="70" x="319" y="5"/><text fill="#000000" font-family="sans-serif" font-size="14" lengthAdjust="spacing" textLength="56" x="326" y="24.9951">&#27880;&#20876;&#30028;&#38754;</text><rect fill="#E2E2F0" height="30.2969" rx="2.5" ry="2.5" style="stroke:#181818;stroke-width:0.5;" width="70" x="319" y="539.0938"/><text fill="#000000" font-family="sans-serif" font-size="14" lengthAdjust="spacing" textLength="56" x="326" y="559.0889">&#27880;&#20876;&#30028;&#38754;</text><rect fill="#E2E2F0" height="30.2969" rx="2.5" ry="2.5" style="stroke:#181818;stroke-width:0.5;" width="56" x="640" y="5"/><text fill="#000000" font-family="sans-serif" font-size="14" lengthAdjust="spacing" textLength="42" x="647" y="24.9951">&#25511;&#21046;&#22120;</text><rect fill="#E2E2F0" height="30.2969" rx="2.5" ry="2.5" style="stroke:#181818;stroke-width:0.5;" width="56" x="640" y="539.0938"/><text fill="#000000" font-family="sans-serif" font-size="14" lengthAdjust="spacing" textLength="42" x="647" y="559.0889">&#25511;&#21046;&#22120;</text><rect fill="#E2E2F0" height="30.2969" rx="2.5" ry="2.5" style="stroke:#181818;stroke-width:0.5;" width="56" x="950" y="5"/><text fill="#000000" font-family="sans-serif" font-size="14" lengthAdjust="spacing" textLength="42" x="957" y="24.9951">&#26381;&#21153;&#31471;</text><rect fill="#E2E2F0" height="30.2969" rx="2.5" ry="2.5" style="stroke:#181818;stroke-width:0.5;" width="56" x="950" y="539.0938"/><text fill="#000000" font-family="sans-serif" font-size="14" lengthAdjust="spacing" textLength="42" x="957" y="559.0889">&#26381;&#21153;&#31471;</text><rect fill="#E2E2F0" height="30.2969" rx="2.5" ry="2.5" style="stroke:#181818;stroke-width:0.5;" width="70" x="1246" y="5"/><text fill="#000000" font-family="sans-serif" font-size="14" lengthAdjust="spacing" textLength="56" x="1253" y="24.9951">&#29992;&#25143;&#20449;&#24687;</text><rect fill="#E2E2F0" height="30.2969" rx="2.5" ry="2.5" style="stroke:#181818;stroke-width:0.5;" width="70" x="1246" y="539.0938"/><text fill="#000000" font-family="sans-serif" font-size="14" lengthAdjust="spacing" textLength="56" x="1253" y="559.0889">&#29992;&#25143;&#20449;&#24687;</text><rect fill="#E2E2F0" height="30.2969" rx="2.5" ry="2.5" style="stroke:#181818;stroke-width:0.5;" width="56" x="1326" y="5"/><text fill="#000000" font-family="sans-serif" font-size="14" lengthAdjust="spacing" textLength="42" x="1333" y="24.9951">&#20027;&#30028;&#38754;</text><rect fill="#E2E2F0" height="30.2969" rx="2.5" ry="2.5" style="stroke:#181818;stroke-width:0.5;" width="56" x="1326" y="539.0938"/><text fill="#000000" font-family="sans-serif" font-size="14" lengthAdjust="spacing" textLength="42" x="1333" y="559.0889">&#20027;&#30028;&#38754;</text><rect fill="#FFFFFF" height="29.1328" style="stroke:#181818;stroke-width:1.0;" width="10" x="36" y="125.6953"/><rect fill="#FFFFFF" height="463.6641" style="stroke:#181818;stroke-width:1.0;" width="10" x="123" y="67.4297"/><rect fill="#FFFFFF" height="374.3984" style="stroke:#181818;stroke-width:1.0;" width="10" x="349" y="96.5625"/><rect fill="#FFFFFF" height="287" style="stroke:#181818;stroke-width:1.0;" width="10" x="663" y="183.9609"/><rect fill="#FFFFFF" height="87.3984" style="stroke:#181818;stroke-width:1.0;" width="10" x="973" y="237.2266"/><rect fill="#FFFFFF" height="29.1328" style="stroke:#181818;stroke-width:1.0;" width="10" x="1276" y="266.3594"/><rect fill="#FFFFFF" height="30" style="stroke:#181818;stroke-width:1.0;" width="10" x="1349" y="492.0938"/><polygon fill="#181818" points="111,63.4297,121,67.4297,111,71.4297,115,67.4297" style="stroke:#181818;stroke-width:1.0;"/><line style="stroke:#181818;stroke-width:1.0;" x1="41" x2="117" y1="67.4297" y2="67.4297"/><text fill="#000000" font-family="sans-serif" font-size="13" lengthAdjust="spacing" textLength="63" x="48" y="62.3638">ClickReg()</text><polygon fill="#181818" points="337,92.5625,347,96.5625,337,100.5625,341,96.5625" style="stroke:#181818;stroke-width:1.0;"/><line style="stroke:#181818;stroke-width:1.0;" x1="133" x2="343" y1="96.5625" y2="96.5625"/><text fill="#000000" font-family="sans-serif" font-size="13" lengthAdjust="spacing" textLength="101" x="140" y="91.4966">ShowRegForm()</text><polygon fill="#181818" points="57,121.6953,47,125.6953,57,129.6953,53,125.6953" style="stroke:#181818;stroke-width:1.0;"/><line style="stroke:#181818;stroke-width:1.0;" x1="51" x2="348" y1="125.6953" y2="125.6953"/><text fill="#000000" font-family="sans-serif" font-size="13" lengthAdjust="spacing" textLength="265" x="63" y="120.6294">InputRegInfo(username, password, email)</text><polygon fill="#181818" points="337,150.8281,347,154.8281,337,158.8281,341,154.8281" style="stroke:#181818;stroke-width:1.0;"/><line style="stroke:#181818;stroke-width:1.0;" x1="41" x2="343" y1="154.8281" y2="154.8281"/><text fill="#000000" font-family="sans-serif" font-size="13" lengthAdjust="spacing" textLength="279" x="48" y="149.7622">SubmitRegInfo(username, password, email)</text><polygon fill="#181818" points="651,179.9609,661,183.9609,651,187.9609,655,183.9609" style="stroke:#181818;stroke-width:1.0;"/><line style="stroke:#181818;stroke-width:1.0;" x1="359" x2="657" y1="183.9609" y2="183.9609"/><text fill="#000000" font-family="sans-serif" font-size="13" lengthAdjust="spacing" textLength="285" x="366" y="178.895">ValidateRegInfo(username, password, email)</text><path d="M10,198.9609 L74,198.9609 L74,206.0938 L64,216.0938 L10,216.0938 L10,198.9609 " fill="#EEEEEE" style="stroke:#000000;stroke-width:1.5;"/><rect fill="none" height="265" style="stroke:#000000;stroke-width:1.5;" width="1316" x="10" y="198.9609"/><text fill="#000000" font-family="sans-serif" font-size="13" font-weight="bold" lengthAdjust="spacing" textLength="19" x="25" y="212.0278">alt</text><text fill="#000000" font-family="sans-serif" font-size="11" font-weight="bold" lengthAdjust="spacing" textLength="54" x="89" y="211.1714">[&#20449;&#24687;&#26377;&#25928;]</text><polygon fill="#181818" points="961,233.2266,971,237.2266,961,241.2266,965,237.2266" style="stroke:#181818;stroke-width:1.0;"/><line style="stroke:#181818;stroke-width:1.0;" x1="673" x2="967" y1="237.2266" y2="237.2266"/><text fill="#000000" font-family="sans-serif" font-size="13" lengthAdjust="spacing" textLength="281" x="680" y="232.1606">CreateAccount(username, password, email)</text><polygon fill="#181818" points="1264,262.3594,1274,266.3594,1264,270.3594,1268,266.3594" style="stroke:#181818;stroke-width:1.0;"/><line style="stroke:#181818;stroke-width:1.0;" x1="983" x2="1270" y1="266.3594" y2="266.3594"/><text fill="#000000" font-family="sans-serif" font-size="13" lengthAdjust="spacing" textLength="274" x="990" y="261.2935">StoreUserInfo(username, password, email)</text><polygon fill="#181818" points="994,291.4922,984,295.4922,994,299.4922,990,295.4922" style="stroke:#181818;stroke-width:1.0;"/><line style="stroke:#181818;stroke-width:1.0;" x1="988" x2="1280" y1="295.4922" y2="295.4922"/><text fill="#000000" font-family="sans-serif" font-size="13" lengthAdjust="spacing" textLength="114" x="1000" y="290.4263">ConfirmCreation()</text><polygon fill="#181818" points="684,320.625,674,324.625,684,328.625,680,324.625" style="stroke:#181818;stroke-width:1.0;"/><line style="stroke:#181818;stroke-width:1.0;" x1="678" x2="977" y1="324.625" y2="324.625"/><text fill="#000000" font-family="sans-serif" font-size="13" lengthAdjust="spacing" textLength="113" x="690" y="319.5591">AccountCreated()</text><polygon fill="#181818" points="370,349.7578,360,353.7578,370,357.7578,366,353.7578" style="stroke:#181818;stroke-width:1.0;"/><line style="stroke:#181818;stroke-width:1.0;" x1="364" x2="662" y1="353.7578" y2="353.7578"/><text fill="#000000" font-family="sans-serif" font-size="13" lengthAdjust="spacing" textLength="126" x="376" y="348.6919">ShowConfirmation()</text><polygon fill="#181818" points="52,378.8906,42,382.8906,52,386.8906,48,382.8906" style="stroke:#181818;stroke-width:1.0;"/><line style="stroke:#181818;stroke-width:1.0;" x1="46" x2="348" y1="382.8906" y2="382.8906"/><text fill="#000000" font-family="sans-serif" font-size="13" lengthAdjust="spacing" textLength="138" x="58" y="377.8247">DisplayConfirmation()</text><line style="stroke:#000000;stroke-width:1.0;stroke-dasharray:2.0,2.0;" x1="10" x2="1326" y1="391.8906" y2="391.8906"/><text fill="#000000" font-family="sans-serif" font-size="11" font-weight="bold" lengthAdjust="spacing" textLength="54" x="15" y="402.1011">[&#20449;&#24687;&#26080;&#25928;]</text><polygon fill="#181818" points="370,422.8281,360,426.8281,370,430.8281,366,426.8281" style="stroke:#181818;stroke-width:1.0;"/><line style="stroke:#181818;stroke-width:1.0;" x1="364" x2="662" y1="426.8281" y2="426.8281"/><text fill="#000000" font-family="sans-serif" font-size="13" lengthAdjust="spacing" textLength="163" x="376" y="421.7622">ShowError("&#20449;&#24687;&#26657;&#39564;&#22833;&#36133;")</text><polygon fill="#181818" points="52,451.9609,42,455.9609,52,459.9609,48,455.9609" style="stroke:#181818;stroke-width:1.0;"/><line style="stroke:#181818;stroke-width:1.0;" x1="46" x2="348" y1="455.9609" y2="455.9609"/><text fill="#000000" font-family="sans-serif" font-size="13" lengthAdjust="spacing" textLength="175" x="58" y="450.895">DisplayError("&#20449;&#24687;&#26657;&#39564;&#22833;&#36133;")</text><polygon fill="#181818" points="1337,488.0938,1347,492.0938,1337,496.0938,1341,492.0938" style="stroke:#181818;stroke-width:1.0;"/><line style="stroke:#181818;stroke-width:1.0;" x1="41" x2="1343" y1="492.0938" y2="492.0938"/><text fill="#000000" font-family="sans-serif" font-size="13" lengthAdjust="spacing" textLength="157" x="48" y="487.0278">NavigateToMainScreen()</text><!--SRC=[bPJFIiD04CRlUOgbfmhw0Zq8uX_me0UhtjTahOkRtR3Pj7Zq8bMg9qK41IkAHGKHHGKFVPacRT_2tIHDDcaijRTEPdxpVJEJE90BR687KW7wvvsW-GMW2pmNSSFH7fM2bxj1zwn_qHhUt9LKIWCHazceQdA4Q2xtlUCVjRHSZchO5HmAp6XXmTcZt_pqhpfXjiceu8oGCGdNf_v9k__y6cP9XVLyHcIWrsq7Xr6Iyh5ATrashVVzeucp8Hw9CbG-c9lFcWCLi4YmkR-1QkKP0ve2rw50kG4OsHB963SjGTKzrf2S5SPjdLKm8AEWNb93XHMmIXrFI90oLrOn2cqq2npekWt6hLc0f2sYTGWtclWhrkRjs7WQg8Los6AfwHubV1iIRCcA_sZM3i60H81eiS7rSN3HD83yQHral-WYrBOuakKBfiayAYPrKeoaMtnGOJ16nVDMWjLy1EDeA_u_DJOvmJ2Su39w6Tt5t0vbomcM8q9koYaZ5PUPSEmtCc-DGtH_sS7zUQcnC5tLnAjSmgv3u46k314NZNPtULkykpybB7FEUBaKbz-sXqyj__vjyF5GcbxF90QYbg4Vj7PpMhJe_HozI-dtGtPSXtLSanMRR2q9wo-wzh7Hy6dq5m00]--></g></svg>