<?xml version="1.0" encoding="us-ascii" standalone="no"?><svg xmlns="http://www.w3.org/2000/svg" xmlns:xlink="http://www.w3.org/1999/xlink" contentStyleType="text/css" height="842px" preserveAspectRatio="none" style="width:1311px;height:842px;background:#F9F9F9;" version="1.1" viewBox="0 0 1311 842" width="1311px" zoomAndPan="magnify"><defs/><g><rect fill="#F9F9F9" height="842" style="stroke:none;stroke-width:1.0;" width="1311" x="0" y="0"/><rect fill="#FFFFFF" height="145.6641" style="stroke:#393939;stroke-width:1.0;" width="10" x="356" y="83.7266"/><rect fill="#FFFFFF" height="523.0625" style="stroke:#393939;stroke-width:1.0;" width="10" x="356" y="258.5234"/><rect fill="#FFFFFF" height="410.5313" style="stroke:#393939;stroke-width:1.0;" width="10" x="361" y="370.0547"/><rect fill="#FFFFFF" height="29.1328" style="stroke:#393939;stroke-width:1.0;" width="10" x="567" y="287.6563"/><rect fill="#FFFFFF" height="29.1328" style="stroke:#393939;stroke-width:1.0;" width="10" x="567" y="568.9844"/><rect fill="#FFFFFF" height="87.3984" style="stroke:#393939;stroke-width:1.0;" width="10" x="719" y="112.8594"/><rect fill="#FFFFFF" height="131.5313" style="stroke:#393939;stroke-width:1.0;" width="10" x="719" y="642.0547"/><rect fill="#FFFFFF" height="358.2656" style="stroke:#393939;stroke-width:1.0;" width="10" x="898.5" y="423.3203"/><rect fill="#FFFFFF" height="29.1328" style="stroke:#393939;stroke-width:1.0;" width="10" x="1122.5" y="452.4531"/><rect fill="#FFFFFF" height="29.1328" style="stroke:#393939;stroke-width:1.0;" width="10" x="1232" y="141.9922"/><rect fill="#FFFFFF" height="29.1328" style="stroke:#393939;stroke-width:1.0;" width="10" x="1232" y="510.7188"/><rect fill="#FFFFFF" height="29.1328" style="stroke:#393939;stroke-width:1.0;" width="10" x="1232" y="671.1875"/><rect fill="none" height="441.7969" rx="3.5" ry="3.5" style="stroke:#393939;stroke-width:1.0;" width="1295" x="10" y="331.7891"/><rect fill="none" height="381.5313" rx="3.5" ry="3.5" style="stroke:#393939;stroke-width:1.0;" width="1275" x="20" y="385.0547"/><line style="stroke:#393939;stroke-width:0.5;stroke-dasharray:5.0,5.0;" x1="70" x2="70" y1="52.5938" y2="790.5859"/><line style="stroke:#393939;stroke-width:0.5;stroke-dasharray:5.0,5.0;" x1="361" x2="361" y1="52.5938" y2="790.5859"/><line style="stroke:#393939;stroke-width:0.5;stroke-dasharray:5.0,5.0;" x1="572" x2="572" y1="52.5938" y2="790.5859"/><line style="stroke:#393939;stroke-width:0.5;stroke-dasharray:5.0,5.0;" x1="724" x2="724" y1="52.5938" y2="790.5859"/><line style="stroke:#393939;stroke-width:0.5;stroke-dasharray:5.0,5.0;" x1="903" x2="903" y1="52.5938" y2="790.5859"/><line style="stroke:#393939;stroke-width:0.5;stroke-dasharray:5.0,5.0;" x1="1127" x2="1127" y1="52.5938" y2="790.5859"/><line style="stroke:#393939;stroke-width:0.5;stroke-dasharray:5.0,5.0;" x1="1237" x2="1237" y1="52.5938" y2="790.5859"/><rect fill="#E55756" height="46.5938" rx="3.5" ry="3.5" style="stroke:#191919;stroke-width:1.5;" width="80" x="30" y="5"/><text fill="#F9F9F9" font-family="sans-serif" font-size="14" font-style="italic" lengthAdjust="spacing" textLength="66" x="37" y="24.9951">&#171;human&#187;</text><text fill="#F9F9F9" font-family="sans-serif" font-size="14" lengthAdjust="spacing" textLength="28" x="56" y="41.292">&#29992;&#25143;</text><rect fill="#E55756" height="46.5938" rx="3.5" ry="3.5" style="stroke:#191919;stroke-width:1.5;" width="80" x="30" y="789.5859"/><text fill="#F9F9F9" font-family="sans-serif" font-size="14" font-style="italic" lengthAdjust="spacing" textLength="66" x="37" y="809.5811">&#171;human&#187;</text><text fill="#F9F9F9" font-family="sans-serif" font-size="14" lengthAdjust="spacing" textLength="28" x="56" y="825.8779">&#29992;&#25143;</text><rect fill="#E55756" height="46.5938" rx="3.5" ry="3.5" style="stroke:#191919;stroke-width:1.5;" width="160" x="281" y="5"/><text fill="#F9F9F9" font-family="sans-serif" font-size="14" font-style="italic" lengthAdjust="spacing" textLength="78" x="322" y="24.9951">&#171;interface&#187;</text><text fill="#F9F9F9" font-family="sans-serif" font-size="14" lengthAdjust="spacing" textLength="146" x="288" y="41.292">HistoryRecordScreen</text><rect fill="#E55756" height="46.5938" rx="3.5" ry="3.5" style="stroke:#191919;stroke-width:1.5;" width="160" x="281" y="789.5859"/><text fill="#F9F9F9" font-family="sans-serif" font-size="14" font-style="italic" lengthAdjust="spacing" textLength="78" x="322" y="809.5811">&#171;interface&#187;</text><text fill="#F9F9F9" font-family="sans-serif" font-size="14" lengthAdjust="spacing" textLength="146" x="288" y="825.8779">HistoryRecordScreen</text><rect fill="#E55756" height="46.5938" rx="3.5" ry="3.5" style="stroke:#191919;stroke-width:1.5;" width="156" x="494" y="5"/><text fill="#F9F9F9" font-family="sans-serif" font-size="14" font-style="italic" lengthAdjust="spacing" textLength="78" x="533" y="24.9951">&#171;interface&#187;</text><text fill="#F9F9F9" font-family="sans-serif" font-size="14" lengthAdjust="spacing" textLength="142" x="501" y="41.292">ResultDisplayScreen</text><rect fill="#E55756" height="46.5938" rx="3.5" ry="3.5" style="stroke:#191919;stroke-width:1.5;" width="156" x="494" y="789.5859"/><text fill="#F9F9F9" font-family="sans-serif" font-size="14" font-style="italic" lengthAdjust="spacing" textLength="78" x="533" y="809.5811">&#171;interface&#187;</text><text fill="#F9F9F9" font-family="sans-serif" font-size="14" lengthAdjust="spacing" textLength="142" x="501" y="825.8779">ResultDisplayScreen</text><rect fill="#E55756" height="46.5938" rx="3.5" ry="3.5" style="stroke:#191919;stroke-width:1.5;" width="128" x="660" y="5"/><text fill="#F9F9F9" font-family="sans-serif" font-size="14" font-style="italic" lengthAdjust="spacing" textLength="66" x="691" y="24.9951">&#171;control&#187;</text><text fill="#F9F9F9" font-family="sans-serif" font-size="14" lengthAdjust="spacing" textLength="114" x="667" y="41.292">HistoryController</text><rect fill="#E55756" height="46.5938" rx="3.5" ry="3.5" style="stroke:#191919;stroke-width:1.5;" width="128" x="660" y="789.5859"/><text fill="#F9F9F9" font-family="sans-serif" font-size="14" font-style="italic" lengthAdjust="spacing" textLength="66" x="691" y="809.5811">&#171;control&#187;</text><text fill="#F9F9F9" font-family="sans-serif" font-size="14" lengthAdjust="spacing" textLength="114" x="667" y="825.8779">HistoryController</text><rect fill="#E55756" height="46.5938" rx="3.5" ry="3.5" style="stroke:#191919;stroke-width:1.5;" width="211" x="798" y="5"/><text fill="#F9F9F9" font-family="sans-serif" font-size="14" font-style="italic" lengthAdjust="spacing" textLength="66" x="870.5" y="24.9951">&#171;control&#187;</text><text fill="#F9F9F9" font-family="sans-serif" font-size="14" lengthAdjust="spacing" textLength="197" x="805" y="41.292">UploadAndAnalysisController</text><rect fill="#E55756" height="46.5938" rx="3.5" ry="3.5" style="stroke:#191919;stroke-width:1.5;" width="211" x="798" y="789.5859"/><text fill="#F9F9F9" font-family="sans-serif" font-size="14" font-style="italic" lengthAdjust="spacing" textLength="66" x="870.5" y="809.5811">&#171;control&#187;</text><text fill="#F9F9F9" font-family="sans-serif" font-size="14" lengthAdjust="spacing" textLength="197" x="805" y="825.8779">UploadAndAnalysisController</text><rect fill="#E55756" height="46.5938" rx="3.5" ry="3.5" style="stroke:#191919;stroke-width:1.5;" width="103" x="1076" y="5"/><text fill="#F9F9F9" font-family="sans-serif" font-size="14" font-style="italic" lengthAdjust="spacing" textLength="66" x="1094.5" y="24.9951">&#171;control&#187;</text><text fill="#F9F9F9" font-family="sans-serif" font-size="14" lengthAdjust="spacing" textLength="89" x="1083" y="41.292">KaggleModel</text><rect fill="#E55756" height="46.5938" rx="3.5" ry="3.5" style="stroke:#191919;stroke-width:1.5;" width="103" x="1076" y="789.5859"/><text fill="#F9F9F9" font-family="sans-serif" font-size="14" font-style="italic" lengthAdjust="spacing" textLength="66" x="1094.5" y="809.5811">&#171;control&#187;</text><text fill="#F9F9F9" font-family="sans-serif" font-size="14" lengthAdjust="spacing" textLength="89" x="1083" y="825.8779">KaggleModel</text><rect fill="#E55756" height="46.5938" rx="3.5" ry="3.5" style="stroke:#191919;stroke-width:1.5;" width="96" x="1189" y="5"/><text fill="#F9F9F9" font-family="sans-serif" font-size="14" font-style="italic" lengthAdjust="spacing" textLength="82" x="1196" y="24.9951">&#171;database&#187;</text><text fill="#F9F9F9" font-family="sans-serif" font-size="14" lengthAdjust="spacing" textLength="68" x="1203" y="41.292">HistoryDB</text><rect fill="#E55756" height="46.5938" rx="3.5" ry="3.5" style="stroke:#191919;stroke-width:1.5;" width="96" x="1189" y="789.5859"/><text fill="#F9F9F9" font-family="sans-serif" font-size="14" font-style="italic" lengthAdjust="spacing" textLength="82" x="1196" y="809.5811">&#171;database&#187;</text><text fill="#F9F9F9" font-family="sans-serif" font-size="14" lengthAdjust="spacing" textLength="68" x="1203" y="825.8779">HistoryDB</text><rect fill="#FFFFFF" height="145.6641" style="stroke:#393939;stroke-width:1.0;" width="10" x="356" y="83.7266"/><rect fill="#FFFFFF" height="523.0625" style="stroke:#393939;stroke-width:1.0;" width="10" x="356" y="258.5234"/><rect fill="#FFFFFF" height="410.5313" style="stroke:#393939;stroke-width:1.0;" width="10" x="361" y="370.0547"/><rect fill="#FFFFFF" height="29.1328" style="stroke:#393939;stroke-width:1.0;" width="10" x="567" y="287.6563"/><rect fill="#FFFFFF" height="29.1328" style="stroke:#393939;stroke-width:1.0;" width="10" x="567" y="568.9844"/><rect fill="#FFFFFF" height="87.3984" style="stroke:#393939;stroke-width:1.0;" width="10" x="719" y="112.8594"/><rect fill="#FFFFFF" height="131.5313" style="stroke:#393939;stroke-width:1.0;" width="10" x="719" y="642.0547"/><rect fill="#FFFFFF" height="358.2656" style="stroke:#393939;stroke-width:1.0;" width="10" x="898.5" y="423.3203"/><rect fill="#FFFFFF" height="29.1328" style="stroke:#393939;stroke-width:1.0;" width="10" x="1122.5" y="452.4531"/><rect fill="#FFFFFF" height="29.1328" style="stroke:#393939;stroke-width:1.0;" width="10" x="1232" y="141.9922"/><rect fill="#FFFFFF" height="29.1328" style="stroke:#393939;stroke-width:1.0;" width="10" x="1232" y="510.7188"/><rect fill="#FFFFFF" height="29.1328" style="stroke:#393939;stroke-width:1.0;" width="10" x="1232" y="671.1875"/><polygon fill="#191919" points="344,79.7266,354,83.7266,344,87.7266,348,83.7266" style="stroke:#191919;stroke-width:1.0;"/><line style="stroke:#191919;stroke-width:1.0;" x1="70" x2="350" y1="83.7266" y2="83.7266"/><text fill="#000000" font-family="sans-serif" font-size="13" lengthAdjust="spacing" textLength="142" x="77" y="78.6606">selectHistoryFeature()</text><polygon fill="#191919" points="707,108.8594,717,112.8594,707,116.8594,711,112.8594" style="stroke:#191919;stroke-width:1.0;"/><line style="stroke:#191919;stroke-width:1.0;" x1="366" x2="713" y1="112.8594" y2="112.8594"/><text fill="#000000" font-family="sans-serif" font-size="13" lengthAdjust="spacing" textLength="104" x="373" y="107.7935">requestHistory()</text><polygon fill="#191919" points="1220,137.9922,1230,141.9922,1220,145.9922,1224,141.9922" style="stroke:#191919;stroke-width:1.0;"/><line style="stroke:#191919;stroke-width:1.0;" x1="729" x2="1226" y1="141.9922" y2="141.9922"/><text fill="#000000" font-family="sans-serif" font-size="13" lengthAdjust="spacing" textLength="128" x="736" y="136.9263">getRecordsByUser()</text><polygon fill="#191919" points="740,167.125,730,171.125,740,175.125,736,171.125" style="stroke:#191919;stroke-width:1.0;"/><line style="stroke:#191919;stroke-width:1.0;" x1="734" x2="1236" y1="171.125" y2="171.125"/><text fill="#000000" font-family="sans-serif" font-size="13" lengthAdjust="spacing" textLength="190" x="746" y="166.0591">returnHistoryData(historyList)</text><polygon fill="#191919" points="377,196.2578,367,200.2578,377,204.2578,373,200.2578" style="stroke:#191919;stroke-width:1.0;"/><line style="stroke:#191919;stroke-width:1.0;" x1="371" x2="723" y1="200.2578" y2="200.2578"/><text fill="#000000" font-family="sans-serif" font-size="13" lengthAdjust="spacing" textLength="164" x="383" y="195.1919">displayHistory(historyList)</text><polygon fill="#191919" points="81,225.3906,71,229.3906,81,233.3906,77,229.3906" style="stroke:#191919;stroke-width:1.0;"/><line style="stroke:#191919;stroke-width:1.0;" x1="75" x2="360" y1="229.3906" y2="229.3906"/><text fill="#000000" font-family="sans-serif" font-size="13" lengthAdjust="spacing" textLength="164" x="87" y="224.3247">displayHistory(historyList)</text><polygon fill="#191919" points="344,254.5234,354,258.5234,344,262.5234,348,258.5234" style="stroke:#191919;stroke-width:1.0;"/><line style="stroke:#191919;stroke-width:1.0;" x1="70" x2="350" y1="258.5234" y2="258.5234"/><text fill="#000000" font-family="sans-serif" font-size="13" lengthAdjust="spacing" textLength="144" x="77" y="253.4575">selectRecord(recordId)</text><polygon fill="#191919" points="555,283.6563,565,287.6563,555,291.6563,559,287.6563" style="stroke:#191919;stroke-width:1.0;"/><line style="stroke:#191919;stroke-width:1.0;" x1="366" x2="561" y1="287.6563" y2="287.6563"/><text fill="#000000" font-family="sans-serif" font-size="13" lengthAdjust="spacing" textLength="182" x="373" y="282.5903">showRecordDetails(recordId)</text><polygon fill="#191919" points="81,312.7891,71,316.7891,81,320.7891,77,316.7891" style="stroke:#191919;stroke-width:1.0;"/><line style="stroke:#191919;stroke-width:1.0;" x1="75" x2="571" y1="316.7891" y2="316.7891"/><text fill="#000000" font-family="sans-serif" font-size="13" lengthAdjust="spacing" textLength="140" x="87" y="311.7231">displayDetails(details)</text><path d="M13.5,331.7891 L87,331.7891 L87,338.9219 L77,348.9219 L10,348.9219 L10,335.2891 A3.5,3.5 0 0 1 13.5,331.7891 " fill="#EEEEEE" style="stroke:#393939;stroke-width:1.5;"/><rect fill="none" height="441.7969" rx="3.5" ry="3.5" style="stroke:#393939;stroke-width:1.0;" width="1295" x="10" y="331.7891"/><text fill="#191919" font-family="sans-serif" font-size="13" font-weight="bold" lengthAdjust="spacing" textLength="32" x="25" y="344.856">loop</text><text fill="#393939" font-family="sans-serif" font-size="11" font-weight="bold" lengthAdjust="spacing" textLength="109" x="102" y="343.9995">[&#20877;&#27425;&#20998;&#26512;&#25110;&#21024;&#38500;&#35760;&#24405;]</text><polygon fill="#191919" points="349,366.0547,359,370.0547,349,374.0547,353,370.0547" style="stroke:#191919;stroke-width:1.0;"/><line style="stroke:#191919;stroke-width:1.0;" x1="70" x2="355" y1="370.0547" y2="370.0547"/><text fill="#000000" font-family="sans-serif" font-size="13" lengthAdjust="spacing" textLength="262" x="77" y="364.9888">chooseAction(reanalyze/delete, recordId)</text><path d="M23.5,385.0547 L84,385.0547 L84,392.1875 L74,402.1875 L20,402.1875 L20,388.5547 A3.5,3.5 0 0 1 23.5,385.0547 " fill="#EEEEEE" style="stroke:#393939;stroke-width:1.5;"/><rect fill="none" height="381.5313" rx="3.5" ry="3.5" style="stroke:#393939;stroke-width:1.0;" width="1275" x="20" y="385.0547"/><text fill="#191919" font-family="sans-serif" font-size="13" font-weight="bold" lengthAdjust="spacing" textLength="19" x="35" y="398.1216">alt</text><text fill="#393939" font-family="sans-serif" font-size="11" font-weight="bold" lengthAdjust="spacing" textLength="54" x="99" y="397.2651">[&#20877;&#27425;&#20998;&#26512;]</text><polygon fill="#191919" points="886.5,419.3203,896.5,423.3203,886.5,427.3203,890.5,423.3203" style="stroke:#191919;stroke-width:1.0;"/><line style="stroke:#191919;stroke-width:1.0;" x1="371" x2="892.5" y1="423.3203" y2="423.3203"/><text fill="#000000" font-family="sans-serif" font-size="13" lengthAdjust="spacing" textLength="168" x="378" y="418.2544">reanalyzeRecord(recordId)</text><polygon fill="#191919" points="1110.5,448.4531,1120.5,452.4531,1110.5,456.4531,1114.5,452.4531" style="stroke:#191919;stroke-width:1.0;"/><line style="stroke:#191919;stroke-width:1.0;" x1="908.5" x2="1116.5" y1="452.4531" y2="452.4531"/><text fill="#000000" font-family="sans-serif" font-size="13" lengthAdjust="spacing" textLength="165" x="915.5" y="447.3872">analyzeAndPredict(photo)</text><polygon fill="#191919" points="919.5,477.5859,909.5,481.5859,919.5,485.5859,915.5,481.5859" style="stroke:#191919;stroke-width:1.0;"/><line style="stroke:#191919;stroke-width:1.0;" x1="913.5" x2="1126.5" y1="481.5859" y2="481.5859"/><text fill="#000000" font-family="sans-serif" font-size="13" lengthAdjust="spacing" textLength="190" x="925.5" y="476.52">predictionResults(newResults)</text><polygon fill="#191919" points="1220,506.7188,1230,510.7188,1220,514.7188,1224,510.7188" style="stroke:#191919;stroke-width:1.0;"/><line style="stroke:#191919;stroke-width:1.0;" x1="908.5" x2="1226" y1="510.7188" y2="510.7188"/><text fill="#000000" font-family="sans-serif" font-size="13" lengthAdjust="spacing" textLength="230" x="915.5" y="505.6528">updateRecord(recordId, newResults)</text><polygon fill="#191919" points="919.5,535.8516,909.5,539.8516,919.5,543.8516,915.5,539.8516" style="stroke:#191919;stroke-width:1.0;"/><line style="stroke:#191919;stroke-width:1.0;" x1="913.5" x2="1236" y1="539.8516" y2="539.8516"/><text fill="#000000" font-family="sans-serif" font-size="13" lengthAdjust="spacing" textLength="108" x="925.5" y="534.7856">updateSuccess()</text><polygon fill="#191919" points="588,564.9844,578,568.9844,588,572.9844,584,568.9844" style="stroke:#191919;stroke-width:1.0;"/><line style="stroke:#191919;stroke-width:1.0;" x1="582" x2="897.5" y1="568.9844" y2="568.9844"/><text fill="#000000" font-family="sans-serif" font-size="13" lengthAdjust="spacing" textLength="159" x="594" y="563.9185">showResults(newResults)</text><polygon fill="#191919" points="81,594.1172,71,598.1172,81,602.1172,77,598.1172" style="stroke:#191919;stroke-width:1.0;"/><line style="stroke:#191919;stroke-width:1.0;" x1="75" x2="571" y1="598.1172" y2="598.1172"/><text fill="#000000" font-family="sans-serif" font-size="13" lengthAdjust="spacing" textLength="171" x="87" y="593.0513">displayResults(newResults)</text><line style="stroke:#393939;stroke-width:1.0;stroke-dasharray:2.0,2.0;" x1="20" x2="1295" y1="607.1172" y2="607.1172"/><text fill="#393939" font-family="sans-serif" font-size="11" font-weight="bold" lengthAdjust="spacing" textLength="54" x="25" y="617.3276">[&#21024;&#38500;&#35760;&#24405;]</text><polygon fill="#191919" points="707,638.0547,717,642.0547,707,646.0547,711,642.0547" style="stroke:#191919;stroke-width:1.0;"/><line style="stroke:#191919;stroke-width:1.0;" x1="371" x2="713" y1="642.0547" y2="642.0547"/><text fill="#000000" font-family="sans-serif" font-size="13" lengthAdjust="spacing" textLength="146" x="378" y="636.9888">deleteRecord(recordId)</text><polygon fill="#191919" points="1220,667.1875,1230,671.1875,1220,675.1875,1224,671.1875" style="stroke:#191919;stroke-width:1.0;"/><line style="stroke:#191919;stroke-width:1.0;" x1="729" x2="1226" y1="671.1875" y2="671.1875"/><text fill="#000000" font-family="sans-serif" font-size="13" lengthAdjust="spacing" textLength="146" x="736" y="666.1216">deleteRecord(recordId)</text><polygon fill="#191919" points="740,696.3203,730,700.3203,740,704.3203,736,700.3203" style="stroke:#191919;stroke-width:1.0;"/><line style="stroke:#191919;stroke-width:1.0;" x1="734" x2="1236" y1="700.3203" y2="700.3203"/><text fill="#000000" font-family="sans-serif" font-size="13" lengthAdjust="spacing" textLength="114" x="746" y="695.2544">deletionSuccess()</text><polygon fill="#191919" points="382,725.4531,372,729.4531,382,733.4531,378,729.4531" style="stroke:#191919;stroke-width:1.0;"/><line style="stroke:#191919;stroke-width:1.0;" x1="376" x2="718" y1="729.4531" y2="729.4531"/><text fill="#000000" font-family="sans-serif" font-size="13" lengthAdjust="spacing" textLength="154" x="388" y="724.3872">displayUpdatedHistory()</text><polygon fill="#191919" points="81,754.5859,71,758.5859,81,762.5859,77,758.5859" style="stroke:#191919;stroke-width:1.0;"/><line style="stroke:#191919;stroke-width:1.0;" x1="75" x2="360" y1="758.5859" y2="758.5859"/><text fill="#000000" font-family="sans-serif" font-size="13" lengthAdjust="spacing" textLength="156" x="87" y="753.52">DisplayUpdatedHistory()</text><!--SRC=[dLLDZjCm5Dxx56PM6MaG-sfKQKg4G824PjG36FlHHBXsi1r6vG2ZRf1O018R118B5WYnOyLnMk0ME77If8dZj5ILqhZlVT_xtfzlcGIMW9T4QOGoeanAqum8Wt-__RfT_yH4uro3mkVdIRuaOZhTCpgvdseZrUeIg5JiYYe0SLBu9Frp2v4A0-ePeT25kGITSnEdEkDarO9H_VCGJ1NDNIcCafo3QiVId5e8wbww0FECIy8kXFqIljAfxa3bm_yFWpuaYmM7nv81Bq6UD-_3JfMKUDQM4C-i0oE6F2Mw48_AqjoUUjCzmHeuK5CXtGDYSWNHAIBKf2-90PyNGZweXg6bTsAhyo87NHDua1lh7MuBe46rkYPu0SQHwjbgRdLvyEBP3iUw34PbTOewVpPPKMNro3vE4OC0gZUwJbQPwyPQzGYu9mNTr9P5F1PtlsY7z84xZ5JvUC3-imzy4saP4ddjB6Cm9ENQH-DnHSY7ryj93ShSSoyVNbGkPOOtDw-ttpvlrZVRZs-sw_URzQU_7xxy-VvZy-iTmlOJJXfDfDHmOMcai6f8CV2lu8uTMZ1mXXjz1LGubQK5Dti1bOV5PwWf0fkcwF4gdbvHQzXTH04WjBCEiTbWsXjhWYjgQ_r40KkfYR946kdXRlarN6smKQ6POx0rS5U4ZWHSLpyRmbOxU2b7vBMtK9xP_TfDwndsiVhsIAUgRak59Jh6gvnIq3hoYl8GZ4WAZUbm7iD3LLiTDB87bij7L9W0ru1x4nkO5zzDu6PrV4Gygxh3DjmlHt8CziXW_BRrZ-sDuo-pUTc3hBd9nxQJgtKSy0R1N4J1Ex6q2jzk_m00]--></g></svg>